<?xml version="1.0" encoding="utf-8"?>
<!-- Generator: Adobe Illustrator 13.0.0, SVG Export Plug-In . SVG Version: 6.00 Build 14948)  -->
<!DOCTYPE svg PUBLIC "-//W3C//DTD SVG 1.1//EN" "http://www.w3.org/Graphics/SVG/1.1/DTD/svg11.dtd">
<svg version="1.1" id="Layer_1" xmlns="http://www.w3.org/2000/svg" xmlns:xlink="http://www.w3.org/1999/xlink" x="0px" y="0px"
	 width="100px" height="100px" viewBox="0 0 100 100" enable-background="new 0 0 100 100" xml:space="preserve">
<g>
	<path d="M3.028,46.529h0.591l2.637,5.917H5.396l-0.784-1.743h-2.51l-0.733,1.743H0.5L3.028,46.529z M4.268,49.954L3.32,47.82
		l-0.883,2.134H4.268z M8.281,46.562h0.843v5.114h2.652v0.77H8.281V46.562z M20.866,46.562h0.839l-2.375,5.909h-0.186l-1.926-4.786
		l-1.941,4.786h-0.182l-2.371-5.909h0.846l1.624,4.057l1.634-4.057h0.795l1.642,4.057L20.866,46.562z M25.272,46.529h0.591
		l2.637,5.917H27.64l-0.781-1.743h-2.513l-0.733,1.743h-0.868L25.272,46.529z M26.513,49.954l-0.952-2.134l-0.883,2.134H26.513z
		 M33.462,46.562h1.021l-2.174,2.772v3.111h-0.861v-3.111l-2.174-2.772h1.018l1.572,2.028L33.462,46.562z M38.146,49.983
		l-0.642-0.39c-0.399-0.244-0.685-0.484-0.857-0.723c-0.17-0.238-0.255-0.512-0.255-0.821c0-0.459,0.16-0.836,0.481-1.131
		c0.321-0.289,0.739-0.434,1.255-0.434c0.484,0,0.935,0.139,1.353,0.416v0.956c-0.428-0.406-0.884-0.609-1.368-0.609
		c-0.28,0-0.507,0.062-0.682,0.186c-0.175,0.126-0.263,0.288-0.263,0.485c0,0.183,0.064,0.349,0.193,0.5
		c0.141,0.163,0.35,0.325,0.627,0.485l0.642,0.379c0.72,0.431,1.08,0.976,1.08,1.634c0,0.477-0.158,0.86-0.474,1.149
		c-0.314,0.299-0.725,0.448-1.233,0.448c-0.582,0-1.11-0.179-1.587-0.536V50.91c0.457,0.573,0.983,0.86,1.58,0.86
		c0.265,0,0.485-0.072,0.66-0.219c0.175-0.144,0.263-0.327,0.263-0.551C38.919,50.642,38.662,50.302,38.146,49.983z M46.481,46.562
		h0.843v5.114h2.652v0.77h-3.495V46.562z M52.435,46.562h3.338v0.748h-2.495v1.798h2.407v0.751h-2.407v1.827h2.575v0.748h-3.418
		V46.562z M60.525,46.529h0.595l2.638,5.917h-0.861l-0.788-1.743H59.6l-0.737,1.743h-0.864L60.525,46.529z M61.763,49.954
		l-0.949-2.134l-0.879,2.134H61.763z M66.15,52.445v-5.884h1.474c0.597,0,1.069,0.148,1.419,0.445
		c0.349,0.294,0.522,0.692,0.522,1.193c0,0.345-0.085,0.641-0.256,0.886c-0.165,0.248-0.411,0.437-0.736,0.565
		c0.18,0.114,0.363,0.283,0.551,0.507c0.175,0.205,0.428,0.574,0.759,1.109c0.185,0.309,0.349,0.562,0.492,0.759l0.313,0.419h-1.003
		l-0.256-0.387c-0.007-0.015-0.025-0.038-0.055-0.072l-0.16-0.23l-0.263-0.434l-0.277-0.456c-0.178-0.241-0.339-0.434-0.485-0.58
		c-0.134-0.136-0.263-0.237-0.387-0.303c-0.119-0.066-0.315-0.099-0.591-0.099h-0.215v2.561H66.15z M67.245,47.277h-0.248v1.86
		h0.317c0.428,0,0.72-0.037,0.875-0.109c0.163-0.078,0.287-0.19,0.372-0.336c0.091-0.144,0.136-0.31,0.136-0.5
		c0-0.185-0.05-0.352-0.15-0.5c-0.097-0.151-0.235-0.258-0.415-0.321C67.944,47.308,67.648,47.277,67.245,47.277z M77.732,46.562
		h0.799v5.884h-0.719l-3.936-4.53v4.53h-0.792v-5.884h0.683l3.965,4.571V46.562z M81.53,46.562h0.839v5.884H81.53V46.562z
		 M90.077,46.562h0.799v5.884H90.15l-3.933-4.53v4.53h-0.792v-5.884h0.683l3.969,4.571V46.562z M96.526,49.545H98.5v2.496
		c-0.725,0.315-1.442,0.474-2.152,0.474c-0.979,0-1.76-0.285-2.338-0.856c-0.584-0.567-0.876-1.268-0.876-2.102
		c0-0.88,0.303-1.611,0.908-2.192c0.605-0.586,1.362-0.879,2.27-0.879c0.315,0,0.631,0.036,0.944,0.106
		c0.348,0.092,0.724,0.226,1.127,0.401v0.857c-0.7-0.408-1.396-0.613-2.09-0.613c-0.642,0-1.183,0.219-1.623,0.657
		c-0.44,0.433-0.66,0.97-0.66,1.612c0,0.674,0.22,1.218,0.66,1.634c0.442,0.428,1.009,0.643,1.7,0.643
		c0.335,0,0.737-0.077,1.207-0.23l0.08-0.025v-1.233h-1.131V49.545z"/>
</g>
</svg>
