<?xml version="1.0" encoding="iso-8859-1"?>
<!-- Generator: Adobe Illustrator 16.0.4, SVG Export Plug-In . SVG Version: 6.00 Build 0)  -->
<!DOCTYPE svg PUBLIC "-//W3C//DTD SVG 1.1//EN" "http://www.w3.org/Graphics/SVG/1.1/DTD/svg11.dtd">
<svg version="1.1" id="Layer_1" xmlns="http://www.w3.org/2000/svg" xmlns:xlink="http://www.w3.org/1999/xlink" x="0px" y="0px"
	 width="50px" height="50px" viewBox="0 0 50 50" style="enable-background:new 0 0 50 50;" xml:space="preserve">
<path style="fill:#010202;" d="M45.812,19.256l-3.118-4.411c-0.507-0.713-1.488-0.886-2.202-0.39l-15.51,10.773L9.475,14.455
	c-0.713-0.496-1.701-0.323-2.204,0.39l-3.11,4.411c-0.507,0.713-0.335,1.691,0.385,2.188l19.526,13.432
	C24.27,35.009,24.487,35,24.703,35c0.009,0,0.009,0,0.021,0c0.038,0,0.074,0,0.117,0c0.021,0,0.034,0,0.056,0s0.053,0,0.085,0
	c0.033,0,0.062,0,0.093,0c0.015,0,0.027,0,0.048,0c0.044,0,0.082,0,0.125,0c0.005,0,0.005,0,0.01,0c0.222,0,0.438,0.009,0.637-0.125
	l19.523-13.498C46.142,20.879,46.313,19.969,45.812,19.256z"/>
</svg>
