<svg xmlns="http://www.w3.org/2000/svg" width="50" height="50" viewBox="0 0 50 50"><path d="M41.945 32.209l-2.533-3.584c-.412-.579-1.209-.72-1.789-.316l-12.601 8.753-12.6-8.753c-.579-.403-1.382-.263-1.791.316l-2.527 3.584c-.412.58-.272 1.373.312 1.777l15.864 10.912c.164.11.34.102.515.102h.44999999999999996c.18 0 .356.008.518-.102l15.861-10.967c.589-.404.729-1.142.321-1.722zM10.632 20.379c.413.58 1.212.72 1.791.316l12.6-8.752 12.601 8.752c.58.404 1.377.264 1.789-.316l2.527-3.584c.413-.58.273-1.369-.314-1.773l-15.862-10.916c-.161-.114-.338-.106-.518-.106h-.44699999999999995c-.179 0-.355-.008-.517.106l-15.86 10.969c-.589.404-.729 1.169-.326 1.748l2.536 3.556z" fill="#010202"/></svg>