<?xml version="1.0" encoding="iso-8859-1"?>
<!-- Generator: Adobe Illustrator 16.0.4, SVG Export Plug-In . SVG Version: 6.00 Build 0)  -->
<!DOCTYPE svg PUBLIC "-//W3C//DTD SVG 1.1//EN" "http://www.w3.org/Graphics/SVG/1.1/DTD/svg11.dtd">
<svg version="1.1" id="Layer_1" xmlns="http://www.w3.org/2000/svg" xmlns:xlink="http://www.w3.org/1999/xlink" x="0px" y="0px"
	 width="50px" height="50px" viewBox="0 0 50 50" style="enable-background:new 0 0 50 50;" xml:space="preserve">
<path style="fill:#010202;" d="M25.521,24.489L14.076,40.963c-0.524,0.762-0.344,1.812,0.414,2.336l4.686,3.314
	c0.752,0.533,1.794,0.348,2.318-0.412l14.409-20.748c0.146-0.207,0.238-0.435,0.279-0.671c0-0.01,0-0.014,0-0.018
	c0.01-0.044,0.01-0.087,0.018-0.13c0-0.017,0.005-0.034,0.005-0.056c0-0.03,0-0.06,0-0.091c0.004-0.029,0-0.064,0-0.098
	c0-0.019-0.005-0.03-0.005-0.048c-0.008-0.043-0.008-0.09-0.018-0.139c0-0.004,0-0.008,0-0.008
	c-0.041-0.236-0.133-0.464-0.279-0.675L21.493,2.775c-0.524-0.762-1.566-0.946-2.318-0.413L14.489,5.67
	c-0.757,0.533-0.938,1.583-0.414,2.341L25.521,24.489z"/>
</svg>
