<?xml version="1.0" encoding="iso-8859-1"?>
<!-- Generator: Adobe Illustrator 16.0.4, SVG Export Plug-In . SVG Version: 6.00 Build 0)  -->
<!DOCTYPE svg PUBLIC "-//W3C//DTD SVG 1.1//EN" "http://www.w3.org/Graphics/SVG/1.1/DTD/svg11.dtd">
<svg version="1.1" id="Layer_1" xmlns="http://www.w3.org/2000/svg" xmlns:xlink="http://www.w3.org/1999/xlink" x="0px" y="0px"
	 width="50px" height="50px" viewBox="0 0 50 50" style="enable-background:new 0 0 50 50;" xml:space="preserve">
<path style="fill:#010202;" d="M4.156,29.916l3.118,4.411c0.507,0.713,1.488,0.886,2.202,0.39l15.51-10.773l15.508,10.773
	c0.713,0.496,1.701,0.323,2.204-0.39l3.11-4.411c0.507-0.713,0.335-1.691-0.385-2.188L25.897,14.211
	C25.699,14.077,25.481,14,25.266,14c-0.009,0-0.009,0-0.021,0c-0.038,0-0.074,0-0.117,0c-0.021,0-0.034,0-0.056,0s-0.053,0-0.085,0
	c-0.033,0-0.062,0-0.093,0c-0.015,0-0.027,0-0.048,0c-0.044,0-0.082,0-0.125,0c-0.005,0-0.005,0-0.01,0
	c-0.222,0-0.438,0.077-0.637,0.211L4.551,27.752C3.827,28.25,3.655,29.203,4.156,29.916z"/>
</svg>
