<svg viewBox="0 0 15 16" xmlns="http://www.w3.org/2000/svg">
  <path d="M12.39 8.813c-.58-1.375-.87-2.824-.87-4.348 0-.96-.286-1.72-.86-2.285-.575-.564-1.364-.904-2.37-1.02.048-.105.072-.212.072-.323 0-.232-.083-.43-.25-.593C7.942.08 7.74 0 7.5 0s-.443.08-.61.244c-.168.163-.252.36-.252.593 0 .11.024.218.072.323-1.005.116-1.795.456-2.37 1.02-.573.564-.86 1.326-.86 2.285 0 1.524-.29 2.973-.87 4.348-.58 1.375-1.44 2.53-2.576 3.466 0 .3.114.56.34.78.228.22.498.33.81.33h4.018c0 .613.225 1.14.673 1.58.45.432.99.65 1.624.65.63 0 1.17-.218 1.62-.654.45-.435.67-.96.67-1.577h4.02c.31 0 .58-.11.806-.33.23-.22.34-.48.34-.785-1.135-.937-1.994-2.092-2.574-3.467zM7.5 14.93c-.435 0-.808-.15-1.116-.448-.308-.3-.462-.662-.462-1.086 0-.093.048-.14.144-.14.095 0 .143.047.143.14 0 .343.12.638.38.885.25.25.55.38.91.38.09 0 .14.047.14.14 0 .09-.05.14-.148.14zm-5.82-2.65c.98-1.053 1.718-2.25 2.212-3.59.493-1.34.74-2.748.74-4.225 0-1.488.957-2.232 2.87-2.232 1.915 0 2.872.744 2.872 2.232 0 1.477.247 2.886.74 4.226.494 1.34 1.23 2.54 2.212 3.59H1.678z" fill="#4A4A4A" fill-rule="evenodd"/>
</svg>
