<?xml version="1.0" encoding="UTF-8" standalone="no"?>
<svg width="129px" height="134px" viewBox="0 0 129 134" version="1.1" xmlns="http://www.w3.org/2000/svg" xmlns:xlink="http://www.w3.org/1999/xlink">
    <!-- Generator: Sketch 3.8.2 (29753) - http://www.bohemiancoding.com/sketch -->
    <title>Shape</title>
    <desc>Created with Sketch.</desc>
    <defs></defs>
    <g id="Page-1" stroke="none" stroke-width="1" fill="none" fill-rule="evenodd">
        <g id="bell" fill="#000000">
            <g id="Page-1">
                <path d="M106.030113,75.6075063 C101.054575,63.8112597 98.5668061,51.3801606 98.5668061,38.3056298 C98.5668061,30.0697049 96.1133512,23.5495977 91.1892845,18.7024128 C86.2566392,13.8638069 79.4881921,10.9469168 70.8582075,9.95174258 C71.2699761,9.05093829 71.4758605,8.13297583 71.4758605,7.18069701 C71.4758605,5.1903485 70.7638438,3.49168899 69.3312321,2.09329758 C67.8728848,0.686327074 66.1400251,0 64.0811818,0 C62.0223386,0 60.2809003,0.686327074 58.8482886,2.09329758 C57.4070983,3.49168899 56.6865032,5.18176941 56.6865032,7.18069701 C56.6865032,8.12439674 56.8923875,9.05093829 57.3041562,9.95174258 C48.6827501,10.9469168 41.9057244,13.8638069 36.9730792,18.7024128 C32.0575909,23.5410186 29.5955575,30.078284 29.5955575,38.3056298 C29.5955575,51.3801606 27.1077886,63.8112597 22.1322508,75.6075063 C17.156713,87.4037529 9.77919134,97.3126 0.034,105.342627 C0.034,107.916353 1.01195054,110.146916 2.95069459,112.034316 C4.90659567,113.921715 7.22279432,114.865415 9.89929053,114.865415 L44.3677578,114.865415 C44.3677578,120.124396 46.2979233,124.645576 50.1410974,128.420375 C54.0014285,132.126541 58.6338257,133.996782 64.0726033,133.996782 C69.4770668,133.996782 74.1094641,132.126541 77.9697952,128.386058 C81.8301263,124.654155 83.7173992,120.150133 83.7173992,114.856836 L118.203024,114.856836 C120.862363,114.856836 123.178561,113.913136 125.117305,112.025737 C127.090364,110.138337 128.034,107.907774 128.034,105.291152 C118.297387,97.2525464 110.928444,87.3436993 105.952906,75.5474527 L106.030113,75.6075063 L106.030113,75.6075063 Z M64.0811818,128.08579 C60.3495284,128.08579 57.1497429,126.798927 54.5075608,124.242359 C51.8653786,121.668632 50.5442875,118.563002 50.5442875,114.925469 C50.5442875,114.127613 50.9560562,113.724396 51.7795935,113.724396 C52.5945522,113.724396 53.0063209,114.127613 53.0063209,114.925469 C53.0063209,117.868096 54.0357425,120.398927 56.266156,122.517962 C58.4107844,124.662734 60.9843384,125.778015 64.0726033,125.778015 C64.8446695,125.778015 65.2735952,126.181233 65.2735952,126.979088 C65.2735952,127.751206 64.8446695,128.18016 64.0039752,128.18016 L64.0811818,128.08579 L64.0811818,128.08579 Z M14.1542332,105.351206 C22.5611765,96.3174258 28.8921194,86.0482569 33.1299051,74.5522784 C37.3591123,63.0562999 39.4780051,50.9769434 39.4780051,38.3056298 C39.4780051,25.5399463 47.6876425,19.1571045 64.0983389,19.1571045 C80.5261922,19.1571045 88.7358296,25.5399463 88.7358296,38.3056298 C88.7358296,50.9769434 90.8547225,63.064879 95.0839296,74.5608575 C99.3217153,86.056836 105.635501,96.3517421 114.059602,105.359785 L14.1370762,105.359785 L14.1542332,105.351206 L14.1542332,105.351206 Z" id="Shape"></path>
            </g>
        </g>
    </g>
</svg>