<svg xmlns="http://www.w3.org/2000/svg" width="199.51" height="85.12" viewBox="131.14 72.13 199.51 85.12" enable-background="new 131.14 72.13 199.51 85.12"><path d="M132.83 156.01l8.22-46.9h-9.91l2.36-13.189h9.92l.9-5.52c1.69-10.04 5.97-18.27 23.21-18.27 3.6 0 10.47.57 11.49.91l-2.25 12.62c-.91-.34-3.61-.67-6.31-.67-3.5 0-7.44 1.12-8.34 7.55l-.56 3.38h12.73l-2.37 13.189h-12.84l-8.23 46.9h-18.02zM205.38 138.08l2.03-11.38c-14.99.899-21.64 4.84-21.64 11.04 0 3.27 2.37 5.529 6.88 5.529 5.18.001 9.12-2.139 12.73-5.189zm-38.08 3.609c0-15.449 13.63-23.22 41.8-24.58l.22-1.459c.79-4.51-1.24-7.33-7.77-7.33-5.52 0-12.73 2.26-18.93 5.52l-6.08-11.27c5.74-3.94 16.44-7.891 28.73-7.891 19.15 0 23.99 10.03 21.18 24.69l-3.95 21.979c-1.12 6.541-1.58 9.58-.9 14.66h-18.02c-.34-3.05-.34-5.64.22-8.8-6.08 6.32-12.96 9.7-19.83 9.7-9.8.002-16.67-6.088-16.67-15.219zM225.43 147.32l9.23-9.58c4.51 4.4 11.72 7.9 20.17 7.9 4.62 0 8.9-1.471 8.9-6.091 0-9.36-29.74-5.19-29.74-24.239 0-14.65 12.279-20.631 23.43-20.631 13.52 0 21.07 3.5 26.93 8.45l-8.449 10.15c-4.73-3.94-10.7-6.421-17.24-6.421-4.17 0-7.21 1.69-7.21 5.521 0 9.47 29.86 5.41 29.86 23.56 0 17.471-15.891 21.311-26.701 21.311-15.331 0-24-4.4-29.18-9.93zM289.859 137.859l5.19-28.75h-9.92l2.37-13.189h9.91l3.609-20.63h18.03l-3.5 20.63h15.101l-2.37 13.189h-15.21l-4.5 25.82c-1.131 6.65 0 8.68 6.64 8.68 1.92 0 4.511-.229 5.86-.68l-1.91 12.851c-1.35.45-7.78 1.02-11.61 1.02-18.139 0-19.599-7.56-17.69-18.941z"/></svg>