<svg xmlns="http://www.w3.org/2000/svg" width="1053.75" height="85" viewBox="0 0 1053.75 85"><defs><clipPath id="a"><path d="M0 67.96h842.2V0H0v67.96z"/></clipPath><clipPath id="b"><path d="M0 67.96h842.2V0H0v67.96z"/></clipPath></defs><path d="M25.24 72.65c0 5.97 1.63 7.33 12.62 7.33v3.67H0v-3.67c7.46 0 10.04-.68 10.04-7.2v-60.5c0-6.5-2.58-7.2-10.04-7.2V1.4h51.98c6.92 0 9.36-.26 11.53-.67l.5 23.2h-3.2c-1.7-16.98-6-18.47-21.7-18.47H25.3v33.66h11.2c10.73 0 11.4-1.77 12.22-10.18h2.98V53.5h-2.98c-.82-8.42-1.5-10.04-12.2-10.04h-11.3v29.17m48.66 11v-3.67c7.46 0 10.04-.68 10.04-7.2v-60.5c0-6.5-2.58-7.2-10.04-7.2V1.4h35.28v3.7c-7.46 0-10.04.67-10.04 7.2v60.5c0 6.5 2.58 7.2 10.04 7.2v3.65H73.88M192.13 85l-56.18-69.75v57.13c0 6.65 4.6 7.6 12.35 7.6v3.66h-29.86v-3.66c7.74 0 12.08-.95 12.08-7.6V9c-3.66-3.66-6.24-3.93-12.08-3.93V1.4h26.47l43.2 55.5V12.68c0-6.65-4.6-7.6-12.3-7.6V1.4h29.9v3.67c-7.7 0-12.1.95-12.1 7.6V85h-1.3m36.2-38.54h22.4L239 17l-10.7 29.47zm1.24 37.2h-29.8v-3.68c7.87 0 11.4-1.1 13.84-7.73L240.54.73H248l28.9 72.06c2.6 6.3 3.8 7.1 9.63 7.1v3.6h-34.47v-3.6c10.6 0 11.54-.8 8.96-7.2l-8.5-21.9h-25.8l-7.6 21.2c-2.4 6.5 1.4 7.87 10.5 7.87v3.7" fill="#231f20"/><g clip-path="url(#a)" fill="#231f20" transform="matrix(1.25 0 0 -1.25 0 85)"><path d="M291.1 0l-44.95 55.8V10.1c0-5.32 3.7-6.08 9.88-6.08V1.08H232.7v2.94c5.74 0 9.1.76 9.1 6.08v50.6c-3.25 3.03-5.75 3.24-11.07 3.24v2.93h22.58l34.6-44.4v35.4c0 5.3-3.7 6.07-9.9 6.07v2.93h23.9v-2.93c-6.2 0-9.6-.76-9.6-6.08V0h-1.1M356 66.98h1.64l.95-19.65-2.5-.1c-1.7 11.28-7.6 17.15-18.6 17.15-12.2 0-21.5-10.42-21.5-26.5 0-20.5 12.9-32.13 26.5-32.13 5.8 0 11.12 1.63 16.22 7.17l1.82-1.96C356.3 5 348 0 336.84 0c-16.6 0-33.45 12.48-33.45 33.44 0 20.2 15.3 34.52 33.9 34.52 8.8 0 13.5-3.8 15.8-3.8 1.3 0 2.1.98 2.8 2.82"/></g><path d="M457.44 83.64v-3.66c7.46 0 10.04-.68 10.04-7.2v-60.5c0-6.5-2.58-7.2-10.04-7.2V1.4h35.28v3.7c-7.46 0-10.04.67-10.04 7.2v60.5c0 6.5 2.58 7.2 10.04 7.2v3.65h-35.28m67.44-37.2h22.4L535.6 17l-10.72 29.46zm1.22 37.2h-27.68v-3.67c6.1 0 9.36-1.1 11.8-7.73L537.1.73h7.46l28.9 72.06c2.58 6.3 3.8 7.1 9.64 7.1v3.6h-34.47v-3.6c10.6 0 11.53-.8 8.96-7.2L549 50.9h-25.8l-7.6 21.17c-2.44 6.5 1.36 7.83 10.45 7.83v3.67m62.7 0V79.9c7.46 0 10.04-.67 10.04-7.2V12.2c0-6.5-2.6-7.2-10.1-7.2V1.4h35.1v3.7c-7.5 0-9.9.67-9.9 7.2v61.05c0 5.43 2.7 6.1 7.2 6.1h4.2c15.8 0 21-2.3 25.3-20.48l3 .4-2.58 24.3h-62.4M758.7.73l.4 24.56H756c-1.78-17.7-6-19.9-21.72-19.9h-5v67.2c0 6.4 2.43 7.3 12.6 7.3v3.6h-40.56v-3.6c10.17 0 12.75-.98 12.75-7.36V5.5h-5c-15.76 0-19.97 2.17-21.7 19.8h-3.15l.4-24.55c2.18.4 4.62.68 11.54.68h51.1c6.92 0 9.36-.22 11.53-.63m9 82.9V80c7.4 0 10-.7 10-7.2V12.3c0-6.5-2.6-7.2-10.1-7.2V1.4H803v3.7c-7.5 0-10.06.67-10.06 7.2v60.5c0 6.5 2.6 7.2 10.05 7.2v3.65h-35.3M909.12 1.4v3.67c-7.47 0-10.73.4-10.05 6.92l6.37 61c.7 6.2 3.1 6.9 10.4 6.9v3.6h-35.1v-3.6c7.34 0 9.9-.7 9.37-6.9L883.5 8.8 857.6 85h-1.1L831.42 8.8l-6.24 64.05c-.68 6.6 3.8 7.1 11.27 7.1v3.7h-27.4V80c7.45 0 10.03-1.23 10.57-7.07l6.24-60.9c.68-6.52-2.58-6.93-10.04-6.93V1.4h28.9l17.37 56.2 18.7-56.2h28.3" fill="#231f20"/><g clip-path="url(#b)" fill="#231f20" transform="matrix(1.25 0 0 -1.25 0 85)"><path d="M779.9 25.2h-2.4c-.65 6.72-1.2 8.02-9.77 8.02h-10V9.32c0-4.33 2.18-4.87 5.76-4.87h5.4c12.7 0 16.8 1.84 20.3 16.4l2.4-.33-2.3-19.44h-51.8v2.94c5.9 0 8 .54 8 5.75V58.2c0 5.2-2.1 5.74-8.1 5.74v2.93h49.7l.2-16.4H785c-1.53 11.63-4.46 13.04-17.5 13.04h-9.76V36.7h10c8.56 0 9.1 1.4 9.76 8.14h2.4V25.2m52.3-10.55c0 5.97-3.8 9.02-10.3 12.6l-10.43 5.43c-7.8 4.23-12.48 8.8-12.48 17.04 0 10.3 8.7 18.24 20.3 18.24 7.9 0 11.9-3.8 14.2-3.8 1.5 0 2.1.98 2.8 2.82h1.8l1-18.45-2.4-.1c-1.3 8.9-7.7 15.84-16.7 15.84-6.8 0-11.3-4.02-11.3-9.77 0-6.3 4.8-8.8 10-11.73l9-4.77c8.4-4.56 14.4-9.23 14.4-18.03 0-11.6-10-19.97-22.6-19.97-8.8 0-13.2 4.23-15.5 4.23-1.6 0-2.3-1.3-3-3.36h-1.9L798 20.52l2.4.32c1.85-12.15 10.3-17.26 18.78-17.26 7.06 0 13.03 3.15 13.03 11.07"/></g></svg>