<svg xmlns="http://www.w3.org/2000/svg" width="100" height="100" viewBox="0 0 100 100"><path d="M5.203 41.795c1.484 0 2.756.36 3.814 1.08 1.058.72 1.587 1.83 1.587 3.329 0 1.51-.622 2.724-1.866 3.644-1.244.92-2.708 1.385-4.394 1.39-.01-.552-.018-1.086-.022-1.603 1.204-.09 2.123-.418 2.757-.985.635-.567.952-1.334.952-2.302 0-.833-.305-1.512-.914-2.039s-1.398-.79-2.366-.79h-1.558c-.005 7.263.09 11.774.286 13.535-.988-.2-1.976-.2-2.964 0 .141-1.204.221-3.765.241-7.679.02-3.914-.065-6.443-.256-7.586 1.309.045 2.107.068 2.393.068.366-.041 1.136-.062 2.31-.062zm11.405 13.333c.472.02 1.156.018 2.054-.008s1.68-.055 2.347-.09l.993-.061-.098 2.129c-.788-.104-2.01-.165-3.668-.178s-3.104.048-4.337.178c.156-2.126.227-4.64.214-7.536-.012-2.895-.079-5.472-.199-7.729 2.643.226 5.297.226 7.96 0v2.137c-2.137-.201-3.867-.281-5.191-.241l-.015 4.439c.487.05 1.046.067 1.678.053.632-.015 1.101-.033 1.407-.053s.672-.052 1.099-.094l.752-.071v2.129l-.805-.067c-.326-.025-.958-.055-1.896-.09s-1.68-.02-2.227.045c-.045.947-.068 2.65-.068 5.108zm13.619-13.227c.893.101 1.748.101 2.565 0 .266 1.019 1.061 3.307 2.385 6.864 1.324 3.559 2.393 6.315 3.205 8.266-1.088-.096-2.097-.098-3.024-.008-.557-1.82-1.028-3.252-1.415-4.296-1.931-.115-3.707-.115-5.327 0-.085.246-.281.888-.587 1.929-.306 1.041-.544 1.831-.715 2.367-.722-.115-1.567-.105-2.536.03.833-1.986 1.86-4.659 3.081-8.02s2.012-5.738 2.368-7.132zm-1.009 8.795c1.299.136 2.626.136 3.98 0l-2.039-5.801-1.941 5.801zm21.894-4.822c0 1.144-.32 2.082-.963 2.814-.642.732-1.402 1.184-2.28 1.354l5.327 7.02c-1.083-.166-2.207-.181-3.37-.045-1.826-2.854-3.306-4.966-4.439-6.335l-.038-1.641c1.159.02 1.972-.261 2.438-.843.466-.582.7-1.264.7-2.046 0-.768-.292-1.372-.876-1.813s-1.271-.662-2.058-.662h-1.264c-.095 2.528-.02 6.977.226 13.347-1.003-.1-1.981-.1-2.934 0 .166-1.249.244-3.872.237-7.87s-.086-6.435-.237-7.313l2.294.083c.778-.045 1.427-.067 1.949-.067.517 0 1.024.045 1.523.135.5.09 1.06.258 1.682.504.622.246 1.125.659 1.509 1.238.383.578.574 1.292.574 2.14zm10.744 2.527c.998.637 1.737 1.257 2.216 1.861.479.605.719 1.422.719 2.451 0 1.499-.473 2.61-1.418 3.335-.946.726-2.053 1.089-3.322 1.089-.822 0-1.663-.171-2.521-.512s-1.55-.715-2.076-1.121c.456-.902.768-1.655.933-2.257.486.541 1.065.988 1.738 1.342.672.354 1.269.531 1.79.531.688 0 1.226-.178 1.614-.531s.583-.843.583-1.47c.04-.692-.449-1.465-1.467-2.317-.231-.19-.69-.524-1.377-.999-.688-.474-1.079-.747-1.174-.822-.697-.567-1.204-1.097-1.52-1.591-.316-.494-.475-1.112-.475-1.854 0-1.068.422-1.959 1.265-2.671.842-.712 1.891-1.069 3.145-1.069 1.279 0 2.601.454 3.965 1.362-.542.823-.918 1.545-1.128 2.167-.808-1.099-1.726-1.647-2.754-1.647-.597 0-1.068.162-1.415.485-.346.323-.519.761-.519 1.312 0 .361.266.78.797 1.257.524.451 1.323 1.007 2.401 1.669zm13.415-6.606c2.047 0 3.797.73 5.252 2.189 1.454 1.46 2.182 3.22 2.182 5.282 0 2.192-.721 4.063-2.163 5.615-1.442 1.553-3.179 2.33-5.21 2.33-2.157 0-3.937-.75-5.339-2.247-1.401-1.497-2.103-3.396-2.103-5.698 0-2.026.729-3.778 2.189-5.255 1.461-1.477 3.192-2.216 5.192-2.216zm.061 13.536c1.435 0 2.562-.604 3.386-1.813.822-1.209 1.233-2.626 1.233-4.251 0-1.354-.41-2.625-1.23-3.811-.819-1.187-1.97-1.779-3.449-1.779-1.049 0-1.939.331-2.675.993-.734.662-1.244 1.402-1.527 2.219-.283.818-.425 1.633-.425 2.445 0 .898.142 1.778.425 2.641.283.862.796 1.638 1.539 2.324.742.688 1.649 1.032 2.723 1.032zm23.112 1.392c.046.195.063.301.053.316-.817-.126-1.582-.133-2.295-.022-.606-.898-1.83-2.606-3.671-5.121-1.841-2.516-3.226-4.369-4.153-5.563-.11 5.658-.075 9.214.105 10.668l-.508-.005-.41-.01c-.768 0-1.267.018-1.497.053.165-.958.253-3.459.263-7.499.011-4.039-.077-6.578-.263-7.617 1.088.025 1.723.03 1.903.015l.361-.038c3.405 4.58 5.996 8.056 7.771 10.428.11-5.327.075-8.813-.105-10.458.803.115 1.217.173 1.242.173.186-.005.602-.065 1.249-.181-.196 1.53-.307 4.098-.331 7.705-.024 3.607.071 5.993.286 7.156z"/></svg>