<svg xmlns="http://www.w3.org/2000/svg" width="400" height="33.105" viewBox="-150.5 33.5 400 33.105" enable-background="new -150.5 33.5 400 33.105"><path d="M-140.782 60.689c0 1.483.318 2.46.957 2.93.635.467 1.884.881 3.747 1.229l.051.027.023.918h-14.496v-.918h.077c1.898-.453 3.105-.889 3.623-1.308.515-.415.771-1.364.771-2.845v-21.29c0-1.497-.274-2.478-.824-2.937-.553-.464-1.74-.868-3.569-1.22h-.023l-.053-.966h25.706l.497 7.628h-1.543l-.023-.053c-.365-2.09-.992-3.501-1.88-4.233-.888-.728-2.403-1.097-4.545-1.097h-6.118c-.87 0-1.486.161-1.84.47-.356.313-.536.897-.536 1.75v9.432h6.375c1.967 0 3.291-.297 3.973-.889.681-.591 1.02-1.722 1.02-3.395h1.67v11.857h-1.647c0-1.914-.339-3.23-1.02-3.937-.678-.704-2.01-1.052-3.997-1.052l-6.375.023v9.876zm17.976 4.159c1.951-.418 3.186-.847 3.709-1.273.521-.425.785-1.387.785-2.885v-21.292c0-1.498-.276-2.472-.824-2.928-.553-.451-1.748-.852-3.593-1.199l-.053-.023-.023-.939h14.236v.939h-.056c-1.288.278-2.174.515-2.663.707-.491.191-.907.552-1.254 1.081-.346.531-.521 1.318-.521 2.364v21.291c0 1.463.29 2.451.86 2.955.576.505 1.752.919 3.527 1.23l.103-.027v.937h-14.231v-.938zm41.407-25.445c0-1.498-.259-2.457-.771-2.873-.515-.416-1.721-.846-3.619-1.278l-.081-.938h11.547v.938h-.053c-1.913.453-3.135.894-3.658 1.32-.522.422-.783 1.371-.783 2.831v26.39h-1.542l-19.228-24.692-.025 19.598c0 .813.057 1.45.17 1.912.112.464.471.858 1.071 1.168.6.315 1.016.499 1.241.558.223.061.975.236 2.246.516l.023.027.053.938h-11.857v-.938h.077c1.9-.449 3.108-.891 3.621-1.305.515-.418.771-1.378.771-2.876v-22.258c-1.128-1.744-2.586-2.797-4.362-3.162l-.077-.966h8.54l16.696 21.601v-16.511zm43.05 20.793v-21.766c-1.152-1.739-2.604-2.796-4.362-3.159h-.053v-.937h8.517l16.696 21.603v-16.539c0-1.482-.261-2.429-.773-2.848-.511-.417-1.719-.846-3.616-1.279l-.078-.937h11.547v.937h-.053c-1.913.456-3.134.892-3.658 1.308-.522.416-.783 1.367-.783 2.845v26.385h-1.542l-19.224-24.688v19.594c0 .82.051 1.449.155 1.915.106.46.461.847 1.073 1.144.607.312 1.019.496 1.229.555.208.06.955.244 2.246.543h.023l.053.938h-25.16v-.938l.103-.027c1.78-.367 2.804-.847 3.084-1.443.276-.59.079-1.722-.604-3.396l-1.748-4.385h-12.249l-2.041 4.855c-.401.96-.662 1.689-.784 2.197-.123.505.033.902.47 1.215.431.297.767.481.992.535.223.055.932.199 2.119.445h.077l.052.934h-10.449v-.934h.053c1.324-.312 2.291-.821 2.899-1.508.607-.688 1.451-2.199 2.535-4.551l10.994-25.055h1.779c4.197 10.397 7.6 18.6 10.213 24.613 1.168 2.696 2.085 4.371 2.756 5.048.667.671 1.851 1.062 3.538 1.163.276 0 .576-.006.89-.023 1.236-.142 2.058-.484 2.469-1.047.412-.551.615-1.655.615-3.312zm-28.085-7.026h10.111l-4.991-11.909-5.12 11.909zm83.468 5.822l-.023.079c-.89 2.296-2.421 4.112-4.596 5.437-2.18 1.324-4.755 1.985-7.734 1.985-4.634 0-8.351-1.499-11.156-4.496-2.805-2.997-4.205-6.903-4.205-11.732 0-4.597 1.439-8.517 4.322-11.757 2.882-3.241 6.725-4.86 11.535-4.86 1.497 0 3.178.201 5.04.6.276.069.741.206 1.372.405.637.198 1.11.302 1.424.302.507 0 .992-.216 1.462-.654h.992l.467 9.562h-1.62c-1.337-5.378-4.281-8.072-8.828-8.072-3.172 0-5.727 1.316-7.67 3.947-1.943 2.63-2.911 6.069-2.911 10.317 0 4.193 1.05 7.542 3.149 10.032 2.097 2.491 4.689 3.735 7.77 3.735 4.649 0 7.855-2.096 9.615-6.294l.023-.099 1.572 1.563zm50.472 5.595c.402 0 .682-.009.836-.023 1.412-.127 2.348-.524 2.82-1.208.469-.672.709-1.996.709-3.969v-19.984c0-1.513-.271-2.492-.811-2.939-.545-.444-1.725-.841-3.555-1.192l-.051-.023-.057-.939h14.316v.992h-.051c-1.883.348-3.102.75-3.656 1.201-.559.448-.836 1.437-.836 2.954v20.792c0 1.304.176 2.148.521 2.542.352.395 1.184.594 2.506.594h4.936c2.268 0 3.898-.477 4.887-1.426.994-.949 1.803-2.71 2.432-5.285h1.617l-1.41 9.137h-38.532v-.934h.055c1.793-.387 2.832-.865 3.125-1.443.285-.572.079-1.693-.613-3.364l-1.727-4.392h-12.253l-2.036 4.863c-.399.957-.667 1.672-.795 2.176-.132.492.036.896.498 1.195.461.312.782.478.966.526.183.044.896.192 2.127.435h.132v.938h-24.66l-.028-.965h.055c1.936-.431 3.155-.861 3.668-1.276.514-.423.771-1.38.771-2.878v-21.294c0-1.498-.276-2.472-.836-2.928-.558-.451-1.75-.852-3.579-1.199l-.079-.023v-.939h14.238v.939l-.081.023c-1.275.263-2.151.492-2.639.683-.484.191-.905.552-1.252 1.085-.347.535-.522 1.318-.522 2.364v21.295c0 1.583.229 2.61.682 3.08.452.468 1.413.733 2.875.785.312.015.552.015.728 0 1.254-.159 2.267-.609 3.03-1.356.768-.734 1.644-2.191 2.636-4.367l11.026-25.024h1.75l10.214 24.583c1.06 2.635 1.978 4.316 2.743 5.051s1.82 1.122 3.16 1.137zm-23.694-11.364h10.112l-4.994-11.915-5.118 11.915zm81.094 7.496c0 1.478.279 2.461.844 2.953.572.488 1.748.892 3.539 1.203h.107v.934h-14.24v-.934c1.148-.263 1.914-.453 2.273-.566.367-.116.781-.316 1.246-.605.457-.303.738-.662.832-1.105.092-.434.146-1.062.146-1.879v-24.273h-2.664c-2.646 0-4.434.45-5.357 1.348-.92.898-1.531 2.642-1.824 5.238l-.023.13h-1.646l.572-8.833h27.436l.285 8.833h-1.65v-.16c-.271-2.718-.883-4.49-1.818-5.312-.939-.832-2.793-1.244-5.543-1.244h-2.506v24.272h-.009zm13.139 4.156c1.934-.453 3.164-.889 3.689-1.308.533-.415.797-1.371.797-2.869v-21.295c0-1.482-.281-2.453-.836-2.908-.557-.464-1.748-.868-3.578-1.22l-.08-.023v-.938h14.209v.938l-.041.023h-.043c-1.281.28-2.174.511-2.66.694-.484.182-.898.541-1.238 1.07-.344.531-.508 1.318-.508 2.364v21.295c0 1.458.275 2.446.848 2.95.564.505 1.744.915 3.535 1.23h.104v.938h-14.205v-.941h.007zm16.244.934v-.934c1.883-.438 3.068-.865 3.566-1.283.502-.415.746-1.389.746-2.926l.678-21.34c0-1.483-.26-2.437-.793-2.875-.527-.432-1.723-.829-3.59-1.176l-.055-.937h10.135l9.326 22.494 9.141-22.494h10.27v.937c-1.357.3-2.283.527-2.758.694-.477.168-.912.521-1.303 1.058-.395.539-.592 1.344-.592 2.405l.707 21.318c0 1.446.275 2.387.816 2.817.557.434 1.779.878 3.674 1.331v.918h-14.074v-.938c1.953-.449 3.219-.91 3.801-1.352.59-.445.879-1.375.879-2.805l-.682-21.446-10.768 26.54h-1.07l-10.496-25.601-.686 20.507c0 .836.047 1.474.135 1.907.082.437.357.802.816 1.105.461.311.867.511 1.207.597.336.09 1.086.271 2.234.551v.934h-11.266v-.006zm42.014 0v-.91l.125-.027c1.865-.418 3.055-.865 3.566-1.336.518-.469.77-1.466.77-2.996v-21.142c0-1.513-.268-2.494-.82-2.939-.549-.444-1.768-.849-3.646-1.216v-.909h26.779l.438 7.133h-1.641c-.312-2.02-.908-3.35-1.787-3.995-.881-.646-2.391-.966-4.535-.966h-9.531v11.391l6.166.024c2.193 0 3.695-.261 4.508-.775.811-.515 1.258-1.666 1.344-3.458l1.65-.102v11.886h-1.627l-.027-.132c-.139-1.95-.59-3.237-1.357-3.865-.764-.624-2.264-.938-4.498-.938l-6.158.025v10.188c0 1.095.131 1.828.402 2.195.264.363.848.547 1.736.547h6.215c3.104 0 5.176-.426 6.219-1.281 1.041-.852 1.936-2.777 2.666-5.77l1.637.027-.883 9.352h-27.709v-.011zm31.527-9.375h1.57l.053.158c.469 2.295 1.506 4.154 3.111 5.561 1.604 1.407 3.465 2.117 5.588 2.117 1.914 0 3.461-.451 4.641-1.355 1.172-.909 1.76-2.113 1.76-3.611 0-.885-.131-1.658-.391-2.32s-.719-1.268-1.369-1.803c-.656-.541-1.172-.932-1.555-1.174-.387-.24-1.055-.629-2.016-1.15-.973-.521-2.766-1.453-5.379-2.796-3.83-1.951-5.748-4.677-5.748-8.176 0-2.49.99-4.509 2.971-6.06 1.977-1.549 4.398-2.324 7.268-2.324 2.027 0 3.98.349 5.859 1.047.557.227 1.084.249 1.578.063.502-.183.781-.511.852-.979h.992l1.021 9.355h-1.643l-.033-.133c-1.441-4.79-4.369-7.174-8.777-7.159-1.613 0-2.916.435-3.906 1.308-.979.874-1.471 1.967-1.471 3.292 0 2.127 1.48 4.005 4.441 5.643.66.367 2.514 1.314 5.561 2.849 4.463 2.228 6.691 5.146 6.691 8.754 0 2.662-1.043 4.847-3.121 6.529-2.078 1.688-4.783 2.535-8.088 2.535-2.037 0-3.953-.375-5.74-1.121-1.188-.486-2.037-.729-2.537-.729-.75 0-1.355.351-1.828 1.069h-1.041l.686-9.39z"/></svg>