<svg width="130" height="62" viewBox="0 0 130 62" xmlns="http://www.w3.org/2000/svg"><title>brand-myft</title><g fill="#000" fill-rule="evenodd"><path d="M33.4 22.61c.19.303.302.59.302 1.165 0 .27-.16 1.197-1.213 4.357l-2.906 8.283c-1.038 2.97-1.55 4.996-1.55 6 0 1.31.368 2.284 1.15 3.066.75.768 1.708 1.167 2.81 1.167 1.388 0 2.888-.702 4.436-2.09 1.502-1.342 2.635-2.954 3.48-4.917l.384-.894h-2.586l-.175.335c-.703 1.295-1.596 2.54-2.378 3.32-.67.67-1.357 1.055-1.9 1.055-.143 0-.24-.032-.27-.08l-.065-.112c-.032-.063-.127-.303-.127-.558 0-.64.734-2.777 1.484-4.9l2.346-6.75c.91-2.363 1.357-3.927 1.532-4.63.16-.638.16-1.372.16-2.234 0-1.515-.447-2.632-1.437-3.64-.83-.796-2.075-1.275-3.35-1.275-1.885 0-3.688.798-5.667 2.49-1.067.91-2.153 2.155-3.19 3.687.064-.542.096-1.037.096-1.53 0-1.502-.32-2.635-.958-3.417-.622-.798-1.692-1.23-3.128-1.23-1.853 0-3.816 1.055-5.97 3.225-.942.942-1.804 1.947-2.57 3 .224-1.053.35-1.962.35-2.68 0-.91-.27-1.724-.797-2.442-.526-.735-1.293-1.102-2.314-1.102-1.39 0-2.763.687-4.183 2.123-1.485 1.467-2.746 3.19-3.72 5.122L1 27.446h2.793l.176-.335c.732-1.34 1.626-2.552 2.503-3.446C7.4 22.74 7.878 22.61 8.1 22.61c.017 0 .05.336.05.336 0 .335-.528 2.235-1.07 4.23L1.32 46.07h4.883l1.133-3.366c2.41-8.076 4.724-13.343 7.07-16.072 2.937-3.64 4.5-4.182 5.172-4.182.095 0 .335.016.367.128l.048.128.095.095c.112.13.24.497.24.96 0 .926-.43 2.873-1.213 5.474l-5.235 16.98h5.027l.974-3.08c2.428-8.203 4.854-13.837 7.216-16.757 2.234-2.762 4.022-4.038 5.586-4.038.446 0 .605.11.718.27zm26.062-3.783c-.702 0-1.277.304-1.628.846-.35.543-.527 1.086-.527 1.74 0 .734.367 1.692 1.07 2.825.59.942.877 1.915.877 2.984 0 1.596-.462 4.31-2.68 8.108-1.246 2.22-2.555 4.23-3.99 6.065.7-3.43 1.052-7.006 1.052-10.87 0-3.558-.494-6.51-1.452-8.553-1.166-2.14-2.49-3.13-4.166-3.13-1.404 0-2.68.736-3.814 2.156-1.133 1.293-1.772 3.32-2.075 6.56l-.066.702h2.522l.064-.575c.496-4.5 1.47-4.852 1.74-4.852.032 0 .08 0 .112.016l.112.014c.43 0 .846.59 1.325 1.932.524 1.436.796 3.56.796 6.272 0 3.702-.272 7.15-.814 10.245-.59 3.416-1.133 5.506-1.724 6.56-.64 1.165-1.836 2.633-3.48 4.277-1.676 1.676-3.176 2.745-4.134 3.336-1.1.622-2.09.894-3.272.894-.638 0-1.676-.096-3-.527-.974-.27-1.852-.447-2.378-.447-.735 0-1.39.207-1.995.654-.703.383-1.134 1.102-1.134 1.932 0 .99.447 1.755 1.277 2.218.734.415 1.788.622 3.224.622 2.123 0 4.15-.558 6.384-1.74 2.188-1.164 4.773-3.207 7.47-5.89 2.666-2.536 5.395-5.505 8.603-9.303 2.73-3.24 4.884-6.688 6.56-10.534 1.516-3.463 2.25-6.448 2.25-9.097 0-1.5-.27-2.874-.75-3.83-.48-1.006-1.372-1.613-2.36-1.613zM67.282 1h28.314v8.14h-19.2v11.33h15.816v8.013H76.396v16.982h-9.114V1zm31.25 0h30.372v8.14H118.34v36.325h-9.386V9.14H98.532V1z"/></g></svg>