<svg xmlns="http://www.w3.org/2000/svg" width="462" height="182" viewBox="0 0 462 182"><g fill-rule="evenodd" clip-rule="evenodd"><path d="M43.83 141.01l8.22-46.9h-9.91l2.36-13.19h9.92l.9-5.52c1.69-10.04 5.97-18.27 23.21-18.27 3.6 0 10.47.57 11.49.91l-2.25 12.62c-.91-.34-3.61-.67-6.31-.67-3.5 0-7.44 1.12-8.34 7.55l-.56 3.38h12.73l-2.37 13.19h-12.84l-8.23 46.9h-18.02zM116.38 123.08l2.03-11.38c-14.99.9-21.64 4.84-21.64 11.04 0 3.27 2.37 5.53 6.88 5.53 5.18 0 9.12-2.14 12.73-5.19zm-38.08 3.61c0-15.45 13.63-23.22 41.8-24.58l.22-1.46c.79-4.51-1.24-7.33-7.77-7.33-5.52 0-12.73 2.26-18.93 5.52l-6.08-11.27c5.74-3.94 16.44-7.89 28.73-7.89 19.15 0 23.99 10.03 21.18 24.69l-3.95 21.98c-1.12 6.54-1.58 9.58-.9 14.66h-18.02c-.34-3.05-.34-5.64.22-8.8-6.08 6.32-12.96 9.7-19.83 9.7-9.8 0-16.67-6.09-16.67-15.22zM136.43 132.32l9.23-9.58c4.51 4.4 11.72 7.9 20.17 7.9 4.62 0 8.9-1.47 8.9-6.09 0-9.36-29.74-5.19-29.74-24.24 0-14.65 12.28-20.63 23.43-20.63 13.52 0 21.07 3.5 26.93 8.45l-8.45 10.15c-4.73-3.94-10.7-6.42-17.24-6.42-4.17 0-7.21 1.69-7.21 5.52 0 9.47 29.86 5.41 29.86 23.56 0 17.47-15.89 21.31-26.7 21.31-15.33 0-24-4.4-29.18-9.93zM200.86 122.86l5.19-28.75h-9.92l2.37-13.19h9.91l3.61-20.63h18.03l-3.5 20.63h15.1l-2.37 13.19h-15.21l-4.5 25.82c-1.13 6.65 0 8.68 6.64 8.68 1.92 0 4.51-.23 5.86-.68l-1.91 12.85c-1.35.45-7.78 1.02-11.61 1.02-18.14 0-19.6-7.56-17.69-18.94z"/></g><path fill="#040203" d="M253.02 137.64c2.7-.3 9.76-1.05 11.71-1.8 3.61-1.36 4.66-4.06 4.66-7.37v-76.67c0-3.31-.9-5.86-4.66-7.37-2.85-1.2-9.01-2.55-11.71-2.85v-3.31h86.38v25.7h-3.9c-1.95-6.76-9.77-19.84-16.98-20.74-3.6-.45-7.51-.6-12.32-.6h-16.83v43.45h11.42c7.81 0 11.27-2.56 13.23-4.52 2.7-2.55 4.65-9.17 5.25-14.13h4.06v42.7h-4.06c-.45-4.51-2.85-12.78-5.25-15.19-1.96-2.1-5.87-4.35-13.23-4.35h-11.42v37.28c0 3.31 1.21 5.86 4.51 7.37 1.81.75 8.56 2.1 11.27 2.4v3.31h-52.13v-3.31z"/><path d="M365.31 137.64c2.71-.15 10.22-1.2 12.17-1.95 3.61-1.36 4.66-4.21 4.66-7.52v-85.54h-5.26c-3.46 0-8.11.15-11.57.6-6.46.9-14.15 14.12-15.95 20.74h-4.18v-25.7h93.9v25.7h-4.15c-1.8-6.62-9.52-19.84-15.98-20.74-3.46-.45-7.66-.6-11.57-.6h-5.26v84.79c0 3.3 1.2 6.01 4.66 7.51 1.8.76 9.47 2.41 12.17 2.71v3.31h-53.64v-3.31z"/></svg>