<svg xmlns="http://www.w3.org/2000/svg" width="100" height="100" viewBox="0 0 100 100"><path d="M3.028 46.529h.591l2.637 5.917h-.86l-.784-1.743h-2.51l-.733 1.743h-.869l2.528-5.917zm1.24 3.425l-.948-2.134-.883 2.134h1.831zm4.013-3.392h.843v5.114h2.652v.77h-3.495v-5.884zm12.585 0h.839l-2.375 5.909h-.186l-1.926-4.786-1.941 4.786h-.182l-2.371-5.909h.846l1.624 4.057 1.634-4.057h.795l1.642 4.057 1.601-4.057zm4.406-.033h.591l2.637 5.917h-.86l-.781-1.743h-2.513l-.733 1.743h-.868l2.527-5.917zm1.241 3.425l-.952-2.134-.883 2.134h1.835zm6.949-3.392h1.021l-2.174 2.772v3.111h-.861v-3.111l-2.174-2.772h1.018l1.572 2.028 1.598-2.028zm4.684 3.421l-.642-.39c-.399-.244-.685-.484-.857-.723-.17-.238-.255-.512-.255-.821 0-.459.16-.836.481-1.131.321-.289.739-.434 1.255-.434.484 0 .935.139 1.353.416v.956c-.428-.406-.884-.609-1.368-.609-.28 0-.507.062-.682.186-.175.126-.263.288-.263.485 0 .183.064.349.193.5.141.163.35.325.627.485l.642.379c.72.431 1.08.976 1.08 1.634 0 .477-.158.86-.474 1.149-.314.299-.725.448-1.233.448-.582 0-1.11-.179-1.587-.536v-1.067c.457.573.983.86 1.58.86.265 0 .485-.072.66-.219.175-.144.263-.327.263-.551 0-.358-.257-.698-.773-1.017zm8.335-3.421h.843v5.114h2.652v.77h-3.495v-5.884zm5.954 0h3.338v.748h-2.495v1.798h2.407v.751h-2.407v1.827h2.575v.748h-3.418v-5.872zm8.09-.033h.595l2.638 5.917h-.861l-.788-1.743h-2.509l-.737 1.743h-.864l2.526-5.917zm1.238 3.425l-.949-2.134-.879 2.134h1.828zm4.387 2.491v-5.884h1.474c.597 0 1.069.148 1.419.445.349.294.522.692.522 1.193 0 .345-.085.641-.256.886-.165.248-.411.437-.736.565.18.114.363.283.551.507.175.205.428.574.759 1.109.185.309.349.562.492.759l.313.419h-1.003l-.256-.387-.055-.072-.16-.23-.263-.434-.277-.456c-.178-.241-.339-.434-.485-.58-.134-.136-.263-.237-.387-.303-.119-.066-.315-.099-.591-.099h-.215v2.561h-.846zm1.095-5.168h-.248v1.86h.317c.428 0 .72-.037.875-.109.163-.078.287-.19.372-.336.091-.144.136-.31.136-.5 0-.185-.05-.352-.15-.5-.097-.151-.235-.258-.415-.321-.188-.063-.484-.094-.887-.094zm10.487-.715h.799v5.884h-.719l-3.936-4.53v4.53h-.792v-5.884h.683l3.965 4.571v-4.571zm3.798 0h.839v5.884h-.839v-5.884zm8.547 0h.799v5.884h-.726l-3.933-4.53v4.53h-.792v-5.884h.683l3.969 4.571v-4.571zm6.449 2.983h1.974v2.496c-.725.315-1.442.474-2.152.474-.979 0-1.76-.285-2.338-.856-.584-.567-.876-1.268-.876-2.102 0-.88.303-1.611.908-2.192.605-.586 1.362-.879 2.27-.879.315 0 .631.036.944.106.348.092.724.226 1.127.401v.857c-.7-.408-1.396-.613-2.09-.613-.642 0-1.183.219-1.623.657-.44.433-.66.97-.66 1.612 0 .674.22 1.218.66 1.634.442.428 1.009.643 1.7.643.335 0 .737-.077 1.207-.23l.08-.025v-1.233h-1.131v-.75z"/></svg>