<svg xmlns="http://www.w3.org/2000/svg" width="100" height="100" viewBox="0 0 100 100"><path d="M1.502 1.5h97.996v98h-97.996v-98zm46.127 23.686h1.866l-.287-9.762h-36.988v1.675c1.18.063 2.074.151 2.68.263.606.112 1.148.359 1.627.742s.797.909.957 1.579c.159.67.239 1.595.239 2.775v30.193c0 1.18-.08 2.097-.239 2.747-.16.654-.479 1.181-.957 1.562-.479.383-1.037.639-1.675.766-.638.128-1.547.208-2.728.239v1.723h20.958v-1.723c-1.468-.031-2.568-.111-3.302-.239-.734-.127-1.372-.383-1.914-.766-.542-.382-.893-.908-1.053-1.562-.16-.65-.239-1.567-.239-2.747v-14.451h3.302c2.967 0 5.136.454 6.507 1.364 1.372.908 2.281 2.623 2.728 5.144h1.675v-15.647h-1.675c-.287 1.627-.71 2.84-1.268 3.637-.558.798-1.443 1.372-2.656 1.723-1.212.352-2.982.527-5.311.527h-3.302v-14.021c0-.894.16-1.491.479-1.794.319-.304.973-.455 1.962-.455h6.699c2.201 0 3.972.096 5.312.287s2.448.566 3.326 1.125c.877.558 1.539 1.212 1.985 1.961.447.75.877 1.795 1.292 3.135zm42.107 0h2.249l-.909-9.762h-38.805l-.909 9.762h2.249c.702-2.393 1.658-4.075 2.871-5.049 1.212-.973 2.982-1.459 5.312-1.459h5.454v33.974c0 1.18-.079 2.097-.239 2.747-.159.654-.502 1.181-1.028 1.562-.526.383-1.141.639-1.843.766-.701.128-1.738.208-3.109.239v1.723h21.341v-1.723c-1.372-.031-2.417-.111-3.135-.239-.718-.127-1.34-.383-1.866-.766-.526-.382-.869-.908-1.028-1.562-.159-.65-.239-1.567-.239-2.747v-33.974h5.455c2.328 0 4.099.486 5.311 1.459 1.21.973 2.167 2.656 2.868 5.049z"/></svg>