<?xml version="1.0" encoding="utf-8"?>
<!-- Generator: Adobe Illustrator 13.0.0, SVG Export Plug-In . SVG Version: 6.00 Build 14948)  -->
<!DOCTYPE svg PUBLIC "-//W3C//DTD SVG 1.1//EN" "http://www.w3.org/Graphics/SVG/1.1/DTD/svg11.dtd">
<svg version="1.1" id="Layer_1" xmlns="http://www.w3.org/2000/svg" xmlns:xlink="http://www.w3.org/1999/xlink" x="0px" y="0px"
	 width="400px" height="33.105px" viewBox="-150.5 33.5 400 33.105" enable-background="new -150.5 33.5 400 33.105"
	 xml:space="preserve">
<g>
	<path d="M-140.782,60.689c0,1.483,0.318,2.46,0.957,2.93c0.635,0.467,1.884,0.881,3.747,1.229c0.016,0.016,0.031,0.027,0.051,0.027
		l0.023,0.918H-150.5v-0.918h0.077c1.898-0.453,3.105-0.889,3.623-1.308c0.515-0.415,0.771-1.364,0.771-2.845V39.432
		c0-1.497-0.274-2.478-0.824-2.937c-0.553-0.464-1.74-0.868-3.569-1.22h-0.023l-0.053-0.966h25.706l0.497,7.628h-1.543
		c-0.016-0.017-0.023-0.037-0.023-0.053c-0.365-2.09-0.992-3.501-1.88-4.233c-0.888-0.728-2.403-1.097-4.545-1.097h-6.118
		c-0.87,0-1.486,0.161-1.84,0.47c-0.356,0.313-0.536,0.897-0.536,1.75v9.432h6.375c1.967,0,3.291-0.297,3.973-0.889
		c0.681-0.591,1.02-1.722,1.02-3.395h1.67v11.857h-1.647c0-1.914-0.339-3.23-1.02-3.937c-0.678-0.704-2.01-1.052-3.997-1.052
		l-6.375,0.023V60.689z M-122.806,64.848c1.951-0.418,3.186-0.847,3.709-1.273c0.521-0.425,0.785-1.387,0.785-2.885V39.398
		c0-1.498-0.276-2.472-0.824-2.928c-0.553-0.451-1.748-0.852-3.593-1.199l-0.053-0.023l-0.023-0.939h14.236v0.939
		c-0.016,0-0.032,0-0.056,0c-1.288,0.278-2.174,0.515-2.663,0.707c-0.491,0.191-0.907,0.552-1.254,1.081
		c-0.346,0.531-0.521,1.318-0.521,2.364v21.291c0,1.463,0.29,2.451,0.86,2.955c0.576,0.505,1.752,0.919,3.527,1.23
		c0.051-0.02,0.087-0.027,0.103-0.027v0.937h-14.231V64.848z M-81.399,39.403c0-1.498-0.259-2.457-0.771-2.873
		c-0.515-0.416-1.721-0.846-3.619-1.278l-0.081-0.938h11.547v0.938c-0.015,0-0.032,0-0.053,0c-1.913,0.453-3.135,0.894-3.658,1.32
		c-0.522,0.422-0.783,1.371-0.783,2.831v26.39h-1.542l-19.228-24.692l-0.025,19.598c0,0.813,0.057,1.45,0.17,1.912
		c0.112,0.464,0.471,0.858,1.071,1.168c0.6,0.315,1.016,0.499,1.241,0.558c0.223,0.061,0.975,0.236,2.246,0.516l0.023,0.027
		l0.053,0.938h-11.857v-0.938h0.077c1.9-0.449,3.108-0.891,3.621-1.305c0.515-0.418,0.771-1.378,0.771-2.876V38.441
		c-1.128-1.744-2.586-2.797-4.362-3.162l-0.077-0.966h8.54l16.696,21.601V39.403z M-38.349,60.196V38.43
		c-1.152-1.739-2.604-2.796-4.362-3.159h-0.053v-0.937h8.517l16.696,21.603V39.398c0-1.482-0.261-2.429-0.773-2.848
		c-0.511-0.417-1.719-0.846-3.616-1.279l-0.078-0.937h11.547v0.937c-0.015,0-0.034,0-0.053,0c-1.913,0.456-3.134,0.892-3.658,1.308
		c-0.522,0.416-0.783,1.367-0.783,2.845v26.385h-1.542l-19.224-24.688v19.594c0,0.82,0.051,1.449,0.155,1.915
		c0.106,0.46,0.461,0.847,1.073,1.144c0.607,0.312,1.019,0.496,1.229,0.555c0.208,0.06,0.955,0.244,2.246,0.543h0.023l0.053,0.938
		h-25.16v-0.938c0.071,0,0.103-0.012,0.103-0.027c1.78-0.367,2.804-0.847,3.084-1.443c0.276-0.59,0.079-1.722-0.604-3.396
		l-1.748-4.385h-12.249l-2.041,4.855c-0.401,0.96-0.662,1.689-0.784,2.197c-0.123,0.505,0.033,0.902,0.47,1.215
		c0.431,0.297,0.767,0.481,0.992,0.535c0.223,0.055,0.932,0.199,2.119,0.445c0.017,0,0.044,0,0.077,0l0.052,0.934h-10.449v-0.934
		c0.019,0,0.034,0,0.053,0c1.324-0.312,2.291-0.821,2.899-1.508c0.607-0.688,1.451-2.199,2.535-4.551l10.994-25.055h1.779
		c4.197,10.397,7.6,18.6,10.213,24.613c1.168,2.696,2.085,4.371,2.756,5.048c0.667,0.671,1.851,1.062,3.538,1.163
		c0.276,0,0.576-0.006,0.89-0.023c1.236-0.142,2.058-0.484,2.469-1.047C-38.552,62.957-38.349,61.853-38.349,60.196z M-66.434,53.17
		h10.111l-4.991-11.909L-66.434,53.17z M17.034,58.992c0,0.016-0.008,0.047-0.023,0.079c-0.89,2.296-2.421,4.112-4.596,5.437
		c-2.18,1.324-4.755,1.985-7.734,1.985c-4.634,0-8.351-1.499-11.156-4.496C-9.28,59-10.68,55.094-10.68,50.265
		c0-4.597,1.439-8.517,4.322-11.757c2.882-3.241,6.725-4.86,11.535-4.86c1.497,0,3.178,0.201,5.04,0.6
		c0.276,0.069,0.741,0.206,1.372,0.405c0.637,0.198,1.11,0.302,1.424,0.302c0.507,0,0.992-0.216,1.462-0.654h0.992l0.467,9.562
		h-1.62c-1.337-5.378-4.281-8.072-8.828-8.072c-3.172,0-5.727,1.316-7.67,3.947c-1.943,2.63-2.911,6.069-2.911,10.317
		c0,4.193,1.05,7.542,3.149,10.032c2.097,2.491,4.689,3.735,7.77,3.735c4.649,0,7.855-2.096,9.615-6.294
		c0.015-0.052,0.023-0.083,0.023-0.099L17.034,58.992z M67.506,64.587c0.402,0,0.682-0.009,0.836-0.023
		c1.412-0.127,2.348-0.524,2.82-1.208c0.469-0.672,0.709-1.996,0.709-3.969V39.403c0-1.513-0.271-2.492-0.811-2.939
		c-0.545-0.444-1.725-0.841-3.555-1.192c-0.016,0-0.035-0.007-0.051-0.023l-0.057-0.939h14.316v0.992h-0.051
		c-1.883,0.348-3.102,0.75-3.656,1.201c-0.559,0.448-0.836,1.437-0.836,2.954v20.792c0,1.304,0.176,2.148,0.521,2.542
		c0.352,0.395,1.184,0.594,2.506,0.594h4.936c2.268,0,3.898-0.477,4.887-1.426c0.994-0.949,1.803-2.71,2.432-5.285h1.617
		l-1.41,9.137H54.127v-0.934h0.055c1.793-0.387,2.832-0.865,3.125-1.443c0.285-0.572,0.079-1.693-0.613-3.364l-1.727-4.392H42.714
		l-2.036,4.863c-0.399,0.957-0.667,1.672-0.795,2.176c-0.132,0.492,0.036,0.896,0.498,1.195c0.461,0.312,0.782,0.478,0.966,0.526
		c0.183,0.044,0.896,0.192,2.127,0.435h0.132v0.938h-24.66l-0.028-0.965h0.055c1.936-0.431,3.155-0.861,3.668-1.276
		c0.514-0.423,0.771-1.38,0.771-2.878V39.398c0-1.498-0.276-2.472-0.836-2.928c-0.558-0.451-1.75-0.852-3.579-1.199
		c-0.015-0.016-0.043-0.023-0.079-0.023v-0.939h14.238v0.939c-0.053,0-0.081,0.008-0.081,0.023
		c-1.275,0.263-2.151,0.492-2.639,0.683c-0.484,0.191-0.905,0.552-1.252,1.085c-0.347,0.535-0.522,1.318-0.522,2.364v21.295
		c0,1.583,0.229,2.61,0.682,3.08c0.452,0.468,1.413,0.733,2.875,0.785c0.312,0.015,0.552,0.015,0.728,0
		c1.254-0.159,2.267-0.609,3.03-1.356c0.768-0.734,1.644-2.191,2.636-4.367l11.026-25.024h1.75l10.214,24.583
		c1.06,2.635,1.978,4.316,2.743,5.051S66.166,64.572,67.506,64.587z M43.812,53.223h10.112L48.93,41.308L43.812,53.223z
		 M124.906,60.719c0,1.478,0.279,2.461,0.844,2.953c0.572,0.488,1.748,0.892,3.539,1.203c0.041,0,0.07,0,0.107,0v0.934h-14.24
		v-0.934c1.148-0.263,1.914-0.453,2.273-0.566c0.367-0.116,0.781-0.316,1.246-0.605c0.457-0.303,0.738-0.662,0.832-1.105
		c0.092-0.434,0.146-1.062,0.146-1.879V36.447c-1.609,0-2.49,0-2.664,0c-2.646,0-4.434,0.45-5.357,1.348
		c-0.92,0.898-1.531,2.642-1.824,5.238c-0.016,0.067-0.023,0.115-0.023,0.13h-1.646l0.572-8.833h27.436l0.285,8.833h-1.65
		c0-0.015,0-0.047,0-0.079c0-0.036,0-0.062,0-0.081c-0.271-2.718-0.883-4.49-1.818-5.312c-0.939-0.832-2.793-1.244-5.543-1.244
		h-2.506v24.272H124.906z M138.045,64.875c1.934-0.453,3.164-0.889,3.689-1.308c0.533-0.415,0.797-1.371,0.797-2.869V39.403
		c0-1.482-0.281-2.453-0.836-2.908c-0.557-0.464-1.748-0.868-3.578-1.22c-0.033,0-0.061-0.008-0.08-0.023v-0.938h14.209v0.938
		c-0.018,0.016-0.033,0.023-0.041,0.023s-0.02,0-0.043,0c-1.281,0.28-2.174,0.511-2.66,0.694c-0.484,0.182-0.898,0.541-1.238,1.07
		c-0.344,0.531-0.508,1.318-0.508,2.364v21.295c0,1.458,0.275,2.446,0.848,2.95c0.564,0.505,1.744,0.915,3.535,1.23
		c0.055-0.02,0.088-0.02,0.104,0v0.938h-14.205v-0.941H138.045z M154.289,65.809v-0.934c1.883-0.438,3.068-0.865,3.566-1.283
		c0.502-0.415,0.746-1.389,0.746-2.926l0.678-21.34c0-1.483-0.26-2.437-0.793-2.875c-0.527-0.432-1.723-0.829-3.59-1.176
		l-0.055-0.937h10.135l9.326,22.494l9.141-22.494h10.27v0.937c-1.357,0.3-2.283,0.527-2.758,0.694
		c-0.477,0.168-0.912,0.521-1.303,1.058c-0.395,0.539-0.592,1.344-0.592,2.405l0.707,21.318c0,1.446,0.275,2.387,0.816,2.817
		c0.557,0.434,1.779,0.878,3.674,1.331v0.918h-14.074v-0.938c1.953-0.449,3.219-0.91,3.801-1.352
		c0.59-0.445,0.879-1.375,0.879-2.805l-0.682-21.446l-10.768,26.54h-1.07l-10.496-25.601l-0.686,20.507
		c0,0.836,0.047,1.474,0.135,1.907c0.082,0.437,0.357,0.802,0.816,1.105c0.461,0.311,0.867,0.511,1.207,0.597
		c0.336,0.09,1.086,0.271,2.234,0.551v0.934h-11.266V65.809z M196.303,65.809v-0.91c0.086,0,0.125-0.012,0.125-0.027
		c1.865-0.418,3.055-0.865,3.566-1.336c0.518-0.469,0.77-1.466,0.77-2.996V39.398c0-1.513-0.268-2.494-0.82-2.939
		c-0.549-0.444-1.768-0.849-3.646-1.216v-0.909h26.779l0.438,7.133h-1.641c-0.312-2.02-0.908-3.35-1.787-3.995
		c-0.881-0.646-2.391-0.966-4.535-0.966h-9.531v11.391l6.166,0.024c2.193,0,3.695-0.261,4.508-0.775
		c0.811-0.515,1.258-1.666,1.344-3.458l1.65-0.102v11.886h-1.627l-0.027-0.132c-0.139-1.95-0.59-3.237-1.357-3.865
		c-0.764-0.624-2.264-0.938-4.498-0.938l-6.158,0.025V60.75c0,1.095,0.131,1.828,0.402,2.195c0.264,0.363,0.848,0.547,1.736,0.547
		h6.215c3.104,0,5.176-0.426,6.219-1.281c1.041-0.852,1.936-2.777,2.666-5.77l1.637,0.027l-0.883,9.352h-27.709V65.809z
		 M227.83,56.434h1.57c0.016,0.055,0.037,0.103,0.053,0.158c0.469,2.295,1.506,4.154,3.111,5.561
		c1.604,1.407,3.465,2.117,5.588,2.117c1.914,0,3.461-0.451,4.641-1.355c1.172-0.909,1.76-2.113,1.76-3.611
		c0-0.885-0.131-1.658-0.391-2.32s-0.719-1.268-1.369-1.803c-0.656-0.541-1.172-0.932-1.555-1.174
		c-0.387-0.24-1.055-0.629-2.016-1.15c-0.973-0.521-2.766-1.453-5.379-2.796c-3.83-1.951-5.748-4.677-5.748-8.176
		c0-2.49,0.99-4.509,2.971-6.06c1.977-1.549,4.398-2.324,7.268-2.324c2.027,0,3.98,0.349,5.859,1.047
		c0.557,0.227,1.084,0.249,1.578,0.063c0.502-0.183,0.781-0.511,0.852-0.979h0.992l1.021,9.355h-1.643
		c0-0.087-0.008-0.133-0.033-0.133c-1.441-4.79-4.369-7.174-8.777-7.159c-1.613,0-2.916,0.435-3.906,1.308
		c-0.979,0.874-1.471,1.967-1.471,3.292c0,2.127,1.48,4.005,4.441,5.643c0.66,0.367,2.514,1.314,5.561,2.849
		c4.463,2.228,6.691,5.146,6.691,8.754c0,2.662-1.043,4.847-3.121,6.529c-2.078,1.688-4.783,2.535-8.088,2.535
		c-2.037,0-3.953-0.375-5.74-1.121c-1.188-0.486-2.037-0.729-2.537-0.729c-0.75,0-1.355,0.351-1.828,1.069h-1.041L227.83,56.434z"/>
</g>
</svg>
