<?xml version="1.0" encoding="utf-8"?>
<!-- Generator: Adobe Illustrator 13.0.0, SVG Export Plug-In . SVG Version: 6.00 Build 14948)  -->
<!DOCTYPE svg PUBLIC "-//W3C//DTD SVG 1.1//EN" "http://www.w3.org/Graphics/SVG/1.1/DTD/svg11.dtd">
<svg version="1.1" id="Layer_1" xmlns="http://www.w3.org/2000/svg" xmlns:xlink="http://www.w3.org/1999/xlink" x="0px" y="0px"
	 width="100px" height="100px" viewBox="0 0 100 100" enable-background="new 0 0 100 100" xml:space="preserve">
<g>
	<path d="M38.483,57.09c0,0.022-0.284,0.109-0.853,0.263c-0.197,0.044-0.514,0.12-0.951,0.229c-1.64,0.394-2.995,0.732-4.066,1.017
		c-1.071,0.284-2.688,0.787-4.853,1.508c-2.164,0.722-4.065,1.465-5.705,2.229c-1.64,0.766-3.443,1.771-5.41,3.017
		s-3.683,2.579-5.147,4c-1.159,1.05-1.705,3.05-1.64,6H1.958c-0.612-9.814-0.612-14.983,0-15.508
		c1.158-1.137,2.677-2.153,4.557-3.039c1.88-0.885,3.596-1.529,5.147-1.934c1.552-0.405,2.995-0.743,4.328-1.027
		s2.044-0.448,2.131-0.492c0.437-0.196,0.705-0.48,0.803-0.853c0.098-0.371,0.104-0.983,0.016-1.836
		c-0.021-0.241-0.208-0.612-0.557-1.115c-0.35-0.503-0.727-1.06-1.131-1.661s-0.776-1.574-1.115-2.929
		c-0.339-1.355-0.508-2.918-0.508-4.688c0-2.885,0.738-5.394,2.213-7.525s3.284-3.197,5.426-3.197s3.995,1.077,5.558,3.229
		c1.562,2.153,2.344,4.662,2.344,7.525c0,1.771-0.169,3.339-0.508,4.7c-0.339,1.366-0.71,2.36-1.115,2.973
		c-0.404,0.612-0.781,1.169-1.131,1.683c-0.35,0.514-0.535,0.896-0.557,1.136c0,0.131-0.005,0.317-0.017,0.558
		c-0.011,0.24-0.016,0.404-0.016,0.503c0,0.098,0,0.24,0,0.415s0.011,0.295,0.033,0.372c0.022,0.076,0.049,0.175,0.082,0.295
		s0.076,0.207,0.131,0.262s0.126,0.12,0.213,0.197c0.087,0.076,0.186,0.152,0.295,0.219c0.065,0.021,0.645,0.163,1.738,0.426
		s2.404,0.656,3.935,1.181c1.53,0.524,2.94,1.125,4.229,1.803V57.09z M60.319,59.55c0.153,0.065,0.935,0.262,2.344,0.601
		c1.41,0.339,3.082,0.798,5.017,1.377s4.027,1.301,6.279,2.164c2.251,0.863,4.558,2,6.918,3.41c2.36,1.409,4.404,2.962,6.131,4.645
		c0.328,0.284,0.547,0.863,0.656,1.738c0.109,0.874,0.137,1.836,0.082,2.885s-0.137,2.076-0.246,3.093s-0.219,1.869-0.328,2.547
		l-0.164,1.017H14.089c-0.109-0.743-0.235-1.673-0.377-2.776s-0.229-2.688-0.262-4.754s0.18-3.312,0.639-3.749
		c2.143-2.076,4.792-3.956,7.951-5.628c3.159-1.673,5.951-2.886,8.377-3.65c2.426-0.766,4.776-1.443,7.049-2.022
		c2.273-0.579,3.443-0.874,3.508-0.896c0.765-0.372,1.229-0.919,1.394-1.629s0.18-1.869,0.049-3.486
		c-0.044-0.394-0.279-0.896-0.705-1.497c-0.426-0.602-0.923-1.334-1.492-2.208s-1.137-1.935-1.705-3.169s-1.049-2.896-1.442-4.995
		c-0.394-2.098-0.59-4.448-0.59-7.049c0-3.519,0.524-6.732,1.574-9.639c1.049-2.907,2.667-5.279,4.853-7.115
		c2.186-1.836,4.754-2.754,7.705-2.754l0.065-0.033c2.886,0.022,5.421,0.945,7.606,2.771c2.187,1.825,3.814,4.197,4.886,7.115
		s1.606,6.137,1.606,9.656c0,2.601-0.196,4.957-0.59,7.066c-0.394,2.104-0.875,3.776-1.443,5s-1.136,2.273-1.704,3.147
		s-1.066,1.606-1.492,2.208c-0.427,0.601-0.65,1.114-0.672,1.529c-0.153,1.596-0.143,2.744,0.032,3.454S59.555,59.178,60.319,59.55z
		 M99.074,59.845c0.284,0.24,0.426,1.65,0.426,4.229s-0.076,5.104-0.229,7.573l-0.196,3.705h-7.902c0.065-2.929-0.491-4.929-1.672-6
		c-1.465-1.421-3.181-2.754-5.147-4c-1.968-1.246-3.771-2.251-5.41-3.017c-1.64-0.765-3.547-1.508-5.722-2.229
		c-2.175-0.721-3.798-1.224-4.868-1.508c-1.071-0.284-2.427-0.623-4.066-1.017c-0.459-0.109-0.786-0.186-0.983-0.229l-0.918-0.263
		v-0.065c1.268-0.699,2.678-1.312,4.229-1.825s2.88-0.896,3.983-1.158c1.104-0.263,1.678-0.404,1.722-0.426
		c0.306-0.153,0.52-0.351,0.64-0.591s0.18-0.546,0.18-0.907c0-0.36,0-0.798,0-1.322c-0.021-0.24-0.213-0.623-0.573-1.136
		s-0.743-1.071-1.147-1.683c-0.404-0.612-0.776-1.607-1.115-2.973c-0.339-1.361-0.508-2.929-0.508-4.7
		c0-2.863,0.76-5.372,2.278-7.525c1.52-2.153,3.35-3.229,5.492-3.229c2.164,0,3.994,1.065,5.492,3.197
		c1.497,2.131,2.245,4.628,2.245,7.492c0,1.792-0.158,3.366-0.475,4.721c-0.317,1.355-0.673,2.328-1.066,2.929
		c-0.393,0.601-0.765,1.158-1.114,1.661c-0.35,0.502-0.535,0.874-0.558,1.115c-0.065,0.853-0.055,1.465,0.033,1.836
		c0.087,0.372,0.35,0.656,0.787,0.853c0.087,0.044,0.798,0.208,2.131,0.492s2.775,0.622,4.328,1.027
		c1.552,0.404,3.268,1.049,5.147,1.934C96.396,57.691,97.915,58.708,99.074,59.845z"/>
</g>
</svg>
