<svg xmlns="http://www.w3.org/2000/svg" width="100" height="100" viewBox="0 0 100 100"><path d="M6.208 82.657c-2.828-2.903-4.243-6.4-4.243-10.488 0-4.089 1.409-7.573 4.226-10.464 2.199-2.249 4.818-3.636 7.857-4.14 3.039-.508 5.882-.099 8.525 1.211l9.638-10.157-8.896-9.381c-2.718 1.557-5.677 2.106-8.878 1.65-3.2-.457-5.949-1.859-8.247-4.207-2.817-2.891-4.226-6.382-4.226-10.472 0-4.088 1.415-7.586 4.243-10.489 2.83-2.903 6.233-4.355 10.213-4.355 3.978 0 7.388 1.445 10.229 4.336 2.102 2.151 3.422 4.714 3.967 7.691.542 2.979.258 5.79-.853 8.433l9.192 9.601 20.498-21.685h13.492l-27.242 28.804-6.746 7.19-9.527 10.007c1.335 2.718 1.755 5.646 1.26 8.8-.493 3.149-1.842 5.867-4.041 8.142-2.841 2.891-6.25 4.338-10.229 4.338-3.979-.001-7.382-1.461-10.212-4.365zm5.449-61.339c-1.323 1.346-1.982 2.977-1.982 4.892 0 1.915.659 3.547 1.982 4.893 1.322 1.346 2.91 2.021 4.764 2.021 1.852 0 3.439-.674 4.762-2.021 1.322-1.346 1.983-2.979 1.983-4.893 0-1.915-.661-3.545-1.983-4.892-1.323-1.348-2.91-2.02-4.762-2.02-1.854 0-3.442.672-4.764 2.02zm0 45.957c-1.323 1.348-1.982 2.977-1.982 4.894 0 1.915.659 3.545 1.982 4.893 1.322 1.345 2.91 2.025 4.764 2.025 1.852 0 3.439-.681 4.762-2.025 1.322-1.348 1.983-2.978 1.983-4.893 0-1.917-.661-3.546-1.983-4.894-1.323-1.348-2.91-2.012-4.762-2.012-1.854.001-3.442.665-4.764 2.012zm25.019-16.322c-.629-.642-.943-1.419-.943-2.321 0-.903.314-1.667.943-2.311.631-.642 1.391-.963 2.281-.963s1.644.321 2.262.963c.616.644.926 1.408.926 2.311 0 .902-.31 1.68-.926 2.321-.618.643-1.372.965-2.262.965s-1.65-.322-2.281-.965zm6.136 8.861l6.782-7.082 23.352 24.834h-13.492l-16.642-17.752zm24.353-7.34v-5.783h11.562v5.783h-11.562zm19.273 0v-5.744h11.527v11.525h-5.781v-5.781h-5.746zm5.746 13.492h5.781v11.565h-5.781v-11.565z"/></svg>