<?xml version="1.0" encoding="utf-8"?>
<!-- Generator: Adobe Illustrator 13.0.0, SVG Export Plug-In . SVG Version: 6.00 Build 14948)  -->
<!DOCTYPE svg PUBLIC "-//W3C//DTD SVG 1.1//EN" "http://www.w3.org/Graphics/SVG/1.1/DTD/svg11.dtd">
<svg version="1.1" id="Layer_1" xmlns="http://www.w3.org/2000/svg" xmlns:xlink="http://www.w3.org/1999/xlink" x="0px" y="0px"
	 width="100px" height="100px" viewBox="0 0 100 100" enable-background="new 0 0 100 100" xml:space="preserve">
<g>
	<path d="M6.208,82.657c-2.828-2.903-4.243-6.4-4.243-10.488c0-4.089,1.409-7.573,4.226-10.464c2.199-2.249,4.818-3.636,7.857-4.14
		c3.039-0.508,5.882-0.099,8.525,1.211l9.638-10.157l-8.896-9.381c-2.718,1.557-5.677,2.106-8.878,1.65
		c-3.2-0.457-5.949-1.859-8.247-4.207c-2.817-2.891-4.226-6.382-4.226-10.472c0-4.088,1.415-7.586,4.243-10.489
		c2.83-2.903,6.233-4.355,10.213-4.355c3.978,0,7.388,1.445,10.229,4.336c2.102,2.151,3.422,4.714,3.967,7.691
		c0.542,2.979,0.258,5.79-0.853,8.433l9.192,9.601l20.498-21.685h13.492L45.703,48.545l-6.746,7.19L29.43,65.742
		c1.335,2.718,1.755,5.646,1.26,8.8c-0.493,3.149-1.842,5.867-4.041,8.142c-2.841,2.891-6.25,4.338-10.229,4.338
		C12.441,87.021,9.038,85.561,6.208,82.657z M11.657,21.318c-1.323,1.346-1.982,2.977-1.982,4.892c0,1.915,0.659,3.547,1.982,4.893
		c1.322,1.346,2.91,2.021,4.764,2.021c1.852,0,3.439-0.674,4.762-2.021c1.322-1.346,1.983-2.979,1.983-4.893
		c0-1.915-0.661-3.545-1.983-4.892c-1.323-1.348-2.91-2.02-4.762-2.02C14.567,19.298,12.979,19.97,11.657,21.318z M11.657,67.275
		c-1.323,1.348-1.982,2.977-1.982,4.894c0,1.915,0.659,3.545,1.982,4.893c1.322,1.345,2.91,2.025,4.764,2.025
		c1.852,0,3.439-0.681,4.762-2.025c1.322-1.348,1.983-2.978,1.983-4.893c0-1.917-0.661-3.546-1.983-4.894
		c-1.323-1.348-2.91-2.012-4.762-2.012C14.567,65.264,12.979,65.928,11.657,67.275z M36.676,50.953
		c-0.629-0.642-0.943-1.419-0.943-2.321c0-0.903,0.314-1.667,0.943-2.311c0.631-0.642,1.391-0.963,2.281-0.963
		s1.644,0.321,2.262,0.963c0.616,0.644,0.926,1.408,0.926,2.311c0,0.902-0.31,1.68-0.926,2.321
		c-0.618,0.643-1.372,0.965-2.262,0.965S37.307,51.596,36.676,50.953z M42.812,59.814l6.782-7.082l23.352,24.834H59.454
		L42.812,59.814z M67.165,52.474v-5.783h11.562v5.783H67.165z M86.438,52.474v-5.744h11.527v11.525h-5.781v-5.781H86.438z
		 M92.184,65.966h5.781v11.565h-5.781V65.966z"/>
</g>
</svg>
