<svg xmlns="http://www.w3.org/2000/svg" width="100" height="100" viewBox="0 0 100 100"><path d="M1.859 62.304v-48.451c0-3.167 1.108-5.851 3.325-8.051 2.216-2.201 4.908-3.302 8.075-3.302h74.529c3.166 0 5.852 1.101 8.051 3.302 2.202 2.201 3.302 4.884 3.302 8.051v48.451c0 3.167-1.1 5.859-3.302 8.075-2.199 2.217-4.885 3.324-8.051 3.324h-43.415l-23.704 24.797v-24.797h-7.41c-3.167 0-5.859-1.107-8.075-3.324-2.217-2.216-3.325-4.908-3.325-8.075zm15.532-40.946h66.217v-4.655h-66.217v4.655zm0 12.635h66.217v-4.655h-66.217v4.655zm0 12.636h66.217v-4.655h-66.217v4.655zm0 12.588h66.217v-4.608h-66.217v4.608z"/></svg>