<?xml version="1.0" encoding="utf-8"?>
<!-- Generator: Adobe Illustrator 13.0.0, SVG Export Plug-In . SVG Version: 6.00 Build 14948)  -->
<!DOCTYPE svg PUBLIC "-//W3C//DTD SVG 1.1//EN" "http://www.w3.org/Graphics/SVG/1.1/DTD/svg11.dtd">
<svg version="1.1" id="Layer_1" xmlns="http://www.w3.org/2000/svg" xmlns:xlink="http://www.w3.org/1999/xlink" x="0px" y="0px"
	 width="100px" height="100px" viewBox="0 0 100 100" enable-background="new 0 0 100 100" xml:space="preserve">
<g>
	<path d="M0.5,63.671h40.856v32.713H12.831V84.191H4.595v12.192H0.5V63.671z M4.595,59.622V27.047H21.02v32.575H4.595z
		 M4.595,80.097h8.236V71.86H4.595V80.097z M16.925,80.097h8.144V71.86h-8.144V80.097z M16.925,84.191v8.144h8.144v-8.144H16.925z
		 M25.069,59.622V2.616h40.764V39.24h-4.095v-4.049h-8.144v61.193h-8.144V59.622H25.069z M29.164,18.904h8.144V10.76h-8.144V18.904z
		 M29.164,31.096h8.144v-8.144h-8.144V31.096z M29.164,43.335h8.144v-8.144h-8.144V43.335z M29.164,55.527h8.144v-8.144h-8.144
		V55.527z M29.164,80.097h8.144V71.86h-8.144V80.097z M29.164,84.191v8.144h8.144v-8.144H29.164z M41.356,18.904H49.5V10.76h-8.144
		V18.904z M41.356,31.096H49.5v-8.144h-8.144V31.096z M41.356,43.335H49.5v-8.144h-8.144V43.335z M41.356,55.527H49.5v-8.144h-8.144
		V55.527z M53.595,18.904h8.144V10.76h-8.144V18.904z M53.595,31.096h8.144v-8.144h-8.144V31.096z M57.644,96.384V43.335H98.5
		v53.049H82.121V84.191h-8.19v12.192H57.644z M61.738,55.527h8.144v-8.144h-8.144V55.527z M61.738,67.766h8.144v-8.144h-8.144
		V67.766z M61.738,80.097h8.144V71.86h-8.144V80.097z M61.738,84.191v8.144h8.144v-8.144H61.738z M69.882,39.24V18.904h20.429V39.24
		H69.882z M73.931,55.527h8.19v-8.144h-8.19V55.527z M73.931,67.766h8.19v-8.144h-8.19V67.766z M73.931,80.097h8.19V71.86h-8.19
		V80.097z M86.216,55.527h8.189v-8.144h-8.189V55.527z M86.216,67.766h8.189v-8.144h-8.189V67.766z M86.216,80.097h8.189V71.86
		h-8.189V80.097z M86.216,84.191v8.144h8.189v-8.144H86.216z"/>
</g>
</svg>
