<?xml version="1.0" encoding="UTF-8" standalone="no"?>
<svg width="14px" height="14px" viewBox="0 0 14 14" version="1.1" xmlns="http://www.w3.org/2000/svg" xmlns:xlink="http://www.w3.org/1999/xlink" xmlns:sketch="http://www.bohemiancoding.com/sketch/ns">
    <!-- Generator: Sketch 3.4.4 (17249) - http://www.bohemiancoding.com/sketch -->
    <title>copy-link</title>
    <desc>Created with Sketch.</desc>
    <defs></defs>
    <g id="Page-1" stroke="none" stroke-width="1" fill="none" fill-rule="evenodd" sketch:type="MSPage">
        <g id="button-states" sketch:type="MSArtboardGroup" transform="translate(-86.000000, -181.000000)" fill="#333333">
            <g id="Group-+-1_il-+-2_oil" sketch:type="MSLayerGroup" transform="translate(-229.000000, -2.000000)">
                <g id="Group" sketch:type="MSShapeGroup">
                    <g id="Oval-1-Copy-5-Copy-2-+-bookmark-icon">
                        <g>
                            <path d="M324.841857,187.024868 C325.178899,187.36191 325.178899,187.9084 324.841824,188.245475 L320.245311,192.842022 C319.908269,193.179097 319.36178,193.179063 319.024738,192.841988 L319.024738,192.841988 C318.687628,192.504946 318.687628,191.958456 319.024704,191.621414 L323.621216,187.024868 C323.958258,186.687826 324.504748,186.687826 324.841857,187.024868 L324.841857,187.024868 L324.841857,187.024868 Z M319.561905,194.759027 C318.885296,195.435635 317.784374,195.435635 317.107732,194.759027 C316.431124,194.082386 316.431124,192.981463 317.107732,192.304855 L320.365433,189.050855 C319.272285,188.785469 318.071065,189.079565 317.217488,189.933142 L315.97672,191.173876 C314.674427,192.476169 314.674427,194.587679 315.97672,195.890006 C317.279046,197.192299 319.390556,197.192299 320.692849,195.890006 L321.933584,194.649272 C322.787026,193.795796 323.081121,192.594777 322.815937,191.501763 L319.561905,194.759027 L319.561905,194.759027 Z M323.173813,183.976749 L321.933146,185.21745 C321.079536,186.07106 320.783623,187.270396 321.048975,188.363578 L324.304792,185.107728 C324.981433,184.43112 326.082289,184.43112 326.758931,185.107728 C327.435572,185.784336 327.435572,186.885225 326.758964,187.561867 L323.503316,190.817515 C324.596363,191.082733 325.795732,190.787089 326.649242,189.933546 L327.889976,188.692812 C329.192236,187.390519 329.192236,185.279042 327.889943,183.976716 C326.587616,182.674423 324.476173,182.674423 323.173813,183.976749 L323.173813,183.976749 Z" id="copy-link"></path>
                        </g>
                    </g>
                </g>
            </g>
        </g>
    </g>
</svg>