<svg width="14" height="14" viewBox="0 0 14 14" xmlns="http://www.w3.org/2000/svg"><title>copy-link</title><path d="M9.842 4.025c.337.337.337.883 0 1.22L5.245 9.842c-.337.337-.883.337-1.22 0-.337-.337-.337-.884 0-1.22L8.62 4.024c.338-.337.885-.337 1.222 0zm-5.28 7.734c-.677.675-1.778.675-2.454 0-.677-.68-.677-1.78 0-2.456L5.365 6.05c-1.093-.265-2.294.03-3.148.883l-1.24 1.24c-1.303 1.303-1.303 3.415 0 4.717 1.302 1.302 3.414 1.302 4.716 0l1.24-1.24c.854-.854 1.148-2.055.883-3.148L4.562 11.76zM8.174.975l-1.24 1.24c-.854.854-1.15 2.053-.885 3.147l3.254-3.256c.676-.677 1.777-.677 2.454 0 .676.676.676 1.777 0 2.454L8.502 7.82c1.093.265 2.293-.03 3.146-.884l1.24-1.24c1.302-1.303 1.302-3.415 0-4.717-1.302-1.303-3.414-1.303-4.716 0h.002z" fill="#000" fill-rule="evenodd"/></svg>
