<svg width="128" height="128" viewBox="0 0 128 128" xmlns="http://www.w3.org/2000/svg"><title>cross-disk</title><g fill="#000" fill-rule="evenodd"><path d="M128 64c0 35.355-28.645 64-64 64-35.355 0-64-28.645-64-64C0 28.645 28.645 0 64 0c35.355 0 64 28.645 64 64zm-12.427 0c0-28.52-23.084-51.573-51.573-51.573-28.52 0-51.573 23.084-51.573 51.573 0 28.52 23.084 51.573 51.573 51.573 28.52 0 51.573-23.084 51.573-51.573z"/><path d="M93.608 45.918L82.082 34.392 64 52.474 45.918 34.392 34.392 45.918 52.474 64 34.392 82.082l11.526 11.526L64 75.526l18.082 18.082 11.526-11.526L75.526 64l18.082-18.082z"/></g></svg>