<?xml version="1.0" encoding="utf-8"?>
<!-- Generator: Adobe Illustrator 13.0.0, SVG Export Plug-In . SVG Version: 6.00 Build 14948)  -->
<!DOCTYPE svg PUBLIC "-//W3C//DTD SVG 1.1//EN" "http://www.w3.org/Graphics/SVG/1.1/DTD/svg11.dtd">
<svg version="1.1" id="Layer_1" xmlns="http://www.w3.org/2000/svg" xmlns:xlink="http://www.w3.org/1999/xlink" x="0px" y="0px"
	 width="100px" height="100px" viewBox="0 0 100 100" enable-background="new 0 0 100 100" xml:space="preserve">
<g>
	<path d="M86.586,0.5c3.299,0,6.109,1.161,8.432,3.483c2.321,2.322,3.482,5.132,3.482,8.431v74.172c0,3.299-1.161,6.102-3.482,8.423
		c-2.322,2.322-5.133,3.491-8.432,3.491H12.414c-3.298,0-6.109-1.169-8.431-3.491C1.661,92.688,0.5,89.885,0.5,86.586V12.414
		c0-3.298,1.161-6.109,3.483-8.431S9.115,0.5,12.414,0.5H86.586z M78.948,71.31V35.568L49.5,59.925L20.052,35.521V71.31H78.948z
		 M78.9,27.69H20.196L49.5,51.998L78.9,27.69z"/>
</g>
</svg>
