<svg xmlns="http://www.w3.org/2000/svg" width="100" height="100" viewBox="0 0 100 100"><path d="M1.5 47.595c2.776-4.607 6.04-8.718 9.791-12.331s7.719-6.572 11.903-8.875c4.184-2.304 8.619-4.056 13.306-5.257s9.358-1.802 14.015-1.802 9.328.601 14.015 1.802 9.122 2.954 13.306 5.257c4.185 2.304 8.147 5.262 11.889 8.875s7 7.724 9.776 12.331v3.781c-2.776 4.627-6.035 8.742-9.776 12.346s-7.704 6.557-11.889 8.86c-4.184 2.304-8.619 4.057-13.306 5.268s-9.357 1.821-14.015 1.821c-4.657 0-9.328-.61-14.015-1.821s-9.122-2.964-13.306-5.268c-4.185-2.304-8.152-5.257-11.903-8.86s-7.015-7.719-9.791-12.346v-3.781zm49 24.514c3.071 0 6.006-.601 8.802-1.802 2.776-1.181 5.179-2.786 7.207-4.813 2.008-2.009 3.613-4.411 4.814-7.207 1.2-2.796 1.801-5.73 1.801-8.802 0-3.052-.601-5.976-1.801-8.772-1.201-2.796-2.807-5.208-4.814-7.236-2.028-2.008-4.431-3.613-7.207-4.814-2.796-1.182-5.73-1.772-8.802-1.772-3.072 0-5.996.591-8.772 1.772-2.796 1.201-5.208 2.806-7.236 4.814-2.009 2.028-3.613 4.44-4.814 7.236-1.182 2.796-1.772 5.72-1.772 8.772 0 3.071.59 6.006 1.772 8.802 1.201 2.796 2.806 5.198 4.814 7.207 2.028 2.027 4.44 3.633 7.236 4.813 2.776 1.202 5.7 1.802 8.772 1.802zm11.312-22.624c0-3.111-1.103-5.77-3.309-7.975-2.205-2.206-4.868-3.308-7.989-3.308s-5.789 1.098-8.004 3.293c-2.215 2.196-3.323 4.859-3.323 7.99s1.107 5.799 3.323 8.004c2.215 2.205 4.878 3.309 7.989 3.309 3.131 0 5.799-1.104 8.004-3.309 2.207-2.205 3.309-4.873 3.309-8.004z"/></svg>