<?xml version="1.0" encoding="utf-8"?>
<!-- Generator: Adobe Illustrator 13.0.0, SVG Export Plug-In . SVG Version: 6.00 Build 14948)  -->
<!DOCTYPE svg PUBLIC "-//W3C//DTD SVG 1.1//EN" "http://www.w3.org/Graphics/SVG/1.1/DTD/svg11.dtd">
<svg version="1.1" id="Layer_1" xmlns="http://www.w3.org/2000/svg" xmlns:xlink="http://www.w3.org/1999/xlink" x="0px" y="0px"
	 width="100px" height="100px" viewBox="0 0 100 100" enable-background="new 0 0 100 100" xml:space="preserve">
<g>
	<path d="M86.586,0.5c3.299,0,6.109,1.161,8.432,3.483c2.321,2.322,3.482,5.132,3.482,8.431v74.172c0,3.299-1.161,6.102-3.482,8.423
		c-2.322,2.322-5.133,3.491-8.432,3.491H70.061V57.811h11.338l1.2-13.595l-12.538-0.192v-7.734c0-1.697,0.248-2.874,0.745-3.531
		c0.496-0.657,1.497-0.985,3.002-0.985h8.791V17.698H71.357c-11.689,0-17.534,5.22-17.534,15.661v10.857h-8.407v13.787h8.407v40.449
		l0.048,0.048H12.414c-3.298,0-6.109-1.169-8.431-3.491C1.661,92.688,0.5,89.885,0.5,86.586V12.414c0-3.298,1.161-6.109,3.483-8.431
		S9.115,0.5,12.414,0.5H86.586z"/>
</g>
</svg>
