<?xml version="1.0" encoding="utf-8"?>
<!-- Generator: Adobe Illustrator 13.0.0, SVG Export Plug-In . SVG Version: 6.00 Build 14948)  -->
<!DOCTYPE svg PUBLIC "-//W3C//DTD SVG 1.1//EN" "http://www.w3.org/Graphics/SVG/1.1/DTD/svg11.dtd">
<svg version="1.1" id="Layer_x5F_1_x5F_1" xmlns="http://www.w3.org/2000/svg" xmlns:xlink="http://www.w3.org/1999/xlink" x="0px"
	 y="0px" width="199.51px" height="85.12px" viewBox="131.14 72.13 199.51 85.12"
	 enable-background="new 131.14 72.13 199.51 85.12" xml:space="preserve">
<g>
	<path d="M132.83,156.01l8.22-46.9h-9.91l2.36-13.189h9.92l0.9-5.52c1.69-10.04,5.97-18.27,23.21-18.27c3.6,0,10.47,0.57,11.49,0.91
		l-2.25,12.62c-0.91-0.34-3.61-0.67-6.31-0.67c-3.5,0-7.44,1.12-8.34,7.55l-0.56,3.38h12.73l-2.37,13.189h-12.84l-8.23,46.9H132.83z
		"/>
	<path d="M205.38,138.08l2.03-11.38c-14.99,0.899-21.64,4.84-21.64,11.04c0,3.27,2.37,5.529,6.88,5.529
		C197.83,143.27,201.77,141.13,205.38,138.08z M167.3,141.689c0-15.449,13.63-23.22,41.8-24.58l0.22-1.459
		c0.79-4.51-1.24-7.33-7.77-7.33c-5.52,0-12.73,2.26-18.93,5.52l-6.08-11.27c5.74-3.94,16.44-7.891,28.73-7.891
		c19.15,0,23.99,10.03,21.18,24.69l-3.95,21.979c-1.12,6.541-1.58,9.58-0.9,14.66h-18.02c-0.34-3.05-0.34-5.64,0.22-8.8
		c-6.08,6.32-12.96,9.7-19.83,9.7C174.17,156.91,167.3,150.82,167.3,141.689z"/>
	<path d="M225.43,147.32l9.23-9.58c4.51,4.4,11.72,7.9,20.17,7.9c4.62,0,8.9-1.471,8.9-6.091c0-9.36-29.74-5.19-29.74-24.239
		c0-14.65,12.279-20.631,23.43-20.631c13.52,0,21.07,3.5,26.93,8.45l-8.449,10.15c-4.73-3.94-10.7-6.421-17.24-6.421
		c-4.17,0-7.21,1.69-7.21,5.521c0,9.47,29.86,5.41,29.86,23.56c0,17.471-15.891,21.311-26.701,21.311
		C239.279,157.25,230.61,152.85,225.43,147.32z"/>
	<path d="M289.859,137.859l5.19-28.75h-9.92l2.37-13.189h9.91l3.609-20.63h18.03l-3.5,20.63h15.101l-2.37,13.189h-15.21l-4.5,25.82
		c-1.131,6.65,0,8.68,6.64,8.68c1.92,0,4.511-0.229,5.86-0.68l-1.91,12.851c-1.35,0.45-7.78,1.02-11.61,1.02
		C289.41,156.8,287.95,149.24,289.859,137.859z"/>
</g>
</svg>
