<?xml version="1.0" encoding="utf-8"?>
<!-- Generator: Adobe Illustrator 13.0.0, SVG Export Plug-In . SVG Version: 6.00 Build 14948)  -->
<!DOCTYPE svg PUBLIC "-//W3C//DTD SVG 1.1//EN" "http://www.w3.org/Graphics/SVG/1.1/DTD/svg11.dtd">
<svg version="1.1" id="Layer_1" xmlns="http://www.w3.org/2000/svg" xmlns:xlink="http://www.w3.org/1999/xlink" x="0px" y="0px"
	 width="100px" height="100px" viewBox="0 0 100 100" enable-background="new 0 0 100 100" xml:space="preserve">
<g>
	<path d="M1.502,1.5h97.996v98H1.502V1.5z M47.629,25.186h1.866l-0.287-9.762H12.22v1.675c1.18,0.063,2.074,0.151,2.68,0.263
		c0.606,0.112,1.148,0.359,1.627,0.742s0.797,0.909,0.957,1.579c0.159,0.67,0.239,1.595,0.239,2.775v30.193
		c0,1.18-0.08,2.097-0.239,2.747c-0.16,0.654-0.479,1.181-0.957,1.562c-0.479,0.383-1.037,0.639-1.675,0.766
		c-0.638,0.128-1.547,0.208-2.728,0.239v1.723h20.958v-1.723c-1.468-0.031-2.568-0.111-3.302-0.239
		c-0.734-0.127-1.372-0.383-1.914-0.766c-0.542-0.382-0.893-0.908-1.053-1.562c-0.16-0.65-0.239-1.567-0.239-2.747V38.2h3.302
		c2.967,0,5.136,0.454,6.507,1.364c1.372,0.908,2.281,2.623,2.728,5.144h1.675V29.061h-1.675c-0.287,1.627-0.71,2.84-1.268,3.637
		c-0.558,0.798-1.443,1.372-2.656,1.723c-1.212,0.352-2.982,0.527-5.311,0.527h-3.302V20.927c0-0.894,0.16-1.491,0.479-1.794
		c0.319-0.304,0.973-0.455,1.962-0.455h6.699c2.201,0,3.972,0.096,5.312,0.287s2.448,0.566,3.326,1.125
		c0.877,0.558,1.539,1.212,1.985,1.961C46.784,22.801,47.214,23.846,47.629,25.186z M89.736,25.186h2.249l-0.909-9.762H52.271
		l-0.909,9.762h2.249c0.702-2.393,1.658-4.075,2.871-5.049c1.212-0.973,2.982-1.459,5.312-1.459h5.454v33.974
		c0,1.18-0.079,2.097-0.239,2.747c-0.159,0.654-0.502,1.181-1.028,1.562c-0.526,0.383-1.141,0.639-1.843,0.766
		c-0.701,0.128-1.738,0.208-3.109,0.239v1.723h21.341v-1.723c-1.372-0.031-2.417-0.111-3.135-0.239
		c-0.718-0.127-1.34-0.383-1.866-0.766c-0.526-0.382-0.869-0.908-1.028-1.562c-0.159-0.65-0.239-1.567-0.239-2.747V18.678h5.455
		c2.328,0,4.099,0.486,5.311,1.459C88.078,21.11,89.035,22.793,89.736,25.186z"/>
</g>
</svg>
