<?xml version="1.0" encoding="utf-8"?>
<!-- Generator: Adobe Illustrator 13.0.0, SVG Export Plug-In . SVG Version: 6.00 Build 14948)  -->
<!DOCTYPE svg PUBLIC "-//W3C//DTD SVG 1.1//EN" "http://www.w3.org/Graphics/SVG/1.1/DTD/svg11.dtd">
<svg version="1.1" id="Layer_1" xmlns="http://www.w3.org/2000/svg" xmlns:xlink="http://www.w3.org/1999/xlink" x="0px" y="0px"
	 width="100px" height="100px" viewBox="0 0 100 100" enable-background="new 0 0 100 100" xml:space="preserve">
<g>
	<path d="M60.257,62.26L42.712,44.604L6.287,80.77L0.5,74.093l42.212-42.36l17.545,16.989l31.678-31.01l6.565,5.935L60.257,62.26z
		 M13.186,48.721h8.828L10.33,59.997v-48.48h75.966v8.086h-0.11l-3.153,3.079v-3.079l-0.037-5.082H69.196v15.765h6.417l-2.967,2.894
		l-3.45-0.037v3.45l-0.186,0.111l-2.671,2.596v-2.114v-0.593v-3.45H50.724v2.782l-5.489-5.638h1.929V14.521h-15.06v15.765h8.717
		l-2.856,2.745v0.111h-0.111h-0.037h-5.712v5.378h0.667l-3.821,3.709v-9.087H13.186V48.721z M82.995,43.046l3.265-2.671l0.036,2.671
		v44.438H10.33v-6.454h0.223l2.634-2.448v5.749H28.95V70.68h-8.16l3.19-3.449h4.97V62.26l3.153-2.967v7.938h15.06V53.32l3.264,3.673
		V67.23H66.34v-7.233l2.745-3.004l0.111,2.744v0.26v7.233h13.799V51.577h-8.271l2.93-2.856h5.342V43.046z M13.186,14.521v15.765
		H28.95V14.521H13.186z M47.163,84.33V70.68h-15.06v13.65H47.163z M45.865,51.577L39.596,51.8l3.338-3.375L45.865,51.577z
		 M50.427,14.521v15.765H66.34V14.521H50.427z M66.34,84.33V70.68H50.427v13.65H66.34z M82.995,84.33V70.68H69.196v13.65H82.995z"/>
</g>
</svg>
