<svg xmlns="http://www.w3.org/2000/svg" width="100" height="100" viewBox="0 0 100 100"><path d="M1.5 20.139v-4.929c0-1.35.478-2.503 1.433-3.458s2.108-1.433 3.458-1.433h88.219c1.324 0 2.471.478 3.438 1.433s1.452 2.108 1.452 3.458v4.929c0 1.324-.484 2.47-1.452 3.438s-2.114 1.451-3.438 1.451h-88.219c-1.35 0-2.503-.483-3.458-1.451-.955-.968-1.433-2.114-1.433-3.438zm0 31.825v-4.89c0-1.376.478-2.547 1.433-3.502.955-.949 2.108-1.426 3.458-1.426h88.219c1.324 0 2.471.478 3.438 1.426.968.955 1.452 2.126 1.452 3.502v4.89c0 1.324-.484 2.471-1.452 3.438-.968.969-2.114 1.452-3.438 1.452h-88.219c-1.35 0-2.503-.483-3.458-1.452-.955-.967-1.433-2.114-1.433-3.438zm0 26.936c0-1.351.478-2.51 1.433-3.465s2.108-1.426 3.458-1.426h88.219c1.324 0 2.471.471 3.438 1.426s1.452 2.115 1.452 3.465v4.891c0 1.375-.484 2.533-1.452 3.476-.968.943-2.114 1.415-3.438 1.415h-88.219c-1.35 0-2.503-.472-3.458-1.415-.955-.943-1.433-2.101-1.433-3.476v-4.891z"/></svg>