<?xml version="1.0" encoding="utf-8"?>
<!-- Generator: Adobe Illustrator 13.0.0, SVG Export Plug-In . SVG Version: 6.00 Build 14948)  -->
<!DOCTYPE svg PUBLIC "-//W3C//DTD SVG 1.1//EN" "http://www.w3.org/Graphics/SVG/1.1/DTD/svg11.dtd">
<svg version="1.1" id="Layer_1" xmlns="http://www.w3.org/2000/svg" xmlns:xlink="http://www.w3.org/1999/xlink" x="0px" y="0px"
	 width="100px" height="100px" viewBox="0 0 100 100" enable-background="new 0 0 100 100" xml:space="preserve">
<g>
	<path d="M1.5,20.139V15.21c0-1.35,0.478-2.503,1.433-3.458s2.108-1.433,3.458-1.433h88.219c1.324,0,2.471,0.478,3.438,1.433
		S99.5,13.86,99.5,15.21v4.929c0,1.324-0.484,2.47-1.452,3.438c-0.968,0.968-2.114,1.451-3.438,1.451H6.391
		c-1.35,0-2.503-0.483-3.458-1.451C1.978,22.609,1.5,21.463,1.5,20.139z M1.5,51.964v-4.89c0-1.376,0.478-2.547,1.433-3.502
		c0.955-0.949,2.108-1.426,3.458-1.426h88.219c1.324,0,2.471,0.478,3.438,1.426c0.968,0.955,1.452,2.126,1.452,3.502v4.89
		c0,1.324-0.484,2.471-1.452,3.438c-0.968,0.969-2.114,1.452-3.438,1.452H6.391c-1.35,0-2.503-0.483-3.458-1.452
		C1.978,54.435,1.5,53.288,1.5,51.964z M1.5,78.9c0-1.351,0.478-2.51,1.433-3.465s2.108-1.426,3.458-1.426h88.219
		c1.324,0,2.471,0.471,3.438,1.426S99.5,77.55,99.5,78.9v4.891c0,1.375-0.484,2.533-1.452,3.476
		c-0.968,0.943-2.114,1.415-3.438,1.415H6.391c-1.35,0-2.503-0.472-3.458-1.415C1.978,86.324,1.5,85.166,1.5,83.791V78.9z"/>
</g>
</svg>
