<svg xmlns="http://www.w3.org/2000/svg" width="100" height="100" viewBox="0 0 100 100"><path d="M73.557 11.002h-46.684c-2.938 0-5.312 2.384-5.312 5.32v67.692c0 2.939 2.374 5.322 5.312 5.322h46.684c2.938 0 5.312-2.383 5.312-5.322v-67.692c-.001-2.936-2.375-5.32-5.312-5.32zm-23.337 74.273c-1.756 0-3.161-1.418-3.161-3.164 0-1.741 1.405-3.162 3.161-3.162 1.746 0 3.151 1.421 3.151 3.162 0 1.746-1.405 3.164-3.151 3.164zm20.161-10.13h-40.334v-54.643h40.333v54.643zM66.834 39.694c0 .812-.658 1.47-1.469 1.47h-30.478c-.811 0-1.469-.657-1.469-1.47v-13.982c0-.811.658-1.469 1.469-1.469h30.478c.811 0 1.469.658 1.469 1.469v13.982zM66.782 46.221c0 .325-.264.588-.587.588h-32.241c-.324 0-.587-.263-.587-.588v-.273c0-.324.263-.587.587-.587h32.241c.323 0 .587.263.587.587v.273zM66.782 50.988c0 .324-.264.587-.587.587h-32.241c-.324 0-.587-.263-.587-.587v-.273c0-.326.263-.588.587-.588h32.241c.323 0 .587.263.587.588v.273zM59.528 55.754c0 .323-.264.588-.587.588h-24.987c-.324 0-.587-.265-.587-.588v-.274c0-.325.263-.588.587-.588h24.987c.323 0 .587.263.587.588v.274zM66.782 60.83c0 .324-.264.588-.587.588h-32.241c-.324 0-.587-.264-.587-.588v-.273c0-.324.263-.588.587-.588h32.241c.323 0 .587.264.587.588v.273zM66.782 65.596c0 .325-.264.589-.587.589h-32.241c-.324 0-.587-.264-.587-.589v-.273c0-.324.263-.587.587-.587h32.241c.323 0 .587.263.587.587v.273zM59.528 70.363c0 .324-.264.587-.587.587h-24.987c-.324 0-.587-.263-.587-.587v-.273c0-.325.263-.588.587-.588h24.987c.323 0 .587.263.587.588v.273z"/></svg>