<?xml version="1.0" encoding="utf-8"?>
<!-- Generator: Adobe Illustrator 13.0.0, SVG Export Plug-In . SVG Version: 6.00 Build 14948)  -->
<!DOCTYPE svg PUBLIC "-//W3C//DTD SVG 1.1//EN" "http://www.w3.org/Graphics/SVG/1.1/DTD/svg11.dtd">
<svg version="1.1" id="Layer_1" xmlns="http://www.w3.org/2000/svg" xmlns:xlink="http://www.w3.org/1999/xlink" x="0px" y="0px"
	 width="100px" height="100px" viewBox="0 0 100 100" enable-background="new 0 0 100 100" xml:space="preserve">
<g>
	<path d="M1.5,51.309c0-0.307,0.092-0.583,0.276-0.813s0.429-0.368,0.736-0.429l13.985-1.61c0.307-0.031,0.583,0.062,0.828,0.276
		c0.246,0.184,0.383,0.445,0.414,0.782c0.307,3.987,1.411,7.759,3.312,11.317c2.729,5.061,6.64,8.956,11.731,11.686l1.886-7.407
		c0.123-0.49,0.429-0.782,0.92-0.858c0.491-0.077,0.874,0.107,1.15,0.537l7.13,11.455l6.303,10.167l0.046,0.092
		c0.153,0.275,0.168,0.582,0.046,0.92c-0.123,0.337-0.353,0.567-0.69,0.689l-10.259,3.405l-14.538,4.876
		c-0.491,0.153-0.905,0.046-1.242-0.322s-0.383-0.782-0.138-1.242l3.588-6.992c-4.263-2.024-8.135-4.678-11.616-7.943
		c-3.481-3.267-6.372-7.055-8.672-11.379C3.785,63.116,2.052,57.381,1.5,51.309z M64.985,6.128c0.307,0.123,0.514,0.322,0.621,0.598
		c0.107,0.276,0.115,0.552,0.023,0.828L60.432,20.62c-0.123,0.307-0.33,0.521-0.621,0.644c-0.292,0.123-0.591,0.123-0.897,0
		c-3.681-1.625-7.529-2.438-11.547-2.438c-5.766,0-11.041,1.595-15.826,4.784l5.613,5.153c0.368,0.337,0.475,0.736,0.322,1.196
		c-0.184,0.491-0.521,0.751-1.012,0.782l-13.479,0.828l-11.961,0.782h-0.046c-0.337,0-0.629-0.123-0.874-0.368
		c-0.245-0.276-0.337-0.598-0.276-0.966l1.84-10.673l2.577-15.089c0.092-0.491,0.383-0.797,0.874-0.92
		c0.491-0.123,0.889,0.031,1.196,0.46l4.462,6.441c3.803-2.791,7.967-4.938,12.49-6.441C37.79,3.292,42.49,2.54,47.366,2.54
		C53.53,2.54,59.404,3.736,64.985,6.128z M71.656,84.34c-0.245,0.184-0.514,0.245-0.805,0.199c-0.292-0.046-0.529-0.185-0.714-0.43
		L61.72,72.792c-0.185-0.245-0.253-0.536-0.207-0.858s0.207-0.567,0.482-0.751c3.312-2.27,6.026-5.106,8.143-8.511
		c3.037-4.907,4.463-10.229,4.279-15.964l-7.361,2.024c-0.49,0.154-0.89,0.031-1.196-0.368c-0.307-0.399-0.353-0.813-0.138-1.242
		l6.395-11.919l5.658-10.535v-0.046c0.185-0.307,0.445-0.491,0.782-0.552c0.338-0.061,0.66,0.031,0.967,0.276l8.097,7.176
		l11.501,10.121c0.368,0.337,0.468,0.74,0.299,1.215c-0.169,0.476-0.498,0.736-0.989,0.767l-7.82,0.414
		c0.368,4.692,0,9.354-1.104,14c-1.104,4.646-2.944,9.048-5.521,13.188C80.766,76.473,76.655,80.843,71.656,84.34z"/>
</g>
</svg>
