<?xml version="1.0" encoding="utf-8"?>
<!-- Generator: Adobe Illustrator 13.0.0, SVG Export Plug-In . SVG Version: 6.00 Build 14948)  -->
<!DOCTYPE svg PUBLIC "-//W3C//DTD SVG 1.1//EN" "http://www.w3.org/Graphics/SVG/1.1/DTD/svg11.dtd">
<svg version="1.1" id="Layer_1" xmlns="http://www.w3.org/2000/svg" xmlns:xlink="http://www.w3.org/1999/xlink" x="0px" y="0px"
	 width="100px" height="100px" viewBox="0 0 100 100" enable-background="new 0 0 100 100" xml:space="preserve">
<g>
	<path d="M1.424,21.892c1.078-0.494,2.257-1.005,3.538-1.533c1.281-0.528,3.134-1.196,5.56-2.005s4.801-1.477,7.126-2.005
		c2.325-0.528,4.941-0.927,7.851-1.196c2.909-0.27,5.621-0.264,8.137,0.017s5.043,0.972,7.581,2.072s4.729,2.617,6.57,4.548
		c0.18,0.202,0.309,0.399,0.388,0.59s0.106,0.331,0.084,0.421v0.135V82.98c0,0.045,0,0.09,0,0.146c0,0.056-0.017,0.157-0.05,0.303
		c-0.034,0.146-0.084,0.259-0.152,0.326s-0.163,0.101-0.287,0.101s-0.264-0.078-0.421-0.235c-1.415-1.258-3.038-2.303-4.869-3.122
		c-1.831-0.82-3.65-1.427-5.458-1.819c-1.808-0.394-3.807-0.606-5.998-0.651c-2.19-0.045-4.2,0-6.031,0.146
		c-1.831,0.146-3.841,0.438-6.031,0.865c-2.19,0.427-4.026,0.819-5.509,1.19c-1.483,0.37-3.139,0.854-4.97,1.438
		c-1.831,0.584-3.127,1.011-3.892,1.28c-0.764,0.27-1.685,0.606-2.763,1.011c-0.382,0.135-0.68,0.112-0.893-0.067
		s-0.331-0.394-0.354-0.641l-0.034-0.404V23.61c0.022-0.045,0.011-0.163-0.034-0.354s0.011-0.433,0.168-0.725
		S1.087,22.026,1.424,21.892z M43.103,30.888V26.71c-1.527-0.809-3.156-1.455-4.885-1.938s-3.347-0.825-4.852-1.027
		c-1.505-0.203-3.246-0.242-5.223-0.118c-1.977,0.124-3.65,0.27-5.02,0.438S20,24.559,17.867,25.042s-3.779,0.876-4.936,1.179
		s-2.836,0.758-5.037,1.365c-1.213,0.337-2.111,0.595-2.695,0.775v4.616c0.539-0.157,1.348-0.382,2.426-0.674
		c2.269-0.651,3.993-1.135,5.172-1.449s2.836-0.724,4.97-1.229s3.88-0.842,5.239-1.011s3.016-0.32,4.97-0.455
		c1.955-0.135,3.684-0.118,5.189,0.051s3.139,0.472,4.902,0.91S41.508,30.146,43.103,30.888z M43.103,44.503v-4.147
		c-1.527-0.809-3.15-1.455-4.869-1.938s-3.335-0.826-4.852-1.028c-1.517-0.202-3.263-0.247-5.24-0.135
		c-1.977,0.112-3.65,0.253-5.02,0.421S20,38.171,17.867,38.654s-3.779,0.882-4.936,1.196s-2.825,0.775-5.003,1.381
		c-1.235,0.337-2.145,0.584-2.729,0.741v4.619c0.539-0.157,1.359-0.382,2.459-0.674c2.246-0.651,3.959-1.134,5.138-1.449
		c1.179-0.317,2.841-0.722,4.987-1.216c2.145-0.494,3.892-0.831,5.239-1.011s2.999-0.337,4.953-0.472
		c1.955-0.135,3.684-0.112,5.189,0.067s3.139,0.483,4.902,0.91S41.508,43.759,43.103,44.503z M43.103,58.148v-4.178
		c-1.527-0.809-3.15-1.46-4.869-1.943c-1.718-0.482-3.335-0.819-4.852-1.021c-1.517-0.202-3.257-0.247-5.223-0.135
		s-3.639,0.247-5.021,0.415c-1.381,0.169-3.139,0.494-5.273,0.978c-2.134,0.482-3.779,0.888-4.936,1.202s-2.825,0.774-5.003,1.381
		c-1.235,0.337-2.145,0.584-2.729,0.741v4.616c0.539-0.135,1.359-0.359,2.459-0.674c2.269-0.651,3.987-1.135,5.155-1.449
		c1.168-0.314,2.825-0.719,4.97-1.213c2.145-0.494,3.892-0.831,5.239-0.999c1.348-0.169,2.999-0.326,4.953-0.472
		c1.955-0.146,3.689-0.124,5.206,0.056c1.516,0.18,3.15,0.483,4.902,0.91C39.835,56.79,41.508,57.385,43.103,58.148z M43.103,71.761
		v-4.178c-1.527-0.809-3.156-1.46-4.885-1.943c-1.729-0.482-3.347-0.819-4.852-1.021s-3.246-0.247-5.223-0.124
		c-1.977,0.124-3.65,0.27-5.02,0.438c-1.37,0.168-3.123,0.494-5.256,0.977c-2.134,0.483-3.779,0.876-4.936,1.18
		c-1.157,0.303-2.825,0.764-5.003,1.37c-1.235,0.337-2.145,0.596-2.729,0.775v4.615c0.539-0.157,1.348-0.393,2.426-0.707
		c2.269-0.629,3.993-1.101,5.172-1.415s2.841-0.73,4.987-1.235c2.145-0.506,3.892-0.843,5.239-1.011
		c1.348-0.169,2.999-0.314,4.953-0.449c1.955-0.135,3.684-0.124,5.189,0.045c1.505,0.168,3.139,0.472,4.902,0.909
		C39.829,70.425,41.508,71.02,43.103,71.761z M97.619,21.892c0.314,0.135,0.539,0.343,0.686,0.624
		c0.146,0.281,0.213,0.517,0.19,0.708s-0.022,0.32,0,0.387v59.236c-0.022,0.135-0.045,0.281-0.067,0.438s-0.146,0.337-0.359,0.55
		c-0.213,0.214-0.505,0.259-0.887,0.124c-1.078-0.404-1.999-0.741-2.764-1.011c-0.764-0.27-2.066-0.696-3.896-1.28
		c-1.831-0.584-3.481-1.067-4.965-1.438c-1.482-0.371-3.318-0.764-5.509-1.19c-2.189-0.427-4.194-0.719-6.014-0.865
		c-1.819-0.146-3.824-0.19-6.015-0.146s-4.194,0.258-6.015,0.651c-1.819,0.393-3.639,0.999-5.458,1.819
		c-1.819,0.819-3.448,1.864-4.886,3.122c-0.292,0.225-0.505,0.292-0.64,0.202s-0.214-0.259-0.236-0.506l-0.033-0.337V22.936
		c-0.067-0.314,0.09-0.696,0.472-1.146c1.842-1.932,4.031-3.448,6.57-4.548c2.538-1.101,5.064-1.792,7.581-2.072
		c2.516-0.281,5.228-0.287,8.137-0.017s5.525,0.668,7.851,1.196s4.7,1.196,7.126,2.005s4.279,1.477,5.56,2.005
		S96.519,21.397,97.619,21.892z M93.946,32.977v-4.616c-0.584-0.18-1.482-0.438-2.695-0.775c-2.201-0.606-3.886-1.062-5.043-1.365
		c-1.156-0.303-2.796-0.696-4.93-1.179c-2.135-0.483-3.887-0.809-5.257-0.977s-3.043-0.314-5.021-0.438
		c-1.977-0.124-3.723-0.084-5.239,0.118c-1.516,0.202-3.133,0.544-4.852,1.027s-3.341,1.129-4.868,1.938v4.178
		c1.595-0.741,3.273-1.331,5.037-1.769c1.763-0.438,3.397-0.741,4.902-0.91s3.234-0.186,5.188-0.051s3.61,0.287,4.97,0.455
		s3.105,0.505,5.239,1.011s3.785,0.915,4.964,1.229c1.18,0.314,2.909,0.798,5.178,1.449C92.599,32.595,93.407,32.82,93.946,32.977z
		 M93.946,46.491v-4.619c-0.584-0.157-1.493-0.416-2.729-0.775c-2.179-0.606-3.853-1.062-5.01-1.365
		c-1.156-0.303-2.796-0.696-4.93-1.179c-2.135-0.483-3.887-0.809-5.257-0.977s-3.043-0.309-5.021-0.421
		c-1.977-0.112-3.723-0.067-5.239,0.135c-1.516,0.202-3.133,0.539-4.852,1.011s-3.341,1.124-4.868,1.955v4.147
		c1.595-0.744,3.268-1.328,5.02-1.755s3.387-0.73,4.902-0.91c1.517-0.18,3.252-0.202,5.206-0.067s3.605,0.292,4.953,0.472
		s3.094,0.517,5.239,1.011s3.802,0.898,4.98,1.213c1.18,0.317,2.898,0.8,5.145,1.452C92.588,46.109,93.407,46.333,93.946,46.491z
		 M93.946,73.85v-18.16c-0.584-0.18-1.482-0.438-2.695-0.775c-2.201-0.606-3.886-1.066-5.043-1.37
		c-1.156-0.303-2.796-0.696-4.93-1.18c-2.135-0.482-3.887-0.809-5.257-0.977c-1.37-0.169-3.043-0.314-5.021-0.438
		c-1.977-0.123-3.723-0.078-5.239,0.124c-1.516,0.202-3.133,0.539-4.852,1.021c-1.719,0.483-3.341,1.135-4.868,1.943v17.723
		c1.595-0.741,3.268-1.336,5.02-1.774c1.752-0.438,3.387-0.741,4.902-0.909c1.517-0.169,3.252-0.18,5.206-0.045
		s3.605,0.28,4.953,0.449c1.348,0.168,3.094,0.505,5.239,1.011c2.146,0.505,3.802,0.921,4.98,1.235
		c1.18,0.314,2.898,0.786,5.145,1.415C92.588,73.457,93.407,73.692,93.946,73.85z"/>
</g>
</svg>
