<?xml version="1.0" encoding="utf-8"?>
<!-- Generator: Adobe Illustrator 13.0.0, SVG Export Plug-In . SVG Version: 6.00 Build 14948)  -->
<!DOCTYPE svg PUBLIC "-//W3C//DTD SVG 1.1//EN" "http://www.w3.org/Graphics/SVG/1.1/DTD/svg11.dtd">
<svg version="1.1" id="Layer_1" xmlns="http://www.w3.org/2000/svg" xmlns:xlink="http://www.w3.org/1999/xlink" x="0px" y="0px"
	 width="100px" height="100px" viewBox="0 0 100 100" enable-background="new 0 0 100 100" xml:space="preserve">
<g>
	<path d="M2.5,46.124c0-2.504,0.355-4.921,1.067-7.252c0.712-2.332,1.505-3.498,2.378-3.498h6.098
		c1.333-3.123,3.273-5.995,5.823-8.613c-0.046-0.575-0.31-1.114-0.792-1.619c-0.483-0.506-1.016-0.931-1.603-1.275
		c-0.585-0.345-1.165-0.734-1.74-1.171c-0.573-0.437-0.976-0.861-1.206-1.275c-0.229-0.413-0.229-0.953,0-1.619
		c0.345-0.919,1.309-1.39,2.894-1.413c1.586-0.023,3.216,0.212,4.893,0.706c1.676,0.494,3.284,1.096,4.823,1.809
		c3.308-2.136,7.017-3.778,11.128-4.927c4.111-1.148,8.429-1.723,12.954-1.723c4.962,0,9.725,0.723,14.294,2.171
		c4.57,1.447,8.58,3.422,12.025,5.925c3.444,2.504,6.316,5.49,8.612,8.958c2.298,3.468,3.732,7.154,4.307,11.059
		c1.148-0.437,2.269-1.257,3.358-2.463c1.093-1.207,1.952-2.395,2.585-3.566c0.632-1.171,1.269-2.205,1.911-3.101
		c0.644-0.896,1.173-1.321,1.585-1.275c0.391,0.069,0.592,0.609,0.604,1.62c0.012,1.01-0.201,2.302-0.637,3.875
		c-0.438,1.573-1.04,3.215-1.81,4.927c-0.77,1.71-1.854,3.417-3.255,5.127c-1.401,1.712-2.952,3.089-4.652,4.123
		c-0.664,3.284-1.946,6.397-3.842,9.349c-1.894,2.951-4.289,5.604-7.183,7.947c0.139,1.884,0.189,4.043,0.154,6.489
		c-0.033,2.444-0.166,3.928-0.395,4.432c-0.047,0.069-0.184,0.311-0.414,0.725c-0.23,0.412-0.391,0.688-0.482,0.838
		c-0.092,0.149-0.281,0.413-0.569,0.792c-0.287,0.379-0.545,0.654-0.774,0.814c-0.229,0.162-0.558,0.369-0.981,0.633
		c-0.425,0.264-0.862,0.46-1.31,0.585c-0.447,0.127-0.992,0.242-1.638,0.346c-0.643,0.104-1.33,0.16-2.066,0.16
		c-1.446,0-2.75-0.172-3.91-0.516c-1.159-0.347-2.085-0.794-2.772-1.333c-0.689-0.539-1.224-1.057-1.603-1.563
		c-0.379-0.504-0.648-0.998-0.811-1.48c-0.137-0.32-0.217-1.251-0.24-2.79c-3.513,0.734-6.877,1.102-10.092,1.102
		c-3.628,0-7.292-0.424-10.99-1.273c-0.023,1.629-0.092,2.618-0.208,2.962c-0.114,0.459-0.355,0.941-0.723,1.459
		c-0.368,0.517-0.884,1.046-1.55,1.585c-0.667,0.539-1.58,0.986-2.74,1.333c-1.16,0.344-2.463,0.516-3.91,0.516
		c-1.171,0-2.217-0.127-3.136-0.379c-0.918-0.252-1.63-0.517-2.135-0.782c-0.505-0.264-0.988-0.676-1.447-1.25
		c-0.459-0.574-0.752-0.989-0.878-1.229c-0.127-0.242-0.339-0.654-0.638-1.252c-0.597-0.919-0.667-4.777-0.206-11.575
		c-3.675-3.032-6.478-6.649-8.407-10.854H5.945c-0.873,0-1.666-1.262-2.378-3.776C2.855,51.132,2.5,48.627,2.5,46.124z
		 M34.162,26.882c-0.253,0.701-0.207,1.349,0.138,1.946c0.368,0.666,0.884,1.114,1.551,1.343c0.665,0.229,1.309,0.173,1.928-0.172
		c0.299-0.138,0.914-0.397,1.844-0.775c0.93-0.379,2.458-0.828,4.582-1.344c2.125-0.517,4.106-0.775,5.944-0.775
		c0.826,0,1.671,0.052,2.532,0.154c0.861,0.104,1.647,0.236,2.36,0.397c0.711,0.161,1.397,0.345,2.064,0.551
		c0.664,0.207,1.262,0.408,1.79,0.603c0.529,0.195,0.988,0.379,1.379,0.552c0.391,0.172,0.705,0.315,0.947,0.43
		c0.241,0.116,0.374,0.173,0.396,0.173c0.598,0.367,1.264,0.441,1.999,0.224c0.734-0.218,1.24-0.637,1.516-1.257
		c0.367-0.575,0.447-1.241,0.24-1.999c-0.252-0.757-0.643-1.263-1.17-1.515c-0.23-0.115-0.518-0.259-0.862-0.431
		c-0.344-0.172-1.021-0.459-2.031-0.861c-1.012-0.402-2.028-0.757-3.051-1.068c-1.021-0.31-2.275-0.585-3.77-0.827
		c-1.493-0.241-2.939-0.362-4.34-0.362c-2.274,0-4.623,0.293-7.046,0.879c-2.423,0.585-4.232,1.131-5.426,1.636
		c-1.195,0.505-1.883,0.838-2.067,0.999C34.897,25.682,34.414,26.181,34.162,26.882z"/>
</g>
</svg>
