<?xml version="1.0" encoding="utf-8"?>
<!-- Generator: Adobe Illustrator 13.0.0, SVG Export Plug-In . SVG Version: 6.00 Build 14948)  -->
<!DOCTYPE svg PUBLIC "-//W3C//DTD SVG 1.1//EN" "http://www.w3.org/Graphics/SVG/1.1/DTD/svg11.dtd">
<svg version="1.1" id="Layer_1" xmlns="http://www.w3.org/2000/svg" xmlns:xlink="http://www.w3.org/1999/xlink" x="0px" y="0px"
	 width="100px" height="100px" viewBox="0 0 100 100" enable-background="new 0 0 100 100" xml:space="preserve">
<g>
	<path d="M35.701,49.688c0,2.963-2.401,5.361-5.362,5.361c-2.962,0-5.363-2.398-5.363-5.361c0-2.962,2.401-5.361,5.363-5.361
		C33.3,44.326,35.701,46.725,35.701,49.688"/>
	<path d="M55.55,49.688c0,2.963-2.401,5.361-5.362,5.361c-2.962,0-5.363-2.398-5.363-5.361c0-2.962,2.401-5.361,5.363-5.361
		C53.148,44.326,55.55,46.725,55.55,49.688"/>
	<path d="M75.399,49.688c0,2.963-2.401,5.361-5.363,5.361c-2.961,0-5.362-2.398-5.362-5.361c0-2.962,2.401-5.361,5.362-5.361
		C72.998,44.326,75.399,46.725,75.399,49.688"/>
</g>
</svg>
