<svg xmlns="http://www.w3.org/2000/svg" width="100" height="100" viewBox="0 0 100 100"><path d="M35.701 49.688c0 2.963-2.401 5.361-5.362 5.361-2.962 0-5.363-2.398-5.363-5.361 0-2.962 2.401-5.361 5.363-5.361 2.961-.001 5.362 2.398 5.362 5.361M55.55 49.688c0 2.963-2.401 5.361-5.362 5.361-2.962 0-5.363-2.398-5.363-5.361 0-2.962 2.401-5.361 5.363-5.361 2.96-.001 5.362 2.398 5.362 5.361M75.399 49.688c0 2.963-2.401 5.361-5.363 5.361-2.961 0-5.362-2.398-5.362-5.361 0-2.962 2.401-5.361 5.362-5.361 2.962-.001 5.363 2.398 5.363 5.361"/></svg>