<?xml version="1.0" encoding="utf-8"?>
<!-- Generator: Adobe Illustrator 13.0.0, SVG Export Plug-In . SVG Version: 6.00 Build 14948)  -->
<!DOCTYPE svg PUBLIC "-//W3C//DTD SVG 1.1//EN" "http://www.w3.org/Graphics/SVG/1.1/DTD/svg11.dtd">
<svg version="1.1" id="Layer_1" xmlns="http://www.w3.org/2000/svg" xmlns:xlink="http://www.w3.org/1999/xlink" x="0px" y="0px"
	 width="100px" height="100px" viewBox="0 0 100 100" enable-background="new 0 0 100 100" xml:space="preserve">
<g>
	<path d="M95.804,72.366c0.741,0,1.376,0.26,1.904,0.788s0.792,1.168,0.792,1.918c0,0.751-0.264,1.391-0.792,1.919
		s-1.163,0.797-1.904,0.797H3.197c-0.741,0-1.376-0.269-1.904-0.797S0.5,75.823,0.5,75.072c0-0.75,0.264-1.39,0.792-1.918
		s1.163-0.788,1.904-0.788h24.577c0.408-3.595,1.622-6.885,3.642-9.859c2.021-2.976,4.629-5.319,7.826-7.034
		s6.649-2.576,10.356-2.595c3.688,0,7.131,0.861,10.329,2.586c3.197,1.724,5.806,4.067,7.826,7.043
		c2.02,2.975,3.243,6.265,3.67,9.859H95.804z M3.809,52.071c-0.649-0.37-1.071-0.917-1.265-1.64
		c-0.195-0.723-0.106-1.408,0.264-2.057c0.371-0.648,0.917-1.075,1.64-1.27c0.723-0.195,1.409-0.102,2.057,0.269l20.99,12.121
		c0.649,0.371,1.07,0.918,1.265,1.641c0.194,0.723,0.106,1.409-0.264,2.058c-0.519,0.908-1.307,1.362-2.363,1.362
		c-0.482,0-0.927-0.121-1.334-0.361L3.809,52.071z M33.445,53.268L21.351,32.277c-0.389-0.648-0.486-1.334-0.292-2.057
		c0.195-0.723,0.616-1.27,1.265-1.64c0.648-0.371,1.334-0.459,2.057-0.264c0.723,0.194,1.27,0.616,1.64,1.265l12.122,20.963
		c0.371,0.648,0.463,1.334,0.278,2.057c-0.185,0.723-0.602,1.279-1.251,1.668c-0.426,0.241-0.88,0.361-1.362,0.361
		C34.751,54.629,33.964,54.175,33.445,53.268z M33.25,72.366h32.694c-0.537-3.559-2.094-6.616-4.671-9.174
		c-1.52-1.538-3.285-2.734-5.296-3.587s-4.138-1.278-6.38-1.278s-4.369,0.426-6.38,1.278c-2.011,0.853-3.786,2.049-5.324,3.587
		C35.335,65.769,33.788,68.826,33.25,72.366z M50.501,50.051c-0.528,0.529-1.168,0.797-1.918,0.797s-1.39-0.269-1.918-0.797
		c-0.528-0.528-0.792-1.158-0.792-1.899V23.909c0-0.741,0.264-1.376,0.792-1.904c0.528-0.528,1.168-0.792,1.918-0.792
		s1.39,0.264,1.918,0.792s0.792,1.163,0.792,1.904v24.243C51.293,48.893,51.029,49.523,50.501,50.051z M61.219,53.906
		c-0.649-0.389-1.071-0.945-1.266-1.668s-0.106-1.408,0.265-2.057l12.121-20.962c0.371-0.648,0.917-1.07,1.641-1.265
		c0.723-0.195,1.408-0.107,2.057,0.264c0.649,0.371,1.07,0.917,1.266,1.641c0.194,0.723,0.106,1.409-0.265,2.057l-12.121,20.99
		c-0.52,0.908-1.307,1.362-2.363,1.362C62.071,54.268,61.626,54.147,61.219,53.906z M70.143,62.58
		c-0.371-0.648-0.459-1.343-0.264-2.075c0.194-0.732,0.616-1.279,1.265-1.649l20.99-12.122c0.648-0.371,1.334-0.463,2.057-0.269
		c0.724,0.195,1.27,0.621,1.641,1.27c0.371,0.649,0.459,1.334,0.264,2.058c-0.194,0.723-0.616,1.27-1.265,1.641L73.84,63.554
		c-0.407,0.241-0.853,0.361-1.334,0.361C71.449,63.915,70.661,63.47,70.143,62.58z"/>
</g>
</svg>
