<svg xmlns="http://www.w3.org/2000/svg" width="100" height="100" viewBox="0 0 100 100"><path d="M78.844 28.746v-9.548h-66.844v52.531s0 9.547 9.547 9.547h59.685s7.17-.154 7.17-9.547v-42.983h-9.558zm-57.297 47.748c-4.767 0-4.767-4.765-4.767-4.765v-47.749h57.294v47.749c0 2.188.677 3.719 1.608 4.765h-54.135zm0 0"/><path d="M21.547 33.528h47.749v4.768h-47.749zM47.812 62.167h16.717v4.78h-16.717zM47.812 52.62h21.484v4.782h-21.484zM47.812 43.072h21.484v4.782h-21.484zM21.547 43.072h21.483v23.875h-21.483z"/></svg>