<svg width="100" height="128" viewBox="0 0 100 128" xmlns="http://www.w3.org/2000/svg"><g fill="none" fill-rule="evenodd"><path d="M92.212 51.693h-2.496V40.02C89.716 18.43 72.584.395 51.17.01c-.585-.01-1.755-.01-2.34 0-21.414.386-38.546 18.42-38.546 40.01v11.673H7.79c-3.844 0-6.98 3.967-6.98 8.865v58.546c0 4.892 3.136 8.896 6.98 8.896h84.42c3.845 0 6.98-4.004 6.98-8.896V60.558c0-4.898-3.136-8.865-6.978-8.865zM57.91 89.773v17.69c0 2.025-1.697 3.738-3.724 3.738h-8.37c-2.03 0-3.725-1.712-3.725-3.738v-17.69c-1.965-1.937-3.11-4.613-3.11-7.573 0-5.61 4.336-10.432 9.85-10.654.585-.025 1.755-.025 2.34 0 5.514.222 9.85 5.043 9.85 10.653 0 2.96-1.145 5.635-3.11 7.572zm15.368-38.08H26.722V40.02c0-12.86 10.45-23.495 23.278-23.495 12.826 0 23.278 10.635 23.278 23.495v11.673z" fill="#000"/></g></svg>