<?xml version="1.0" encoding="utf-8"?>
<!-- Generator: Adobe Illustrator 13.0.0, SVG Export Plug-In . SVG Version: 6.00 Build 14948)  -->
<!DOCTYPE svg PUBLIC "-//W3C//DTD SVG 1.1//EN" "http://www.w3.org/Graphics/SVG/1.1/DTD/svg11.dtd">
<svg version="1.1" id="Layer_1" xmlns="http://www.w3.org/2000/svg" xmlns:xlink="http://www.w3.org/1999/xlink" x="0px" y="0px"
	 width="100px" height="100px" viewBox="0 0 100 100" enable-background="new 0 0 100 100" xml:space="preserve">
<g>
	<path d="M5.203,41.795c1.484,0,2.756,0.36,3.814,1.08c1.058,0.72,1.587,1.83,1.587,3.329c0,1.51-0.622,2.724-1.866,3.644
		c-1.244,0.92-2.708,1.385-4.394,1.39c-0.01-0.552-0.018-1.086-0.022-1.603c1.204-0.09,2.123-0.418,2.757-0.985
		c0.635-0.567,0.952-1.334,0.952-2.302c0-0.833-0.305-1.512-0.914-2.039s-1.398-0.79-2.366-0.79H3.193
		c-0.005,7.263,0.09,11.774,0.286,13.535c-0.988-0.2-1.976-0.2-2.964,0c0.141-1.204,0.221-3.765,0.241-7.679
		c0.02-3.914-0.065-6.443-0.256-7.586c1.309,0.045,2.107,0.068,2.393,0.068C3.259,41.816,4.029,41.795,5.203,41.795z M16.608,55.128
		c0.472,0.02,1.156,0.018,2.054-0.008s1.68-0.055,2.347-0.09l0.993-0.061l-0.098,2.129c-0.788-0.104-2.01-0.165-3.668-0.178
		s-3.104,0.048-4.337,0.178c0.156-2.126,0.227-4.64,0.214-7.536c-0.012-2.895-0.079-5.472-0.199-7.729
		c2.643,0.226,5.297,0.226,7.96,0v2.137c-2.137-0.201-3.867-0.281-5.191-0.241l-0.015,4.439c0.487,0.05,1.046,0.067,1.678,0.053
		c0.632-0.015,1.101-0.033,1.407-0.053s0.672-0.052,1.099-0.094s0.677-0.066,0.752-0.071v2.129c-0.211-0.02-0.479-0.042-0.805-0.067
		c-0.326-0.025-0.958-0.055-1.896-0.09s-1.68-0.02-2.227,0.045C16.631,50.967,16.608,52.67,16.608,55.128z M30.227,41.901
		c0.893,0.101,1.748,0.101,2.565,0c0.266,1.019,1.061,3.307,2.385,6.864c1.324,3.559,2.393,6.315,3.205,8.266
		c-1.088-0.096-2.097-0.098-3.024-0.008c-0.557-1.82-1.028-3.252-1.415-4.296c-1.931-0.115-3.707-0.115-5.327,0
		c-0.085,0.246-0.281,0.888-0.587,1.929c-0.306,1.041-0.544,1.831-0.715,2.367c-0.722-0.115-1.567-0.105-2.536,0.03
		c0.833-1.986,1.86-4.659,3.081-8.02S29.871,43.295,30.227,41.901z M29.218,50.696c1.299,0.136,2.626,0.136,3.98,0l-2.039-5.801
		L29.218,50.696z M51.112,45.874c0,1.144-0.32,2.082-0.963,2.814c-0.642,0.732-1.402,1.184-2.28,1.354l5.327,7.02
		c-1.083-0.166-2.207-0.181-3.37-0.045c-1.826-2.854-3.306-4.966-4.439-6.335c-0.005-0.231-0.018-0.778-0.038-1.641
		c1.159,0.02,1.972-0.261,2.438-0.843c0.466-0.582,0.7-1.264,0.7-2.046c0-0.768-0.292-1.372-0.876-1.813s-1.271-0.662-2.058-0.662
		h-1.264c-0.095,2.528-0.02,6.977,0.226,13.347c-1.003-0.1-1.981-0.1-2.934,0c0.166-1.249,0.244-3.872,0.237-7.87
		s-0.086-6.435-0.237-7.313l2.294,0.083c0.778-0.045,1.427-0.067,1.949-0.067c0.517,0,1.024,0.045,1.523,0.135
		c0.5,0.09,1.06,0.258,1.682,0.504c0.622,0.246,1.125,0.659,1.509,1.238C50.921,44.312,51.112,45.026,51.112,45.874z M61.856,48.401
		c0.998,0.637,1.737,1.257,2.216,1.861c0.479,0.605,0.719,1.422,0.719,2.451c0,1.499-0.473,2.61-1.418,3.335
		c-0.946,0.726-2.053,1.089-3.322,1.089c-0.822,0-1.663-0.171-2.521-0.512s-1.55-0.715-2.076-1.121
		c0.456-0.902,0.768-1.655,0.933-2.257c0.486,0.541,1.065,0.988,1.738,1.342c0.672,0.354,1.269,0.531,1.79,0.531
		c0.688,0,1.226-0.178,1.614-0.531s0.583-0.843,0.583-1.47c0.04-0.692-0.449-1.465-1.467-2.317c-0.231-0.19-0.69-0.524-1.377-0.999
		c-0.688-0.474-1.079-0.747-1.174-0.822c-0.697-0.567-1.204-1.097-1.52-1.591c-0.316-0.494-0.475-1.112-0.475-1.854
		c0-1.068,0.422-1.959,1.265-2.671c0.842-0.712,1.891-1.069,3.145-1.069c1.279,0,2.601,0.454,3.965,1.362
		c-0.542,0.823-0.918,1.545-1.128,2.167c-0.808-1.099-1.726-1.647-2.754-1.647c-0.597,0-1.068,0.162-1.415,0.485
		c-0.346,0.323-0.519,0.761-0.519,1.312c0,0.361,0.266,0.78,0.797,1.257C59.979,47.183,60.778,47.739,61.856,48.401z M75.271,41.795
		c2.047,0,3.797,0.73,5.252,2.189c1.454,1.46,2.182,3.22,2.182,5.282c0,2.192-0.721,4.063-2.163,5.615
		c-1.442,1.553-3.179,2.33-5.21,2.33c-2.157,0-3.937-0.75-5.339-2.247c-1.401-1.497-2.103-3.396-2.103-5.698
		c0-2.026,0.729-3.778,2.189-5.255C71.54,42.534,73.271,41.795,75.271,41.795z M75.332,55.331c1.435,0,2.562-0.604,3.386-1.813
		c0.822-1.209,1.233-2.626,1.233-4.251c0-1.354-0.41-2.625-1.23-3.811c-0.819-1.187-1.97-1.779-3.449-1.779
		c-1.049,0-1.939,0.331-2.675,0.993c-0.734,0.662-1.244,1.402-1.527,2.219c-0.283,0.818-0.425,1.633-0.425,2.445
		c0,0.898,0.142,1.778,0.425,2.641c0.283,0.862,0.796,1.638,1.539,2.324C73.351,54.987,74.258,55.331,75.332,55.331z M98.444,56.723
		c0.046,0.195,0.063,0.301,0.053,0.316c-0.817-0.126-1.582-0.133-2.295-0.022c-0.606-0.898-1.83-2.606-3.671-5.121
		c-1.841-2.516-3.226-4.369-4.153-5.563c-0.11,5.658-0.075,9.214,0.105,10.668c-0.105,0.005-0.274,0.003-0.508-0.005
		s-0.37-0.01-0.41-0.01c-0.768,0-1.267,0.018-1.497,0.053c0.165-0.958,0.253-3.459,0.263-7.499c0.011-4.039-0.077-6.578-0.263-7.617
		c1.088,0.025,1.723,0.03,1.903,0.015l0.361-0.038c3.405,4.58,5.996,8.056,7.771,10.428c0.11-5.327,0.075-8.813-0.105-10.458
		c0.803,0.115,1.217,0.173,1.242,0.173c0.186-0.005,0.602-0.065,1.249-0.181c-0.196,1.53-0.307,4.098-0.331,7.705
		C98.134,53.174,98.229,55.56,98.444,56.723z"/>
</g>
</svg>
