<svg xmlns="http://www.w3.org/2000/svg" width="64" height="65.561" viewBox="0 0 64 65.561"><path fill="#CB2327" d="M10.5 64c-5.789 0-10.5-4.71-10.5-10.5v-43c0-5.79 4.711-10.5 10.5-10.5h43.004c5.786 0 10.496 4.71 10.496 10.5v43c0 5.79-4.71 10.5-10.496 10.5h-43.004z"/><path fill="#fff" d="M19.593 64.561c-.089-2.21.45-8.771 1.017-11.175.608-2.57 4.073-17.248 4.073-17.248s-1.012-2.021-1.012-5.008c0-4.69 2.719-8.194 6.105-8.194 2.877 0 4.27 2.163 4.27 4.752 0 2.895-1.846 7.224-2.795 11.233-.792 3.358 1.683 6.096 4.995 6.096 5.997 0 10.036-7.702 10.036-16.828 0-6.938-4.671-12.129-13.169-12.129-9.603 0-15.585 7.16-15.585 15.158 0 2.758.813 4.702 2.088 6.207.586.692.666.971.455 1.766l-.646 2.54c-.21.802-.859 1.088-1.584.792-4.423-1.806-6.482-6.648-6.482-12.093 0-8.992 7.583-19.773 22.621-19.773 12.087 0 20.038 8.745 20.038 18.132 0 12.417-6.903 21.693-17.077 21.693-3.417 0-6.632-1.847-7.733-3.945 0 0-1.837 7.292-2.225 8.701-.672 2.441-3.189 8.422-4.39 10.324l-3-1.001z"/></svg>