<svg width="124" height="123" viewBox="0 0 124 123" xmlns="http://www.w3.org/2000/svg"><title>play</title><g fill="#000" fill-rule="evenodd"><path d="M62.08 122.925c33.797 0 61.197-27.414 61.197-61.23C123.273 27.88 95.88.468 62.085.468 28.282.468.882 27.874.882 61.698c0 33.813 27.4 61.227 61.2 61.227h-.002zm0-3.765c-31.72 0-57.433-25.728-57.433-57.464C4.647 29.96 30.36 4.232 62.08 4.232s57.432 25.724 57.432 57.464c0 31.736-25.713 57.464-57.427 57.464h-.004z"/><path d="M90.354 68.405L56.886 89.8c-7.025 4.487-12.71 1.38-12.71-6.928V37.685c0-8.32 5.7-11.407 12.706-6.927l33.47 21.394c7.02 4.488 7.008 11.77 0 16.25l.002.003z"/></g></svg>