<svg width="128" height="128" viewBox="0 0 128 128" xmlns="http://www.w3.org/2000/svg" xmlns:xlink="http://www.w3.org/1999/xlink"><title>play circle 63px</title><defs><path id="a" d="M0 63h63V0H0z"/></defs><g fill="none" fill-rule="evenodd"><circle fill-opacity="0" fill="#FFFFFF" cx="31.5" cy="31.5" r="31.5"/><path fill="#000" d="M45.25 31.5L23.595 17.72v27.56"/><mask id="b" fill="#fff"><use xlink:href="#a"/></mask><path d="M31.47 0C14.93 0 1.055 12.897.058 29.626-.978 46.99 12.26 61.908 29.627 62.943c.636.038 1.273.057 1.902.057 16.54 0 30.416-12.897 31.413-29.626C63.978 16.01 50.74 1.092 33.373.057 32.738.02 32.1 0 31.472 0m0 2.953c.573 0 1.155.017 1.73.052 3.847.23 7.533 1.204 10.956 2.9 3.307 1.636 6.232 3.873 8.694 6.647 2.462 2.774 4.335 5.944 5.568 9.422 1.276 3.6 1.807 7.376 1.577 11.225-.436 7.31-3.615 14.097-8.95 19.107-2.6 2.44-5.585 4.35-8.875 5.678-3.39 1.368-6.97 2.062-10.64 2.062-.573 0-1.154-.017-1.728-.052-3.85-.23-7.535-1.204-10.958-2.9-3.307-1.636-6.232-3.873-8.694-6.647-2.462-2.774-4.335-5.944-5.568-9.422-1.276-3.6-1.807-7.376-1.577-11.225.436-7.31 3.615-14.097 8.95-19.107 2.6-2.44 5.584-4.35 8.875-5.678 3.39-1.368 6.97-2.062 10.64-2.062" fill="#000"/></g></svg>
