<svg width="33" height="33" viewBox="0 0 33 33" xmlns="http://www.w3.org/2000/svg"><g fill="none" fill-rule="evenodd"><path d="M16.756 32.652c8.977 0 16.255-7.282 16.255-16.264C33.01 7.405 25.734.124 16.757.124 7.778.124.5 7.404.5 16.388c0 8.982 7.278 16.264 16.256 16.264zm0-1C8.33 31.652 1.5 24.818 1.5 16.388S8.33 1.124 16.756 1.124c8.425 0 15.255 6.833 15.255 15.264 0 8.43-6.83 15.264-15.254 15.264z" fill="#333"/><path d="M24.266 18.17l-8.89 5.683C13.51 25.045 12 24.22 12 22.013V10.01c0-2.21 1.514-3.03 3.375-1.84l8.89 5.683c1.865 1.192 1.862 3.126 0 4.316z" fill="#3A3A3A"/></g></svg>
