<svg width="50" height="50" viewBox="0 0 50 50" xmlns="http://www.w3.org/2000/svg"><title>Slice 1</title><path d="M45.712 11.435V0h-42v11.435H0V37.5h8.335V50h19.83c6.14 0 12.562-7.454 13.404-12.5H50V11.435h-4.288zm-19.166 36H11.538V30.77h26.924v5.515c0 7.488-7.424 4.17-7.424 4.17-3.153 0 3.297 6.98-4.492 6.98zm18.246-30.77c-.577 0-1.038-.46-1.038-1.038 0-.577.46-1.04 1.038-1.04.577 0 1.04.463 1.04 1.04s-.463 1.038-1.04 1.038zm-10.446 20.04h-18.96v-2.09h18.96v2.089zm-18.96 1.757v2.084h11.852v-2.084H15.385zM11.537 3.846h26.924v7.692H11.538V3.846z" fill="#000" fill-rule="evenodd"/></svg>
