<svg xmlns="http://www.w3.org/2000/svg" width="100" height="100" viewBox="0 0 100 100"><path d="M96.97 82.82c.287 3.876.406 7.465.358 10.751s-.088 4.929-.119 4.929h-95.417l-.096-4.929c-.096-3.286.008-6.875.311-10.751.303-3.876.837-6.396 1.603-7.576.542-.861 1.332-1.69 2.369-2.473 1.037-.781 2.369-1.547 3.996-2.312s3.134-1.436 4.522-2.01 3.246-1.324 5.575-2.233 4.195-1.643 5.599-2.217c6.349-2.616 10.272-4.402 11.771-5.359l.096-9.14-.383-.335c-.223-.223-.534-.622-.933-1.196-.398-.574-.805-1.276-1.22-2.089-.415-.813-.821-1.898-1.22-3.27-.398-1.372-.709-2.855-.933-4.45-1.021.287-2.042-.247-3.062-1.603-1.021-1.356-1.563-2.64-1.627-3.852-.032-.574-.016-1.252.048-2.034.064-.782.191-1.595.383-2.44s.511-1.515.957-2.01c.447-.495.989-.678 1.627-.55-.67-5.072-.925-8.422-.766-10.049.191-1.85.782-3.668 1.771-5.455.989-1.787 2.281-3.397 3.876-4.833 1.595-1.436 3.565-2.6 5.91-3.493s4.855-1.341 7.534-1.341c2.68 0 5.2.447 7.561 1.34 2.36.893 4.338 2.058 5.934 3.493 1.595 1.436 2.879 3.046 3.852 4.833.974 1.787 1.556 3.605 1.747 5.455.159 1.595-.096 4.945-.766 10.049.638-.127 1.18.056 1.627.55.446.495.766 1.165.957 2.01s.327 1.659.406 2.44c.08.782.088 1.459.024 2.034-.064 1.212-.606 2.496-1.627 3.852-1.021 1.356-2.042 1.89-3.062 1.603-.191 1.595-.495 3.086-.909 4.466-.415 1.388-.813 2.472-1.196 3.254-.383.781-.798 1.483-1.244 2.105-.447.622-.758 1.021-.934 1.18-.175.16-.311.271-.406.335l.096 9.14.813.479c.574.319 1.842.909 3.804 1.786 1.962.878 4.362 1.914 7.202 3.095 1.371.574 3.222 1.308 5.551 2.217 2.328.909 4.194 1.659 5.599 2.233 1.403.574 2.911 1.244 4.521 2.01 1.611.766 2.936 1.531 3.972 2.312 1.037.782 1.826 1.611 2.369 2.473.765 1.181 1.292 3.7 1.579 7.576z"/></svg>