<svg width="129" height="98" viewBox="0 0 129 98" xmlns="http://www.w3.org/2000/svg"><title>Shape</title><path d="M122.13 2.83l4.205 5.262c-17.043-.427-41.02 10.098-46.08 27.762 5.05-2.522 9.894-4 15.574-4 17.87 0 31.974 14.728 31.974 32.397 0 18.097-14.516 31.56-32.398 31.56-14.317 0-24.605-9.054-29.663-21.664h-.427c-3.57 12.402-16.194 21.452-29.23 21.665C14.832 95.81 2 78.555 2 58.37 2 26.605 30.407 1.574 61.544 2.82l4.2 5.263c-18.09-.427-40.178 9.462-46.07 27.76 4.626-2.303 9.68-3.995 14.933-3.995 12.207 0 22.51 6.315 28.615 16.84C69.954 21.54 92.046 2.815 120.23 2.815h1.886v.01l.014.004z" fill="#000" fill-rule="evenodd"/></svg>