<?xml version="1.0" encoding="utf-8"?>
<!-- Generator: Adobe Illustrator 13.0.0, SVG Export Plug-In . SVG Version: 6.00 Build 14948)  -->
<!DOCTYPE svg PUBLIC "-//W3C//DTD SVG 1.1//EN" "http://www.w3.org/Graphics/SVG/1.1/DTD/svg11.dtd">
<svg version="1.1" id="Layer_1" xmlns="http://www.w3.org/2000/svg" xmlns:xlink="http://www.w3.org/1999/xlink" x="0px" y="0px"
	 width="100px" height="100px" viewBox="0 0 100 100" enable-background="new 0 0 100 100" xml:space="preserve">
<g>
	<path d="M76.815,58.912l-0.662,0.069c1.092,0.187,2.026,0.709,2.805,1.567c0.778,0.86,1.236,1.905,1.376,3.136
		c0.14,1.44-0.197,2.724-1.01,3.85c-0.813,1.127-1.87,1.76-3.171,1.899l-1.638,0.174c0.836,0.302,1.545,0.871,2.125,1.707
		c0.581,0.837,0.929,1.812,1.046,2.927c0.139,1.463-0.14,2.753-0.836,3.867c-0.697,1.115-1.615,1.73-2.753,1.847l-13.064,1.324
		c-6.48,1.067-11.719,1.603-15.713,1.603c-2.253,0-4.396-0.128-6.428-0.384c-2.033-0.256-3.699-0.569-5-0.94
		c-1.301-0.372-2.619-0.749-3.955-1.132c-1.335-0.384-2.438-0.709-3.31-0.976c-0.871-0.268-1.899-0.431-3.083-0.488
		s-2.253,0.063-3.205,0.366V52.814c0-0.301,0.528-0.645,1.585-1.027c1.056-0.384,2.113-0.767,3.17-1.149
		c1.057-0.384,1.585-0.715,1.585-0.993l2.578-5.052c1.719-3.345,3.472-6.834,5.261-10.47c1.789-3.635,2.752-5.743,2.892-6.323
		c0.301-1.254,0.487-6.317,0.557-15.19l0.313-0.174c0.209-0.14,0.493-0.273,0.854-0.401c0.36-0.127,0.772-0.255,1.237-0.383
		c0.464-0.127,0.981-0.168,1.551-0.122c0.569,0.047,1.144,0.157,1.725,0.331c0.58,0.174,1.178,0.517,1.794,1.028
		c0.615,0.511,1.196,1.156,1.742,1.934c0.545,0.779,1.068,1.812,1.568,3.101c0.499,1.289,0.923,2.758,1.271,4.407
		c0.441,2.137,0.767,4.1,0.976,5.888c0.209,1.789,0.308,3.264,0.296,4.425c-0.012,1.162-0.104,2.207-0.279,3.136
		c-0.174,0.929-0.359,1.637-0.557,2.125c-0.198,0.488-0.424,0.9-0.68,1.237c-0.255,0.337-0.43,0.54-0.522,0.61
		c-0.093,0.069-0.174,0.116-0.244,0.139l2.997-0.035l21.008-2.16c1.277-0.116,2.416,0.296,3.414,1.237
		c0.999,0.94,1.573,2.137,1.725,3.588c0.151,1.452-0.168,2.741-0.958,3.867c-0.79,1.127-1.823,1.76-3.101,1.898l-6.306,0.628
		l0.034,0.243l7.909-0.801c1.463-0.162,2.764,0.221,3.902,1.149c1.138,0.93,1.782,2.125,1.934,3.589
		c0.15,1.463-0.239,2.764-1.168,3.901C79.475,58.134,78.278,58.772,76.815,58.912z"/>
</g>
</svg>
