<?xml version="1.0" encoding="utf-8"?>
<!-- Generator: Adobe Illustrator 13.0.0, SVG Export Plug-In . SVG Version: 6.00 Build 14948)  -->
<!DOCTYPE svg PUBLIC "-//W3C//DTD SVG 1.1//EN" "http://www.w3.org/Graphics/SVG/1.1/DTD/svg11.dtd">
<svg version="1.1" id="Layer_1" xmlns="http://www.w3.org/2000/svg" xmlns:xlink="http://www.w3.org/1999/xlink" x="0px" y="0px"
	 width="100px" height="100px" viewBox="0 0 100 100" enable-background="new 0 0 100 100" xml:space="preserve">
<g>
	<path d="M15.889,15.249c4.228-4.229,9.042-7.543,14.438-9.941c5.396-2.398,10.872-3.779,16.427-4.143
		c5.553-0.363,11.139,0.252,16.758,1.847c5.618,1.593,10.777,4.142,15.481,7.645L88.603,1l8.759,40.712l-40.712-8.758l10.51-10.509
		c-4.104-2.587-8.537-4.166-13.304-4.734c-4.765-0.568-9.468-0.063-14.107,1.515c-4.639,1.579-8.71,4.135-12.213,7.669
		c-3.094,3.062-5.436,6.588-7.031,10.581c-1.593,3.993-2.39,8.009-2.39,12.048c0,4.04,0.797,8.049,2.39,12.025
		c1.595,3.977,3.929,7.496,7.006,10.571c3.077,3.078,6.612,5.413,10.604,7.006c3.993,1.594,8,2.399,12.025,2.399
		c4.024,0,8.03-0.806,12.022-2.399c3.993-1.593,7.521-3.928,10.583-7.022c2.429-2.396,4.417-5.142,5.965-8.236l16.285,3.977
		c-2.462,5.997-5.998,11.299-10.604,15.905c-4.64,4.672-9.982,8.208-16.025,10.621C62.322,96.785,56.247,98,50.14,98
		c-6.108,0-12.182-1.215-18.227-3.63c-6.043-2.413-11.384-5.949-16.023-10.604C11.25,79.11,7.714,73.762,5.285,67.719
		C2.854,61.673,1.64,55.601,1.64,49.492c0-6.106,1.215-12.174,3.646-18.217C7.714,25.229,11.25,19.888,15.889,15.249z"/>
</g>
</svg>
