<svg xmlns="http://www.w3.org/2000/svg" width="100" height="100" viewBox="0 0 100 100"><path d="M15.889 15.249c4.228-4.229 9.042-7.543 14.438-9.941 5.396-2.398 10.872-3.779 16.427-4.143 5.553-.363 11.139.252 16.758 1.847 5.618 1.593 10.777 4.142 15.481 7.645l9.61-9.657 8.759 40.712-40.712-8.758 10.51-10.509c-4.104-2.587-8.537-4.166-13.304-4.734-4.765-.568-9.468-.063-14.107 1.515-4.639 1.579-8.71 4.135-12.213 7.669-3.094 3.062-5.436 6.588-7.031 10.581-1.593 3.993-2.39 8.009-2.39 12.048 0 4.04.797 8.049 2.39 12.025 1.595 3.977 3.929 7.496 7.006 10.571 3.077 3.078 6.612 5.413 10.604 7.006 3.993 1.594 8 2.399 12.025 2.399 4.024 0 8.03-.806 12.022-2.399 3.993-1.593 7.521-3.928 10.583-7.022 2.429-2.396 4.417-5.142 5.965-8.236l16.285 3.977c-2.462 5.997-5.998 11.299-10.604 15.905-4.64 4.672-9.982 8.208-16.025 10.621-6.044 2.414-12.119 3.629-18.226 3.629-6.108 0-12.182-1.215-18.227-3.63-6.043-2.413-11.384-5.949-16.023-10.604-4.64-4.656-8.176-10.004-10.605-16.047-2.431-6.046-3.645-12.118-3.645-18.227 0-6.106 1.215-12.174 3.646-18.217 2.428-6.046 5.964-11.387 10.603-16.026z"/></svg>