<svg xmlns="http://www.w3.org/2000/svg" width="100" height="100" viewBox="0 0 100 100"><path d="M3.342 37.233c0-4.652.902-9.087 2.708-13.31 1.806-4.222 4.239-7.864 7.298-10.923s6.701-5.491 10.923-7.297c4.223-1.807 8.658-2.708 13.31-2.708 4.619 0 9.042.901 13.265 2.708 4.222 1.805 7.847 4.238 10.877 7.297 3.062 3.059 5.491 6.701 7.3 10.923 1.805 4.223 2.706 9.117 2.706 14.687 0 5.604-1.744 11.187-5.232 16.756l30.108 26.85c.459.427.702.951.734 1.561.032.643-.184 1.178-.643 1.607l-10.783 10.785c-.432.459-.966.675-1.608.643-.61-.032-1.135-.275-1.561-.734l-26.805-30.063c-5.629 3.58-11.261 5.37-16.89 5.37s-10.556-.902-14.779-2.708c-4.223-1.807-7.865-4.236-10.923-7.298-3.059-3.029-5.492-6.655-7.298-10.878-1.805-4.222-2.707-8.648-2.707-13.268zm12.668 1.606c0 1.836.567 4.073 1.698 6.722 1.131 2.646 2.662 4.94 4.59 6.868s4.223 3.459 6.885 4.59c2.662 1.132 5.454 1.698 8.377 1.698 2.922 0 5.705-.566 8.354-1.698 2.646-1.131 4.933-2.662 6.861-4.59s3.458-4.222 4.591-6.868c1.13-2.649 1.696-5.428 1.696-8.35 0-2.924-.566-5.715-1.696-8.377-1.133-2.662-2.663-4.957-4.591-6.885-1.928-1.927-4.215-3.458-6.861-4.589-2.648-1.131-5.432-1.698-8.354-1.698-2.923 0-5.715.567-8.377 1.698-2.662 1.131-4.957 2.662-6.885 4.589-1.928 1.928-3.458 4.223-4.59 6.885-1.131 2.662-1.698 4.728-1.698 6.196v3.809z"/></svg>