<?xml version="1.0" encoding="utf-8"?>
<!-- Generator: Adobe Illustrator 13.0.0, SVG Export Plug-In . SVG Version: 6.00 Build 14948)  -->
<!DOCTYPE svg PUBLIC "-//W3C//DTD SVG 1.1//EN" "http://www.w3.org/Graphics/SVG/1.1/DTD/svg11.dtd">
<svg version="1.1" id="Layer_1" xmlns="http://www.w3.org/2000/svg" xmlns:xlink="http://www.w3.org/1999/xlink" x="0px" y="0px"
	 width="100px" height="100px" viewBox="0 0 100 100" enable-background="new 0 0 100 100" xml:space="preserve">
<g>
	<path d="M3.342,37.233c0-4.652,0.902-9.087,2.708-13.31c1.806-4.222,4.239-7.864,7.298-10.923
		c3.059-3.059,6.701-5.491,10.923-7.297c4.223-1.807,8.658-2.708,13.31-2.708c4.619,0,9.042,0.901,13.265,2.708
		C55.068,7.508,58.693,9.941,61.723,13c3.062,3.059,5.491,6.701,7.3,10.923c1.805,4.223,2.706,9.117,2.706,14.687
		c0,5.604-1.744,11.187-5.232,16.756l30.108,26.85c0.459,0.427,0.702,0.951,0.734,1.561c0.032,0.643-0.184,1.178-0.643,1.607
		L85.913,96.169c-0.432,0.459-0.966,0.675-1.608,0.643c-0.61-0.032-1.135-0.275-1.561-0.734L55.939,66.015
		c-5.629,3.58-11.261,5.37-16.89,5.37s-10.556-0.902-14.779-2.708c-4.223-1.807-7.865-4.236-10.923-7.298
		c-3.059-3.029-5.492-6.655-7.298-10.878C4.244,46.279,3.342,41.853,3.342,37.233z M16.01,38.839c0,1.836,0.567,4.073,1.698,6.722
		c1.131,2.646,2.662,4.94,4.59,6.868s4.223,3.459,6.885,4.59c2.662,1.132,5.454,1.698,8.377,1.698c2.922,0,5.705-0.566,8.354-1.698
		c2.646-1.131,4.933-2.662,6.861-4.59s3.458-4.222,4.591-6.868c1.13-2.649,1.696-5.428,1.696-8.35c0-2.924-0.566-5.715-1.696-8.377
		c-1.133-2.662-2.663-4.957-4.591-6.885c-1.928-1.927-4.215-3.458-6.861-4.589c-2.648-1.131-5.432-1.698-8.354-1.698
		c-2.923,0-5.715,0.567-8.377,1.698c-2.662,1.131-4.957,2.662-6.885,4.589c-1.928,1.928-3.458,4.223-4.59,6.885
		c-1.131,2.662-1.698,4.728-1.698,6.196C16.01,35.735,16.01,37.003,16.01,38.839z"/>
</g>
</svg>
