<svg xmlns="http://www.w3.org/2000/svg" width="100" height="100" viewBox="0 0 100 100"><path d="M97.746 51.26c.222.253.301.464.229.631-.069.167-.271.25-.605.25h-14.882v38.897c0 .336-.12.615-.355.84-.239.222-.525.334-.859.334h-12.955v-27.077c0-.336-.11-.615-.334-.838-.225-.224-.504-.337-.838-.337h-11.779c-.334 0-.613.113-.838.337-.225.223-.337.502-.337.838v27.077h-36.465c-.335 0-.615-.112-.838-.334-.225-.225-.335-.504-.335-.84v-38.897h-14.922c-.335 0-.539-.083-.609-.25-.069-.167.007-.378.231-.631l47.449-44.305c.838-.223 1.369-.223 1.592 0l12.532 11.694v-3.437c0-.335.112-.614.337-.838.222-.224.501-.335.838-.335h15.298c.337 0 .616.111.841.335.222.224.334.502.334.838v19.911l17.27 16.137zm-55.497 25.654v-11.779c0-.336-.113-.615-.335-.838-.224-.224-.502-.337-.838-.337h-11.779c-.309 0-.581.113-.818.337-.238.223-.357.502-.357.838v11.779c0 .306.119.578.357.816.237.236.509.355.818.355h11.778c.335 0 .614-.119.838-.355.223-.238.336-.51.336-.816z"/></svg>