<svg xmlns="http://www.w3.org/2000/svg" width="100" height="100" viewBox="0 0 100 100"><path d="M16.98 48.618c-.048-.21-.07-.353-.07-.431l.022-.287c.018-.114.066-.209.144-.305.081-.096.202-.173.36-.239.67-.413 1.039-.781 1.102-1.101.033-.125-.048-.207-.24-.24-.607-.095-.924-.302-.957-.622-.033-.158.062-.287.287-.383.67-.32 1.307-.479 1.915-.479.096 0 .335-.173.718-.526.383-.35.703-.56.958-.622.158-.062.294-.225.405-.457.114-.239.169-.457.169-.648v-.335c.32-1.116.574-1.771.766-1.963.191-.128.328-.128.405 0 .082.129.21.295.383.504.176.206.361.295.552.262.32-.033.781-.159 1.389-.383.191-.062.35-.055.479.026.128.078.287.07.479-.026.159-.033.357-.11.6-.239.239-.129.405-.199.501-.214.096-.019.272.007.526.07.225.096.423.265.6.504.173.239.357.534.549.884.191.35.335.589.431.718.191.225.32.56.383 1.009.062.445.158.732.287.861l.191.191.191.21.144.236c.062.113.121.242.169.383l.166.512c.096.383.375.703.839.957.461.258.693.497.693.718 0 1.819-.096 2.92-.287 3.303-.033.066-.28.225-.741.497-.463.27-.729.527-.791.752-.254.7-.829 1.355-1.724 1.959-.637.287-1.094.448-1.362.494-.272.051-.538-.031-.792-.252-.096-.095-.225-.367-.383-.816-.159-.449-.35-.715-.574-.812-.383-.095-.744-.286-1.079-.56-.335-.271-.549-.574-.645-.928-.096-.349-.287-.556-.575-.622-.287-.062-.542.018-.766.239-.479.353-.751.593-.814.718-.225.578-.78.496-1.675-.24-2.106-.699-3.193-1.292-3.255-1.771 0-.124-.025-.3-.073-.506zm8.403-38.462l.479-.861-.192-1.868c-.128-.928.254-1.532 1.149-1.819.287-.128.718-.479 1.292-1.053.575-.575 1.086-1.053 1.532-1.437.446-.383.766-.449.958-.191.383.316.589.979.622 1.984.034 1.005-.11 1.558-.431 1.654-.637.287-.957.732-.957 1.34 0 .288-.062.52-.192.692-.128.177-.416.417-.862.718l-.813.552c-.159.126-.32.31-.479.549l-.383.574c-.095.144-.232.247-.405.313-.177.062-.361-.033-.552-.287l-.766-.86zm.67 5.026l.287-.526c.096-.162.328-.247.696-.265.365-.015.548-.166.548-.453 0-.287.082-.438.24-.457.159-.015.383.055.67.217l.383.144c.191.096.32.088.383-.026.062-.11.121-.39.169-.835.048-.449.118-.847.214-1.197.192-.737.446-.785.766-.144.033.096.096.239.191.431l.287.622c.192.221.313.494.361.813.048.317.056.589.022.814-.033.222-.096.549-.191.979-.096.431.015.767.335 1.005.32.239.655.361 1.005.361.254-.192.313-.52.169-.983-.144-.46-.36-.95-.647-1.458-.096-.258-.015-.552.239-.888.254-.335.335-.615.239-.836-.287-.799-.224-1.484.192-2.059.191-.191.438-.32.744-.383.302-.066.67-.096 1.101-.096s.755-.033.979-.096c.287-.095.383-.184.287-.264-.096-.078-.247-.232-.453-.454-.21-.225-.28-.431-.217-.622.033-.225.103-.457.217-.696.11-.239.191-.461.239-.67.048-.207.056-.472.023-.789v-.191c-.034-.225-.041-.354-.023-.383.015-.033.071-.033.166 0 .254.063.494.096.718.096.32 0 .526-.066.622-.191.096-.129.111-.295.048-.505-.062-.203-.047-.436.049-.69.062-.258.206-.623.431-1.102.225-.478.368-.847.431-1.101.095-.354.246-.582.456-.696.207-.11.438-.07.692.122.254.35 1.164.67 2.729.957.512.125 1.834.062 3.973-.191.162 0 .32-.033.479-.096.162-.066.287-.128.383-.192l.431-.265.527-.309c.607-.288 1.277-.096 2.011.574.191.126.294.269.313.431.015.158 0 .317-.048.479l-.192.67c-.081.288-.136.556-.169.813-.03.446-.062.733-.096.862-.029.125-.143.262-.335.405-.191.144-.365.313-.527.504-.158.221-.412.556-.766 1.005-.35.446-.645.814-.884 1.101s-.408.527-.504.718c-.03.192-.199.342-.501.453l-.766.288c-.209.081-.265.198-.169.36l.409.453c.015.018-.055.217-.217.6-.033.063-.144.239-.335.526-.192.288-.335.589-.431.91v.262s.062.073.191.073.247-.018.361-.047l.501-.122c.225-.048.431-.07.623-.07.32-.033.567-.136.744-.313.173-.173.405-.262.692-.262.258 0 .622.119 1.101.358s.847.375 1.102.409c.191.029.526-.019 1.006-.144.478-.128.927-.081 1.34.144.287.125.589.166.912.118.317-.048.546-.088.693-.118.14-.033.36-.114.648-.24.286-.128.521-.209.714-.239.448-.129.751-.144.913-.048.154.096.317.335.479.718l.096.191c.059.125.229.383.501.766s.449.7.522.957c.081.254.114.527.074.813-.096.288-.339.575-.744.862-.396.287-.641.479-.736.575-.133.128-.229.471-.287 1.028-.066.559-.162.95-.287 1.174-.066.096-.14.512-.221 1.245-.074.733-.324 1.164-.737 1.293-.354.128-.641.368-.861.718-.229.35-.376.637-.457.862s-.198.623-.36 1.197c-.096.512-.456 1.116-1.075 1.819-.626.703-.936 1.067-.936 1.101-.065.225.141.501.597.836.464.335.678.567.648.696 0 .192-.214.376-.648.549-.427.177-.868.313-1.314.409l-.67.144-.048.07-.143.122-.214.213-.24.265c-.081.096-.143.191-.191.287l-.144.31c-.048.114-.073.21-.073.287 0 .081.025.162.073.24.048.081.118.154.214.217.225.191.471.239.744.143.269-.096.494-.239.67-.431.173-.191.372-.398.6-.622.221-.225.397-.369.523-.431.257-.128.823.062 1.701.574.876.512 1.348.767 1.414.767.125 0 .221.11.286.335.06.224.155.383.288.479.221.129.516.368.884.718.367.35.566.622.596.813 0 .129.096.309.288.549.191.242.383.456.573.647l.288.287c.711.766 1.123 1.532 1.249 2.298.095.575.322 1.51.67 2.802.353 1.292.574 2.037.67 2.228.516 1.278.766 2.202.766 2.776 0 .32.272.575.817.784.537.206 1.017.317 1.437.317l.331-.03c.162-.018.272-.018.339 0l.25.096c.118.048.229.143.324.269.06.066.177.225.331.479.163.257.303.464.435.622.125.162.303.32.523.497.228.173.449.269.67.269.324.066.479.272.479.623 0 .354.015.641.051.861.06.129.235.335.523.638.287.301.53.589.722.861.19.272.235.529.14.75-.096.192-.272.244-.509.148-.242-.097-.353-.066-.353.096-.06.316.11.935.545 1.863.427.927.861 1.502 1.274 1.724.382.257.589.478.641.685.044.206-.081.367-.398.464-.449.162-.449.658 0 1.491.096.221.303.383.619.479.324.096.493.251.529.479.03.317.222.619.575.921l.574.516c.155.191.221.463.206.811-.015.354-.206.766-.589 1.244-.449.545-.707 1.149-.751 1.819-.052.67.161 1.163.604 1.486.132.061.243.097.354.097l.272-.036c.06-.016.125-.045.191-.111l.141-.191.066-.235.044-.243c.021-.06.036-.206.036-.427.03-.229.191-.339.494-.339.302 0 .464-.06.464-.191 0-.06.029-.126.11-.192.081-.059.206-.125.383-.176.177-.045.332-.074.479-.096.14-.015.354-.045.619-.096l.655-.11c.516-.061.848-.015 1.023.146.177.155.354.479.509.957.096.192.191.317.287.398.096.08.176.11.243.08l.044-.051 1.149.479c.161.096.161.177 0 .243-.317.125-.332.347-.046.67.192.222.465.347.812.383.287.03.479.06.589.11.117.045.191.11.243.177.044.06.14.178.287.332.141.161.331.339.56.53.347.316.574.67.671 1.068.095.396.095.78 0 1.133-.097.347-.259.686-.479 1.002-.132.229-.288.626-.479 1.216-.191.589-.384.973-.575 1.134-.323.287-.67.751-1.038 1.385-.368.641-.574 1.2-.641 1.679-.06.987-.604 1.179-1.627.574-.317-.19-.479-.051-.479.428-.03.287 0 .493.095.626.096.125.096.287 0 .493-.095.207-.286.428-.574.656-.286.221-.604.396-.957.522-.729.229-.589.655.434 1.296l.428.236c.162.132.56.206 1.215.242.655.029 1.289.029 1.9 0l.861-.052c0 .42-.11.736-.338.958-.029.132.051.465.257 1.009.207.538.273.892.178 1.053-.133.191-.56.332-1.281.428-.716.096-1.127.177-1.261.242-.221.126-.441.494-.67 1.113-.221.625-.441.979-.67 1.038-.221.066-.538.258-.942.59-.397.338-.766.53-1.112.56-.258.036-.479.081-.655.161-.177.081-.383.206-.626.384-.236.176-.442.316-.634.412-.229.132-.435.191-.625.214-.192.015-.348 0-.479-.067l-.464-.271c-.17-.111-.331-.191-.494-.258l-.331-.126-.383-.146-.338-.096c-.156-.045-.288-.06-.369-.06h-.301c-.127 0-.252.015-.384.045-.25.096-.589.065-.987-.081-.397-.14-.641-.206-.736-.206-.25 0-.634.228-1.148.67-.509.448-.781.67-.811.67-.036 0-.146-.073-.339-.236-.191-.161-.441-.302-.751-.434-.302-.126-.589-.155-.876-.097-.251.133-.383.303-.368.53.021.222.117.428.272.619l.191.339c0 .125-.236.331-.715.619-.479.286-.847.368-1.104.242-.251-.125-.699-.338-1.34-.611-.634-.265-1.068-.456-1.289-.589l-.229-.096-.235-.044h-.188l-.17.015-.14.044-.169.096-.147.104-.14.096c-.081.044-.118.096-.118.125l-.242.287-.31.383c-.081.096-.191.177-.339.25-.141.082-.259.134-.354.134l-.816-.317c-.449-.177-.766-.272-.958-.309-.125-.029-.265.066-.405.309-.146.235-.265.347-.36.317-.096-.03-.295-.178-.597-.435-.302-.252-.582-.465-.839-.619-.354-.288-.773-.479-1.268-.574-.497-.096-.791-.052-.887.14-.062.132-.221.191-.479.214-.254.015-.575.029-.958.029s-.733.066-1.053.191c-.924.25-1.388 1.054-1.388 2.394 0 .353-.177.699-.526 1.054-.35.353-.527.588-.527.714 0 .354-.479.53-1.436.53-.129 0-.302-.082-.526-.222-.225-.146-.501-.338-.836-.574-.335-.242-.648-.419-.935-.545-.287-.096-.645-.147-1.075-.147-.431 0-.862.022-1.292.066-.431.052-.681.081-.744.081-.703 0-1.116.236-1.245.715-.033.133-.159.243-.383.339-.225.095-.52.176-.884.258l-.6.125c-.192.096-.406.412-.645.957-.24.545-.376.848-.409.906l-.096.052c-.67.545-1.101.523-1.292-.052-.129-.251-.272-.428-.431-.508-.158-.081-.302-.081-.431-.016-.129.066-.225.141-.288.236-.095.162-.405.214-.932.147s-.825-.192-.887-.384c-.158-.221-.151-.529.025-.913.174-.383.391-.67.645-.861.159-.154.623-.398 1.389-.699.766-.303 1.292-.561 1.58-.781.191-.126.35-.258.479-.383.128-.125.224-.273.287-.413l.122-.309.096-.413c.048-.205.085-.331.118-.397.033-.221.199-.397.504-.508.302-.118.582-.147.836-.118h.383c.191-.316.512-.655.958-.986.446-.339.847-.574 1.197-.736.159-.097.239-.222.239-.383 0-.155-.022-.413-.07-.751-.048-.332-.059-.648-.026-.973.033-.383.232-.67.6-.861.365-.192.74-.317 1.123-.384.383-.059.589-.11.622-.14.063-.036.074-.161.026-.368l-.169-.671c-.062-.242-.048-.493.048-.78.095-.191.582-.303 1.462-.339.876-.029 1.944-.015 3.207.052l2.033.096c.225 0 .409-.015.552-.036.144-.015.269-.045.383-.097l.214-.096.217-.154c.11-.096.199-.162.261-.191.192-.133.328-.303.409-.516.077-.206.118-.383.118-.538l-.048-.19c-.062-.133-.232-.133-.501 0-.272.125-.582.286-.936.492-.35.207-.604.332-.766.369-.191 0-.582-.206-1.171-.626-.593-.413-1.208-.876-1.845-1.37-.637-.493-1.021-.766-1.149-.832-.158-.096-.416-.081-.766.066-.351.141-.711.316-1.076.522-.368.214-.6.339-.696.368-.096.037-.129-.095-.096-.383l.24-1.48-.048-.146c-.062-.251-.247-.398-.549-.413-.306-.015-.471-.081-.504-.191s-.088-.191-.166-.258c-.081-.06-.21-.14-.383-.221-.177-.081-.313-.162-.408-.258-.192-.191-.454-.177-.789.066-.335.235-.504.479-.504.7 0 .228-.199.434-.597.641-.401.205-.744.315-1.031.315-.383 0-.876-.286-1.484-.86-.158-.191-.192-.494-.096-.893.096-.396.096-.625 0-.685 0-.036-.07-.096-.214-.177-.144-.08-.258-.161-.335-.242-.081-.074-.114-.192-.096-.332.015-.146.118-.302.31-.494.191-.19.445-.338.766-.418.32-.075.663-.127 1.031-.142l.597-.015c.095-.036.158-.161.191-.367.033-.207.207-.369.527-.494.512-.258 1.093-.61 1.749-1.038.652-.435 1.09-.78 1.314-1.068.158-.257.486-.626.983-1.089.494-.457.932-.841 1.315-1.164l.622-.523c-.445-1.09-.942-2.01-1.483-2.776-.225-.383-.406-.611-.549-.67-.144-.066-.258-.081-.335-.037-.081.052-.265.229-.552.516-.32.25-.71.288-1.171.096-.464-.191-.777-.449-.935-.766-.096-.191-.015-.354.239-.479.254-.132.534-.257.839-.367.302-.111.453-.222.453-.354 0-.384.589-.987 1.771-1.819.129-.125.144-.191.048-.191-.766.066-1.277-.015-1.532-.236-.254-.228-.328-.478-.214-.751.111-.271.295-.509.549-.736l.431-.332h1.724c.287.126.622.192 1.005.192.159 0 .351-.051.575-.133l.457-.14c.078-.016.213.029.405.125.062.036.169.111.313.243.144.125.269.221.383.302.111.08.229.141.357.177.129.03.225-.036.288-.191.383-.419 1.038-.626 1.962-.626.162 0 .305-.081.431-.235.129-.162.225-.303.287-.435l.048-.236c.287-.191.615-.928.983-2.202.365-1.285.548-2.419.548-3.405 0-.641-.022-1.083-.07-1.325-.048-.237-.151-.369-.313-.398-.158-.029-.383-.015-.67.051-.383.06-.807-.242-1.267-.897-.464-.655-.726-1.179-.792-1.595-.096-1.02-.383-1.786-.862-2.298-.125-.191-.221-.383-.287-.574-.063-.191-.056-.398.025-.622l.166-.479c.033-.096.137-.288.313-.575.173-.287.28-.445.31-.479.066-.191.225-.526.479-1.005.416-.703.497-1.053.239-1.053-.096 0-.239.033-.431.096-.67.255-1.547.383-2.633.383s-1.756-.158-2.01-.479c-.191-.159-.287-.062-.287.288-.062.99-.192 1.58-.383 1.771-.129.096-.287.144-.479.144-.479 0-1.204-.096-2.176-.287-.976-.192-1.558-.269-1.749-.24-.254.033-.534-.35-.836-1.148-.306-.799-.409-1.451-.312-1.966.095-.542.559-1.421 1.388-2.633.829-1.211 1.499-1.996 2.011-2.346.158-.128.239-.262.239-.405 0-.144-.081-.32-.239-.527-.159-.209-.32-.394-.479-.552-.158-.158-.335-.32-.526-.479-.191-.159-.302-.272-.335-.335-.129-.096-.184-.335-.166-.718.015-.383.047-.703.095-.958s.037-.416-.025-.479l-1.484-.335-.957.67c-.254.254-.32.446-.192.575.32.287.719.876 1.197 1.771.479.895.589 1.451.335 1.675-.096.192-.199.302-.31.335-.114.033-.239 0-.383-.096-.144-.096-.272-.207-.383-.335-.114-.129-.28-.335-.505-.623-.512-.67-.895-.35-1.149.958l-.095.574c-.033.416-.35.663-.958.744-.607.078-1.054.022-1.34-.169-.159-.096-.144-.446.048-1.053.191-.608.409-1.237.648-1.892.239-.653.324-1.062.262-1.22-.159-.416-.033-.829.383-1.245.128-.159.136-.35.025-.574-.114-.225-.25-.445-.408-.67l-.287-.335c-.225-.225-.454-.111-.693.335s-.479.972-.718 1.58c-.24.607-.442.942-.601 1.005-.798.417-1.307.431-1.532.048-.225-.383-.32-.839-.287-1.366.033-.527.111-.932.239-1.219.096-.159.936-.71 2.515-1.653 1.58-.939 2.401-1.554 2.463-1.841 0-.096.055-.328.169-.696l.335-1.149c.11-.397.207-.795.288-1.197.077-.397.103-.718.07-.958-.033-.239-.128-.357-.287-.357-.225.062-.464.368-.718.909-.254.542-.549 1.068-.884 1.58s-.71.781-1.127.814c-1.115.095-1.738-.063-1.867-.479-.033-.191.081-.383.335-.574.225-.159.32-.361.287-.6-.033-.239-.11-.438-.239-.597-.128-.159-.262-.369-.405-.622-.144-.254-.232-.479-.265-.671-.033-.32 0-.534.096-.648.096-.11.254-.228.479-.357s.398-.32.527-.575c.128-.35.423-.718.887-1.101.46-.383.74-.766.836-1.149.096-.417-.144-.854-.718-1.318-.575-.46-1.039-.692-1.389-.692-.191 0-.541-.28-1.053-.839-.512-.556-.877-.851-1.102-.884-.158-.033-.357-.184-.6-.457-.235-.269-.438-.549-.596-.836l-.239-.383-.097-.099z"/></svg>