<svg xmlns="http://www.w3.org/2000/svg" width="100" height="100" viewBox="0 0 100 100"><path d="M2.5 90.088h96v4.527h-96v-4.527zm.354-77.137v-5.548h4.528v5.548h-4.528zm0 11.806v-5.548h4.528v5.548h-4.528zm0 11.85v-5.548h4.528v5.548h-4.528zm0 11.806v-5.415h4.528v5.415h-4.528zm0 11.939v-5.549h4.528v5.549h-4.528zm0 11.805v-5.503h4.528v5.503h-4.528zm0 6.303h4.528v5.548h-4.528v-5.548zm14.203 4.35v-26.275h22.546v26.275h-22.546zm27.384 0v-49.354h22.324v49.354h-22.324zm27.295 0v-78.426h22.413v78.426h-22.413z"/></svg>