<svg xmlns="http://www.w3.org/2000/svg" width="100" height="100" viewBox="0 0 100 100"><path d="M20.932 50.516l22.958 4.592 4.592 22.962-32.142 13.775-4.591 4.592c-.128.127-.303.287-.526.478-.223.191-.678.463-1.363.813s-1.379.59-2.081.718c-.701.127-1.53.031-2.487-.271s-1.866-.877-2.727-1.737c-.861-.861-1.443-1.77-1.746-2.711-.303-.94-.375-1.785-.215-2.535.16-.749.383-1.419.669-2.024.287-.605.574-1.084.861-1.435l.43-.479 4.592-4.592 13.776-32.146zm4.592 29.466c1.786 0 3.316-.638 4.592-1.913 1.275-1.275 1.913-2.806 1.913-4.592 0-1.785-.638-3.315-1.913-4.591-1.276-1.276-2.806-1.914-4.592-1.914s-3.308.638-4.568 1.914c-1.259 1.275-1.889 2.806-1.889 4.591 0 1.786.63 3.316 1.889 4.592 1.26 1.276 2.782 1.913 4.568 1.913zm64.981-78.257c1.354.67 2.646 1.626 3.89 2.87 1.244 1.243 2.217 2.542 2.902 3.898.686 1.355 1.067 2.615 1.147 3.778.08 1.164.016 2.296-.175 3.396s-.511 2.081-.957 2.942c-.446.861-.877 1.626-1.291 2.295-.415.67-.798 1.18-1.148 1.531l-.479.526-13.774 13.775-22.959 22.967-18.362-18.375c12.244-12.244 19.893-19.897 22.954-22.958l13.775-13.775c.127-.128.318-.295.558-.502s.733-.566 1.483-1.076c.749-.51 1.515-.957 2.312-1.339.797-.382 1.785-.693 2.949-.933s2.312-.303 3.443-.191c1.133.111 2.376.502 3.732 1.171z"/></svg>