<svg xmlns="http://www.w3.org/2000/svg" width="100" height="100" viewBox="0 0 100 100"><path d="M2.5 46.124c0-2.504.355-4.921 1.067-7.252.712-2.332 1.505-3.498 2.378-3.498h6.098c1.333-3.123 3.273-5.995 5.823-8.613-.046-.575-.31-1.114-.792-1.619-.483-.506-1.016-.931-1.603-1.275-.585-.345-1.165-.734-1.74-1.171-.573-.437-.976-.861-1.206-1.275-.229-.413-.229-.953 0-1.619.345-.919 1.309-1.39 2.894-1.413 1.586-.023 3.216.212 4.893.706 1.676.494 3.284 1.096 4.823 1.809 3.308-2.136 7.017-3.778 11.128-4.927 4.111-1.148 8.429-1.723 12.954-1.723 4.962 0 9.725.723 14.294 2.171 4.57 1.447 8.58 3.422 12.025 5.925 3.444 2.504 6.316 5.49 8.612 8.958 2.298 3.468 3.732 7.154 4.307 11.059 1.148-.437 2.269-1.257 3.358-2.463 1.093-1.207 1.952-2.395 2.585-3.566.632-1.171 1.269-2.205 1.911-3.101.644-.896 1.173-1.321 1.585-1.275.391.069.592.609.604 1.62.012 1.01-.201 2.302-.637 3.875-.438 1.573-1.04 3.215-1.81 4.927-.77 1.71-1.854 3.417-3.255 5.127-1.401 1.712-2.952 3.089-4.652 4.123-.664 3.284-1.946 6.397-3.842 9.349-1.894 2.951-4.289 5.604-7.183 7.947.139 1.884.189 4.043.154 6.489-.033 2.444-.166 3.928-.395 4.432-.047.069-.184.311-.414.725-.23.412-.391.688-.482.838-.092.149-.281.413-.569.792-.287.379-.545.654-.774.814-.229.162-.558.369-.981.633-.425.264-.862.46-1.31.585-.447.127-.992.242-1.638.346-.643.104-1.33.16-2.066.16-1.446 0-2.75-.172-3.91-.516-1.159-.347-2.085-.794-2.772-1.333-.689-.539-1.224-1.057-1.603-1.563-.379-.504-.648-.998-.811-1.48-.137-.32-.217-1.251-.24-2.79-3.513.734-6.877 1.102-10.092 1.102-3.628 0-7.292-.424-10.99-1.273-.023 1.629-.092 2.618-.208 2.962-.114.459-.355.941-.723 1.459-.368.517-.884 1.046-1.55 1.585-.667.539-1.58.986-2.74 1.333-1.16.344-2.463.516-3.91.516-1.171 0-2.217-.127-3.136-.379-.918-.252-1.63-.517-2.135-.782-.505-.264-.988-.676-1.447-1.25-.459-.574-.752-.989-.878-1.229-.127-.242-.339-.654-.638-1.252-.597-.919-.667-4.777-.206-11.575-3.675-3.032-6.478-6.649-8.407-10.854h-6.303c-.873 0-1.666-1.262-2.378-3.776-.712-2.517-1.067-5.022-1.067-7.525zm31.662-19.242c-.253.701-.207 1.349.138 1.946.368.666.884 1.114 1.551 1.343.665.229 1.309.173 1.928-.172.299-.138.914-.397 1.844-.775.93-.379 2.458-.828 4.582-1.344 2.125-.517 4.106-.775 5.944-.775.826 0 1.671.052 2.532.154.861.104 1.647.236 2.36.397.711.161 1.397.345 2.064.551.664.207 1.262.408 1.79.603.529.195.988.379 1.379.552.391.172.705.315.947.43.241.116.374.173.396.173.598.367 1.264.441 1.999.224.734-.218 1.24-.637 1.516-1.257.367-.575.447-1.241.24-1.999-.252-.757-.643-1.263-1.17-1.515l-.862-.431c-.344-.172-1.021-.459-2.031-.861-1.012-.402-2.028-.757-3.051-1.068-1.021-.31-2.275-.585-3.77-.827-1.493-.241-2.939-.362-4.34-.362-2.274 0-4.623.293-7.046.879-2.423.585-4.232 1.131-5.426 1.636-1.195.505-1.883.838-2.067.999-.712.299-1.195.798-1.447 1.499z"/></svg>