<?xml version="1.0" encoding="utf-8"?>
<!-- Generator: Adobe Illustrator 13.0.0, SVG Export Plug-In . SVG Version: 6.00 Build 14948)  -->
<!DOCTYPE svg PUBLIC "-//W3C//DTD SVG 1.1//EN" "http://www.w3.org/Graphics/SVG/1.1/DTD/svg11.dtd">
<svg version="1.1" id="Layer_1" xmlns="http://www.w3.org/2000/svg" xmlns:xlink="http://www.w3.org/1999/xlink" x="0px" y="0px"
	 width="100px" height="100px" viewBox="0 0 100 100" enable-background="new 0 0 100 100" xml:space="preserve">
<g>
	<path d="M1.5,53.233c5.046-0.325,8.862-0.577,11.45-0.757c0.293-0.032,0.599-0.13,0.916-0.293c0.317-0.162,0.5-0.309,0.549-0.439
		c0.163-0.276,0.236-0.415,0.22-0.415c0.065-0.016,0.154,0.106,0.269,0.366c0,0.049,0.008,0.09,0.024,0.122
		c0.504,1.303,0.439,2.537-0.195,3.709c-0.375,0.781-1.64,1.367-3.797,1.767c-2.156,0.398-4.228,0.602-6.213,0.602H1.744
		l2.393-2.515L1.5,53.233z M4.259,43.808c1.318,1.351,2.995,2.566,5.029,3.64c0.732,0.423,1.526,0.838,2.38,1.253
		s1.453,0.716,1.794,0.895c0.342,0.18,0.521,0.318,0.537,0.416c0.049,0.357-0.041,0.602-0.269,0.731
		c-0.228,0.131-0.716,0.253-1.465,0.366C9.858,51.5,8.23,51.614,7.384,51.451c-0.081-0.032-0.183-0.081-0.305-0.138
		c-0.122-0.058-0.342-0.188-0.659-0.391c-0.317-0.204-0.598-0.415-0.842-0.644c-0.244-0.228-0.472-0.521-0.684-0.871
		c-0.211-0.35-0.326-0.7-0.342-1.058L4.259,43.808z M6.041,43.075c0.114-0.032,0.562-0.098,1.343-0.195
		c1.644-0.276,3.996-0.562,7.056-0.854c3.06-0.293,4.646-0.366,4.761-0.22c0.195,0.293,0.285,1.099,0.269,2.417
		c0,0.293-0.021,0.627-0.061,1.001c-0.041,0.375-0.085,0.678-0.134,0.906l-0.073,0.342c-0.635-0.082-1.465-0.122-2.49-0.122
		c-0.635,0-1.392,0.122-2.271,0.374c-0.879,0.252-1.481,0.497-1.807,0.725c-0.504,0.276-2.555-0.944-6.152-3.665
		C5.976,43.393,5.83,43.157,6.041,43.075z M16.503,32.687c-0.057-0.578,0.228-1.225,0.854-1.941
		c0.626-0.716,1.607-1.318,2.942-1.807c1.253-0.488,3.137-1.079,5.652-1.77c2.515-0.692,5.09-1.266,7.727-1.721
		c3.451-0.603,6.861-0.887,10.23-0.854c3.369,0.032,5.615,0.423,6.738,1.172c0.049,0.032,0.118,0.081,0.207,0.146
		c0.09,0.065,0.232,0.224,0.428,0.476c0.195,0.252,0.338,0.529,0.428,0.83c0.089,0.301,0.105,0.7,0.049,1.196
		c-0.058,0.496-0.232,1.029-0.525,1.599c-0.082,0.146-0.203,0.398-0.366,0.757c-2.604,0.488-4.395,1.685-5.371,3.589
		c-0.277,0.846-0.391,1.636-0.342,2.368c-1.97-1.139-3.85-1.595-5.64-1.367c-1.009,0.13-1.49,0.749-1.441,1.855
		c0.033,1.058,0.456,1.855,1.27,2.393c0.456,0.293,0.944,0.383,1.465,0.269c1.155-0.163,1.973-0.244,2.454-0.244
		c0.48,0,1.099,0.078,1.855,0.232c0.757,0.155,1.192,0.232,1.306,0.232c1.025,3.418,0.822,6.602-0.61,9.548
		c-0.065,0.114-0.183,0.326-0.354,0.643c-0.171,0.318-0.322,0.619-0.452,0.896c-0.13,0.277-0.22,0.505-0.269,0.684
		c-0.928-0.781-2.425-1.172-4.492-1.172c-2.54,0-4.79,0.562-6.751,1.685c-1.961,1.123-2.934,2.448-2.917,3.978
		c0.016,1.14,0.249,1.953,0.696,2.45c0.448,0.496,1.046,0.699,1.794,0.61c0.749-0.09,1.51-0.261,2.283-0.521
		c0.773-0.26,1.607-0.553,2.502-0.87c0.896-0.317,1.595-0.48,2.1-0.497c2.181-0.081,3.776,0.065,4.785,0.439
		c0.391,2.067,1.001,3.825,1.831,5.274c-0.163,0.179-0.432,0.406-0.806,0.684c-1.058,0.765-2.633,1.416-4.724,1.953
		c-2.092,0.537-3.74,0.699-4.944,0.488c-1.025-0.18-2.238-0.822-3.638-1.921c-1.399-1.099-2.75-2.263-4.053-3.499
		c-1.302-1.237-2.213-1.994-2.734-2.271c-0.521-0.244-1.103-0.765-1.746-1.554c-0.643-0.79-1.245-1.718-1.807-2.783
		c-0.562-1.064-0.985-2.269-1.27-3.62c-0.285-1.351-0.322-2.62-0.11-3.808c0.244-1.776,0.293-3.367,0.146-4.775
		c-0.146-1.408-0.48-2.698-1.001-3.87c-0.521-1.172-1.005-2.091-1.453-2.759c-0.448-0.667-0.842-1.139-1.184-1.416
		C16.808,33.733,16.56,33.265,16.503,32.687z M24.645,43.808c0.342,0.277,0.59,0.403,0.745,0.378s0.399-0.175,0.732-0.452
		c0.333-0.276,0.655-0.574,0.964-0.891s0.793-0.63,1.453-0.94c0.659-0.309,1.388-0.504,2.185-0.586
		c0.993-0.114,1.595-0.74,1.807-1.88c0.212-1.123-0.024-1.961-0.708-2.515c-0.358-0.293-0.797-0.382-1.318-0.269
		c-1.237,0.277-2.38,0.956-3.43,2.039s-1.782,2.136-2.197,3.162S24.385,43.531,24.645,43.808z M48.303,60.662
		c-0.504-1.408-0.814-2.987-0.928-4.745s0.195-3.424,0.928-5.003c0.684-1.481,1.131-3.002,1.343-4.565
		c0.211-1.565,0.211-2.936,0-4.116c-0.211-1.18-0.443-2.156-0.696-2.93c-0.252-0.773-0.509-1.355-0.769-1.746
		c-0.195-0.244-0.317-0.525-0.366-0.842s0.004-0.655,0.159-1.013s0.395-0.696,0.72-1.013s0.814-0.594,1.465-0.83
		c0.65-0.236,1.408-0.395,2.271-0.476c1.351-0.13,3.162-0.208,5.433-0.232s5.074,0.085,8.41,0.33
		c3.711,0.375,7.129,0.989,10.255,1.843c3.125,0.854,5.127,1.786,6.006,2.795c0.049,0.049,0.109,0.118,0.183,0.208
		s0.171,0.281,0.293,0.574s0.191,0.594,0.208,0.903c0.016,0.31-0.069,0.7-0.257,1.172c-0.188,0.472-0.492,0.936-0.915,1.392
		c-1.123,1.172-1.998,3.109-2.625,5.813c-0.627,2.702-0.769,4.638-0.427,5.808c0.016,0.049,0.04,0.139,0.073,0.269
		c0.146,0.635,0.256,1.156,0.329,1.562c0.073,0.407,0.114,1.034,0.122,1.889s-0.085,1.636-0.28,2.335
		c-0.195,0.7-0.558,1.515-1.087,2.442s-1.217,1.814-2.062,2.661c-1.319,1.27-2.511,2.596-3.577,3.987s-1.896,2.449-2.49,3.166
		c-0.594,0.716-1.241,1.212-1.941,1.489c-1.204,0.439-2.901,0.643-5.09,0.618c-2.189-0.024-3.821-0.285-4.896-0.789
		c-0.944-0.424-1.949-1.352-3.015-2.783c-1.066-1.433-2.075-2.905-3.027-4.419c-0.953-1.514-1.657-2.466-2.112-2.856
		C49.353,63.038,48.807,62.07,48.303,60.662z M53.088,58.773c-0.032,0.293,0.062,0.619,0.281,0.977
		c0.22,0.358,0.455,0.7,0.708,1.026c0.252,0.325,0.557,0.699,0.915,1.123c0.358,0.423,0.618,0.748,0.781,0.977
		c0.179,0.244,0.452,0.757,0.818,1.538s0.716,1.456,1.05,2.034c0.333,0.578,0.887,1.147,1.66,1.701
		c0.772,0.553,1.681,0.887,2.722,1.001c0.847,0.081,1.583,0.073,2.21-0.017c0.626-0.09,1.18-0.301,1.66-0.635
		c0.479-0.334,0.851-0.635,1.11-0.903c0.261-0.269,0.627-0.708,1.099-1.326c0.473-0.619,0.83-1.074,1.074-1.367
		c0.375-0.391,0.822-0.798,1.343-1.221c0.521-0.424,0.948-0.766,1.282-1.025c0.334-0.261,0.631-0.537,0.891-0.822
		c0.261-0.285,0.383-0.554,0.366-0.813c-0.016-0.261-0.171-0.529-0.464-0.806c-0.13-0.261-0.488-0.326-1.074-0.188
		s-1.143,0.35-1.672,0.627c-0.529,0.276-1.384,0.521-2.563,0.732c-1.181,0.211-2.438,0.26-3.772,0.146
		c-1.318-0.114-2.579-0.407-3.784-0.871c-1.204-0.464-2.136-0.928-2.795-1.4c-0.659-0.472-1.286-0.846-1.88-1.114
		c-0.595-0.269-1.079-0.293-1.453-0.082C53.291,58.245,53.12,58.48,53.088,58.773z M53.601,44.76
		c-0.472,0.977-0.415,1.776,0.171,2.395c0.244,0.26,0.562,0.415,0.952,0.464c0.684,0.114,1.331,0.285,1.941,0.513
		c0.61,0.228,1.099,0.464,1.465,0.708s0.72,0.48,1.062,0.708c0.342,0.229,0.627,0.398,0.854,0.521
		c0.229,0.121,0.46,0.17,0.696,0.146c0.235-0.025,0.476-0.154,0.72-0.398c0.229-0.262,0.159-0.814-0.207-1.661
		c-0.366-0.847-1.042-1.742-2.026-2.676c-0.985-0.936-2.088-1.558-3.309-1.868C54.878,43.319,54.105,43.702,53.601,44.76z
		 M67.224,50.89c0.195,0.326,0.415,0.497,0.659,0.513c0.244,0.017,0.537-0.073,0.879-0.26c0.342-0.188,0.721-0.399,1.136-0.635
		c0.415-0.236,0.98-0.439,1.696-0.611c0.717-0.17,1.481-0.227,2.295-0.178c0.798,0.049,1.376-0.302,1.734-1.042
		c0.357-0.74,0.378-1.481,0.061-2.222c-0.317-0.738-0.892-1.092-1.722-1.06c-0.765,0.033-1.529,0.216-2.295,0.547
		c-0.765,0.334-1.428,0.741-1.989,1.213c-0.562,0.472-1.058,0.96-1.489,1.465c-0.432,0.504-0.729,0.96-0.892,1.375
		C67.135,50.41,67.11,50.711,67.224,50.89z M80.384,53.136c-0.065-0.293-0.058-0.806,0.024-1.538
		c0.081-0.732,0.179-1.391,0.293-1.977l0.171-0.879c1.807,0.163,4.089,0.48,6.848,0.952c2.759,0.473,4.79,0.903,6.092,1.294
		c0.439,0.146,0.757,0.269,0.952,0.375c0.195,0.105,0.256,0.211,0.183,0.309s-0.166,0.171-0.28,0.229
		c-0.114,0.057-0.317,0.146-0.61,0.26c-0.293,0.114-0.505,0.195-0.635,0.244c-0.31,0.131-1.18,0.57-2.612,1.316
		c-1.433,0.749-2.246,1.14-2.441,1.172c-0.098,0.033-0.277-0.008-0.537-0.113c-0.261-0.106-1.038-0.317-2.332-0.644
		C84.204,53.81,82.499,53.478,80.384,53.136z M85.193,59.775c-0.017-0.733,0.045-1.14,0.183-1.222
		c0.139-0.081,0.428,0.033,0.867,0.342c0.748,0.473,1.416,0.822,2.002,1.05c0.537,0.18,1.745,0.424,3.625,0.733
		c1.88,0.309,3.618,0.569,5.213,0.781l2.417,0.317l-3.027,2.051l1.904,2.661c-4.021-0.293-7.666-0.888-10.938-1.782
		c-1.01-0.31-1.632-0.766-1.868-1.367c-0.235-0.603-0.354-1.62-0.354-3.052C85.201,60.06,85.193,59.889,85.193,59.775z
		 M86.536,57.65c-0.049-0.098,0.175-0.276,0.671-0.537c0.497-0.26,1.132-0.569,1.904-0.919c0.773-0.351,1.266-0.57,1.478-0.668
		c0.113-0.064,0.333-0.203,0.659-0.406c0.325-0.204,0.643-0.391,0.952-0.57c0.31-0.179,0.663-0.382,1.062-0.61
		c0.399-0.228,0.766-0.421,1.099-0.575c0.334-0.155,0.647-0.285,0.94-0.391c0.293-0.106,0.533-0.146,0.72-0.131
		c0.188,0.017,0.298,0.098,0.33,0.244c0.163,0.617,0.203,1.447,0.122,2.488c-0.081,1.042-0.261,1.677-0.537,1.904
		c-1.188,1.123-2.36,1.733-3.516,1.831c-0.635,0.065-1.538-0.057-2.71-0.366C87.691,58.326,86.634,57.895,86.536,57.65z"/>
</g>
</svg>
