<svg xmlns="http://www.w3.org/2000/svg" width="100" height="100" viewBox="0 0 100 100"><path d="M1.453 49.5c0-4.348.579-8.602 1.736-12.763 1.157-4.16 2.768-7.991 4.833-11.495 2.064-3.504 4.574-6.734 7.53-9.69s6.186-5.465 9.69-7.53c3.503-2.065 7.326-3.668 11.472-4.811 4.144-1.14 8.391-1.711 12.739-1.711s8.604.571 12.761 1.712c4.162 1.142 8.002 2.746 11.522 4.811 3.518 2.064 6.753 4.574 9.711 7.53 2.954 2.956 5.468 6.186 7.532 9.69 2.064 3.503 3.673 7.335 4.831 11.495 1.159 4.162 1.738 8.416 1.738 12.763 0 4.35-.579 8.585-1.738 12.73-1.158 4.146-2.767 7.977-4.831 11.481-2.064 3.501-4.578 6.725-7.532 9.679-2.958 2.958-6.193 5.476-9.711 7.54-3.521 2.064-7.36 3.677-11.522 4.835-4.157 1.155-8.413 1.734-12.761 1.734s-8.595-.579-12.739-1.734c-4.146-1.158-7.969-2.771-11.472-4.835-3.504-2.064-6.734-4.582-9.69-7.54-2.956-2.954-5.465-6.178-7.53-9.679-2.065-3.505-3.676-7.336-4.833-11.481-1.157-4.146-1.736-8.381-1.736-12.731zm8.587-9.197c0 1.095.141 1.642.422 1.642.156-.03.265-.312.328-.845.031-.281.203-1.062.516-2.346.312-1.281.469-2.189.469-2.722 0-1.157.188-1.814.563-1.971.061-.031.125 0 .188.094.061.126.031.571-.094 1.338-.126.765-.282 1.65-.469 2.65-.188 1.002-.314 1.722-.375 2.159 0 .126-.063.767-.188 1.924-.126 1.157-.22 2.128-.282 2.909-.063.781-.079 1.642-.047 2.581.031.938.155 1.596.375 1.971 3.19 4.284 5.41 7.414 6.663 9.385.125.188.359.608.704 1.281.343.673.602 1.175.773 1.485.171.313.438.657.797 1.032.359.375.729.645 1.104.8.375.126.859.188 1.455.204.594.016 1.024.061 1.289.139.266.077.4.281.4.596 0 .312-.016.514-.047.624-.033.11-.071.204-.118.281-.047.078-.204.237-.469.453-.265.221-.524.47-.773.751-.75.815-1.377 1.971-1.877 3.488-.501 1.518-.596 2.583-.281 3.175l.398.815c.171.359.532 1 1.079 1.922.547.923 1.104 1.768 1.667 2.518.563.751 1.281 1.485 2.158 2.208.876.718 1.735 1.188 2.58 1.407.094.062.22.172.375.326.157.156.369.596.634 1.33.265.735.398 1.629.398 2.661 0 .75.017 1.265.047 1.546 3.378 1.751 7.179 3.052 11.402 3.896 1.251-.751 2.095-1.252 2.534-1.501.218-.127.916-.723 2.089-1.771 1.173-1.045 2.228-1.702 3.166-1.983 1.188-.314 2.024-.768 2.51-1.363s.808-1.424.963-2.484c.126-.657.624-1.502 1.501-2.534.878-1.032 1.33-1.767 1.359-2.207.094-.751-.498-1.547-1.783-2.392-1.281-.845-2.485-1.22-3.611-1.126-.781.062-1.744-.11-2.885-.518-1.143-.404-1.917-.515-2.324-.327-.063 0-.141.029-.234.094-.5.311-.9.453-1.196.438-.298-.017-.416-.282-.353-.812.063-.375.132-.706.212-.971.078-.266.147-.421.21-.485l.094-.14-.094-.265c-.03-.11-.148-.314-.351-.612-.204-.298-.463-.547-.775-.767-.312-.217-.798-.421-1.455-.608s-1.422-.281-2.299-.281c-2.313-2.317-3.848-3.583-4.598-3.803l-3.801-.983c-.155.061-.343.109-.563.155-.219.049-.563.063-1.032.032-.47-.032-.798-.188-.986-.47-.155-.22-.194-.469-.116-.734s.196-.518.351-.767c.157-.249.212-.47.165-.641-.047-.172-.273-.253-.681-.253-.563 0-1.266.175-2.11.534-.844.359-1.471.404-1.877.123-.22-.123-.524-.266-.916-.404-.392-.143-.68-.253-.867-.347-.188-.094-.384-.281-.587-.563-.204-.281-.337-.641-.398-1.077-.063-.469-.041-.971.069-1.501.11-.531.141-.906.094-1.127-.047-.22-.29-.407-.726-.562-1.283-.314-2.191-.751-2.722-1.314-.22-.248-.204-.452.047-.611.437-.437.883-1.126 1.336-2.064.453-.938.477-1.515.071-1.734-.282-.094-.541 0-.775.281-.234.281-.5.547-.797.796-.296.253-.68.314-1.149.188-.501-.188-.899-.718-1.197-1.595-.296-.874-.437-1.765-.422-2.657.016-.892.18-1.487.494-1.799.031-.063.141-.218.329-.453l.397-.485c.08-.094.212-.235.4-.422.188-.188.337-.312.445-.375l.4-.218c.155-.08.312-.11.469-.094.155.014.312.078.469.171.282.157.483.298.61.438.125.141.188.235.188.265l.094.094c.061.031.171.031.329 0 .155-.063.312-.171.469-.328.155-.157.288-.251.398-.265.11-.017.367.077.775.265.249.094.476.157.679.204.204.047.345.077.422.077s.166.031.259.11c.094.078.218.218.375.406.312.375.428 1.143.351 2.299s-.085 1.767-.022 1.83c.094.188.257.329.492.422.235.094.478.077.729-.031.249-.11.422-.345.516-.72.061-.345.031-.892-.094-1.626-.126-.736-.182-1.346-.166-1.846.017-.5.196-.767.541-.798.249-.094.61-.171 1.079-.234s.837-.141 1.103-.235c.265-.094.445-.265.539-.516.063-.157.329-.438.798-.828.469-.392.72-.798.75-1.236.063-.563.149-.907.259-1.032.11-.125.492-.312 1.148-.563.345-.155.869-.469 1.573-.938s1.322-.781 1.852-.938c.345-.125.588-.202.729-.235.141-.03.234-.039.281-.022l.329.07c.171.032.414.047.727.047 1.752 0 2.848-.235 3.285-.704.126-.125.141-.265.047-.422-.094-.155-.312-.351-.657-.585-.343-.234-.618-.461-.82-.681-.204-.218-.243-.437-.119-.657.063-.031.166-.125.306-.281l.329-.351.328-.329c.141-.141.266-.234.375-.281l.375-.141s.281-.063.422-.047c.141.015.273.069.398.164.22.22.361.861.422 1.924.033.469.174.595.422.375l.141-.094c.219-.249.438-.351.657-.304.219.047.4.163.541.351.141.188.288.32.445.4.157.078.282.039.375-.118.125-.312.055-.671-.21-1.079-.267-.406-.353-.845-.259-1.314.094-.375.078-.734-.047-1.079-.125-.343-.329-.743-.61-1.196-.282-.453-.485-.853-.61-1.197l-.257-.798c-.08-.249-.133-.5-.166-.751-.03-.249-.047-.444-.047-.585v-1.056c0-.249-.155-.351-.469-.304-.312.047-.648.125-1.008.235-.361.11-.665.022-.916-.259-.188-.155-.359-.508-.516-1.055-.155-.547-.328-.994-.516-1.337-.188-.344-.469-.446-.845-.305-.375.141-.704.546-.985 1.22-.281.673-.508 1.322-.679 1.946-.173.626-.306.955-.4.985-.5.126-1.032.329-1.595.61-.563.281-.875.61-.938.985-.094.501-.437 1.018-1.032 1.548-.406.345-.61.314-.61-.094 0-.094.017-.218.047-.375.094-.343.25-.71.469-1.102.221-.392.408-.688.563-.892.157-.204.275-.486.353-.845.078-.359.039-.681-.118-.963-.155-.249-.367-.516-.632-.797l-.704-.727c-.204-.204-.383-.431-.541-.68-.155-.25-.218-.51-.188-.775.033-.265.188-.539.469-.82.281-.345.51-.604.681-.775.171-.172.351-.304.539-.398l.353-.166c.047-.016.218-.039.516-.069.298-.033.492-.047.585-.047.345-.033.712.1 1.104.398.39.298.679.532.867.704.188.171.439.133.751-.116.157-.22.336-.532.541-.938.202-.408.384-.712.539-.916.157-.204.329-.336.516-.398.094 0 .502.484 1.22 1.455.845 1.188 1.33 1.422 1.455.704v-.235c.188-1.095.251-2.293.188-3.59-.061-1.297-.375-2.01-.938-2.134-.5-.126-1-.008-1.501.351-.5.359-.845.555-1.032.587-.406.155-.726.062-.961-.281-.234-.345-.353-.783-.353-1.314 0-.281-.328-.173-.985.329-1.126.812-1.83 1.032-2.111.657-.094-.126-.155-.281-.188-.469-.188-1.065-.265-1.736-.234-2.018.033-.282.251-.938.657-1.971.22-.438.469-.908.751-1.408.22-.314.306-.508.259-.587-.047-.078-.273-.164-.682-.257-.845-.188-1.908-.281-3.191-.281-1.313.594-2.893 1.501-4.737 2.721-.032.282-.063.484-.094.61-.032.125-.102.265-.212.422-.11.155-.273.282-.492.375-.345.125-.885.641-1.62 1.548-.734.906-1.518 1.916-2.346 3.026-.829 1.11-1.369 1.808-1.618 2.089-5.382 6.161-7.993 10.307-7.836 12.433.094 1.314-.055 2.558-.447 3.731-.393 1.168-.589 1.974-.589 2.41zm33.829-26.415c-.845.375-.626 1.844.657 4.411.157.343.422.757.797 1.243s.649.93.822 1.338c.171.406.21.875.116 1.408-.094.375-.116.751-.069 1.126.047.375.125.742.235 1.102.108.359.226.681.351.962s.251.501.375.656c.125.157.204.22.235.188.188-.062.375-.249.563-.562.188-.313.328-.594.422-.844l.141-.375c1.908-.908 3.441-1.94 4.597-3.097.408-.375.628-.651.656-.822.033-.171-.053-.282-.257-.329s-.444-.157-.727-.329c-.281-.171-.469-.43-.562-.773-.188-.438-.4-1.213-.633-2.324-.236-1.11-.493-1.946-.775-2.509-.249-.439-.868-.736-1.852-.892-.985-.157-1.971-.18-2.956-.071-.985.109-1.697.272-2.136.493zm14.591-5.349c.878.218 2.551 1.032 5.023 2.44 2.47 1.438 3.799 2.548 3.986 3.332.126.53.188.953.188 1.267.032.782-.172.892-.608.329-.094-.094-.236-.329-.424-.704-.188-.375-.396-.626-.633-.75-.232-.126-.587-.157-1.057-.094-1.094.343-1.641 1.079-1.641 2.205l-.069.751c-.049.469-.073.867-.073 1.195 0 .329.086.696.262 1.104.171.406.428.718.771.938 1.032.594 2.191 1.971 3.473 4.129l.143-.234c.094-.126.241-.243.445-.353.203-.11.399-.133.587-.069.281.155.624.227 1.032.21.404-.016.498-.21.282-.585-.47-.814-1.176-1.862-2.114-3.144.845-.439 1.354-.657 1.526-.657.171 0 .367.235.588.704.094.218.343.428.75.632.404.204.727.422.963.657.233.235.241.555.021.963-.249.531-.367.812-.351.845.017.031-.135.218-.445.563l-.656.633c-.314.298-.534.516-.657.657-.126.141-.253.352-.375.633-.127.281-.188.579-.188.892 0 .562-.135 1.393-.4 2.486-.265 1.096-.399 1.689-.399 1.783-.062.251-.021.438.118.563.143.126.306.196.493.212.188.016.376.094.563.234s.298.351.326.632c.065.221.159.469.282.751.126.282.236.508.33.681.094.172.163.337.212.492.045.157.004.273-.118.353-.126.078-.359.116-.706.116-.812 0-1.452.212-1.922.635-.469.422-.705.883-.705 1.383 0 .501.244 1.15.729 1.948.481.797.882 1.242 1.196 1.336.216.157.701.234 1.452.234s1.33-.141 1.738-.422l.514-.351c.127-.079.282-.196.47-.353.188-.155.322-.304.399-.445.078-.141.155-.314.234-.516.08-.204.108-.422.096-.657-.016-.234-.072-.494-.167-.775-.122-.343-.265-.718-.42-1.126l-.351-.892c-.082-.188-.11-.406-.096-.657.014-.249.132-.483.353-.704l.232-.351.188-.282.144-.188.139-.165.143-.094c.062-.03.122-.039.188-.022l.188.022.281.047c.249.063.266.235.046.517v.047l.705-.329c.437-.218.743-.53.914-.938.172-.406.282-.765.327-1.079.049-.312.15-.469.306-.469.347 0 .485.83.424 2.487-.032.094.249.361.845.798.155.032.232-.125.232-.469 0-.343-.024-.704-.069-1.08-.049-.375-.024-.624.069-.75.127-.094.417.041.869.4.453.359.885.688 1.29.985.407.297.656.336.75.116.127-.437-.016-.859-.42-1.267-.408-.406-.612-.734-.612-.985 0-.125.033-.265.094-.422.408.314.814.469 1.221.469 2.284 0 3.521.282 3.709.845.028.188.154.384.375.587.217.204.404.367.563.492.154.126.265.298.326.516.062.221-.062.408-.375.563l-.376.234-.351.235-.331.234-.326.212-.281.188c-.11.078-.188.149-.236.21l-.164.188-.139.188-.049.141c0 .126.058.212.163.259l.262.094c.061.015.053.116-.024.304-.078.188-.273.485-.588.892-.689.938-1.367 1.564-2.04 1.877-.673.314-1.212.22-1.62-.282-.188-.249-.318-.437-.399-.563-.078-.125-.114-.202-.114-.235 0-.03-.049-.108-.143-.234-.095-.125-.266-.312-.515-.563-.47-.594-1.126-.9-1.971-.914-.845-.017-1.379.29-1.596.914l-.236.844c-.122.439-.225.759-.306.963-.078.202-.188.461-.327.773-.14.314-.306.563-.493.751-.188.188-.392.313-.608.375-.596.157-1.003.337-1.22.541-.221.202-.485.773-.8 1.711-.281.657-.453 1.408-.514 2.252-.065.845-.237 1.485-.519 1.924-.188.345-.522.704-1.008 1.095-.485.39-.759.922-.82 1.579-.158 1.159-.158 2.767 0 4.832.498 2.346.657 4.129.47 5.349-.065.689.225 1.457.869 2.317.641.861 1.383 1.343 2.228 1.437.216.033.759.175 1.617.425.859.249 1.61.343 2.252.281.644-.062 1.337-.359 2.088-.894.188-.122.453-.311.8-.563.343-.249.633-.452.865-.592.236-.143.518-.313.845-.534.33-.216.611-.388.845-.514l.75-.408c.27-.139.502-.232.706-.281.204-.045.399-.062.588-.062.188 0 .343.032.469.11.123.077.217.216.281.403.123.376.188.751.188 1.127 0 .375.036.705.114 1.003.081.298.273.686.587 1.155.408.534.665.877.775 1.032.11.159.241.424.4.8.154.375.2.686.139.954-.062.266-.188.592-.376.968-.094.188-.281.579-.562 1.175-.282.592-.502 1.061-.657 1.407-.155.311-.326.751-.514 1.314-.159.562-.269 1.109-.331 1.641v.375c0 .126-.016.266-.045.424v.376c2.722-3.692 4.815-7.729 6.288-12.106 1.501-4.378 2.252-8.915 2.252-13.607 0-5.098-.877-10.009-2.628-14.734-1.722-4.753-4.101-8.96-7.132-12.62-3.003-3.66-6.602-6.804-10.792-9.432-4.193-2.597-8.683-4.427-13.469-5.49-.752.687-.846 1.126-.283 1.314zm5.305 19.893c.155-.218.281-.329.375-.329s.266.126.515.375l.236.353.188.304c.033.063.062.165.094.306.031.141.045.29.045.445-.028.408-.122.704-.281.892-.155.188-.343.204-.562.047-.249-.188-.327-.625-.233-1.314 0-.155-.032-.328-.094-.516s-.118-.32-.163-.398l-.12-.165zm.681-1.22c-.082-.125-.119-.273-.119-.445s.095-.305.282-.399c.155-.125.358-.117.607.023.253.141.543.375.869.704.331.329.571.555.727.68.314.157.579.196.8.118.216-.078.375-.102.469-.071.094.033.124.204.094.516-.063.314-.069.604-.024.869.049.265.055.492.024.679-.032.188-.157.298-.375.329-.971.157-1.456-.078-1.456-.704 0-.469-.037-.773-.115-.914-.081-.141-.228-.226-.448-.259-.281-.031-.547-.202-.796-.516l-.236-.235c-.124-.125-.226-.249-.303-.375z"/></svg>