<svg xmlns="http://www.w3.org/2000/svg" width="100" height="100" viewBox="0 0 100 100"><path fill="#333" d="M99.752 39.225l-32.208-7.993-17.554-28.162-17.554 28.162-32.208 7.993 21.359 25.396-2.352 33.104 30.755-12.469 30.755 12.469-2.35-33.104 21.357-25.396zm-69.746 29.775h-6.381l.239-5.154-4.746-7.125c3.256-1.418 6.287-2.149 6.67-2.333.737-.344.786-1.111.664-2.476-.072-1.102-2.579-2.341-2.579-8.761 0-4.758 1.924-9 6.627-9.014 2.351.014 6.358 4.22 6.358 8.978 0 6.42-2.684 7.626-2.778 8.726-.121 1.363-.109 2.063.63 2.408.52.218 4.694 1.071 8.58 3.114-.042.588-.219 1.249-.698 1.474-.615.295-8.021 2.936-12.266 7.073-.184.166-.28 1.09-.32 3.09zm18.994-27.554c5 .009 6.776 3.97 6.776 8.723 0 6.42-2.499 7.478-2.573 8.578-.12 1.364.002 1.931.738 2.278.613.291 8.055 2.709 12.303 6.847.773.702.036 11.128.036 11.128h-33.505s-.688-10.452 0-11.161c4.296-4.133 11.649-5.95 12.347-6.237.741-.35.786-1.293.665-2.657-.094-1.102-2.998-2.433-2.998-8.854 0-4.754 1.21-8.612 6.21-8.621m21.021 27.53c-.038-2-.136-2.928-.32-3.096-4.245-4.135-11.65-6.473-12.266-6.767-.479-.225-.656-1.039-.698-1.627 3.886-2.044 8.06-2.972 8.579-3.188.74-.344.754-1.083.631-2.447-.094-1.102-2.777-2.332-2.777-8.752 0-4.758 4.007-8.983 6.357-8.997 4.703.014 6.627 4.234 6.627 8.987 0 6.421-2.508 7.625-2.579 8.724-.121 1.363-.072 2.059.664 2.403.384.184 3.414.761 6.671 2.178l-4.746 7.425.237 5.157h-6.38z"/></svg>