<svg xmlns="http://www.w3.org/2000/svg" width="100" height="100" viewBox="0 0 100 100"><path d="M1.5 53.233c5.046-.325 8.862-.577 11.45-.757.293-.032.599-.13.916-.293.317-.162.5-.309.549-.439.163-.276.236-.415.22-.415.065-.016.154.106.269.366l.024.122c.504 1.303.439 2.537-.195 3.709-.375.781-1.64 1.367-3.797 1.767-2.156.398-4.228.602-6.213.602h-2.979l2.393-2.515-2.637-2.147zm2.759-9.425c1.318 1.351 2.995 2.566 5.029 3.64.732.423 1.526.838 2.38 1.253s1.453.716 1.794.895c.342.18.521.318.537.416.049.357-.041.602-.269.731-.228.131-.716.253-1.465.366-2.407.391-4.035.505-4.881.342l-.305-.138c-.122-.058-.342-.188-.659-.391-.317-.204-.598-.415-.842-.644-.244-.228-.472-.521-.684-.871-.211-.35-.326-.7-.342-1.058l-.293-4.541zm1.782-.733c.114-.032.562-.098 1.343-.195 1.644-.276 3.996-.562 7.056-.854 3.06-.293 4.646-.366 4.761-.22.195.293.285 1.099.269 2.417 0 .293-.021.627-.061 1.001-.041.375-.085.678-.134.906l-.073.342c-.635-.082-1.465-.122-2.49-.122-.635 0-1.392.122-2.271.374s-1.481.497-1.807.725c-.504.276-2.555-.944-6.152-3.665-.506-.391-.652-.627-.441-.709zm10.462-10.388c-.057-.578.228-1.225.854-1.941s1.607-1.318 2.942-1.807c1.253-.488 3.137-1.079 5.652-1.77 2.515-.692 5.09-1.266 7.727-1.721 3.451-.603 6.861-.887 10.23-.854 3.369.032 5.615.423 6.738 1.172l.207.146c.09.065.232.224.428.476.195.252.338.529.428.83.089.301.105.7.049 1.196-.058.496-.232 1.029-.525 1.599-.082.146-.203.398-.366.757-2.604.488-4.395 1.685-5.371 3.589-.277.846-.391 1.636-.342 2.368-1.97-1.139-3.85-1.595-5.64-1.367-1.009.13-1.49.749-1.441 1.855.033 1.058.456 1.855 1.27 2.393.456.293.944.383 1.465.269 1.155-.163 1.973-.244 2.454-.244.48 0 1.099.078 1.855.232.757.155 1.192.232 1.306.232 1.025 3.418.822 6.602-.61 9.548l-.354.643c-.171.318-.322.619-.452.896s-.22.505-.269.684c-.928-.781-2.425-1.172-4.492-1.172-2.54 0-4.79.562-6.751 1.685-1.961 1.123-2.934 2.448-2.917 3.978.016 1.14.249 1.953.696 2.45.448.496 1.046.699 1.794.61.749-.09 1.51-.261 2.283-.521.773-.26 1.607-.553 2.502-.87.896-.317 1.595-.48 2.1-.497 2.181-.081 3.776.065 4.785.439.391 2.067 1.001 3.825 1.831 5.274-.163.179-.432.406-.806.684-1.058.765-2.633 1.416-4.724 1.953-2.092.537-3.74.699-4.944.488-1.025-.18-2.238-.822-3.638-1.921-1.399-1.099-2.75-2.263-4.053-3.499-1.302-1.237-2.213-1.994-2.734-2.271-.521-.244-1.103-.765-1.746-1.554-.643-.79-1.245-1.718-1.807-2.783-.562-1.064-.985-2.269-1.27-3.62-.285-1.351-.322-2.62-.11-3.808.244-1.776.293-3.367.146-4.775-.146-1.408-.48-2.698-1.001-3.87-.521-1.172-1.005-2.091-1.453-2.759-.448-.667-.842-1.139-1.184-1.416-.437-.36-.685-.828-.742-1.406zm8.142 11.121c.342.277.59.403.745.378s.399-.175.732-.452c.333-.276.655-.574.964-.891s.793-.63 1.453-.94c.659-.309 1.388-.504 2.185-.586.993-.114 1.595-.74 1.807-1.88.212-1.123-.024-1.961-.708-2.515-.358-.293-.797-.382-1.318-.269-1.237.277-2.38.956-3.43 2.039s-1.782 2.136-2.197 3.162-.493 1.677-.233 1.954zm23.658 16.854c-.504-1.408-.814-2.987-.928-4.745s.195-3.424.928-5.003c.684-1.481 1.131-3.002 1.343-4.565.211-1.565.211-2.936 0-4.116-.211-1.18-.443-2.156-.696-2.93-.252-.773-.509-1.355-.769-1.746-.195-.244-.317-.525-.366-.842s.004-.655.159-1.013.395-.696.72-1.013.814-.594 1.465-.83c.65-.236 1.408-.395 2.271-.476 1.351-.13 3.162-.208 5.433-.232s5.074.085 8.41.33c3.711.375 7.129.989 10.255 1.843 3.125.854 5.127 1.786 6.006 2.795l.183.208s.171.281.293.574.191.594.208.903c.016.31-.069.7-.257 1.172s-.492.936-.915 1.392c-1.123 1.172-1.998 3.109-2.625 5.813-.627 2.702-.769 4.638-.427 5.808l.073.269c.146.635.256 1.156.329 1.562.073.407.114 1.034.122 1.889s-.085 1.636-.28 2.335c-.195.7-.558 1.515-1.087 2.442s-1.217 1.814-2.062 2.661c-1.319 1.27-2.511 2.596-3.577 3.987s-1.896 2.449-2.49 3.166c-.594.716-1.241 1.212-1.941 1.489-1.204.439-2.901.643-5.09.618-2.189-.024-3.821-.285-4.896-.789-.944-.424-1.949-1.352-3.015-2.783-1.066-1.433-2.075-2.905-3.027-4.419-.953-1.514-1.657-2.466-2.112-2.856-.588-.522-1.134-1.49-1.638-2.898zm4.785-1.889c-.032.293.062.619.281.977.22.358.455.7.708 1.026.252.325.557.699.915 1.123.358.423.618.748.781.977.179.244.452.757.818 1.538s.716 1.456 1.05 2.034c.333.578.887 1.147 1.66 1.701.772.553 1.681.887 2.722 1.001.847.081 1.583.073 2.21-.017.626-.09 1.18-.301 1.66-.635.479-.334.851-.635 1.11-.903.261-.269.627-.708 1.099-1.326.473-.619.83-1.074 1.074-1.367.375-.391.822-.798 1.343-1.221.521-.424.948-.766 1.282-1.025.334-.261.631-.537.891-.822.261-.285.383-.554.366-.813-.016-.261-.171-.529-.464-.806-.13-.261-.488-.326-1.074-.188s-1.143.35-1.672.627c-.529.276-1.384.521-2.563.732-1.181.211-2.438.26-3.772.146-1.318-.114-2.579-.407-3.784-.871-1.204-.464-2.136-.928-2.795-1.4-.659-.472-1.286-.846-1.88-1.114-.595-.269-1.079-.293-1.453-.082-.31.18-.481.415-.513.708zm.513-14.013c-.472.977-.415 1.776.171 2.395.244.26.562.415.952.464.684.114 1.331.285 1.941.513.61.228 1.099.464 1.465.708l1.062.708c.342.229.627.398.854.521.229.121.46.17.696.146.235-.025.476-.154.72-.398.229-.262.159-.814-.207-1.661-.366-.847-1.042-1.742-2.026-2.676-.985-.936-2.088-1.558-3.309-1.868-1.042-.293-1.815.09-2.319 1.148zm13.623 6.13c.195.326.415.497.659.513.244.017.537-.073.879-.26.342-.188.721-.399 1.136-.635.415-.236.98-.439 1.696-.611.717-.17 1.481-.227 2.295-.178.798.049 1.376-.302 1.734-1.042.357-.74.378-1.481.061-2.222-.317-.738-.892-1.092-1.722-1.06-.765.033-1.529.216-2.295.547-.765.334-1.428.741-1.989 1.213-.562.472-1.058.96-1.489 1.465-.432.504-.729.96-.892 1.375-.162.415-.187.716-.073.895zm13.16 2.246c-.065-.293-.058-.806.024-1.538.081-.732.179-1.391.293-1.977l.171-.879c1.807.163 4.089.48 6.848.952 2.759.473 4.79.903 6.092 1.294.439.146.757.269.952.375.195.105.256.211.183.309s-.166.171-.28.229c-.114.057-.317.146-.61.26l-.635.244c-.31.131-1.18.57-2.612 1.316-1.433.749-2.246 1.14-2.441 1.172-.098.033-.277-.008-.537-.113-.261-.106-1.038-.317-2.332-.644-1.296-.326-3.001-.658-5.116-1zm4.809 6.639c-.017-.733.045-1.14.183-1.222.139-.081.428.033.867.342.748.473 1.416.822 2.002 1.05.537.18 1.745.424 3.625.733s3.618.569 5.213.781l2.417.317-3.027 2.051 1.904 2.661c-4.021-.293-7.666-.888-10.938-1.782-1.01-.31-1.632-.766-1.868-1.367-.235-.603-.354-1.62-.354-3.052l-.024-.512zm1.343-2.125c-.049-.098.175-.276.671-.537.497-.26 1.132-.569 1.904-.919l1.478-.668.659-.406c.325-.204.643-.391.952-.57l1.062-.61c.399-.228.766-.421 1.099-.575.334-.155.647-.285.94-.391.293-.106.533-.146.72-.131.188.017.298.098.33.244.163.617.203 1.447.122 2.488-.081 1.042-.261 1.677-.537 1.904-1.188 1.123-2.36 1.733-3.516 1.831-.635.065-1.538-.057-2.71-.366-2.019-.618-3.076-1.049-3.174-1.294z"/></svg>