<svg xmlns="http://www.w3.org/2000/svg" width="100" height="100" viewBox="0 0 100 100"><path d="M.5 46.852v-16.016l20.974 31.813 58.991-48.269 18.035 23.876v14.545l-19.578-25.822-59.505 48.599-18.917-28.726zm.331 14.511v-2.461h.992l1.58 2.461h-2.572zm0 6.502v-2.461h5.252l1.543 2.461h-6.795zm0 4.04h9.477l1.58 2.498h-11.057v-2.498zm0 6.502h13.738l1.542 2.497h-15.28v-2.497zm0 6.465h97.632v2.534h-97.632v-2.534zm6.795-53.007v-19.174h5.29v14.803h8.081v4.371h-13.371zm14.142 49.039l3.122-2.497h73.573v2.497h-76.695zm.844-49.039v-19.174h13.848v4.445h-8.375v2.864h5.914v4.224h-5.914v3.269h8.853v4.371h-14.326zm7.2 42.538l2.938-2.498h65.712v2.498h-68.65zm7.86-6.538l3.122-2.461h57.668v2.461h-60.79zm.184-36l.11-.22 5.767-9.917-5.437-9.036h6.098l.037.037 2.792 4.739 2.608-4.775h5.436l-5.252 9.073 5.951 10.101h-5.914l-.037-.073-3.379-5.62-2.975 5.693h-5.805zm7.897 29.462l2.938-2.425h49.771v2.425h-52.709zm7.897-6.502l3.086-2.391h34.344l1.837 2.391h-39.267zm7.825-6.468l3.159-2.535h21.451l1.873 2.535h-26.483zm8.081-6.464l2.938-2.571h8.742l2.021 2.571h-13.701z"/></svg>