<svg xmlns="http://www.w3.org/2000/svg" width="100" height="100" viewBox="0 0 100 100"><path d="M98.145 36.269c.237.107.355.291.355.549 0 .28-.118.463-.355.549l-47.369 19.28-.226.032-.227-.032-43.333-17.634v17.666h-.194c.753.517 1.34 1.259 1.76 2.228.42.969.63 2.023.63 3.164v1.938h-.097v2.034c0 .302-.103.55-.307.754s-.458.312-.759.312c-.258 0-.495-.098-.71-.291-.215.323-.495.484-.839.484-.28 0-.527-.097-.743-.291-.194.388-.506.581-.937.581-.215 0-.419-.075-.613-.226-.086-.064-.172-.15-.258-.258-.194.193-.431.29-.71.29-.388 0-.689-.183-.904-.549-.194.172-.409.259-.646.259-.302 0-.555-.108-.759-.312-.205-.204-.307-.452-.307-.754v-2.034h-.097v-1.938c.021-1.141.237-2.195.646-3.164.409-.969.99-1.711 1.744-2.228h-.065v-19.409c-.15-.129-.226-.28-.226-.452 0-.258.119-.441.355-.549l47.369-19.245c.151-.064.302-.064.452 0l47.37 19.246zm-73.977 13.306l26.382 10.752 26.381-10.752v20.601c-.043 3.466-2.724 6.328-8.041 8.589-5.08 2.174-11.193 3.262-18.34 3.262s-13.261-1.088-18.341-3.262c-5.317-2.261-7.997-5.123-8.04-8.589v-20.601z"/></svg>