<?xml version="1.0" encoding="utf-8"?>
<!-- Generator: Adobe Illustrator 13.0.0, SVG Export Plug-In . SVG Version: 6.00 Build 14948)  -->
<!DOCTYPE svg PUBLIC "-//W3C//DTD SVG 1.1//EN" "http://www.w3.org/Graphics/SVG/1.1/DTD/svg11.dtd">
<svg version="1.1" id="Layer_1" xmlns="http://www.w3.org/2000/svg" xmlns:xlink="http://www.w3.org/1999/xlink" x="0px" y="0px"
	 width="100px" height="100px" viewBox="0 0 100 100" enable-background="new 0 0 100 100" xml:space="preserve">
<g>
	<path d="M20.932,50.516l22.958,4.592l4.592,22.962L16.34,91.845l-4.591,4.592c-0.128,0.127-0.303,0.287-0.526,0.478
		c-0.223,0.191-0.678,0.463-1.363,0.813s-1.379,0.59-2.081,0.718c-0.701,0.127-1.53,0.031-2.487-0.271s-1.866-0.877-2.727-1.737
		c-0.861-0.861-1.443-1.77-1.746-2.711c-0.303-0.94-0.375-1.785-0.215-2.535c0.16-0.749,0.383-1.419,0.669-2.024
		c0.287-0.605,0.574-1.084,0.861-1.435l0.43-0.479l4.592-4.592L20.932,50.516z M25.524,79.982c1.786,0,3.316-0.638,4.592-1.913
		c1.275-1.275,1.913-2.806,1.913-4.592c0-1.785-0.638-3.315-1.913-4.591c-1.276-1.276-2.806-1.914-4.592-1.914
		s-3.308,0.638-4.568,1.914c-1.259,1.275-1.889,2.806-1.889,4.591c0,1.786,0.63,3.316,1.889,4.592
		C22.216,79.345,23.738,79.982,25.524,79.982z M90.505,1.725c1.354,0.67,2.646,1.626,3.89,2.87c1.244,1.243,2.217,2.542,2.902,3.898
		c0.686,1.355,1.067,2.615,1.147,3.778c0.08,1.164,0.016,2.296-0.175,3.396c-0.191,1.1-0.511,2.081-0.957,2.942
		c-0.446,0.861-0.877,1.626-1.291,2.295c-0.415,0.67-0.798,1.18-1.148,1.531l-0.479,0.526c-6.122,6.123-10.714,10.714-13.774,13.775
		L57.661,59.703L39.299,41.328C51.543,29.084,59.192,21.431,62.253,18.37L76.028,4.595c0.127-0.128,0.318-0.295,0.558-0.502
		s0.733-0.566,1.483-1.076c0.749-0.51,1.515-0.957,2.312-1.339c0.797-0.382,1.785-0.693,2.949-0.933s2.312-0.303,3.443-0.191
		C87.906,0.665,89.149,1.056,90.505,1.725z"/>
</g>
</svg>
