<?xml version="1.0" encoding="utf-8"?>
<!-- Generator: Adobe Illustrator 13.0.0, SVG Export Plug-In . SVG Version: 6.00 Build 14948)  -->
<!DOCTYPE svg PUBLIC "-//W3C//DTD SVG 1.1//EN" "http://www.w3.org/Graphics/SVG/1.1/DTD/svg11.dtd">
<svg version="1.1" id="Layer_1" xmlns="http://www.w3.org/2000/svg" xmlns:xlink="http://www.w3.org/1999/xlink" x="0px" y="0px"
	 width="100px" height="100px" viewBox="0 0 100 100" enable-background="new 0 0 100 100" xml:space="preserve">
<g>
	<path d="M98.145,36.269c0.237,0.107,0.355,0.291,0.355,0.549c0,0.28-0.118,0.463-0.355,0.549l-47.369,19.28
		c-0.086,0.021-0.161,0.032-0.226,0.032c-0.065,0-0.14-0.011-0.227-0.032L6.99,39.013v17.666H6.796
		c0.753,0.517,1.34,1.259,1.76,2.228c0.42,0.969,0.63,2.023,0.63,3.164v1.938H9.089v2.034c0,0.302-0.103,0.55-0.307,0.754
		s-0.458,0.312-0.759,0.312c-0.258,0-0.495-0.098-0.71-0.291c-0.215,0.323-0.495,0.484-0.839,0.484c-0.28,0-0.527-0.097-0.743-0.291
		c-0.194,0.388-0.506,0.581-0.937,0.581c-0.215,0-0.419-0.075-0.613-0.226c-0.086-0.064-0.172-0.15-0.258-0.258
		c-0.194,0.193-0.431,0.29-0.71,0.29c-0.388,0-0.689-0.183-0.904-0.549c-0.194,0.172-0.409,0.259-0.646,0.259
		c-0.302,0-0.555-0.108-0.759-0.312c-0.205-0.204-0.307-0.452-0.307-0.754v-2.034H0.5V62.07c0.021-1.141,0.237-2.195,0.646-3.164
		c0.409-0.969,0.99-1.711,1.744-2.228H2.825c0-10.354,0-16.826,0-19.409c-0.15-0.129-0.226-0.28-0.226-0.452
		c0-0.258,0.119-0.441,0.355-0.549l47.369-19.245c0.151-0.064,0.302-0.064,0.452,0L98.145,36.269z M24.168,49.575L50.55,60.327
		l26.381-10.752v20.601c-0.043,3.466-2.724,6.328-8.041,8.589c-5.08,2.174-11.193,3.262-18.34,3.262
		c-7.147,0-13.261-1.088-18.341-3.262c-5.317-2.261-7.997-5.123-8.04-8.589V49.575z"/>
</g>
</svg>
