<svg xmlns="http://www.w3.org/2000/svg" width="100" height="100" viewBox="0 0 100 100"><path fill="#333" d="M99.752 39.225l-32.208-7.993L49.99 3.07 32.436 31.232.228 39.225l21.36 25.396-2.353 33.105 30.755-12.47 30.755 12.47-2.35-33.104L99.75 39.226zM30.006 69h-6.38l.238-5.154-4.746-7.125c3.256-1.417 6.287-2.147 6.67-2.33.737-.346.786-1.112.664-2.478-.072-1.102-2.58-2.34-2.58-8.76 0-4.76 1.925-9 6.628-9.015 2.35.014 6.358 4.22 6.358 8.978 0 6.42-2.684 7.626-2.778 8.726-.12 1.364-.11 2.064.63 2.41.52.217 4.694 1.07 8.58 3.113-.042.588-.22 1.248-.698 1.474-.615.295-8.02 2.937-12.266 7.073-.184.166-.28 1.09-.32 3.09zM49 41.446c5 .01 6.775 3.97 6.775 8.723 0 6.42-2.498 7.477-2.572 8.577-.12 1.364.002 1.93.738 2.278.614.29 8.056 2.71 12.304 6.847.774.702.035 11.128.035 11.128H32.774s-.688-10.452 0-11.16c4.296-4.134 11.65-5.95 12.347-6.238.74-.35.786-1.293.665-2.656-.094-1.103-2.998-2.434-2.998-8.854 0-4.754 1.21-8.612 6.21-8.62v-.026zM70.02 69c-.037-2-.136-2.928-.32-3.096-4.244-4.135-11.65-6.473-12.266-6.768-.48-.225-.656-1.04-.697-1.627 3.886-2.045 8.06-2.973 8.578-3.19.74-.343.754-1.083.63-2.446-.093-1.102-2.775-2.332-2.775-8.752 0-4.758 4.007-8.983 6.356-8.997 4.703.014 6.627 4.234 6.627 8.987 0 6.42-2.508 7.625-2.578 8.724-.12 1.363-.072 2.06.664 2.403.383.183 3.413.76 6.67 2.177l-4.746 7.425L76.4 69h-6.38z"/></svg>
