<svg xmlns="http://www.w3.org/2000/svg" width="100" height="100" viewBox="0 0 100 100"><path d="M77.397.5l15.647 16.317v81.683h-81.634v-13.638h-5.455v-16.317h5.455v-10.91h-5.455v-16.318h5.455v-10.862h-5.455v-16.365h5.455v-13.59h65.987zm-65.987 19.045v5.455h8.135v-5.455h-8.135zm0 27.227v5.455h8.135v-5.455h-8.135zm0 27.228v5.455h8.135v-5.455h-8.135zm52.206-20.768l-2.058-12.011 8.709-8.518-12.059-1.723-5.359-10.91-5.407 10.91-12.059 1.723 8.757 8.518-2.058 12.011 10.767-5.694 10.767 5.694z"/></svg>