<svg xmlns="http://www.w3.org/2000/svg" width="100" height="100" viewBox="0 0 100 100"><path d="M38.483 57.09c0 .022-.284.109-.853.263l-.951.229c-1.64.394-2.995.732-4.066 1.017-1.071.284-2.688.787-4.853 1.508-2.164.722-4.065 1.465-5.705 2.229-1.64.766-3.443 1.771-5.41 3.017s-3.683 2.579-5.147 4c-1.159 1.05-1.705 3.05-1.64 6h-7.9c-.612-9.814-.612-14.983 0-15.508 1.158-1.137 2.677-2.153 4.557-3.039 1.88-.885 3.596-1.529 5.147-1.934 1.552-.405 2.995-.743 4.328-1.027s2.044-.448 2.131-.492c.437-.196.705-.48.803-.853.098-.371.104-.983.016-1.836-.021-.241-.208-.612-.557-1.115-.35-.503-.727-1.06-1.131-1.661s-.776-1.574-1.115-2.929c-.339-1.355-.508-2.918-.508-4.688 0-2.885.738-5.394 2.213-7.525s3.284-3.197 5.426-3.197 3.995 1.077 5.558 3.229c1.562 2.153 2.344 4.662 2.344 7.525 0 1.771-.169 3.339-.508 4.7-.339 1.366-.71 2.36-1.115 2.973-.404.612-.781 1.169-1.131 1.683s-.535.896-.557 1.136l-.017.558-.016.503v.415s.011.295.033.372l.082.295s.076.207.131.262l.213.197c.087.076.186.152.295.219.065.021.645.163 1.738.426s2.404.656 3.935 1.181c1.53.524 2.94 1.125 4.229 1.803v.064zm21.836 2.46c.153.065.935.262 2.344.601 1.41.339 3.082.798 5.017 1.377s4.027 1.301 6.279 2.164c2.251.863 4.558 2 6.918 3.41 2.36 1.409 4.404 2.962 6.131 4.645.328.284.547.863.656 1.738.109.874.137 1.836.082 2.885s-.137 2.076-.246 3.093-.219 1.869-.328 2.547l-.164 1.017h-72.919c-.109-.743-.235-1.673-.377-2.776s-.229-2.688-.262-4.754.18-3.312.639-3.749c2.143-2.076 4.792-3.956 7.951-5.628 3.159-1.673 5.951-2.886 8.377-3.65 2.426-.766 4.776-1.443 7.049-2.022 2.273-.579 3.443-.874 3.508-.896.765-.372 1.229-.919 1.394-1.629s.18-1.869.049-3.486c-.044-.394-.279-.896-.705-1.497-.426-.602-.923-1.334-1.492-2.208s-1.137-1.935-1.705-3.169-1.049-2.896-1.442-4.995c-.394-2.098-.59-4.448-.59-7.049 0-3.519.524-6.732 1.574-9.639 1.049-2.907 2.667-5.279 4.853-7.115 2.186-1.836 4.754-2.754 7.705-2.754l.065-.033c2.886.022 5.421.945 7.606 2.771 2.187 1.825 3.814 4.197 4.886 7.115s1.606 6.137 1.606 9.656c0 2.601-.196 4.957-.59 7.066-.394 2.104-.875 3.776-1.443 5s-1.136 2.273-1.704 3.147-1.066 1.606-1.492 2.208c-.427.601-.65 1.114-.672 1.529-.153 1.596-.143 2.744.032 3.454s.646 1.254 1.41 1.626zm38.755.295c.284.24.426 1.65.426 4.229s-.076 5.104-.229 7.573l-.196 3.705h-7.902c.065-2.929-.491-4.929-1.672-6-1.465-1.421-3.181-2.754-5.147-4-1.968-1.246-3.771-2.251-5.41-3.017-1.64-.765-3.547-1.508-5.722-2.229-2.175-.721-3.798-1.224-4.868-1.508-1.071-.284-2.427-.623-4.066-1.017l-.983-.229-.918-.263v-.065c1.268-.699 2.678-1.312 4.229-1.825s2.88-.896 3.983-1.158c1.104-.263 1.678-.404 1.722-.426.306-.153.52-.351.64-.591s.18-.546.18-.907v-1.322c-.021-.24-.213-.623-.573-1.136s-.743-1.071-1.147-1.683c-.404-.612-.776-1.607-1.115-2.973-.339-1.361-.508-2.929-.508-4.7 0-2.863.76-5.372 2.278-7.525 1.52-2.153 3.35-3.229 5.492-3.229 2.164 0 3.994 1.065 5.492 3.197 1.497 2.131 2.245 4.628 2.245 7.492 0 1.792-.158 3.366-.475 4.721-.317 1.355-.673 2.328-1.066 2.929s-.765 1.158-1.114 1.661c-.35.502-.535.874-.558 1.115-.065.853-.055 1.465.033 1.836.087.372.35.656.787.853.087.044.798.208 2.131.492s2.775.622 4.328 1.027c1.552.404 3.268 1.049 5.147 1.934 1.878.885 3.397 1.902 4.556 3.039z"/></svg>