<svg xmlns="http://www.w3.org/2000/svg" width="100" height="100" viewBox="0 0 100 100"><path d="M60.257 62.26l-17.545-17.656-36.425 36.166-5.787-6.677 42.212-42.36 17.545 16.989 31.678-31.01 6.565 5.935-38.243 38.613zm-47.071-13.539h8.828l-11.684 11.276v-48.48h75.966v8.086h-.11l-3.153 3.079v-3.079l-.037-5.082h-13.8v15.765h6.417l-2.967 2.894-3.45-.037v3.45l-.186.111-2.671 2.596v-6.157h-15.615v2.782l-5.489-5.638h1.929v-15.766h-15.06v15.765h8.717l-2.856 2.745v.111h-5.859999999999999v5.378h.667l-3.821 3.709v-9.087h-15.765v15.579zm69.809-5.675l3.265-2.671.036 2.671v44.438h-75.966v-6.454h.223l2.634-2.448v5.749h15.763v-13.651h-8.16l3.19-3.449h4.97v-4.971l3.153-2.967v7.938h15.06v-13.911l3.264 3.673v10.237h15.913v-7.233l2.745-3.004.111 2.744v7.492999999999999h13.799v-15.653h-8.271l2.93-2.856h5.342v-5.675zm-69.809-28.525v15.765h15.764v-15.765h-15.764zm33.977 69.809v-13.65h-15.06v13.65h15.06zm-1.298-32.753l-6.269.223 3.338-3.375 2.931 3.152zm4.562-37.056v15.765h15.913v-15.765h-15.913zm15.913 69.809v-13.65h-15.913v13.65h15.913zm16.655 0v-13.65h-13.799v13.65h13.799z"/></svg>