<?xml version="1.0" encoding="utf-8"?>
<!-- Generator: Adobe Illustrator 13.0.0, SVG Export Plug-In . SVG Version: 6.00 Build 14948)  -->
<!DOCTYPE svg PUBLIC "-//W3C//DTD SVG 1.1//EN" "http://www.w3.org/Graphics/SVG/1.1/DTD/svg11.dtd">
<svg version="1.1" id="Layer_1" xmlns="http://www.w3.org/2000/svg" xmlns:xlink="http://www.w3.org/1999/xlink" x="0px" y="0px"
	 width="100px" height="100px" viewBox="0 0 100 100" enable-background="new 0 0 100 100" xml:space="preserve">
<g>
	<path d="M1,51.916v-4.832c0-1.357,0.474-2.51,1.421-3.458s2.084-1.421,3.41-1.421h12.125c0.253,0,0.537,0.031,0.853,0.095
		c0.789-3.347,2.1-6.473,3.931-9.378c-0.284-0.221-0.505-0.41-0.663-0.568l-8.573-8.573c-0.947-0.947-1.421-2.092-1.421-3.433
		c0-1.342,0.474-2.487,1.421-3.435l3.41-3.41c0.947-0.947,2.092-1.421,3.434-1.421c1.342,0,2.487,0.474,3.434,1.421l8.573,8.573
		c0.189,0.158,0.363,0.379,0.521,0.663c2.968-1.831,6.11-3.142,9.425-3.931c-0.063-0.315-0.095-0.6-0.095-0.853V5.831
		c0-1.326,0.474-2.463,1.421-3.41S45.727,1,47.084,1h4.832c1.356,0,2.51,0.474,3.457,1.421s1.421,2.084,1.421,3.41v12.125
		c0,0.253-0.032,0.537-0.095,0.853c3.315,0.789,6.441,2.1,9.378,3.931c0.222-0.284,0.411-0.505,0.568-0.663l8.573-8.573
		c0.947-0.947,2.09-1.421,3.433-1.421s2.487,0.474,3.435,1.421l3.41,3.41c0.947,0.947,1.421,2.092,1.421,3.435
		c0,1.341-0.474,2.486-1.421,3.433l-8.572,8.573c-0.159,0.189-0.379,0.379-0.664,0.568c1.831,2.905,3.142,6.031,3.932,9.378
		c0.316-0.063,0.601-0.095,0.853-0.095h12.125c1.326,0,2.463,0.474,3.41,1.421S98,45.727,98,47.084v4.832
		c0,1.356-0.474,2.51-1.421,3.457s-2.084,1.421-3.41,1.421H81.044c-0.284,0-0.568-0.032-0.853-0.095
		c-0.79,3.348-2.101,6.474-3.932,9.378c0.285,0.222,0.505,0.411,0.664,0.568l8.572,8.573c0.947,0.947,1.421,2.084,1.421,3.425
		c0,1.342-0.474,2.495-1.421,3.442l-3.41,3.41c-0.947,0.947-2.092,1.421-3.435,1.421s-2.485-0.474-3.433-1.421l-8.573-8.572
		c-0.189-0.189-0.379-0.41-0.568-0.663c-2.904,1.83-6.03,3.141-9.378,3.931c0.062,0.316,0.095,0.601,0.095,0.853v12.125
		c0,1.326-0.474,2.463-1.421,3.41S53.272,98,51.916,98h-4.832c-1.357,0-2.51-0.474-3.458-1.421s-1.421-2.084-1.421-3.41V81.044
		c0-0.252,0.031-0.536,0.095-0.853c-3.315-0.79-6.441-2.101-9.378-3.931c-0.189,0.253-0.379,0.474-0.568,0.663l-8.573,8.572
		c-0.947,0.947-2.092,1.421-3.434,1.421c-1.341,0-2.486-0.474-3.434-1.421l-3.41-3.41c-0.947-0.947-1.421-2.101-1.421-3.442
		c0-1.341,0.474-2.478,1.421-3.425l8.573-8.573c0.158-0.189,0.379-0.379,0.663-0.568c-1.831-2.904-3.142-6.03-3.931-9.378
		c-0.315,0.062-0.6,0.095-0.853,0.095H5.831c-1.326,0-2.463-0.474-3.41-1.421S1,53.272,1,51.916z M32.686,39.767
		c-1.736,2.977-2.605,6.229-2.605,9.733s0.869,6.742,2.605,9.725c1.736,2.985,4.097,5.354,7.081,7.09
		c2.984,1.735,6.229,2.604,9.733,2.604s6.75-0.869,9.732-2.604c2.985-1.736,5.346-4.104,7.082-7.09
		c1.735-2.982,2.604-6.22,2.604-9.725s-0.869-6.757-2.604-9.733c-1.736-2.983-4.097-5.344-7.082-7.081
		c-2.982-1.736-6.228-2.605-9.732-2.605s-6.749,0.869-9.733,2.605C36.783,34.422,34.422,36.783,32.686,39.767z"/>
</g>
</svg>
