<svg xmlns="http://www.w3.org/2000/svg" width="100" height="100" viewBox="0 0 100 100"><path d="M1 51.916v-4.832c0-1.357.474-2.51 1.421-3.458s2.084-1.421 3.41-1.421h12.125c.253 0 .537.031.853.095.789-3.347 2.1-6.473 3.931-9.378-.284-.221-.505-.41-.663-.568l-8.573-8.573c-.947-.947-1.421-2.092-1.421-3.433 0-1.342.474-2.487 1.421-3.435l3.41-3.41c.947-.947 2.092-1.421 3.434-1.421s2.487.474 3.434 1.421l8.573 8.573c.189.158.363.379.521.663 2.968-1.831 6.11-3.142 9.425-3.931-.063-.315-.095-.6-.095-.853v-12.124c0-1.326.474-2.463 1.421-3.41s2.1-1.421 3.457-1.421h4.832c1.356 0 2.51.474 3.457 1.421s1.421 2.084 1.421 3.41v12.125c0 .253-.032.537-.095.853 3.315.789 6.441 2.1 9.378 3.931.222-.284.411-.505.568-.663l8.573-8.573c.947-.947 2.09-1.421 3.433-1.421s2.487.474 3.435 1.421l3.41 3.41c.947.947 1.421 2.092 1.421 3.435 0 1.341-.474 2.486-1.421 3.433l-8.572 8.573c-.159.189-.379.379-.664.568 1.831 2.905 3.142 6.031 3.932 9.378.316-.063.601-.095.853-.095h12.125c1.326 0 2.463.474 3.41 1.421s1.42 2.1 1.42 3.457v4.832c0 1.356-.474 2.51-1.421 3.457s-2.084 1.421-3.41 1.421h-12.125c-.284 0-.568-.032-.853-.095-.79 3.348-2.101 6.474-3.932 9.378.285.222.505.411.664.568l8.572 8.573c.947.947 1.421 2.084 1.421 3.425 0 1.342-.474 2.495-1.421 3.442l-3.41 3.41c-.947.947-2.092 1.421-3.435 1.421s-2.485-.474-3.433-1.421l-8.573-8.572c-.189-.189-.379-.41-.568-.663-2.904 1.83-6.03 3.141-9.378 3.931.062.316.095.601.095.853v12.125c0 1.326-.474 2.463-1.421 3.41s-2.1 1.421-3.456 1.421h-4.832c-1.357 0-2.51-.474-3.458-1.421s-1.421-2.084-1.421-3.41v-12.125c0-.252.031-.536.095-.853-3.315-.79-6.441-2.101-9.378-3.931-.189.253-.379.474-.568.663l-8.573 8.572c-.947.947-2.092 1.421-3.434 1.421-1.341 0-2.486-.474-3.434-1.421l-3.41-3.41c-.947-.947-1.421-2.101-1.421-3.442 0-1.341.474-2.478 1.421-3.425l8.573-8.573c.158-.189.379-.379.663-.568-1.831-2.904-3.142-6.03-3.931-9.378-.315.062-.6.095-.853.095h-12.124c-1.326 0-2.463-.474-3.41-1.421s-1.421-2.101-1.421-3.457zm31.686-12.149c-1.736 2.977-2.605 6.229-2.605 9.733s.869 6.742 2.605 9.725c1.736 2.985 4.097 5.354 7.081 7.09 2.984 1.735 6.229 2.604 9.733 2.604s6.75-.869 9.732-2.604c2.985-1.736 5.346-4.104 7.082-7.09 1.735-2.982 2.604-6.22 2.604-9.725s-.869-6.757-2.604-9.733c-1.736-2.983-4.097-5.344-7.082-7.081-2.982-1.736-6.228-2.605-9.732-2.605s-6.749.869-9.733 2.605c-2.984 1.736-5.345 4.097-7.081 7.081z"/></svg>