<svg version="1" xmlns="http://www.w3.org/2000/svg" width="100" height="100" viewBox="0 0 100 100"><path fill="#1D1D1B" d="M71.78 59.429c-3.602 0-6.844 1.551-9.087 4.026l-21.948-10.837c.129-.714.202-1.45.202-2.201l-.013-.454 22.706-11.923c2.166 1.922 5.017 3.092 8.141 3.092 6.775 0 12.265-5.491 12.265-12.267 0-6.773-5.489-12.267-12.265-12.267s-12.265 5.493-12.265 12.267c0 .506.033 1.003.093 1.494l-22.064 11.587c-2.232-2.339-5.378-3.796-8.865-3.796-6.773 0-12.266 5.492-12.266 12.267 0 6.775 5.492 12.264 12.266 12.264 2.854 0 5.478-.976 7.562-2.612l23.277 11.492-.003.135c0 6.773 5.489 12.267 12.265 12.267s12.265-5.493 12.265-12.269c-.001-6.774-5.49-12.265-12.266-12.265z"/></svg>