<?xml version="1.0" encoding="utf-8"?>
<!-- Generator: Adobe Illustrator 13.0.0, SVG Export Plug-In . SVG Version: 6.00 Build 14948)  -->
<!DOCTYPE svg PUBLIC "-//W3C//DTD SVG 1.1//EN" "http://www.w3.org/Graphics/SVG/1.1/DTD/svg11.dtd">
<svg version="1.1" id="Layer_1" xmlns="http://www.w3.org/2000/svg" xmlns:xlink="http://www.w3.org/1999/xlink" x="0px" y="0px"
	 width="100px" height="100px" viewBox="0 0 100 100" enable-background="new 0 0 100 100" xml:space="preserve">
<g>
	<path d="M1,86.259V30.382h27.56l-4.761,7.431H8.431v41.014H70.08v-9.773l7.396-4.871v22.077H1z M24.808,62.307
		c0-3.607,0.475-6.977,1.425-10.103c0.95-3.125,2.17-5.771,3.662-7.936c1.49-2.164,3.21-4.129,5.158-5.897
		c1.948-1.768,3.884-3.187,5.807-4.256c1.925-1.071,3.812-1.967,5.665-2.688c1.852-0.722,3.415-1.222,4.689-1.498
		c1.272-0.276,2.26-0.414,2.959-0.414h8.366V12.741L98,37.884L62.539,63.821V44.774H49.987c-7.648,0-14.453,3.535-20.417,10.605
		c-1.611,1.925-3.103,4.089-4.474,6.492L24.808,62.307z"/>
</g>
</svg>
