<svg xmlns="http://www.w3.org/2000/svg" viewBox="0 0 44.503 58"><path d="M11.51 54.97l29.704-29.705c-.267-.416-.55-.817-.844-1.207l-30.14 30.14c.418.274.846.527 1.28.772zm4.29 1.862l27.426-27.427c-.177-.503-.367-.996-.577-1.473l-28.38 28.37c.5.198 1.01.367 1.522.53zm3.292.808c.6.1 1.204.18 1.813.237L44.353 34.43c-.066-.61-.154-1.206-.263-1.79l-24.998 25zm8.205-.002l16.886-16.886c.128-.755.212-1.525.258-2.31l-19.48 19.48c.798-.056 1.578-.147 2.34-.284zM42.1 46.935l-8.558 8.56c3.653-1.943 6.63-4.917 8.56-8.56zm-34.187 5.48L38.448 21.88c-.348-.338-.706-.665-1.078-.974L6.85 51.426c.343.347.7.67 1.063.988zm-2.953-3.2l30.007-30.007c-.43-.26-.87-.503-1.32-.73L4.102 48.022c.27.416.565.802.858 1.192zm-2.313-3.84l28.1-28.1c-.522-.17-1.055-.32-1.595-.454L2.01 43.97c.194.49.417.95.637 1.412zM1.01 40.863l24.627-24.628c-.643-.058-1.294-.09-1.953-.097L.63 39.19c.112.57.238 1.13.38 1.672zM34.042 1.677L35.66.06c-.748.035-1.486.092-2.217.166L31.38 2.29c.86-.245 1.75-.445 2.662-.613zM.04 33.627c.018.665.03 1.333.083 1.97l19.134-19.134c-.857.135-1.72.318-2.59.538L.042 33.63zm.18-4.277l16.115-16.117c1.462-2.59 4.08-5.373 7.622-7.622l4.607-4.6c-.94.208-1.863.45-2.77.72L.66 26.858c-.185.824-.334 1.655-.44 2.49zm18.746-24.9c-1.92.982-3.724 2.102-5.394 3.342L6.004 15.36c-1.218 1.656-2.27 3.392-3.136 5.186L18.966 4.45z"/></svg>