<svg xmlns="http://www.w3.org/2000/svg" width="100" height="100" viewBox="0 0 100 100"><path d="M86.609.5c3.261 0 6.058 1.167 8.391 3.5s3.5 5.13 3.5 8.391v74.219c0 3.261-1.167 6.058-3.5 8.391s-5.13 3.5-8.391 3.5h-74.218c-3.292 0-6.097-1.167-8.415-3.5s-3.476-5.131-3.476-8.392v-74.218c0-3.261 1.159-6.058 3.476-8.391s5.122-3.5 8.415-3.5h74.218zm-67.338 30.109c1.55 1.566 3.42 2.35 5.609 2.35 2.19 0 4.06-.783 5.61-2.35 1.55-1.566 2.325-3.46 2.325-5.681 0-2.222-.775-4.107-2.325-5.658s-3.42-2.325-5.61-2.325c-2.189 0-4.059.775-5.609 2.325s-2.325 3.436-2.325 5.658c-.001 2.221.774 4.115 2.325 5.681zm12.394 51.446v-43.39h-13.425v43.39h13.425zm50.39 0v-27.473c0-5.625-1.438-9.909-4.315-12.849-2.876-2.941-6.712-4.411-11.507-4.411-1.726 0-3.348.248-4.866.743-1.518.496-2.757 1.095-3.716 1.798-.959.704-1.798 1.407-2.517 2.11-.72.703-1.223 1.294-1.511 1.774l-.479.767v-5.849h-12.897v43.39h12.897v-22.774c0-3.101.703-5.498 2.11-7.192 1.406-1.694 3.436-2.541 6.089-2.541 4.89 0 7.335 3.244 7.335 9.733v22.773h13.377z"/></svg>