<svg width="50" height="44" viewBox="0 0 50 44" xmlns="http://www.w3.org/2000/svg"><title>Slice 1</title><path d="M23.66 12.98c0 .777.09 1.533.257 2.25-8.2-.413-15.477-4.343-20.344-10.317-.85 1.46-1.333 3.154-1.333 4.967 0 3.42 1.733 6.443 4.387 8.213-1.617-.056-3.14-.5-4.467-1.233l-.007.12c0 4.78 3.4 8.767 7.92 9.677-.833.223-1.7.343-2.6.343-.633 0-1.256-.067-1.86-.177 1.257 3.924 4.9 6.777 9.224 6.857-3.377 2.647-7.634 4.223-12.257 4.223-.8 0-1.583-.046-2.353-.133 4.366 2.8 9.556 4.433 15.133 4.433 18.153 0 28.08-15.043 28.08-28.086 0-.434-.007-.854-.023-1.277 1.926-1.393 3.6-3.133 4.923-5.11-1.767.783-3.667 1.317-5.667 1.553 2.034-1.22 3.6-3.156 4.334-5.46-1.9 1.134-4.014 1.954-6.267 2.4C38.94 4.3 36.373 3.1 33.54 3.1c-5.453 0-9.873 4.42-9.873 9.867l-.007.013z" fill="#000" fill-rule="evenodd"/></svg>
