<svg xmlns="http://www.w3.org/2000/svg" width="100" height="100" viewBox="0 0 100 100"><path d="M86.609.5c3.292 0 6.098 1.159 8.415 3.476s3.476 5.122 3.476 8.415v74.219c0 3.292-1.158 6.089-3.476 8.406s-5.123 3.484-8.415 3.484h-74.218c-3.292 0-6.097-1.167-8.415-3.484s-3.476-5.115-3.476-8.407v-74.218c0-3.292 1.159-6.097 3.476-8.415s5.122-3.476 8.415-3.476h74.218zm-9.541 37.397c2.621-1.918 4.843-4.235 6.664-6.952-2.429 1.086-4.986 1.79-7.671 2.109 2.909-1.726 4.875-4.187 5.897-7.383-2.653 1.566-5.481 2.653-8.486 3.26-2.653-2.813-5.913-4.219-9.781-4.219-2.812 0-5.346.775-7.599 2.325-2.254 1.55-3.876 3.596-4.867 6.137-.99 2.541-1.166 5.186-.527 7.935-5.497-.288-10.627-1.662-15.39-4.123-4.762-2.461-8.822-5.737-12.178-9.829-1.79 2.972-2.285 6.193-1.486 9.661.799 3.468 2.669 6.193 5.609 8.175-2.142-.064-4.155-.623-6.041-1.678-.064 3.132.911 5.961 2.925 8.502 2.014 2.541 4.603 4.14 7.767 4.778-1.982.544-3.979.623-5.993.24.831 2.685 2.397 4.89 4.698 6.616 2.302 1.726 4.891 2.604 7.768 2.637-2.813 2.206-5.93 3.788-9.35 4.747s-6.904 1.23-10.452.814c6.265 3.996 13.105 5.993 20.521 5.993 4.795 0 9.302-.783 13.521-2.333 4.22-1.55 7.831-3.644 10.836-6.281 3.005-2.637 5.577-5.642 7.719-9.029s3.7-6.984 4.675-10.771c.973-3.788 1.382-7.559 1.221-11.331z"/></svg>