<svg xmlns="http://www.w3.org/2000/svg" width="100" height="100" viewBox="0 0 100 100"><path d="M86.586.5c3.299 0 6.109 1.161 8.432 3.483 2.321 2.322 3.482 5.132 3.482 8.431v74.172c0 3.299-1.161 6.102-3.482 8.423-2.322 2.322-5.133 3.491-8.432 3.491h-16.525v-40.689h11.338l1.2-13.595-12.538-.192v-7.734c0-1.697.248-2.874.745-3.531.496-.657 1.497-.985 3.002-.985h8.791v-14.076h-11.242c-11.689 0-17.534 5.22-17.534 15.661v10.857h-8.407v13.787h8.407v40.449l.048.048h-41.457c-3.298 0-6.109-1.169-8.431-3.491-2.322-2.321-3.483-5.124-3.483-8.423v-74.172c0-3.298 1.161-6.109 3.483-8.431s5.132-3.483 8.431-3.483h74.172z"/></svg>