<svg width="46" height="47" viewBox="0 0 46 47" xmlns="http://www.w3.org/2000/svg"><title>social-linkedin</title><path d="M10.733 5.68c0 2.773-2.043 5.017-5.41 5.017C2.157 10.697.11 8.45.11 5.677c0-2.83 2.113-5.01 5.347-5.01 3.233 0 5.21 2.176 5.276 5.013zM.377 14.653H10.4V46.92H.38V14.653H.377zm14.446 10.3c0-4.033-.133-7.393-.266-10.3h8.71l.46 4.49h.2c1.32-2.113 4.553-5.213 9.966-5.213 6.594 0 11.544 4.417 11.544 13.92v19.067H35.41V29.033c0-4.153-1.45-6.99-5.08-6.99-2.767 0-4.423 1.914-5.147 3.767-.266.657-.333 1.58-.333 2.5v18.61H14.827V24.953h-.004z" fill="#000" fill-rule="evenodd"/></svg>
