<svg xmlns="http://www.w3.org/2000/svg" width="100" height="100" viewBox="0 0 100 100"><path d="M86.586.5c3.299 0 6.109 1.161 8.432 3.483 2.321 2.322 3.482 5.132 3.482 8.431v74.172c0 3.299-1.161 6.102-3.482 8.423-2.322 2.322-5.133 3.491-8.432 3.491h-74.172c-3.298 0-6.109-1.169-8.431-3.491-2.322-2.321-3.483-5.124-3.483-8.423v-74.172c0-3.298 1.161-6.109 3.483-8.431s5.132-3.483 8.431-3.483h74.172zm-7.638 70.81v-35.742l-29.448 24.357-29.448-24.404v35.789h58.896zm-.048-43.62h-58.704l29.304 24.308 29.4-24.308z"/></svg>