<svg width="15" height="13" viewBox="0 0 15 13" xmlns="http://www.w3.org/2000/svg"><title>twitter</title><path d="M7.098 3.894c0 .233.027.46.077.675-2.46-.124-4.643-1.303-6.103-3.095-.255.438-.4.946-.4 1.49 0 1.026.52 1.933 1.316 2.464-.485-.017-.942-.15-1.34-.37l-.002.036c0 1.434 1.02 2.63 2.376 2.903-.25.067-.51.103-.78.103-.19 0-.377-.02-.558-.053.377 1.177 1.47 2.033 2.767 2.057-1.013.794-2.29 1.267-3.677 1.267-.24 0-.475-.014-.706-.04 1.31.84 2.867 1.33 4.54 1.33 5.446 0 8.424-4.513 8.424-8.426 0-.13-.002-.256-.007-.383.578-.418 1.08-.94 1.477-1.533-.53.235-1.1.395-1.7.466.61-.366 1.08-.947 1.3-1.638-.57.34-1.204.586-1.88.72-.54-.577-1.31-.937-2.16-.937-1.636 0-2.962 1.326-2.962 2.96z" fill="#000" fill-rule="evenodd"/></svg>
