<svg width="15" height="15" viewBox="0 0 15 15" xmlns="http://www.w3.org/2000/svg"><title>linkedin</title><path d="M4.12 1.704c0 .832-.613 1.505-1.623 1.505-.95 0-1.564-.674-1.564-1.506C.933.854 1.567.2 2.537.2 3.507.2 4.1.853 4.12 1.704zM1.013 4.396H4.02v9.68H1.014v-9.68zm4.334 3.09c0-1.21-.04-2.218-.08-3.09H7.88l.138 1.347h.06c.396-.634 1.366-1.564 2.99-1.564 1.978 0 3.463 1.325 3.463 4.176v5.72h-3.008V8.71c0-1.246-.435-2.097-1.524-2.097-.83 0-1.327.574-1.544 1.13-.08.197-.1.474-.1.75v5.583H5.348v-6.59" fill="#000" fill-rule="evenodd"/></svg>
