<?xml version="1.0" encoding="utf-8"?>
<!-- Generator: Adobe Illustrator 13.0.0, SVG Export Plug-In . SVG Version: 6.00 Build 14948)  -->
<!DOCTYPE svg PUBLIC "-//W3C//DTD SVG 1.1//EN" "http://www.w3.org/Graphics/SVG/1.1/DTD/svg11.dtd">
<svg version="1.1" id="Layer_1" xmlns="http://www.w3.org/2000/svg" xmlns:xlink="http://www.w3.org/1999/xlink" x="0px" y="0px"
	 width="100px" height="100px" viewBox="0 0 100 100" enable-background="new 0 0 100 100" xml:space="preserve">
<g>
	<path d="M86.609,0.5C89.87,0.5,92.667,1.667,95,4s3.5,5.13,3.5,8.391v74.219c0,3.261-1.167,6.058-3.5,8.391s-5.13,3.5-8.391,3.5
		H12.391c-3.292,0-6.097-1.167-8.415-3.5S0.5,89.87,0.5,86.609V12.391C0.5,9.13,1.659,6.333,3.976,4s5.122-3.5,8.415-3.5H86.609z
		 M19.271,30.609c1.55,1.566,3.42,2.35,5.609,2.35c2.19,0,4.06-0.783,5.61-2.35c1.55-1.566,2.325-3.46,2.325-5.681
		c0-2.222-0.775-4.107-2.325-5.658s-3.42-2.325-5.61-2.325c-2.189,0-4.059,0.775-5.609,2.325s-2.325,3.436-2.325,5.658
		C16.945,27.149,17.72,29.043,19.271,30.609z M31.665,82.055v-43.39H18.24v43.39H31.665z M82.055,82.055V54.582
		c0-5.625-1.438-9.909-4.315-12.849c-2.876-2.941-6.712-4.411-11.507-4.411c-1.726,0-3.348,0.248-4.866,0.743
		c-1.518,0.496-2.757,1.095-3.716,1.798c-0.959,0.704-1.798,1.407-2.517,2.11c-0.72,0.703-1.223,1.294-1.511,1.774l-0.479,0.767
		v-5.849H40.247v43.39h12.897V59.281c0-3.101,0.703-5.498,2.11-7.192c1.406-1.694,3.436-2.541,6.089-2.541
		c4.89,0,7.335,3.244,7.335,9.733v22.773H82.055z"/>
</g>
</svg>
