<?xml version="1.0" encoding="UTF-8" standalone="no"?>
<svg width="15px" height="15px" viewBox="0 0 15 15" version="1.1" xmlns="http://www.w3.org/2000/svg" xmlns:xlink="http://www.w3.org/1999/xlink" xmlns:sketch="http://www.bohemiancoding.com/sketch/ns">
    <!-- Generator: Sketch 3.4.4 (17249) - http://www.bohemiancoding.com/sketch -->
    <title>linkedin</title>
    <desc>Created with Sketch.</desc>
    <defs></defs>
    <g id="Page-1" stroke="none" stroke-width="1" fill="none" fill-rule="evenodd" sketch:type="MSPage">
        <g id="button-states" sketch:type="MSArtboardGroup" transform="translate(-85.000000, -144.000000)" fill="#333333">
            <g id="Group-+-1_il-+-2_oil" sketch:type="MSLayerGroup" transform="translate(-229.000000, -2.000000)">
                <g id="Group" sketch:type="MSShapeGroup">
                    <g id="Oval-1-Copy-5-Copy-2-+-bookmark-icon">
                        <g>
                            <path d="M318.119662,147.704284 C318.119662,148.535616 317.507189,149.208902 316.497428,149.208902 C315.546809,149.208902 314.933333,148.535616 314.933333,147.704284 C314.933333,146.852903 315.566857,146.2 316.536856,146.2 C317.507189,146.2 318.099948,146.852903 318.119662,147.704284 L318.119662,147.704284 L318.119662,147.704284 Z M315.012524,150.39609 L318.021092,150.39609 L318.021092,160.075699 L315.012524,160.075699 L315.012524,150.39609 L315.012524,150.39609 Z M319.346525,153.484517 C319.346525,152.27728 319.306763,151.267519 319.266667,150.396424 L321.879951,150.396424 L322.017949,151.742661 L322.078094,151.742661 C322.474046,151.109138 323.443711,150.178567 325.066613,150.178567 C327.04604,150.178567 328.53061,151.50509 328.53061,154.355611 L328.53061,160.075699 L325.521708,160.075699 L325.521708,154.711467 C325.521708,153.464468 325.086662,152.613088 323.99771,152.613088 C323.166711,152.613088 322.671187,153.187469 322.453664,153.741802 C322.374473,153.939945 322.355093,154.21661 322.355093,154.493944 L322.355093,160.075699 L319.346525,160.075699 L319.346525,153.484517" id="linkedin"></path>
                        </g>
                    </g>
                </g>
            </g>
        </g>
    </g>
</svg>