<?xml version="1.0" encoding="utf-8"?>
<!-- Generator: Adobe Illustrator 13.0.0, SVG Export Plug-In . SVG Version: 6.00 Build 14948)  -->
<!DOCTYPE svg PUBLIC "-//W3C//DTD SVG 1.1//EN" "http://www.w3.org/Graphics/SVG/1.1/DTD/svg11.dtd">
<svg version="1.1" id="Layer_1" xmlns="http://www.w3.org/2000/svg" xmlns:xlink="http://www.w3.org/1999/xlink" x="0px" y="0px"
	 width="100px" height="100px" viewBox="0 0 100 100" enable-background="new 0 0 100 100" xml:space="preserve">
<path d="M57.901,29.5c-6.88,0-12.456,5.575-12.456,12.455c0,0.779,0.072,1.542,0.21,2.281L30.5,59.392v7.473
	c0,1.377,1.114,2.492,2.491,2.492h2.491v-2.492h4.982v-4.981h4.981V56.9h4.982l3.232-3.231c1.325,0.479,2.751,0.74,4.242,0.74
	c6.878,0,12.454-5.575,12.454-12.454C70.355,35.075,64.779,29.5,57.901,29.5 M61.633,41.96c-2.064,0-3.736-1.673-3.736-3.736
	c0-2.064,1.672-3.737,3.736-3.737c2.063,0,3.735,1.673,3.735,3.737C65.368,40.287,63.696,41.96,61.633,41.96"/>
</svg>
