<svg xmlns="http://www.w3.org/2000/svg" width="100" height="100" viewBox="0 0 100 100"><path d="M65.775 9.5c-14.129 0-25.582 11.45-25.582 25.58 0 1.601.148 3.167.432 4.686l-31.125 31.128v15.348c0 2.828 2.287 5.118 5.116 5.118h5.116v-5.118h10.231v-10.232h10.229v-10.235h10.232l6.639-6.637c2.722.984 5.65 1.52 8.711 1.52 14.127 0 25.58-11.45 25.58-25.578.001-14.13-11.452-25.58-25.579-25.58m7.666 25.59c-4.24 0-7.674-3.436-7.674-7.671 0-4.24 3.434-7.678 7.674-7.678 4.235 0 7.671 3.438 7.671 7.678 0 4.235-3.435 7.671-7.671 7.671"/></svg>