<?xml version="1.0" encoding="utf-8"?>
<!-- Generator: Adobe Illustrator 16.0.4, SVG Export Plug-In . SVG Version: 6.00 Build 0)  -->
<!DOCTYPE svg PUBLIC "-//W3C//DTD SVG 1.1//EN" "http://www.w3.org/Graphics/SVG/1.1/DTD/svg11.dtd">
<svg version="1.1" id="Layer_1" xmlns="http://www.w3.org/2000/svg" xmlns:xlink="http://www.w3.org/1999/xlink" x="0px" y="0px"
	 width="100px" height="100px" viewBox="0 0 100 100" enable-background="new 0 0 100 100" xml:space="preserve">
<path d="M65.775,9.5c-14.129,0-25.582,11.45-25.582,25.58c0,1.601,0.148,3.167,0.432,4.686L9.5,70.894v15.348
	c0,2.828,2.287,5.118,5.116,5.118h5.116v-5.118h10.231V76.01h10.229V65.775h10.232l6.639-6.637c2.722,0.984,5.65,1.52,8.711,1.52
	c14.127,0,25.58-11.45,25.58-25.578C91.355,20.95,79.902,9.5,65.775,9.5 M73.441,35.09c-4.24,0-7.674-3.436-7.674-7.671
	c0-4.24,3.434-7.678,7.674-7.678c4.235,0,7.671,3.438,7.671,7.678C81.112,31.654,77.677,35.09,73.441,35.09"/>
</svg>
