<svg xmlns="http://www.w3.org/2000/svg" width="100" height="100" viewBox="0 0 100 100"><path d="M76.815 58.912l-.662.069c1.092.187 2.026.709 2.805 1.567.778.86 1.236 1.905 1.376 3.136.14 1.44-.197 2.724-1.01 3.85-.813 1.127-1.87 1.76-3.171 1.899l-1.638.174c.836.302 1.545.871 2.125 1.707.581.837.929 1.812 1.046 2.927.139 1.463-.14 2.753-.836 3.867-.697 1.115-1.615 1.73-2.753 1.847l-13.064 1.324c-6.48 1.067-11.719 1.603-15.713 1.603-2.253 0-4.396-.128-6.428-.384-2.033-.256-3.699-.569-5-.94l-3.955-1.132c-1.335-.384-2.438-.709-3.31-.976-.871-.268-1.899-.431-3.083-.488s-2.253.063-3.205.366v-26.514c0-.301.528-.645 1.585-1.027l3.17-1.149c1.057-.384 1.585-.715 1.585-.993l2.578-5.052c1.719-3.345 3.472-6.834 5.261-10.47 1.789-3.635 2.752-5.743 2.892-6.323.301-1.254.487-6.317.557-15.19l.313-.174c.209-.14.493-.273.854-.401.36-.127.772-.255 1.237-.383.464-.127.981-.168 1.551-.122.569.047 1.144.157 1.725.331.58.174 1.178.517 1.794 1.028.615.511 1.196 1.156 1.742 1.934.545.779 1.068 1.812 1.568 3.101.499 1.289.923 2.758 1.271 4.407.441 2.137.767 4.1.976 5.888.209 1.789.308 3.264.296 4.425-.012 1.162-.104 2.207-.279 3.136-.174.929-.359 1.637-.557 2.125-.198.488-.424.9-.68 1.237-.255.337-.43.54-.522.61-.093.069-.174.116-.244.139l2.997-.035 21.008-2.16c1.277-.116 2.416.296 3.414 1.237.999.94 1.573 2.137 1.725 3.588.151 1.452-.168 2.741-.958 3.867-.79 1.127-1.823 1.76-3.101 1.898l-6.306.628.034.243 7.909-.801c1.463-.162 2.764.221 3.902 1.149 1.138.93 1.782 2.125 1.934 3.589.15 1.463-.239 2.764-1.168 3.901-.927 1.139-2.124 1.777-3.587 1.917z"/></svg>