<?xml version="1.0" encoding="utf-8"?>
<!-- Generator: Adobe Illustrator 13.0.0, SVG Export Plug-In . SVG Version: 6.00 Build 14948)  -->
<!DOCTYPE svg PUBLIC "-//W3C//DTD SVG 1.1//EN" "http://www.w3.org/Graphics/SVG/1.1/DTD/svg11.dtd">
<svg version="1.1" id="Layer_1" xmlns="http://www.w3.org/2000/svg" xmlns:xlink="http://www.w3.org/1999/xlink" x="0px" y="0px"
	 width="100px" height="100px" viewBox="0 0 100 100" enable-background="new 0 0 100 100" xml:space="preserve">
<g>
	<path d="M86.609,0.5c3.292,0,6.098,1.159,8.415,3.476S98.5,9.098,98.5,12.391v74.219c0,3.292-1.158,6.089-3.476,8.406
		S89.901,98.5,86.609,98.5H12.391c-3.292,0-6.097-1.167-8.415-3.484S0.5,89.901,0.5,86.609V12.391c0-3.292,1.159-6.097,3.476-8.415
		S9.098,0.5,12.391,0.5H86.609z M77.068,37.897c2.621-1.918,4.843-4.235,6.664-6.952c-2.429,1.086-4.986,1.79-7.671,2.109
		c2.909-1.726,4.875-4.187,5.897-7.383c-2.653,1.566-5.481,2.653-8.486,3.26c-2.653-2.813-5.913-4.219-9.781-4.219
		c-2.812,0-5.346,0.775-7.599,2.325c-2.254,1.55-3.876,3.596-4.867,6.137c-0.99,2.541-1.166,5.186-0.527,7.935
		c-5.497-0.288-10.627-1.662-15.39-4.123c-4.762-2.461-8.822-5.737-12.178-9.829c-1.79,2.972-2.285,6.193-1.486,9.661
		c0.799,3.468,2.669,6.193,5.609,8.175c-2.142-0.064-4.155-0.623-6.041-1.678c-0.064,3.132,0.911,5.961,2.925,8.502
		c2.014,2.541,4.603,4.14,7.767,4.778c-1.982,0.544-3.979,0.623-5.993,0.24c0.831,2.685,2.397,4.89,4.698,6.616
		c2.302,1.726,4.891,2.604,7.768,2.637c-2.813,2.206-5.93,3.788-9.35,4.747s-6.904,1.23-10.452,0.814
		c6.265,3.996,13.105,5.993,20.521,5.993c4.795,0,9.302-0.783,13.521-2.333c4.22-1.55,7.831-3.644,10.836-6.281
		c3.005-2.637,5.577-5.642,7.719-9.029s3.7-6.984,4.675-10.771C76.82,45.44,77.229,41.669,77.068,37.897z"/>
</g>
</svg>
