<?xml version="1.0" encoding="UTF-8" standalone="no"?>
<svg width="15px" height="13px" viewBox="0 0 15 13" version="1.1" xmlns="http://www.w3.org/2000/svg" xmlns:xlink="http://www.w3.org/1999/xlink" xmlns:sketch="http://www.bohemiancoding.com/sketch/ns">
    <!-- Generator: Sketch 3.4.4 (17249) - http://www.bohemiancoding.com/sketch -->
    <title>twitter</title>
    <desc>Created with Sketch.</desc>
    <defs></defs>
    <g id="Page-1" stroke="none" stroke-width="1" fill="none" fill-rule="evenodd" sketch:type="MSPage">
        <g id="button-states" sketch:type="MSArtboardGroup" transform="translate(-85.000000, -109.000000)" fill="#333333">
            <g id="Group-+-1_il-+-2_oil" sketch:type="MSLayerGroup" transform="translate(-229.000000, -2.000000)">
                <g id="Group" sketch:type="MSShapeGroup">
                    <g id="Oval-1-Copy-5-Copy-2-+-bookmark-icon">
                        <g>
                            <path d="M321.098449,114.894471 C321.098449,115.126737 321.124618,115.352675 321.175073,115.569377 C318.714043,115.445889 316.531972,114.266942 315.0715,112.475345 C314.816657,112.912683 314.670593,113.421342 314.670593,113.964209 C314.670593,114.991448 315.193449,115.897936 315.987908,116.428831 C315.50251,116.413437 315.046016,116.280201 314.646648,116.058539 L314.646306,116.095824 C314.646306,117.53047 315.667217,118.727377 317.021818,118.999323 C316.773303,119.067053 316.51179,119.103142 316.241725,119.103142 C316.05085,119.103142 315.865276,119.084499 315.684491,119.050121 C316.061283,120.226503 317.154884,121.082707 318.45082,121.106652 C317.437263,121.900769 316.160483,122.374196 314.773043,122.374196 C314.534107,122.374196 314.29842,122.360171 314.066667,122.332805 C315.377141,123.173102 316.933735,123.66329 318.605949,123.66329 C324.052746,123.66329 327.031158,119.151032 327.031158,115.23791 C327.031158,115.109463 327.028421,114.981699 327.022777,114.854791 C327.601219,114.437293 328.103379,113.915806 328.500353,113.321971 C327.969288,113.557486 327.398542,113.71672 326.799576,113.788042 C327.411028,113.421684 327.88052,112.841361 328.101498,112.149864 C327.529555,112.48937 326.895698,112.735661 326.221134,112.868555 C325.681004,112.29285 324.911344,111.933333 324.059758,111.933333 C322.424146,111.933333 321.098449,113.259201 321.098449,114.894471 L321.098449,114.894471 Z" id="twitter"></path>
                        </g>
                    </g>
                </g>
            </g>
        </g>
    </g>
</svg>