<?xml version="1.0" encoding="utf-8"?>
<!-- Generator: Adobe Illustrator 13.0.0, SVG Export Plug-In . SVG Version: 6.00 Build 14948)  -->
<!DOCTYPE svg PUBLIC "-//W3C//DTD SVG 1.1//EN" "http://www.w3.org/Graphics/SVG/1.1/DTD/svg11.dtd">
<svg version="1.1" id="Layer_1" xmlns="http://www.w3.org/2000/svg" xmlns:xlink="http://www.w3.org/1999/xlink" x="0px" y="0px"
	 width="100px" height="100px" viewBox="0 0 100 100" enable-background="new 0 0 100 100" xml:space="preserve">
<g>
	<path d="M16.98,48.618c-0.048-0.21-0.07-0.353-0.07-0.431c0-0.081,0.008-0.176,0.022-0.287c0.018-0.114,0.066-0.209,0.144-0.305
		c0.081-0.096,0.202-0.173,0.36-0.239c0.67-0.413,1.039-0.781,1.102-1.101c0.033-0.125-0.048-0.207-0.24-0.24
		c-0.607-0.095-0.924-0.302-0.957-0.622c-0.033-0.158,0.062-0.287,0.287-0.383c0.67-0.32,1.307-0.479,1.915-0.479
		c0.096,0,0.335-0.173,0.718-0.526c0.383-0.35,0.703-0.56,0.958-0.622c0.158-0.062,0.294-0.225,0.405-0.457
		c0.114-0.239,0.169-0.457,0.169-0.648v-0.335c0.32-1.116,0.574-1.771,0.766-1.963c0.191-0.128,0.328-0.128,0.405,0
		c0.082,0.129,0.21,0.295,0.383,0.504c0.176,0.206,0.361,0.295,0.552,0.262c0.32-0.033,0.781-0.159,1.389-0.383
		c0.191-0.062,0.35-0.055,0.479,0.026c0.128,0.078,0.287,0.07,0.479-0.026c0.159-0.033,0.357-0.11,0.6-0.239
		c0.239-0.129,0.405-0.199,0.501-0.214c0.096-0.019,0.272,0.007,0.526,0.07c0.225,0.096,0.423,0.265,0.6,0.504
		c0.173,0.239,0.357,0.534,0.549,0.884c0.191,0.35,0.335,0.589,0.431,0.718c0.191,0.225,0.32,0.56,0.383,1.009
		c0.062,0.445,0.158,0.732,0.287,0.861c0.033,0.033,0.096,0.096,0.191,0.191s0.158,0.159,0.191,0.21
		c0.033,0.045,0.081,0.125,0.144,0.236c0.062,0.113,0.121,0.242,0.169,0.383c0.048,0.146,0.103,0.32,0.166,0.512
		c0.096,0.383,0.375,0.703,0.839,0.957c0.461,0.258,0.693,0.497,0.693,0.718c0,1.819-0.096,2.92-0.287,3.303
		c-0.033,0.066-0.28,0.225-0.741,0.497c-0.463,0.27-0.729,0.527-0.791,0.752c-0.254,0.7-0.829,1.355-1.724,1.959
		c-0.637,0.287-1.094,0.448-1.362,0.494c-0.272,0.051-0.538-0.031-0.792-0.252c-0.096-0.095-0.225-0.367-0.383-0.816
		c-0.159-0.449-0.35-0.715-0.574-0.812c-0.383-0.095-0.744-0.286-1.079-0.56c-0.335-0.271-0.549-0.574-0.645-0.928
		c-0.096-0.349-0.287-0.556-0.575-0.622c-0.287-0.062-0.542,0.018-0.766,0.239c-0.479,0.353-0.751,0.593-0.814,0.718
		c-0.225,0.578-0.78,0.496-1.675-0.24c-2.106-0.699-3.193-1.292-3.255-1.771C17.053,49,17.028,48.824,16.98,48.618z M25.383,10.156
		l0.479-0.861c-0.063-0.641-0.129-1.263-0.192-1.868c-0.128-0.928,0.254-1.532,1.149-1.819c0.287-0.128,0.718-0.479,1.292-1.053
		c0.575-0.575,1.086-1.053,1.532-1.437c0.446-0.383,0.766-0.449,0.958-0.191c0.383,0.316,0.589,0.979,0.622,1.984
		c0.034,1.005-0.11,1.558-0.431,1.654c-0.637,0.287-0.957,0.732-0.957,1.34c0,0.288-0.062,0.52-0.192,0.692
		c-0.128,0.177-0.416,0.417-0.862,0.718c-0.445,0.306-0.718,0.486-0.813,0.552c-0.159,0.126-0.32,0.31-0.479,0.549
		c-0.158,0.239-0.288,0.431-0.383,0.574c-0.095,0.144-0.232,0.247-0.405,0.313c-0.177,0.062-0.361-0.033-0.552-0.287L25.383,10.156z
		 M26.053,15.182l0.287-0.526c0.096-0.162,0.328-0.247,0.696-0.265c0.365-0.015,0.548-0.166,0.548-0.453
		c0-0.287,0.082-0.438,0.24-0.457c0.159-0.015,0.383,0.055,0.67,0.217c0.159,0.062,0.287,0.11,0.383,0.144
		c0.191,0.096,0.32,0.088,0.383-0.026c0.062-0.11,0.121-0.39,0.169-0.835c0.048-0.449,0.118-0.847,0.214-1.197
		c0.192-0.737,0.446-0.785,0.766-0.144c0.033,0.096,0.096,0.239,0.191,0.431c0.129,0.287,0.225,0.493,0.287,0.622
		c0.192,0.221,0.313,0.494,0.361,0.813c0.048,0.317,0.056,0.589,0.022,0.814c-0.033,0.222-0.096,0.549-0.191,0.979
		c-0.096,0.431,0.015,0.767,0.335,1.005c0.32,0.239,0.655,0.361,1.005,0.361c0.254-0.192,0.313-0.52,0.169-0.983
		c-0.144-0.46-0.36-0.95-0.647-1.458c-0.096-0.258-0.015-0.552,0.239-0.888c0.254-0.335,0.335-0.615,0.239-0.836
		c-0.287-0.799-0.224-1.484,0.192-2.059c0.191-0.191,0.438-0.32,0.744-0.383c0.302-0.066,0.67-0.096,1.101-0.096
		s0.755-0.033,0.979-0.096c0.287-0.095,0.383-0.184,0.287-0.264c-0.096-0.078-0.247-0.232-0.453-0.454
		c-0.21-0.225-0.28-0.431-0.217-0.622c0.033-0.225,0.103-0.457,0.217-0.696c0.11-0.239,0.191-0.461,0.239-0.67
		c0.048-0.207,0.056-0.472,0.023-0.789c0-0.033,0-0.096,0-0.191c-0.034-0.225-0.041-0.354-0.023-0.383
		c0.015-0.033,0.071-0.033,0.166,0c0.254,0.063,0.494,0.096,0.718,0.096c0.32,0,0.526-0.066,0.622-0.191
		c0.096-0.129,0.111-0.295,0.048-0.505C37,4.994,37.015,4.761,37.111,4.507c0.062-0.258,0.206-0.623,0.431-1.102
		c0.225-0.478,0.368-0.847,0.431-1.101c0.095-0.354,0.246-0.582,0.456-0.696c0.207-0.11,0.438-0.07,0.692,0.122
		c0.254,0.35,1.164,0.67,2.729,0.957c0.512,0.125,1.834,0.062,3.973-0.191c0.162,0,0.32-0.033,0.479-0.096
		c0.162-0.066,0.287-0.128,0.383-0.192c0.096-0.066,0.24-0.15,0.431-0.265c0.192-0.111,0.369-0.213,0.527-0.309
		c0.607-0.288,1.277-0.096,2.011,0.574c0.191,0.126,0.294,0.269,0.313,0.431c0.015,0.158,0,0.317-0.048,0.479
		c-0.048,0.159-0.114,0.383-0.192,0.67c-0.081,0.288-0.136,0.556-0.169,0.813c-0.03,0.446-0.062,0.733-0.096,0.862
		c-0.029,0.125-0.143,0.262-0.335,0.405c-0.191,0.144-0.365,0.313-0.527,0.504c-0.158,0.221-0.412,0.556-0.766,1.005
		c-0.35,0.446-0.645,0.814-0.884,1.101s-0.408,0.527-0.504,0.718c-0.03,0.192-0.199,0.342-0.501,0.453
		c-0.305,0.114-0.56,0.209-0.766,0.288c-0.209,0.081-0.265,0.198-0.169,0.36c0.254,0.288,0.391,0.438,0.409,0.453
		c0.015,0.018-0.055,0.217-0.217,0.6c-0.033,0.063-0.144,0.239-0.335,0.526c-0.192,0.288-0.335,0.589-0.431,0.91
		c0,0.125,0,0.214,0,0.262s0.062,0.073,0.191,0.073c0.129,0,0.247-0.018,0.361-0.047c0.111-0.033,0.276-0.074,0.501-0.122
		c0.225-0.048,0.431-0.07,0.623-0.07c0.32-0.033,0.567-0.136,0.744-0.313c0.173-0.173,0.405-0.262,0.692-0.262
		c0.258,0,0.622,0.119,1.101,0.358c0.479,0.239,0.847,0.375,1.102,0.409c0.191,0.029,0.526-0.019,1.006-0.144
		c0.478-0.128,0.927-0.081,1.34,0.144c0.287,0.125,0.589,0.166,0.912,0.118c0.317-0.048,0.546-0.088,0.693-0.118
		c0.14-0.033,0.36-0.114,0.648-0.24c0.286-0.128,0.521-0.209,0.714-0.239c0.448-0.129,0.751-0.144,0.913-0.048
		c0.154,0.096,0.317,0.335,0.479,0.718c0.029,0.096,0.06,0.158,0.096,0.191c0.059,0.125,0.229,0.383,0.501,0.766
		c0.272,0.383,0.449,0.7,0.522,0.957c0.081,0.254,0.114,0.527,0.074,0.813c-0.096,0.288-0.339,0.575-0.744,0.862
		c-0.396,0.287-0.641,0.479-0.736,0.575c-0.133,0.128-0.229,0.471-0.287,1.028c-0.066,0.559-0.162,0.95-0.287,1.174
		c-0.066,0.096-0.14,0.512-0.221,1.245c-0.074,0.733-0.324,1.164-0.737,1.293c-0.354,0.128-0.641,0.368-0.861,0.718
		c-0.229,0.35-0.376,0.637-0.457,0.862s-0.198,0.623-0.36,1.197c-0.096,0.512-0.456,1.116-1.075,1.819
		c-0.626,0.703-0.936,1.067-0.936,1.101c-0.065,0.225,0.141,0.501,0.597,0.836c0.464,0.335,0.678,0.567,0.648,0.696
		c0,0.192-0.214,0.376-0.648,0.549c-0.427,0.177-0.868,0.313-1.314,0.409l-0.67,0.144c0,0.033-0.015,0.055-0.048,0.07
		c-0.029,0.018-0.077,0.059-0.143,0.122c-0.063,0.062-0.137,0.136-0.214,0.213c-0.081,0.081-0.162,0.169-0.24,0.265
		c-0.081,0.096-0.143,0.191-0.191,0.287s-0.096,0.199-0.144,0.31c-0.048,0.114-0.073,0.21-0.073,0.287
		c0,0.081,0.025,0.162,0.073,0.24c0.048,0.081,0.118,0.154,0.214,0.217c0.225,0.191,0.471,0.239,0.744,0.143
		c0.269-0.096,0.494-0.239,0.67-0.431c0.173-0.191,0.372-0.398,0.6-0.622c0.221-0.225,0.397-0.369,0.523-0.431
		c0.257-0.128,0.823,0.062,1.701,0.574c0.876,0.512,1.348,0.767,1.414,0.767c0.125,0,0.221,0.11,0.286,0.335
		c0.06,0.224,0.155,0.383,0.288,0.479c0.221,0.129,0.516,0.368,0.884,0.718c0.367,0.35,0.566,0.622,0.596,0.813
		c0,0.129,0.096,0.309,0.288,0.549c0.191,0.242,0.383,0.456,0.573,0.647l0.288,0.287c0.711,0.766,1.123,1.532,1.249,2.298
		c0.095,0.575,0.322,1.51,0.67,2.802c0.353,1.292,0.574,2.037,0.67,2.228c0.516,1.278,0.766,2.202,0.766,2.776
		c0,0.32,0.272,0.575,0.817,0.784c0.537,0.206,1.017,0.317,1.437,0.317c0.059,0,0.176-0.015,0.331-0.03
		c0.162-0.018,0.272-0.018,0.339,0c0.059,0.015,0.14,0.048,0.25,0.096c0.118,0.048,0.229,0.143,0.324,0.269
		c0.06,0.066,0.177,0.225,0.331,0.479c0.163,0.257,0.303,0.464,0.435,0.622c0.125,0.162,0.303,0.32,0.523,0.497
		c0.228,0.173,0.449,0.269,0.67,0.269c0.324,0.066,0.479,0.272,0.479,0.623c0,0.354,0.015,0.641,0.051,0.861
		c0.06,0.129,0.235,0.335,0.523,0.638c0.287,0.301,0.53,0.589,0.722,0.861c0.19,0.272,0.235,0.529,0.14,0.75
		c-0.096,0.192-0.272,0.244-0.509,0.148c-0.242-0.097-0.353-0.066-0.353,0.096c-0.06,0.316,0.11,0.935,0.545,1.863
		c0.427,0.927,0.861,1.502,1.274,1.724c0.382,0.257,0.589,0.478,0.641,0.685c0.044,0.206-0.081,0.367-0.398,0.464
		c-0.449,0.162-0.449,0.658,0,1.491c0.096,0.221,0.303,0.383,0.619,0.479c0.324,0.096,0.493,0.251,0.529,0.479
		c0.03,0.317,0.222,0.619,0.575,0.921c0.347,0.309,0.538,0.479,0.574,0.516c0.155,0.191,0.221,0.463,0.206,0.811
		c-0.015,0.354-0.206,0.766-0.589,1.244c-0.449,0.545-0.707,1.149-0.751,1.819c-0.052,0.67,0.161,1.163,0.604,1.486
		c0.132,0.061,0.243,0.097,0.354,0.097s0.206-0.015,0.272-0.036c0.06-0.016,0.125-0.045,0.191-0.111
		c0.06-0.06,0.111-0.125,0.141-0.191c0.036-0.059,0.051-0.14,0.066-0.235c0.015-0.097,0.029-0.178,0.044-0.243
		c0.021-0.06,0.036-0.206,0.036-0.427c0.03-0.229,0.191-0.339,0.494-0.339c0.302,0,0.464-0.06,0.464-0.191
		c0-0.06,0.029-0.126,0.11-0.192c0.081-0.059,0.206-0.125,0.383-0.176c0.177-0.045,0.332-0.074,0.479-0.096
		c0.14-0.015,0.354-0.045,0.619-0.096c0.272-0.045,0.5-0.074,0.655-0.11c0.516-0.061,0.848-0.015,1.023,0.146
		c0.177,0.155,0.354,0.479,0.509,0.957c0.096,0.192,0.191,0.317,0.287,0.398c0.096,0.08,0.176,0.11,0.243,0.08l0.044-0.051
		l1.149,0.479c0.161,0.096,0.161,0.177,0,0.243c-0.317,0.125-0.332,0.347-0.046,0.67c0.192,0.222,0.465,0.347,0.812,0.383
		c0.287,0.03,0.479,0.06,0.589,0.11c0.117,0.045,0.191,0.11,0.243,0.177c0.044,0.06,0.14,0.178,0.287,0.332
		c0.141,0.161,0.331,0.339,0.56,0.53c0.347,0.316,0.574,0.67,0.671,1.068c0.095,0.396,0.095,0.78,0,1.133
		c-0.097,0.347-0.259,0.686-0.479,1.002c-0.132,0.229-0.288,0.626-0.479,1.216c-0.191,0.589-0.384,0.973-0.575,1.134
		c-0.323,0.287-0.67,0.751-1.038,1.385c-0.368,0.641-0.574,1.2-0.641,1.679c-0.06,0.987-0.604,1.179-1.627,0.574
		c-0.317-0.19-0.479-0.051-0.479,0.428c-0.03,0.287,0,0.493,0.095,0.626c0.096,0.125,0.096,0.287,0,0.493
		c-0.095,0.207-0.286,0.428-0.574,0.656c-0.286,0.221-0.604,0.396-0.957,0.522c-0.729,0.229-0.589,0.655,0.434,1.296
		c0.222,0.126,0.369,0.206,0.428,0.236c0.162,0.132,0.56,0.206,1.215,0.242c0.655,0.029,1.289,0.029,1.9,0l0.861-0.052
		c0,0.42-0.11,0.736-0.338,0.958c-0.029,0.132,0.051,0.465,0.257,1.009c0.207,0.538,0.273,0.892,0.178,1.053
		c-0.133,0.191-0.56,0.332-1.281,0.428c-0.716,0.096-1.127,0.177-1.261,0.242c-0.221,0.126-0.441,0.494-0.67,1.113
		c-0.221,0.625-0.441,0.979-0.67,1.038c-0.221,0.066-0.538,0.258-0.942,0.59c-0.397,0.338-0.766,0.53-1.112,0.56
		c-0.258,0.036-0.479,0.081-0.655,0.161c-0.177,0.081-0.383,0.206-0.626,0.384c-0.236,0.176-0.442,0.316-0.634,0.412
		c-0.229,0.132-0.435,0.191-0.625,0.214c-0.192,0.015-0.348,0-0.479-0.067c-0.125-0.066-0.287-0.161-0.464-0.271
		c-0.17-0.111-0.331-0.191-0.494-0.258c-0.029,0-0.14-0.044-0.331-0.126c-0.19-0.081-0.324-0.125-0.383-0.146
		c-0.066-0.015-0.177-0.045-0.338-0.096c-0.156-0.045-0.288-0.06-0.369-0.06c-0.073,0-0.169,0-0.301,0
		c-0.127,0-0.252,0.015-0.384,0.045c-0.25,0.096-0.589,0.065-0.987-0.081c-0.397-0.14-0.641-0.206-0.736-0.206
		c-0.25,0-0.634,0.228-1.148,0.67c-0.509,0.448-0.781,0.67-0.811,0.67c-0.036,0-0.146-0.073-0.339-0.236
		c-0.191-0.161-0.441-0.302-0.751-0.434c-0.302-0.126-0.589-0.155-0.876-0.097c-0.251,0.133-0.383,0.303-0.368,0.53
		c0.021,0.222,0.117,0.428,0.272,0.619l0.191,0.339c0,0.125-0.236,0.331-0.715,0.619c-0.479,0.286-0.847,0.368-1.104,0.242
		c-0.251-0.125-0.699-0.338-1.34-0.611c-0.634-0.265-1.068-0.456-1.289-0.589c-0.067-0.029-0.147-0.06-0.229-0.096
		c-0.074-0.029-0.155-0.044-0.235-0.044c-0.078,0-0.145,0-0.188,0c-0.051,0-0.103,0-0.17,0.015c-0.065,0.015-0.11,0.029-0.14,0.044
		c-0.036,0.021-0.088,0.052-0.169,0.096c-0.081,0.051-0.126,0.081-0.147,0.104c-0.015,0.015-0.059,0.044-0.14,0.096
		c-0.081,0.044-0.118,0.096-0.118,0.125c-0.037,0.029-0.117,0.125-0.242,0.287c-0.126,0.162-0.229,0.287-0.31,0.383
		c-0.081,0.096-0.191,0.177-0.339,0.25c-0.141,0.082-0.259,0.134-0.354,0.134c-0.096-0.03-0.367-0.148-0.816-0.317
		c-0.449-0.177-0.766-0.272-0.958-0.309c-0.125-0.029-0.265,0.066-0.405,0.309c-0.146,0.235-0.265,0.347-0.36,0.317
		c-0.096-0.03-0.295-0.178-0.597-0.435c-0.302-0.252-0.582-0.465-0.839-0.619c-0.354-0.288-0.773-0.479-1.268-0.574
		c-0.497-0.096-0.791-0.052-0.887,0.14c-0.062,0.132-0.221,0.191-0.479,0.214c-0.254,0.015-0.575,0.029-0.958,0.029
		c-0.383,0-0.733,0.066-1.053,0.191c-0.924,0.25-1.388,1.054-1.388,2.394c0,0.353-0.177,0.699-0.526,1.054
		c-0.35,0.353-0.527,0.588-0.527,0.714c0,0.354-0.479,0.53-1.436,0.53c-0.129,0-0.302-0.082-0.526-0.222
		c-0.225-0.146-0.501-0.338-0.836-0.574c-0.335-0.242-0.648-0.419-0.935-0.545c-0.287-0.096-0.645-0.147-1.075-0.147
		c-0.431,0-0.862,0.022-1.292,0.066c-0.431,0.052-0.681,0.081-0.744,0.081c-0.703,0-1.116,0.236-1.245,0.715
		c-0.033,0.133-0.159,0.243-0.383,0.339c-0.225,0.095-0.52,0.176-0.884,0.258c-0.368,0.074-0.567,0.125-0.6,0.125
		c-0.192,0.096-0.406,0.412-0.645,0.957c-0.24,0.545-0.376,0.848-0.409,0.906c-0.033,0-0.062,0.021-0.096,0.052
		c-0.67,0.545-1.101,0.523-1.292-0.052c-0.129-0.251-0.272-0.428-0.431-0.508c-0.158-0.081-0.302-0.081-0.431-0.016
		c-0.129,0.066-0.225,0.141-0.288,0.236c-0.095,0.162-0.405,0.214-0.932,0.147c-0.527-0.067-0.825-0.192-0.887-0.384
		c-0.158-0.221-0.151-0.529,0.025-0.913c0.174-0.383,0.391-0.67,0.645-0.861c0.159-0.154,0.623-0.398,1.389-0.699
		c0.766-0.303,1.292-0.561,1.58-0.781c0.191-0.126,0.35-0.258,0.479-0.383c0.128-0.125,0.224-0.273,0.287-0.413
		c0.063-0.146,0.104-0.242,0.122-0.309c0.015-0.059,0.048-0.207,0.096-0.413c0.048-0.205,0.085-0.331,0.118-0.397
		c0.033-0.221,0.199-0.397,0.504-0.508c0.302-0.118,0.582-0.147,0.836-0.118h0.383c0.191-0.316,0.512-0.655,0.958-0.986
		c0.446-0.339,0.847-0.574,1.197-0.736c0.159-0.097,0.239-0.222,0.239-0.383c0-0.155-0.022-0.413-0.07-0.751
		c-0.048-0.332-0.059-0.648-0.026-0.973c0.033-0.383,0.232-0.67,0.6-0.861c0.365-0.192,0.74-0.317,1.123-0.384
		c0.383-0.059,0.589-0.11,0.622-0.14c0.063-0.036,0.074-0.161,0.026-0.368c-0.048-0.206-0.106-0.434-0.169-0.671
		c-0.062-0.242-0.048-0.493,0.048-0.78c0.095-0.191,0.582-0.303,1.462-0.339c0.876-0.029,1.944-0.015,3.207,0.052
		c1.259,0.06,1.937,0.096,2.033,0.096c0.225,0,0.409-0.015,0.552-0.036c0.144-0.015,0.269-0.045,0.383-0.097
		c0.11-0.044,0.185-0.073,0.214-0.096c0.033-0.015,0.103-0.059,0.217-0.154c0.11-0.096,0.199-0.162,0.261-0.191
		c0.192-0.133,0.328-0.303,0.409-0.516c0.077-0.206,0.118-0.383,0.118-0.538l-0.048-0.19c-0.062-0.133-0.232-0.133-0.501,0
		c-0.272,0.125-0.582,0.286-0.936,0.492c-0.35,0.207-0.604,0.332-0.766,0.369c-0.191,0-0.582-0.206-1.171-0.626
		c-0.593-0.413-1.208-0.876-1.845-1.37c-0.637-0.493-1.021-0.766-1.149-0.832c-0.158-0.096-0.416-0.081-0.766,0.066
		c-0.351,0.141-0.711,0.316-1.076,0.522c-0.368,0.214-0.6,0.339-0.696,0.368c-0.096,0.037-0.129-0.095-0.096-0.383l0.24-1.48
		c0-0.065-0.015-0.11-0.048-0.146c-0.062-0.251-0.247-0.398-0.549-0.413c-0.306-0.015-0.471-0.081-0.504-0.191
		s-0.088-0.191-0.166-0.258c-0.081-0.06-0.21-0.14-0.383-0.221c-0.177-0.081-0.313-0.162-0.408-0.258
		c-0.192-0.191-0.454-0.177-0.789,0.066c-0.335,0.235-0.504,0.479-0.504,0.7c0,0.228-0.199,0.434-0.597,0.641
		c-0.401,0.205-0.744,0.315-1.031,0.315c-0.383,0-0.876-0.286-1.484-0.86c-0.158-0.191-0.192-0.494-0.096-0.893
		c0.096-0.396,0.096-0.625,0-0.685c0-0.036-0.07-0.096-0.214-0.177c-0.144-0.08-0.258-0.161-0.335-0.242
		c-0.081-0.074-0.114-0.192-0.096-0.332c0.015-0.146,0.118-0.302,0.31-0.494c0.191-0.19,0.445-0.338,0.766-0.418
		c0.32-0.075,0.663-0.127,1.031-0.142c0.365-0.015,0.563-0.015,0.597-0.015c0.095-0.036,0.158-0.161,0.191-0.367
		c0.033-0.207,0.207-0.369,0.527-0.494c0.512-0.258,1.093-0.61,1.749-1.038c0.652-0.435,1.09-0.78,1.314-1.068
		c0.158-0.257,0.486-0.626,0.983-1.089c0.494-0.457,0.932-0.841,1.315-1.164l0.622-0.523c-0.445-1.09-0.942-2.01-1.483-2.776
		c-0.225-0.383-0.406-0.611-0.549-0.67c-0.144-0.066-0.258-0.081-0.335-0.037c-0.081,0.052-0.265,0.229-0.552,0.516
		c-0.32,0.25-0.71,0.288-1.171,0.096c-0.464-0.191-0.777-0.449-0.935-0.766c-0.096-0.191-0.015-0.354,0.239-0.479
		c0.254-0.132,0.534-0.257,0.839-0.367c0.302-0.111,0.453-0.222,0.453-0.354c0-0.384,0.589-0.987,1.771-1.819
		c0.129-0.125,0.144-0.191,0.048-0.191c-0.766,0.066-1.277-0.015-1.532-0.236c-0.254-0.228-0.328-0.478-0.214-0.751
		c0.111-0.271,0.295-0.509,0.549-0.736l0.431-0.332h1.724c0.287,0.126,0.622,0.192,1.005,0.192c0.159,0,0.351-0.051,0.575-0.133
		c0.225-0.074,0.375-0.125,0.457-0.14c0.078-0.016,0.213,0.029,0.405,0.125c0.062,0.036,0.169,0.111,0.313,0.243
		c0.144,0.125,0.269,0.221,0.383,0.302c0.111,0.08,0.229,0.141,0.357,0.177c0.129,0.03,0.225-0.036,0.288-0.191
		c0.383-0.419,1.038-0.626,1.962-0.626c0.162,0,0.305-0.081,0.431-0.235c0.129-0.162,0.225-0.303,0.287-0.435l0.048-0.236
		c0.287-0.191,0.615-0.928,0.983-2.202c0.365-1.285,0.548-2.419,0.548-3.405c0-0.641-0.022-1.083-0.07-1.325
		c-0.048-0.237-0.151-0.369-0.313-0.398c-0.158-0.029-0.383-0.015-0.67,0.051c-0.383,0.06-0.807-0.242-1.267-0.897
		c-0.464-0.655-0.726-1.179-0.792-1.595c-0.096-1.02-0.383-1.786-0.862-2.298c-0.125-0.191-0.221-0.383-0.287-0.574
		c-0.063-0.191-0.056-0.398,0.025-0.622c0.077-0.222,0.136-0.383,0.166-0.479c0.033-0.096,0.137-0.288,0.313-0.575
		c0.173-0.287,0.28-0.445,0.31-0.479c0.066-0.191,0.225-0.526,0.479-1.005c0.416-0.703,0.497-1.053,0.239-1.053
		c-0.096,0-0.239,0.033-0.431,0.096c-0.67,0.255-1.547,0.383-2.633,0.383c-1.086,0-1.756-0.158-2.01-0.479
		c-0.191-0.159-0.287-0.062-0.287,0.288c-0.062,0.99-0.192,1.58-0.383,1.771c-0.129,0.096-0.287,0.144-0.479,0.144
		c-0.479,0-1.204-0.096-2.176-0.287c-0.976-0.192-1.558-0.269-1.749-0.24c-0.254,0.033-0.534-0.35-0.836-1.148
		c-0.306-0.799-0.409-1.451-0.312-1.966c0.095-0.542,0.559-1.421,1.388-2.633c0.829-1.211,1.499-1.996,2.011-2.346
		c0.158-0.128,0.239-0.262,0.239-0.405c0-0.144-0.081-0.32-0.239-0.527c-0.159-0.209-0.32-0.394-0.479-0.552
		c-0.158-0.158-0.335-0.32-0.526-0.479c-0.191-0.159-0.302-0.272-0.335-0.335c-0.129-0.096-0.184-0.335-0.166-0.718
		c0.015-0.383,0.047-0.703,0.095-0.958s0.037-0.416-0.025-0.479l-1.484-0.335l-0.957,0.67c-0.254,0.254-0.32,0.446-0.192,0.575
		c0.32,0.287,0.719,0.876,1.197,1.771c0.479,0.895,0.589,1.451,0.335,1.675c-0.096,0.192-0.199,0.302-0.31,0.335
		c-0.114,0.033-0.239,0-0.383-0.096c-0.144-0.096-0.272-0.207-0.383-0.335c-0.114-0.129-0.28-0.335-0.505-0.623
		c-0.512-0.67-0.895-0.35-1.149,0.958c-0.033,0.191-0.062,0.383-0.095,0.574c-0.033,0.416-0.35,0.663-0.958,0.744
		c-0.607,0.078-1.054,0.022-1.34-0.169c-0.159-0.096-0.144-0.446,0.048-1.053c0.191-0.608,0.409-1.237,0.648-1.892
		c0.239-0.653,0.324-1.062,0.262-1.22c-0.159-0.416-0.033-0.829,0.383-1.245c0.128-0.159,0.136-0.35,0.025-0.574
		c-0.114-0.225-0.25-0.445-0.408-0.67l-0.287-0.335c-0.225-0.225-0.454-0.111-0.693,0.335s-0.479,0.972-0.718,1.58
		c-0.24,0.607-0.442,0.942-0.601,1.005c-0.798,0.417-1.307,0.431-1.532,0.048c-0.225-0.383-0.32-0.839-0.287-1.366
		c0.033-0.527,0.111-0.932,0.239-1.219c0.096-0.159,0.936-0.71,2.515-1.653c1.58-0.939,2.401-1.554,2.463-1.841
		c0-0.096,0.055-0.328,0.169-0.696c0.11-0.365,0.221-0.748,0.335-1.149c0.11-0.397,0.207-0.795,0.288-1.197
		c0.077-0.397,0.103-0.718,0.07-0.958c-0.033-0.239-0.128-0.357-0.287-0.357c-0.225,0.062-0.464,0.368-0.718,0.909
		c-0.254,0.542-0.549,1.068-0.884,1.58s-0.71,0.781-1.127,0.814c-1.115,0.095-1.738-0.063-1.867-0.479
		c-0.033-0.191,0.081-0.383,0.335-0.574c0.225-0.159,0.32-0.361,0.287-0.6c-0.033-0.239-0.11-0.438-0.239-0.597
		c-0.128-0.159-0.262-0.369-0.405-0.622c-0.144-0.254-0.232-0.479-0.265-0.671c-0.033-0.32,0-0.534,0.096-0.648
		c0.096-0.11,0.254-0.228,0.479-0.357s0.398-0.32,0.527-0.575c0.128-0.35,0.423-0.718,0.887-1.101
		c0.46-0.383,0.74-0.766,0.836-1.149c0.096-0.417-0.144-0.854-0.718-1.318c-0.575-0.46-1.039-0.692-1.389-0.692
		c-0.191,0-0.541-0.28-1.053-0.839c-0.512-0.556-0.877-0.851-1.102-0.884c-0.158-0.033-0.357-0.184-0.6-0.457
		c-0.235-0.269-0.438-0.549-0.596-0.836l-0.239-0.383L26.053,15.182z"/>
</g>
</svg>
