<?xml version="1.0" encoding="utf-8"?>
<!-- Generator: Adobe Illustrator 13.0.0, SVG Export Plug-In . SVG Version: 6.00 Build 14948)  -->
<!DOCTYPE svg PUBLIC "-//W3C//DTD SVG 1.1//EN" "http://www.w3.org/Graphics/SVG/1.1/DTD/svg11.dtd">
<svg version="1.1" id="Layer_1" xmlns="http://www.w3.org/2000/svg" xmlns:xlink="http://www.w3.org/1999/xlink" x="0px" y="0px"
	 width="100px" height="100px" viewBox="0 0 100 100" enable-background="new 0 0 100 100" xml:space="preserve">
<g>
	<path d="M1.453,49.5c0-4.348,0.579-8.602,1.736-12.763c1.157-4.16,2.768-7.991,4.833-11.495c2.064-3.504,4.574-6.734,7.53-9.69
		s6.186-5.465,9.69-7.53c3.503-2.065,7.326-3.668,11.472-4.811C40.858,2.071,45.105,1.5,49.453,1.5s8.604,0.571,12.761,1.712
		c4.162,1.142,8.002,2.746,11.522,4.811c3.518,2.064,6.753,4.574,9.711,7.53c2.954,2.956,5.468,6.186,7.532,9.69
		c2.064,3.503,3.673,7.335,4.831,11.495c1.159,4.162,1.738,8.416,1.738,12.763c0,4.35-0.579,8.585-1.738,12.73
		c-1.158,4.146-2.767,7.977-4.831,11.481c-2.064,3.501-4.578,6.725-7.532,9.679c-2.958,2.958-6.193,5.476-9.711,7.54
		c-3.521,2.064-7.36,3.677-11.522,4.835c-4.157,1.155-8.413,1.734-12.761,1.734s-8.595-0.579-12.739-1.734
		c-4.146-1.158-7.969-2.771-11.472-4.835c-3.504-2.064-6.734-4.582-9.69-7.54c-2.956-2.954-5.465-6.178-7.53-9.679
		c-2.065-3.505-3.676-7.336-4.833-11.481C2.032,58.085,1.453,53.85,1.453,49.5z M10.04,40.303c0,1.095,0.141,1.642,0.422,1.642
		c0.156-0.03,0.265-0.312,0.328-0.845c0.031-0.281,0.203-1.062,0.516-2.346c0.312-1.281,0.469-2.189,0.469-2.722
		c0-1.157,0.188-1.814,0.563-1.971c0.061-0.031,0.125,0,0.188,0.094c0.061,0.126,0.031,0.571-0.094,1.338
		c-0.126,0.765-0.282,1.65-0.469,2.65c-0.188,1.002-0.314,1.722-0.375,2.159c0,0.126-0.063,0.767-0.188,1.924
		c-0.126,1.157-0.22,2.128-0.282,2.909c-0.063,0.781-0.079,1.642-0.047,2.581c0.031,0.938,0.155,1.596,0.375,1.971
		c3.19,4.284,5.41,7.414,6.663,9.385c0.125,0.188,0.359,0.608,0.704,1.281c0.343,0.673,0.602,1.175,0.773,1.485
		c0.171,0.313,0.438,0.657,0.797,1.032c0.359,0.375,0.729,0.645,1.104,0.8c0.375,0.126,0.859,0.188,1.455,0.204
		c0.594,0.016,1.024,0.061,1.289,0.139c0.266,0.077,0.4,0.281,0.4,0.596c0,0.312-0.016,0.514-0.047,0.624
		c-0.033,0.11-0.071,0.204-0.118,0.281c-0.047,0.078-0.204,0.237-0.469,0.453c-0.265,0.221-0.524,0.47-0.773,0.751
		c-0.75,0.815-1.377,1.971-1.877,3.488c-0.501,1.518-0.596,2.583-0.281,3.175c0.094,0.188,0.227,0.453,0.398,0.815
		c0.171,0.359,0.532,1,1.079,1.922c0.547,0.923,1.104,1.768,1.667,2.518c0.563,0.751,1.281,1.485,2.158,2.208
		c0.876,0.718,1.735,1.188,2.58,1.407c0.094,0.062,0.22,0.172,0.375,0.326c0.157,0.156,0.369,0.596,0.634,1.33
		c0.265,0.735,0.398,1.629,0.398,2.661c0,0.75,0.017,1.265,0.047,1.546c3.378,1.751,7.179,3.052,11.402,3.896
		c1.251-0.751,2.095-1.252,2.534-1.501c0.218-0.127,0.916-0.723,2.089-1.771c1.173-1.045,2.228-1.702,3.166-1.983
		c1.188-0.314,2.024-0.768,2.51-1.363s0.808-1.424,0.963-2.484c0.126-0.657,0.624-1.502,1.501-2.534
		c0.878-1.032,1.33-1.767,1.359-2.207c0.094-0.751-0.498-1.547-1.783-2.392c-1.281-0.845-2.485-1.22-3.611-1.126
		c-0.781,0.062-1.744-0.11-2.885-0.518c-1.143-0.404-1.917-0.515-2.324-0.327c-0.063,0-0.141,0.029-0.234,0.094
		c-0.5,0.311-0.9,0.453-1.196,0.438c-0.298-0.017-0.416-0.282-0.353-0.812c0.063-0.375,0.132-0.706,0.212-0.971
		c0.078-0.266,0.147-0.421,0.21-0.485l0.094-0.14c-0.031-0.064-0.063-0.158-0.094-0.265c-0.03-0.11-0.148-0.314-0.351-0.612
		c-0.204-0.298-0.463-0.547-0.775-0.767c-0.312-0.217-0.798-0.421-1.455-0.608s-1.422-0.281-2.299-0.281
		c-2.313-2.317-3.848-3.583-4.598-3.803l-3.801-0.983c-0.155,0.061-0.343,0.109-0.563,0.155c-0.219,0.049-0.563,0.063-1.032,0.032
		c-0.47-0.032-0.798-0.188-0.986-0.47c-0.155-0.22-0.194-0.469-0.116-0.734c0.078-0.265,0.196-0.518,0.351-0.767
		c0.157-0.249,0.212-0.47,0.165-0.641c-0.047-0.172-0.273-0.253-0.681-0.253c-0.563,0-1.266,0.175-2.11,0.534
		c-0.844,0.359-1.471,0.404-1.877,0.123c-0.22-0.123-0.524-0.266-0.916-0.404c-0.392-0.143-0.68-0.253-0.867-0.347
		c-0.188-0.094-0.384-0.281-0.587-0.563c-0.204-0.281-0.337-0.641-0.398-1.077c-0.063-0.469-0.041-0.971,0.069-1.501
		c0.11-0.531,0.141-0.906,0.094-1.127c-0.047-0.22-0.29-0.407-0.726-0.562c-1.283-0.314-2.191-0.751-2.722-1.314
		c-0.22-0.248-0.204-0.452,0.047-0.611c0.437-0.437,0.883-1.126,1.336-2.064c0.453-0.938,0.477-1.515,0.071-1.734
		c-0.282-0.094-0.541,0-0.775,0.281c-0.234,0.281-0.5,0.547-0.797,0.796c-0.296,0.253-0.68,0.314-1.149,0.188
		c-0.501-0.188-0.899-0.718-1.197-1.595c-0.296-0.874-0.437-1.765-0.422-2.657c0.016-0.892,0.18-1.487,0.494-1.799
		c0.031-0.063,0.141-0.218,0.329-0.453c0.188-0.234,0.32-0.392,0.397-0.485c0.08-0.094,0.212-0.235,0.4-0.422
		c0.188-0.188,0.337-0.312,0.445-0.375c0.11-0.063,0.243-0.141,0.4-0.218c0.155-0.08,0.312-0.11,0.469-0.094
		c0.155,0.014,0.312,0.078,0.469,0.171c0.282,0.157,0.483,0.298,0.61,0.438c0.125,0.141,0.188,0.235,0.188,0.265
		c0,0.031,0.03,0.063,0.094,0.094c0.061,0.031,0.171,0.031,0.329,0c0.155-0.063,0.312-0.171,0.469-0.328
		c0.155-0.157,0.288-0.251,0.398-0.265c0.11-0.017,0.367,0.077,0.775,0.265c0.249,0.094,0.476,0.157,0.679,0.204
		c0.204,0.047,0.345,0.077,0.422,0.077s0.166,0.031,0.259,0.11c0.094,0.078,0.218,0.218,0.375,0.406
		c0.312,0.375,0.428,1.143,0.351,2.299s-0.085,1.767-0.022,1.83c0.094,0.188,0.257,0.329,0.492,0.422
		c0.235,0.094,0.478,0.077,0.729-0.031c0.249-0.11,0.422-0.345,0.516-0.72c0.061-0.345,0.031-0.892-0.094-1.626
		c-0.126-0.736-0.182-1.346-0.166-1.846c0.017-0.5,0.196-0.767,0.541-0.798c0.249-0.094,0.61-0.171,1.079-0.234
		s0.837-0.141,1.103-0.235c0.265-0.094,0.445-0.265,0.539-0.516c0.063-0.157,0.329-0.438,0.798-0.828
		c0.469-0.392,0.72-0.798,0.75-1.236c0.063-0.563,0.149-0.907,0.259-1.032c0.11-0.125,0.492-0.312,1.148-0.563
		c0.345-0.155,0.869-0.469,1.573-0.938c0.704-0.469,1.322-0.781,1.852-0.938c0.345-0.125,0.588-0.202,0.729-0.235
		c0.141-0.03,0.234-0.039,0.281-0.022c0.047,0.015,0.155,0.039,0.329,0.07c0.171,0.032,0.414,0.047,0.727,0.047
		c1.752,0,2.848-0.235,3.285-0.704c0.126-0.125,0.141-0.265,0.047-0.422c-0.094-0.155-0.312-0.351-0.657-0.585
		c-0.343-0.234-0.618-0.461-0.82-0.681c-0.204-0.218-0.243-0.437-0.119-0.657c0.063-0.031,0.166-0.125,0.306-0.281
		c0.141-0.155,0.249-0.273,0.329-0.351c0.077-0.079,0.188-0.188,0.328-0.329c0.141-0.141,0.266-0.234,0.375-0.281
		c0.108-0.047,0.235-0.094,0.375-0.141s0.281-0.063,0.422-0.047c0.141,0.015,0.273,0.069,0.398,0.164
		c0.22,0.22,0.361,0.861,0.422,1.924c0.033,0.469,0.174,0.595,0.422,0.375c0.033-0.03,0.079-0.061,0.141-0.094
		c0.219-0.249,0.438-0.351,0.657-0.304c0.219,0.047,0.4,0.163,0.541,0.351c0.141,0.188,0.288,0.32,0.445,0.4
		c0.157,0.078,0.282,0.039,0.375-0.118c0.125-0.312,0.055-0.671-0.21-1.079c-0.267-0.406-0.353-0.845-0.259-1.314
		c0.094-0.375,0.078-0.734-0.047-1.079c-0.125-0.343-0.329-0.743-0.61-1.196c-0.282-0.453-0.485-0.853-0.61-1.197
		c-0.094-0.282-0.179-0.547-0.257-0.798c-0.08-0.249-0.133-0.5-0.166-0.751c-0.03-0.249-0.047-0.444-0.047-0.585
		c0-0.141,0-0.336,0-0.587c0-0.249,0-0.406,0-0.469c0-0.249-0.155-0.351-0.469-0.304c-0.312,0.047-0.648,0.125-1.008,0.235
		c-0.361,0.11-0.665,0.022-0.916-0.259c-0.188-0.155-0.359-0.508-0.516-1.055c-0.155-0.547-0.328-0.994-0.516-1.337
		c-0.188-0.344-0.469-0.446-0.845-0.305c-0.375,0.141-0.704,0.546-0.985,1.22c-0.281,0.673-0.508,1.322-0.679,1.946
		c-0.173,0.626-0.306,0.955-0.4,0.985c-0.5,0.126-1.032,0.329-1.595,0.61c-0.563,0.281-0.875,0.61-0.938,0.985
		c-0.094,0.501-0.437,1.018-1.032,1.548c-0.406,0.345-0.61,0.314-0.61-0.094c0-0.094,0.017-0.218,0.047-0.375
		c0.094-0.343,0.25-0.71,0.469-1.102c0.221-0.392,0.408-0.688,0.563-0.892c0.157-0.204,0.275-0.486,0.353-0.845
		c0.078-0.359,0.039-0.681-0.118-0.963c-0.155-0.249-0.367-0.516-0.632-0.797s-0.5-0.522-0.704-0.727
		c-0.204-0.204-0.383-0.431-0.541-0.68c-0.155-0.25-0.218-0.51-0.188-0.775c0.033-0.265,0.188-0.539,0.469-0.82
		c0.281-0.345,0.51-0.604,0.681-0.775c0.171-0.172,0.351-0.304,0.539-0.398c0.188-0.094,0.306-0.149,0.353-0.166
		c0.047-0.016,0.218-0.039,0.516-0.069c0.298-0.033,0.492-0.047,0.585-0.047c0.345-0.033,0.712,0.1,1.104,0.398
		c0.39,0.298,0.679,0.532,0.867,0.704c0.188,0.171,0.439,0.133,0.751-0.116c0.157-0.22,0.336-0.532,0.541-0.938
		c0.202-0.408,0.384-0.712,0.539-0.916c0.157-0.204,0.329-0.336,0.516-0.398c0.094,0,0.502,0.484,1.22,1.455
		c0.845,1.188,1.33,1.422,1.455,0.704c0-0.063,0-0.141,0-0.235c0.188-1.095,0.251-2.293,0.188-3.59
		c-0.061-1.297-0.375-2.01-0.938-2.134c-0.5-0.126-1-0.008-1.501,0.351c-0.5,0.359-0.845,0.555-1.032,0.587
		c-0.406,0.155-0.726,0.062-0.961-0.281c-0.234-0.345-0.353-0.783-0.353-1.314c0-0.281-0.328-0.173-0.985,0.329
		c-1.126,0.812-1.83,1.032-2.111,0.657c-0.094-0.126-0.155-0.281-0.188-0.469c-0.188-1.065-0.265-1.736-0.234-2.018
		c0.033-0.282,0.251-0.938,0.657-1.971c0.22-0.438,0.469-0.908,0.751-1.408c0.22-0.314,0.306-0.508,0.259-0.587
		c-0.047-0.078-0.273-0.164-0.682-0.257c-0.845-0.188-1.908-0.281-3.191-0.281c-1.313,0.594-2.893,1.501-4.737,2.721
		c-0.032,0.282-0.063,0.484-0.094,0.61c-0.032,0.125-0.102,0.265-0.212,0.422c-0.11,0.155-0.273,0.282-0.492,0.375
		c-0.345,0.125-0.885,0.641-1.62,1.548c-0.734,0.906-1.518,1.916-2.346,3.026c-0.829,1.11-1.369,1.808-1.618,2.089
		c-5.382,6.161-7.993,10.307-7.836,12.433c0.094,1.314-0.055,2.558-0.447,3.731C10.236,39.061,10.04,39.867,10.04,40.303z
		 M43.869,13.888c-0.845,0.375-0.626,1.844,0.657,4.411c0.157,0.343,0.422,0.757,0.797,1.243s0.649,0.93,0.822,1.338
		c0.171,0.406,0.21,0.875,0.116,1.408c-0.094,0.375-0.116,0.751-0.069,1.126c0.047,0.375,0.125,0.742,0.235,1.102
		c0.108,0.359,0.226,0.681,0.351,0.962s0.251,0.501,0.375,0.656c0.125,0.157,0.204,0.22,0.235,0.188
		c0.188-0.062,0.375-0.249,0.563-0.562c0.188-0.313,0.328-0.594,0.422-0.844l0.141-0.375c1.908-0.908,3.441-1.94,4.597-3.097
		c0.408-0.375,0.628-0.651,0.656-0.822c0.033-0.171-0.053-0.282-0.257-0.329s-0.444-0.157-0.727-0.329
		c-0.281-0.171-0.469-0.43-0.562-0.773c-0.188-0.438-0.4-1.213-0.633-2.324c-0.236-1.11-0.493-1.946-0.775-2.509
		c-0.249-0.439-0.868-0.736-1.852-0.892c-0.985-0.157-1.971-0.18-2.956-0.071C45.02,13.504,44.308,13.667,43.869,13.888z
		 M58.46,8.539c0.878,0.218,2.551,1.032,5.023,2.44c2.47,1.438,3.799,2.548,3.986,3.332c0.126,0.53,0.188,0.953,0.188,1.267
		c0.032,0.782-0.172,0.892-0.608,0.329c-0.094-0.094-0.236-0.329-0.424-0.704c-0.188-0.375-0.396-0.626-0.633-0.75
		c-0.232-0.126-0.587-0.157-1.057-0.094c-1.094,0.343-1.641,1.079-1.641,2.205c0,0.031-0.024,0.282-0.069,0.751
		c-0.049,0.469-0.073,0.867-0.073,1.195c0,0.329,0.086,0.696,0.262,1.104c0.171,0.406,0.428,0.718,0.771,0.938
		c1.032,0.594,2.191,1.971,3.473,4.129l0.143-0.234c0.094-0.126,0.241-0.243,0.445-0.353c0.203-0.11,0.399-0.133,0.587-0.069
		c0.281,0.155,0.624,0.227,1.032,0.21c0.404-0.016,0.498-0.21,0.282-0.585c-0.47-0.814-1.176-1.862-2.114-3.144
		c0.845-0.439,1.354-0.657,1.526-0.657c0.171,0,0.367,0.235,0.588,0.704c0.094,0.218,0.343,0.428,0.75,0.632
		c0.404,0.204,0.727,0.422,0.963,0.657c0.233,0.235,0.241,0.555,0.021,0.963c-0.249,0.531-0.367,0.812-0.351,0.845
		c0.017,0.031-0.135,0.218-0.445,0.563c-0.126,0.125-0.347,0.335-0.656,0.633c-0.314,0.298-0.534,0.516-0.657,0.657
		c-0.126,0.141-0.253,0.352-0.375,0.633c-0.127,0.281-0.188,0.579-0.188,0.892c0,0.562-0.135,1.393-0.4,2.486
		c-0.265,1.096-0.399,1.689-0.399,1.783c-0.062,0.251-0.021,0.438,0.118,0.563c0.143,0.126,0.306,0.196,0.493,0.212
		c0.188,0.016,0.376,0.094,0.563,0.234s0.298,0.351,0.326,0.632c0.065,0.221,0.159,0.469,0.282,0.751
		c0.126,0.282,0.236,0.508,0.33,0.681c0.094,0.172,0.163,0.337,0.212,0.492c0.045,0.157,0.004,0.273-0.118,0.353
		c-0.126,0.078-0.359,0.116-0.706,0.116c-0.812,0-1.452,0.212-1.922,0.635c-0.469,0.422-0.705,0.883-0.705,1.383
		c0,0.501,0.244,1.15,0.729,1.948c0.481,0.797,0.882,1.242,1.196,1.336c0.216,0.157,0.701,0.234,1.452,0.234s1.33-0.141,1.738-0.422
		c0.216-0.155,0.392-0.273,0.514-0.351c0.127-0.079,0.282-0.196,0.47-0.353c0.188-0.155,0.322-0.304,0.399-0.445
		c0.078-0.141,0.155-0.314,0.234-0.516c0.08-0.204,0.108-0.422,0.096-0.657c-0.016-0.234-0.072-0.494-0.167-0.775
		c-0.122-0.343-0.265-0.718-0.42-1.126c-0.159-0.406-0.273-0.704-0.351-0.892c-0.082-0.188-0.11-0.406-0.096-0.657
		c0.014-0.249,0.132-0.483,0.353-0.704c0.062-0.094,0.139-0.21,0.232-0.351s0.159-0.235,0.188-0.282
		c0.033-0.047,0.078-0.11,0.144-0.188c0.061-0.078,0.109-0.133,0.139-0.165c0.032-0.031,0.077-0.062,0.143-0.094
		c0.062-0.03,0.122-0.039,0.188-0.022c0.062,0.016,0.122,0.022,0.188,0.022c0.062,0,0.155,0.017,0.281,0.047
		c0.249,0.063,0.266,0.235,0.046,0.517V33.5l0.705-0.329c0.437-0.218,0.743-0.53,0.914-0.938c0.172-0.406,0.282-0.765,0.327-1.079
		c0.049-0.312,0.15-0.469,0.306-0.469c0.347,0,0.485,0.83,0.424,2.487c-0.032,0.094,0.249,0.361,0.845,0.798
		c0.155,0.032,0.232-0.125,0.232-0.469c0-0.343-0.024-0.704-0.069-1.08c-0.049-0.375-0.024-0.624,0.069-0.75
		c0.127-0.094,0.417,0.041,0.869,0.4c0.453,0.359,0.885,0.688,1.29,0.985c0.407,0.297,0.656,0.336,0.75,0.116
		c0.127-0.437-0.016-0.859-0.42-1.267c-0.408-0.406-0.612-0.734-0.612-0.985c0-0.125,0.033-0.265,0.094-0.422
		c0.408,0.314,0.814,0.469,1.221,0.469c2.284,0,3.521,0.282,3.709,0.845c0.028,0.188,0.154,0.384,0.375,0.587
		c0.217,0.204,0.404,0.367,0.563,0.492c0.154,0.126,0.265,0.298,0.326,0.516c0.062,0.221-0.062,0.408-0.375,0.563
		c-0.095,0.063-0.221,0.141-0.376,0.234s-0.273,0.173-0.351,0.235c-0.078,0.063-0.188,0.141-0.331,0.234
		c-0.139,0.094-0.248,0.165-0.326,0.212c-0.077,0.047-0.171,0.108-0.281,0.188c-0.11,0.078-0.188,0.149-0.236,0.21
		c-0.045,0.063-0.102,0.126-0.164,0.188c-0.061,0.063-0.109,0.126-0.139,0.188c-0.032,0.063-0.049,0.11-0.049,0.141
		c0,0.126,0.058,0.212,0.163,0.259c0.11,0.047,0.196,0.078,0.262,0.094c0.061,0.015,0.053,0.116-0.024,0.304
		c-0.078,0.188-0.273,0.485-0.588,0.892c-0.689,0.938-1.367,1.564-2.04,1.877c-0.673,0.314-1.212,0.22-1.62-0.282
		c-0.188-0.249-0.318-0.437-0.399-0.563c-0.078-0.125-0.114-0.202-0.114-0.235c0-0.03-0.049-0.108-0.143-0.234
		c-0.095-0.125-0.266-0.312-0.515-0.563c-0.47-0.594-1.126-0.9-1.971-0.914c-0.845-0.017-1.379,0.29-1.596,0.914
		c-0.032,0.126-0.11,0.408-0.236,0.844c-0.122,0.439-0.225,0.759-0.306,0.963c-0.078,0.202-0.188,0.461-0.327,0.773
		c-0.14,0.314-0.306,0.563-0.493,0.751c-0.188,0.188-0.392,0.313-0.608,0.375c-0.596,0.157-1.003,0.337-1.22,0.541
		c-0.221,0.202-0.485,0.773-0.8,1.711c-0.281,0.657-0.453,1.408-0.514,2.252c-0.065,0.845-0.237,1.485-0.519,1.924
		c-0.188,0.345-0.522,0.704-1.008,1.095c-0.485,0.39-0.759,0.922-0.82,1.579c-0.158,1.159-0.158,2.767,0,4.832
		c0.498,2.346,0.657,4.129,0.47,5.349c-0.065,0.689,0.225,1.457,0.869,2.317c0.641,0.861,1.383,1.343,2.228,1.437
		c0.216,0.033,0.759,0.175,1.617,0.425c0.859,0.249,1.61,0.343,2.252,0.281c0.644-0.062,1.337-0.359,2.088-0.894
		c0.188-0.122,0.453-0.311,0.8-0.563c0.343-0.249,0.633-0.452,0.865-0.592c0.236-0.143,0.518-0.313,0.845-0.534
		c0.33-0.216,0.611-0.388,0.845-0.514c0.236-0.127,0.485-0.266,0.75-0.408c0.27-0.139,0.502-0.232,0.706-0.281
		c0.204-0.045,0.399-0.062,0.588-0.062c0.188,0,0.343,0.032,0.469,0.11c0.123,0.077,0.217,0.216,0.281,0.403
		c0.123,0.376,0.188,0.751,0.188,1.127c0,0.375,0.036,0.705,0.114,1.003c0.081,0.298,0.273,0.686,0.587,1.155
		c0.408,0.534,0.665,0.877,0.775,1.032c0.11,0.159,0.241,0.424,0.4,0.8c0.154,0.375,0.2,0.686,0.139,0.954
		c-0.062,0.266-0.188,0.592-0.376,0.968c-0.094,0.188-0.281,0.579-0.562,1.175c-0.282,0.592-0.502,1.061-0.657,1.407
		c-0.155,0.311-0.326,0.751-0.514,1.314c-0.159,0.562-0.269,1.109-0.331,1.641c0,0.126,0,0.252,0,0.375
		c0,0.126-0.016,0.266-0.045,0.424c0,0.155,0,0.282,0,0.376c2.722-3.692,4.815-7.729,6.288-12.106
		c1.501-4.378,2.252-8.915,2.252-13.607c0-5.098-0.877-10.009-2.628-14.734c-1.722-4.753-4.101-8.96-7.132-12.62
		c-3.003-3.66-6.602-6.804-10.792-9.432c-4.193-2.597-8.683-4.427-13.469-5.49C57.991,7.912,57.897,8.351,58.46,8.539z
		 M63.765,28.432c0.155-0.218,0.281-0.329,0.375-0.329s0.266,0.126,0.515,0.375c0.064,0.094,0.143,0.212,0.236,0.353
		s0.155,0.243,0.188,0.304c0.033,0.063,0.062,0.165,0.094,0.306c0.031,0.141,0.045,0.29,0.045,0.445
		c-0.028,0.408-0.122,0.704-0.281,0.892c-0.155,0.188-0.343,0.204-0.562,0.047c-0.249-0.188-0.327-0.625-0.233-1.314
		c0-0.155-0.032-0.328-0.094-0.516c-0.062-0.188-0.118-0.32-0.163-0.398C63.834,28.52,63.797,28.464,63.765,28.432z M64.446,27.212
		c-0.082-0.125-0.119-0.273-0.119-0.445s0.095-0.305,0.282-0.399c0.155-0.125,0.358-0.117,0.607,0.023
		c0.253,0.141,0.543,0.375,0.869,0.704c0.331,0.329,0.571,0.555,0.727,0.68c0.314,0.157,0.579,0.196,0.8,0.118
		c0.216-0.078,0.375-0.102,0.469-0.071c0.094,0.033,0.124,0.204,0.094,0.516c-0.063,0.314-0.069,0.604-0.024,0.869
		c0.049,0.265,0.055,0.492,0.024,0.679c-0.032,0.188-0.157,0.298-0.375,0.329c-0.971,0.157-1.456-0.078-1.456-0.704
		c0-0.469-0.037-0.773-0.115-0.914c-0.081-0.141-0.228-0.226-0.448-0.259c-0.281-0.031-0.547-0.202-0.796-0.516
		c-0.032-0.031-0.11-0.108-0.236-0.235C64.625,27.462,64.523,27.338,64.446,27.212z"/>
</g>
</svg>
