<svg width="833" height="345" viewBox="0 0 833 345" fill="none" xmlns="http://www.w3.org/2000/svg">
    <rect y="0.527588" width="833" height="343.997" rx="16" fill="#F9F9F9"/>
    <path d="M99.504 129.528V100.056H108.96C111.808 100.056 114.304 100.664 116.448 101.88C118.624 103.096 120.304 104.808 121.488 107.016C122.672 109.256 123.264 111.848 123.264 114.792C123.264 117.736 122.672 120.328 121.488 122.568C120.336 124.776 118.672 126.488 116.496 127.704C114.32 128.92 111.808 129.528 108.96 129.528H99.504ZM103.296 126.12H108.912C112.176 126.12 114.752 125.096 116.64 123.048C118.56 121 119.52 118.248 119.52 114.792C119.52 111.304 118.56 108.536 116.64 106.488C114.752 104.44 112.176 103.416 108.912 103.416H103.296V126.12ZM146.561 118.872C146.561 121.016 146.145 122.936 145.313 124.632C144.513 126.296 143.361 127.592 141.857 128.52C140.385 129.48 138.689 129.96 136.769 129.96C134.881 129.96 133.201 129.496 131.729 128.568C130.257 127.608 129.089 126.28 128.225 124.584C127.393 122.856 126.977 120.952 126.977 118.872C126.977 116.76 127.393 114.856 128.225 113.16C129.057 111.464 130.209 110.136 131.681 109.176C133.185 108.248 134.881 107.784 136.769 107.784C138.657 107.784 140.337 108.248 141.809 109.176C143.313 110.104 144.481 111.416 145.313 113.112C146.145 114.84 146.561 116.76 146.561 118.872ZM142.913 118.872C142.913 116.504 142.353 114.6 141.233 113.16C140.145 111.688 138.657 110.952 136.769 110.952C134.881 110.952 133.377 111.688 132.257 113.16C131.169 114.6 130.625 116.504 130.625 118.872C130.625 121.24 131.169 123.16 132.257 124.632C133.377 126.072 134.881 126.792 136.769 126.792C138.657 126.792 140.145 126.072 141.233 124.632C142.353 123.16 142.913 121.24 142.913 118.872ZM151.435 129.528V108.216H155.035V110.904C155.707 109.976 156.603 109.224 157.723 108.648C158.843 108.072 160.043 107.784 161.323 107.784C163.659 107.784 165.483 108.488 166.795 109.896C168.139 111.304 168.811 113.192 168.811 115.56V129.528H165.163V116.136C165.163 114.568 164.747 113.336 163.915 112.44C163.115 111.544 161.963 111.096 160.459 111.096C159.211 111.096 158.091 111.48 157.099 112.248C156.107 112.984 155.419 113.928 155.035 115.08V129.528H151.435ZM172.24 109.512L175.168 104.568C174.56 104.472 174.048 104.216 173.632 103.8C173.248 103.352 173.056 102.808 173.056 102.168C173.056 101.432 173.312 100.824 173.824 100.344C174.336 99.8636 174.944 99.6236 175.648 99.6236C176.416 99.6236 177.024 99.8796 177.472 100.392C177.952 100.872 178.192 101.544 178.192 102.408C178.192 103.24 177.84 104.248 177.136 105.432L174.688 109.512H172.24ZM193.362 108.216V111.288H188.418V129.528H184.818V111.288H180.354V108.216H184.818V102.6H188.418V108.216H193.362ZM207.093 124.008C208.085 124.904 209.189 125.608 210.405 126.12C211.653 126.632 212.885 126.888 214.101 126.888C215.413 126.888 216.469 126.632 217.269 126.12C218.101 125.608 218.517 124.872 218.517 123.912C218.517 122.504 217.493 121.48 215.445 120.84L212.517 119.832C210.693 119.256 209.333 118.504 208.437 117.576C207.573 116.616 207.141 115.352 207.141 113.784C207.141 111.992 207.845 110.552 209.253 109.464C210.661 108.344 212.469 107.784 214.677 107.784C215.861 107.784 216.997 107.944 218.085 108.264C219.173 108.584 220.149 109.048 221.013 109.656V113.4C218.965 111.704 216.853 110.856 214.677 110.856C213.525 110.856 212.565 111.112 211.797 111.624C211.029 112.136 210.645 112.808 210.645 113.64C210.645 114.408 210.869 115 211.317 115.416C211.797 115.832 212.629 116.248 213.813 116.664L217.077 117.768C220.405 118.92 222.069 120.92 222.069 123.768C222.069 125.624 221.317 127.128 219.813 128.28C218.309 129.4 216.405 129.96 214.101 129.96C212.789 129.96 211.509 129.768 210.261 129.384C209.013 129 207.957 128.488 207.093 127.848V124.008ZM242.401 128.088C240.833 129.336 238.673 129.96 235.921 129.96C233.873 129.96 232.065 129.512 230.497 128.616C228.961 127.72 227.777 126.456 226.945 124.824C226.081 123.192 225.649 121.272 225.649 119.064C225.649 116.888 226.049 114.952 226.849 113.256C227.649 111.528 228.769 110.184 230.209 109.224C231.649 108.264 233.297 107.784 235.153 107.784C237.937 107.784 240.081 108.728 241.585 110.616C243.121 112.472 243.889 115 243.889 118.2V119.496H229.201C229.297 121.832 229.985 123.64 231.265 124.92C232.577 126.168 234.273 126.792 236.353 126.792C237.505 126.792 238.561 126.632 239.521 126.312C240.481 125.992 241.441 125.48 242.401 124.776V128.088ZM235.201 110.856C233.729 110.856 232.465 111.368 231.409 112.392C230.353 113.416 229.681 114.84 229.393 116.664H240.385C240.321 114.904 239.841 113.496 238.945 112.44C238.049 111.384 236.801 110.856 235.201 110.856ZM259.456 108.216V111.288H254.512V129.528H250.912V111.288H246.448V108.216H250.912V102.6H254.512V108.216H259.456ZM274.737 108.216V111.288H269.793V129.528H266.193V111.288H261.729V108.216H266.193V102.6H269.793V108.216H274.737ZM279.122 129.528V98.3276H282.722V129.528H279.122ZM304.37 128.088C302.802 129.336 300.642 129.96 297.89 129.96C295.842 129.96 294.034 129.512 292.466 128.616C290.93 127.72 289.746 126.456 288.914 124.824C288.05 123.192 287.618 121.272 287.618 119.064C287.618 116.888 288.018 114.952 288.818 113.256C289.618 111.528 290.738 110.184 292.178 109.224C293.618 108.264 295.266 107.784 297.122 107.784C299.906 107.784 302.05 108.728 303.554 110.616C305.09 112.472 305.858 115 305.858 118.2V119.496H291.17C291.266 121.832 291.954 123.64 293.234 124.92C294.546 126.168 296.242 126.792 298.322 126.792C299.474 126.792 300.53 126.632 301.49 126.312C302.45 125.992 303.41 125.48 304.37 124.776V128.088ZM297.17 110.856C295.698 110.856 294.434 111.368 293.378 112.392C292.322 113.416 291.65 114.84 291.362 116.664H302.354C302.29 114.904 301.81 113.496 300.914 112.44C300.018 111.384 298.77 110.856 297.17 110.856ZM332.013 101.64C331.501 101.256 330.749 101.064 329.757 101.064C328.669 101.064 327.805 101.4 327.165 102.072C326.557 102.744 326.253 103.704 326.253 104.952V108.216H331.053V111.288H326.253V129.528H322.701V111.288H319.101V108.216H322.701V104.664C322.701 102.616 323.309 100.984 324.525 99.7676C325.741 98.5196 327.309 97.8956 329.229 97.8956C330.349 97.8956 331.277 98.0556 332.013 98.3756V101.64ZM352.952 118.872C352.952 121.016 352.536 122.936 351.704 124.632C350.904 126.296 349.752 127.592 348.248 128.52C346.776 129.48 345.08 129.96 343.16 129.96C341.272 129.96 339.592 129.496 338.12 128.568C336.648 127.608 335.48 126.28 334.616 124.584C333.784 122.856 333.368 120.952 333.368 118.872C333.368 116.76 333.784 114.856 334.616 113.16C335.448 111.464 336.6 110.136 338.072 109.176C339.576 108.248 341.272 107.784 343.16 107.784C345.048 107.784 346.728 108.248 348.2 109.176C349.704 110.104 350.872 111.416 351.704 113.112C352.536 114.84 352.952 116.76 352.952 118.872ZM349.304 118.872C349.304 116.504 348.744 114.6 347.624 113.16C346.536 111.688 345.048 110.952 343.16 110.952C341.272 110.952 339.768 111.688 338.648 113.16C337.56 114.6 337.016 116.504 337.016 118.872C337.016 121.24 337.56 123.16 338.648 124.632C339.768 126.072 341.272 126.792 343.16 126.792C345.048 126.792 346.536 126.072 347.624 124.632C348.744 123.16 349.304 121.24 349.304 118.872ZM368.769 111.816C368.193 111.432 367.393 111.24 366.369 111.24C365.217 111.24 364.193 111.592 363.297 112.296C362.401 113 361.777 113.976 361.425 115.224V129.528H357.825V108.216H361.425V111C361.905 110.04 362.625 109.272 363.585 108.696C364.545 108.088 365.585 107.784 366.705 107.784C367.665 107.784 368.353 107.896 368.769 108.12V111.816ZM102.816 177.528H99.168V146.328H102.816V158.712C103.392 157.88 104.224 157.192 105.312 156.648C106.432 156.072 107.6 155.784 108.816 155.784C110.768 155.784 112.48 156.28 113.952 157.272C115.424 158.232 116.544 159.576 117.312 161.304C118.048 163.032 118.416 164.888 118.416 166.872C118.416 168.952 118.032 170.84 117.264 172.536C116.496 174.2 115.408 175.512 114 176.472C112.528 177.464 110.8 177.96 108.816 177.96C107.6 177.96 106.432 177.688 105.312 177.144C104.224 176.568 103.392 175.864 102.816 175.032V177.528ZM102.816 171.192C103.36 172.28 104.128 173.144 105.12 173.784C106.112 174.392 107.168 174.696 108.288 174.696C110.24 174.696 111.808 173.976 112.992 172.536C114.176 171.064 114.768 169.176 114.768 166.872C114.768 164.568 114.176 162.696 112.992 161.256C111.808 159.784 110.24 159.048 108.288 159.048C107.168 159.048 106.112 159.368 105.12 160.008C104.128 160.616 103.36 161.464 102.816 162.552V171.192ZM123.31 177.528V146.328H126.91V177.528H123.31ZM145.197 163.368C145.197 162.056 144.733 161.016 143.805 160.248C142.909 159.48 141.677 159.096 140.109 159.096C137.997 159.096 135.981 159.72 134.061 160.968V157.56C134.765 157.048 135.725 156.632 136.941 156.312C138.189 155.96 139.437 155.784 140.685 155.784C143.181 155.784 145.133 156.44 146.541 157.752C147.981 159.064 148.701 160.84 148.701 163.08V177.528H145.197V175.944C144.685 176.456 143.901 176.92 142.845 177.336C141.821 177.72 140.765 177.912 139.677 177.912C137.405 177.912 135.517 177.288 134.013 176.04C132.509 174.76 131.757 173.112 131.757 171.096C131.757 169.816 132.109 168.68 132.813 167.688C133.517 166.664 134.477 165.864 135.693 165.288C136.941 164.712 138.333 164.424 139.869 164.424C140.861 164.424 141.869 164.6 142.893 164.952C143.949 165.272 144.717 165.672 145.197 166.152V163.368ZM145.197 170.04C144.909 169.272 144.301 168.648 143.373 168.168C142.445 167.656 141.405 167.4 140.253 167.4C138.781 167.4 137.565 167.736 136.605 168.408C135.645 169.048 135.165 169.944 135.165 171.096C135.165 172.248 135.661 173.176 136.653 173.88C137.645 174.552 138.845 174.888 140.253 174.888C141.405 174.888 142.445 174.648 143.373 174.168C144.301 173.656 144.909 173.016 145.197 172.248V170.04ZM153.321 166.872C153.321 164.696 153.769 162.76 154.665 161.064C155.561 159.368 156.793 158.056 158.361 157.128C159.929 156.232 161.673 155.784 163.593 155.784C166.089 155.784 167.993 156.376 169.305 157.56V161.208C167.833 159.736 166.009 159 163.833 159C162.553 159 161.385 159.32 160.329 159.96C159.305 160.6 158.489 161.512 157.881 162.696C157.273 163.88 156.969 165.272 156.969 166.872C156.969 168.408 157.273 169.784 157.881 171C158.489 172.216 159.321 173.144 160.377 173.784C161.401 174.424 162.553 174.744 163.833 174.744C166.009 174.744 167.833 174.008 169.305 172.536V176.184C167.993 177.368 166.089 177.96 163.593 177.96C161.673 177.96 159.929 177.496 158.361 176.568C156.793 175.64 155.561 174.344 154.665 172.68C153.769 171.016 153.321 169.08 153.321 166.872ZM181.558 165.96L192.214 177.528H187.75L177.91 166.92V177.528H174.31V146.328H177.91V165.192L187.366 156.216H192.022L181.558 165.96ZM218.135 163.368C218.135 162.056 217.671 161.016 216.743 160.248C215.847 159.48 214.615 159.096 213.047 159.096C210.935 159.096 208.919 159.72 206.999 160.968V157.56C207.703 157.048 208.663 156.632 209.879 156.312C211.127 155.96 212.375 155.784 213.623 155.784C216.119 155.784 218.071 156.44 219.479 157.752C220.919 159.064 221.639 160.84 221.639 163.08V177.528H218.135V175.944C217.623 176.456 216.839 176.92 215.783 177.336C214.759 177.72 213.703 177.912 212.615 177.912C210.343 177.912 208.455 177.288 206.951 176.04C205.447 174.76 204.695 173.112 204.695 171.096C204.695 169.816 205.047 168.68 205.751 167.688C206.455 166.664 207.415 165.864 208.631 165.288C209.879 164.712 211.271 164.424 212.807 164.424C213.799 164.424 214.807 164.6 215.831 164.952C216.887 165.272 217.655 165.672 218.135 166.152V163.368ZM218.135 170.04C217.847 169.272 217.239 168.648 216.311 168.168C215.383 167.656 214.343 167.4 213.191 167.4C211.719 167.4 210.503 167.736 209.543 168.408C208.583 169.048 208.103 169.944 208.103 171.096C208.103 172.248 208.599 173.176 209.591 173.88C210.583 174.552 211.783 174.888 213.191 174.888C214.343 174.888 215.383 174.648 216.311 174.168C217.239 173.656 217.847 173.016 218.135 172.248V170.04ZM227.794 177.528V156.216H231.394V158.904C232.066 157.976 232.962 157.224 234.082 156.648C235.202 156.072 236.402 155.784 237.682 155.784C240.018 155.784 241.842 156.488 243.154 157.896C244.498 159.304 245.17 161.192 245.17 163.56V177.528H241.522V164.136C241.522 162.568 241.106 161.336 240.274 160.44C239.474 159.544 238.322 159.096 236.818 159.096C235.57 159.096 234.45 159.48 233.458 160.248C232.466 160.984 231.778 161.928 231.394 163.08V177.528H227.794ZM265.343 177.528V175.032C264.767 175.864 263.919 176.568 262.799 177.144C261.711 177.688 260.559 177.96 259.343 177.96C257.391 177.96 255.679 177.48 254.207 176.52C252.767 175.528 251.663 174.168 250.895 172.44C250.127 170.744 249.743 168.888 249.743 166.872C249.743 164.824 250.127 162.952 250.895 161.256C251.663 159.56 252.767 158.232 254.207 157.272C255.615 156.28 257.327 155.784 259.343 155.784C260.559 155.784 261.711 156.072 262.799 156.648C263.919 157.192 264.767 157.88 265.343 158.712V146.328H268.991V177.528H265.343ZM265.343 162.552C264.799 161.464 264.031 160.616 263.039 160.008C262.047 159.368 260.991 159.048 259.871 159.048C257.919 159.048 256.351 159.784 255.167 161.256C253.983 162.696 253.391 164.568 253.391 166.872C253.391 169.176 253.983 171.064 255.167 172.536C256.351 173.976 257.919 174.696 259.871 174.696C260.991 174.696 262.047 174.392 263.039 173.784C264.031 173.144 264.799 172.28 265.343 171.192V162.552ZM291.918 172.488L296.286 156.216H299.502L303.87 172.488L308.574 156.216H312.078L305.79 177.528H302.286L297.87 161.352L293.406 177.528H289.902L283.614 156.216H287.214L291.918 172.488ZM316.154 177.528V146.328H319.754V158.904C320.426 157.976 321.322 157.224 322.442 156.648C323.562 156.072 324.762 155.784 326.042 155.784C328.378 155.784 330.202 156.488 331.514 157.896C332.858 159.304 333.53 161.192 333.53 163.56V177.528H329.882V164.136C329.882 162.568 329.466 161.336 328.634 160.44C327.834 159.544 326.682 159.096 325.178 159.096C323.93 159.096 322.81 159.48 321.818 160.248C320.826 160.984 320.138 161.928 319.754 163.08V177.528H316.154ZM343.766 149.784C343.766 150.392 343.526 150.936 343.046 151.416C342.598 151.864 342.054 152.088 341.414 152.088C340.806 152.088 340.262 151.864 339.782 151.416C339.334 150.936 339.11 150.392 339.11 149.784C339.11 149.144 339.334 148.6 339.782 148.152C340.262 147.704 340.806 147.48 341.414 147.48C342.054 147.48 342.598 147.704 343.046 148.152C343.526 148.6 343.766 149.144 343.766 149.784ZM339.638 177.528V156.216H343.238V177.528H339.638ZM360.565 156.216V159.288H355.621V177.528H352.021V159.288H347.557V156.216H352.021V150.6H355.621V156.216H360.565ZM379.791 176.088C378.223 177.336 376.063 177.96 373.311 177.96C371.263 177.96 369.455 177.512 367.887 176.616C366.351 175.72 365.167 174.456 364.335 172.824C363.471 171.192 363.039 169.272 363.039 167.064C363.039 164.888 363.439 162.952 364.239 161.256C365.039 159.528 366.159 158.184 367.599 157.224C369.039 156.264 370.687 155.784 372.543 155.784C375.327 155.784 377.471 156.728 378.975 158.616C380.511 160.472 381.279 163 381.279 166.2V167.496H366.591C366.687 169.832 367.375 171.64 368.655 172.92C369.967 174.168 371.663 174.792 373.743 174.792C374.895 174.792 375.951 174.632 376.911 174.312C377.871 173.992 378.831 173.48 379.791 172.776V176.088ZM372.591 158.856C371.119 158.856 369.855 159.368 368.799 160.392C367.743 161.416 367.071 162.84 366.783 164.664H377.775C377.711 162.904 377.231 161.496 376.335 160.44C375.439 159.384 374.191 158.856 372.591 158.856Z" fill="black"/>
    <path d="M459.08 125.248H464.56C466.747 125.248 468.6 124.794 470.12 123.888C471.667 122.981 472.84 121.701 473.64 120.048C474.467 118.368 474.88 116.408 474.88 114.168C474.88 111.901 474.467 109.941 473.64 108.288C472.84 106.634 471.667 105.354 470.12 104.448C468.6 103.541 466.747 103.088 464.56 103.088H459.08V125.248ZM455.44 128.528V99.8076H464.68C467.48 99.8076 469.92 100.394 472 101.568C474.08 102.741 475.693 104.408 476.84 106.568C478.013 108.701 478.6 111.234 478.6 114.168C478.6 117.074 478.013 119.608 476.84 121.768C475.693 123.928 474.08 125.594 472 126.768C469.92 127.941 467.48 128.528 464.68 128.528H455.44ZM482.038 118.168C482.038 116.034 482.438 114.154 483.238 112.528C484.038 110.901 485.145 109.634 486.558 108.728C487.998 107.794 489.678 107.328 491.598 107.328C493.492 107.328 495.145 107.794 496.558 108.728C497.998 109.634 499.118 110.901 499.918 112.528C500.745 114.154 501.158 116.034 501.158 118.168C501.158 120.301 500.745 122.181 499.918 123.808C499.118 125.434 497.998 126.714 496.558 127.648C495.145 128.554 493.492 129.008 491.598 129.008C489.678 129.008 487.998 128.554 486.558 127.648C485.145 126.714 484.038 125.434 483.238 123.808C482.438 122.181 482.038 120.301 482.038 118.168ZM485.558 118.168C485.558 119.688 485.798 121.034 486.278 122.208C486.758 123.381 487.452 124.301 488.358 124.968C489.265 125.608 490.345 125.928 491.598 125.928C492.825 125.928 493.892 125.608 494.798 124.968C495.705 124.301 496.398 123.381 496.878 122.208C497.358 121.034 497.598 119.688 497.598 118.168C497.598 116.648 497.358 115.314 496.878 114.168C496.398 112.994 495.705 112.074 494.798 111.408C493.892 110.741 492.825 110.408 491.598 110.408C490.345 110.408 489.265 110.741 488.358 111.408C487.452 112.074 486.758 112.994 486.278 114.168C485.798 115.314 485.558 116.648 485.558 118.168ZM505.862 128.528V107.808H509.422V110.408C510.009 109.581 510.836 108.861 511.902 108.248C512.969 107.634 514.182 107.328 515.542 107.328C517.116 107.328 518.436 107.648 519.502 108.288C520.596 108.928 521.422 109.821 521.982 110.968C522.542 112.088 522.822 113.408 522.822 114.928V128.528H519.262V115.488C519.262 114.048 518.889 112.874 518.142 111.968C517.396 111.034 516.236 110.568 514.662 110.568C513.862 110.568 513.102 110.741 512.382 111.088C511.689 111.408 511.076 111.861 510.542 112.448C510.036 113.034 509.662 113.701 509.422 114.448V128.528H505.862ZM526.044 109.008L528.924 104.208C528.337 104.128 527.844 103.888 527.444 103.488C527.044 103.088 526.844 102.554 526.844 101.888C526.844 101.408 526.951 100.981 527.164 100.608C527.404 100.234 527.711 99.9409 528.084 99.7276C528.484 99.4876 528.911 99.3676 529.364 99.3676C529.791 99.3676 530.191 99.4743 530.564 99.6876C530.964 99.9009 531.271 100.208 531.484 100.608C531.724 101.008 531.844 101.501 531.844 102.088C531.844 102.594 531.751 103.101 531.564 103.608C531.377 104.114 531.137 104.581 530.844 105.008L528.444 109.008H526.044ZM542.015 110.768V128.528H538.495V110.768H534.135V107.808H538.495V102.288H542.015V107.808H546.815V110.768H542.015ZM558.019 126.928V123.208C558.659 123.794 559.352 124.301 560.099 124.728C560.845 125.128 561.619 125.448 562.419 125.688C563.245 125.901 564.072 126.008 564.899 126.008C565.672 126.008 566.379 125.901 567.019 125.688C567.685 125.474 568.219 125.154 568.619 124.728C569.045 124.274 569.259 123.701 569.259 123.008C569.259 122.261 568.992 121.661 568.459 121.208C567.925 120.754 567.232 120.381 566.379 120.088C565.552 119.794 564.659 119.501 563.699 119.208C562.765 118.888 561.872 118.514 561.019 118.088C560.165 117.634 559.472 117.034 558.939 116.288C558.405 115.514 558.139 114.514 558.139 113.288C558.139 112.088 558.459 111.034 559.099 110.128C559.765 109.221 560.659 108.528 561.779 108.048C562.899 107.568 564.152 107.328 565.539 107.328C566.685 107.328 567.779 107.488 568.819 107.808C569.885 108.128 570.832 108.581 571.659 109.168V112.848C570.805 112.101 569.872 111.501 568.859 111.048C567.845 110.568 566.739 110.328 565.539 110.328C564.445 110.328 563.512 110.568 562.739 111.048C561.965 111.528 561.579 112.221 561.579 113.128C561.579 113.874 561.845 114.461 562.379 114.888C562.912 115.314 563.592 115.674 564.419 115.968C565.272 116.234 566.165 116.514 567.099 116.808C568.059 117.101 568.965 117.474 569.819 117.928C570.672 118.381 571.365 118.994 571.899 119.768C572.432 120.541 572.699 121.568 572.699 122.848C572.699 124.128 572.352 125.234 571.659 126.168C570.965 127.074 570.019 127.781 568.819 128.288C567.645 128.768 566.325 129.008 564.859 129.008C563.525 129.008 562.245 128.821 561.019 128.448C559.792 128.048 558.792 127.541 558.019 126.928ZM579.541 118.208C579.541 119.968 579.848 121.421 580.461 122.568C581.074 123.688 581.901 124.528 582.941 125.088C584.008 125.648 585.194 125.928 586.501 125.928C587.674 125.928 588.714 125.781 589.621 125.488C590.554 125.168 591.501 124.661 592.461 123.968V127.168C591.608 127.834 590.621 128.301 589.501 128.568C588.381 128.861 587.208 129.008 585.981 129.008C584.008 129.008 582.274 128.568 580.781 127.688C579.288 126.781 578.128 125.528 577.301 123.928C576.501 122.301 576.101 120.394 576.101 118.208C576.101 116.128 576.488 114.274 577.261 112.648C578.034 110.994 579.114 109.701 580.501 108.768C581.888 107.808 583.514 107.328 585.381 107.328C586.768 107.328 587.994 107.581 589.061 108.088C590.128 108.568 591.021 109.261 591.741 110.168C592.461 111.048 592.994 112.114 593.341 113.368C593.714 114.621 593.901 116.008 593.901 117.528V118.768H578.541L578.581 116.048H590.421C590.421 115.301 590.314 114.581 590.101 113.888C589.888 113.194 589.568 112.581 589.141 112.048C588.741 111.514 588.221 111.101 587.581 110.808C586.968 110.488 586.234 110.328 585.381 110.328C584.341 110.328 583.381 110.621 582.501 111.208C581.621 111.768 580.901 112.634 580.341 113.808C579.808 114.981 579.541 116.448 579.541 118.208ZM604.163 110.768V128.528H600.643V110.768H596.283V107.808H600.643V102.288H604.163V107.808H608.963V110.768H604.163ZM619.046 110.768V128.528H615.526V110.768H611.166V107.808H615.526V102.288H619.046V107.808H623.846V110.768H619.046ZM631.649 98.1276V128.528H628.089V98.1276H631.649ZM639.853 118.208C639.853 119.968 640.16 121.421 640.773 122.568C641.387 123.688 642.213 124.528 643.253 125.088C644.32 125.648 645.507 125.928 646.813 125.928C647.987 125.928 649.027 125.781 649.933 125.488C650.867 125.168 651.813 124.661 652.773 123.968V127.168C651.92 127.834 650.933 128.301 649.813 128.568C648.693 128.861 647.52 129.008 646.293 129.008C644.32 129.008 642.587 128.568 641.093 127.688C639.6 126.781 638.44 125.528 637.613 123.928C636.813 122.301 636.413 120.394 636.413 118.208C636.413 116.128 636.8 114.274 637.573 112.648C638.347 110.994 639.427 109.701 640.813 108.768C642.2 107.808 643.827 107.328 645.693 107.328C647.08 107.328 648.307 107.581 649.373 108.088C650.44 108.568 651.333 109.261 652.053 110.168C652.773 111.048 653.307 112.114 653.653 113.368C654.027 114.621 654.213 116.008 654.213 117.528V118.768H638.853L638.893 116.048H650.733C650.733 115.301 650.627 114.581 650.413 113.888C650.2 113.194 649.88 112.581 649.453 112.048C649.053 111.514 648.533 111.101 647.893 110.808C647.28 110.488 646.547 110.328 645.693 110.328C644.653 110.328 643.693 110.621 642.813 111.208C641.933 111.768 641.213 112.634 640.653 113.808C640.12 114.981 639.853 116.448 639.853 118.208ZM671.99 107.808H676.67V110.768H671.99V128.528H668.47V110.768H664.99V107.808H668.47V104.288C668.47 102.901 668.75 101.714 669.31 100.728C669.87 99.7409 670.63 98.9943 671.59 98.4876C672.55 97.9543 673.644 97.6876 674.87 97.6876C675.377 97.6876 675.857 97.7276 676.31 97.8076C676.764 97.8876 677.19 98.0076 677.59 98.1676V101.328C677.27 101.141 676.91 100.994 676.51 100.888C676.137 100.781 675.764 100.728 675.39 100.728C674.35 100.728 673.524 101.061 672.91 101.728C672.297 102.368 671.99 103.314 671.99 104.568V107.808ZM678.679 118.168C678.679 116.034 679.079 114.154 679.879 112.528C680.679 110.901 681.786 109.634 683.199 108.728C684.639 107.794 686.319 107.328 688.239 107.328C690.132 107.328 691.786 107.794 693.199 108.728C694.639 109.634 695.759 110.901 696.559 112.528C697.386 114.154 697.799 116.034 697.799 118.168C697.799 120.301 697.386 122.181 696.559 123.808C695.759 125.434 694.639 126.714 693.199 127.648C691.786 128.554 690.132 129.008 688.239 129.008C686.319 129.008 684.639 128.554 683.199 127.648C681.786 126.714 680.679 125.434 679.879 123.808C679.079 122.181 678.679 120.301 678.679 118.168ZM682.199 118.168C682.199 119.688 682.439 121.034 682.919 122.208C683.399 123.381 684.092 124.301 684.999 124.968C685.906 125.608 686.986 125.928 688.239 125.928C689.466 125.928 690.532 125.608 691.439 124.968C692.346 124.301 693.039 123.381 693.519 122.208C693.999 121.034 694.239 119.688 694.239 118.168C694.239 116.648 693.999 115.314 693.519 114.168C693.039 112.994 692.346 112.074 691.439 111.408C690.532 110.741 689.466 110.408 688.239 110.408C686.986 110.408 685.906 110.741 684.999 111.408C684.092 112.074 683.399 112.994 682.919 114.168C682.439 115.314 682.199 116.648 682.199 118.168ZM713.223 107.648V111.248C712.929 111.061 712.569 110.928 712.143 110.848C711.716 110.768 711.289 110.728 710.863 110.728C710.116 110.728 709.423 110.874 708.783 111.168C708.143 111.461 707.583 111.901 707.103 112.488C706.623 113.074 706.276 113.768 706.063 114.568V128.528H702.503V107.808H706.063V110.448C706.356 109.861 706.756 109.341 707.263 108.888C707.769 108.408 708.356 108.034 709.023 107.768C709.689 107.474 710.396 107.328 711.143 107.328C711.596 107.328 712.009 107.354 712.383 107.408C712.756 107.461 713.036 107.541 713.223 107.648ZM458.68 174.088V176.528H455.12V146.128H458.68V158.248C459.027 157.741 459.493 157.274 460.08 156.848C460.693 156.394 461.373 156.034 462.12 155.768C462.893 155.474 463.72 155.328 464.6 155.328C466.067 155.328 467.373 155.621 468.52 156.208C469.693 156.768 470.68 157.554 471.48 158.568C472.28 159.554 472.88 160.701 473.28 162.008C473.707 163.314 473.92 164.701 473.92 166.168C473.92 167.634 473.707 169.021 473.28 170.328C472.88 171.634 472.28 172.794 471.48 173.808C470.68 174.794 469.693 175.581 468.52 176.168C467.373 176.728 466.067 177.008 464.6 177.008C463.72 177.008 462.893 176.861 462.12 176.568C461.373 176.301 460.693 175.954 460.08 175.528C459.493 175.074 459.027 174.594 458.68 174.088ZM458.68 170.368C459.213 171.461 459.96 172.314 460.92 172.928C461.907 173.541 462.933 173.848 464 173.848C464.987 173.848 465.867 173.661 466.64 173.288C467.44 172.888 468.107 172.354 468.64 171.688C469.2 170.994 469.627 170.181 469.92 169.248C470.213 168.314 470.36 167.288 470.36 166.168C470.36 165.048 470.213 164.021 469.92 163.088C469.627 162.154 469.2 161.354 468.64 160.688C468.107 159.994 467.44 159.461 466.64 159.088C465.867 158.688 464.987 158.488 464 158.488C462.933 158.488 461.907 158.794 460.92 159.408C459.96 160.021 459.213 160.874 458.68 161.968V170.368ZM482.196 146.128V176.528H478.636V146.128H482.196ZM495.16 174.088C496.334 174.088 497.374 173.848 498.28 173.368C499.214 172.861 499.84 172.221 500.16 171.448V169.208C499.84 168.461 499.214 167.848 498.28 167.368C497.374 166.888 496.334 166.648 495.16 166.648C494.334 166.648 493.547 166.794 492.8 167.088C492.054 167.354 491.454 167.768 491 168.328C490.547 168.888 490.32 169.568 490.32 170.368C490.32 171.168 490.547 171.848 491 172.408C491.454 172.968 492.054 173.394 492.8 173.688C493.547 173.954 494.334 174.088 495.16 174.088ZM500.16 162.688C500.16 161.461 499.72 160.461 498.84 159.688C497.96 158.914 496.68 158.528 495 158.528C493.88 158.528 492.827 158.701 491.84 159.048C490.854 159.368 489.934 159.821 489.08 160.408V157.048C489.774 156.568 490.707 156.168 491.88 155.848C493.054 155.501 494.28 155.328 495.56 155.328C497.24 155.328 498.667 155.621 499.84 156.208C501.04 156.768 501.947 157.594 502.56 158.688C503.2 159.781 503.52 161.074 503.52 162.568V176.528H500.16V175.008C499.76 175.461 499.067 175.914 498.08 176.368C497.094 176.794 495.96 177.008 494.68 177.008C493.294 177.008 492.014 176.741 490.84 176.208C489.667 175.648 488.734 174.874 488.04 173.888C487.347 172.901 487 171.728 487 170.368C487 169.034 487.347 167.874 488.04 166.888C488.734 165.874 489.667 165.101 490.84 164.568C492.014 164.008 493.294 163.728 494.68 163.728C495.96 163.728 497.094 163.941 498.08 164.368C499.094 164.794 499.787 165.221 500.16 165.648V162.688ZM511.574 166.168C511.574 167.714 511.867 169.074 512.454 170.248C513.067 171.394 513.881 172.288 514.894 172.928C515.907 173.568 517.041 173.888 518.294 173.888C519.281 173.888 520.227 173.714 521.134 173.368C522.041 173.021 522.881 172.474 523.654 171.728V175.208C522.907 175.848 522.041 176.301 521.054 176.568C520.094 176.861 519.107 177.008 518.094 177.008C516.174 177.008 514.454 176.554 512.934 175.648C511.414 174.741 510.214 173.474 509.334 171.848C508.481 170.221 508.054 168.328 508.054 166.168C508.054 164.008 508.481 162.114 509.334 160.488C510.214 158.861 511.414 157.594 512.934 156.688C514.454 155.781 516.174 155.328 518.094 155.328C519.107 155.328 520.094 155.474 521.054 155.768C522.041 156.034 522.907 156.488 523.654 157.128V160.608C522.881 159.861 522.041 159.314 521.134 158.968C520.227 158.621 519.281 158.448 518.294 158.448C517.041 158.448 515.907 158.768 514.894 159.408C513.881 160.048 513.067 160.954 512.454 162.128C511.867 163.274 511.574 164.621 511.574 166.168ZM535.479 165.208L545.959 176.528H541.559L532.039 166.248V176.528H528.479V146.128H532.039V164.448L541.359 155.808H545.679L535.479 165.208ZM564.34 174.088C565.513 174.088 566.553 173.848 567.46 173.368C568.393 172.861 569.02 172.221 569.34 171.448V169.208C569.02 168.461 568.393 167.848 567.46 167.368C566.553 166.888 565.513 166.648 564.34 166.648C563.513 166.648 562.727 166.794 561.98 167.088C561.233 167.354 560.633 167.768 560.18 168.328C559.727 168.888 559.5 169.568 559.5 170.368C559.5 171.168 559.727 171.848 560.18 172.408C560.633 172.968 561.233 173.394 561.98 173.688C562.727 173.954 563.513 174.088 564.34 174.088ZM569.34 162.688C569.34 161.461 568.9 160.461 568.02 159.688C567.14 158.914 565.86 158.528 564.18 158.528C563.06 158.528 562.007 158.701 561.02 159.048C560.033 159.368 559.113 159.821 558.26 160.408V157.048C558.953 156.568 559.887 156.168 561.06 155.848C562.233 155.501 563.46 155.328 564.74 155.328C566.42 155.328 567.847 155.621 569.02 156.208C570.22 156.768 571.127 157.594 571.74 158.688C572.38 159.781 572.7 161.074 572.7 162.568V176.528H569.34V175.008C568.94 175.461 568.247 175.914 567.26 176.368C566.273 176.794 565.14 177.008 563.86 177.008C562.473 177.008 561.193 176.741 560.02 176.208C558.847 175.648 557.913 174.874 557.22 173.888C556.527 172.901 556.18 171.728 556.18 170.368C556.18 169.034 556.527 167.874 557.22 166.888C557.913 165.874 558.847 165.101 560.02 164.568C561.193 164.008 562.473 163.728 563.86 163.728C565.14 163.728 566.273 163.941 567.26 164.368C568.273 164.794 568.967 165.221 569.34 165.648V162.688ZM578.714 176.528V155.808H582.274V158.408C582.86 157.581 583.687 156.861 584.754 156.248C585.82 155.634 587.034 155.328 588.394 155.328C589.967 155.328 591.287 155.648 592.354 156.288C593.447 156.928 594.274 157.821 594.834 158.968C595.394 160.088 595.674 161.408 595.674 162.928V176.528H592.114V163.488C592.114 162.048 591.74 160.874 590.994 159.968C590.247 159.034 589.087 158.568 587.514 158.568C586.714 158.568 585.954 158.741 585.234 159.088C584.54 159.408 583.927 159.861 583.394 160.448C582.887 161.034 582.514 161.701 582.274 162.448V176.528H578.714ZM615.363 174.088C615.017 174.594 614.55 175.074 613.963 175.528C613.377 175.954 612.697 176.301 611.923 176.568C611.15 176.861 610.323 177.008 609.443 177.008C607.977 177.008 606.657 176.728 605.483 176.168C604.337 175.581 603.363 174.794 602.563 173.808C601.79 172.794 601.19 171.634 600.763 170.328C600.363 169.021 600.163 167.634 600.163 166.168C600.163 164.701 600.363 163.314 600.763 162.008C601.19 160.701 601.79 159.554 602.563 158.568C603.363 157.554 604.337 156.768 605.483 156.208C606.657 155.621 607.977 155.328 609.443 155.328C610.323 155.328 611.15 155.474 611.923 155.768C612.697 156.034 613.377 156.394 613.963 156.848C614.55 157.274 615.017 157.741 615.363 158.248V146.128H618.923V176.528H615.363V174.088ZM615.363 170.368V161.968C614.83 160.874 614.083 160.021 613.123 159.408C612.163 158.794 611.137 158.488 610.043 158.488C609.057 158.488 608.163 158.688 607.363 159.088C606.59 159.461 605.923 159.994 605.363 160.688C604.83 161.354 604.417 162.154 604.123 163.088C603.83 164.021 603.683 165.048 603.683 166.168C603.683 167.288 603.83 168.314 604.123 169.248C604.417 170.181 604.83 170.994 605.363 171.688C605.923 172.354 606.59 172.888 607.363 173.288C608.163 173.661 609.057 173.848 610.043 173.848C611.137 173.848 612.163 173.541 613.123 172.928C614.083 172.314 614.83 171.461 615.363 170.368ZM643.52 155.808H646.64L650.96 171.768L655.56 155.808H658.96L652.76 176.528H649.4L645.04 160.648L640.64 176.528H637.28L631.12 155.808H634.6L639.16 171.768L643.52 155.808ZM662.893 176.528V146.128H666.453V158.408C667.04 157.581 667.867 156.861 668.933 156.248C670 155.634 671.213 155.328 672.573 155.328C674.147 155.328 675.467 155.648 676.533 156.288C677.627 156.928 678.453 157.821 679.013 158.968C679.573 160.088 679.853 161.408 679.853 162.928V176.528H676.293V163.488C676.293 162.048 675.92 160.874 675.173 159.968C674.427 159.034 673.267 158.568 671.693 158.568C670.893 158.568 670.133 158.741 669.413 159.088C668.72 159.408 668.107 159.861 667.573 160.448C667.067 161.034 666.693 161.701 666.453 162.448V176.528H662.893ZM689.383 155.808V176.528H685.823V155.808H689.383ZM685.343 149.488C685.343 148.848 685.556 148.314 685.983 147.888C686.41 147.434 686.943 147.208 687.583 147.208C688.223 147.208 688.756 147.434 689.183 147.888C689.61 148.314 689.823 148.848 689.823 149.488C689.823 150.101 689.61 150.634 689.183 151.088C688.756 151.514 688.223 151.728 687.583 151.728C686.943 151.728 686.41 151.514 685.983 151.088C685.556 150.634 685.343 150.101 685.343 149.488ZM701.468 158.768V176.528H697.948V158.768H693.588V155.808H697.948V150.288H701.468V155.808H706.268V158.768H701.468ZM712.002 166.208C712.002 167.968 712.309 169.421 712.922 170.568C713.535 171.688 714.362 172.528 715.402 173.088C716.469 173.648 717.655 173.928 718.962 173.928C720.135 173.928 721.175 173.781 722.082 173.488C723.015 173.168 723.962 172.661 724.922 171.968V175.168C724.069 175.834 723.082 176.301 721.962 176.568C720.842 176.861 719.669 177.008 718.442 177.008C716.469 177.008 714.735 176.568 713.242 175.688C711.749 174.781 710.589 173.528 709.762 171.928C708.962 170.301 708.562 168.394 708.562 166.208C708.562 164.128 708.949 162.274 709.722 160.648C710.495 158.994 711.575 157.701 712.962 156.768C714.349 155.808 715.975 155.328 717.842 155.328C719.229 155.328 720.455 155.581 721.522 156.088C722.589 156.568 723.482 157.261 724.202 158.168C724.922 159.048 725.455 160.114 725.802 161.368C726.175 162.621 726.362 164.008 726.362 165.528V166.768H711.002L711.042 164.048H722.882C722.882 163.301 722.775 162.581 722.562 161.888C722.349 161.194 722.029 160.581 721.602 160.048C721.202 159.514 720.682 159.101 720.042 158.808C719.429 158.488 718.695 158.328 717.842 158.328C716.802 158.328 715.842 158.621 714.962 159.208C714.082 159.768 713.362 160.634 712.802 161.808C712.269 162.981 712.002 164.448 712.002 166.208Z" fill="black"/>
    <rect x="102" y="218.524" width="142" height="78" rx="8" fill="#666666"/>
    <path d="M127.72 235.396L124.57 240.148H124.498L121.312 235.396V242.524H119.062V231.472H121.204L124.552 236.692L127.882 231.472H129.988V242.524H127.72V235.396ZM133.635 239.014C133.731 239.638 133.977 240.106 134.373 240.418C134.769 240.718 135.297 240.868 135.957 240.868C136.401 240.868 136.797 240.814 137.145 240.706C137.493 240.598 137.865 240.418 138.261 240.166V242.002C137.637 242.47 136.755 242.704 135.615 242.704C135.003 242.704 134.445 242.608 133.941 242.416C133.437 242.224 133.005 241.948 132.645 241.588C131.877 240.856 131.493 239.848 131.493 238.564C131.493 237.952 131.583 237.382 131.763 236.854C131.955 236.314 132.219 235.858 132.555 235.486C132.891 235.114 133.293 234.826 133.761 234.622C134.241 234.406 134.745 234.298 135.273 234.298C136.401 234.298 137.271 234.658 137.883 235.378C138.507 236.098 138.819 237.07 138.819 238.294V239.014H133.635ZM135.327 236.08C134.931 236.08 134.595 236.206 134.319 236.458C134.043 236.698 133.839 237.064 133.707 237.556H136.749C136.725 237.1 136.587 236.74 136.335 236.476C136.083 236.212 135.747 236.08 135.327 236.08ZM145.084 236.278H143.374V242.524H141.142V236.278H139.612V234.478H141.142V232.3H143.374V234.478H145.084V236.278ZM151.307 236.674C151.007 236.494 150.635 236.404 150.191 236.404C149.795 236.404 149.459 236.506 149.183 236.71C148.919 236.902 148.745 237.178 148.661 237.538V242.524H146.429V234.478H148.661V235.27C148.841 234.97 149.087 234.736 149.399 234.568C149.723 234.388 150.077 234.298 150.461 234.298C150.629 234.298 150.791 234.316 150.947 234.352C151.115 234.376 151.235 234.406 151.307 234.442V236.674ZM155.17 232.156C155.17 232.516 155.038 232.822 154.774 233.074C154.522 233.314 154.216 233.434 153.856 233.434C153.484 233.434 153.166 233.314 152.902 233.074C152.65 232.822 152.524 232.516 152.524 232.156C152.524 231.796 152.656 231.496 152.92 231.256C153.184 231.004 153.496 230.878 153.856 230.878C154.216 230.878 154.522 231.004 154.774 231.256C155.038 231.496 155.17 231.796 155.17 232.156ZM152.74 234.478H154.972V242.524H152.74V234.478ZM156.419 238.51C156.419 237.886 156.521 237.31 156.725 236.782C156.941 236.254 157.235 235.804 157.607 235.432C157.967 235.072 158.393 234.796 158.885 234.604C159.377 234.4 159.911 234.298 160.487 234.298C161.387 234.298 162.113 234.508 162.665 234.928V236.962C162.149 236.482 161.513 236.242 160.757 236.242C160.121 236.242 159.605 236.446 159.209 236.854C158.825 237.262 158.633 237.814 158.633 238.51C158.633 239.206 158.825 239.758 159.209 240.166C159.605 240.574 160.121 240.778 160.757 240.778C161.477 240.778 162.113 240.538 162.665 240.058V242.074C162.113 242.494 161.387 242.704 160.487 242.704C159.911 242.704 159.377 242.608 158.885 242.416C158.393 242.212 157.967 241.93 157.607 241.57C156.815 240.814 156.419 239.794 156.419 238.51ZM122.474 254.888V255.882H118.358V254.888H122.474ZM119.591 262.524V253.834C119.591 253.396 119.694 253.032 119.899 252.74C120.105 252.448 120.371 252.23 120.7 252.084C121.028 251.938 121.374 251.865 121.739 251.865C122.027 251.865 122.262 251.888 122.445 251.935C122.627 251.981 122.763 252.024 122.852 252.064L122.514 253.078C122.455 253.058 122.372 253.033 122.266 253.004C122.163 252.974 122.027 252.959 121.858 252.959C121.47 252.959 121.19 253.057 121.018 253.252C120.849 253.448 120.764 253.734 120.764 254.112V262.524H119.591ZM126.907 262.683C126.217 262.683 125.612 262.519 125.092 262.191C124.575 261.863 124.171 261.404 123.879 260.814C123.591 260.224 123.446 259.535 123.446 258.746C123.446 257.95 123.591 257.256 123.879 256.663C124.171 256.069 124.575 255.609 125.092 255.281C125.612 254.952 126.217 254.788 126.907 254.788C127.596 254.788 128.199 254.952 128.716 255.281C129.237 255.609 129.641 256.069 129.929 256.663C130.221 257.256 130.367 257.95 130.367 258.746C130.367 259.535 130.221 260.224 129.929 260.814C129.641 261.404 129.237 261.863 128.716 262.191C128.199 262.519 127.596 262.683 126.907 262.683ZM126.907 261.629C127.43 261.629 127.861 261.495 128.199 261.227C128.537 260.958 128.788 260.605 128.95 260.168C129.112 259.73 129.194 259.256 129.194 258.746C129.194 258.235 129.112 257.76 128.95 257.319C128.788 256.878 128.537 256.522 128.199 256.25C127.861 255.978 127.43 255.842 126.907 255.842C126.383 255.842 125.952 255.978 125.614 256.25C125.276 256.522 125.026 256.878 124.863 257.319C124.701 257.76 124.62 258.235 124.62 258.746C124.62 259.256 124.701 259.73 124.863 260.168C125.026 260.605 125.276 260.958 125.614 261.227C125.952 261.495 126.383 261.629 126.907 261.629ZM133.331 257.93V262.524H132.158V254.888H133.291V256.081H133.391C133.57 255.693 133.842 255.382 134.206 255.146C134.571 254.908 135.041 254.788 135.618 254.788C136.135 254.788 136.588 254.894 136.975 255.107C137.363 255.315 137.665 255.634 137.88 256.061C138.096 256.485 138.203 257.022 138.203 257.672V262.524H137.03V257.752C137.03 257.152 136.874 256.684 136.563 256.35C136.251 256.011 135.824 255.842 135.28 255.842C134.905 255.842 134.571 255.924 134.276 256.086C133.984 256.248 133.754 256.485 133.585 256.797C133.416 257.109 133.331 257.486 133.331 257.93ZM143.668 254.888V255.882H139.711V254.888H143.668ZM140.864 253.058H142.038V260.337C142.038 260.668 142.086 260.917 142.182 261.082C142.281 261.245 142.407 261.354 142.56 261.411C142.715 261.464 142.879 261.49 143.052 261.49C143.181 261.49 143.287 261.484 143.37 261.47C143.453 261.454 143.519 261.44 143.569 261.43L143.808 262.484C143.728 262.514 143.617 262.544 143.474 262.574C143.332 262.607 143.151 262.624 142.933 262.624C142.601 262.624 142.276 262.552 141.958 262.41C141.643 262.267 141.381 262.05 141.173 261.759C140.967 261.467 140.864 261.099 140.864 260.655V253.058ZM149.535 257.612V258.706H145.08V257.612H149.535ZM157.008 256.598L155.954 256.896C155.888 256.721 155.79 256.55 155.661 256.384C155.535 256.215 155.363 256.076 155.144 255.967C154.925 255.857 154.645 255.803 154.304 255.803C153.836 255.803 153.447 255.91 153.135 256.126C152.827 256.338 152.673 256.608 152.673 256.936C152.673 257.228 152.779 257.458 152.991 257.627C153.203 257.796 153.535 257.937 153.986 258.05L155.119 258.328C155.802 258.494 156.311 258.747 156.645 259.089C156.98 259.427 157.148 259.863 157.148 260.396C157.148 260.834 157.022 261.225 156.77 261.57C156.521 261.914 156.173 262.186 155.726 262.385C155.278 262.584 154.758 262.683 154.165 262.683C153.386 262.683 152.741 262.514 152.231 262.176C151.72 261.838 151.397 261.344 151.261 260.695L152.375 260.416C152.481 260.827 152.681 261.135 152.976 261.341C153.275 261.546 153.664 261.649 154.145 261.649C154.692 261.649 155.126 261.533 155.447 261.301C155.772 261.066 155.934 260.784 155.934 260.456C155.934 260.191 155.842 259.969 155.656 259.79C155.47 259.608 155.185 259.472 154.801 259.382L153.528 259.084C152.829 258.918 152.315 258.661 151.987 258.313C151.662 257.962 151.5 257.523 151.5 256.996C151.5 256.565 151.621 256.184 151.863 255.852C152.108 255.521 152.441 255.261 152.862 255.072C153.286 254.883 153.767 254.788 154.304 254.788C155.059 254.788 155.653 254.954 156.084 255.286C156.518 255.617 156.826 256.055 157.008 256.598ZM158.914 262.524V254.888H160.087V262.524H158.914ZM159.51 253.615C159.282 253.615 159.084 253.537 158.919 253.381C158.756 253.226 158.675 253.038 158.675 252.82C158.675 252.601 158.756 252.414 158.919 252.258C159.084 252.102 159.282 252.024 159.51 252.024C159.739 252.024 159.935 252.102 160.097 252.258C160.263 252.414 160.346 252.601 160.346 252.82C160.346 253.038 160.263 253.226 160.097 253.381C159.935 253.537 159.739 253.615 159.51 253.615ZM162.017 262.524V261.629L166.352 256.061V255.982H162.156V254.888H167.864V255.823L163.648 261.351V261.43H168.003V262.524H162.017ZM172.793 262.683C172.057 262.683 171.423 262.521 170.889 262.196C170.359 261.868 169.949 261.411 169.661 260.824C169.376 260.234 169.233 259.548 169.233 258.766C169.233 257.984 169.376 257.294 169.661 256.698C169.949 256.098 170.35 255.63 170.864 255.296C171.381 254.957 171.984 254.788 172.674 254.788C173.072 254.788 173.464 254.855 173.852 254.987C174.24 255.12 174.593 255.335 174.911 255.634C175.229 255.929 175.483 256.32 175.672 256.807C175.861 257.294 175.955 257.894 175.955 258.607V259.104H170.069V258.09H174.762C174.762 257.659 174.676 257.274 174.503 256.936C174.334 256.598 174.092 256.331 173.778 256.136C173.466 255.94 173.098 255.842 172.674 255.842C172.206 255.842 171.802 255.958 171.461 256.19C171.123 256.419 170.863 256.717 170.68 257.085C170.498 257.453 170.407 257.848 170.407 258.269V258.945C170.407 259.521 170.506 260.01 170.705 260.411C170.907 260.809 171.187 261.112 171.545 261.321C171.903 261.527 172.319 261.629 172.793 261.629C173.101 261.629 173.38 261.586 173.628 261.5C173.88 261.411 174.097 261.278 174.28 261.102C174.462 260.923 174.603 260.701 174.702 260.436L175.836 260.754C175.716 261.139 175.516 261.477 175.234 261.769C174.952 262.057 174.604 262.282 174.19 262.445C173.776 262.604 173.31 262.683 172.793 262.683ZM185.307 260.536V259.293L189.706 252.342H190.686V254.172H190.064L186.917 259.153V259.233H192.948V260.536H185.307ZM190.134 262.524V260.158L190.144 259.591V252.342H191.601V262.524H190.134ZM198.121 262.663C197.408 262.663 196.779 262.541 196.232 262.296C195.688 262.05 195.262 261.712 194.954 261.281C194.646 260.85 194.493 260.36 194.497 259.81C194.493 259.379 194.581 258.983 194.76 258.622C194.942 258.257 195.189 257.954 195.501 257.712C195.812 257.466 196.16 257.311 196.545 257.244V257.185C196.038 257.062 195.632 256.79 195.327 256.369C195.022 255.948 194.871 255.465 194.874 254.918C194.871 254.397 195.009 253.933 195.287 253.526C195.569 253.115 195.955 252.792 196.445 252.556C196.936 252.321 197.494 252.203 198.121 252.203C198.741 252.203 199.294 252.323 199.781 252.561C200.272 252.796 200.658 253.12 200.94 253.531C201.222 253.938 201.364 254.401 201.367 254.918C201.364 255.465 201.208 255.948 200.9 256.369C200.592 256.79 200.191 257.062 199.697 257.185V257.244C200.078 257.311 200.421 257.466 200.726 257.712C201.034 257.954 201.28 258.257 201.462 258.622C201.647 258.983 201.742 259.379 201.745 259.81C201.742 260.36 201.586 260.85 201.278 261.281C200.97 261.712 200.542 262.05 199.995 262.296C199.452 262.541 198.827 262.663 198.121 262.663ZM198.121 261.406C198.542 261.406 198.906 261.336 199.215 261.197C199.523 261.054 199.762 260.857 199.931 260.605C200.1 260.35 200.186 260.052 200.189 259.71C200.186 259.356 200.093 259.042 199.911 258.771C199.732 258.499 199.488 258.285 199.18 258.129C198.872 257.974 198.519 257.896 198.121 257.896C197.72 257.896 197.364 257.974 197.052 258.129C196.74 258.285 196.495 258.499 196.316 258.771C196.137 259.042 196.049 259.356 196.053 259.71C196.049 260.052 196.131 260.35 196.296 260.605C196.465 260.857 196.706 261.054 197.017 261.197C197.329 261.336 197.697 261.406 198.121 261.406ZM198.121 256.668C198.459 256.668 198.759 256.6 199.021 256.464C199.283 256.328 199.488 256.139 199.637 255.897C199.79 255.655 199.868 255.372 199.871 255.047C199.868 254.729 199.791 254.45 199.642 254.212C199.496 253.973 199.293 253.789 199.031 253.66C198.769 253.527 198.466 253.461 198.121 253.461C197.77 253.461 197.461 253.527 197.196 253.66C196.934 253.789 196.731 253.973 196.585 254.212C196.439 254.45 196.368 254.729 196.371 255.047C196.368 255.372 196.441 255.655 196.59 255.897C196.739 256.139 196.944 256.328 197.206 256.464C197.471 256.6 197.776 256.668 198.121 256.668ZM203.546 265.388V254.888H204.998V256.126H205.122C205.208 255.967 205.333 255.783 205.495 255.574C205.657 255.365 205.883 255.183 206.171 255.027C206.46 254.868 206.841 254.788 207.315 254.788C207.931 254.788 208.481 254.944 208.965 255.256C209.449 255.567 209.829 256.016 210.104 256.603C210.382 257.19 210.521 257.896 210.521 258.721C210.521 259.546 210.384 260.254 210.109 260.844C209.834 261.43 209.456 261.883 208.975 262.201C208.495 262.516 207.946 262.673 207.33 262.673C206.866 262.673 206.486 262.595 206.191 262.44C205.899 262.284 205.671 262.102 205.505 261.893C205.339 261.684 205.212 261.498 205.122 261.336H205.033V265.388H203.546ZM205.003 258.706C205.003 259.243 205.081 259.714 205.237 260.118C205.392 260.522 205.618 260.839 205.913 261.068C206.208 261.293 206.569 261.406 206.996 261.406C207.441 261.406 207.812 261.288 208.11 261.053C208.408 260.814 208.634 260.491 208.786 260.083C208.942 259.676 209.02 259.216 209.02 258.706C209.02 258.202 208.944 257.75 208.791 257.349C208.642 256.948 208.417 256.631 208.115 256.399C207.817 256.167 207.444 256.051 206.996 256.051C206.566 256.051 206.201 256.162 205.903 256.384C205.608 256.606 205.384 256.916 205.232 257.314C205.079 257.712 205.003 258.176 205.003 258.706ZM213.059 254.888L214.745 257.861L216.445 254.888H218.071L215.689 258.706L218.091 262.524H216.465L214.745 259.671L213.029 262.524H211.399L213.775 258.706L211.429 254.888H213.059ZM120.247 272.342V282.524H119.074V272.342H120.247ZM122.396 282.524V274.888H123.569V282.524H122.396ZM122.993 273.615C122.764 273.615 122.567 273.537 122.401 273.381C122.239 273.226 122.157 273.038 122.157 272.82C122.157 272.601 122.239 272.414 122.401 272.258C122.567 272.102 122.764 272.024 122.993 272.024C123.221 272.024 123.417 272.102 123.579 272.258C123.745 272.414 123.828 272.601 123.828 272.82C123.828 273.038 123.745 273.226 123.579 273.381C123.417 273.537 123.221 273.615 122.993 273.615ZM126.892 277.93V282.524H125.718V274.888H126.852V276.081H126.951C127.13 275.693 127.402 275.382 127.767 275.146C128.131 274.908 128.602 274.788 129.179 274.788C129.696 274.788 130.148 274.894 130.536 275.107C130.924 275.315 131.225 275.634 131.441 276.061C131.656 276.485 131.764 277.022 131.764 277.672V282.524H130.591V277.752C130.591 277.152 130.435 276.684 130.123 276.35C129.812 276.011 129.384 275.842 128.841 275.842C128.466 275.842 128.131 275.924 127.836 276.086C127.545 276.248 127.314 276.485 127.145 276.797C126.976 277.109 126.892 277.486 126.892 277.93ZM137.11 282.683C136.374 282.683 135.739 282.521 135.205 282.196C134.675 281.868 134.266 281.411 133.977 280.824C133.692 280.234 133.55 279.548 133.55 278.766C133.55 277.984 133.692 277.294 133.977 276.698C134.266 276.098 134.667 275.63 135.181 275.296C135.698 274.957 136.301 274.788 136.99 274.788C137.388 274.788 137.781 274.855 138.169 274.987C138.556 275.12 138.909 275.335 139.227 275.634C139.546 275.929 139.799 276.32 139.988 276.807C140.177 277.294 140.271 277.894 140.271 278.607V279.104H134.385V278.09H139.078C139.078 277.659 138.992 277.274 138.82 276.936C138.651 276.598 138.409 276.331 138.094 276.136C137.782 275.94 137.414 275.842 136.99 275.842C136.523 275.842 136.119 275.958 135.777 276.19C135.439 276.419 135.179 276.717 134.997 277.085C134.814 277.453 134.723 277.848 134.723 278.269V278.945C134.723 279.521 134.823 280.01 135.021 280.411C135.224 280.809 135.504 281.112 135.862 281.321C136.22 281.527 136.636 281.629 137.11 281.629C137.418 281.629 137.696 281.586 137.945 281.5C138.197 281.411 138.414 281.278 138.596 281.102C138.778 280.923 138.919 280.701 139.019 280.436L140.152 280.754C140.033 281.139 139.832 281.477 139.551 281.769C139.269 282.057 138.921 282.282 138.507 282.445C138.092 282.604 137.627 282.683 137.11 282.683ZM146.431 277.612V278.706H141.977V277.612H146.431ZM149.669 277.93V282.524H148.496V272.342H149.669V276.081H149.768C149.947 275.687 150.216 275.373 150.574 275.141C150.935 274.906 151.416 274.788 152.016 274.788C152.536 274.788 152.992 274.893 153.383 275.102C153.774 275.307 154.077 275.624 154.293 276.051C154.511 276.475 154.621 277.016 154.621 277.672V282.524H153.447V277.752C153.447 277.145 153.29 276.676 152.975 276.345C152.664 276.01 152.231 275.842 151.678 275.842C151.293 275.842 150.948 275.924 150.643 276.086C150.342 276.248 150.103 276.485 149.928 276.797C149.755 277.109 149.669 277.486 149.669 277.93ZM159.969 282.683C159.233 282.683 158.598 282.521 158.065 282.196C157.535 281.868 157.125 281.411 156.837 280.824C156.552 280.234 156.409 279.548 156.409 278.766C156.409 277.984 156.552 277.294 156.837 276.698C157.125 276.098 157.526 275.63 158.04 275.296C158.557 274.957 159.16 274.788 159.85 274.788C160.247 274.788 160.64 274.855 161.028 274.987C161.416 275.12 161.769 275.335 162.087 275.634C162.405 275.929 162.659 276.32 162.847 276.807C163.036 277.294 163.131 277.894 163.131 278.607V279.104H157.244V278.09H161.938C161.938 277.659 161.852 277.274 161.679 276.936C161.51 276.598 161.268 276.331 160.953 276.136C160.642 275.94 160.274 275.842 159.85 275.842C159.382 275.842 158.978 275.958 158.637 276.19C158.298 276.419 158.038 276.717 157.856 277.085C157.674 277.453 157.583 277.848 157.583 278.269V278.945C157.583 279.521 157.682 280.01 157.881 280.411C158.083 280.809 158.363 281.112 158.721 281.321C159.079 281.527 159.495 281.629 159.969 281.629C160.277 281.629 160.556 281.586 160.804 281.5C161.056 281.411 161.273 281.278 161.455 281.102C161.638 280.923 161.779 280.701 161.878 280.436L163.012 280.754C162.892 281.139 162.692 281.477 162.41 281.769C162.128 282.057 161.78 282.282 161.366 282.445C160.952 282.604 160.486 282.683 159.969 282.683ZM164.916 282.524V274.888H166.089V282.524H164.916ZM165.512 273.615C165.284 273.615 165.086 273.537 164.921 273.381C164.758 273.226 164.677 273.038 164.677 272.82C164.677 272.601 164.758 272.414 164.921 272.258C165.086 272.102 165.284 272.024 165.512 272.024C165.741 272.024 165.936 272.102 166.099 272.258C166.265 272.414 166.347 272.601 166.347 272.82C166.347 273.038 166.265 273.226 166.099 273.381C165.936 273.537 165.741 273.615 165.512 273.615ZM171.32 285.547C170.754 285.547 170.266 285.474 169.859 285.328C169.451 285.186 169.111 284.997 168.839 284.761C168.571 284.529 168.357 284.281 168.198 284.016L169.133 283.359C169.239 283.499 169.373 283.658 169.536 283.837C169.698 284.019 169.92 284.176 170.202 284.309C170.487 284.445 170.86 284.513 171.32 284.513C171.937 284.513 172.446 284.364 172.847 284.065C173.248 283.767 173.448 283.3 173.448 282.663V281.112H173.349C173.263 281.252 173.14 281.424 172.981 281.629C172.825 281.832 172.6 282.012 172.305 282.171C172.013 282.327 171.619 282.405 171.121 282.405C170.505 282.405 169.951 282.259 169.461 281.967C168.974 281.676 168.588 281.252 168.303 280.695C168.021 280.138 167.88 279.462 167.88 278.666C167.88 277.884 168.018 277.203 168.293 276.623C168.568 276.04 168.951 275.589 169.441 275.271C169.932 274.949 170.498 274.788 171.141 274.788C171.638 274.788 172.033 274.871 172.325 275.037C172.62 275.199 172.845 275.385 173.001 275.594C173.16 275.799 173.282 275.968 173.369 276.101H173.488V274.888H174.621V282.743C174.621 283.399 174.472 283.933 174.174 284.344C173.879 284.758 173.481 285.061 172.981 285.254C172.484 285.449 171.93 285.547 171.32 285.547ZM171.281 281.351C171.751 281.351 172.149 281.243 172.474 281.028C172.799 280.812 173.045 280.502 173.214 280.098C173.384 279.694 173.468 279.21 173.468 278.646C173.468 278.096 173.385 277.611 173.219 277.19C173.054 276.769 172.808 276.439 172.484 276.2C172.159 275.962 171.758 275.842 171.281 275.842C170.783 275.842 170.369 275.968 170.038 276.22C169.71 276.472 169.463 276.81 169.297 277.234C169.134 277.659 169.053 278.129 169.053 278.646C169.053 279.177 169.136 279.646 169.302 280.053C169.471 280.458 169.719 280.776 170.048 281.008C170.379 281.237 170.79 281.351 171.281 281.351ZM177.942 277.93V282.524H176.769V272.342H177.942V276.081H178.042C178.221 275.687 178.489 275.373 178.847 275.141C179.209 274.906 179.689 274.788 180.289 274.788C180.809 274.788 181.265 274.893 181.656 275.102C182.047 275.307 182.351 275.624 182.566 276.051C182.785 276.475 182.894 277.016 182.894 277.672V282.524H181.721V277.752C181.721 277.145 181.563 276.676 181.249 276.345C180.937 276.01 180.504 275.842 179.951 275.842C179.567 275.842 179.222 275.924 178.917 276.086C178.615 276.248 178.377 276.485 178.201 276.797C178.029 277.109 177.942 277.486 177.942 277.93ZM188.362 274.888V275.882H184.404V274.888H188.362ZM185.558 273.058H186.731V280.337C186.731 280.668 186.779 280.917 186.875 281.082C186.975 281.245 187.101 281.354 187.253 281.411C187.409 281.464 187.573 281.49 187.745 281.49C187.874 281.49 187.981 281.484 188.063 281.47C188.146 281.454 188.213 281.44 188.262 281.43L188.501 282.484C188.421 282.514 188.31 282.544 188.168 282.574C188.025 282.607 187.845 282.624 187.626 282.624C187.294 282.624 186.97 282.552 186.651 282.41C186.337 282.267 186.075 282.05 185.866 281.759C185.66 281.467 185.558 281.099 185.558 280.655V273.058ZM193.756 280.536V279.293L198.156 272.342H199.135V274.172H198.514L195.367 279.153V279.233H201.397V280.536H193.756ZM198.583 282.524V280.158L198.593 279.591V272.342H200.05V282.524H198.583ZM206.57 282.663C205.858 282.663 205.228 282.541 204.681 282.296C204.137 282.05 203.711 281.712 203.403 281.281C203.095 280.85 202.943 280.36 202.946 279.81C202.943 279.379 203.03 278.983 203.209 278.622C203.392 278.257 203.639 277.954 203.95 277.712C204.262 277.466 204.61 277.311 204.994 277.244V277.185C204.487 277.062 204.081 276.79 203.776 276.369C203.471 275.948 203.32 275.465 203.324 274.918C203.32 274.397 203.458 273.933 203.736 273.526C204.018 273.115 204.404 272.792 204.895 272.556C205.385 272.321 205.944 272.203 206.57 272.203C207.19 272.203 207.743 272.323 208.231 272.561C208.721 272.796 209.107 273.12 209.389 273.531C209.671 273.938 209.813 274.401 209.817 274.918C209.813 275.465 209.657 275.948 209.349 276.369C209.041 276.79 208.64 277.062 208.146 277.185V277.244C208.527 277.311 208.87 277.466 209.175 277.712C209.483 277.954 209.729 278.257 209.911 278.622C210.097 278.983 210.191 279.379 210.194 279.81C210.191 280.36 210.035 280.85 209.727 281.281C209.419 281.712 208.991 282.05 208.444 282.296C207.901 282.541 207.276 282.663 206.57 282.663ZM206.57 281.406C206.991 281.406 207.356 281.336 207.664 281.197C207.972 281.054 208.211 280.857 208.38 280.605C208.549 280.35 208.635 280.052 208.638 279.71C208.635 279.356 208.542 279.042 208.36 278.771C208.181 278.499 207.937 278.285 207.629 278.129C207.321 277.974 206.968 277.896 206.57 277.896C206.169 277.896 205.813 277.974 205.501 278.129C205.19 278.285 204.944 278.499 204.765 278.771C204.586 279.042 204.499 279.356 204.502 279.71C204.499 280.052 204.58 280.35 204.746 280.605C204.915 280.857 205.155 281.054 205.466 281.197C205.778 281.336 206.146 281.406 206.57 281.406ZM206.57 276.668C206.908 276.668 207.208 276.6 207.47 276.464C207.732 276.328 207.937 276.139 208.086 275.897C208.239 275.655 208.317 275.372 208.32 275.047C208.317 274.729 208.241 274.45 208.091 274.212C207.946 273.973 207.742 273.789 207.48 273.66C207.218 273.527 206.915 273.461 206.57 273.461C206.219 273.461 205.911 273.527 205.645 273.66C205.384 273.789 205.18 273.973 205.034 274.212C204.888 274.45 204.817 274.729 204.82 275.047C204.817 275.372 204.89 275.655 205.039 275.897C205.188 276.139 205.394 276.328 205.655 276.464C205.921 276.6 206.225 276.668 206.57 276.668ZM211.995 285.388V274.888H213.447V276.126H213.571C213.658 275.967 213.782 275.783 213.944 275.574C214.107 275.365 214.332 275.183 214.62 275.027C214.909 274.868 215.29 274.788 215.764 274.788C216.38 274.788 216.931 274.944 217.414 275.256C217.898 275.567 218.278 276.016 218.553 276.603C218.831 277.19 218.971 277.896 218.971 278.721C218.971 279.546 218.833 280.254 218.558 280.844C218.283 281.43 217.905 281.883 217.424 282.201C216.944 282.516 216.395 282.673 215.779 282.673C215.315 282.673 214.935 282.595 214.64 282.44C214.349 282.284 214.12 282.102 213.954 281.893C213.788 281.684 213.661 281.498 213.571 281.336H213.482V285.388H211.995ZM213.452 278.706C213.452 279.243 213.53 279.714 213.686 280.118C213.842 280.522 214.067 280.839 214.362 281.068C214.657 281.293 215.018 281.406 215.446 281.406C215.89 281.406 216.261 281.288 216.559 281.053C216.858 280.814 217.083 280.491 217.235 280.083C217.391 279.676 217.469 279.216 217.469 278.706C217.469 278.202 217.393 277.75 217.24 277.349C217.091 276.948 216.866 276.631 216.564 276.399C216.266 276.167 215.893 276.051 215.446 276.051C215.015 276.051 214.65 276.162 214.352 276.384C214.057 276.606 213.833 276.916 213.681 277.314C213.528 277.712 213.452 278.176 213.452 278.706ZM221.509 274.888L223.194 277.861L224.894 274.888H226.52L224.138 278.706L226.54 282.524H224.914L223.194 279.671L221.479 282.524H219.848L222.224 278.706L219.878 274.888H221.509Z" fill="white"/>
    <line x1="126.5" y1="218.528" x2="126.5" y2="185.528" stroke="#666666"/>
    <circle cx="126.5" cy="186.028" r="1.5" fill="#1A1A1A"/>
    <rect x="458" y="218.524" width="142" height="78" rx="8" fill="#666666"/>
    <path d="M483.72 235.396L480.57 240.148H480.498L477.312 235.396V242.524H475.062V231.472H477.204L480.552 236.692L483.882 231.472H485.988V242.524H483.72V235.396ZM489.635 239.014C489.731 239.638 489.977 240.106 490.373 240.418C490.769 240.718 491.297 240.868 491.957 240.868C492.401 240.868 492.797 240.814 493.145 240.706C493.493 240.598 493.865 240.418 494.261 240.166V242.002C493.637 242.47 492.755 242.704 491.615 242.704C491.003 242.704 490.445 242.608 489.941 242.416C489.437 242.224 489.005 241.948 488.645 241.588C487.877 240.856 487.493 239.848 487.493 238.564C487.493 237.952 487.583 237.382 487.763 236.854C487.955 236.314 488.219 235.858 488.555 235.486C488.891 235.114 489.293 234.826 489.761 234.622C490.241 234.406 490.745 234.298 491.273 234.298C492.401 234.298 493.271 234.658 493.883 235.378C494.507 236.098 494.819 237.07 494.819 238.294V239.014H489.635ZM491.327 236.08C490.931 236.08 490.595 236.206 490.319 236.458C490.043 236.698 489.839 237.064 489.707 237.556H492.749C492.725 237.1 492.587 236.74 492.335 236.476C492.083 236.212 491.747 236.08 491.327 236.08ZM501.084 236.278H499.374V242.524H497.142V236.278H495.612V234.478H497.142V232.3H499.374V234.478H501.084V236.278ZM507.307 236.674C507.007 236.494 506.635 236.404 506.191 236.404C505.795 236.404 505.459 236.506 505.183 236.71C504.919 236.902 504.745 237.178 504.661 237.538V242.524H502.429V234.478H504.661V235.27C504.841 234.97 505.087 234.736 505.399 234.568C505.723 234.388 506.077 234.298 506.461 234.298C506.629 234.298 506.791 234.316 506.947 234.352C507.115 234.376 507.235 234.406 507.307 234.442V236.674ZM511.17 232.156C511.17 232.516 511.038 232.822 510.774 233.074C510.522 233.314 510.216 233.434 509.856 233.434C509.484 233.434 509.166 233.314 508.902 233.074C508.65 232.822 508.524 232.516 508.524 232.156C508.524 231.796 508.656 231.496 508.92 231.256C509.184 231.004 509.496 230.878 509.856 230.878C510.216 230.878 510.522 231.004 510.774 231.256C511.038 231.496 511.17 231.796 511.17 232.156ZM508.74 234.478H510.972V242.524H508.74V234.478ZM512.419 238.51C512.419 237.886 512.521 237.31 512.725 236.782C512.941 236.254 513.235 235.804 513.607 235.432C513.967 235.072 514.393 234.796 514.885 234.604C515.377 234.4 515.911 234.298 516.487 234.298C517.387 234.298 518.113 234.508 518.665 234.928V236.962C518.149 236.482 517.513 236.242 516.757 236.242C516.121 236.242 515.605 236.446 515.209 236.854C514.825 237.262 514.633 237.814 514.633 238.51C514.633 239.206 514.825 239.758 515.209 240.166C515.605 240.574 516.121 240.778 516.757 240.778C517.477 240.778 518.113 240.538 518.665 240.058V242.074C518.113 242.494 517.387 242.704 516.487 242.704C515.911 242.704 515.377 242.608 514.885 242.416C514.393 242.212 513.967 241.93 513.607 241.57C512.815 240.814 512.419 239.794 512.419 238.51ZM530.927 240.526V242.524H523.367V242.452L526.589 238.24L527.291 237.304C527.759 236.68 528.071 236.14 528.227 235.684C528.311 235.444 528.353 235.168 528.353 234.856C528.353 234.412 528.209 234.064 527.921 233.812C527.645 233.548 527.255 233.416 526.751 233.416C526.211 233.416 525.671 233.554 525.131 233.83C524.591 234.106 524.099 234.448 523.655 234.856V232.606C524.087 232.21 524.609 231.892 525.221 231.652C525.845 231.412 526.493 231.292 527.165 231.292C528.245 231.292 529.097 231.586 529.721 232.174C530.357 232.762 530.675 233.56 530.675 234.568C530.675 235.216 530.477 235.918 530.081 236.674C529.793 237.166 529.325 237.862 528.677 238.762L527.327 240.526H530.927ZM478.474 254.888V255.882H474.358V254.888H478.474ZM475.591 262.524V253.834C475.591 253.396 475.694 253.032 475.899 252.74C476.105 252.448 476.371 252.23 476.7 252.084C477.028 251.938 477.374 251.865 477.739 251.865C478.027 251.865 478.262 251.888 478.445 251.935C478.627 251.981 478.763 252.024 478.852 252.064L478.514 253.078C478.455 253.058 478.372 253.033 478.266 253.004C478.163 252.974 478.027 252.959 477.858 252.959C477.47 252.959 477.19 253.057 477.018 253.252C476.849 253.448 476.764 253.734 476.764 254.112V262.524H475.591ZM482.907 262.683C482.217 262.683 481.612 262.519 481.092 262.191C480.575 261.863 480.171 261.404 479.879 260.814C479.591 260.224 479.446 259.535 479.446 258.746C479.446 257.95 479.591 257.256 479.879 256.663C480.171 256.069 480.575 255.609 481.092 255.281C481.612 254.952 482.217 254.788 482.907 254.788C483.596 254.788 484.199 254.952 484.716 255.281C485.237 255.609 485.641 256.069 485.929 256.663C486.221 257.256 486.367 257.95 486.367 258.746C486.367 259.535 486.221 260.224 485.929 260.814C485.641 261.404 485.237 261.863 484.716 262.191C484.199 262.519 483.596 262.683 482.907 262.683ZM482.907 261.629C483.43 261.629 483.861 261.495 484.199 261.227C484.537 260.958 484.788 260.605 484.95 260.168C485.112 259.73 485.194 259.256 485.194 258.746C485.194 258.235 485.112 257.76 484.95 257.319C484.788 256.878 484.537 256.522 484.199 256.25C483.861 255.978 483.43 255.842 482.907 255.842C482.383 255.842 481.952 255.978 481.614 256.25C481.276 256.522 481.026 256.878 480.863 257.319C480.701 257.76 480.62 258.235 480.62 258.746C480.62 259.256 480.701 259.73 480.863 260.168C481.026 260.605 481.276 260.958 481.614 261.227C481.952 261.495 482.383 261.629 482.907 261.629ZM489.331 257.93V262.524H488.158V254.888H489.291V256.081H489.391C489.57 255.693 489.842 255.382 490.206 255.146C490.571 254.908 491.041 254.788 491.618 254.788C492.135 254.788 492.588 254.894 492.975 255.107C493.363 255.315 493.665 255.634 493.88 256.061C494.096 256.485 494.203 257.022 494.203 257.672V262.524H493.03V257.752C493.03 257.152 492.874 256.684 492.563 256.35C492.251 256.011 491.824 255.842 491.28 255.842C490.905 255.842 490.571 255.924 490.276 256.086C489.984 256.248 489.754 256.485 489.585 256.797C489.416 257.109 489.331 257.486 489.331 257.93ZM499.668 254.888V255.882H495.711V254.888H499.668ZM496.864 253.058H498.038V260.337C498.038 260.668 498.086 260.917 498.182 261.082C498.281 261.245 498.407 261.354 498.56 261.411C498.715 261.464 498.879 261.49 499.052 261.49C499.181 261.49 499.287 261.484 499.37 261.47C499.453 261.454 499.519 261.44 499.569 261.43L499.808 262.484C499.728 262.514 499.617 262.544 499.474 262.574C499.332 262.607 499.151 262.624 498.933 262.624C498.601 262.624 498.276 262.552 497.958 262.41C497.643 262.267 497.381 262.05 497.173 261.759C496.967 261.467 496.864 261.099 496.864 260.655V253.058ZM505.535 257.612V258.706H501.08V257.612H505.535ZM513.008 256.598L511.954 256.896C511.888 256.721 511.79 256.55 511.661 256.384C511.535 256.215 511.363 256.076 511.144 255.967C510.925 255.857 510.645 255.803 510.304 255.803C509.836 255.803 509.447 255.91 509.135 256.126C508.827 256.338 508.673 256.608 508.673 256.936C508.673 257.228 508.779 257.458 508.991 257.627C509.203 257.796 509.535 257.937 509.986 258.05L511.119 258.328C511.802 258.494 512.311 258.747 512.645 259.089C512.98 259.427 513.148 259.863 513.148 260.396C513.148 260.834 513.022 261.225 512.77 261.57C512.521 261.914 512.173 262.186 511.726 262.385C511.278 262.584 510.758 262.683 510.165 262.683C509.386 262.683 508.741 262.514 508.231 262.176C507.72 261.838 507.397 261.344 507.261 260.695L508.375 260.416C508.481 260.827 508.681 261.135 508.976 261.341C509.275 261.546 509.664 261.649 510.145 261.649C510.692 261.649 511.126 261.533 511.447 261.301C511.772 261.066 511.934 260.784 511.934 260.456C511.934 260.191 511.842 259.969 511.656 259.79C511.47 259.608 511.185 259.472 510.801 259.382L509.528 259.084C508.829 258.918 508.315 258.661 507.987 258.313C507.662 257.962 507.5 257.523 507.5 256.996C507.5 256.565 507.621 256.184 507.863 255.852C508.108 255.521 508.441 255.261 508.862 255.072C509.286 254.883 509.767 254.788 510.304 254.788C511.059 254.788 511.653 254.954 512.084 255.286C512.518 255.617 512.826 256.055 513.008 256.598ZM514.914 262.524V254.888H516.087V262.524H514.914ZM515.51 253.615C515.282 253.615 515.084 253.537 514.919 253.381C514.756 253.226 514.675 253.038 514.675 252.82C514.675 252.601 514.756 252.414 514.919 252.258C515.084 252.102 515.282 252.024 515.51 252.024C515.739 252.024 515.935 252.102 516.097 252.258C516.263 252.414 516.346 252.601 516.346 252.82C516.346 253.038 516.263 253.226 516.097 253.381C515.935 253.537 515.739 253.615 515.51 253.615ZM518.017 262.524V261.629L522.352 256.061V255.982H518.156V254.888H523.864V255.823L519.648 261.351V261.43H524.003V262.524H518.017ZM528.793 262.683C528.057 262.683 527.423 262.521 526.889 262.196C526.359 261.868 525.949 261.411 525.661 260.824C525.376 260.234 525.233 259.548 525.233 258.766C525.233 257.984 525.376 257.294 525.661 256.698C525.949 256.098 526.35 255.63 526.864 255.296C527.381 254.957 527.984 254.788 528.674 254.788C529.072 254.788 529.464 254.855 529.852 254.987C530.24 255.12 530.593 255.335 530.911 255.634C531.229 255.929 531.483 256.32 531.672 256.807C531.861 257.294 531.955 257.894 531.955 258.607V259.104H526.069V258.09H530.762C530.762 257.659 530.676 257.274 530.503 256.936C530.334 256.598 530.092 256.331 529.778 256.136C529.466 255.94 529.098 255.842 528.674 255.842C528.206 255.842 527.802 255.958 527.461 256.19C527.123 256.419 526.863 256.717 526.68 257.085C526.498 257.453 526.407 257.848 526.407 258.269V258.945C526.407 259.521 526.506 260.01 526.705 260.411C526.907 260.809 527.187 261.112 527.545 261.321C527.903 261.527 528.319 261.629 528.793 261.629C529.101 261.629 529.38 261.586 529.628 261.5C529.88 261.411 530.097 261.278 530.28 261.102C530.462 260.923 530.603 260.701 530.702 260.436L531.836 260.754C531.716 261.139 531.516 261.477 531.234 261.769C530.952 262.057 530.604 262.282 530.19 262.445C529.776 262.604 529.31 262.683 528.793 262.683ZM541.307 260.536V259.293L545.706 252.342H546.686V254.172H546.064L542.917 259.153V259.233H548.948V260.536H541.307ZM546.134 262.524V260.158L546.144 259.591V252.342H547.601V262.524H546.134ZM554.225 262.693C553.44 262.69 552.769 262.483 552.212 262.072C551.655 261.661 551.229 261.063 550.934 260.277C550.639 259.492 550.492 258.545 550.492 257.438C550.492 256.335 550.639 255.392 550.934 254.609C551.232 253.827 551.66 253.231 552.217 252.82C552.777 252.409 553.446 252.203 554.225 252.203C555.004 252.203 555.672 252.41 556.229 252.825C556.786 253.236 557.212 253.832 557.507 254.614C557.805 255.393 557.954 256.335 557.954 257.438C557.954 258.549 557.807 259.497 557.512 260.282C557.217 261.064 556.791 261.662 556.234 262.077C555.677 262.488 555.008 262.693 554.225 262.693ZM554.225 261.366C554.915 261.366 555.453 261.029 555.841 260.357C556.232 259.684 556.428 258.711 556.428 257.438C556.428 256.593 556.338 255.879 556.159 255.296C555.984 254.709 555.73 254.265 555.399 253.963C555.07 253.658 554.679 253.506 554.225 253.506C553.539 253.506 553.001 253.844 552.61 254.52C552.218 255.196 552.021 256.169 552.018 257.438C552.018 258.287 552.106 259.004 552.281 259.591C552.46 260.174 552.714 260.617 553.042 260.918C553.37 261.217 553.765 261.366 554.225 261.366ZM559.738 265.388V254.888H561.189V256.126H561.314C561.4 255.967 561.524 255.783 561.686 255.574C561.849 255.365 562.074 255.183 562.363 255.027C562.651 254.868 563.032 254.788 563.506 254.788C564.123 254.788 564.673 254.944 565.157 255.256C565.641 255.567 566.02 256.016 566.295 256.603C566.574 257.19 566.713 257.896 566.713 258.721C566.713 259.546 566.575 260.254 566.3 260.844C566.025 261.43 565.647 261.883 565.167 262.201C564.686 262.516 564.137 262.673 563.521 262.673C563.057 262.673 562.677 262.595 562.382 262.44C562.091 262.284 561.862 262.102 561.696 261.893C561.531 261.684 561.403 261.498 561.314 261.336H561.224V265.388H559.738ZM561.194 258.706C561.194 259.243 561.272 259.714 561.428 260.118C561.584 260.522 561.809 260.839 562.104 261.068C562.399 261.293 562.76 261.406 563.188 261.406C563.632 261.406 564.003 261.288 564.301 261.053C564.6 260.814 564.825 260.491 564.978 260.083C565.133 259.676 565.211 259.216 565.211 258.706C565.211 258.202 565.135 257.75 564.983 257.349C564.833 256.948 564.608 256.631 564.306 256.399C564.008 256.167 563.635 256.051 563.188 256.051C562.757 256.051 562.392 256.162 562.094 256.384C561.799 256.606 561.575 256.916 561.423 257.314C561.27 257.712 561.194 258.176 561.194 258.706ZM569.251 254.888L570.936 257.861L572.636 254.888H574.262L571.881 258.706L574.282 262.524H572.656L570.936 259.671L569.221 262.524H567.59L569.967 258.706L567.62 254.888H569.251ZM476.247 272.342V282.524H475.074V272.342H476.247ZM478.396 282.524V274.888H479.569V282.524H478.396ZM478.993 273.615C478.764 273.615 478.567 273.537 478.401 273.381C478.239 273.226 478.157 273.038 478.157 272.82C478.157 272.601 478.239 272.414 478.401 272.258C478.567 272.102 478.764 272.024 478.993 272.024C479.221 272.024 479.417 272.102 479.579 272.258C479.745 272.414 479.828 272.601 479.828 272.82C479.828 273.038 479.745 273.226 479.579 273.381C479.417 273.537 479.221 273.615 478.993 273.615ZM482.892 277.93V282.524H481.718V274.888H482.852V276.081H482.951C483.13 275.693 483.402 275.382 483.767 275.146C484.131 274.908 484.602 274.788 485.179 274.788C485.696 274.788 486.148 274.894 486.536 275.107C486.924 275.315 487.225 275.634 487.441 276.061C487.656 276.485 487.764 277.022 487.764 277.672V282.524H486.591V277.752C486.591 277.152 486.435 276.684 486.123 276.35C485.812 276.011 485.384 275.842 484.841 275.842C484.466 275.842 484.131 275.924 483.836 276.086C483.545 276.248 483.314 276.485 483.145 276.797C482.976 277.109 482.892 277.486 482.892 277.93ZM493.11 282.683C492.374 282.683 491.739 282.521 491.205 282.196C490.675 281.868 490.266 281.411 489.977 280.824C489.692 280.234 489.55 279.548 489.55 278.766C489.55 277.984 489.692 277.294 489.977 276.698C490.266 276.098 490.667 275.63 491.181 275.296C491.698 274.957 492.301 274.788 492.99 274.788C493.388 274.788 493.781 274.855 494.169 274.987C494.556 275.12 494.909 275.335 495.227 275.634C495.546 275.929 495.799 276.32 495.988 276.807C496.177 277.294 496.271 277.894 496.271 278.607V279.104H490.385V278.09H495.078C495.078 277.659 494.992 277.274 494.82 276.936C494.651 276.598 494.409 276.331 494.094 276.136C493.782 275.94 493.414 275.842 492.99 275.842C492.523 275.842 492.119 275.958 491.777 276.19C491.439 276.419 491.179 276.717 490.997 277.085C490.814 277.453 490.723 277.848 490.723 278.269V278.945C490.723 279.521 490.823 280.01 491.021 280.411C491.224 280.809 491.504 281.112 491.862 281.321C492.22 281.527 492.636 281.629 493.11 281.629C493.418 281.629 493.696 281.586 493.945 281.5C494.197 281.411 494.414 281.278 494.596 281.102C494.778 280.923 494.919 280.701 495.019 280.436L496.152 280.754C496.033 281.139 495.832 281.477 495.551 281.769C495.269 282.057 494.921 282.282 494.507 282.445C494.092 282.604 493.627 282.683 493.11 282.683ZM502.431 277.612V278.706H497.977V277.612H502.431ZM505.669 277.93V282.524H504.496V272.342H505.669V276.081H505.768C505.947 275.687 506.216 275.373 506.574 275.141C506.935 274.906 507.416 274.788 508.016 274.788C508.536 274.788 508.992 274.893 509.383 275.102C509.774 275.307 510.077 275.624 510.293 276.051C510.511 276.475 510.621 277.016 510.621 277.672V282.524H509.447V277.752C509.447 277.145 509.29 276.676 508.975 276.345C508.664 276.01 508.231 275.842 507.678 275.842C507.293 275.842 506.948 275.924 506.643 276.086C506.342 276.248 506.103 276.485 505.928 276.797C505.755 277.109 505.669 277.486 505.669 277.93ZM515.969 282.683C515.233 282.683 514.598 282.521 514.065 282.196C513.535 281.868 513.125 281.411 512.837 280.824C512.552 280.234 512.409 279.548 512.409 278.766C512.409 277.984 512.552 277.294 512.837 276.698C513.125 276.098 513.526 275.63 514.04 275.296C514.557 274.957 515.16 274.788 515.85 274.788C516.247 274.788 516.64 274.855 517.028 274.987C517.416 275.12 517.769 275.335 518.087 275.634C518.405 275.929 518.659 276.32 518.847 276.807C519.036 277.294 519.131 277.894 519.131 278.607V279.104H513.244V278.09H517.938C517.938 277.659 517.852 277.274 517.679 276.936C517.51 276.598 517.268 276.331 516.953 276.136C516.642 275.94 516.274 275.842 515.85 275.842C515.382 275.842 514.978 275.958 514.637 276.19C514.298 276.419 514.038 276.717 513.856 277.085C513.674 277.453 513.583 277.848 513.583 278.269V278.945C513.583 279.521 513.682 280.01 513.881 280.411C514.083 280.809 514.363 281.112 514.721 281.321C515.079 281.527 515.495 281.629 515.969 281.629C516.277 281.629 516.556 281.586 516.804 281.5C517.056 281.411 517.273 281.278 517.455 281.102C517.638 280.923 517.779 280.701 517.878 280.436L519.012 280.754C518.892 281.139 518.692 281.477 518.41 281.769C518.128 282.057 517.78 282.282 517.366 282.445C516.952 282.604 516.486 282.683 515.969 282.683ZM520.916 282.524V274.888H522.089V282.524H520.916ZM521.512 273.615C521.284 273.615 521.086 273.537 520.921 273.381C520.758 273.226 520.677 273.038 520.677 272.82C520.677 272.601 520.758 272.414 520.921 272.258C521.086 272.102 521.284 272.024 521.512 272.024C521.741 272.024 521.936 272.102 522.099 272.258C522.265 272.414 522.347 272.601 522.347 272.82C522.347 273.038 522.265 273.226 522.099 273.381C521.936 273.537 521.741 273.615 521.512 273.615ZM527.32 285.547C526.754 285.547 526.266 285.474 525.859 285.328C525.451 285.186 525.111 284.997 524.839 284.761C524.571 284.529 524.357 284.281 524.198 284.016L525.133 283.359C525.239 283.499 525.373 283.658 525.536 283.837C525.698 284.019 525.92 284.176 526.202 284.309C526.487 284.445 526.86 284.513 527.32 284.513C527.937 284.513 528.446 284.364 528.847 284.065C529.248 283.767 529.448 283.3 529.448 282.663V281.112H529.349C529.263 281.252 529.14 281.424 528.981 281.629C528.825 281.832 528.6 282.012 528.305 282.171C528.013 282.327 527.619 282.405 527.121 282.405C526.505 282.405 525.951 282.259 525.461 281.967C524.974 281.676 524.588 281.252 524.303 280.695C524.021 280.138 523.88 279.462 523.88 278.666C523.88 277.884 524.018 277.203 524.293 276.623C524.568 276.04 524.951 275.589 525.441 275.271C525.932 274.949 526.498 274.788 527.141 274.788C527.638 274.788 528.033 274.871 528.325 275.037C528.62 275.199 528.845 275.385 529.001 275.594C529.16 275.799 529.282 275.968 529.369 276.101H529.488V274.888H530.621V282.743C530.621 283.399 530.472 283.933 530.174 284.344C529.879 284.758 529.481 285.061 528.981 285.254C528.484 285.449 527.93 285.547 527.32 285.547ZM527.281 281.351C527.751 281.351 528.149 281.243 528.474 281.028C528.799 280.812 529.045 280.502 529.214 280.098C529.384 279.694 529.468 279.21 529.468 278.646C529.468 278.096 529.385 277.611 529.219 277.19C529.054 276.769 528.808 276.439 528.484 276.2C528.159 275.962 527.758 275.842 527.281 275.842C526.783 275.842 526.369 275.968 526.038 276.22C525.71 276.472 525.463 276.81 525.297 277.234C525.134 277.659 525.053 278.129 525.053 278.646C525.053 279.177 525.136 279.646 525.302 280.053C525.471 280.458 525.719 280.776 526.048 281.008C526.379 281.237 526.79 281.351 527.281 281.351ZM533.942 277.93V282.524H532.769V272.342H533.942V276.081H534.042C534.221 275.687 534.489 275.373 534.847 275.141C535.209 274.906 535.689 274.788 536.289 274.788C536.809 274.788 537.265 274.893 537.656 275.102C538.047 275.307 538.351 275.624 538.566 276.051C538.785 276.475 538.894 277.016 538.894 277.672V282.524H537.721V277.752C537.721 277.145 537.563 276.676 537.249 276.345C536.937 276.01 536.504 275.842 535.951 275.842C535.567 275.842 535.222 275.924 534.917 276.086C534.615 276.248 534.377 276.485 534.201 276.797C534.029 277.109 533.942 277.486 533.942 277.93ZM544.362 274.888V275.882H540.404V274.888H544.362ZM541.558 273.058H542.731V280.337C542.731 280.668 542.779 280.917 542.875 281.082C542.975 281.245 543.101 281.354 543.253 281.411C543.409 281.464 543.573 281.49 543.745 281.49C543.874 281.49 543.981 281.484 544.063 281.47C544.146 281.454 544.213 281.44 544.262 281.43L544.501 282.484C544.421 282.514 544.31 282.544 544.168 282.574C544.025 282.607 543.845 282.624 543.626 282.624C543.294 282.624 542.97 282.552 542.651 282.41C542.337 282.267 542.075 282.05 541.866 281.759C541.66 281.467 541.558 281.099 541.558 280.655V273.058ZM549.756 280.536V279.293L554.156 272.342H555.135V274.172H554.514L551.367 279.153V279.233H557.397V280.536H549.756ZM554.583 282.524V280.158L554.593 279.591V272.342H556.05V282.524H554.583ZM562.57 282.663C561.858 282.663 561.228 282.541 560.681 282.296C560.137 282.05 559.711 281.712 559.403 281.281C559.095 280.85 558.943 280.36 558.946 279.81C558.943 279.379 559.03 278.983 559.209 278.622C559.392 278.257 559.639 277.954 559.95 277.712C560.262 277.466 560.61 277.311 560.994 277.244V277.185C560.487 277.062 560.081 276.79 559.776 276.369C559.471 275.948 559.32 275.465 559.324 274.918C559.32 274.397 559.458 273.933 559.736 273.526C560.018 273.115 560.404 272.792 560.895 272.556C561.385 272.321 561.944 272.203 562.57 272.203C563.19 272.203 563.743 272.323 564.231 272.561C564.721 272.796 565.107 273.12 565.389 273.531C565.671 273.938 565.813 274.401 565.817 274.918C565.813 275.465 565.657 275.948 565.349 276.369C565.041 276.79 564.64 277.062 564.146 277.185V277.244C564.527 277.311 564.87 277.466 565.175 277.712C565.483 277.954 565.729 278.257 565.911 278.622C566.097 278.983 566.191 279.379 566.194 279.81C566.191 280.36 566.035 280.85 565.727 281.281C565.419 281.712 564.991 282.05 564.444 282.296C563.901 282.541 563.276 282.663 562.57 282.663ZM562.57 281.406C562.991 281.406 563.356 281.336 563.664 281.197C563.972 281.054 564.211 280.857 564.38 280.605C564.549 280.35 564.635 280.052 564.638 279.71C564.635 279.356 564.542 279.042 564.36 278.771C564.181 278.499 563.937 278.285 563.629 278.129C563.321 277.974 562.968 277.896 562.57 277.896C562.169 277.896 561.813 277.974 561.501 278.129C561.19 278.285 560.944 278.499 560.765 278.771C560.586 279.042 560.499 279.356 560.502 279.71C560.499 280.052 560.58 280.35 560.746 280.605C560.915 280.857 561.155 281.054 561.466 281.197C561.778 281.336 562.146 281.406 562.57 281.406ZM562.57 276.668C562.908 276.668 563.208 276.6 563.47 276.464C563.732 276.328 563.937 276.139 564.086 275.897C564.239 275.655 564.317 275.372 564.32 275.047C564.317 274.729 564.241 274.45 564.091 274.212C563.946 273.973 563.742 273.789 563.48 273.66C563.218 273.527 562.915 273.461 562.57 273.461C562.219 273.461 561.911 273.527 561.645 273.66C561.384 273.789 561.18 273.973 561.034 274.212C560.888 274.45 560.817 274.729 560.82 275.047C560.817 275.372 560.89 275.655 561.039 275.897C561.188 276.139 561.394 276.328 561.655 276.464C561.921 276.6 562.225 276.668 562.57 276.668ZM567.995 285.388V274.888H569.447V276.126H569.571C569.658 275.967 569.782 275.783 569.944 275.574C570.107 275.365 570.332 275.183 570.62 275.027C570.909 274.868 571.29 274.788 571.764 274.788C572.38 274.788 572.931 274.944 573.414 275.256C573.898 275.567 574.278 276.016 574.553 276.603C574.831 277.19 574.971 277.896 574.971 278.721C574.971 279.546 574.833 280.254 574.558 280.844C574.283 281.43 573.905 281.883 573.424 282.201C572.944 282.516 572.395 282.673 571.779 282.673C571.315 282.673 570.935 282.595 570.64 282.44C570.349 282.284 570.12 282.102 569.954 281.893C569.788 281.684 569.661 281.498 569.571 281.336H569.482V285.388H567.995ZM569.452 278.706C569.452 279.243 569.53 279.714 569.686 280.118C569.842 280.522 570.067 280.839 570.362 281.068C570.657 281.293 571.018 281.406 571.446 281.406C571.89 281.406 572.261 281.288 572.559 281.053C572.858 280.814 573.083 280.491 573.235 280.083C573.391 279.676 573.469 279.216 573.469 278.706C573.469 278.202 573.393 277.75 573.24 277.349C573.091 276.948 572.866 276.631 572.564 276.399C572.266 276.167 571.893 276.051 571.446 276.051C571.015 276.051 570.65 276.162 570.352 276.384C570.057 276.606 569.833 276.916 569.681 277.314C569.528 277.712 569.452 278.176 569.452 278.706ZM577.509 274.888L579.194 277.861L580.894 274.888H582.52L580.138 278.706L582.54 282.524H580.914L579.194 279.671L577.479 282.524H575.848L578.224 278.706L575.878 274.888H577.509Z" fill="white"/>
    <line x1="482.5" y1="218.528" x2="482.5" y2="185.528" stroke="#666666"/>
    <circle cx="482.5" cy="186.028" r="1.5" fill="#1A1A1A"/>
</svg>
