<svg width="711" height="291" viewBox="0 0 711 291" fill="none" xmlns="http://www.w3.org/2000/svg">
<g filter="url(#filter0_d_3153_17920)">
<rect width="348" height="200" transform="translate(191.5 22)" fill="#FF0000" fill-opacity="0.1"/>
<rect width="32" height="200" transform="translate(191.5 22)" fill="white"/>
<rect opacity="0.1" x="191.5" y="22" width="32" height="200" fill="white"/>
<rect width="4" height="200" transform="translate(243.5 22)" fill="white"/>
<rect opacity="0.1" x="243.5" y="22" width="4" height="200" fill="white"/>
<rect width="4" height="200" transform="translate(267.5 22)" fill="white"/>
<rect opacity="0.1" x="267.5" y="22" width="4" height="200" fill="white"/>
<rect width="4" height="200" transform="translate(291.5 22)" fill="white"/>
<rect opacity="0.1" x="291.5" y="22" width="4" height="200" fill="white"/>
<rect width="4" height="200" transform="translate(315.5 22)" fill="white"/>
<rect opacity="0.1" x="315.5" y="22" width="4" height="200" fill="white"/>
<rect width="4" height="200" transform="translate(339.5 22)" fill="white"/>
<rect opacity="0.1" x="339.5" y="22" width="4" height="200" fill="white"/>
<rect width="4" height="200" transform="translate(363.5 22)" fill="white"/>
<rect opacity="0.1" x="363.5" y="22" width="4" height="200" fill="white"/>
<rect width="4" height="200" transform="translate(387.5 22)" fill="white"/>
<rect opacity="0.1" x="387.5" y="22" width="4" height="200" fill="white"/>
<rect width="4" height="200" transform="translate(411.5 22)" fill="white"/>
<rect opacity="0.1" x="411.5" y="22" width="4" height="200" fill="white"/>
<rect width="4" height="200" transform="translate(435.5 22)" fill="white"/>
<rect opacity="0.1" x="435.5" y="22" width="4" height="200" fill="white"/>
<rect width="4" height="200" transform="translate(459.5 22)" fill="white"/>
<rect opacity="0.1" x="459.5" y="22" width="4" height="200" fill="white"/>
<rect width="4" height="200" transform="translate(483.5 22)" fill="white"/>
<rect opacity="0.1" x="483.5" y="22" width="4" height="200" fill="white"/>
<rect width="32" height="200" transform="translate(507.5 22)" fill="white"/>
<rect opacity="0.1" x="507.5" y="22" width="32" height="200" fill="white"/>
</g>
<rect opacity="0.3" x="191.5" y="22" width="348" height="30" fill="#6F7880"/>
<line x1="296" y1="233" x2="296" y2="245" stroke="#3A7DFF"/>
<line x1="459.5" y1="238.5" x2="295.5" y2="238.5" stroke="#3A7DFF"/>
<line x1="460" y1="233" x2="460" y2="245" stroke="#3A7DFF"/>
<path d="M355.33 256.455C355.278 256.023 355.071 255.688 354.707 255.449C354.344 255.21 353.898 255.091 353.369 255.091C352.983 255.091 352.645 255.153 352.355 255.278C352.068 255.403 351.844 255.575 351.682 255.794C351.523 256.013 351.443 256.261 351.443 256.54C351.443 256.773 351.499 256.973 351.609 257.141C351.723 257.305 351.868 257.443 352.044 257.554C352.22 257.662 352.405 257.751 352.598 257.822C352.791 257.891 352.969 257.946 353.131 257.989L354.017 258.227C354.244 258.287 354.497 258.369 354.776 258.474C355.057 258.58 355.325 258.723 355.581 258.905C355.839 259.084 356.053 259.314 356.22 259.595C356.388 259.876 356.472 260.222 356.472 260.631C356.472 261.102 356.348 261.528 356.101 261.909C355.857 262.29 355.499 262.592 355.027 262.817C354.558 263.041 353.989 263.153 353.318 263.153C352.693 263.153 352.152 263.053 351.695 262.851C351.24 262.649 350.882 262.368 350.621 262.007C350.362 261.646 350.216 261.227 350.182 260.75H351.273C351.301 261.08 351.412 261.352 351.605 261.568C351.801 261.781 352.048 261.94 352.347 262.045C352.648 262.148 352.972 262.199 353.318 262.199C353.722 262.199 354.084 262.134 354.405 262.003C354.726 261.869 354.98 261.685 355.168 261.449C355.355 261.21 355.449 260.932 355.449 260.614C355.449 260.324 355.368 260.088 355.206 259.906C355.044 259.724 354.831 259.577 354.567 259.463C354.303 259.349 354.017 259.25 353.71 259.165L352.636 258.858C351.955 258.662 351.415 258.382 351.017 258.018C350.619 257.655 350.42 257.179 350.42 256.591C350.42 256.102 350.553 255.676 350.817 255.312C351.084 254.946 351.442 254.662 351.891 254.46C352.342 254.256 352.847 254.153 353.403 254.153C353.966 254.153 354.466 254.254 354.903 254.456C355.341 254.655 355.688 254.928 355.943 255.274C356.202 255.621 356.338 256.014 356.352 256.455H355.33ZM358.073 265.455V256.455H359.044V257.494H359.164C359.238 257.381 359.34 257.236 359.471 257.06C359.604 256.881 359.794 256.722 360.042 256.582C360.292 256.44 360.63 256.369 361.056 256.369C361.607 256.369 362.093 256.507 362.513 256.783C362.934 257.058 363.262 257.449 363.498 257.955C363.733 258.46 363.851 259.057 363.851 259.744C363.851 260.438 363.733 261.038 363.498 261.547C363.262 262.053 362.935 262.445 362.517 262.723C362.1 262.999 361.618 263.136 361.073 263.136C360.652 263.136 360.316 263.067 360.063 262.928C359.81 262.786 359.615 262.625 359.479 262.446C359.343 262.264 359.238 262.114 359.164 261.994H359.078V265.455H358.073ZM359.061 259.727C359.061 260.222 359.134 260.658 359.279 261.036C359.424 261.411 359.635 261.705 359.914 261.918C360.192 262.128 360.533 262.233 360.936 262.233C361.357 262.233 361.708 262.122 361.989 261.901C362.273 261.676 362.486 261.375 362.628 260.997C362.773 260.616 362.846 260.193 362.846 259.727C362.846 259.267 362.775 258.852 362.632 258.483C362.493 258.111 362.282 257.817 361.998 257.601C361.716 257.382 361.363 257.273 360.936 257.273C360.527 257.273 360.184 257.376 359.905 257.584C359.627 257.788 359.417 258.075 359.275 258.445C359.132 258.811 359.061 259.239 359.061 259.727ZM367.311 263.153C366.897 263.153 366.52 263.075 366.182 262.919C365.844 262.76 365.576 262.531 365.377 262.233C365.178 261.932 365.078 261.568 365.078 261.142C365.078 260.767 365.152 260.463 365.3 260.23C365.448 259.994 365.645 259.81 365.892 259.676C366.14 259.543 366.412 259.443 366.711 259.378C367.012 259.31 367.314 259.256 367.618 259.216C368.016 259.165 368.338 259.126 368.586 259.101C368.836 259.072 369.017 259.026 369.131 258.96C369.248 258.895 369.306 258.781 369.306 258.619V258.585C369.306 258.165 369.191 257.838 368.961 257.605C368.733 257.372 368.388 257.256 367.925 257.256C367.445 257.256 367.069 257.361 366.796 257.571C366.523 257.781 366.331 258.006 366.221 258.244L365.266 257.903C365.436 257.506 365.664 257.196 365.948 256.974C366.235 256.75 366.547 256.594 366.885 256.506C367.226 256.415 367.561 256.369 367.891 256.369C368.101 256.369 368.343 256.395 368.615 256.446C368.891 256.494 369.157 256.595 369.412 256.749C369.671 256.902 369.885 257.134 370.056 257.443C370.226 257.753 370.311 258.168 370.311 258.688V263H369.306V262.114H369.255C369.186 262.256 369.073 262.408 368.914 262.57C368.755 262.732 368.543 262.869 368.279 262.983C368.015 263.097 367.692 263.153 367.311 263.153ZM367.465 262.25C367.863 262.25 368.198 262.172 368.471 262.016C368.746 261.859 368.953 261.658 369.093 261.411C369.235 261.163 369.306 260.903 369.306 260.631V259.71C369.263 259.761 369.169 259.808 369.025 259.851C368.882 259.891 368.718 259.926 368.53 259.957C368.346 259.986 368.165 260.011 367.989 260.034C367.816 260.054 367.675 260.071 367.567 260.085C367.306 260.119 367.061 260.175 366.834 260.251C366.61 260.325 366.428 260.437 366.289 260.588C366.152 260.736 366.084 260.937 366.084 261.193C366.084 261.543 366.213 261.807 366.472 261.986C366.733 262.162 367.064 262.25 367.465 262.25ZM373.153 259.062V263H372.147V256.455H373.119V257.477H373.204C373.357 257.145 373.59 256.878 373.903 256.676C374.215 256.472 374.619 256.369 375.113 256.369C375.556 256.369 375.944 256.46 376.276 256.642C376.609 256.821 376.867 257.094 377.052 257.46C377.237 257.824 377.329 258.284 377.329 258.841V263H376.323V258.909C376.323 258.395 376.19 257.994 375.923 257.707C375.656 257.418 375.289 257.273 374.823 257.273C374.502 257.273 374.215 257.342 373.962 257.482C373.712 257.621 373.515 257.824 373.37 258.091C373.225 258.358 373.153 258.682 373.153 259.062ZM382.951 257.835V256.915H388.201V257.835H382.951ZM382.951 260.358V259.438H388.201V260.358H382.951ZM394.082 263L397.986 255.278V255.21H393.486V254.273H399.077V255.261L395.19 263H394.082Z" fill="#333333"/>
<path opacity="0.7" d="M295.5 81H382.5C383.052 81 383.5 81.4477 383.5 82V86C383.5 86.5523 383.052 87 382.5 87H295.5V81Z" fill="#6F7880"/>
<path d="M295.5 96H452.5C453.052 96 453.5 96.4477 453.5 97V101C453.5 101.552 453.052 102 452.5 102H295.5V96Z" fill="black" fill-opacity="0.1"/>
<path d="M295.5 165H452.5C453.052 165 453.5 165.448 453.5 166V170C453.5 170.552 453.052 171 452.5 171H295.5V165Z" fill="black" fill-opacity="0.1"/>
<path d="M295.5 106H445.5C446.052 106 446.5 106.448 446.5 107V111C446.5 111.552 446.052 112 445.5 112H295.5V106Z" fill="black" fill-opacity="0.1"/>
<path d="M295.5 175H445.5C446.052 175 446.5 175.448 446.5 176V180C446.5 180.552 446.052 181 445.5 181H295.5V175Z" fill="black" fill-opacity="0.1"/>
<path d="M295.5 116H445.5C446.052 116 446.5 116.448 446.5 117V121C446.5 121.552 446.052 122 445.5 122H295.5V116Z" fill="black" fill-opacity="0.1"/>
<path d="M295.5 185H445.5C446.052 185 446.5 185.448 446.5 186V190C446.5 190.552 446.052 191 445.5 191H295.5V185Z" fill="black" fill-opacity="0.1"/>
<path d="M295.5 126H458.5C459.052 126 459.5 126.448 459.5 127V131C459.5 131.552 459.052 132 458.5 132H295.5V126Z" fill="black" fill-opacity="0.1"/>
<path d="M295.5 195H458.5C459.052 195 459.5 195.448 459.5 196V200C459.5 200.552 459.052 201 458.5 201H295.5V195Z" fill="black" fill-opacity="0.1"/>
<path d="M295.5 136H453.5C454.052 136 454.5 136.448 454.5 137V141C454.5 141.552 454.052 142 453.5 142H295.5V136Z" fill="black" fill-opacity="0.1"/>
<path d="M295.5 205H453.5C454.052 205 454.5 205.448 454.5 206V210C454.5 210.552 454.052 211 453.5 211H295.5V205Z" fill="black" fill-opacity="0.1"/>
<path d="M295.5 146H453.5C454.052 146 454.5 146.448 454.5 147V151C454.5 151.552 454.052 152 453.5 152H295.5V146Z" fill="black" fill-opacity="0.1"/>
<path d="M295.5 215H453.5C454.052 215 454.5 215.448 454.5 216V220C454.5 220.552 454.052 221 453.5 221H295.5V215Z" fill="black" fill-opacity="0.1"/>
<defs>
<filter id="filter0_d_3153_17920" x="187.5" y="20" width="356" height="208" filterUnits="userSpaceOnUse" color-interpolation-filters="sRGB">
<feFlood flood-opacity="0" result="BackgroundImageFix"/>
<feColorMatrix in="SourceAlpha" type="matrix" values="0 0 0 0 0 0 0 0 0 0 0 0 0 0 0 0 0 0 127 0" result="hardAlpha"/>
<feOffset dy="2"/>
<feGaussianBlur stdDeviation="2"/>
<feComposite in2="hardAlpha" operator="out"/>
<feColorMatrix type="matrix" values="0 0 0 0 0.435294 0 0 0 0 0.470588 0 0 0 0 0.501961 0 0 0 0.3 0"/>
<feBlend mode="normal" in2="BackgroundImageFix" result="effect1_dropShadow_3153_17920"/>
<feBlend mode="normal" in="SourceGraphic" in2="effect1_dropShadow_3153_17920" result="shape"/>
</filter>
</defs>
</svg>
