<svg width="730" height="355" viewBox="0 0 730 355" fill="none" xmlns="http://www.w3.org/2000/svg">
<path d="M216 20C216 14.4772 220.477 10 226 10C231.523 10 236 14.4772 236 20C236 25.5228 231.523 30 226 30C220.477 30 216 25.5228 216 20Z" fill="#990F3D"/>
<path d="M227.338 16.384V25H225.91V18.136L224.014 19.096V17.62L226.486 16.384H227.338Z" fill="white"/>
<path d="M225 30H227V61C227 61.5523 226.552 62 226 62C225.448 62 225 61.5523 225 61V30Z" fill="#990F3D"/>
<path d="M354 20C354 14.4772 358.477 10 364 10C369.523 10 374 14.4772 374 20C374 25.5228 369.523 30 364 30C358.477 30 354 25.5228 354 20Z" fill="#990F3D"/>
<path d="M363.68 23.728H366.728V25H361.124L363.632 21.724C363.904 21.364 364.156 21.028 364.388 20.716C364.62 20.396 364.804 20.084 364.94 19.78C365.084 19.468 365.156 19.148 365.156 18.82C365.156 18.444 365.04 18.14 364.808 17.908C364.584 17.668 364.244 17.548 363.788 17.548C363.46 17.548 363.144 17.608 362.84 17.728C362.544 17.84 362.268 17.988 362.012 18.172C361.756 18.348 361.528 18.536 361.328 18.736V17.296C361.624 16.984 362 16.732 362.456 16.54C362.92 16.34 363.408 16.24 363.92 16.24C364.456 16.24 364.92 16.344 365.312 16.552C365.712 16.752 366.02 17.044 366.236 17.428C366.46 17.804 366.572 18.252 366.572 18.772C366.572 19.156 366.492 19.536 366.332 19.912C366.18 20.288 365.976 20.664 365.72 21.04C365.464 21.416 365.184 21.8 364.88 22.192L363.68 23.728Z" fill="white"/>
<path d="M363 30H365V61C365 61.5523 364.552 62 364 62C363.448 62 363 61.5523 363 61V30Z" fill="#990F3D"/>
<path d="M533 20C533 14.4772 537.477 10 543 10C548.523 10 553 14.4772 553 20C553 25.5228 548.523 30 543 30C537.477 30 533 25.5228 533 20Z" fill="#990F3D"/>
<path d="M540.41 17.656V16.384H545.546L543.65 19.876C544.042 19.964 544.382 20.12 544.67 20.344C544.966 20.568 545.194 20.848 545.354 21.184C545.514 21.52 545.594 21.904 545.594 22.336C545.594 22.912 545.458 23.412 545.186 23.836C544.922 24.252 544.57 24.576 544.13 24.808C543.69 25.032 543.21 25.144 542.69 25.144C542.13 25.144 541.662 25.076 541.286 24.94C540.918 24.796 540.598 24.62 540.326 24.412V22.924C540.63 23.22 540.978 23.452 541.37 23.62C541.77 23.788 542.178 23.872 542.594 23.872C542.938 23.872 543.234 23.82 543.482 23.716C543.73 23.604 543.922 23.436 544.058 23.212C544.202 22.988 544.274 22.7 544.274 22.348C544.274 21.972 544.166 21.664 543.95 21.424C543.734 21.176 543.438 20.996 543.062 20.884C542.694 20.764 542.278 20.704 541.814 20.704L543.458 17.656H540.41Z" fill="white"/>
<path d="M542 30H544V61C544 61.5523 543.552 62 543 62C542.448 62 542 61.5523 542 61V30Z" fill="#990F3D"/>
<g filter="url(#filter0_d_5099_461)">
<rect width="376.03" height="264" transform="translate(175.481 67)" fill="white"/>
<rect x="462" y="67" width="73" height="264" fill="#FF0000" fill-opacity="0.1"/>
<rect x="372" y="67" width="73" height="264" fill="#FF0000" fill-opacity="0.1"/>
<rect x="282" y="67" width="73" height="264" fill="#FF0000" fill-opacity="0.1"/>
<rect x="192" y="67" width="73" height="264" fill="#FF0000" fill-opacity="0.1"/>
<rect x="175.481" y="116" width="376.03" height="1" fill="black" fill-opacity="0.2"/>
<rect x="191.481" y="87" width="20" height="16" fill="#6F7880" fill-opacity="0.25"/>
<rect x="252.481" y="77" width="210" height="32" fill="#6F7880" fill-opacity="0.25"/>
<rect x="502.481" y="87" width="32" height="16" fill="#6F7880" fill-opacity="0.25"/>
<path opacity="0.3" d="M192 286C192 285.448 192.448 285 193 285H534C534.552 285 535 285.448 535 286V331H192V286Z" fill="#6F7880"/>
<path opacity="0.3" d="M192 286C192 285.448 192.448 285 193 285H534C534.552 285 535 285.448 535 286V331H192V286Z" fill="#6F7880"/>
<rect x="191.525" y="143" width="127.349" height="6" fill="black" fill-opacity="0.2"/>
<path d="M191.525 169H434.195C435.3 169 436.195 169.895 436.195 171V179C436.195 180.105 435.3 181 434.195 181H191.525V169Z" fill="#6F7880"/>
<path d="M191.525 189H443.22C444.325 189 445.22 189.895 445.22 191V199C445.22 200.105 444.325 201 443.22 201H191.525V189Z" fill="#6F7880"/>
<path d="M191.525 209H423.165C424.27 209 425.165 209.895 425.165 211V219C425.165 220.105 424.27 221 423.165 221H191.525V209Z" fill="#6F7880"/>
</g>
<rect x="191.525" y="237" width="164.451" height="8" fill="black" fill-opacity="0.2"/>
<rect x="191.525" y="249" width="140.385" height="8" fill="black" fill-opacity="0.2"/>
<path d="M356 67V62H370V67" stroke="#990F3D" stroke-width="2" stroke-linecap="round"/>
<path d="M535 67V62H549V67" stroke="#990F3D" stroke-width="2" stroke-linecap="round"/>
<path d="M192 67V62H264V67" stroke="#990F3D" stroke-width="2" stroke-linecap="round"/>
<defs>
<filter id="filter0_d_5099_461" x="171.481" y="65" width="384.03" height="272" filterUnits="userSpaceOnUse" color-interpolation-filters="sRGB">
<feFlood flood-opacity="0" result="BackgroundImageFix"/>
<feColorMatrix in="SourceAlpha" type="matrix" values="0 0 0 0 0 0 0 0 0 0 0 0 0 0 0 0 0 0 127 0" result="hardAlpha"/>
<feOffset dy="2"/>
<feGaussianBlur stdDeviation="2"/>
<feComposite in2="hardAlpha" operator="out"/>
<feColorMatrix type="matrix" values="0 0 0 0 0.435294 0 0 0 0 0.470588 0 0 0 0 0.501961 0 0 0 0.3 0"/>
<feBlend mode="normal" in2="BackgroundImageFix" result="effect1_dropShadow_5099_461"/>
<feBlend mode="normal" in="SourceGraphic" in2="effect1_dropShadow_5099_461" result="shape"/>
</filter>
</defs>
</svg>
