<svg width="652" height="119" viewBox="0 0 652 119" fill="none" xmlns="http://www.w3.org/2000/svg">
<path d="M0 4C0 1.79086 1.79086 0 4 0H120C122.209 0 124 1.79086 124 4V92C124 94.2091 122.209 96 120 96H4C1.79086 96 0 94.2091 0 92V4Z" fill="#FF0000" fill-opacity="0.2"/>
<rect width="8" height="96" fill="white"/>
<rect opacity="0.1" width="8" height="96" fill="white"/>
<rect width="4" height="96" transform="translate(32)" fill="white"/>
<rect opacity="0.1" x="32" width="4" height="96" fill="white"/>
<rect width="4" height="96" transform="translate(60)" fill="white"/>
<rect opacity="0.1" x="60" width="4" height="96" fill="white"/>
<rect width="4" height="96" transform="translate(88)" fill="white"/>
<rect opacity="0.1" x="88" width="4" height="96" fill="white"/>
<rect width="8" height="96" transform="translate(116)" fill="white"/>
<rect opacity="0.1" x="116" width="8" height="96" fill="white"/>
<path d="M50.1818 103.273L52.1037 106.469H52.1719L54.1023 103.273H55.9048L53.2159 107.636L55.9474 112H54.1151L52.1719 108.825H52.1037L50.1605 112H48.3366L51.0938 107.636L48.3707 103.273H50.1818ZM61.7568 105.672C61.7171 105.3 61.5495 105.01 61.254 104.803C60.9614 104.595 60.5807 104.491 60.112 104.491C59.7824 104.491 59.4997 104.541 59.264 104.641C59.0282 104.74 58.8478 104.875 58.7228 105.045C58.5978 105.216 58.5338 105.411 58.531 105.629C58.531 105.811 58.5722 105.969 58.6546 106.102C58.7398 106.236 58.8549 106.349 58.9997 106.443C59.1446 106.534 59.3051 106.611 59.4813 106.673C59.6574 106.736 59.835 106.788 60.014 106.831L60.8321 107.036C61.1617 107.112 61.4784 107.216 61.7824 107.347C62.0892 107.477 62.3634 107.642 62.6049 107.841C62.8492 108.04 63.0424 108.28 63.1844 108.561C63.3265 108.842 63.3975 109.172 63.3975 109.55C63.3975 110.061 63.2668 110.511 63.0054 110.901C62.7441 111.287 62.3662 111.589 61.8719 111.808C61.3804 112.024 60.7853 112.132 60.0864 112.132C59.4074 112.132 58.8179 112.027 58.3179 111.817C57.8208 111.607 57.4316 111.3 57.1503 110.896C56.8719 110.493 56.7213 110.001 56.6986 109.422H58.254C58.2767 109.726 58.3705 109.979 58.5353 110.18C58.7 110.382 58.9145 110.533 59.1787 110.632C59.4458 110.732 59.7441 110.781 60.0736 110.781C60.4174 110.781 60.7185 110.73 60.977 110.628C61.2384 110.523 61.4429 110.378 61.5907 110.193C61.7384 110.006 61.8137 109.787 61.8165 109.537C61.8137 109.31 61.7469 109.122 61.6162 108.974C61.4855 108.824 61.3023 108.699 61.0665 108.599C60.8336 108.497 60.5608 108.406 60.2483 108.327L59.2554 108.071C58.5367 107.886 57.9685 107.607 57.5509 107.232C57.1361 106.854 56.9287 106.352 56.9287 105.727C56.9287 105.213 57.0679 104.763 57.3463 104.376C57.6276 103.99 58.0097 103.69 58.4926 103.477C58.9756 103.261 59.5225 103.153 60.1333 103.153C60.7526 103.153 61.2952 103.261 61.7611 103.477C62.2299 103.69 62.5978 103.987 62.8648 104.368C63.1318 104.746 63.2696 105.18 63.2782 105.672H61.7568ZM66.4178 110.807L66.3624 111.276C66.3226 111.634 66.2516 111.997 66.1494 112.366C66.0499 112.739 65.9448 113.081 65.834 113.393C65.7232 113.706 65.6337 113.952 65.5655 114.131H64.5258C64.5655 113.957 64.6195 113.722 64.6877 113.423C64.7587 113.125 64.8269 112.79 64.8923 112.418C64.9576 112.045 65.0016 111.668 65.0244 111.284L65.0542 110.807H66.4178ZM72.8249 105.672C72.7851 105.3 72.6175 105.01 72.322 104.803C72.0294 104.595 71.6487 104.491 71.18 104.491C70.8504 104.491 70.5678 104.541 70.332 104.641C70.0962 104.74 69.9158 104.875 69.7908 105.045C69.6658 105.216 69.6019 105.411 69.599 105.629C69.599 105.811 69.6402 105.969 69.7226 106.102C69.8078 106.236 69.9229 106.349 70.0678 106.443C70.2127 106.534 70.3732 106.611 70.5493 106.673C70.7254 106.736 70.903 106.788 71.082 106.831L71.9002 107.036C72.2297 107.112 72.5465 107.216 72.8504 107.347C73.1573 107.477 73.4314 107.642 73.6729 107.841C73.9172 108.04 74.1104 108.28 74.2524 108.561C74.3945 108.842 74.4655 109.172 74.4655 109.55C74.4655 110.061 74.3348 110.511 74.0735 110.901C73.8121 111.287 73.4343 111.589 72.9399 111.808C72.4485 112.024 71.8533 112.132 71.1544 112.132C70.4754 112.132 69.886 112.027 69.386 111.817C68.8888 111.607 68.4996 111.3 68.2183 110.896C67.9399 110.493 67.7894 110.001 67.7666 109.422H69.322C69.3448 109.726 69.4385 109.979 69.6033 110.18C69.7681 110.382 69.9826 110.533 70.2468 110.632C70.5138 110.732 70.8121 110.781 71.1416 110.781C71.4854 110.781 71.7865 110.73 72.0451 110.628C72.3064 110.523 72.511 110.378 72.6587 110.193C72.8064 110.006 72.8817 109.787 72.8845 109.537C72.8817 109.31 72.8149 109.122 72.6843 108.974C72.5536 108.824 72.3703 108.699 72.1345 108.599C71.9016 108.497 71.6289 108.406 71.3164 108.327L70.3235 108.071C69.6047 107.886 69.0365 107.607 68.6189 107.232C68.2041 106.854 67.9968 106.352 67.9968 105.727C67.9968 105.213 68.136 104.763 68.4144 104.376C68.6956 103.99 69.0777 103.69 69.5607 103.477C70.0436 103.261 70.5905 103.153 71.2013 103.153C71.8206 103.153 72.3632 103.261 72.8291 103.477C73.2979 103.69 73.6658 103.987 73.9328 104.368C74.1999 104.746 74.3377 105.18 74.3462 105.672H72.8249Z" fill="black" fill-opacity="0.7"/>
<path d="M124 4C124 1.79086 125.791 0 128 0H356C358.209 0 360 1.79086 360 4V92C360 94.2091 358.209 96 356 96H128C125.791 96 124 94.2091 124 92V4Z" fill="#FF0000" fill-opacity="0.2"/>
<rect width="8" height="96" transform="translate(124)" fill="white"/>
<rect opacity="0.1" x="124" width="8" height="96" fill="white"/>
<rect width="4" height="96" transform="translate(156)" fill="white"/>
<rect opacity="0.1" x="156" width="4" height="96" fill="white"/>
<rect width="4" height="96" transform="translate(184)" fill="white"/>
<rect opacity="0.1" x="184" width="4" height="96" fill="white"/>
<rect width="4" height="96" transform="translate(212)" fill="white"/>
<rect opacity="0.1" x="212" width="4" height="96" fill="white"/>
<rect width="4" height="96" transform="translate(240)" fill="white"/>
<rect opacity="0.1" x="240" width="4" height="96" fill="white"/>
<rect width="4" height="96" transform="translate(268)" fill="white"/>
<rect opacity="0.1" x="268" width="4" height="96" fill="white"/>
<rect width="4" height="96" transform="translate(296)" fill="white"/>
<rect opacity="0.1" x="296" width="4" height="96" fill="white"/>
<rect width="4" height="96" transform="translate(324)" fill="white"/>
<rect opacity="0.1" x="324" width="4" height="96" fill="white"/>
<rect width="8" height="96" transform="translate(352)" fill="white"/>
<rect opacity="0.1" x="352" width="8" height="96" fill="white"/>
<path d="M237.361 103.273H239.295L241.886 109.597H241.989L244.58 103.273H246.514V112H244.997V106.004H244.916L242.504 111.974H241.371L238.959 105.991H238.878V112H237.361V103.273Z" fill="black" fill-opacity="0.7"/>
<path d="M360 4C360 1.79086 361.791 0 364 0H648C650.209 0 652 1.79086 652 4V92C652 94.2091 650.209 96 648 96H364C361.791 96 360 94.2091 360 92V4Z" fill="#FF0000" fill-opacity="0.2"/>
<rect width="8" height="96" transform="translate(360)" fill="white"/>
<rect opacity="0.1" x="360" width="8" height="96" fill="white"/>
<rect width="4" height="96" transform="translate(392)" fill="white"/>
<rect opacity="0.1" x="392" width="4" height="96" fill="white"/>
<rect width="4" height="96" transform="translate(420)" fill="white"/>
<rect opacity="0.1" x="420" width="4" height="96" fill="white"/>
<rect width="4" height="96" transform="translate(448)" fill="white"/>
<rect opacity="0.1" x="448" width="4" height="96" fill="white"/>
<rect width="4" height="96" transform="translate(476)" fill="white"/>
<rect opacity="0.1" x="476" width="4" height="96" fill="white"/>
<rect width="4" height="96" transform="translate(504)" fill="white"/>
<rect opacity="0.1" x="504" width="4" height="96" fill="white"/>
<rect width="4" height="96" transform="translate(532)" fill="white"/>
<rect opacity="0.1" x="532" width="4" height="96" fill="white"/>
<rect width="4" height="96" transform="translate(560)" fill="white"/>
<rect opacity="0.1" x="560" width="4" height="96" fill="white"/>
<rect width="4" height="96" transform="translate(588)" fill="white"/>
<rect opacity="0.1" x="588" width="4" height="96" fill="white"/>
<rect width="4" height="96" transform="translate(616)" fill="white"/>
<rect opacity="0.1" x="616" width="4" height="96" fill="white"/>
<rect width="8" height="96" transform="translate(644)" fill="white"/>
<rect opacity="0.1" x="644" width="8" height="96" fill="white"/>
<path d="M492.861 112V103.273H494.442V110.675H498.286V112H492.861ZM501.269 110.807L501.213 111.276C501.173 111.634 501.102 111.997 501 112.366C500.901 112.739 500.796 113.081 500.685 113.393C500.574 113.706 500.484 113.952 500.416 114.131H499.377C499.416 113.957 499.47 113.722 499.538 113.423C499.609 113.125 499.678 112.79 499.743 112.418C499.808 112.045 499.852 111.668 499.875 111.284L499.905 110.807H501.269ZM506.829 103.273L508.751 106.469H508.819L510.749 103.273H512.552L509.863 107.636L512.594 112H510.762L508.819 108.825H508.751L506.807 112H504.984L507.741 107.636L505.018 103.273H506.829ZM513.661 112V103.273H515.242V110.675H519.086V112H513.661Z" fill="black" fill-opacity="0.7"/>
</svg>
