<svg width="656" height="316" viewBox="0 0 656 316" fill="none" xmlns="http://www.w3.org/2000/svg">
<line x1="141.5" y1="278" x2="141.5" y2="290" stroke="#3A7DFF"/>
<line x1="515" y1="283.5" x2="141" y2="283.5" stroke="#3A7DFF"/>
<line x1="515.5" y1="278" x2="515.5" y2="290" stroke="#3A7DFF"/>
<path d="M308.83 303.455C308.778 303.023 308.571 302.688 308.207 302.449C307.844 302.21 307.398 302.091 306.869 302.091C306.483 302.091 306.145 302.153 305.855 302.278C305.568 302.403 305.344 302.575 305.182 302.794C305.023 303.013 304.943 303.261 304.943 303.54C304.943 303.773 304.999 303.973 305.109 304.141C305.223 304.305 305.368 304.443 305.544 304.554C305.72 304.662 305.905 304.751 306.098 304.822C306.291 304.891 306.469 304.946 306.631 304.989L307.517 305.227C307.744 305.287 307.997 305.369 308.276 305.474C308.557 305.58 308.825 305.723 309.081 305.905C309.339 306.084 309.553 306.314 309.72 306.595C309.888 306.876 309.972 307.222 309.972 307.631C309.972 308.102 309.848 308.528 309.601 308.909C309.357 309.29 308.999 309.592 308.527 309.817C308.058 310.041 307.489 310.153 306.818 310.153C306.193 310.153 305.652 310.053 305.195 309.851C304.74 309.649 304.382 309.368 304.121 309.007C303.862 308.646 303.716 308.227 303.682 307.75H304.773C304.801 308.08 304.912 308.352 305.105 308.568C305.301 308.781 305.548 308.94 305.847 309.045C306.148 309.148 306.472 309.199 306.818 309.199C307.222 309.199 307.584 309.134 307.905 309.003C308.226 308.869 308.48 308.685 308.668 308.449C308.855 308.21 308.949 307.932 308.949 307.614C308.949 307.324 308.868 307.088 308.706 306.906C308.544 306.724 308.331 306.577 308.067 306.463C307.803 306.349 307.517 306.25 307.21 306.165L306.136 305.858C305.455 305.662 304.915 305.382 304.517 305.018C304.119 304.655 303.92 304.179 303.92 303.591C303.92 303.102 304.053 302.676 304.317 302.312C304.584 301.946 304.942 301.662 305.391 301.46C305.842 301.256 306.347 301.153 306.903 301.153C307.466 301.153 307.966 301.254 308.403 301.456C308.841 301.655 309.188 301.928 309.443 302.274C309.702 302.621 309.838 303.014 309.852 303.455H308.83ZM311.573 312.455V303.455H312.544V304.494H312.664C312.738 304.381 312.84 304.236 312.971 304.06C313.104 303.881 313.294 303.722 313.542 303.582C313.792 303.44 314.13 303.369 314.556 303.369C315.107 303.369 315.593 303.507 316.013 303.783C316.434 304.058 316.762 304.449 316.998 304.955C317.233 305.46 317.351 306.057 317.351 306.744C317.351 307.438 317.233 308.038 316.998 308.547C316.762 309.053 316.435 309.445 316.017 309.723C315.6 309.999 315.118 310.136 314.573 310.136C314.152 310.136 313.816 310.067 313.563 309.928C313.31 309.786 313.115 309.625 312.979 309.446C312.843 309.264 312.738 309.114 312.664 308.994H312.578V312.455H311.573ZM312.561 306.727C312.561 307.222 312.634 307.658 312.779 308.036C312.924 308.411 313.135 308.705 313.414 308.918C313.692 309.128 314.033 309.233 314.436 309.233C314.857 309.233 315.208 309.122 315.489 308.901C315.773 308.676 315.986 308.375 316.128 307.997C316.273 307.616 316.346 307.193 316.346 306.727C316.346 306.267 316.275 305.852 316.132 305.483C315.993 305.111 315.782 304.817 315.498 304.601C315.216 304.382 314.863 304.273 314.436 304.273C314.027 304.273 313.684 304.376 313.405 304.584C313.127 304.788 312.917 305.075 312.775 305.445C312.632 305.811 312.561 306.239 312.561 306.727ZM320.811 310.153C320.397 310.153 320.02 310.075 319.682 309.919C319.344 309.76 319.076 309.531 318.877 309.233C318.678 308.932 318.578 308.568 318.578 308.142C318.578 307.767 318.652 307.463 318.8 307.23C318.948 306.994 319.145 306.81 319.392 306.676C319.64 306.543 319.912 306.443 320.211 306.378C320.512 306.31 320.814 306.256 321.118 306.216C321.516 306.165 321.838 306.126 322.086 306.101C322.336 306.072 322.517 306.026 322.631 305.96C322.748 305.895 322.806 305.781 322.806 305.619V305.585C322.806 305.165 322.691 304.838 322.461 304.605C322.233 304.372 321.888 304.256 321.425 304.256C320.945 304.256 320.569 304.361 320.296 304.571C320.023 304.781 319.831 305.006 319.721 305.244L318.766 304.903C318.936 304.506 319.164 304.196 319.448 303.974C319.735 303.75 320.047 303.594 320.385 303.506C320.726 303.415 321.061 303.369 321.391 303.369C321.601 303.369 321.843 303.395 322.115 303.446C322.391 303.494 322.657 303.595 322.912 303.749C323.171 303.902 323.385 304.134 323.556 304.443C323.726 304.753 323.811 305.168 323.811 305.688V310H322.806V309.114H322.755C322.686 309.256 322.573 309.408 322.414 309.57C322.255 309.732 322.043 309.869 321.779 309.983C321.515 310.097 321.192 310.153 320.811 310.153ZM320.965 309.25C321.363 309.25 321.698 309.172 321.971 309.016C322.246 308.859 322.453 308.658 322.593 308.411C322.735 308.163 322.806 307.903 322.806 307.631V306.71C322.763 306.761 322.669 306.808 322.525 306.851C322.382 306.891 322.218 306.926 322.03 306.957C321.846 306.986 321.665 307.011 321.489 307.034C321.316 307.054 321.175 307.071 321.067 307.085C320.806 307.119 320.561 307.175 320.334 307.251C320.11 307.325 319.928 307.437 319.789 307.588C319.652 307.736 319.584 307.937 319.584 308.193C319.584 308.543 319.713 308.807 319.972 308.986C320.233 309.162 320.564 309.25 320.965 309.25ZM326.653 306.062V310H325.647V303.455H326.619V304.477H326.704C326.857 304.145 327.09 303.878 327.403 303.676C327.715 303.472 328.119 303.369 328.613 303.369C329.056 303.369 329.444 303.46 329.776 303.642C330.109 303.821 330.367 304.094 330.552 304.46C330.737 304.824 330.829 305.284 330.829 305.841V310H329.823V305.909C329.823 305.395 329.69 304.994 329.423 304.707C329.156 304.418 328.789 304.273 328.323 304.273C328.002 304.273 327.715 304.342 327.462 304.482C327.212 304.621 327.015 304.824 326.87 305.091C326.725 305.358 326.653 305.682 326.653 306.062ZM336.451 304.835V303.915H341.701V304.835H336.451ZM336.451 307.358V306.438H341.701V307.358H336.451ZM350.378 301.273V310H349.321V302.381H349.27L347.139 303.795V302.722L349.321 301.273H350.378ZM355.734 310.119C355.092 310.119 354.545 309.945 354.094 309.595C353.642 309.243 353.297 308.733 353.058 308.065C352.82 307.395 352.7 306.585 352.7 305.636C352.7 304.693 352.82 303.888 353.058 303.22C353.3 302.55 353.646 302.038 354.098 301.686C354.553 301.331 355.098 301.153 355.734 301.153C356.371 301.153 356.915 301.331 357.366 301.686C357.821 302.038 358.168 302.55 358.406 303.22C358.648 303.888 358.768 304.693 358.768 305.636C358.768 306.585 358.649 307.395 358.411 308.065C358.172 308.733 357.827 309.243 357.375 309.595C356.923 309.945 356.376 310.119 355.734 310.119ZM355.734 309.182C356.371 309.182 356.865 308.875 357.217 308.261C357.57 307.648 357.746 306.773 357.746 305.636C357.746 304.881 357.665 304.237 357.503 303.706C357.344 303.175 357.114 302.77 356.812 302.491C356.514 302.213 356.155 302.074 355.734 302.074C355.104 302.074 354.611 302.385 354.256 303.007C353.901 303.626 353.723 304.503 353.723 305.636C353.723 306.392 353.803 307.034 353.962 307.562C354.121 308.091 354.349 308.493 354.648 308.768C354.949 309.044 355.311 309.182 355.734 309.182Z" fill="#333333"/>
<g clip-path="url(#clip0_3278_14953)" filter="url(#filter0_d_3278_14953)">
<rect width="648" height="264" transform="translate(4 2)" fill="#FF0000" fill-opacity="0.1"/>
<rect width="40" height="264" transform="translate(4 2)" fill="white"/>
<rect opacity="0.1" x="4" y="2" width="40" height="264" fill="white"/>
<rect width="8" height="264" transform="translate(84 2)" fill="white"/>
<rect opacity="0.1" x="84" y="2" width="8" height="264" fill="white"/>
<rect width="8" height="264" transform="translate(132 2)" fill="white"/>
<rect opacity="0.1" x="132" y="2" width="8" height="264" fill="white"/>
<rect width="8" height="264" transform="translate(180 2)" fill="white"/>
<rect opacity="0.1" x="180" y="2" width="8" height="264" fill="white"/>
<rect width="8" height="264" transform="translate(228 2)" fill="white"/>
<rect opacity="0.1" x="228" y="2" width="8" height="264" fill="white"/>
<rect width="8" height="264" transform="translate(276 2)" fill="white"/>
<rect opacity="0.1" x="276" y="2" width="8" height="264" fill="white"/>
<rect width="8" height="264" transform="translate(324 2)" fill="white"/>
<rect opacity="0.1" x="324" y="2" width="8" height="264" fill="white"/>
<rect width="8" height="264" transform="translate(372 2)" fill="white"/>
<rect opacity="0.1" x="372" y="2" width="8" height="264" fill="white"/>
<rect width="8" height="264" transform="translate(420 2)" fill="white"/>
<rect opacity="0.1" x="420" y="2" width="8" height="264" fill="white"/>
<rect width="8" height="264" transform="translate(468 2)" fill="white"/>
<rect opacity="0.1" x="468" y="2" width="8" height="264" fill="white"/>
<rect width="8" height="264" transform="translate(516 2)" fill="white"/>
<rect opacity="0.1" x="516" y="2" width="8" height="264" fill="white"/>
<rect width="8" height="264" transform="translate(564 2)" fill="white"/>
<rect opacity="0.1" x="564" y="2" width="8" height="264" fill="white"/>
<rect width="40" height="264" transform="translate(612 2)" fill="white"/>
<rect opacity="0.1" x="612" y="2" width="40" height="264" fill="white"/>
</g>
<path opacity="0.3" d="M140 2H515V46H140V2Z" fill="#6F7880"/>
<path opacity="0.3" d="M188 162H468V266H188V162Z" fill="#6F7880"/>
<path d="M188 74H275C275.552 74 276 74.4477 276 75V79C276 79.5523 275.552 80 275 80H188V74Z" fill="#6F7880"/>
<path d="M188 89H442C442.552 89 443 89.4477 443 90V94C443 94.5523 442.552 95 442 95H188V89Z" fill="black" fill-opacity="0.1"/>
<path d="M188 101H432C432.552 101 433 101.448 433 102V106C433 106.552 432.552 107 432 107H188V101Z" fill="black" fill-opacity="0.1"/>
<path d="M188 113H432C432.552 113 433 113.448 433 114V118C433 118.552 432.552 119 432 119H188V113Z" fill="black" fill-opacity="0.1"/>
<path d="M188 125H452C452.552 125 453 125.448 453 126V130C453 130.552 452.552 131 452 131H188V125Z" fill="black" fill-opacity="0.1"/>
<path d="M188 137H445C445.552 137 446 137.448 446 138V142C446 142.552 445.552 143 445 143H188V137Z" fill="black" fill-opacity="0.1"/>
<path d="M188 149H445C445.552 149 446 149.448 446 150V154C446 154.552 445.552 155 445 155H188V149Z" fill="black" fill-opacity="0.1"/>
<defs>
<filter id="filter0_d_3278_14953" x="0" y="0" width="656" height="272" filterUnits="userSpaceOnUse" color-interpolation-filters="sRGB">
<feFlood flood-opacity="0" result="BackgroundImageFix"/>
<feColorMatrix in="SourceAlpha" type="matrix" values="0 0 0 0 0 0 0 0 0 0 0 0 0 0 0 0 0 0 127 0" result="hardAlpha"/>
<feOffset dy="2"/>
<feGaussianBlur stdDeviation="2"/>
<feComposite in2="hardAlpha" operator="out"/>
<feColorMatrix type="matrix" values="0 0 0 0 0.435294 0 0 0 0 0.470588 0 0 0 0 0.501961 0 0 0 0.3 0"/>
<feBlend mode="normal" in2="BackgroundImageFix" result="effect1_dropShadow_3278_14953"/>
<feBlend mode="normal" in="SourceGraphic" in2="effect1_dropShadow_3278_14953" result="shape"/>
</filter>
<clipPath id="clip0_3278_14953">
<rect width="648" height="264" fill="white" transform="translate(4 2)"/>
</clipPath>
</defs>
</svg>
