<svg width="364" height="200" viewBox="0 0 364 200" fill="none" xmlns="http://www.w3.org/2000/svg">
<path d="M0 8C0 3.58173 3.58172 0 8 0H356C360.418 0 364 3.58172 364 8V192C364 196.418 360.418 200 356 200H8C3.58172 200 0 196.418 0 192V8Z" fill="#FF0000" fill-opacity="0.2"/>
<path d="M0 4C0 1.79086 1.79086 0 4 0H16V200H4C1.79086 200 0 198.209 0 196V4Z" fill="#F2F2F2"/>
<rect opacity="0.1" width="16" height="200" fill="white"/>
<rect width="4" height="200" transform="translate(40)" fill="#F2F2F2"/>
<rect opacity="0.1" x="40" width="4" height="200" fill="white"/>
<rect width="4" height="200" transform="translate(68)" fill="#F2F2F2"/>
<rect opacity="0.1" x="68" width="4" height="200" fill="white"/>
<rect width="4" height="200" transform="translate(96)" fill="#F2F2F2"/>
<rect opacity="0.1" x="96" width="4" height="200" fill="white"/>
<rect width="4" height="200" transform="translate(124)" fill="#F2F2F2"/>
<rect opacity="0.1" x="124" width="4" height="200" fill="white"/>
<rect width="4" height="200" transform="translate(152)" fill="#F2F2F2"/>
<rect opacity="0.1" x="152" width="4" height="200" fill="white"/>
<rect width="4" height="200" transform="translate(180)" fill="#F2F2F2"/>
<rect opacity="0.1" x="180" width="4" height="200" fill="white"/>
<rect width="4" height="200" transform="translate(208)" fill="#F2F2F2"/>
<rect opacity="0.1" x="208" width="4" height="200" fill="white"/>
<rect width="4" height="200" transform="translate(236)" fill="#F2F2F2"/>
<rect opacity="0.1" x="236" width="4" height="200" fill="white"/>
<rect width="4" height="200" transform="translate(264)" fill="#F2F2F2"/>
<rect opacity="0.1" x="264" width="4" height="200" fill="white"/>
<rect width="4" height="200" transform="translate(292)" fill="#F2F2F2"/>
<rect opacity="0.1" x="292" width="4" height="200" fill="white"/>
<rect width="4" height="200" transform="translate(320)" fill="#F2F2F2"/>
<rect opacity="0.1" x="320" width="4" height="200" fill="white"/>
<path d="M348 0H360C362.209 0 364 1.79086 364 4V196C364 198.209 362.209 200 360 200H348V0Z" fill="#F2F2F2"/>
<rect opacity="0.1" x="348" width="16" height="200" fill="white"/>
<rect opacity="0.3" x="16" y="8" width="332" height="40" fill="#159BFF"/>
<path d="M139.384 30.62C138.604 30.62 137.987 30.4 137.534 29.96C137.08 29.5133 136.854 28.9067 136.854 28.14C136.854 27.3733 137.08 26.77 137.534 26.33C137.987 25.8833 138.604 25.66 139.384 25.66C140.004 25.66 140.574 25.8233 141.094 26.15L140.764 26.89C140.53 26.75 140.304 26.65 140.084 26.59C139.864 26.5233 139.634 26.49 139.394 26.49C138.874 26.49 138.474 26.6333 138.194 26.92C137.914 27.2 137.774 27.6067 137.774 28.14C137.774 28.6733 137.914 29.08 138.194 29.36C138.474 29.64 138.874 29.78 139.394 29.78C139.887 29.78 140.387 29.6233 140.894 29.31L141.244 30.03C140.69 30.4233 140.07 30.62 139.384 30.62ZM144.795 30.62C144.315 30.62 143.895 30.5167 143.535 30.31C143.175 30.1033 142.895 29.8133 142.695 29.44C142.495 29.0667 142.395 28.6333 142.395 28.14C142.395 27.6467 142.495 27.2133 142.695 26.84C142.895 26.4667 143.175 26.1767 143.535 25.97C143.895 25.7633 144.315 25.66 144.795 25.66C145.275 25.66 145.695 25.7633 146.055 25.97C146.415 26.1767 146.695 26.4667 146.895 26.84C147.095 27.2133 147.195 27.6467 147.195 28.14C147.195 28.6333 147.095 29.0667 146.895 29.44C146.695 29.8133 146.415 30.1033 146.055 30.31C145.695 30.5167 145.275 30.62 144.795 30.62ZM144.795 29.78C145.255 29.78 145.615 29.6367 145.875 29.35C146.141 29.0567 146.275 28.6533 146.275 28.14C146.275 27.6267 146.141 27.2233 145.875 26.93C145.615 26.6367 145.255 26.49 144.795 26.49C144.335 26.49 143.971 26.6367 143.705 26.93C143.445 27.2233 143.315 27.6267 143.315 28.14C143.315 28.6533 143.445 29.0567 143.705 29.35C143.971 29.6367 144.335 29.78 144.795 29.78ZM151.695 30.62C150.509 30.62 149.915 30.0233 149.915 28.83V24.22H147.975V23.4H150.815V28.69C150.815 29.0767 150.892 29.3567 151.045 29.53C151.199 29.6967 151.452 29.78 151.805 29.78C152.219 29.78 152.609 29.6767 152.975 29.47L153.215 30.25C152.762 30.4967 152.255 30.62 151.695 30.62ZM155.986 30.62C155.433 30.62 155.009 30.47 154.716 30.17C154.429 29.8633 154.286 29.4167 154.286 28.83V25.78H155.186V28.69C155.186 29.0767 155.263 29.3567 155.416 29.53C155.576 29.6967 155.833 29.78 156.186 29.78C156.659 29.78 157.109 29.64 157.536 29.36V25.78H158.436V30.5H157.766L157.676 30.04C157.163 30.4267 156.599 30.62 155.986 30.62ZM159.797 30.5V25.78H160.367L160.447 26.15C160.794 25.8233 161.17 25.66 161.577 25.66C161.997 25.66 162.294 25.8233 162.467 26.15C162.807 25.8233 163.177 25.66 163.577 25.66C163.904 25.66 164.16 25.7633 164.347 25.97C164.534 26.17 164.627 26.45 164.627 26.81V30.5H163.807V26.91C163.807 26.59 163.657 26.43 163.357 26.43C163.09 26.43 162.847 26.5367 162.627 26.75V30.5H161.807V26.91C161.807 26.59 161.654 26.43 161.347 26.43C161.08 26.43 160.837 26.5367 160.617 26.75V30.5H159.797ZM165.958 30.5V25.78H166.628L166.718 26.24C167.231 25.8533 167.794 25.66 168.408 25.66C168.961 25.66 169.381 25.8133 169.668 26.12C169.961 26.42 170.108 26.8633 170.108 27.45V30.5H169.208V27.59C169.208 27.1967 169.128 26.9167 168.968 26.75C168.814 26.5767 168.561 26.49 168.208 26.49C167.734 26.49 167.284 26.6333 166.858 26.92V30.5H165.958ZM179.579 30.62C178.726 30.62 177.979 30.4267 177.339 30.04L177.689 29.3C178.249 29.64 178.889 29.81 179.609 29.81C180.423 29.81 180.829 29.59 180.829 29.15C180.829 28.9767 180.779 28.8533 180.679 28.78C180.579 28.7 180.399 28.6433 180.139 28.61L179.019 28.46C178.519 28.3933 178.153 28.26 177.919 28.06C177.693 27.8533 177.579 27.5533 177.579 27.16C177.579 26.68 177.753 26.31 178.099 26.05C178.453 25.79 178.953 25.66 179.599 25.66C180.319 25.66 180.989 25.82 181.609 26.14L181.299 26.88C180.786 26.6 180.213 26.46 179.579 26.46C178.853 26.46 178.489 26.67 178.489 27.09C178.489 27.2567 178.539 27.38 178.639 27.46C178.739 27.5333 178.919 27.5867 179.179 27.62L180.299 27.76C180.799 27.8267 181.163 27.9633 181.389 28.17C181.623 28.3767 181.739 28.68 181.739 29.08C181.739 29.5733 181.553 29.9533 181.179 30.22C180.806 30.4867 180.273 30.62 179.579 30.62ZM183.29 32.6V25.78H183.96L184.05 26.24C184.577 25.8533 185.123 25.66 185.69 25.66C186.317 25.66 186.817 25.8833 187.19 26.33C187.563 26.7767 187.75 27.38 187.75 28.14C187.75 28.9 187.563 29.5033 187.19 29.95C186.817 30.3967 186.317 30.62 185.69 30.62C185.17 30.62 184.67 30.4567 184.19 30.13V32.6H183.29ZM185.5 29.78C185.927 29.78 186.253 29.6367 186.48 29.35C186.713 29.0633 186.83 28.66 186.83 28.14C186.83 27.6133 186.713 27.2067 186.48 26.92C186.253 26.6333 185.927 26.49 185.5 26.49C185.047 26.49 184.61 26.6333 184.19 26.92V29.36C184.61 29.64 185.047 29.78 185.5 29.78ZM190.731 30.62C190.157 30.62 189.711 30.4867 189.391 30.22C189.077 29.9533 188.921 29.5833 188.921 29.11C188.921 28.6567 189.071 28.31 189.371 28.07C189.671 27.83 190.114 27.71 190.701 27.71H192.381V27.56C192.381 27.1667 192.287 26.8867 192.101 26.72C191.914 26.5467 191.597 26.46 191.151 26.46C190.544 26.46 189.987 26.6 189.481 26.88L189.201 26.13C189.794 25.8167 190.467 25.66 191.221 25.66C191.934 25.66 192.454 25.8067 192.781 26.1C193.114 26.3867 193.281 26.84 193.281 27.46V30.5H192.611L192.511 30.04C191.991 30.4267 191.397 30.62 190.731 30.62ZM190.891 29.81C191.451 29.81 191.947 29.6633 192.381 29.37V28.45H190.731C190.137 28.45 189.841 28.6633 189.841 29.09C189.841 29.57 190.191 29.81 190.891 29.81ZM194.962 30.5V25.78H195.632L195.722 26.24C196.235 25.8533 196.798 25.66 197.412 25.66C197.965 25.66 198.385 25.8133 198.672 26.12C198.965 26.42 199.112 26.8633 199.112 27.45V30.5H198.212V27.59C198.212 27.1967 198.132 26.9167 197.972 26.75C197.818 26.5767 197.565 26.49 197.212 26.49C196.738 26.49 196.288 26.6333 195.862 26.92V30.5H194.962ZM206.603 28.1V27.37H210.603V28.1H206.603ZM217.915 30.5V29.66H219.765V25.64L218.405 26.69L217.985 26.12L220.055 24.14H220.685V29.66H222.535V30.5H217.915ZM223.815 30.5V29.79C223.815 29.0167 223.959 28.42 224.245 28C224.532 27.5733 225.005 27.2667 225.665 27.08L226.455 26.85C226.722 26.7767 226.925 26.6733 227.065 26.54C227.205 26.4067 227.275 26.2067 227.275 25.94C227.275 25.6067 227.165 25.3567 226.945 25.19C226.725 25.0233 226.409 24.94 225.995 24.94C225.355 24.94 224.789 25.16 224.295 25.6L223.815 24.87C224.142 24.5967 224.479 24.3967 224.825 24.27C225.172 24.1433 225.559 24.08 225.985 24.08C226.692 24.08 227.239 24.2433 227.625 24.57C228.012 24.8967 228.205 25.3633 228.205 25.97C228.205 26.43 228.085 26.8 227.845 27.08C227.605 27.36 227.225 27.5733 226.705 27.72L225.915 27.95C225.635 28.03 225.412 28.1333 225.245 28.26C225.079 28.3867 224.955 28.5633 224.875 28.79C224.802 29.01 224.759 29.3 224.745 29.66H228.205V30.5H223.815Z" fill="#159BFF"/>
<rect opacity="0.3" x="72" y="56" width="220" height="136" fill="#159BFF"/>
<path d="M159.186 126.62C158.406 126.62 157.79 126.4 157.336 125.96C156.883 125.513 156.656 124.907 156.656 124.14C156.656 123.373 156.883 122.77 157.336 122.33C157.79 121.883 158.406 121.66 159.186 121.66C159.806 121.66 160.376 121.823 160.896 122.15L160.566 122.89C160.333 122.75 160.106 122.65 159.886 122.59C159.666 122.523 159.436 122.49 159.196 122.49C158.676 122.49 158.276 122.633 157.996 122.92C157.716 123.2 157.576 123.607 157.576 124.14C157.576 124.673 157.716 125.08 157.996 125.36C158.276 125.64 158.676 125.78 159.196 125.78C159.69 125.78 160.19 125.623 160.696 125.31L161.046 126.03C160.493 126.423 159.873 126.62 159.186 126.62ZM164.597 126.62C164.117 126.62 163.697 126.517 163.337 126.31C162.977 126.103 162.697 125.813 162.497 125.44C162.297 125.067 162.197 124.633 162.197 124.14C162.197 123.647 162.297 123.213 162.497 122.84C162.697 122.467 162.977 122.177 163.337 121.97C163.697 121.763 164.117 121.66 164.597 121.66C165.077 121.66 165.497 121.763 165.857 121.97C166.217 122.177 166.497 122.467 166.697 122.84C166.897 123.213 166.997 123.647 166.997 124.14C166.997 124.633 166.897 125.067 166.697 125.44C166.497 125.813 166.217 126.103 165.857 126.31C165.497 126.517 165.077 126.62 164.597 126.62ZM164.597 125.78C165.057 125.78 165.417 125.637 165.677 125.35C165.944 125.057 166.077 124.653 166.077 124.14C166.077 123.627 165.944 123.223 165.677 122.93C165.417 122.637 165.057 122.49 164.597 122.49C164.137 122.49 163.774 122.637 163.507 122.93C163.247 123.223 163.117 123.627 163.117 124.14C163.117 124.653 163.247 125.057 163.507 125.35C163.774 125.637 164.137 125.78 164.597 125.78ZM168.358 126.5V121.78H169.028L169.118 122.24C169.631 121.853 170.195 121.66 170.808 121.66C171.361 121.66 171.781 121.813 172.068 122.12C172.361 122.42 172.508 122.863 172.508 123.45V126.5H171.608V123.59C171.608 123.197 171.528 122.917 171.368 122.75C171.215 122.577 170.961 122.49 170.608 122.49C170.135 122.49 169.685 122.633 169.258 122.92V126.5H168.358ZM177.069 126.62C175.882 126.62 175.289 126.023 175.289 124.83V122.59H173.799V121.78H175.289V120.32L176.189 119.88V121.78H178.109V122.59H176.189V124.69C176.189 125.077 176.265 125.357 176.419 125.53C176.579 125.697 176.835 125.78 177.189 125.78C177.595 125.78 177.982 125.677 178.349 125.47L178.589 126.25C178.135 126.497 177.629 126.62 177.069 126.62ZM181.53 126.62C180.956 126.62 180.51 126.487 180.19 126.22C179.876 125.953 179.72 125.583 179.72 125.11C179.72 124.657 179.87 124.31 180.17 124.07C180.47 123.83 180.913 123.71 181.5 123.71H183.18V123.56C183.18 123.167 183.086 122.887 182.9 122.72C182.713 122.547 182.396 122.46 181.95 122.46C181.343 122.46 180.786 122.6 180.28 122.88L180 122.13C180.593 121.817 181.266 121.66 182.02 121.66C182.733 121.66 183.253 121.807 183.58 122.1C183.913 122.387 184.08 122.84 184.08 123.46V126.5H183.41L183.31 126.04C182.79 126.427 182.196 126.62 181.53 126.62ZM181.69 125.81C182.25 125.81 182.746 125.663 183.18 125.37V124.45H181.53C180.936 124.45 180.64 124.663 180.64 125.09C180.64 125.57 180.99 125.81 181.69 125.81ZM187.35 126.5V122.59H185.41V121.78H188.25V125.68H190.19V126.5H187.35ZM187.7 120.75C187.494 120.75 187.32 120.68 187.18 120.54C187.04 120.393 186.97 120.217 186.97 120.01C186.97 119.81 187.04 119.64 187.18 119.5C187.32 119.353 187.494 119.28 187.7 119.28C187.907 119.28 188.08 119.353 188.22 119.5C188.36 119.64 188.43 119.81 188.43 120.01C188.43 120.217 188.36 120.393 188.22 120.54C188.08 120.68 187.907 120.75 187.7 120.75ZM191.561 126.5V121.78H192.231L192.321 122.24C192.835 121.853 193.398 121.66 194.011 121.66C194.565 121.66 194.985 121.813 195.271 122.12C195.565 122.42 195.711 122.863 195.711 123.45V126.5H194.811V123.59C194.811 123.197 194.731 122.917 194.571 122.75C194.418 122.577 194.165 122.49 193.811 122.49C193.338 122.49 192.888 122.633 192.461 122.92V126.5H191.561ZM199.672 126.62C198.859 126.62 198.219 126.4 197.752 125.96C197.285 125.513 197.052 124.907 197.052 124.14C197.052 123.64 197.152 123.203 197.352 122.83C197.552 122.457 197.832 122.17 198.192 121.97C198.559 121.763 198.985 121.66 199.472 121.66C199.939 121.66 200.342 121.757 200.682 121.95C201.029 122.137 201.295 122.407 201.482 122.76C201.669 123.107 201.762 123.517 201.762 123.99C201.762 124.063 201.759 124.14 201.752 124.22C201.752 124.293 201.745 124.37 201.732 124.45H197.972C198.025 124.897 198.199 125.237 198.492 125.47C198.785 125.697 199.185 125.81 199.692 125.81C200.225 125.81 200.739 125.653 201.232 125.34L201.592 126.04C201.005 126.427 200.365 126.62 199.672 126.62ZM197.992 123.71H200.872C200.819 123.31 200.669 123.003 200.422 122.79C200.182 122.57 199.862 122.46 199.462 122.46C199.062 122.46 198.732 122.57 198.472 122.79C198.219 123.01 198.059 123.317 197.992 123.71ZM203.483 126.5V121.78H204.193L204.303 122.53C204.823 121.95 205.463 121.66 206.223 121.66C206.683 121.66 207.063 121.767 207.363 121.98L207.023 122.77C206.756 122.59 206.463 122.5 206.143 122.5C205.463 122.5 204.876 122.827 204.383 123.48V126.5H203.483ZM141.784 137.62C141.004 137.62 140.387 137.4 139.934 136.96C139.481 136.513 139.254 135.907 139.254 135.14C139.254 134.373 139.481 133.77 139.934 133.33C140.387 132.883 141.004 132.66 141.784 132.66C142.404 132.66 142.974 132.823 143.494 133.15L143.164 133.89C142.931 133.75 142.704 133.65 142.484 133.59C142.264 133.523 142.034 133.49 141.794 133.49C141.274 133.49 140.874 133.633 140.594 133.92C140.314 134.2 140.174 134.607 140.174 135.14C140.174 135.673 140.314 136.08 140.594 136.36C140.874 136.64 141.274 136.78 141.794 136.78C142.287 136.78 142.787 136.623 143.294 136.31L143.644 137.03C143.091 137.423 142.471 137.62 141.784 137.62ZM147.195 137.62C146.715 137.62 146.295 137.517 145.935 137.31C145.575 137.103 145.295 136.813 145.095 136.44C144.895 136.067 144.795 135.633 144.795 135.14C144.795 134.647 144.895 134.213 145.095 133.84C145.295 133.467 145.575 133.177 145.935 132.97C146.295 132.763 146.715 132.66 147.195 132.66C147.675 132.66 148.095 132.763 148.455 132.97C148.815 133.177 149.095 133.467 149.295 133.84C149.495 134.213 149.595 134.647 149.595 135.14C149.595 135.633 149.495 136.067 149.295 136.44C149.095 136.813 148.815 137.103 148.455 137.31C148.095 137.517 147.675 137.62 147.195 137.62ZM147.195 136.78C147.655 136.78 148.015 136.637 148.275 136.35C148.542 136.057 148.675 135.653 148.675 135.14C148.675 134.627 148.542 134.223 148.275 133.93C148.015 133.637 147.655 133.49 147.195 133.49C146.735 133.49 146.372 133.637 146.105 133.93C145.845 134.223 145.715 134.627 145.715 135.14C145.715 135.653 145.845 136.057 146.105 136.35C146.372 136.637 146.735 136.78 147.195 136.78ZM154.096 137.62C152.909 137.62 152.316 137.023 152.316 135.83V131.22H150.376V130.4H153.216V135.69C153.216 136.077 153.292 136.357 153.446 136.53C153.599 136.697 153.852 136.78 154.206 136.78C154.619 136.78 155.009 136.677 155.376 136.47L155.616 137.25C155.162 137.497 154.656 137.62 154.096 137.62ZM158.386 137.62C157.833 137.62 157.41 137.47 157.116 137.17C156.83 136.863 156.686 136.417 156.686 135.83V132.78H157.586V135.69C157.586 136.077 157.663 136.357 157.816 136.53C157.976 136.697 158.233 136.78 158.586 136.78C159.06 136.78 159.51 136.64 159.936 136.36V132.78H160.836V137.5H160.166L160.076 137.04C159.563 137.427 159 137.62 158.386 137.62ZM162.197 137.5V132.78H162.767L162.847 133.15C163.194 132.823 163.571 132.66 163.977 132.66C164.397 132.66 164.694 132.823 164.867 133.15C165.207 132.823 165.577 132.66 165.977 132.66C166.304 132.66 166.561 132.763 166.747 132.97C166.934 133.17 167.027 133.45 167.027 133.81V137.5H166.207V133.91C166.207 133.59 166.057 133.43 165.757 133.43C165.491 133.43 165.247 133.537 165.027 133.75V137.5H164.207V133.91C164.207 133.59 164.054 133.43 163.747 133.43C163.481 133.43 163.237 133.537 163.017 133.75V137.5H162.197ZM168.358 137.5V132.78H169.028L169.118 133.24C169.631 132.853 170.195 132.66 170.808 132.66C171.361 132.66 171.781 132.813 172.068 133.12C172.361 133.42 172.508 133.863 172.508 134.45V137.5H171.608V134.59C171.608 134.197 171.528 133.917 171.368 133.75C171.215 133.577 170.961 133.49 170.608 133.49C170.135 133.49 169.685 133.633 169.258 133.92V137.5H168.358ZM181.98 137.62C181.126 137.62 180.38 137.427 179.74 137.04L180.09 136.3C180.65 136.64 181.29 136.81 182.01 136.81C182.823 136.81 183.23 136.59 183.23 136.15C183.23 135.977 183.18 135.853 183.08 135.78C182.98 135.7 182.8 135.643 182.54 135.61L181.42 135.46C180.92 135.393 180.553 135.26 180.32 135.06C180.093 134.853 179.98 134.553 179.98 134.16C179.98 133.68 180.153 133.31 180.5 133.05C180.853 132.79 181.353 132.66 182 132.66C182.72 132.66 183.39 132.82 184.01 133.14L183.7 133.88C183.186 133.6 182.613 133.46 181.98 133.46C181.253 133.46 180.89 133.67 180.89 134.09C180.89 134.257 180.94 134.38 181.04 134.46C181.14 134.533 181.32 134.587 181.58 134.62L182.7 134.76C183.2 134.827 183.563 134.963 183.79 135.17C184.023 135.377 184.14 135.68 184.14 136.08C184.14 136.573 183.953 136.953 183.58 137.22C183.206 137.487 182.673 137.62 181.98 137.62ZM185.69 139.6V132.78H186.36L186.45 133.24C186.977 132.853 187.524 132.66 188.09 132.66C188.717 132.66 189.217 132.883 189.59 133.33C189.964 133.777 190.15 134.38 190.15 135.14C190.15 135.9 189.964 136.503 189.59 136.95C189.217 137.397 188.717 137.62 188.09 137.62C187.57 137.62 187.07 137.457 186.59 137.13V139.6H185.69ZM187.9 136.78C188.327 136.78 188.654 136.637 188.88 136.35C189.114 136.063 189.23 135.66 189.23 135.14C189.23 134.613 189.114 134.207 188.88 133.92C188.654 133.633 188.327 133.49 187.9 133.49C187.447 133.49 187.01 133.633 186.59 133.92V136.36C187.01 136.64 187.447 136.78 187.9 136.78ZM193.131 137.62C192.558 137.62 192.111 137.487 191.791 137.22C191.478 136.953 191.321 136.583 191.321 136.11C191.321 135.657 191.471 135.31 191.771 135.07C192.071 134.83 192.515 134.71 193.101 134.71H194.781V134.56C194.781 134.167 194.688 133.887 194.501 133.72C194.315 133.547 193.998 133.46 193.551 133.46C192.945 133.46 192.388 133.6 191.881 133.88L191.601 133.13C192.195 132.817 192.868 132.66 193.621 132.66C194.335 132.66 194.855 132.807 195.181 133.1C195.515 133.387 195.681 133.84 195.681 134.46V137.5H195.011L194.911 137.04C194.391 137.427 193.798 137.62 193.131 137.62ZM193.291 136.81C193.851 136.81 194.348 136.663 194.781 136.37V135.45H193.131C192.538 135.45 192.241 135.663 192.241 136.09C192.241 136.57 192.591 136.81 193.291 136.81ZM197.362 137.5V132.78H198.032L198.122 133.24C198.635 132.853 199.199 132.66 199.812 132.66C200.365 132.66 200.785 132.813 201.072 133.12C201.365 133.42 201.512 133.863 201.512 134.45V137.5H200.612V134.59C200.612 134.197 200.532 133.917 200.372 133.75C200.219 133.577 199.965 133.49 199.612 133.49C199.139 133.49 198.689 133.633 198.262 133.92V137.5H197.362ZM209.004 135.1V134.37H213.004V135.1H209.004ZM222.605 137.62C221.845 137.62 221.252 137.463 220.825 137.15C220.398 136.837 220.185 136.397 220.185 135.83C220.185 135.503 220.272 135.213 220.445 134.96C220.618 134.7 220.908 134.453 221.315 134.22V134.2C221.008 134.04 220.785 133.843 220.645 133.61C220.505 133.377 220.435 133.11 220.435 132.81C220.435 132.263 220.632 131.84 221.025 131.54C221.418 131.233 221.945 131.08 222.605 131.08C223.272 131.08 223.798 131.233 224.185 131.54C224.578 131.84 224.775 132.25 224.775 132.77C224.775 133.35 224.482 133.837 223.895 134.23V134.25C224.268 134.403 224.548 134.6 224.735 134.84C224.928 135.08 225.025 135.393 225.025 135.78C225.025 136.367 224.812 136.82 224.385 137.14C223.965 137.46 223.372 137.62 222.605 137.62ZM223.055 133.93C223.582 133.637 223.845 133.273 223.845 132.84C223.845 132.533 223.735 132.307 223.515 132.16C223.302 132.013 222.998 131.94 222.605 131.94C222.218 131.94 221.915 132.013 221.695 132.16C221.475 132.307 221.365 132.513 221.365 132.78C221.365 133.14 221.618 133.413 222.125 133.6L223.055 133.93ZM222.605 136.76C223.065 136.76 223.428 136.677 223.695 136.51C223.962 136.337 224.095 136.09 224.095 135.77C224.095 135.57 224.025 135.407 223.885 135.28C223.752 135.153 223.568 135.05 223.335 134.97L222.145 134.53C221.792 134.71 221.532 134.9 221.365 135.1C221.198 135.3 221.115 135.52 221.115 135.76C221.115 136.08 221.245 136.327 221.505 136.5C221.772 136.673 222.138 136.76 222.605 136.76Z" fill="#159BFF"/>
</svg>
