<svg width="656" height="382" viewBox="0 0 656 382" fill="none" xmlns="http://www.w3.org/2000/svg">
<rect opacity="0.6" x="476.5" y="156.5" width="135" height="109" stroke="#3A7DFF" stroke-dasharray="2 2"/>
<line x1="44.5" y1="278" x2="44.5" y2="290" stroke="#3A7DFF"/>
<line x1="179" y1="283.5" x2="44" y2="283.5" stroke="#3A7DFF"/>
<line x1="179.5" y1="278" x2="179.5" y2="290" stroke="#3A7DFF"/>
<line x1="476.5" y1="278" x2="476.5" y2="290" stroke="#3A7DFF"/>
<line x1="611" y1="283.5" x2="476" y2="283.5" stroke="#3A7DFF"/>
<line x1="611.5" y1="278" x2="611.5" y2="290" stroke="#3A7DFF"/>
<line x1="188.5" y1="278" x2="188.5" y2="290" stroke="#3A7DFF"/>
<line x1="468" y1="283.5" x2="188" y2="283.5" stroke="#3A7DFF"/>
<line x1="468.5" y1="278" x2="468.5" y2="290" stroke="#3A7DFF"/>
<line x1="44.5" y1="314" x2="44.5" y2="326" stroke="#3A7DFF"/>
<line x1="228" y1="319.5" x2="44" y2="319.5" stroke="#3A7DFF"/>
<line x1="228.5" y1="314" x2="228.5" y2="326" stroke="#3A7DFF"/>
<line x1="44.5" y1="350" x2="44.5" y2="362" stroke="#3A7DFF"/>
<line x1="612" y1="355.5" x2="44" y2="355.5" stroke="#3A7DFF"/>
<line x1="612.5" y1="350" x2="612.5" y2="362" stroke="#3A7DFF"/>
<line x1="236.5" y1="314" x2="236.5" y2="326" stroke="#3A7DFF"/>
<line x1="420" y1="319.5" x2="236" y2="319.5" stroke="#3A7DFF"/>
<line x1="420.5" y1="314" x2="420.5" y2="326" stroke="#3A7DFF"/>
<line x1="428.5" y1="314" x2="428.5" y2="326" stroke="#3A7DFF"/>
<line x1="612" y1="319.5" x2="428" y2="319.5" stroke="#3A7DFF"/>
<line x1="612.5" y1="314" x2="612.5" y2="326" stroke="#3A7DFF"/>
<path d="M90.8295 297.455C90.7784 297.023 90.571 296.688 90.2074 296.449C89.8438 296.21 89.3977 296.091 88.8693 296.091C88.483 296.091 88.1449 296.153 87.8551 296.278C87.5682 296.403 87.3438 296.575 87.1818 296.794C87.0227 297.013 86.9432 297.261 86.9432 297.54C86.9432 297.773 86.9986 297.973 87.1094 298.141C87.223 298.305 87.3679 298.443 87.544 298.554C87.7202 298.662 87.9048 298.751 88.098 298.822C88.2912 298.891 88.4688 298.946 88.6307 298.989L89.517 299.227C89.7443 299.287 89.9972 299.369 90.2756 299.474C90.5568 299.58 90.8253 299.723 91.081 299.905C91.3395 300.084 91.5526 300.314 91.7202 300.595C91.8878 300.876 91.9716 301.222 91.9716 301.631C91.9716 302.102 91.848 302.528 91.6009 302.909C91.3565 303.29 90.9986 303.592 90.527 303.817C90.0582 304.041 89.4886 304.153 88.8182 304.153C88.1932 304.153 87.652 304.053 87.1946 303.851C86.7401 303.649 86.3821 303.368 86.1207 303.007C85.8622 302.646 85.7159 302.227 85.6818 301.75H86.7727C86.8011 302.08 86.9119 302.352 87.1051 302.568C87.3011 302.781 87.5483 302.94 87.8466 303.045C88.1477 303.148 88.4716 303.199 88.8182 303.199C89.2216 303.199 89.5838 303.134 89.9048 303.003C90.2259 302.869 90.4801 302.685 90.6676 302.449C90.8551 302.21 90.9489 301.932 90.9489 301.614C90.9489 301.324 90.8679 301.088 90.706 300.906C90.544 300.724 90.331 300.577 90.0668 300.463C89.8026 300.349 89.517 300.25 89.2102 300.165L88.1364 299.858C87.4545 299.662 86.9148 299.382 86.517 299.018C86.1193 298.655 85.9205 298.179 85.9205 297.591C85.9205 297.102 86.0526 296.676 86.3168 296.312C86.5838 295.946 86.9418 295.662 87.3906 295.46C87.8423 295.256 88.3466 295.153 88.9034 295.153C89.4659 295.153 89.9659 295.254 90.4034 295.456C90.8409 295.655 91.1875 295.928 91.4432 296.274C91.7017 296.621 91.8381 297.014 91.8523 297.455H90.8295ZM93.5728 306.455V297.455H94.5444V298.494H94.6637C94.7376 298.381 94.8398 298.236 94.9705 298.06C95.104 297.881 95.2944 297.722 95.5415 297.582C95.7915 297.44 96.1296 297.369 96.5558 297.369C97.1069 297.369 97.5927 297.507 98.0131 297.783C98.4336 298.058 98.7617 298.449 98.9975 298.955C99.2333 299.46 99.3512 300.057 99.3512 300.744C99.3512 301.438 99.2333 302.038 98.9975 302.547C98.7617 303.053 98.435 303.445 98.0174 303.723C97.5998 303.999 97.1183 304.136 96.5728 304.136C96.1523 304.136 95.8157 304.067 95.5629 303.928C95.31 303.786 95.1154 303.625 94.979 303.446C94.8427 303.264 94.7376 303.114 94.6637 302.994H94.5785V306.455H93.5728ZM94.5614 300.727C94.5614 301.222 94.6339 301.658 94.7788 302.036C94.9237 302.411 95.1353 302.705 95.4137 302.918C95.6921 303.128 96.033 303.233 96.4364 303.233C96.8569 303.233 97.2077 303.122 97.489 302.901C97.7731 302.676 97.9862 302.375 98.1282 301.997C98.2731 301.616 98.3455 301.193 98.3455 300.727C98.3455 300.267 98.2745 299.852 98.1325 299.483C97.9933 299.111 97.7816 298.817 97.4975 298.601C97.2163 298.382 96.8626 298.273 96.4364 298.273C96.0273 298.273 95.6836 298.376 95.4052 298.584C95.1268 298.788 94.9165 299.075 94.7745 299.445C94.6325 299.811 94.5614 300.239 94.5614 300.727ZM102.811 304.153C102.397 304.153 102.02 304.075 101.682 303.919C101.344 303.76 101.076 303.531 100.877 303.233C100.678 302.932 100.578 302.568 100.578 302.142C100.578 301.767 100.652 301.463 100.8 301.23C100.948 300.994 101.145 300.81 101.392 300.676C101.64 300.543 101.912 300.443 102.211 300.378C102.512 300.31 102.814 300.256 103.118 300.216C103.516 300.165 103.838 300.126 104.086 300.101C104.336 300.072 104.517 300.026 104.631 299.96C104.748 299.895 104.806 299.781 104.806 299.619V299.585C104.806 299.165 104.691 298.838 104.461 298.605C104.233 298.372 103.888 298.256 103.425 298.256C102.945 298.256 102.569 298.361 102.296 298.571C102.023 298.781 101.831 299.006 101.721 299.244L100.766 298.903C100.936 298.506 101.164 298.196 101.448 297.974C101.735 297.75 102.047 297.594 102.385 297.506C102.726 297.415 103.061 297.369 103.391 297.369C103.601 297.369 103.843 297.395 104.115 297.446C104.391 297.494 104.657 297.595 104.912 297.749C105.171 297.902 105.385 298.134 105.556 298.443C105.726 298.753 105.811 299.168 105.811 299.688V304H104.806V303.114H104.755C104.686 303.256 104.573 303.408 104.414 303.57C104.255 303.732 104.043 303.869 103.779 303.983C103.515 304.097 103.192 304.153 102.811 304.153ZM102.965 303.25C103.363 303.25 103.698 303.172 103.971 303.016C104.246 302.859 104.453 302.658 104.593 302.411C104.735 302.163 104.806 301.903 104.806 301.631V300.71C104.763 300.761 104.669 300.808 104.525 300.851C104.382 300.891 104.218 300.926 104.03 300.957C103.846 300.986 103.665 301.011 103.489 301.034C103.316 301.054 103.175 301.071 103.067 301.085C102.806 301.119 102.561 301.175 102.334 301.251C102.11 301.325 101.928 301.437 101.789 301.588C101.652 301.736 101.584 301.937 101.584 302.193C101.584 302.543 101.713 302.807 101.972 302.986C102.233 303.162 102.564 303.25 102.965 303.25ZM108.653 300.062V304H107.647V297.455H108.619V298.477H108.704C108.857 298.145 109.09 297.878 109.403 297.676C109.715 297.472 110.119 297.369 110.613 297.369C111.056 297.369 111.444 297.46 111.776 297.642C112.109 297.821 112.367 298.094 112.552 298.46C112.737 298.824 112.829 299.284 112.829 299.841V304H111.823V299.909C111.823 299.395 111.69 298.994 111.423 298.707C111.156 298.418 110.789 298.273 110.323 298.273C110.002 298.273 109.715 298.342 109.462 298.482C109.212 298.621 109.015 298.824 108.87 299.091C108.725 299.358 108.653 299.682 108.653 300.062ZM121.792 299.168V300.105H117.973V299.168H121.792ZM129.868 304.119C129.305 304.119 128.804 304.023 128.364 303.83C127.926 303.636 127.578 303.368 127.32 303.024C127.064 302.678 126.925 302.276 126.902 301.818H127.976C127.999 302.099 128.095 302.342 128.266 302.547C128.436 302.749 128.659 302.905 128.935 303.016C129.21 303.126 129.516 303.182 129.851 303.182C130.226 303.182 130.558 303.116 130.848 302.986C131.138 302.855 131.365 302.673 131.53 302.44C131.695 302.207 131.777 301.938 131.777 301.631C131.777 301.31 131.697 301.027 131.538 300.783C131.379 300.536 131.146 300.342 130.839 300.203C130.533 300.064 130.158 299.994 129.714 299.994H129.016V299.057H129.714C130.061 299.057 130.365 298.994 130.626 298.869C130.891 298.744 131.097 298.568 131.244 298.341C131.395 298.114 131.47 297.847 131.47 297.54C131.47 297.244 131.405 296.987 131.274 296.768C131.143 296.55 130.959 296.379 130.72 296.257C130.484 296.135 130.206 296.074 129.885 296.074C129.584 296.074 129.3 296.129 129.033 296.24C128.768 296.348 128.553 296.506 128.385 296.713C128.217 296.918 128.126 297.165 128.112 297.455H127.089C127.107 296.997 127.244 296.597 127.503 296.253C127.761 295.906 128.099 295.636 128.517 295.443C128.938 295.25 129.399 295.153 129.902 295.153C130.442 295.153 130.905 295.263 131.291 295.482C131.678 295.697 131.974 295.983 132.182 296.338C132.389 296.693 132.493 297.077 132.493 297.489C132.493 297.98 132.364 298.399 132.105 298.746C131.849 299.092 131.501 299.332 131.061 299.466V299.534C131.612 299.625 132.043 299.859 132.352 300.237C132.662 300.612 132.817 301.077 132.817 301.631C132.817 302.105 132.688 302.531 132.429 302.909C132.173 303.284 131.824 303.58 131.381 303.795C130.938 304.011 130.433 304.119 129.868 304.119Z" fill="#333333"/>
<path d="M522.83 297.455C522.778 297.023 522.571 296.688 522.207 296.449C521.844 296.21 521.398 296.091 520.869 296.091C520.483 296.091 520.145 296.153 519.855 296.278C519.568 296.403 519.344 296.575 519.182 296.794C519.023 297.013 518.943 297.261 518.943 297.54C518.943 297.773 518.999 297.973 519.109 298.141C519.223 298.305 519.368 298.443 519.544 298.554C519.72 298.662 519.905 298.751 520.098 298.822C520.291 298.891 520.469 298.946 520.631 298.989L521.517 299.227C521.744 299.287 521.997 299.369 522.276 299.474C522.557 299.58 522.825 299.723 523.081 299.905C523.339 300.084 523.553 300.314 523.72 300.595C523.888 300.876 523.972 301.222 523.972 301.631C523.972 302.102 523.848 302.528 523.601 302.909C523.357 303.29 522.999 303.592 522.527 303.817C522.058 304.041 521.489 304.153 520.818 304.153C520.193 304.153 519.652 304.053 519.195 303.851C518.74 303.649 518.382 303.368 518.121 303.007C517.862 302.646 517.716 302.227 517.682 301.75H518.773C518.801 302.08 518.912 302.352 519.105 302.568C519.301 302.781 519.548 302.94 519.847 303.045C520.148 303.148 520.472 303.199 520.818 303.199C521.222 303.199 521.584 303.134 521.905 303.003C522.226 302.869 522.48 302.685 522.668 302.449C522.855 302.21 522.949 301.932 522.949 301.614C522.949 301.324 522.868 301.088 522.706 300.906C522.544 300.724 522.331 300.577 522.067 300.463C521.803 300.349 521.517 300.25 521.21 300.165L520.136 299.858C519.455 299.662 518.915 299.382 518.517 299.018C518.119 298.655 517.92 298.179 517.92 297.591C517.92 297.102 518.053 296.676 518.317 296.312C518.584 295.946 518.942 295.662 519.391 295.46C519.842 295.256 520.347 295.153 520.903 295.153C521.466 295.153 521.966 295.254 522.403 295.456C522.841 295.655 523.188 295.928 523.443 296.274C523.702 296.621 523.838 297.014 523.852 297.455H522.83ZM525.573 306.455V297.455H526.544V298.494H526.664C526.738 298.381 526.84 298.236 526.971 298.06C527.104 297.881 527.294 297.722 527.542 297.582C527.792 297.44 528.13 297.369 528.556 297.369C529.107 297.369 529.593 297.507 530.013 297.783C530.434 298.058 530.762 298.449 530.998 298.955C531.233 299.46 531.351 300.057 531.351 300.744C531.351 301.438 531.233 302.038 530.998 302.547C530.762 303.053 530.435 303.445 530.017 303.723C529.6 303.999 529.118 304.136 528.573 304.136C528.152 304.136 527.816 304.067 527.563 303.928C527.31 303.786 527.115 303.625 526.979 303.446C526.843 303.264 526.738 303.114 526.664 302.994H526.578V306.455H525.573ZM526.561 300.727C526.561 301.222 526.634 301.658 526.779 302.036C526.924 302.411 527.135 302.705 527.414 302.918C527.692 303.128 528.033 303.233 528.436 303.233C528.857 303.233 529.208 303.122 529.489 302.901C529.773 302.676 529.986 302.375 530.128 301.997C530.273 301.616 530.346 301.193 530.346 300.727C530.346 300.267 530.275 299.852 530.132 299.483C529.993 299.111 529.782 298.817 529.498 298.601C529.216 298.382 528.863 298.273 528.436 298.273C528.027 298.273 527.684 298.376 527.405 298.584C527.127 298.788 526.917 299.075 526.775 299.445C526.632 299.811 526.561 300.239 526.561 300.727ZM534.811 304.153C534.397 304.153 534.02 304.075 533.682 303.919C533.344 303.76 533.076 303.531 532.877 303.233C532.678 302.932 532.578 302.568 532.578 302.142C532.578 301.767 532.652 301.463 532.8 301.23C532.948 300.994 533.145 300.81 533.392 300.676C533.64 300.543 533.912 300.443 534.211 300.378C534.512 300.31 534.814 300.256 535.118 300.216C535.516 300.165 535.838 300.126 536.086 300.101C536.336 300.072 536.517 300.026 536.631 299.96C536.748 299.895 536.806 299.781 536.806 299.619V299.585C536.806 299.165 536.691 298.838 536.461 298.605C536.233 298.372 535.888 298.256 535.425 298.256C534.945 298.256 534.569 298.361 534.296 298.571C534.023 298.781 533.831 299.006 533.721 299.244L532.766 298.903C532.936 298.506 533.164 298.196 533.448 297.974C533.735 297.75 534.047 297.594 534.385 297.506C534.726 297.415 535.061 297.369 535.391 297.369C535.601 297.369 535.843 297.395 536.115 297.446C536.391 297.494 536.657 297.595 536.912 297.749C537.171 297.902 537.385 298.134 537.556 298.443C537.726 298.753 537.811 299.168 537.811 299.688V304H536.806V303.114H536.755C536.686 303.256 536.573 303.408 536.414 303.57C536.255 303.732 536.043 303.869 535.779 303.983C535.515 304.097 535.192 304.153 534.811 304.153ZM534.965 303.25C535.363 303.25 535.698 303.172 535.971 303.016C536.246 302.859 536.453 302.658 536.593 302.411C536.735 302.163 536.806 301.903 536.806 301.631V300.71C536.763 300.761 536.669 300.808 536.525 300.851C536.382 300.891 536.218 300.926 536.03 300.957C535.846 300.986 535.665 301.011 535.489 301.034C535.316 301.054 535.175 301.071 535.067 301.085C534.806 301.119 534.561 301.175 534.334 301.251C534.11 301.325 533.928 301.437 533.789 301.588C533.652 301.736 533.584 301.937 533.584 302.193C533.584 302.543 533.713 302.807 533.972 302.986C534.233 303.162 534.564 303.25 534.965 303.25ZM540.653 300.062V304H539.647V297.455H540.619V298.477H540.704C540.857 298.145 541.09 297.878 541.403 297.676C541.715 297.472 542.119 297.369 542.613 297.369C543.056 297.369 543.444 297.46 543.776 297.642C544.109 297.821 544.367 298.094 544.552 298.46C544.737 298.824 544.829 299.284 544.829 299.841V304H543.823V299.909C543.823 299.395 543.69 298.994 543.423 298.707C543.156 298.418 542.789 298.273 542.323 298.273C542.002 298.273 541.715 298.342 541.462 298.482C541.212 298.621 541.015 298.824 540.87 299.091C540.725 299.358 540.653 299.682 540.653 300.062ZM553.792 299.168V300.105H549.973V299.168H553.792ZM561.868 304.119C561.305 304.119 560.804 304.023 560.364 303.83C559.926 303.636 559.578 303.368 559.32 303.024C559.064 302.678 558.925 302.276 558.902 301.818H559.976C559.999 302.099 560.095 302.342 560.266 302.547C560.436 302.749 560.659 302.905 560.935 303.016C561.21 303.126 561.516 303.182 561.851 303.182C562.226 303.182 562.558 303.116 562.848 302.986C563.138 302.855 563.365 302.673 563.53 302.44C563.695 302.207 563.777 301.938 563.777 301.631C563.777 301.31 563.697 301.027 563.538 300.783C563.379 300.536 563.146 300.342 562.839 300.203C562.533 300.064 562.158 299.994 561.714 299.994H561.016V299.057H561.714C562.061 299.057 562.365 298.994 562.626 298.869C562.891 298.744 563.097 298.568 563.244 298.341C563.395 298.114 563.47 297.847 563.47 297.54C563.47 297.244 563.405 296.987 563.274 296.768C563.143 296.55 562.959 296.379 562.72 296.257C562.484 296.135 562.206 296.074 561.885 296.074C561.584 296.074 561.3 296.129 561.033 296.24C560.768 296.348 560.553 296.506 560.385 296.713C560.217 296.918 560.126 297.165 560.112 297.455H559.089C559.107 296.997 559.244 296.597 559.503 296.253C559.761 295.906 560.099 295.636 560.517 295.443C560.938 295.25 561.399 295.153 561.902 295.153C562.442 295.153 562.905 295.263 563.291 295.482C563.678 295.697 563.974 295.983 564.182 296.338C564.389 296.693 564.493 297.077 564.493 297.489C564.493 297.98 564.364 298.399 564.105 298.746C563.849 299.092 563.501 299.332 563.061 299.466V299.534C563.612 299.625 564.043 299.859 564.352 300.237C564.662 300.612 564.817 301.077 564.817 301.631C564.817 302.105 564.688 302.531 564.429 302.909C564.173 303.284 563.824 303.58 563.381 303.795C562.938 304.011 562.433 304.119 561.868 304.119Z" fill="#333333"/>
<path d="M308.83 297.455C308.778 297.023 308.571 296.688 308.207 296.449C307.844 296.21 307.398 296.091 306.869 296.091C306.483 296.091 306.145 296.153 305.855 296.278C305.568 296.403 305.344 296.575 305.182 296.794C305.023 297.013 304.943 297.261 304.943 297.54C304.943 297.773 304.999 297.973 305.109 298.141C305.223 298.305 305.368 298.443 305.544 298.554C305.72 298.662 305.905 298.751 306.098 298.822C306.291 298.891 306.469 298.946 306.631 298.989L307.517 299.227C307.744 299.287 307.997 299.369 308.276 299.474C308.557 299.58 308.825 299.723 309.081 299.905C309.339 300.084 309.553 300.314 309.72 300.595C309.888 300.876 309.972 301.222 309.972 301.631C309.972 302.102 309.848 302.528 309.601 302.909C309.357 303.29 308.999 303.592 308.527 303.817C308.058 304.041 307.489 304.153 306.818 304.153C306.193 304.153 305.652 304.053 305.195 303.851C304.74 303.649 304.382 303.368 304.121 303.007C303.862 302.646 303.716 302.227 303.682 301.75H304.773C304.801 302.08 304.912 302.352 305.105 302.568C305.301 302.781 305.548 302.94 305.847 303.045C306.148 303.148 306.472 303.199 306.818 303.199C307.222 303.199 307.584 303.134 307.905 303.003C308.226 302.869 308.48 302.685 308.668 302.449C308.855 302.21 308.949 301.932 308.949 301.614C308.949 301.324 308.868 301.088 308.706 300.906C308.544 300.724 308.331 300.577 308.067 300.463C307.803 300.349 307.517 300.25 307.21 300.165L306.136 299.858C305.455 299.662 304.915 299.382 304.517 299.018C304.119 298.655 303.92 298.179 303.92 297.591C303.92 297.102 304.053 296.676 304.317 296.312C304.584 295.946 304.942 295.662 305.391 295.46C305.842 295.256 306.347 295.153 306.903 295.153C307.466 295.153 307.966 295.254 308.403 295.456C308.841 295.655 309.188 295.928 309.443 296.274C309.702 296.621 309.838 297.014 309.852 297.455H308.83ZM311.573 306.455V297.455H312.544V298.494H312.664C312.738 298.381 312.84 298.236 312.971 298.06C313.104 297.881 313.294 297.722 313.542 297.582C313.792 297.44 314.13 297.369 314.556 297.369C315.107 297.369 315.593 297.507 316.013 297.783C316.434 298.058 316.762 298.449 316.998 298.955C317.233 299.46 317.351 300.057 317.351 300.744C317.351 301.438 317.233 302.038 316.998 302.547C316.762 303.053 316.435 303.445 316.017 303.723C315.6 303.999 315.118 304.136 314.573 304.136C314.152 304.136 313.816 304.067 313.563 303.928C313.31 303.786 313.115 303.625 312.979 303.446C312.843 303.264 312.738 303.114 312.664 302.994H312.578V306.455H311.573ZM312.561 300.727C312.561 301.222 312.634 301.658 312.779 302.036C312.924 302.411 313.135 302.705 313.414 302.918C313.692 303.128 314.033 303.233 314.436 303.233C314.857 303.233 315.208 303.122 315.489 302.901C315.773 302.676 315.986 302.375 316.128 301.997C316.273 301.616 316.346 301.193 316.346 300.727C316.346 300.267 316.275 299.852 316.132 299.483C315.993 299.111 315.782 298.817 315.498 298.601C315.216 298.382 314.863 298.273 314.436 298.273C314.027 298.273 313.684 298.376 313.405 298.584C313.127 298.788 312.917 299.075 312.775 299.445C312.632 299.811 312.561 300.239 312.561 300.727ZM320.811 304.153C320.397 304.153 320.02 304.075 319.682 303.919C319.344 303.76 319.076 303.531 318.877 303.233C318.678 302.932 318.578 302.568 318.578 302.142C318.578 301.767 318.652 301.463 318.8 301.23C318.948 300.994 319.145 300.81 319.392 300.676C319.64 300.543 319.912 300.443 320.211 300.378C320.512 300.31 320.814 300.256 321.118 300.216C321.516 300.165 321.838 300.126 322.086 300.101C322.336 300.072 322.517 300.026 322.631 299.96C322.748 299.895 322.806 299.781 322.806 299.619V299.585C322.806 299.165 322.691 298.838 322.461 298.605C322.233 298.372 321.888 298.256 321.425 298.256C320.945 298.256 320.569 298.361 320.296 298.571C320.023 298.781 319.831 299.006 319.721 299.244L318.766 298.903C318.936 298.506 319.164 298.196 319.448 297.974C319.735 297.75 320.047 297.594 320.385 297.506C320.726 297.415 321.061 297.369 321.391 297.369C321.601 297.369 321.843 297.395 322.115 297.446C322.391 297.494 322.657 297.595 322.912 297.749C323.171 297.902 323.385 298.134 323.556 298.443C323.726 298.753 323.811 299.168 323.811 299.688V304H322.806V303.114H322.755C322.686 303.256 322.573 303.408 322.414 303.57C322.255 303.732 322.043 303.869 321.779 303.983C321.515 304.097 321.192 304.153 320.811 304.153ZM320.965 303.25C321.363 303.25 321.698 303.172 321.971 303.016C322.246 302.859 322.453 302.658 322.593 302.411C322.735 302.163 322.806 301.903 322.806 301.631V300.71C322.763 300.761 322.669 300.808 322.525 300.851C322.382 300.891 322.218 300.926 322.03 300.957C321.846 300.986 321.665 301.011 321.489 301.034C321.316 301.054 321.175 301.071 321.067 301.085C320.806 301.119 320.561 301.175 320.334 301.251C320.11 301.325 319.928 301.437 319.789 301.588C319.652 301.736 319.584 301.937 319.584 302.193C319.584 302.543 319.713 302.807 319.972 302.986C320.233 303.162 320.564 303.25 320.965 303.25ZM326.653 300.062V304H325.647V297.455H326.619V298.477H326.704C326.857 298.145 327.09 297.878 327.403 297.676C327.715 297.472 328.119 297.369 328.613 297.369C329.056 297.369 329.444 297.46 329.776 297.642C330.109 297.821 330.367 298.094 330.552 298.46C330.737 298.824 330.829 299.284 330.829 299.841V304H329.823V299.909C329.823 299.395 329.69 298.994 329.423 298.707C329.156 298.418 328.789 298.273 328.323 298.273C328.002 298.273 327.715 298.342 327.462 298.482C327.212 298.621 327.015 298.824 326.87 299.091C326.725 299.358 326.653 299.682 326.653 300.062ZM339.792 299.168V300.105H335.973V299.168H339.792ZM347.817 304.119C347.459 304.114 347.101 304.045 346.743 303.915C346.385 303.784 346.058 303.564 345.763 303.254C345.467 302.942 345.23 302.52 345.051 301.989C344.872 301.455 344.783 300.784 344.783 299.977C344.783 299.205 344.855 298.52 345 297.923C345.145 297.324 345.355 296.82 345.631 296.411C345.906 295.999 346.239 295.686 346.628 295.473C347.02 295.26 347.462 295.153 347.953 295.153C348.442 295.153 348.876 295.251 349.257 295.447C349.641 295.641 349.953 295.911 350.195 296.257C350.436 296.604 350.592 297.003 350.663 297.455H349.624C349.527 297.062 349.339 296.737 349.061 296.479C348.783 296.22 348.413 296.091 347.953 296.091C347.277 296.091 346.744 296.385 346.355 296.973C345.969 297.561 345.774 298.386 345.771 299.449H345.839C345.999 299.207 346.188 299.001 346.406 298.831C346.628 298.658 346.872 298.524 347.139 298.43C347.406 298.337 347.689 298.29 347.987 298.29C348.487 298.29 348.945 298.415 349.359 298.665C349.774 298.912 350.107 299.254 350.357 299.692C350.607 300.126 350.732 300.625 350.732 301.188C350.732 301.727 350.611 302.222 350.369 302.67C350.128 303.116 349.788 303.472 349.351 303.736C348.916 303.997 348.405 304.125 347.817 304.119ZM347.817 303.182C348.175 303.182 348.496 303.092 348.78 302.913C349.067 302.734 349.293 302.494 349.457 302.193C349.625 301.892 349.709 301.557 349.709 301.188C349.709 300.827 349.628 300.499 349.466 300.203C349.307 299.905 349.087 299.668 348.805 299.491C348.527 299.315 348.209 299.227 347.851 299.227C347.581 299.227 347.33 299.281 347.097 299.389C346.864 299.494 346.659 299.639 346.483 299.824C346.31 300.009 346.173 300.22 346.074 300.459C345.974 300.695 345.925 300.943 345.925 301.205C345.925 301.551 346.006 301.875 346.168 302.176C346.332 302.477 346.557 302.72 346.841 302.905C347.128 303.089 347.453 303.182 347.817 303.182Z" fill="#333333"/>
<path d="M113.83 333.455C113.778 333.023 113.571 332.688 113.207 332.449C112.844 332.21 112.398 332.091 111.869 332.091C111.483 332.091 111.145 332.153 110.855 332.278C110.568 332.403 110.344 332.575 110.182 332.794C110.023 333.013 109.943 333.261 109.943 333.54C109.943 333.773 109.999 333.973 110.109 334.141C110.223 334.305 110.368 334.443 110.544 334.554C110.72 334.662 110.905 334.751 111.098 334.822C111.291 334.891 111.469 334.946 111.631 334.989L112.517 335.227C112.744 335.287 112.997 335.369 113.276 335.474C113.557 335.58 113.825 335.723 114.081 335.905C114.339 336.084 114.553 336.314 114.72 336.595C114.888 336.876 114.972 337.222 114.972 337.631C114.972 338.102 114.848 338.528 114.601 338.909C114.357 339.29 113.999 339.592 113.527 339.817C113.058 340.041 112.489 340.153 111.818 340.153C111.193 340.153 110.652 340.053 110.195 339.851C109.74 339.649 109.382 339.368 109.121 339.007C108.862 338.646 108.716 338.227 108.682 337.75H109.773C109.801 338.08 109.912 338.352 110.105 338.568C110.301 338.781 110.548 338.94 110.847 339.045C111.148 339.148 111.472 339.199 111.818 339.199C112.222 339.199 112.584 339.134 112.905 339.003C113.226 338.869 113.48 338.685 113.668 338.449C113.855 338.21 113.949 337.932 113.949 337.614C113.949 337.324 113.868 337.088 113.706 336.906C113.544 336.724 113.331 336.577 113.067 336.463C112.803 336.349 112.517 336.25 112.21 336.165L111.136 335.858C110.455 335.662 109.915 335.382 109.517 335.018C109.119 334.655 108.92 334.179 108.92 333.591C108.92 333.102 109.053 332.676 109.317 332.312C109.584 331.946 109.942 331.662 110.391 331.46C110.842 331.256 111.347 331.153 111.903 331.153C112.466 331.153 112.966 331.254 113.403 331.456C113.841 331.655 114.188 331.928 114.443 332.274C114.702 332.621 114.838 333.014 114.852 333.455H113.83ZM116.573 342.455V333.455H117.544V334.494H117.664C117.738 334.381 117.84 334.236 117.971 334.06C118.104 333.881 118.294 333.722 118.542 333.582C118.792 333.44 119.13 333.369 119.556 333.369C120.107 333.369 120.593 333.507 121.013 333.783C121.434 334.058 121.762 334.449 121.998 334.955C122.233 335.46 122.351 336.057 122.351 336.744C122.351 337.438 122.233 338.038 121.998 338.547C121.762 339.053 121.435 339.445 121.017 339.723C120.6 339.999 120.118 340.136 119.573 340.136C119.152 340.136 118.816 340.067 118.563 339.928C118.31 339.786 118.115 339.625 117.979 339.446C117.843 339.264 117.738 339.114 117.664 338.994H117.578V342.455H116.573ZM117.561 336.727C117.561 337.222 117.634 337.658 117.779 338.036C117.924 338.411 118.135 338.705 118.414 338.918C118.692 339.128 119.033 339.233 119.436 339.233C119.857 339.233 120.208 339.122 120.489 338.901C120.773 338.676 120.986 338.375 121.128 337.997C121.273 337.616 121.346 337.193 121.346 336.727C121.346 336.267 121.275 335.852 121.132 335.483C120.993 335.111 120.782 334.817 120.498 334.601C120.216 334.382 119.863 334.273 119.436 334.273C119.027 334.273 118.684 334.376 118.405 334.584C118.127 334.788 117.917 335.075 117.775 335.445C117.632 335.811 117.561 336.239 117.561 336.727ZM125.811 340.153C125.397 340.153 125.02 340.075 124.682 339.919C124.344 339.76 124.076 339.531 123.877 339.233C123.678 338.932 123.578 338.568 123.578 338.142C123.578 337.767 123.652 337.463 123.8 337.23C123.948 336.994 124.145 336.81 124.392 336.676C124.64 336.543 124.912 336.443 125.211 336.378C125.512 336.31 125.814 336.256 126.118 336.216C126.516 336.165 126.838 336.126 127.086 336.101C127.336 336.072 127.517 336.026 127.631 335.96C127.748 335.895 127.806 335.781 127.806 335.619V335.585C127.806 335.165 127.691 334.838 127.461 334.605C127.233 334.372 126.888 334.256 126.425 334.256C125.945 334.256 125.569 334.361 125.296 334.571C125.023 334.781 124.831 335.006 124.721 335.244L123.766 334.903C123.936 334.506 124.164 334.196 124.448 333.974C124.735 333.75 125.047 333.594 125.385 333.506C125.726 333.415 126.061 333.369 126.391 333.369C126.601 333.369 126.843 333.395 127.115 333.446C127.391 333.494 127.657 333.595 127.912 333.749C128.171 333.902 128.385 334.134 128.556 334.443C128.726 334.753 128.811 335.168 128.811 335.688V340H127.806V339.114H127.755C127.686 339.256 127.573 339.408 127.414 339.57C127.255 339.732 127.043 339.869 126.779 339.983C126.515 340.097 126.192 340.153 125.811 340.153ZM125.965 339.25C126.363 339.25 126.698 339.172 126.971 339.016C127.246 338.859 127.453 338.658 127.593 338.411C127.735 338.163 127.806 337.903 127.806 337.631V336.71C127.763 336.761 127.669 336.808 127.525 336.851C127.382 336.891 127.218 336.926 127.03 336.957C126.846 336.986 126.665 337.011 126.489 337.034C126.316 337.054 126.175 337.071 126.067 337.085C125.806 337.119 125.561 337.175 125.334 337.251C125.11 337.325 124.928 337.437 124.789 337.588C124.652 337.736 124.584 337.937 124.584 338.193C124.584 338.543 124.713 338.807 124.972 338.986C125.233 339.162 125.564 339.25 125.965 339.25ZM131.653 336.062V340H130.647V333.455H131.619V334.477H131.704C131.857 334.145 132.09 333.878 132.403 333.676C132.715 333.472 133.119 333.369 133.613 333.369C134.056 333.369 134.444 333.46 134.776 333.642C135.109 333.821 135.367 334.094 135.552 334.46C135.737 334.824 135.829 335.284 135.829 335.841V340H134.823V335.909C134.823 335.395 134.69 334.994 134.423 334.707C134.156 334.418 133.789 334.273 133.323 334.273C133.002 334.273 132.715 334.342 132.462 334.482C132.212 334.621 132.015 334.824 131.87 335.091C131.725 335.358 131.653 335.682 131.653 336.062ZM144.792 335.168V336.105H140.973V335.168H144.792ZM149.714 338.21V337.341L153.55 331.273H154.18V332.619H153.754L150.857 337.205V337.273H156.021V338.21H149.714ZM153.822 340V337.946V337.541V331.273H154.828V340H153.822Z" fill="#333333"/>
<path d="M308.83 333.455C308.778 333.023 308.571 332.688 308.207 332.449C307.844 332.21 307.398 332.091 306.869 332.091C306.483 332.091 306.145 332.153 305.855 332.278C305.568 332.403 305.344 332.575 305.182 332.794C305.023 333.013 304.943 333.261 304.943 333.54C304.943 333.773 304.999 333.973 305.109 334.141C305.223 334.305 305.368 334.443 305.544 334.554C305.72 334.662 305.905 334.751 306.098 334.822C306.291 334.891 306.469 334.946 306.631 334.989L307.517 335.227C307.744 335.287 307.997 335.369 308.276 335.474C308.557 335.58 308.825 335.723 309.081 335.905C309.339 336.084 309.553 336.314 309.72 336.595C309.888 336.876 309.972 337.222 309.972 337.631C309.972 338.102 309.848 338.528 309.601 338.909C309.357 339.29 308.999 339.592 308.527 339.817C308.058 340.041 307.489 340.153 306.818 340.153C306.193 340.153 305.652 340.053 305.195 339.851C304.74 339.649 304.382 339.368 304.121 339.007C303.862 338.646 303.716 338.227 303.682 337.75H304.773C304.801 338.08 304.912 338.352 305.105 338.568C305.301 338.781 305.548 338.94 305.847 339.045C306.148 339.148 306.472 339.199 306.818 339.199C307.222 339.199 307.584 339.134 307.905 339.003C308.226 338.869 308.48 338.685 308.668 338.449C308.855 338.21 308.949 337.932 308.949 337.614C308.949 337.324 308.868 337.088 308.706 336.906C308.544 336.724 308.331 336.577 308.067 336.463C307.803 336.349 307.517 336.25 307.21 336.165L306.136 335.858C305.455 335.662 304.915 335.382 304.517 335.018C304.119 334.655 303.92 334.179 303.92 333.591C303.92 333.102 304.053 332.676 304.317 332.312C304.584 331.946 304.942 331.662 305.391 331.46C305.842 331.256 306.347 331.153 306.903 331.153C307.466 331.153 307.966 331.254 308.403 331.456C308.841 331.655 309.188 331.928 309.443 332.274C309.702 332.621 309.838 333.014 309.852 333.455H308.83ZM311.573 342.455V333.455H312.544V334.494H312.664C312.738 334.381 312.84 334.236 312.971 334.06C313.104 333.881 313.294 333.722 313.542 333.582C313.792 333.44 314.13 333.369 314.556 333.369C315.107 333.369 315.593 333.507 316.013 333.783C316.434 334.058 316.762 334.449 316.998 334.955C317.233 335.46 317.351 336.057 317.351 336.744C317.351 337.438 317.233 338.038 316.998 338.547C316.762 339.053 316.435 339.445 316.017 339.723C315.6 339.999 315.118 340.136 314.573 340.136C314.152 340.136 313.816 340.067 313.563 339.928C313.31 339.786 313.115 339.625 312.979 339.446C312.843 339.264 312.738 339.114 312.664 338.994H312.578V342.455H311.573ZM312.561 336.727C312.561 337.222 312.634 337.658 312.779 338.036C312.924 338.411 313.135 338.705 313.414 338.918C313.692 339.128 314.033 339.233 314.436 339.233C314.857 339.233 315.208 339.122 315.489 338.901C315.773 338.676 315.986 338.375 316.128 337.997C316.273 337.616 316.346 337.193 316.346 336.727C316.346 336.267 316.275 335.852 316.132 335.483C315.993 335.111 315.782 334.817 315.498 334.601C315.216 334.382 314.863 334.273 314.436 334.273C314.027 334.273 313.684 334.376 313.405 334.584C313.127 334.788 312.917 335.075 312.775 335.445C312.632 335.811 312.561 336.239 312.561 336.727ZM320.811 340.153C320.397 340.153 320.02 340.075 319.682 339.919C319.344 339.76 319.076 339.531 318.877 339.233C318.678 338.932 318.578 338.568 318.578 338.142C318.578 337.767 318.652 337.463 318.8 337.23C318.948 336.994 319.145 336.81 319.392 336.676C319.64 336.543 319.912 336.443 320.211 336.378C320.512 336.31 320.814 336.256 321.118 336.216C321.516 336.165 321.838 336.126 322.086 336.101C322.336 336.072 322.517 336.026 322.631 335.96C322.748 335.895 322.806 335.781 322.806 335.619V335.585C322.806 335.165 322.691 334.838 322.461 334.605C322.233 334.372 321.888 334.256 321.425 334.256C320.945 334.256 320.569 334.361 320.296 334.571C320.023 334.781 319.831 335.006 319.721 335.244L318.766 334.903C318.936 334.506 319.164 334.196 319.448 333.974C319.735 333.75 320.047 333.594 320.385 333.506C320.726 333.415 321.061 333.369 321.391 333.369C321.601 333.369 321.843 333.395 322.115 333.446C322.391 333.494 322.657 333.595 322.912 333.749C323.171 333.902 323.385 334.134 323.556 334.443C323.726 334.753 323.811 335.168 323.811 335.688V340H322.806V339.114H322.755C322.686 339.256 322.573 339.408 322.414 339.57C322.255 339.732 322.043 339.869 321.779 339.983C321.515 340.097 321.192 340.153 320.811 340.153ZM320.965 339.25C321.363 339.25 321.698 339.172 321.971 339.016C322.246 338.859 322.453 338.658 322.593 338.411C322.735 338.163 322.806 337.903 322.806 337.631V336.71C322.763 336.761 322.669 336.808 322.525 336.851C322.382 336.891 322.218 336.926 322.03 336.957C321.846 336.986 321.665 337.011 321.489 337.034C321.316 337.054 321.175 337.071 321.067 337.085C320.806 337.119 320.561 337.175 320.334 337.251C320.11 337.325 319.928 337.437 319.789 337.588C319.652 337.736 319.584 337.937 319.584 338.193C319.584 338.543 319.713 338.807 319.972 338.986C320.233 339.162 320.564 339.25 320.965 339.25ZM326.653 336.062V340H325.647V333.455H326.619V334.477H326.704C326.857 334.145 327.09 333.878 327.403 333.676C327.715 333.472 328.119 333.369 328.613 333.369C329.056 333.369 329.444 333.46 329.776 333.642C330.109 333.821 330.367 334.094 330.552 334.46C330.737 334.824 330.829 335.284 330.829 335.841V340H329.823V335.909C329.823 335.395 329.69 334.994 329.423 334.707C329.156 334.418 328.789 334.273 328.323 334.273C328.002 334.273 327.715 334.342 327.462 334.482C327.212 334.621 327.015 334.824 326.87 335.091C326.725 335.358 326.653 335.682 326.653 336.062ZM339.792 335.168V336.105H335.973V335.168H339.792ZM344.714 338.21V337.341L348.55 331.273H349.18V332.619H348.754L345.857 337.205V337.273H351.021V338.21H344.714ZM348.822 340V337.946V337.541V331.273H349.828V340H348.822Z" fill="#333333"/>
<path d="M306.83 369.455C306.778 369.023 306.571 368.688 306.207 368.449C305.844 368.21 305.398 368.091 304.869 368.091C304.483 368.091 304.145 368.153 303.855 368.278C303.568 368.403 303.344 368.575 303.182 368.794C303.023 369.013 302.943 369.261 302.943 369.54C302.943 369.773 302.999 369.973 303.109 370.141C303.223 370.305 303.368 370.443 303.544 370.554C303.72 370.662 303.905 370.751 304.098 370.822C304.291 370.891 304.469 370.946 304.631 370.989L305.517 371.227C305.744 371.287 305.997 371.369 306.276 371.474C306.557 371.58 306.825 371.723 307.081 371.905C307.339 372.084 307.553 372.314 307.72 372.595C307.888 372.876 307.972 373.222 307.972 373.631C307.972 374.102 307.848 374.528 307.601 374.909C307.357 375.29 306.999 375.592 306.527 375.817C306.058 376.041 305.489 376.153 304.818 376.153C304.193 376.153 303.652 376.053 303.195 375.851C302.74 375.649 302.382 375.368 302.121 375.007C301.862 374.646 301.716 374.227 301.682 373.75H302.773C302.801 374.08 302.912 374.352 303.105 374.568C303.301 374.781 303.548 374.94 303.847 375.045C304.148 375.148 304.472 375.199 304.818 375.199C305.222 375.199 305.584 375.134 305.905 375.003C306.226 374.869 306.48 374.685 306.668 374.449C306.855 374.21 306.949 373.932 306.949 373.614C306.949 373.324 306.868 373.088 306.706 372.906C306.544 372.724 306.331 372.577 306.067 372.463C305.803 372.349 305.517 372.25 305.21 372.165L304.136 371.858C303.455 371.662 302.915 371.382 302.517 371.018C302.119 370.655 301.92 370.179 301.92 369.591C301.92 369.102 302.053 368.676 302.317 368.312C302.584 367.946 302.942 367.662 303.391 367.46C303.842 367.256 304.347 367.153 304.903 367.153C305.466 367.153 305.966 367.254 306.403 367.456C306.841 367.655 307.188 367.928 307.443 368.274C307.702 368.621 307.838 369.014 307.852 369.455H306.83ZM309.573 378.455V369.455H310.544V370.494H310.664C310.738 370.381 310.84 370.236 310.971 370.06C311.104 369.881 311.294 369.722 311.542 369.582C311.792 369.44 312.13 369.369 312.556 369.369C313.107 369.369 313.593 369.507 314.013 369.783C314.434 370.058 314.762 370.449 314.998 370.955C315.233 371.46 315.351 372.057 315.351 372.744C315.351 373.438 315.233 374.038 314.998 374.547C314.762 375.053 314.435 375.445 314.017 375.723C313.6 375.999 313.118 376.136 312.573 376.136C312.152 376.136 311.816 376.067 311.563 375.928C311.31 375.786 311.115 375.625 310.979 375.446C310.843 375.264 310.738 375.114 310.664 374.994H310.578V378.455H309.573ZM310.561 372.727C310.561 373.222 310.634 373.658 310.779 374.036C310.924 374.411 311.135 374.705 311.414 374.918C311.692 375.128 312.033 375.233 312.436 375.233C312.857 375.233 313.208 375.122 313.489 374.901C313.773 374.676 313.986 374.375 314.128 373.997C314.273 373.616 314.346 373.193 314.346 372.727C314.346 372.267 314.275 371.852 314.132 371.483C313.993 371.111 313.782 370.817 313.498 370.601C313.216 370.382 312.863 370.273 312.436 370.273C312.027 370.273 311.684 370.376 311.405 370.584C311.127 370.788 310.917 371.075 310.775 371.445C310.632 371.811 310.561 372.239 310.561 372.727ZM318.811 376.153C318.397 376.153 318.02 376.075 317.682 375.919C317.344 375.76 317.076 375.531 316.877 375.233C316.678 374.932 316.578 374.568 316.578 374.142C316.578 373.767 316.652 373.463 316.8 373.23C316.948 372.994 317.145 372.81 317.392 372.676C317.64 372.543 317.912 372.443 318.211 372.378C318.512 372.31 318.814 372.256 319.118 372.216C319.516 372.165 319.838 372.126 320.086 372.101C320.336 372.072 320.517 372.026 320.631 371.96C320.748 371.895 320.806 371.781 320.806 371.619V371.585C320.806 371.165 320.691 370.838 320.461 370.605C320.233 370.372 319.888 370.256 319.425 370.256C318.945 370.256 318.569 370.361 318.296 370.571C318.023 370.781 317.831 371.006 317.721 371.244L316.766 370.903C316.936 370.506 317.164 370.196 317.448 369.974C317.735 369.75 318.047 369.594 318.385 369.506C318.726 369.415 319.061 369.369 319.391 369.369C319.601 369.369 319.843 369.395 320.115 369.446C320.391 369.494 320.657 369.595 320.912 369.749C321.171 369.902 321.385 370.134 321.556 370.443C321.726 370.753 321.811 371.168 321.811 371.688V376H320.806V375.114H320.755C320.686 375.256 320.573 375.408 320.414 375.57C320.255 375.732 320.043 375.869 319.779 375.983C319.515 376.097 319.192 376.153 318.811 376.153ZM318.965 375.25C319.363 375.25 319.698 375.172 319.971 375.016C320.246 374.859 320.453 374.658 320.593 374.411C320.735 374.163 320.806 373.903 320.806 373.631V372.71C320.763 372.761 320.669 372.808 320.525 372.851C320.382 372.891 320.218 372.926 320.03 372.957C319.846 372.986 319.665 373.011 319.489 373.034C319.316 373.054 319.175 373.071 319.067 373.085C318.806 373.119 318.561 373.175 318.334 373.251C318.11 373.325 317.928 373.437 317.789 373.588C317.652 373.736 317.584 373.937 317.584 374.193C317.584 374.543 317.713 374.807 317.972 374.986C318.233 375.162 318.564 375.25 318.965 375.25ZM324.653 372.062V376H323.647V369.455H324.619V370.477H324.704C324.857 370.145 325.09 369.878 325.403 369.676C325.715 369.472 326.119 369.369 326.613 369.369C327.056 369.369 327.444 369.46 327.776 369.642C328.109 369.821 328.367 370.094 328.552 370.46C328.737 370.824 328.829 371.284 328.829 371.841V376H327.823V371.909C327.823 371.395 327.69 370.994 327.423 370.707C327.156 370.418 326.789 370.273 326.323 370.273C326.002 370.273 325.715 370.342 325.462 370.482C325.212 370.621 325.015 370.824 324.87 371.091C324.725 371.358 324.653 371.682 324.653 372.062ZM337.792 371.168V372.105H333.973V371.168H337.792ZM345.987 367.273V376H344.93V368.381H344.879L342.749 369.795V368.722L344.93 367.273H345.987ZM348.497 376V375.233L351.378 372.08C351.716 371.71 351.994 371.389 352.213 371.116C352.432 370.841 352.594 370.582 352.699 370.341C352.807 370.097 352.861 369.841 352.861 369.574C352.861 369.267 352.787 369.001 352.639 368.777C352.494 368.553 352.295 368.379 352.043 368.257C351.79 368.135 351.506 368.074 351.19 368.074C350.855 368.074 350.562 368.143 350.312 368.283C350.065 368.419 349.874 368.611 349.737 368.858C349.604 369.105 349.537 369.395 349.537 369.727H348.531C348.531 369.216 348.649 368.767 348.885 368.381C349.121 367.994 349.442 367.693 349.848 367.477C350.257 367.261 350.716 367.153 351.224 367.153C351.736 367.153 352.189 367.261 352.584 367.477C352.979 367.693 353.288 367.984 353.513 368.351C353.737 368.717 353.849 369.125 353.849 369.574C353.849 369.895 353.791 370.209 353.675 370.516C353.561 370.82 353.362 371.159 353.078 371.534C352.797 371.906 352.406 372.361 351.906 372.898L349.946 374.994V375.062H354.003V376H348.497Z" fill="#333333"/>
<path d="M497.83 333.455C497.778 333.023 497.571 332.688 497.207 332.449C496.844 332.21 496.398 332.091 495.869 332.091C495.483 332.091 495.145 332.153 494.855 332.278C494.568 332.403 494.344 332.575 494.182 332.794C494.023 333.013 493.943 333.261 493.943 333.54C493.943 333.773 493.999 333.973 494.109 334.141C494.223 334.305 494.368 334.443 494.544 334.554C494.72 334.662 494.905 334.751 495.098 334.822C495.291 334.891 495.469 334.946 495.631 334.989L496.517 335.227C496.744 335.287 496.997 335.369 497.276 335.474C497.557 335.58 497.825 335.723 498.081 335.905C498.339 336.084 498.553 336.314 498.72 336.595C498.888 336.876 498.972 337.222 498.972 337.631C498.972 338.102 498.848 338.528 498.601 338.909C498.357 339.29 497.999 339.592 497.527 339.817C497.058 340.041 496.489 340.153 495.818 340.153C495.193 340.153 494.652 340.053 494.195 339.851C493.74 339.649 493.382 339.368 493.121 339.007C492.862 338.646 492.716 338.227 492.682 337.75H493.773C493.801 338.08 493.912 338.352 494.105 338.568C494.301 338.781 494.548 338.94 494.847 339.045C495.148 339.148 495.472 339.199 495.818 339.199C496.222 339.199 496.584 339.134 496.905 339.003C497.226 338.869 497.48 338.685 497.668 338.449C497.855 338.21 497.949 337.932 497.949 337.614C497.949 337.324 497.868 337.088 497.706 336.906C497.544 336.724 497.331 336.577 497.067 336.463C496.803 336.349 496.517 336.25 496.21 336.165L495.136 335.858C494.455 335.662 493.915 335.382 493.517 335.018C493.119 334.655 492.92 334.179 492.92 333.591C492.92 333.102 493.053 332.676 493.317 332.312C493.584 331.946 493.942 331.662 494.391 331.46C494.842 331.256 495.347 331.153 495.903 331.153C496.466 331.153 496.966 331.254 497.403 331.456C497.841 331.655 498.188 331.928 498.443 332.274C498.702 332.621 498.838 333.014 498.852 333.455H497.83ZM500.573 342.455V333.455H501.544V334.494H501.664C501.738 334.381 501.84 334.236 501.971 334.06C502.104 333.881 502.294 333.722 502.542 333.582C502.792 333.44 503.13 333.369 503.556 333.369C504.107 333.369 504.593 333.507 505.013 333.783C505.434 334.058 505.762 334.449 505.998 334.955C506.233 335.46 506.351 336.057 506.351 336.744C506.351 337.438 506.233 338.038 505.998 338.547C505.762 339.053 505.435 339.445 505.017 339.723C504.6 339.999 504.118 340.136 503.573 340.136C503.152 340.136 502.816 340.067 502.563 339.928C502.31 339.786 502.115 339.625 501.979 339.446C501.843 339.264 501.738 339.114 501.664 338.994H501.578V342.455H500.573ZM501.561 336.727C501.561 337.222 501.634 337.658 501.779 338.036C501.924 338.411 502.135 338.705 502.414 338.918C502.692 339.128 503.033 339.233 503.436 339.233C503.857 339.233 504.208 339.122 504.489 338.901C504.773 338.676 504.986 338.375 505.128 337.997C505.273 337.616 505.346 337.193 505.346 336.727C505.346 336.267 505.275 335.852 505.132 335.483C504.993 335.111 504.782 334.817 504.498 334.601C504.216 334.382 503.863 334.273 503.436 334.273C503.027 334.273 502.684 334.376 502.405 334.584C502.127 334.788 501.917 335.075 501.775 335.445C501.632 335.811 501.561 336.239 501.561 336.727ZM509.811 340.153C509.397 340.153 509.02 340.075 508.682 339.919C508.344 339.76 508.076 339.531 507.877 339.233C507.678 338.932 507.578 338.568 507.578 338.142C507.578 337.767 507.652 337.463 507.8 337.23C507.948 336.994 508.145 336.81 508.392 336.676C508.64 336.543 508.912 336.443 509.211 336.378C509.512 336.31 509.814 336.256 510.118 336.216C510.516 336.165 510.838 336.126 511.086 336.101C511.336 336.072 511.517 336.026 511.631 335.96C511.748 335.895 511.806 335.781 511.806 335.619V335.585C511.806 335.165 511.691 334.838 511.461 334.605C511.233 334.372 510.888 334.256 510.425 334.256C509.945 334.256 509.569 334.361 509.296 334.571C509.023 334.781 508.831 335.006 508.721 335.244L507.766 334.903C507.936 334.506 508.164 334.196 508.448 333.974C508.735 333.75 509.047 333.594 509.385 333.506C509.726 333.415 510.061 333.369 510.391 333.369C510.601 333.369 510.843 333.395 511.115 333.446C511.391 333.494 511.657 333.595 511.912 333.749C512.171 333.902 512.385 334.134 512.556 334.443C512.726 334.753 512.811 335.168 512.811 335.688V340H511.806V339.114H511.755C511.686 339.256 511.573 339.408 511.414 339.57C511.255 339.732 511.043 339.869 510.779 339.983C510.515 340.097 510.192 340.153 509.811 340.153ZM509.965 339.25C510.363 339.25 510.698 339.172 510.971 339.016C511.246 338.859 511.453 338.658 511.593 338.411C511.735 338.163 511.806 337.903 511.806 337.631V336.71C511.763 336.761 511.669 336.808 511.525 336.851C511.382 336.891 511.218 336.926 511.03 336.957C510.846 336.986 510.665 337.011 510.489 337.034C510.316 337.054 510.175 337.071 510.067 337.085C509.806 337.119 509.561 337.175 509.334 337.251C509.11 337.325 508.928 337.437 508.789 337.588C508.652 337.736 508.584 337.937 508.584 338.193C508.584 338.543 508.713 338.807 508.972 338.986C509.233 339.162 509.564 339.25 509.965 339.25ZM515.653 336.062V340H514.647V333.455H515.619V334.477H515.704C515.857 334.145 516.09 333.878 516.403 333.676C516.715 333.472 517.119 333.369 517.613 333.369C518.056 333.369 518.444 333.46 518.776 333.642C519.109 333.821 519.367 334.094 519.552 334.46C519.737 334.824 519.829 335.284 519.829 335.841V340H518.823V335.909C518.823 335.395 518.69 334.994 518.423 334.707C518.156 334.418 517.789 334.273 517.323 334.273C517.002 334.273 516.715 334.342 516.462 334.482C516.212 334.621 516.015 334.824 515.87 335.091C515.725 335.358 515.653 335.682 515.653 336.062ZM528.792 335.168V336.105H524.973V335.168H528.792ZM533.714 338.21V337.341L537.55 331.273H538.18V332.619H537.754L534.857 337.205V337.273H540.021V338.21H533.714ZM537.822 340V337.946V337.541V331.273H538.828V340H537.822Z" fill="#333333"/>
<g clip-path="url(#clip0_3307_21311)" filter="url(#filter0_d_3307_21311)">
<rect width="648" height="264" transform="translate(4 2)" fill="#FF0000" fill-opacity="0.1"/>
<rect width="40" height="264" transform="translate(4 2)" fill="white"/>
<rect opacity="0.1" x="4" y="2" width="40" height="264" fill="white"/>
<rect width="8" height="264" transform="translate(84 2)" fill="white"/>
<rect opacity="0.1" x="84" y="2" width="8" height="264" fill="white"/>
<rect width="8" height="264" transform="translate(132 2)" fill="white"/>
<rect opacity="0.1" x="132" y="2" width="8" height="264" fill="white"/>
<rect width="8" height="264" transform="translate(180 2)" fill="white"/>
<rect opacity="0.1" x="180" y="2" width="8" height="264" fill="white"/>
<rect width="8" height="264" transform="translate(228 2)" fill="white"/>
<rect opacity="0.1" x="228" y="2" width="8" height="264" fill="white"/>
<rect width="8" height="264" transform="translate(276 2)" fill="white"/>
<rect opacity="0.1" x="276" y="2" width="8" height="264" fill="white"/>
<rect width="8" height="264" transform="translate(324 2)" fill="white"/>
<rect opacity="0.1" x="324" y="2" width="8" height="264" fill="white"/>
<rect width="8" height="264" transform="translate(372 2)" fill="white"/>
<rect opacity="0.1" x="372" y="2" width="8" height="264" fill="white"/>
<rect width="8" height="264" transform="translate(420 2)" fill="white"/>
<rect opacity="0.1" x="420" y="2" width="8" height="264" fill="white"/>
<rect width="8" height="264" transform="translate(468 2)" fill="white"/>
<rect opacity="0.1" x="468" y="2" width="8" height="264" fill="white"/>
<rect width="8" height="264" transform="translate(516 2)" fill="white"/>
<rect opacity="0.1" x="516" y="2" width="8" height="264" fill="white"/>
<rect width="8" height="264" transform="translate(564 2)" fill="white"/>
<rect opacity="0.1" x="564" y="2" width="8" height="264" fill="white"/>
<rect width="40" height="264" transform="translate(612 2)" fill="white"/>
<rect opacity="0.1" x="612" y="2" width="40" height="264" fill="white"/>
</g>
<path opacity="0.3" d="M188 184H468V266H188V184Z" fill="#4D5359"/>
<g opacity="0.7">
<path opacity="0.3" d="M44 47H180V141H44V47Z" fill="#6F7880"/>
</g>
<g opacity="0.7">
<path opacity="0.3" d="M44 2H228V34H44V2Z" fill="#919599"/>
</g>
<g opacity="0.7">
<path opacity="0.3" d="M236 2H420V34H236V2Z" fill="#919599"/>
</g>
<g opacity="0.7">
<path opacity="0.3" d="M428 2H612V34H428V2Z" fill="#919599"/>
</g>
<g opacity="0.7">
<path opacity="0.3" d="M188 47H324V141H188V47Z" fill="#6F7880"/>
</g>
<g opacity="0.7">
<path opacity="0.3" d="M332 47H468V141H332V47Z" fill="#6F7880"/>
</g>
<g opacity="0.7">
<path opacity="0.3" d="M476 47H612V141H476V47Z" fill="#6F7880"/>
</g>
<path d="M46 186H123C124.105 186 125 186.895 125 188V196C125 197.105 124.105 198 123 198H46V186Z" fill="#6F7880" fill-opacity="0.4"/>
<path d="M44 149H161C161.552 149 162 149.448 162 150V154C162 154.552 161.552 155 161 155H44V149Z" fill="black" fill-opacity="0.1"/>
<path d="M188 149H305C305.552 149 306 149.448 306 150V154C306 154.552 305.552 155 305 155H188V149Z" fill="black" fill-opacity="0.1"/>
<path d="M332 149H449C449.552 149 450 149.448 450 150V154C450 154.552 449.552 155 449 155H332V149Z" fill="black" fill-opacity="0.1"/>
<path d="M476 149H593C593.552 149 594 149.448 594 150V154C594 154.552 593.552 155 593 155H476V149Z" fill="black" fill-opacity="0.1"/>
<path d="M46 207H167C167.552 207 168 207.448 168 208V212C168 212.552 167.552 213 167 213H46V207Z" fill="black" fill-opacity="0.1"/>
<path d="M44 161H144C144.552 161 145 161.448 145 162V166C145 166.552 144.552 167 144 167H44V161Z" fill="black" fill-opacity="0.1"/>
<path d="M188 161H288C288.552 161 289 161.448 289 162V166C289 166.552 288.552 167 288 167H188V161Z" fill="black" fill-opacity="0.1"/>
<path d="M332 161H432C432.552 161 433 161.448 433 162V166C433 166.552 432.552 167 432 167H332V161Z" fill="black" fill-opacity="0.1"/>
<path d="M476 161H576C576.552 161 577 161.448 577 162V166C577 166.552 576.552 167 576 167H476V161Z" fill="black" fill-opacity="0.1"/>
<path d="M46 217H137C137.552 217 138 217.448 138 218V222C138 222.552 137.552 223 137 223H46V217Z" fill="black" fill-opacity="0.1"/>
<path d="M484 186H575C575.552 186 576 186.448 576 187V191C576 191.552 575.552 192 575 192H484V186Z" fill="black" fill-opacity="0.1"/>
<path d="M484 202H575C575.552 202 576 202.448 576 203V207C576 207.552 575.552 208 575 208H484V202Z" fill="black" fill-opacity="0.1"/>
<path d="M484 218H575C575.552 218 576 218.448 576 219V223C576 223.552 575.552 224 575 224H484V218Z" fill="black" fill-opacity="0.1"/>
<path d="M484 234H575C575.552 234 576 234.448 576 235V239C576 239.552 575.552 240 575 240H484V234Z" fill="black" fill-opacity="0.1"/>
<path d="M46 227H149C149.552 227 150 227.448 150 228V232C150 232.552 149.552 233 149 233H46V227Z" fill="black" fill-opacity="0.1"/>
<rect opacity="0.6" x="44.5" y="183.5" width="135" height="82" stroke="#3A7DFF" stroke-dasharray="2 2"/>
<defs>
<filter id="filter0_d_3307_21311" x="0" y="0" width="656" height="272" filterUnits="userSpaceOnUse" color-interpolation-filters="sRGB">
<feFlood flood-opacity="0" result="BackgroundImageFix"/>
<feColorMatrix in="SourceAlpha" type="matrix" values="0 0 0 0 0 0 0 0 0 0 0 0 0 0 0 0 0 0 127 0" result="hardAlpha"/>
<feOffset dy="2"/>
<feGaussianBlur stdDeviation="2"/>
<feComposite in2="hardAlpha" operator="out"/>
<feColorMatrix type="matrix" values="0 0 0 0 0.435294 0 0 0 0 0.470588 0 0 0 0 0.501961 0 0 0 0.3 0"/>
<feBlend mode="normal" in2="BackgroundImageFix" result="effect1_dropShadow_3307_21311"/>
<feBlend mode="normal" in="SourceGraphic" in2="effect1_dropShadow_3307_21311" result="shape"/>
</filter>
<clipPath id="clip0_3307_21311">
<rect width="648" height="264" fill="white" transform="translate(4 2)"/>
</clipPath>
</defs>
</svg>
