<svg width="656" height="316" viewBox="0 0 656 316" fill="none" xmlns="http://www.w3.org/2000/svg">
<line x1="44.5" y1="278" x2="44.5" y2="290" stroke="#3A7DFF"/>
<line x1="611" y1="283.5" x2="44" y2="283.5" stroke="#3A7DFF"/>
<line x1="611.5" y1="278" x2="611.5" y2="290" stroke="#3A7DFF"/>
<path d="M271.233 311V300.818H277.338V301.912H272.466V305.352H276.881V306.446H272.466V311H271.233ZM279.291 311V303.364H280.464V311H279.291ZM279.887 302.091C279.659 302.091 279.461 302.013 279.296 301.857C279.133 301.701 279.052 301.514 279.052 301.295C279.052 301.077 279.133 300.889 279.296 300.734C279.461 300.578 279.659 300.5 279.887 300.5C280.116 300.5 280.311 300.578 280.474 300.734C280.64 300.889 280.722 301.077 280.722 301.295C280.722 301.514 280.64 301.701 280.474 301.857C280.311 302.013 280.116 302.091 279.887 302.091ZM283.488 303.364L285.317 306.486L287.147 303.364H288.499L286.033 307.182L288.499 311H287.147L285.317 308.037L283.488 311H282.136L284.562 307.182L282.136 303.364H283.488ZM293.061 311.159C292.325 311.159 291.69 310.997 291.157 310.672C290.626 310.344 290.217 309.886 289.929 309.3C289.644 308.71 289.501 308.024 289.501 307.241C289.501 306.459 289.644 305.77 289.929 305.173C290.217 304.573 290.618 304.106 291.132 303.771C291.649 303.433 292.252 303.264 292.941 303.264C293.339 303.264 293.732 303.33 294.12 303.463C294.507 303.596 294.86 303.811 295.179 304.109C295.497 304.404 295.75 304.795 295.939 305.283C296.128 305.77 296.223 306.37 296.223 307.082V307.58H290.336V306.565H295.029C295.029 306.134 294.943 305.75 294.771 305.412C294.602 305.074 294.36 304.807 294.045 304.612C293.734 304.416 293.366 304.318 292.941 304.318C292.474 304.318 292.07 304.434 291.728 304.666C291.39 304.895 291.13 305.193 290.948 305.561C290.766 305.929 290.674 306.323 290.674 306.744V307.42C290.674 307.997 290.774 308.486 290.973 308.887C291.175 309.285 291.455 309.588 291.813 309.797C292.171 310.002 292.587 310.105 293.061 310.105C293.369 310.105 293.647 310.062 293.896 309.976C294.148 309.886 294.365 309.754 294.547 309.578C294.73 309.399 294.87 309.177 294.97 308.912L296.103 309.23C295.984 309.615 295.783 309.953 295.502 310.244C295.22 310.533 294.872 310.758 294.458 310.92C294.043 311.08 293.578 311.159 293.061 311.159ZM300.891 311.159C300.255 311.159 299.693 310.998 299.206 310.677C298.718 310.352 298.337 309.895 298.062 309.305C297.787 308.711 297.65 308.01 297.65 307.202C297.65 306.4 297.787 305.704 298.062 305.114C298.337 304.524 298.72 304.068 299.211 303.746C299.701 303.425 300.268 303.264 300.911 303.264C301.408 303.264 301.801 303.347 302.089 303.513C302.381 303.675 302.603 303.861 302.755 304.07C302.911 304.275 303.032 304.444 303.118 304.577H303.218V300.818H304.391V311H303.257V309.827H303.118C303.032 309.966 302.909 310.142 302.75 310.354C302.591 310.562 302.364 310.75 302.069 310.915C301.774 311.078 301.382 311.159 300.891 311.159ZM301.05 310.105C301.521 310.105 301.918 309.982 302.243 309.737C302.568 309.489 302.815 309.146 302.984 308.708C303.153 308.267 303.238 307.759 303.238 307.182C303.238 306.612 303.155 306.113 302.989 305.685C302.823 305.254 302.578 304.92 302.253 304.681C301.928 304.439 301.527 304.318 301.05 304.318C300.553 304.318 300.139 304.446 299.807 304.701C299.479 304.953 299.232 305.296 299.066 305.73C298.904 306.161 298.823 306.645 298.823 307.182C298.823 307.725 298.906 308.219 299.071 308.663C299.24 309.104 299.489 309.455 299.817 309.717C300.149 309.976 300.56 310.105 301.05 310.105ZM311.078 306.088V307.182H306.623V306.088H311.078ZM314.872 311L312.546 303.364H313.779L315.429 309.21H315.509L317.139 303.364H318.392L320.003 309.19H320.083L321.733 303.364H322.966L320.639 311H319.486L317.816 305.134H317.696L316.026 311H314.872ZM324.517 311V303.364H325.691V311H324.517ZM325.114 302.091C324.885 302.091 324.688 302.013 324.522 301.857C324.36 301.701 324.279 301.514 324.279 301.295C324.279 301.077 324.36 300.889 324.522 300.734C324.688 300.578 324.885 300.5 325.114 300.5C325.343 300.5 325.538 300.578 325.7 300.734C325.866 300.889 325.949 301.077 325.949 301.295C325.949 301.514 325.866 301.701 325.7 301.857C325.538 302.013 325.343 302.091 325.114 302.091ZM330.723 311.159C330.087 311.159 329.525 310.998 329.038 310.677C328.55 310.352 328.169 309.895 327.894 309.305C327.619 308.711 327.482 308.01 327.482 307.202C327.482 306.4 327.619 305.704 327.894 305.114C328.169 304.524 328.552 304.068 329.043 303.746C329.533 303.425 330.1 303.264 330.743 303.264C331.24 303.264 331.633 303.347 331.921 303.513C332.213 303.675 332.435 303.861 332.587 304.07C332.743 304.275 332.864 304.444 332.95 304.577H333.05V300.818H334.223V311H333.089V309.827H332.95C332.864 309.966 332.741 310.142 332.582 310.354C332.423 310.562 332.196 310.75 331.901 310.915C331.606 311.078 331.214 311.159 330.723 311.159ZM330.882 310.105C331.353 310.105 331.75 309.982 332.075 309.737C332.4 309.489 332.647 309.146 332.816 308.708C332.985 308.267 333.07 307.759 333.07 307.182C333.07 306.612 332.987 306.113 332.821 305.685C332.655 305.254 332.41 304.92 332.085 304.681C331.76 304.439 331.359 304.318 330.882 304.318C330.385 304.318 329.971 304.446 329.639 304.701C329.311 304.953 329.064 305.296 328.898 305.73C328.736 306.161 328.655 306.645 328.655 307.182C328.655 307.725 328.738 308.219 328.903 308.663C329.072 309.104 329.321 309.455 329.649 309.717C329.981 309.976 330.392 310.105 330.882 310.105ZM339.856 303.364V304.358H335.898V303.364H339.856ZM337.052 301.534H338.225V308.812C338.225 309.144 338.273 309.393 338.369 309.558C338.469 309.721 338.595 309.83 338.747 309.886C338.903 309.939 339.067 309.966 339.239 309.966C339.369 309.966 339.475 309.959 339.558 309.946C339.64 309.929 339.707 309.916 339.756 309.906L339.995 310.96C339.915 310.99 339.804 311.02 339.662 311.05C339.519 311.083 339.339 311.099 339.12 311.099C338.789 311.099 338.464 311.028 338.146 310.886C337.831 310.743 337.569 310.526 337.36 310.234C337.155 309.943 337.052 309.575 337.052 309.131V301.534ZM342.958 306.406V311H341.785V300.818H342.958V304.557H343.058C343.237 304.162 343.505 303.849 343.863 303.617C344.224 303.382 344.705 303.264 345.305 303.264C345.825 303.264 346.281 303.369 346.672 303.577C347.063 303.783 347.366 304.099 347.582 304.527C347.8 304.951 347.91 305.491 347.91 306.148V311H346.737V306.227C346.737 305.621 346.579 305.152 346.264 304.82C345.953 304.486 345.52 304.318 344.967 304.318C344.582 304.318 344.237 304.399 343.933 304.562C343.631 304.724 343.392 304.961 343.217 305.273C343.044 305.584 342.958 305.962 342.958 306.406ZM359.86 312.193C358.846 312.193 357.95 312.054 357.171 311.776C356.392 311.5 355.737 311.094 355.207 310.558C354.677 310.021 354.276 309.363 354.004 308.584C353.732 307.805 353.596 306.913 353.596 305.909C353.596 304.938 353.734 304.07 354.009 303.304C354.287 302.538 354.69 301.889 355.217 301.355C355.747 300.818 356.39 300.409 357.146 300.127C357.905 299.845 358.763 299.705 359.721 299.705C360.652 299.705 361.468 299.857 362.167 300.162C362.87 300.464 363.456 300.873 363.927 301.39C364.401 301.904 364.756 302.482 364.991 303.125C365.23 303.768 365.349 304.431 365.349 305.114C365.349 305.594 365.326 306.081 365.279 306.575C365.233 307.069 365.135 307.523 364.986 307.938C364.837 308.348 364.606 308.68 364.295 308.932C363.987 309.184 363.569 309.31 363.042 309.31C362.81 309.31 362.555 309.273 362.276 309.2C361.998 309.127 361.751 309.006 361.536 308.837C361.32 308.668 361.193 308.441 361.153 308.156H361.093C361.014 308.348 360.891 308.531 360.725 308.703C360.563 308.875 360.349 309.013 360.084 309.116C359.822 309.219 359.502 309.263 359.124 309.25C358.694 309.233 358.314 309.137 357.986 308.962C357.658 308.783 357.383 308.541 357.161 308.236C356.942 307.928 356.776 307.571 356.664 307.167C356.554 306.759 356.499 306.32 356.499 305.849C356.499 305.402 356.566 304.993 356.698 304.621C356.831 304.25 357.015 303.925 357.25 303.647C357.489 303.369 357.767 303.147 358.085 302.981C358.407 302.812 358.753 302.707 359.124 302.668C359.456 302.634 359.758 302.649 360.029 302.712C360.301 302.772 360.525 302.863 360.7 302.986C360.876 303.105 360.987 303.238 361.034 303.384H361.093V302.827H362.147V307.321C362.147 307.599 362.225 307.845 362.381 308.057C362.537 308.269 362.764 308.375 363.062 308.375C363.4 308.375 363.659 308.259 363.838 308.027C364.02 307.795 364.144 307.437 364.21 306.953C364.28 306.469 364.315 305.849 364.315 305.094C364.315 304.65 364.253 304.212 364.131 303.781C364.012 303.347 363.829 302.941 363.584 302.563C363.342 302.185 363.035 301.852 362.664 301.564C362.293 301.276 361.857 301.05 361.357 300.888C360.86 300.722 360.294 300.639 359.661 300.639C358.883 300.639 358.185 300.76 357.568 301.002C356.955 301.241 356.433 301.59 356.002 302.051C355.575 302.509 355.248 303.065 355.023 303.722C354.801 304.375 354.69 305.117 354.69 305.949C354.69 306.794 354.801 307.545 355.023 308.201C355.248 308.857 355.58 309.411 356.017 309.862C356.458 310.312 357.003 310.655 357.653 310.891C358.302 311.123 359.052 311.239 359.9 311.239C360.265 311.239 360.624 311.204 360.979 311.134C361.334 311.065 361.647 310.988 361.919 310.906C362.19 310.823 362.386 310.761 362.505 310.722L362.784 311.636C362.578 311.723 362.31 311.809 361.978 311.895C361.65 311.981 361.299 312.052 360.924 312.109C360.553 312.165 360.198 312.193 359.86 312.193ZM359.284 308.236C359.728 308.236 360.087 308.146 360.362 307.967C360.637 307.788 360.838 307.518 360.964 307.157C361.09 306.796 361.153 306.34 361.153 305.79C361.153 305.233 361.083 304.799 360.944 304.487C360.805 304.176 360.599 303.957 360.328 303.831C360.056 303.705 359.721 303.642 359.323 303.642C358.945 303.642 358.622 303.741 358.354 303.94C358.089 304.136 357.885 304.398 357.742 304.726C357.603 305.051 357.534 305.405 357.534 305.79C357.534 306.214 357.59 306.613 357.703 306.988C357.815 307.359 357.999 307.661 358.254 307.893C358.51 308.121 358.853 308.236 359.284 308.236ZM371.798 300.818L374.423 305.054H374.503L377.128 300.818H378.58L375.378 305.909L378.58 311H377.128L374.503 306.844H374.423L371.798 311H370.347L373.628 305.909L370.347 300.818H371.798ZM380.184 311V300.818H381.417V309.906H386.15V311H380.184Z" fill="#333333"/>
<g filter="url(#filter0_d_5609_1500)">
<g clip-path="url(#clip0_5609_1500)">
<rect width="648" height="264" transform="translate(4 2)" fill="#FF0000" fill-opacity="0.1"/>
<rect width="40" height="264" transform="translate(4 2)" fill="white"/>
<rect opacity="0.1" x="4" y="2" width="40" height="264" fill="white"/>
<rect width="8" height="264" transform="translate(84 2)" fill="white"/>
<rect opacity="0.1" x="84" y="2" width="8" height="264" fill="white"/>
<rect width="8" height="264" transform="translate(132 2)" fill="white"/>
<rect opacity="0.1" x="132" y="2" width="8" height="264" fill="white"/>
<rect width="8" height="264" transform="translate(180 2)" fill="white"/>
<rect opacity="0.1" x="180" y="2" width="8" height="264" fill="white"/>
<rect width="8" height="264" transform="translate(228 2)" fill="white"/>
<rect opacity="0.1" x="228" y="2" width="8" height="264" fill="white"/>
<rect width="8" height="264" transform="translate(276 2)" fill="white"/>
<rect opacity="0.1" x="276" y="2" width="8" height="264" fill="white"/>
<rect width="8" height="264" transform="translate(324 2)" fill="white"/>
<rect opacity="0.1" x="324" y="2" width="8" height="264" fill="white"/>
<rect width="8" height="264" transform="translate(372 2)" fill="white"/>
<rect opacity="0.1" x="372" y="2" width="8" height="264" fill="white"/>
<rect width="8" height="264" transform="translate(420 2)" fill="white"/>
<rect opacity="0.1" x="420" y="2" width="8" height="264" fill="white"/>
<rect width="8" height="264" transform="translate(468 2)" fill="white"/>
<rect opacity="0.1" x="468" y="2" width="8" height="264" fill="white"/>
<rect width="8" height="264" transform="translate(516 2)" fill="white"/>
<rect opacity="0.1" x="516" y="2" width="8" height="264" fill="white"/>
<rect width="8" height="264" transform="translate(564 2)" fill="white"/>
<rect opacity="0.1" x="564" y="2" width="8" height="264" fill="white"/>
<rect width="40" height="264" transform="translate(612 2)" fill="white"/>
<rect opacity="0.1" x="612" y="2" width="40" height="264" fill="white"/>
</g>
<path opacity="0.3" d="M4 2H652V46H4V2Z" fill="#D4D9DF"/>
<path opacity="0.3" d="M188 162H468V266H188V162Z" fill="#6F7880"/>
<path d="M188 74H275C275.552 74 276 74.4477 276 75V79C276 79.5523 275.552 80 275 80H188V74Z" fill="black" fill-opacity="0.1"/>
<path d="M188 88H412C413.105 88 414 88.8954 414 90V98C414 99.1046 413.105 100 412 100H188V88Z" fill="#6F7880"/>
<path d="M188 104H418C419.105 104 420 104.895 420 106V114C420 115.105 419.105 116 418 116H188V104Z" fill="#6F7880"/>
<path d="M188 124H351C351.552 124 352 124.448 352 125V129C352 129.552 351.552 130 351 130H188V124Z" fill="black" fill-opacity="0.1"/>
<path d="M188 136H327C327.552 136 328 136.448 328 137V141C328 141.552 327.552 142 327 142H188V136Z" fill="black" fill-opacity="0.1"/>
</g>
<defs>
<filter id="filter0_d_5609_1500" x="0" y="0" width="656" height="272" filterUnits="userSpaceOnUse" color-interpolation-filters="sRGB">
<feFlood flood-opacity="0" result="BackgroundImageFix"/>
<feColorMatrix in="SourceAlpha" type="matrix" values="0 0 0 0 0 0 0 0 0 0 0 0 0 0 0 0 0 0 127 0" result="hardAlpha"/>
<feOffset dy="2"/>
<feGaussianBlur stdDeviation="2"/>
<feComposite in2="hardAlpha" operator="out"/>
<feColorMatrix type="matrix" values="0 0 0 0 0.435294 0 0 0 0 0.470588 0 0 0 0 0.501961 0 0 0 0.3 0"/>
<feBlend mode="normal" in2="BackgroundImageFix" result="effect1_dropShadow_5609_1500"/>
<feBlend mode="normal" in="SourceGraphic" in2="effect1_dropShadow_5609_1500" result="shape"/>
</filter>
<clipPath id="clip0_5609_1500">
<rect width="648" height="264" fill="white" transform="translate(4 2)"/>
</clipPath>
</defs>
</svg>
