<svg width="752" height="248" viewBox="0 0 752 248" fill="none" xmlns="http://www.w3.org/2000/svg">
<line x1="42.5" y1="212" x2="42.5" y2="224" stroke="#990F3D"/>
<line x1="320" y1="217.5" x2="42" y2="217.5" stroke="#990F3D"/>
<line x1="320.5" y1="212" x2="320.5" y2="224" stroke="#990F3D"/>
<path d="M141.597 243L143.287 232.818H149.392L149.213 233.912H144.341L143.764 237.352H148.179L148 238.446H143.585L142.83 243H141.597ZM149.654 243L150.927 235.364H152.1L150.828 243H149.654ZM151.872 234.071C151.643 234.071 151.446 233.993 151.28 233.837C151.118 233.682 151.036 233.494 151.036 233.276C151.036 233.057 151.118 232.87 151.28 232.714C151.446 232.558 151.643 232.48 151.872 232.48C152.1 232.48 152.296 232.558 152.458 232.714C152.624 232.87 152.707 233.057 152.707 233.276C152.707 233.494 152.624 233.682 152.458 233.837C152.296 233.993 152.1 234.071 151.872 234.071ZM155.124 235.364L156.437 238.486L158.783 235.364H160.136L157.033 239.182L158.863 243H157.511L156.178 240.037L153.852 243H152.499L155.562 239.182L153.772 235.364H155.124ZM163.404 243.159C162.672 243.159 162.067 242.997 161.59 242.672C161.113 242.344 160.779 241.886 160.591 241.3C160.402 240.71 160.372 240.024 160.501 239.241C160.63 238.459 160.887 237.77 161.272 237.173C161.656 236.573 162.135 236.106 162.708 235.771C163.282 235.433 163.912 235.264 164.598 235.264C164.995 235.264 165.378 235.33 165.746 235.463C166.114 235.596 166.432 235.811 166.701 236.109C166.969 236.404 167.156 236.795 167.262 237.283C167.368 237.77 167.362 238.37 167.243 239.082L167.163 239.58H161.277L161.436 238.565H166.129C166.205 238.134 166.185 237.75 166.069 237.412C165.957 237.074 165.759 236.807 165.478 236.612C165.199 236.416 164.846 236.318 164.419 236.318C163.978 236.318 163.567 236.437 163.186 236.676C162.805 236.911 162.486 237.21 162.231 237.571C161.976 237.929 161.817 238.294 161.754 238.665L161.615 239.54C161.515 240.173 161.53 240.677 161.659 241.051C161.792 241.426 162.022 241.696 162.35 241.862C162.679 242.024 163.09 242.105 163.583 242.105C163.898 242.105 164.188 242.062 164.453 241.976C164.719 241.886 164.956 241.754 165.164 241.578C165.373 241.399 165.549 241.177 165.691 240.912L166.765 241.23C166.583 241.615 166.326 241.953 165.995 242.244C165.667 242.533 165.282 242.758 164.841 242.92C164.404 243.08 163.925 243.159 163.404 243.159ZM171.272 243.159C170.632 243.159 170.095 242.998 169.661 242.677C169.227 242.352 168.92 241.895 168.741 241.305C168.566 240.711 168.544 240.01 168.677 239.202C168.813 238.4 169.066 237.704 169.438 237.114C169.812 236.524 170.271 236.068 170.815 235.746C171.358 235.425 171.951 235.264 172.594 235.264C173.092 235.264 173.471 235.347 173.733 235.513C173.998 235.675 174.19 235.861 174.31 236.07C174.429 236.275 174.52 236.444 174.583 236.577H174.683L175.309 232.818H176.482L174.792 243H173.658L173.857 241.827H173.718C173.609 241.966 173.456 242.142 173.261 242.354C173.065 242.562 172.807 242.75 172.485 242.915C172.167 243.078 171.763 243.159 171.272 243.159ZM171.56 242.105C172.031 242.105 172.452 241.982 172.823 241.737C173.198 241.489 173.509 241.146 173.758 240.708C174.006 240.267 174.179 239.759 174.275 239.182C174.371 238.612 174.368 238.113 174.265 237.685C174.162 237.254 173.965 236.92 173.673 236.681C173.382 236.439 172.996 236.318 172.515 236.318C172.021 236.318 171.592 236.446 171.227 236.701C170.863 236.953 170.566 237.296 170.337 237.73C170.109 238.161 169.95 238.645 169.86 239.182C169.771 239.725 169.769 240.219 169.855 240.663C169.941 241.104 170.124 241.455 170.402 241.717C170.684 241.976 171.07 242.105 171.56 242.105ZM182.284 238.088L182.105 239.182H177.651L177.83 238.088H182.284ZM185.263 243L184.209 235.364H185.442L186.118 241.21H186.198L188.803 235.364H190.056L190.692 241.19H190.772L193.397 235.364H194.63L191.03 243H189.877L189.181 237.134H189.062L186.417 243H185.263ZM194.908 243L196.181 235.364H197.354L196.081 243H194.908ZM197.126 234.071C196.897 234.071 196.7 233.993 196.534 233.837C196.372 233.682 196.29 233.494 196.29 233.276C196.29 233.057 196.372 232.87 196.534 232.714C196.7 232.558 196.897 232.48 197.126 232.48C197.354 232.48 197.55 232.558 197.712 232.714C197.878 232.87 197.961 233.057 197.961 233.276C197.961 233.494 197.878 233.682 197.712 233.837C197.55 233.993 197.354 234.071 197.126 234.071ZM201.104 243.159C200.464 243.159 199.927 242.998 199.493 242.677C199.059 242.352 198.752 241.895 198.574 241.305C198.398 240.711 198.376 240.01 198.509 239.202C198.645 238.4 198.898 237.704 199.27 237.114C199.644 236.524 200.103 236.068 200.647 235.746C201.19 235.425 201.783 235.264 202.426 235.264C202.924 235.264 203.303 235.347 203.565 235.513C203.83 235.675 204.022 235.861 204.142 236.07C204.261 236.275 204.352 236.444 204.415 236.577H204.515L205.141 232.818H206.314L204.624 243H203.49L203.689 241.827H203.55C203.441 241.966 203.288 242.142 203.093 242.354C202.897 242.562 202.639 242.75 202.317 242.915C201.999 243.078 201.595 243.159 201.104 243.159ZM201.392 242.105C201.863 242.105 202.284 241.982 202.655 241.737C203.03 241.489 203.341 241.146 203.59 240.708C203.838 240.267 204.011 239.759 204.107 239.182C204.203 238.612 204.2 238.113 204.097 237.685C203.994 237.254 203.797 236.92 203.505 236.681C203.214 236.439 202.828 236.318 202.347 236.318C201.853 236.318 201.424 236.446 201.059 236.701C200.695 236.953 200.398 237.296 200.169 237.73C199.941 238.161 199.782 238.645 199.692 239.182C199.603 239.725 199.601 240.219 199.687 240.663C199.773 241.104 199.956 241.455 200.234 241.717C200.516 241.976 200.902 242.105 201.392 242.105ZM211.52 235.364L211.36 236.358H207.403L207.562 235.364H211.52ZM209.014 233.534H210.187L208.974 240.812C208.921 241.144 208.929 241.393 208.999 241.558C209.072 241.721 209.181 241.83 209.327 241.886C209.476 241.939 209.637 241.966 209.809 241.966C209.939 241.966 210.045 241.959 210.127 241.946C210.21 241.929 210.277 241.916 210.326 241.906L210.406 242.96C210.316 242.99 210.195 243.02 210.043 243.05C209.894 243.083 209.71 243.099 209.491 243.099C209.16 243.099 208.848 243.028 208.556 242.886C208.265 242.743 208.041 242.526 207.885 242.234C207.73 241.943 207.688 241.575 207.761 241.131L209.014 233.534ZM214.105 238.406L213.349 243H212.176L213.866 232.818H215.039L214.423 236.557H214.522C214.761 236.159 215.079 235.844 215.477 235.612C215.878 235.38 216.382 235.264 216.988 235.264C217.505 235.264 217.941 235.369 218.296 235.577C218.654 235.783 218.906 236.099 219.051 236.527C219.201 236.951 219.222 237.491 219.116 238.148L218.301 243H217.127L217.923 238.227C218.022 237.621 217.941 237.152 217.679 236.82C217.421 236.486 217.018 236.318 216.471 236.318C216.087 236.318 215.729 236.399 215.397 236.562C215.069 236.724 214.791 236.961 214.562 237.273C214.337 237.584 214.184 237.962 214.105 238.406Z" fill="#333333"/>
<path d="M0 8C0 3.58173 3.58172 0 8 0H356C360.418 0 364 3.58172 364 8V192C364 196.418 360.418 200 356 200H8C3.58172 200 0 196.418 0 192V8Z" fill="#FF0000" fill-opacity="0.2"/>
<path d="M0 4C0 1.79086 1.79086 0 4 0H40V200H4C1.79086 200 0 198.209 0 196V4Z" fill="#F2F2F2"/>
<rect opacity="0.1" width="40" height="200" fill="white"/>
<rect width="4" height="200" transform="translate(60)" fill="white"/>
<rect opacity="0.1" x="60" width="4" height="200" fill="white"/>
<rect width="4" height="200" transform="translate(84)" fill="white"/>
<rect opacity="0.1" x="84" width="4" height="200" fill="white"/>
<rect width="4" height="200" transform="translate(108)" fill="white"/>
<rect opacity="0.1" x="108" width="4" height="200" fill="white"/>
<rect width="4" height="200" transform="translate(132)" fill="white"/>
<rect opacity="0.1" x="132" width="4" height="200" fill="white"/>
<rect width="4" height="200" transform="translate(156)" fill="white"/>
<rect opacity="0.1" x="156" width="4" height="200" fill="white"/>
<rect width="4" height="200" transform="translate(180)" fill="white"/>
<rect opacity="0.1" x="180" width="4" height="200" fill="white"/>
<rect width="4" height="200" transform="translate(204)" fill="white"/>
<rect opacity="0.1" x="204" width="4" height="200" fill="white"/>
<rect width="4" height="200" transform="translate(228)" fill="white"/>
<rect opacity="0.1" x="228" width="4" height="200" fill="white"/>
<rect width="4" height="200" transform="translate(252)" fill="white"/>
<rect opacity="0.1" x="252" width="4" height="200" fill="white"/>
<rect width="4" height="200" transform="translate(276)" fill="white"/>
<rect opacity="0.1" x="276" width="4" height="200" fill="white"/>
<rect width="4" height="200" transform="translate(300)" fill="white"/>
<rect opacity="0.1" x="300" width="4" height="200" fill="white"/>
<path d="M324 0H360C362.209 0 364 1.79086 364 4V196C364 198.209 362.209 200 360 200H324V0Z" fill="#F2F2F2"/>
<rect opacity="0.1" x="324" width="40" height="200" fill="white"/>
<line x1="430.5" y1="212" x2="430.5" y2="224" stroke="#990F3D"/>
<line x1="708" y1="217.5" x2="430" y2="217.5" stroke="#990F3D"/>
<line x1="708.5" y1="212" x2="708.5" y2="224" stroke="#990F3D"/>
<path d="M529.597 243L531.287 232.818H537.392L537.213 233.912H532.341L531.764 237.352H536.179L536 238.446H531.585L530.83 243H529.597ZM537.654 243L538.927 235.364H540.1L538.828 243H537.654ZM539.872 234.071C539.643 234.071 539.446 233.993 539.28 233.837C539.118 233.682 539.036 233.494 539.036 233.276C539.036 233.057 539.118 232.87 539.28 232.714C539.446 232.558 539.643 232.48 539.872 232.48C540.1 232.48 540.296 232.558 540.458 232.714C540.624 232.87 540.707 233.057 540.707 233.276C540.707 233.494 540.624 233.682 540.458 233.837C540.296 233.993 540.1 234.071 539.872 234.071ZM543.124 235.364L544.437 238.486L546.783 235.364H548.136L545.033 239.182L546.863 243H545.511L544.178 240.037L541.852 243H540.499L543.562 239.182L541.772 235.364H543.124ZM551.404 243.159C550.672 243.159 550.067 242.997 549.59 242.672C549.113 242.344 548.779 241.886 548.591 241.3C548.402 240.71 548.372 240.024 548.501 239.241C548.63 238.459 548.887 237.77 549.272 237.173C549.656 236.573 550.135 236.106 550.708 235.771C551.282 235.433 551.912 235.264 552.598 235.264C552.995 235.264 553.378 235.33 553.746 235.463C554.114 235.596 554.432 235.811 554.701 236.109C554.969 236.404 555.156 236.795 555.262 237.283C555.368 237.77 555.362 238.37 555.243 239.082L555.163 239.58H549.277L549.436 238.565H554.129C554.205 238.134 554.185 237.75 554.069 237.412C553.957 237.074 553.759 236.807 553.478 236.612C553.199 236.416 552.846 236.318 552.419 236.318C551.978 236.318 551.567 236.437 551.186 236.676C550.805 236.911 550.486 237.21 550.231 237.571C549.976 237.929 549.817 238.294 549.754 238.665L549.615 239.54C549.515 240.173 549.53 240.677 549.659 241.051C549.792 241.426 550.022 241.696 550.35 241.862C550.679 242.024 551.09 242.105 551.583 242.105C551.898 242.105 552.188 242.062 552.453 241.976C552.719 241.886 552.956 241.754 553.164 241.578C553.373 241.399 553.549 241.177 553.691 240.912L554.765 241.23C554.583 241.615 554.326 241.953 553.995 242.244C553.667 242.533 553.282 242.758 552.841 242.92C552.404 243.08 551.925 243.159 551.404 243.159ZM559.272 243.159C558.632 243.159 558.095 242.998 557.661 242.677C557.227 242.352 556.92 241.895 556.741 241.305C556.566 240.711 556.544 240.01 556.677 239.202C556.813 238.4 557.066 237.704 557.438 237.114C557.812 236.524 558.271 236.068 558.815 235.746C559.358 235.425 559.951 235.264 560.594 235.264C561.092 235.264 561.471 235.347 561.733 235.513C561.998 235.675 562.19 235.861 562.31 236.07C562.429 236.275 562.52 236.444 562.583 236.577H562.683L563.309 232.818H564.482L562.792 243H561.658L561.857 241.827H561.718C561.609 241.966 561.456 242.142 561.261 242.354C561.065 242.562 560.807 242.75 560.485 242.915C560.167 243.078 559.763 243.159 559.272 243.159ZM559.56 242.105C560.031 242.105 560.452 241.982 560.823 241.737C561.198 241.489 561.509 241.146 561.758 240.708C562.006 240.267 562.179 239.759 562.275 239.182C562.371 238.612 562.368 238.113 562.265 237.685C562.162 237.254 561.965 236.92 561.673 236.681C561.382 236.439 560.996 236.318 560.515 236.318C560.021 236.318 559.592 236.446 559.227 236.701C558.863 236.953 558.566 237.296 558.337 237.73C558.109 238.161 557.95 238.645 557.86 239.182C557.771 239.725 557.769 240.219 557.855 240.663C557.941 241.104 558.124 241.455 558.402 241.717C558.684 241.976 559.07 242.105 559.56 242.105ZM570.284 238.088L570.105 239.182H565.651L565.83 238.088H570.284ZM573.263 243L572.209 235.364H573.442L574.118 241.21H574.198L576.803 235.364H578.056L578.692 241.19H578.772L581.397 235.364H582.63L579.03 243H577.877L577.181 237.134H577.062L574.417 243H573.263ZM582.908 243L584.181 235.364H585.354L584.081 243H582.908ZM585.126 234.071C584.897 234.071 584.7 233.993 584.534 233.837C584.372 233.682 584.29 233.494 584.29 233.276C584.29 233.057 584.372 232.87 584.534 232.714C584.7 232.558 584.897 232.48 585.126 232.48C585.354 232.48 585.55 232.558 585.712 232.714C585.878 232.87 585.961 233.057 585.961 233.276C585.961 233.494 585.878 233.682 585.712 233.837C585.55 233.993 585.354 234.071 585.126 234.071ZM589.104 243.159C588.464 243.159 587.927 242.998 587.493 242.677C587.059 242.352 586.752 241.895 586.574 241.305C586.398 240.711 586.376 240.01 586.509 239.202C586.645 238.4 586.898 237.704 587.27 237.114C587.644 236.524 588.103 236.068 588.647 235.746C589.19 235.425 589.783 235.264 590.426 235.264C590.924 235.264 591.303 235.347 591.565 235.513C591.83 235.675 592.022 235.861 592.142 236.07C592.261 236.275 592.352 236.444 592.415 236.577H592.515L593.141 232.818H594.314L592.624 243H591.49L591.689 241.827H591.55C591.441 241.966 591.288 242.142 591.093 242.354C590.897 242.562 590.639 242.75 590.317 242.915C589.999 243.078 589.595 243.159 589.104 243.159ZM589.392 242.105C589.863 242.105 590.284 241.982 590.655 241.737C591.03 241.489 591.341 241.146 591.59 240.708C591.838 240.267 592.011 239.759 592.107 239.182C592.203 238.612 592.2 238.113 592.097 237.685C591.994 237.254 591.797 236.92 591.505 236.681C591.214 236.439 590.828 236.318 590.347 236.318C589.853 236.318 589.424 236.446 589.059 236.701C588.695 236.953 588.398 237.296 588.169 237.73C587.941 238.161 587.782 238.645 587.692 239.182C587.603 239.725 587.601 240.219 587.687 240.663C587.773 241.104 587.956 241.455 588.234 241.717C588.516 241.976 588.902 242.105 589.392 242.105ZM599.52 235.364L599.36 236.358H595.403L595.562 235.364H599.52ZM597.014 233.534H598.187L596.974 240.812C596.921 241.144 596.929 241.393 596.999 241.558C597.072 241.721 597.181 241.83 597.327 241.886C597.476 241.939 597.637 241.966 597.809 241.966C597.939 241.966 598.045 241.959 598.127 241.946C598.21 241.929 598.277 241.916 598.326 241.906L598.406 242.96C598.316 242.99 598.195 243.02 598.043 243.05C597.894 243.083 597.71 243.099 597.491 243.099C597.16 243.099 596.848 243.028 596.556 242.886C596.265 242.743 596.041 242.526 595.885 242.234C595.73 241.943 595.688 241.575 595.761 241.131L597.014 233.534ZM602.105 238.406L601.349 243H600.176L601.866 232.818H603.039L602.423 236.557H602.522C602.761 236.159 603.079 235.844 603.477 235.612C603.878 235.38 604.382 235.264 604.988 235.264C605.505 235.264 605.941 235.369 606.296 235.577C606.654 235.783 606.906 236.099 607.051 236.527C607.201 236.951 607.222 237.491 607.116 238.148L606.301 243H605.127L605.923 238.227C606.022 237.621 605.941 237.152 605.679 236.82C605.421 236.486 605.018 236.318 604.471 236.318C604.087 236.318 603.729 236.399 603.397 236.562C603.069 236.724 602.791 236.961 602.562 237.273C602.337 237.584 602.184 237.962 602.105 238.406Z" fill="#333333"/>
<path d="M388 8C388 3.58173 391.582 0 396 0H744C748.418 0 752 3.58172 752 8V192C752 196.418 748.418 200 744 200H396C391.582 200 388 196.418 388 192V8Z" fill="#FF0000" fill-opacity="0.2"/>
<path d="M388 4C388 1.79086 389.791 0 392 0H428V200H392C389.791 200 388 198.209 388 196V4Z" fill="#F2F2F2"/>
<rect opacity="0.1" x="388" width="40" height="200" fill="white"/>
<rect width="4" height="200" transform="translate(448)" fill="white"/>
<rect opacity="0.1" x="448" width="4" height="200" fill="white"/>
<rect width="4" height="200" transform="translate(472)" fill="white"/>
<rect opacity="0.1" x="472" width="4" height="200" fill="white"/>
<rect width="4" height="200" transform="translate(496)" fill="white"/>
<rect opacity="0.1" x="496" width="4" height="200" fill="white"/>
<rect width="4" height="200" transform="translate(520)" fill="white"/>
<rect opacity="0.1" x="520" width="4" height="200" fill="white"/>
<rect width="4" height="200" transform="translate(544)" fill="white"/>
<rect opacity="0.1" x="544" width="4" height="200" fill="white"/>
<rect width="4" height="200" transform="translate(568)" fill="white"/>
<rect opacity="0.1" x="568" width="4" height="200" fill="white"/>
<rect width="4" height="200" transform="translate(592)" fill="white"/>
<rect opacity="0.1" x="592" width="4" height="200" fill="white"/>
<rect width="4" height="200" transform="translate(616)" fill="white"/>
<rect opacity="0.1" x="616" width="4" height="200" fill="white"/>
<rect width="4" height="200" transform="translate(640)" fill="white"/>
<rect opacity="0.1" x="640" width="4" height="200" fill="white"/>
<rect width="4" height="200" transform="translate(664)" fill="white"/>
<rect opacity="0.1" x="664" width="4" height="200" fill="white"/>
<rect width="4" height="200" transform="translate(688)" fill="white"/>
<rect opacity="0.1" x="688" width="4" height="200" fill="white"/>
<path d="M712 0H748C750.209 0 752 1.79086 752 4V196C752 198.209 750.209 200 748 200H712V0Z" fill="#F2F2F2"/>
<rect opacity="0.1" x="712" width="40" height="200" fill="white"/>
<rect opacity="0.3" x="388" width="364" height="44" fill="#159BFF"/>
<path d="M555.538 24.5V18.86H553.438V18H558.558V18.86H556.458V24.5H555.538ZM561.798 24.62C561.318 24.62 560.898 24.5167 560.538 24.31C560.178 24.1033 559.898 23.8133 559.698 23.44C559.498 23.0667 559.398 22.6333 559.398 22.14C559.398 21.6467 559.498 21.2133 559.698 20.84C559.898 20.4667 560.178 20.1767 560.538 19.97C560.898 19.7633 561.318 19.66 561.798 19.66C562.278 19.66 562.698 19.7633 563.058 19.97C563.418 20.1767 563.698 20.4667 563.898 20.84C564.098 21.2133 564.198 21.6467 564.198 22.14C564.198 22.6333 564.098 23.0667 563.898 23.44C563.698 23.8133 563.418 24.1033 563.058 24.31C562.698 24.5167 562.278 24.62 561.798 24.62ZM561.798 23.78C562.258 23.78 562.618 23.6367 562.878 23.35C563.145 23.0567 563.278 22.6533 563.278 22.14C563.278 21.6267 563.145 21.2233 562.878 20.93C562.618 20.6367 562.258 20.49 561.798 20.49C561.338 20.49 560.975 20.6367 560.708 20.93C560.448 21.2233 560.318 21.6267 560.318 22.14C560.318 22.6533 560.448 23.0567 560.708 23.35C560.975 23.6367 561.338 23.78 561.798 23.78ZM565.489 26.6V19.78H566.159L566.249 20.24C566.776 19.8533 567.323 19.66 567.889 19.66C568.516 19.66 569.016 19.8833 569.389 20.33C569.763 20.7767 569.949 21.38 569.949 22.14C569.949 22.9 569.763 23.5033 569.389 23.95C569.016 24.3967 568.516 24.62 567.889 24.62C567.369 24.62 566.869 24.4567 566.389 24.13V26.6H565.489ZM567.699 23.78C568.126 23.78 568.453 23.6367 568.679 23.35C568.913 23.0633 569.029 22.66 569.029 22.14C569.029 21.6133 568.913 21.2067 568.679 20.92C568.453 20.6333 568.126 20.49 567.699 20.49C567.246 20.49 566.809 20.6333 566.389 20.92V23.36C566.809 23.64 567.246 23.78 567.699 23.78ZM571.29 26.6V19.78H571.96L572.05 20.24C572.577 19.8533 573.123 19.66 573.69 19.66C574.317 19.66 574.817 19.8833 575.19 20.33C575.563 20.7767 575.75 21.38 575.75 22.14C575.75 22.9 575.563 23.5033 575.19 23.95C574.817 24.3967 574.317 24.62 573.69 24.62C573.17 24.62 572.67 24.4567 572.19 24.13V26.6H571.29ZM573.5 23.78C573.927 23.78 574.253 23.6367 574.48 23.35C574.713 23.0633 574.83 22.66 574.83 22.14C574.83 21.6133 574.713 21.2067 574.48 20.92C574.253 20.6333 573.927 20.49 573.5 20.49C573.047 20.49 572.61 20.6333 572.19 20.92V23.36C572.61 23.64 573.047 23.78 573.5 23.78ZM579.471 24.62C578.657 24.62 578.017 24.4 577.551 23.96C577.084 23.5133 576.851 22.9067 576.851 22.14C576.851 21.64 576.951 21.2033 577.151 20.83C577.351 20.4567 577.631 20.17 577.991 19.97C578.357 19.7633 578.784 19.66 579.271 19.66C579.737 19.66 580.141 19.7567 580.481 19.95C580.827 20.1367 581.094 20.4067 581.281 20.76C581.467 21.1067 581.561 21.5167 581.561 21.99C581.561 22.0633 581.557 22.14 581.551 22.22C581.551 22.2933 581.544 22.37 581.531 22.45H577.771C577.824 22.8967 577.997 23.2367 578.291 23.47C578.584 23.6967 578.984 23.81 579.491 23.81C580.024 23.81 580.537 23.6533 581.031 23.34L581.391 24.04C580.804 24.4267 580.164 24.62 579.471 24.62ZM577.791 21.71H580.671C580.617 21.31 580.467 21.0033 580.221 20.79C579.981 20.57 579.661 20.46 579.261 20.46C578.861 20.46 578.531 20.57 578.271 20.79C578.017 21.01 577.857 21.3167 577.791 21.71ZM583.282 24.5V19.78H583.992L584.102 20.53C584.622 19.95 585.262 19.66 586.022 19.66C586.482 19.66 586.862 19.7667 587.162 19.98L586.822 20.77C586.555 20.59 586.262 20.5 585.942 20.5C585.262 20.5 584.675 20.8267 584.182 21.48V24.5H583.282Z" fill="#159BFF"/>
<rect opacity="0.3" x="409" y="166" width="320" height="34" fill="#159BFF"/>
<path d="M555.278 185.5V184.64H556.938V179.86H555.278V179H559.518V179.86H557.858V184.64H559.518V185.5H555.278ZM560.799 185.5V180.78H561.369L561.449 181.15C561.795 180.823 562.172 180.66 562.579 180.66C562.999 180.66 563.295 180.823 563.469 181.15C563.809 180.823 564.179 180.66 564.579 180.66C564.905 180.66 565.162 180.763 565.349 180.97C565.535 181.17 565.629 181.45 565.629 181.81V185.5H564.809V181.91C564.809 181.59 564.659 181.43 564.359 181.43C564.092 181.43 563.849 181.537 563.629 181.75V185.5H562.809V181.91C562.809 181.59 562.655 181.43 562.349 181.43C562.082 181.43 561.839 181.537 561.619 181.75V185.5H560.799ZM568.53 185.62C567.956 185.62 567.51 185.487 567.19 185.22C566.876 184.953 566.72 184.583 566.72 184.11C566.72 183.657 566.87 183.31 567.17 183.07C567.47 182.83 567.913 182.71 568.5 182.71H570.18V182.56C570.18 182.167 570.086 181.887 569.9 181.72C569.713 181.547 569.396 181.46 568.95 181.46C568.343 181.46 567.786 181.6 567.28 181.88L567 181.13C567.593 180.817 568.266 180.66 569.02 180.66C569.733 180.66 570.253 180.807 570.58 181.1C570.913 181.387 571.08 181.84 571.08 182.46V185.5H570.41L570.31 185.04C569.79 185.427 569.196 185.62 568.53 185.62ZM568.69 184.81C569.25 184.81 569.746 184.663 570.18 184.37V183.45H568.53C567.936 183.45 567.64 183.663 567.64 184.09C567.64 184.57 567.99 184.81 568.69 184.81ZM574.64 187.72C574.294 187.72 573.957 187.68 573.63 187.6C573.31 187.52 573 187.397 572.7 187.23L573 186.47C573.487 186.743 574.017 186.88 574.59 186.88C575.537 186.88 576.01 186.463 576.01 185.63V185.03C575.53 185.357 575.03 185.52 574.51 185.52C574.09 185.52 573.727 185.42 573.42 185.22C573.114 185.013 572.874 184.727 572.7 184.36C572.534 183.993 572.45 183.57 572.45 183.09C572.45 182.603 572.534 182.18 572.7 181.82C572.874 181.453 573.114 181.17 573.42 180.97C573.727 180.763 574.09 180.66 574.51 180.66C575.077 180.66 575.624 180.853 576.15 181.24L576.24 180.78H576.91V185.71C576.91 186.35 576.717 186.843 576.33 187.19C575.95 187.543 575.387 187.72 574.64 187.72ZM574.7 184.68C575.154 184.68 575.59 184.54 576.01 184.26V181.92C575.59 181.633 575.154 181.49 574.7 181.49C574.274 181.49 573.944 181.637 573.71 181.93C573.484 182.217 573.37 182.603 573.37 183.09C573.37 183.577 573.484 183.963 573.71 184.25C573.944 184.537 574.274 184.68 574.7 184.68ZM580.871 185.62C580.058 185.62 579.418 185.4 578.951 184.96C578.485 184.513 578.251 183.907 578.251 183.14C578.251 182.64 578.351 182.203 578.551 181.83C578.751 181.457 579.031 181.17 579.391 180.97C579.758 180.763 580.185 180.66 580.671 180.66C581.138 180.66 581.541 180.757 581.881 180.95C582.228 181.137 582.495 181.407 582.681 181.76C582.868 182.107 582.961 182.517 582.961 182.99C582.961 183.063 582.958 183.14 582.951 183.22C582.951 183.293 582.945 183.37 582.931 183.45H579.171C579.225 183.897 579.398 184.237 579.691 184.47C579.985 184.697 580.385 184.81 580.891 184.81C581.425 184.81 581.938 184.653 582.431 184.34L582.791 185.04C582.205 185.427 581.565 185.62 580.871 185.62ZM579.191 182.71H582.071C582.018 182.31 581.868 182.003 581.621 181.79C581.381 181.57 581.061 181.46 580.661 181.46C580.261 181.46 579.931 181.57 579.671 181.79C579.418 182.01 579.258 182.317 579.191 182.71Z" fill="#159BFF"/>
<rect opacity="0.3" x="476" y="52" width="187" height="106" fill="#159BFF"/>
<path d="M546.836 107.5V101.86H544.736V101H549.856V101.86H547.756V107.5H546.836ZM553.367 107.62C552.554 107.62 551.914 107.4 551.447 106.96C550.981 106.513 550.747 105.907 550.747 105.14C550.747 104.64 550.847 104.203 551.047 103.83C551.247 103.457 551.527 103.17 551.887 102.97C552.254 102.763 552.681 102.66 553.167 102.66C553.634 102.66 554.037 102.757 554.377 102.95C554.724 103.137 554.991 103.407 555.177 103.76C555.364 104.107 555.457 104.517 555.457 104.99C555.457 105.063 555.454 105.14 555.447 105.22C555.447 105.293 555.441 105.37 555.427 105.45H551.667C551.721 105.897 551.894 106.237 552.187 106.47C552.481 106.697 552.881 106.81 553.387 106.81C553.921 106.81 554.434 106.653 554.927 106.34L555.287 107.04C554.701 107.427 554.061 107.62 553.367 107.62ZM551.687 104.71H554.567C554.514 104.31 554.364 104.003 554.117 103.79C553.877 103.57 553.557 103.46 553.157 103.46C552.757 103.46 552.427 103.57 552.167 103.79C551.914 104.01 551.754 104.317 551.687 104.71ZM556.478 107.5L558.318 105.08L556.528 102.78H557.668L558.968 104.46L560.228 102.78H561.268L559.478 105.12L561.318 107.5H560.178L558.828 105.76L557.518 107.5H556.478ZM565.569 107.62C564.382 107.62 563.789 107.023 563.789 105.83V103.59H562.299V102.78H563.789V101.32L564.689 100.88V102.78H566.609V103.59H564.689V105.69C564.689 106.077 564.765 106.357 564.919 106.53C565.079 106.697 565.335 106.78 565.689 106.78C566.095 106.78 566.482 106.677 566.849 106.47L567.089 107.25C566.635 107.497 566.129 107.62 565.569 107.62ZM576.59 107.62C576.024 107.62 575.477 107.427 574.95 107.04L574.86 107.5H574.19V100.4H575.09V103.14C575.57 102.82 576.07 102.66 576.59 102.66C577.217 102.66 577.717 102.883 578.09 103.33C578.464 103.777 578.65 104.38 578.65 105.14C578.65 105.9 578.464 106.503 578.09 106.95C577.717 107.397 577.217 107.62 576.59 107.62ZM576.4 106.78C576.827 106.78 577.154 106.637 577.38 106.35C577.614 106.063 577.73 105.66 577.73 105.14C577.73 104.613 577.614 104.207 577.38 103.92C577.154 103.633 576.827 103.49 576.4 103.49C575.947 103.49 575.51 103.633 575.09 103.92V106.36C575.51 106.64 575.947 106.78 576.4 106.78ZM582.101 107.62C581.621 107.62 581.201 107.517 580.841 107.31C580.481 107.103 580.201 106.813 580.001 106.44C579.801 106.067 579.701 105.633 579.701 105.14C579.701 104.647 579.801 104.213 580.001 103.84C580.201 103.467 580.481 103.177 580.841 102.97C581.201 102.763 581.621 102.66 582.101 102.66C582.581 102.66 583.001 102.763 583.361 102.97C583.721 103.177 584.001 103.467 584.201 103.84C584.401 104.213 584.501 104.647 584.501 105.14C584.501 105.633 584.401 106.067 584.201 106.44C584.001 106.813 583.721 107.103 583.361 107.31C583.001 107.517 582.581 107.62 582.101 107.62ZM582.101 106.78C582.561 106.78 582.921 106.637 583.181 106.35C583.448 106.057 583.581 105.653 583.581 105.14C583.581 104.627 583.448 104.223 583.181 103.93C582.921 103.637 582.561 103.49 582.101 103.49C581.641 103.49 581.278 103.637 581.011 103.93C580.751 104.223 580.621 104.627 580.621 105.14C580.621 105.653 580.751 106.057 581.011 106.35C581.278 106.637 581.641 106.78 582.101 106.78ZM587.612 107.62C586.985 107.62 586.485 107.397 586.112 106.95C585.739 106.503 585.552 105.9 585.552 105.14C585.552 104.38 585.739 103.777 586.112 103.33C586.485 102.883 586.985 102.66 587.612 102.66C588.132 102.66 588.632 102.82 589.112 103.14V100.4H590.012V107.5H589.342L589.252 107.04C588.725 107.427 588.179 107.62 587.612 107.62ZM587.802 106.78C588.255 106.78 588.692 106.64 589.112 106.36V103.92C588.692 103.633 588.255 103.49 587.802 103.49C587.375 103.49 587.045 103.633 586.812 103.92C586.585 104.207 586.472 104.613 586.472 105.14C586.472 105.66 586.585 106.063 586.812 106.35C587.045 106.637 587.375 106.78 587.802 106.78ZM592.123 109.72C591.656 109.72 591.253 109.613 590.913 109.4L591.213 108.65C591.479 108.803 591.763 108.88 592.063 108.88C592.329 108.88 592.539 108.813 592.693 108.68C592.846 108.553 592.989 108.32 593.123 107.98L593.293 107.56L591.323 102.78H592.293L593.753 106.39L595.173 102.78H596.083L593.893 108.35C593.693 108.85 593.459 109.203 593.193 109.41C592.933 109.617 592.576 109.72 592.123 109.72Z" fill="#159BFF"/>
</svg>
