<svg width="660" height="316" viewBox="0 0 660 316" fill="none" xmlns="http://www.w3.org/2000/svg">
<line x1="46.5" y1="278" x2="46.5" y2="290" stroke="#3A7DFF"/>
<line x1="613" y1="283.5" x2="46" y2="283.5" stroke="#3A7DFF"/>
<line x1="613.5" y1="278" x2="613.5" y2="290" stroke="#3A7DFF"/>
<path d="M248.057 310V301.273H253.29V302.21H249.114V305.159H252.898V306.097H249.114V310H248.057ZM254.963 310V303.455H255.969V310H254.963ZM255.475 302.364C255.279 302.364 255.11 302.297 254.968 302.163C254.828 302.03 254.759 301.869 254.759 301.682C254.759 301.494 254.828 301.334 254.968 301.2C255.11 301.067 255.279 301 255.475 301C255.671 301 255.838 301.067 255.978 301.2C256.12 301.334 256.191 301.494 256.191 301.682C256.191 301.869 256.12 302.03 255.978 302.163C255.838 302.297 255.671 302.364 255.475 302.364ZM258.561 303.455L260.129 306.131L261.697 303.455H262.857L260.743 306.727L262.857 310H261.697L260.129 307.46L258.561 310H257.402L259.482 306.727L257.402 303.455H258.561ZM266.766 310.136C266.136 310.136 265.592 309.997 265.134 309.719C264.68 309.438 264.329 309.045 264.082 308.543C263.837 308.037 263.715 307.449 263.715 306.778C263.715 306.108 263.837 305.517 264.082 305.006C264.329 304.491 264.673 304.091 265.113 303.804C265.556 303.514 266.073 303.369 266.664 303.369C267.005 303.369 267.342 303.426 267.674 303.54C268.006 303.653 268.309 303.838 268.582 304.094C268.854 304.347 269.072 304.682 269.234 305.099C269.396 305.517 269.477 306.031 269.477 306.642V307.068H264.431V306.199H268.454C268.454 305.83 268.38 305.5 268.232 305.21C268.087 304.92 267.88 304.692 267.61 304.524C267.343 304.357 267.028 304.273 266.664 304.273C266.263 304.273 265.917 304.372 265.624 304.571C265.335 304.767 265.112 305.023 264.955 305.338C264.799 305.653 264.721 305.991 264.721 306.352V306.932C264.721 307.426 264.806 307.845 264.977 308.189C265.15 308.53 265.39 308.79 265.697 308.969C266.004 309.145 266.36 309.233 266.766 309.233C267.031 309.233 267.269 309.196 267.482 309.122C267.698 309.045 267.884 308.932 268.04 308.781C268.197 308.628 268.317 308.437 268.403 308.21L269.374 308.483C269.272 308.812 269.1 309.102 268.859 309.352C268.617 309.599 268.319 309.793 267.964 309.932C267.609 310.068 267.21 310.136 266.766 310.136ZM273.478 310.136C272.933 310.136 272.451 309.999 272.033 309.723C271.616 309.445 271.289 309.053 271.053 308.547C270.817 308.038 270.7 307.438 270.7 306.744C270.7 306.057 270.817 305.46 271.053 304.955C271.289 304.449 271.617 304.058 272.038 303.783C272.458 303.507 272.944 303.369 273.495 303.369C273.921 303.369 274.258 303.44 274.505 303.582C274.755 303.722 274.945 303.881 275.076 304.06C275.21 304.236 275.313 304.381 275.387 304.494H275.472V301.273H276.478V310H275.506V308.994H275.387C275.313 309.114 275.208 309.264 275.072 309.446C274.935 309.625 274.741 309.786 274.488 309.928C274.235 310.067 273.898 310.136 273.478 310.136ZM273.614 309.233C274.018 309.233 274.359 309.128 274.637 308.918C274.915 308.705 275.127 308.411 275.272 308.036C275.417 307.658 275.489 307.222 275.489 306.727C275.489 306.239 275.418 305.811 275.276 305.445C275.134 305.075 274.924 304.788 274.646 304.584C274.367 304.376 274.023 304.273 273.614 304.273C273.188 304.273 272.833 304.382 272.549 304.601C272.268 304.817 272.056 305.111 271.914 305.483C271.775 305.852 271.705 306.267 271.705 306.727C271.705 307.193 271.776 307.616 271.918 307.997C272.063 308.375 272.276 308.676 272.558 308.901C272.842 309.122 273.194 309.233 273.614 309.233ZM282.21 305.79V306.727H278.391V305.79H282.21ZM285.462 310L283.468 303.455H284.525L285.939 308.466H286.007L287.405 303.455H288.479L289.86 308.449H289.928L291.343 303.455H292.4L290.405 310H289.417L287.985 304.972H287.882L286.451 310H285.462ZM293.729 310V303.455H294.735V310H293.729ZM294.24 302.364C294.044 302.364 293.875 302.297 293.733 302.163C293.594 302.03 293.525 301.869 293.525 301.682C293.525 301.494 293.594 301.334 293.733 301.2C293.875 301.067 294.044 301 294.24 301C294.436 301 294.604 301.067 294.743 301.2C294.885 301.334 294.956 301.494 294.956 301.682C294.956 301.869 294.885 302.03 294.743 302.163C294.604 302.297 294.436 302.364 294.24 302.364ZM299.048 310.136C298.503 310.136 298.021 309.999 297.604 309.723C297.186 309.445 296.859 309.053 296.624 308.547C296.388 308.038 296.27 307.438 296.27 306.744C296.27 306.057 296.388 305.46 296.624 304.955C296.859 304.449 297.188 304.058 297.608 303.783C298.028 303.507 298.514 303.369 299.065 303.369C299.491 303.369 299.828 303.44 300.075 303.582C300.325 303.722 300.516 303.881 300.646 304.06C300.78 304.236 300.884 304.381 300.957 304.494H301.043V301.273H302.048V310H301.077V308.994H300.957C300.884 309.114 300.778 309.264 300.642 309.446C300.506 309.625 300.311 309.786 300.058 309.928C299.805 310.067 299.469 310.136 299.048 310.136ZM299.185 309.233C299.588 309.233 299.929 309.128 300.207 308.918C300.486 308.705 300.697 308.411 300.842 308.036C300.987 307.658 301.06 307.222 301.06 306.727C301.06 306.239 300.989 305.811 300.847 305.445C300.705 305.075 300.494 304.788 300.216 304.584C299.938 304.376 299.594 304.273 299.185 304.273C298.759 304.273 298.403 304.382 298.119 304.601C297.838 304.817 297.626 305.111 297.484 305.483C297.345 305.852 297.276 306.267 297.276 306.727C297.276 307.193 297.347 307.616 297.489 307.997C297.634 308.375 297.847 308.676 298.128 308.901C298.412 309.122 298.764 309.233 299.185 309.233ZM306.876 303.455V304.307H303.484V303.455H306.876ZM304.473 301.886H305.479V308.125C305.479 308.409 305.52 308.622 305.602 308.764C305.688 308.903 305.795 308.997 305.926 309.045C306.06 309.091 306.2 309.114 306.348 309.114C306.459 309.114 306.55 309.108 306.621 309.097C306.692 309.082 306.749 309.071 306.791 309.062L306.996 309.966C306.928 309.991 306.832 310.017 306.71 310.043C306.588 310.071 306.433 310.085 306.246 310.085C305.962 310.085 305.683 310.024 305.411 309.902C305.141 309.78 304.916 309.594 304.737 309.344C304.561 309.094 304.473 308.778 304.473 308.398V301.886ZM309.536 306.062V310H308.53V301.273H309.536V304.477H309.621C309.774 304.139 310.004 303.871 310.311 303.672C310.621 303.47 311.033 303.369 311.547 303.369C311.993 303.369 312.384 303.459 312.719 303.638C313.054 303.814 313.314 304.085 313.499 304.452C313.686 304.815 313.78 305.278 313.78 305.841V310H312.774V305.909C312.774 305.389 312.639 304.987 312.369 304.703C312.102 304.416 311.732 304.273 311.257 304.273C310.928 304.273 310.632 304.342 310.371 304.482C310.112 304.621 309.908 304.824 309.757 305.091C309.609 305.358 309.536 305.682 309.536 306.062ZM324.023 311.023C323.154 311.023 322.385 310.903 321.718 310.665C321.05 310.429 320.489 310.081 320.034 309.621C319.58 309.161 319.236 308.597 319.003 307.929C318.77 307.261 318.654 306.497 318.654 305.636C318.654 304.804 318.772 304.06 319.007 303.403C319.246 302.747 319.591 302.19 320.043 301.733C320.498 301.273 321.049 300.922 321.696 300.68C322.347 300.439 323.083 300.318 323.904 300.318C324.702 300.318 325.401 300.449 326 300.71C326.603 300.969 327.105 301.32 327.509 301.763C327.915 302.203 328.219 302.699 328.421 303.25C328.625 303.801 328.728 304.369 328.728 304.955C328.728 305.366 328.708 305.784 328.668 306.207C328.628 306.631 328.544 307.02 328.417 307.375C328.289 307.727 328.091 308.011 327.824 308.227C327.56 308.443 327.202 308.551 326.75 308.551C326.551 308.551 326.333 308.52 326.094 308.457C325.855 308.395 325.644 308.291 325.459 308.146C325.275 308.001 325.165 307.807 325.131 307.562H325.08C325.012 307.727 324.907 307.884 324.765 308.031C324.625 308.179 324.442 308.297 324.215 308.385C323.99 308.473 323.716 308.511 323.392 308.5C323.023 308.486 322.698 308.403 322.417 308.253C322.135 308.099 321.9 307.892 321.709 307.631C321.522 307.366 321.38 307.061 321.283 306.714C321.189 306.365 321.142 305.989 321.142 305.585C321.142 305.202 321.199 304.851 321.313 304.533C321.426 304.214 321.584 303.936 321.786 303.697C321.99 303.459 322.229 303.268 322.502 303.126C322.777 302.982 323.074 302.892 323.392 302.858C323.676 302.83 323.935 302.842 324.168 302.896C324.401 302.947 324.593 303.026 324.743 303.131C324.894 303.233 324.989 303.347 325.029 303.472H325.08V302.994H325.983V306.847C325.983 307.085 326.05 307.295 326.184 307.477C326.317 307.659 326.512 307.75 326.767 307.75C327.057 307.75 327.279 307.651 327.432 307.452C327.588 307.253 327.695 306.946 327.752 306.531C327.811 306.116 327.841 305.585 327.841 304.938C327.841 304.557 327.789 304.182 327.684 303.812C327.581 303.44 327.425 303.092 327.215 302.768C327.007 302.445 326.745 302.159 326.426 301.912C326.108 301.665 325.735 301.472 325.306 301.332C324.88 301.19 324.395 301.119 323.853 301.119C323.185 301.119 322.587 301.223 322.059 301.43C321.533 301.635 321.086 301.935 320.716 302.33C320.35 302.722 320.07 303.199 319.877 303.761C319.686 304.321 319.591 304.957 319.591 305.67C319.591 306.395 319.686 307.038 319.877 307.601C320.07 308.163 320.354 308.638 320.729 309.024C321.107 309.411 321.574 309.705 322.131 309.906C322.688 310.105 323.33 310.205 324.057 310.205C324.37 310.205 324.678 310.175 324.982 310.115C325.286 310.055 325.554 309.99 325.787 309.919C326.02 309.848 326.188 309.795 326.29 309.761L326.529 310.545C326.353 310.619 326.123 310.693 325.838 310.767C325.557 310.841 325.256 310.902 324.935 310.95C324.617 310.999 324.313 311.023 324.023 311.023ZM323.529 307.631C323.909 307.631 324.218 307.554 324.453 307.401C324.689 307.247 324.861 307.016 324.969 306.706C325.077 306.396 325.131 306.006 325.131 305.534C325.131 305.057 325.071 304.685 324.952 304.418C324.833 304.151 324.657 303.963 324.424 303.855C324.191 303.747 323.904 303.693 323.563 303.693C323.239 303.693 322.962 303.778 322.732 303.949C322.505 304.116 322.33 304.341 322.208 304.622C322.088 304.901 322.029 305.205 322.029 305.534C322.029 305.898 322.077 306.24 322.174 306.561C322.27 306.879 322.428 307.138 322.647 307.337C322.865 307.533 323.159 307.631 323.529 307.631ZM334.256 301.273L336.506 304.903H336.574L338.824 301.273H340.068L337.324 305.636L340.068 310H338.824L336.574 306.438H336.506L334.256 310H333.011L335.824 305.636L333.011 301.273H334.256ZM341.444 310V301.273H342.5V309.062H346.557V310H341.444ZM356.069 304.92L355.165 305.176C355.108 305.026 355.025 304.879 354.914 304.737C354.806 304.592 354.658 304.473 354.471 304.379C354.283 304.286 354.043 304.239 353.75 304.239C353.35 304.239 353.016 304.331 352.749 304.516C352.485 304.697 352.353 304.929 352.353 305.21C352.353 305.46 352.444 305.658 352.625 305.803C352.807 305.947 353.091 306.068 353.478 306.165L354.449 306.403C355.034 306.545 355.471 306.763 355.757 307.055C356.044 307.345 356.188 307.719 356.188 308.176C356.188 308.551 356.08 308.886 355.864 309.182C355.651 309.477 355.353 309.71 354.969 309.881C354.586 310.051 354.14 310.136 353.631 310.136C352.963 310.136 352.411 309.991 351.973 309.702C351.536 309.412 351.259 308.989 351.142 308.432L352.097 308.193C352.188 308.545 352.36 308.81 352.613 308.986C352.868 309.162 353.202 309.25 353.614 309.25C354.083 309.25 354.455 309.151 354.73 308.952C355.009 308.75 355.148 308.509 355.148 308.227C355.148 308 355.069 307.81 354.909 307.656C354.75 307.5 354.506 307.384 354.176 307.307L353.086 307.051C352.486 306.909 352.046 306.689 351.765 306.391C351.486 306.089 351.347 305.713 351.347 305.261C351.347 304.892 351.451 304.565 351.658 304.281C351.868 303.997 352.154 303.774 352.515 303.612C352.878 303.45 353.29 303.369 353.75 303.369C354.398 303.369 354.907 303.511 355.276 303.795C355.648 304.08 355.912 304.455 356.069 304.92ZM360.361 310.136C359.747 310.136 359.219 309.991 358.776 309.702C358.332 309.412 357.991 309.013 357.753 308.504C357.514 307.996 357.395 307.415 357.395 306.761C357.395 306.097 357.517 305.51 357.761 305.001C358.009 304.49 358.352 304.091 358.793 303.804C359.236 303.514 359.753 303.369 360.344 303.369C360.804 303.369 361.219 303.455 361.588 303.625C361.957 303.795 362.26 304.034 362.496 304.341C362.732 304.648 362.878 305.006 362.935 305.415H361.929C361.852 305.116 361.682 304.852 361.418 304.622C361.156 304.389 360.804 304.273 360.361 304.273C359.969 304.273 359.625 304.375 359.33 304.58C359.037 304.781 358.808 305.067 358.643 305.436C358.482 305.803 358.401 306.233 358.401 306.727C358.401 307.233 358.48 307.673 358.639 308.048C358.801 308.423 359.028 308.714 359.321 308.922C359.616 309.129 359.963 309.233 360.361 309.233C360.622 309.233 360.859 309.188 361.072 309.097C361.286 309.006 361.466 308.875 361.614 308.705C361.761 308.534 361.866 308.33 361.929 308.091H362.935C362.878 308.477 362.737 308.825 362.513 309.135C362.291 309.442 361.997 309.686 361.631 309.868C361.267 310.047 360.844 310.136 360.361 310.136ZM364.405 310V303.455H365.376V304.443H365.445C365.564 304.119 365.78 303.857 366.092 303.655C366.405 303.453 366.757 303.352 367.149 303.352C367.223 303.352 367.315 303.354 367.426 303.357C367.537 303.359 367.621 303.364 367.678 303.369V304.392C367.643 304.384 367.565 304.371 367.443 304.354C367.324 304.334 367.197 304.324 367.064 304.324C366.746 304.324 366.462 304.391 366.212 304.524C365.964 304.655 365.768 304.837 365.624 305.07C365.482 305.3 365.411 305.562 365.411 305.858V310H364.405ZM371.415 310.136C370.784 310.136 370.24 309.997 369.783 309.719C369.328 309.438 368.977 309.045 368.73 308.543C368.486 308.037 368.364 307.449 368.364 306.778C368.364 306.108 368.486 305.517 368.73 305.006C368.977 304.491 369.321 304.091 369.761 303.804C370.205 303.514 370.722 303.369 371.312 303.369C371.653 303.369 371.99 303.426 372.322 303.54C372.655 303.653 372.957 303.838 373.23 304.094C373.503 304.347 373.72 304.682 373.882 305.099C374.044 305.517 374.125 306.031 374.125 306.642V307.068H369.08V306.199H373.102C373.102 305.83 373.028 305.5 372.881 305.21C372.736 304.92 372.528 304.692 372.259 304.524C371.991 304.357 371.676 304.273 371.312 304.273C370.912 304.273 370.565 304.372 370.273 304.571C369.983 304.767 369.76 305.023 369.604 305.338C369.447 305.653 369.369 305.991 369.369 306.352V306.932C369.369 307.426 369.455 307.845 369.625 308.189C369.798 308.53 370.038 308.79 370.345 308.969C370.652 309.145 371.009 309.233 371.415 309.233C371.679 309.233 371.918 309.196 372.131 309.122C372.347 309.045 372.533 308.932 372.689 308.781C372.845 308.628 372.966 308.437 373.051 308.21L374.023 308.483C373.92 308.812 373.749 309.102 373.507 309.352C373.266 309.599 372.967 309.793 372.612 309.932C372.257 310.068 371.858 310.136 371.415 310.136ZM378.399 310.136C377.768 310.136 377.224 309.997 376.767 309.719C376.312 309.438 375.962 309.045 375.714 308.543C375.47 308.037 375.348 307.449 375.348 306.778C375.348 306.108 375.47 305.517 375.714 305.006C375.962 304.491 376.305 304.091 376.746 303.804C377.189 303.514 377.706 303.369 378.297 303.369C378.638 303.369 378.974 303.426 379.307 303.54C379.639 303.653 379.942 303.838 380.214 304.094C380.487 304.347 380.705 304.682 380.866 305.099C381.028 305.517 381.109 306.031 381.109 306.642V307.068H376.064V306.199H380.087C380.087 305.83 380.013 305.5 379.865 305.21C379.72 304.92 379.513 304.692 379.243 304.524C378.976 304.357 378.661 304.273 378.297 304.273C377.896 304.273 377.55 304.372 377.257 304.571C376.967 304.767 376.744 305.023 376.588 305.338C376.432 305.653 376.354 305.991 376.354 306.352V306.932C376.354 307.426 376.439 307.845 376.609 308.189C376.783 308.53 377.023 308.79 377.33 308.969C377.636 309.145 377.993 309.233 378.399 309.233C378.663 309.233 378.902 309.196 379.115 309.122C379.331 309.045 379.517 308.932 379.673 308.781C379.83 308.628 379.95 308.437 380.036 308.21L381.007 308.483C380.905 308.812 380.733 309.102 380.491 309.352C380.25 309.599 379.952 309.793 379.597 309.932C379.241 310.068 378.842 310.136 378.399 310.136ZM383.645 306.062V310H382.639V303.455H383.611V304.477H383.696C383.849 304.145 384.082 303.878 384.395 303.676C384.707 303.472 385.111 303.369 385.605 303.369C386.048 303.369 386.436 303.46 386.768 303.642C387.101 303.821 387.359 304.094 387.544 304.46C387.729 304.824 387.821 305.284 387.821 305.841V310H386.815V305.909C386.815 305.395 386.682 304.994 386.415 304.707C386.148 304.418 385.781 304.273 385.315 304.273C384.994 304.273 384.707 304.342 384.455 304.482C384.205 304.621 384.007 304.824 383.862 305.091C383.717 305.358 383.645 305.682 383.645 306.062Z" fill="#333333"/>
<g clip-path="url(#clip0_3278_14702)" filter="url(#filter0_dd_3278_14702)">
<rect width="648" height="264" transform="translate(6 2)" fill="#FF0000" fill-opacity="0.1"/>
<rect width="40" height="264" transform="translate(6 2)" fill="white"/>
<rect opacity="0.1" x="6" y="2" width="40" height="264" fill="white"/>
<rect width="8" height="264" transform="translate(86 2)" fill="white"/>
<rect opacity="0.1" x="86" y="2" width="8" height="264" fill="white"/>
<rect width="8" height="264" transform="translate(134 2)" fill="white"/>
<rect opacity="0.1" x="134" y="2" width="8" height="264" fill="white"/>
<rect width="8" height="264" transform="translate(182 2)" fill="white"/>
<rect opacity="0.1" x="182" y="2" width="8" height="264" fill="white"/>
<rect width="8" height="264" transform="translate(230 2)" fill="white"/>
<rect opacity="0.1" x="230" y="2" width="8" height="264" fill="white"/>
<rect width="8" height="264" transform="translate(278 2)" fill="white"/>
<rect opacity="0.1" x="278" y="2" width="8" height="264" fill="white"/>
<rect width="8" height="264" transform="translate(326 2)" fill="white"/>
<rect opacity="0.1" x="326" y="2" width="8" height="264" fill="white"/>
<rect width="8" height="264" transform="translate(374 2)" fill="white"/>
<rect opacity="0.1" x="374" y="2" width="8" height="264" fill="white"/>
<rect width="8" height="264" transform="translate(422 2)" fill="white"/>
<rect opacity="0.1" x="422" y="2" width="8" height="264" fill="white"/>
<rect width="8" height="264" transform="translate(470 2)" fill="white"/>
<rect opacity="0.1" x="470" y="2" width="8" height="264" fill="white"/>
<rect width="8" height="264" transform="translate(518 2)" fill="white"/>
<rect opacity="0.1" x="518" y="2" width="8" height="264" fill="white"/>
<rect width="8" height="264" transform="translate(566 2)" fill="white"/>
<rect opacity="0.1" x="566" y="2" width="8" height="264" fill="white"/>
<rect width="40" height="264" transform="translate(614 2)" fill="white"/>
<rect opacity="0.1" x="614" y="2" width="40" height="264" fill="white"/>
</g>
<path opacity="0.3" d="M6 2H654V46H6V2Z" fill="#D4D9DF"/>
<path opacity="0.3" d="M190 162H470V266H190V162Z" fill="#6F7880"/>
<path d="M190 74H277C277.552 74 278 74.4477 278 75V79C278 79.5523 277.552 80 277 80H190V74Z" fill="black" fill-opacity="0.1"/>
<path d="M190 88H414C415.105 88 416 88.8954 416 90V98C416 99.1046 415.105 100 414 100H190V88Z" fill="#6F7880"/>
<path d="M190 104H420C421.105 104 422 104.895 422 106V114C422 115.105 421.105 116 420 116H190V104Z" fill="#6F7880"/>
<path d="M190 124H353C353.552 124 354 124.448 354 125V129C354 129.552 353.552 130 353 130H190V124Z" fill="black" fill-opacity="0.1"/>
<path d="M190 136H329C329.552 136 330 136.448 330 137V141C330 141.552 329.552 142 329 142H190V136Z" fill="black" fill-opacity="0.1"/>
<defs>
<filter id="filter0_dd_3278_14702" x="0" y="0" width="660" height="280" filterUnits="userSpaceOnUse" color-interpolation-filters="sRGB">
<feFlood flood-opacity="0" result="BackgroundImageFix"/>
<feColorMatrix in="SourceAlpha" type="matrix" values="0 0 0 0 0 0 0 0 0 0 0 0 0 0 0 0 0 0 127 0" result="hardAlpha"/>
<feMorphology radius="4" operator="dilate" in="SourceAlpha" result="effect1_dropShadow_3278_14702"/>
<feOffset dy="8"/>
<feGaussianBlur stdDeviation="1"/>
<feComposite in2="hardAlpha" operator="out"/>
<feColorMatrix type="matrix" values="0 0 0 0 1 0 0 0 0 1 0 0 0 0 1 0 0 0 1 0"/>
<feBlend mode="normal" in2="BackgroundImageFix" result="effect1_dropShadow_3278_14702"/>
<feColorMatrix in="SourceAlpha" type="matrix" values="0 0 0 0 0 0 0 0 0 0 0 0 0 0 0 0 0 0 127 0" result="hardAlpha"/>
<feOffset dy="2"/>
<feGaussianBlur stdDeviation="2"/>
<feComposite in2="hardAlpha" operator="out"/>
<feColorMatrix type="matrix" values="0 0 0 0 0.435294 0 0 0 0 0.470588 0 0 0 0 0.501961 0 0 0 0.3 0"/>
<feBlend mode="normal" in2="effect1_dropShadow_3278_14702" result="effect2_dropShadow_3278_14702"/>
<feBlend mode="normal" in="SourceGraphic" in2="effect2_dropShadow_3278_14702" result="shape"/>
</filter>
<clipPath id="clip0_3278_14702">
<rect width="648" height="264" fill="white" transform="translate(6 2)"/>
</clipPath>
</defs>
</svg>
