<svg width="688" height="200" viewBox="0 0 688 200" fill="none" xmlns="http://www.w3.org/2000/svg">
<path d="M340 8C340 3.58173 343.582 0 348 0H680C684.418 0 688 3.58172 688 8V192C688 196.418 684.418 200 680 200H348C343.582 200 340 196.418 340 192V8Z" fill="#FF0000" fill-opacity="0.2"/>
<path d="M340 4C340 1.79086 341.791 0 344 0H372V200H344C341.791 200 340 198.209 340 196V4Z" fill="#F2F2F2"/>
<rect opacity="0.1" x="340" width="32" height="200" fill="#F2F2F2"/>
<rect width="4" height="200" transform="translate(392)" fill="#F2F2F2"/>
<rect opacity="0.1" x="392" width="4" height="200" fill="#F2F2F2"/>
<rect width="4" height="200" transform="translate(416)" fill="#F2F2F2"/>
<rect opacity="0.1" x="416" width="4" height="200" fill="#F2F2F2"/>
<rect width="4" height="200" transform="translate(440)" fill="#F2F2F2"/>
<rect opacity="0.1" x="440" width="4" height="200" fill="#F2F2F2"/>
<rect width="4" height="200" transform="translate(464)" fill="#F2F2F2"/>
<rect opacity="0.1" x="464" width="4" height="200" fill="#F2F2F2"/>
<rect width="4" height="200" transform="translate(488)" fill="#F2F2F2"/>
<rect opacity="0.1" x="488" width="4" height="200" fill="#F2F2F2"/>
<rect width="4" height="200" transform="translate(512)" fill="#F2F2F2"/>
<rect opacity="0.1" x="512" width="4" height="200" fill="#F2F2F2"/>
<rect width="4" height="200" transform="translate(536)" fill="#F2F2F2"/>
<rect opacity="0.1" x="536" width="4" height="200" fill="#F2F2F2"/>
<rect width="4" height="200" transform="translate(560)" fill="#F2F2F2"/>
<rect opacity="0.1" x="560" width="4" height="200" fill="#F2F2F2"/>
<rect width="4" height="200" transform="translate(584)" fill="#F2F2F2"/>
<rect opacity="0.1" x="584" width="4" height="200" fill="#F2F2F2"/>
<rect width="4" height="200" transform="translate(608)" fill="#F2F2F2"/>
<rect opacity="0.1" x="608" width="4" height="200" fill="#F2F2F2"/>
<rect width="4" height="200" transform="translate(632)" fill="#F2F2F2"/>
<rect opacity="0.1" x="632" width="4" height="200" fill="#F2F2F2"/>
<path d="M656 0H684C686.209 0 688 1.79086 688 4V196C688 198.209 686.209 200 684 200H656V0Z" fill="#F2F2F2"/>
<rect opacity="0.1" x="656" width="32" height="200" fill="#F2F2F2"/>
<rect width="100" height="200" fill="#FF0000" fill-opacity="0.2"/>
<rect width="4" height="200" fill="#F2F2F2"/>
<rect opacity="0.1" width="4" height="200" fill="#F2F2F2"/>
<rect width="4" height="200" transform="translate(24)" fill="#F2F2F2"/>
<rect opacity="0.1" x="24" width="4" height="200" fill="#F2F2F2"/>
<rect width="4" height="200" transform="translate(48)" fill="#F2F2F2"/>
<rect opacity="0.1" x="48" width="4" height="200" fill="#F2F2F2"/>
<rect width="4" height="200" transform="translate(72)" fill="#F2F2F2"/>
<rect opacity="0.1" x="72" width="4" height="200" fill="#F2F2F2"/>
<rect width="4" height="200" transform="translate(96)" fill="#F2F2F2"/>
<rect opacity="0.1" x="96" width="4" height="200" fill="#F2F2F2"/>
<rect width="196" height="200" transform="translate(124)" fill="#FF0000" fill-opacity="0.2"/>
<rect width="4" height="200" transform="translate(124)" fill="#F2F2F2"/>
<rect opacity="0.1" x="124" width="4" height="200" fill="#F2F2F2"/>
<rect width="4" height="200" transform="translate(148)" fill="#F2F2F2"/>
<rect opacity="0.1" x="148" width="4" height="200" fill="#F2F2F2"/>
<rect width="4" height="200" transform="translate(172)" fill="#F2F2F2"/>
<rect opacity="0.1" x="172" width="4" height="200" fill="#F2F2F2"/>
<rect width="4" height="200" transform="translate(196)" fill="#F2F2F2"/>
<rect opacity="0.1" x="196" width="4" height="200" fill="#F2F2F2"/>
<rect width="4" height="200" transform="translate(220)" fill="#F2F2F2"/>
<rect opacity="0.1" x="220" width="4" height="200" fill="#F2F2F2"/>
<rect width="4" height="200" transform="translate(244)" fill="#F2F2F2"/>
<rect opacity="0.1" x="244" width="4" height="200" fill="#F2F2F2"/>
<rect width="4" height="200" transform="translate(268)" fill="#F2F2F2"/>
<rect opacity="0.1" x="268" width="4" height="200" fill="#F2F2F2"/>
<rect width="4" height="200" transform="translate(292)" fill="#F2F2F2"/>
<rect opacity="0.1" x="292" width="4" height="200" fill="#F2F2F2"/>
<rect width="4" height="200" transform="translate(316)" fill="#F2F2F2"/>
<rect opacity="0.1" x="316" width="4" height="200" fill="#F2F2F2"/>
<rect opacity="0.3" x="4" y="37" width="92" height="52" rx="1" fill="#159BFF"/>
<rect opacity="0.3" x="128" y="37" width="92" height="52" rx="1" fill="#159BFF"/>
<rect opacity="0.3" x="224" y="37" width="92" height="52" rx="1" fill="#159BFF"/>
<rect opacity="0.3" x="4" y="126" width="92" height="52" rx="1" fill="#159BFF"/>
<rect opacity="0.3" x="128" y="117" width="92" height="52" rx="1" fill="#159BFF"/>
<rect opacity="0.3" x="224" y="117" width="92" height="52" rx="1" fill="#159BFF"/>
<rect opacity="0.3" x="372" y="41" width="284" height="48" fill="#159BFF"/>
<rect y="16" width="100" height="1" fill="black" fill-opacity="0.2"/>
<rect x="124" y="16" width="196" height="1" fill="black" fill-opacity="0.2"/>
<rect x="340" y="16" width="348" height="1" fill="black" fill-opacity="0.2"/>
<rect x="4" y="117" width="92" height="1" fill="black" fill-opacity="0.1"/>
<rect x="4" y="25" width="65" height="8" fill="black" fill-opacity="0.2"/>
<rect x="128" y="25" width="116" height="8" fill="black" fill-opacity="0.2"/>
<rect x="372" y="25" width="116" height="8" fill="black" fill-opacity="0.2"/>
<rect x="4" y="93" width="52" height="4" fill="black" fill-opacity="0.2"/>
<rect x="128" y="93" width="52" height="4" fill="black" fill-opacity="0.2"/>
<rect x="224" y="93" width="52" height="4" fill="black" fill-opacity="0.2"/>
<rect x="4" y="182" width="52" height="4" fill="black" fill-opacity="0.2"/>
<rect x="128" y="173" width="52" height="4" fill="black" fill-opacity="0.2"/>
<rect x="224" y="173" width="52" height="4" fill="black" fill-opacity="0.2"/>
<rect x="4" y="101" width="80" height="8" fill="black" fill-opacity="0.2"/>
<rect x="128" y="101" width="80" height="8" fill="black" fill-opacity="0.2"/>
<rect x="224" y="101" width="82" height="8" fill="black" fill-opacity="0.2"/>
<rect opacity="0.3" x="372" y="97" width="92" height="52" rx="1" fill="#159BFF"/>
<rect opacity="0.3" x="372" y="177" width="92" height="23" rx="1" fill="#159BFF"/>
<rect opacity="0.3" x="468" y="97" width="92" height="52" rx="1" fill="#159BFF"/>
<rect opacity="0.3" x="564" y="97" width="92" height="72" rx="1" fill="#159BFF"/>
<rect opacity="0.3" x="564" y="177" width="92" height="23" rx="1" fill="#159BFF"/>
<rect opacity="0.3" x="468" y="177" width="92" height="23" rx="1" fill="#159BFF"/>
<rect x="372" y="153" width="52" height="4" fill="black" fill-opacity="0.2"/>
<rect x="468" y="153" width="52" height="4" fill="black" fill-opacity="0.2"/>
<rect x="372" y="161" width="80" height="8" fill="black" fill-opacity="0.2"/>
<rect x="468" y="161" width="82" height="8" fill="black" fill-opacity="0.2"/>
<rect x="4" y="190" width="84" height="8" fill="black" fill-opacity="0.2"/>
<rect x="128" y="181" width="80" height="8" fill="black" fill-opacity="0.2"/>
<rect x="224" y="181" width="82" height="8" fill="black" fill-opacity="0.2"/>
</svg>
