<svg width="711" height="525" viewBox="0 0 711 525" fill="none" xmlns="http://www.w3.org/2000/svg">
<g filter="url(#filter0_d_3153_17767)">
<rect width="364" height="200" transform="translate(183.5 30.5)" fill="#FF0000" fill-opacity="0.1"/>
<rect width="16" height="200" transform="translate(183.5 30.5)" fill="white"/>
<rect opacity="0.1" x="183.5" y="30.5" width="16" height="200" fill="white"/>
<rect width="4" height="200" transform="translate(223.5 30.5)" fill="white"/>
<rect opacity="0.1" x="223.5" y="30.5" width="4" height="200" fill="white"/>
<rect width="4" height="200" transform="translate(251.5 30.5)" fill="white"/>
<rect opacity="0.1" x="251.5" y="30.5" width="4" height="200" fill="white"/>
<rect width="4" height="200" transform="translate(279.5 30.5)" fill="white"/>
<rect opacity="0.1" x="279.5" y="30.5" width="4" height="200" fill="white"/>
<rect width="4" height="200" transform="translate(307.5 30.5)" fill="white"/>
<rect opacity="0.1" x="307.5" y="30.5" width="4" height="200" fill="white"/>
<rect width="4" height="200" transform="translate(335.5 30.5)" fill="white"/>
<rect opacity="0.1" x="335.5" y="30.5" width="4" height="200" fill="white"/>
<rect width="4" height="200" transform="translate(363.5 30.5)" fill="white"/>
<rect opacity="0.1" x="363.5" y="30.5" width="4" height="200" fill="white"/>
<rect width="4" height="200" transform="translate(391.5 30.5)" fill="white"/>
<rect opacity="0.1" x="391.5" y="30.5" width="4" height="200" fill="white"/>
<rect width="4" height="200" transform="translate(419.5 30.5)" fill="white"/>
<rect opacity="0.1" x="419.5" y="30.5" width="4" height="200" fill="white"/>
<rect width="4" height="200" transform="translate(447.5 30.5)" fill="white"/>
<rect opacity="0.1" x="447.5" y="30.5" width="4" height="200" fill="white"/>
<rect width="4" height="200" transform="translate(475.5 30.5)" fill="white"/>
<rect opacity="0.1" x="475.5" y="30.5" width="4" height="200" fill="white"/>
<rect width="4" height="200" transform="translate(503.5 30.5)" fill="white"/>
<rect opacity="0.1" x="503.5" y="30.5" width="4" height="200" fill="white"/>
<rect width="16" height="200" transform="translate(531.5 30.5)" fill="white"/>
<rect opacity="0.1" x="531.5" y="30.5" width="16" height="200" fill="white"/>
<rect opacity="0.3" x="199.5" y="38.5" width="332" height="40" fill="#6F7880"/>
<rect opacity="0.3" x="227.5" y="86.5" width="220" height="136" fill="#6F7880"/>
<g opacity="0.6">
<rect x="455.5" y="93.5" width="72" height="122" fill="#3A7DFF"/>
<path d="M485.929 157L488.089 150.5H489.109L491.269 157H490.299L489.759 155.34H487.389L486.849 157H485.929ZM487.659 154.48H489.489L488.579 151.64L487.659 154.48ZM494.11 157.12C493.483 157.12 492.983 156.897 492.61 156.45C492.237 156.003 492.05 155.4 492.05 154.64C492.05 153.88 492.237 153.277 492.61 152.83C492.983 152.383 493.483 152.16 494.11 152.16C494.363 152.16 494.617 152.2 494.87 152.28C495.123 152.36 495.37 152.48 495.61 152.64V149.9H496.51V157H495.84L495.75 156.54C495.223 156.927 494.677 157.12 494.11 157.12ZM494.3 156.28C494.52 156.28 494.743 156.243 494.97 156.17C495.197 156.097 495.41 155.993 495.61 155.86V153.42C495.41 153.28 495.197 153.173 494.97 153.1C494.743 153.027 494.52 152.99 494.3 152.99C493.873 152.99 493.543 153.137 493.31 153.43C493.083 153.717 492.97 154.12 492.97 154.64C492.97 155.16 493.083 155.563 493.31 155.85C493.543 156.137 493.873 156.28 494.3 156.28Z" fill="white"/>
</g>
<rect x="451.5" y="86.5" width="80" height="136" stroke="#3A7DFF" stroke-width="0.5" stroke-dasharray="2 2"/>
</g>
<g filter="url(#filter1_d_3153_17767)">
<rect width="364" height="200" transform="translate(183.5 294.5)" fill="#FF0000" fill-opacity="0.1"/>
<rect width="16" height="200" transform="translate(183.5 294.5)" fill="white"/>
<rect opacity="0.1" x="183.5" y="294.5" width="16" height="200" fill="white"/>
<rect width="4" height="200" transform="translate(223.5 294.5)" fill="white"/>
<rect opacity="0.1" x="223.5" y="294.5" width="4" height="200" fill="white"/>
<rect width="4" height="200" transform="translate(251.5 294.5)" fill="white"/>
<rect opacity="0.1" x="251.5" y="294.5" width="4" height="200" fill="white"/>
<rect width="4" height="200" transform="translate(279.5 294.5)" fill="white"/>
<rect opacity="0.1" x="279.5" y="294.5" width="4" height="200" fill="white"/>
<rect width="4" height="200" transform="translate(307.5 294.5)" fill="white"/>
<rect opacity="0.1" x="307.5" y="294.5" width="4" height="200" fill="white"/>
<rect width="4" height="200" transform="translate(335.5 294.5)" fill="white"/>
<rect opacity="0.1" x="335.5" y="294.5" width="4" height="200" fill="white"/>
<rect width="4" height="200" transform="translate(363.5 294.5)" fill="white"/>
<rect opacity="0.1" x="363.5" y="294.5" width="4" height="200" fill="white"/>
<rect width="4" height="200" transform="translate(391.5 294.5)" fill="white"/>
<rect opacity="0.1" x="391.5" y="294.5" width="4" height="200" fill="white"/>
<rect width="4" height="200" transform="translate(419.5 294.5)" fill="white"/>
<rect opacity="0.1" x="419.5" y="294.5" width="4" height="200" fill="white"/>
<rect width="4" height="200" transform="translate(447.5 294.5)" fill="white"/>
<rect opacity="0.1" x="447.5" y="294.5" width="4" height="200" fill="white"/>
<rect width="4" height="200" transform="translate(475.5 294.5)" fill="white"/>
<rect opacity="0.1" x="475.5" y="294.5" width="4" height="200" fill="white"/>
<rect width="4" height="200" transform="translate(503.5 294.5)" fill="white"/>
<rect opacity="0.1" x="503.5" y="294.5" width="4" height="200" fill="white"/>
<rect width="16" height="200" transform="translate(531.5 294.5)" fill="white"/>
<rect opacity="0.1" x="531.5" y="294.5" width="16" height="200" fill="white"/>
<g opacity="0.8">
<rect opacity="0.3" x="183.5" y="326.5" width="364" height="136" fill="#6F7880"/>
</g>
<rect opacity="0.5" x="255.5" y="341.5" width="108" height="105" fill="#6F7880"/>
<rect x="368" y="342" width="107" height="104" stroke="#3A7DFF" stroke-dasharray="2 2"/>
<rect x="385.5" y="373.5" width="33" height="2" fill="black" fill-opacity="0.15"/>
<rect x="385.5" y="379.5" width="68" height="6" fill="#6F7880"/>
<rect x="385.5" y="399.5" width="77" height="4" fill="black" fill-opacity="0.15"/>
<rect x="385.5" y="405.5" width="86" height="4" fill="black" fill-opacity="0.15"/>
<rect x="385.5" y="411.5" width="59" height="4" fill="black" fill-opacity="0.15"/>
</g>
<path d="M460.5 312.5L460.5 336.5H458.5L458.5 312.5H460.5Z" fill="#4D5359"/>
<path d="M459.5 341.5C458.395 341.5 453.5 336.605 453.5 335.5C453.5 334.395 458.395 329.5 459.5 329.5C460.605 329.5 465.5 334.395 465.5 335.5C465.5 336.605 460.605 341.5 459.5 341.5Z" fill="#4D5359"/>
<path d="M491.5 251.5L491.5 227.5H493.5L493.5 251.5H491.5Z" fill="#4D5359"/>
<path d="M492.5 222.5C493.605 222.5 498.5 227.395 498.5 228.5C498.5 229.605 493.605 234.5 492.5 234.5C491.395 234.5 486.5 229.605 486.5 228.5C486.5 227.395 491.395 222.5 492.5 222.5Z" fill="#4D5359"/>
<rect x="458.5" y="284.5" width="2" height="28" fill="#4D5359"/>
<rect x="491.5" y="240.5" width="2" height="24" fill="#4D5359"/>
<rect x="392.5" y="260.5" width="149" height="24" rx="12" fill="#494949"/>
<path d="M415.377 271.5H414.497C414.445 271.247 414.354 271.024 414.223 270.832C414.096 270.641 413.939 270.48 413.755 270.349C413.572 270.217 413.37 270.117 413.147 270.051C412.925 269.985 412.693 269.952 412.451 269.952C412.011 269.952 411.612 270.063 411.255 270.286C410.9 270.508 410.617 270.836 410.406 271.269C410.198 271.702 410.093 272.234 410.093 272.864C410.093 273.493 410.198 274.025 410.406 274.458C410.617 274.891 410.9 275.219 411.255 275.442C411.612 275.664 412.011 275.776 412.451 275.776C412.693 275.776 412.925 275.742 413.147 275.676C413.37 275.61 413.572 275.512 413.755 275.381C413.939 275.249 414.096 275.087 414.223 274.895C414.354 274.701 414.445 274.478 414.497 274.227H415.377C415.311 274.599 415.19 274.932 415.015 275.225C414.84 275.519 414.622 275.768 414.362 275.974C414.101 276.178 413.809 276.333 413.485 276.44C413.163 276.546 412.818 276.599 412.451 276.599C411.831 276.599 411.279 276.448 410.797 276.145C410.314 275.842 409.934 275.411 409.657 274.852C409.38 274.294 409.241 273.631 409.241 272.864C409.241 272.097 409.38 271.434 409.657 270.875C409.934 270.316 410.314 269.885 410.797 269.582C411.279 269.279 411.831 269.128 412.451 269.128C412.818 269.128 413.163 269.181 413.485 269.288C413.809 269.394 414.101 269.55 414.362 269.756C414.622 269.96 414.84 270.209 415.015 270.502C415.19 270.793 415.311 271.126 415.377 271.5ZM418.903 276.614C418.41 276.614 417.978 276.496 417.607 276.262C417.237 276.028 416.949 275.7 416.74 275.278C416.534 274.857 416.431 274.365 416.431 273.801C416.431 273.233 416.534 272.737 416.74 272.313C416.949 271.889 417.237 271.56 417.607 271.326C417.978 271.092 418.41 270.974 418.903 270.974C419.395 270.974 419.826 271.092 420.195 271.326C420.567 271.56 420.856 271.889 421.062 272.313C421.27 272.737 421.374 273.233 421.374 273.801C421.374 274.365 421.27 274.857 421.062 275.278C420.856 275.7 420.567 276.028 420.195 276.262C419.826 276.496 419.395 276.614 418.903 276.614ZM418.903 275.861C419.277 275.861 419.585 275.765 419.826 275.573C420.068 275.381 420.246 275.129 420.362 274.817C420.478 274.504 420.536 274.166 420.536 273.801C420.536 273.437 420.478 273.097 420.362 272.782C420.246 272.467 420.068 272.213 419.826 272.018C419.585 271.824 419.277 271.727 418.903 271.727C418.529 271.727 418.221 271.824 417.98 272.018C417.738 272.213 417.559 272.467 417.443 272.782C417.327 273.097 417.269 273.437 417.269 273.801C417.269 274.166 417.327 274.504 417.443 274.817C417.559 275.129 417.738 275.381 417.98 275.573C418.221 275.765 418.529 275.861 418.903 275.861ZM423.492 273.219V276.5H422.654V271.045H423.463V271.898H423.534C423.662 271.621 423.856 271.398 424.117 271.23C424.377 271.06 424.713 270.974 425.125 270.974C425.495 270.974 425.818 271.05 426.095 271.202C426.372 271.351 426.587 271.578 426.741 271.884C426.895 272.187 426.972 272.57 426.972 273.034V276.5H426.134V273.091C426.134 272.662 426.023 272.329 425.8 272.089C425.578 271.848 425.272 271.727 424.884 271.727C424.616 271.727 424.377 271.785 424.167 271.901C423.958 272.017 423.794 272.187 423.673 272.409C423.552 272.632 423.492 272.902 423.492 273.219ZM430.876 271.045V271.756H428.049V271.045H430.876ZM428.873 269.739H429.711V274.938C429.711 275.174 429.745 275.352 429.814 275.47C429.885 275.586 429.975 275.664 430.084 275.705C430.195 275.742 430.312 275.761 430.435 275.761C430.528 275.761 430.603 275.757 430.662 275.747C430.722 275.735 430.769 275.726 430.805 275.719L430.975 276.472C430.918 276.493 430.839 276.514 430.737 276.536C430.635 276.559 430.506 276.571 430.35 276.571C430.113 276.571 429.881 276.52 429.654 276.418C429.429 276.317 429.242 276.161 429.093 275.953C428.946 275.745 428.873 275.482 428.873 275.165V269.739ZM433.741 276.628C433.396 276.628 433.082 276.563 432.8 276.433C432.519 276.3 432.295 276.109 432.129 275.861C431.963 275.61 431.881 275.307 431.881 274.952C431.881 274.639 431.942 274.386 432.065 274.192C432.188 273.995 432.353 273.841 432.559 273.73C432.765 273.619 432.992 273.536 433.241 273.482C433.492 273.425 433.744 273.38 433.997 273.347C434.328 273.304 434.597 273.272 434.803 273.251C435.011 273.227 435.163 273.188 435.258 273.134C435.355 273.079 435.403 272.984 435.403 272.849V272.821C435.403 272.471 435.307 272.198 435.116 272.004C434.926 271.81 434.639 271.713 434.253 271.713C433.853 271.713 433.539 271.801 433.312 271.976C433.084 272.151 432.925 272.338 432.832 272.537L432.037 272.253C432.179 271.921 432.368 271.663 432.605 271.479C432.844 271.292 433.104 271.161 433.386 271.088C433.67 271.012 433.95 270.974 434.224 270.974C434.399 270.974 434.601 270.996 434.828 271.038C435.058 271.079 435.279 271.163 435.492 271.29C435.707 271.418 435.886 271.611 436.028 271.869C436.17 272.127 436.241 272.473 436.241 272.906V276.5H435.403V275.761H435.361C435.304 275.88 435.209 276.006 435.077 276.141C434.944 276.276 434.768 276.391 434.547 276.486C434.327 276.58 434.059 276.628 433.741 276.628ZM433.869 275.875C434.201 275.875 434.48 275.81 434.707 275.68C434.937 275.549 435.11 275.381 435.226 275.175C435.344 274.969 435.403 274.753 435.403 274.526V273.759C435.368 273.801 435.29 273.84 435.169 273.876C435.05 273.909 434.913 273.938 434.757 273.964C434.603 273.988 434.453 274.009 434.306 274.028C434.162 274.045 434.044 274.059 433.954 274.071C433.737 274.099 433.533 274.146 433.344 274.21C433.157 274.271 433.005 274.365 432.889 274.49C432.775 274.613 432.719 274.781 432.719 274.994C432.719 275.286 432.826 275.506 433.042 275.655C433.26 275.802 433.535 275.875 433.869 275.875ZM437.771 276.5V271.045H438.609V276.5H437.771ZM438.197 270.136C438.034 270.136 437.893 270.081 437.775 269.969C437.658 269.858 437.6 269.724 437.6 269.568C437.6 269.412 437.658 269.278 437.775 269.167C437.893 269.056 438.034 269 438.197 269C438.36 269 438.5 269.056 438.616 269.167C438.734 269.278 438.794 269.412 438.794 269.568C438.794 269.724 438.734 269.858 438.616 269.969C438.5 270.081 438.36 270.136 438.197 270.136ZM440.982 273.219V276.5H440.144V271.045H440.954V271.898H441.025C441.153 271.621 441.347 271.398 441.607 271.23C441.867 271.06 442.204 270.974 442.616 270.974C442.985 270.974 443.308 271.05 443.585 271.202C443.862 271.351 444.077 271.578 444.231 271.884C444.385 272.187 444.462 272.57 444.462 273.034V276.5H443.624V273.091C443.624 272.662 443.513 272.329 443.29 272.089C443.068 271.848 442.762 271.727 442.374 271.727C442.107 271.727 441.867 271.785 441.657 271.901C441.448 272.017 441.284 272.187 441.163 272.409C441.042 272.632 440.982 272.902 440.982 273.219ZM448.281 276.614C447.755 276.614 447.302 276.498 446.92 276.266C446.542 276.031 446.249 275.705 446.043 275.286C445.84 274.864 445.738 274.374 445.738 273.815C445.738 273.257 445.84 272.764 446.043 272.338C446.249 271.91 446.536 271.576 446.903 271.337C447.272 271.095 447.703 270.974 448.195 270.974C448.479 270.974 448.76 271.022 449.037 271.116C449.314 271.211 449.566 271.365 449.793 271.578C450.021 271.789 450.202 272.068 450.337 272.416C450.472 272.764 450.539 273.193 450.539 273.702V274.057H446.335V273.332H449.687C449.687 273.025 449.625 272.75 449.502 272.509C449.381 272.267 449.209 272.076 448.984 271.937C448.761 271.797 448.498 271.727 448.195 271.727C447.862 271.727 447.573 271.81 447.329 271.976C447.087 272.139 446.902 272.352 446.771 272.615C446.641 272.878 446.576 273.16 446.576 273.46V273.943C446.576 274.355 446.647 274.704 446.789 274.991C446.933 275.275 447.134 275.491 447.389 275.641C447.645 275.787 447.942 275.861 448.281 275.861C448.501 275.861 448.7 275.83 448.877 275.768C449.057 275.705 449.212 275.61 449.342 275.484C449.473 275.357 449.573 275.198 449.644 275.009L450.454 275.236C450.369 275.51 450.225 275.752 450.024 275.96C449.823 276.166 449.574 276.327 449.278 276.443C448.982 276.557 448.65 276.614 448.281 276.614ZM451.814 276.5V271.045H452.624V271.869H452.68C452.78 271.599 452.96 271.38 453.22 271.212C453.481 271.044 453.774 270.96 454.101 270.96C454.162 270.96 454.239 270.961 454.332 270.964C454.424 270.966 454.494 270.97 454.541 270.974V271.827C454.513 271.82 454.448 271.809 454.346 271.795C454.246 271.778 454.141 271.77 454.03 271.77C453.765 271.77 453.528 271.826 453.32 271.937C453.114 272.046 452.95 272.197 452.83 272.391C452.711 272.583 452.652 272.802 452.652 273.048V276.5H451.814ZM459.952 276.628C459.607 276.628 459.293 276.563 459.011 276.433C458.729 276.3 458.506 276.109 458.34 275.861C458.174 275.61 458.091 275.307 458.091 274.952C458.091 274.639 458.153 274.386 458.276 274.192C458.399 273.995 458.564 273.841 458.77 273.73C458.976 273.619 459.203 273.536 459.452 273.482C459.702 273.425 459.955 273.38 460.208 273.347C460.539 273.304 460.808 273.272 461.014 273.251C461.222 273.227 461.374 273.188 461.469 273.134C461.566 273.079 461.614 272.984 461.614 272.849V272.821C461.614 272.471 461.518 272.198 461.327 272.004C461.137 271.81 460.849 271.713 460.464 271.713C460.064 271.713 459.75 271.801 459.523 271.976C459.295 272.151 459.135 272.338 459.043 272.537L458.248 272.253C458.39 271.921 458.579 271.663 458.816 271.479C459.055 271.292 459.315 271.161 459.597 271.088C459.881 271.012 460.161 270.974 460.435 270.974C460.61 270.974 460.812 270.996 461.039 271.038C461.269 271.079 461.49 271.163 461.703 271.29C461.918 271.418 462.097 271.611 462.239 271.869C462.381 272.127 462.452 272.473 462.452 272.906V276.5H461.614V275.761H461.572C461.515 275.88 461.42 276.006 461.287 276.141C461.155 276.276 460.979 276.391 460.758 276.486C460.538 276.58 460.269 276.628 459.952 276.628ZM460.08 275.875C460.412 275.875 460.691 275.81 460.918 275.68C461.148 275.549 461.321 275.381 461.437 275.175C461.555 274.969 461.614 274.753 461.614 274.526V273.759C461.579 273.801 461.501 273.84 461.38 273.876C461.261 273.909 461.124 273.938 460.968 273.964C460.814 273.988 460.664 274.009 460.517 274.028C460.372 274.045 460.255 274.059 460.165 274.071C459.948 274.099 459.744 274.146 459.555 274.21C459.367 274.271 459.216 274.365 459.1 274.49C458.986 274.613 458.93 274.781 458.93 274.994C458.93 275.286 459.037 275.506 459.253 275.655C459.47 275.802 459.746 275.875 460.08 275.875ZM464.82 269.227V276.5H463.982V269.227H464.82ZM466.355 276.5V271.045H467.193V276.5H466.355ZM466.781 270.136C466.618 270.136 466.477 270.081 466.358 269.969C466.242 269.858 466.184 269.724 466.184 269.568C466.184 269.412 466.242 269.278 466.358 269.167C466.477 269.056 466.618 269 466.781 269C466.944 269 467.084 269.056 467.2 269.167C467.318 269.278 467.378 269.412 467.378 269.568C467.378 269.724 467.318 269.858 467.2 269.969C467.084 270.081 466.944 270.136 466.781 270.136ZM470.93 278.659C470.525 278.659 470.177 278.607 469.886 278.503C469.594 278.401 469.352 278.266 469.158 278.098C468.966 277.932 468.813 277.755 468.7 277.565L469.367 277.097C469.443 277.196 469.539 277.31 469.655 277.438C469.771 277.568 469.929 277.68 470.131 277.775C470.334 277.872 470.601 277.92 470.93 277.92C471.37 277.92 471.733 277.814 472.02 277.601C472.306 277.388 472.45 277.054 472.45 276.599V275.491H472.379C472.317 275.591 472.229 275.714 472.116 275.861C472.004 276.005 471.844 276.134 471.633 276.248C471.424 276.359 471.143 276.415 470.788 276.415C470.347 276.415 469.952 276.311 469.602 276.102C469.254 275.894 468.978 275.591 468.774 275.193C468.573 274.795 468.472 274.312 468.472 273.744C468.472 273.186 468.571 272.699 468.767 272.285C468.964 271.868 469.237 271.546 469.587 271.319C469.938 271.089 470.343 270.974 470.802 270.974C471.157 270.974 471.439 271.034 471.647 271.152C471.858 271.268 472.019 271.401 472.13 271.55C472.244 271.696 472.331 271.817 472.393 271.912H472.478V271.045H473.288V276.656C473.288 277.125 473.181 277.506 472.968 277.8C472.757 278.096 472.473 278.312 472.116 278.45C471.761 278.589 471.365 278.659 470.93 278.659ZM470.901 275.662C471.237 275.662 471.522 275.585 471.754 275.431C471.986 275.277 472.162 275.056 472.283 274.767C472.403 274.478 472.464 274.133 472.464 273.73C472.464 273.337 472.405 272.99 472.286 272.69C472.168 272.389 471.993 272.153 471.761 271.983C471.529 271.812 471.242 271.727 470.901 271.727C470.546 271.727 470.25 271.817 470.013 271.997C469.779 272.177 469.603 272.419 469.484 272.722C469.368 273.025 469.31 273.361 469.31 273.73C469.31 274.109 469.37 274.444 469.488 274.735C469.609 275.024 469.786 275.251 470.021 275.417C470.257 275.58 470.551 275.662 470.901 275.662ZM475.66 273.219V276.5H474.822V271.045H475.631V271.898H475.702C475.83 271.621 476.024 271.398 476.285 271.23C476.545 271.06 476.881 270.974 477.293 270.974C477.663 270.974 477.986 271.05 478.263 271.202C478.54 271.351 478.755 271.578 478.909 271.884C479.063 272.187 479.14 272.57 479.14 273.034V276.5H478.302V273.091C478.302 272.662 478.191 272.329 477.968 272.089C477.746 271.848 477.44 271.727 477.052 271.727C476.784 271.727 476.545 271.785 476.335 271.901C476.126 272.017 475.962 272.187 475.841 272.409C475.72 272.632 475.66 272.902 475.66 273.219ZM482.958 276.614C482.433 276.614 481.979 276.498 481.598 276.266C481.219 276.031 480.927 275.705 480.721 275.286C480.517 274.864 480.416 274.374 480.416 273.815C480.416 273.257 480.517 272.764 480.721 272.338C480.927 271.91 481.213 271.576 481.58 271.337C481.95 271.095 482.381 270.974 482.873 270.974C483.157 270.974 483.438 271.022 483.715 271.116C483.992 271.211 484.244 271.365 484.471 271.578C484.698 271.789 484.879 272.068 485.014 272.416C485.149 272.764 485.217 273.193 485.217 273.702V274.057H481.012V273.332H484.365C484.365 273.025 484.303 272.75 484.18 272.509C484.059 272.267 483.886 272.076 483.661 271.937C483.439 271.797 483.176 271.727 482.873 271.727C482.539 271.727 482.25 271.81 482.007 271.976C481.765 272.139 481.579 272.352 481.449 272.615C481.319 272.878 481.254 273.16 481.254 273.46V273.943C481.254 274.355 481.325 274.704 481.467 274.991C481.611 275.275 481.811 275.491 482.067 275.641C482.323 275.787 482.62 275.861 482.958 275.861C483.178 275.861 483.377 275.83 483.555 275.768C483.735 275.705 483.89 275.61 484.02 275.484C484.15 275.357 484.251 275.198 484.322 275.009L485.132 275.236C485.046 275.51 484.903 275.752 484.702 275.96C484.501 276.166 484.252 276.327 483.956 276.443C483.66 276.557 483.328 276.614 482.958 276.614ZM488.551 276.614C488.097 276.614 487.695 276.499 487.347 276.269C486.999 276.037 486.727 275.71 486.531 275.289C486.334 274.865 486.236 274.365 486.236 273.787C486.236 273.214 486.334 272.717 486.531 272.295C486.727 271.874 487.001 271.549 487.351 271.319C487.701 271.089 488.106 270.974 488.566 270.974C488.921 270.974 489.201 271.034 489.407 271.152C489.615 271.268 489.774 271.401 489.883 271.55C489.994 271.696 490.081 271.817 490.142 271.912H490.213V269.227H491.051V276.5H490.242V275.662H490.142C490.081 275.761 489.993 275.887 489.879 276.038C489.766 276.187 489.604 276.321 489.393 276.44C489.182 276.556 488.902 276.614 488.551 276.614ZM488.665 275.861C489.001 275.861 489.285 275.773 489.517 275.598C489.749 275.42 489.926 275.175 490.046 274.863C490.167 274.548 490.227 274.185 490.227 273.773C490.227 273.366 490.168 273.009 490.05 272.704C489.932 272.396 489.756 272.157 489.524 271.987C489.292 271.814 489.006 271.727 488.665 271.727C488.31 271.727 488.014 271.818 487.777 272.001C487.543 272.181 487.366 272.426 487.248 272.736C487.132 273.044 487.074 273.389 487.074 273.773C487.074 274.161 487.133 274.514 487.252 274.831C487.372 275.146 487.55 275.397 487.784 275.584C488.021 275.768 488.315 275.861 488.665 275.861ZM497.887 271.045V271.756H495.061V271.045H497.887ZM495.884 269.739H496.722V274.938C496.722 275.174 496.757 275.352 496.825 275.47C496.896 275.586 496.986 275.664 497.095 275.705C497.207 275.742 497.324 275.761 497.447 275.761C497.539 275.761 497.615 275.757 497.674 275.747C497.733 275.735 497.781 275.726 497.816 275.719L497.987 276.472C497.93 276.493 497.851 276.514 497.749 276.536C497.647 276.559 497.518 276.571 497.362 276.571C497.125 276.571 496.893 276.52 496.666 276.418C496.441 276.317 496.254 276.161 496.105 275.953C495.958 275.745 495.884 275.482 495.884 275.165V269.739ZM501.305 276.614C500.813 276.614 500.381 276.496 500.009 276.262C499.64 276.028 499.351 275.7 499.143 275.278C498.937 274.857 498.834 274.365 498.834 273.801C498.834 273.233 498.937 272.737 499.143 272.313C499.351 271.889 499.64 271.56 500.009 271.326C500.381 271.092 500.813 270.974 501.305 270.974C501.798 270.974 502.229 271.092 502.598 271.326C502.97 271.56 503.258 271.889 503.464 272.313C503.673 272.737 503.777 273.233 503.777 273.801C503.777 274.365 503.673 274.857 503.464 275.278C503.258 275.7 502.97 276.028 502.598 276.262C502.229 276.496 501.798 276.614 501.305 276.614ZM501.305 275.861C501.679 275.861 501.987 275.765 502.229 275.573C502.47 275.381 502.649 275.129 502.765 274.817C502.881 274.504 502.939 274.166 502.939 273.801C502.939 273.437 502.881 273.097 502.765 272.782C502.649 272.467 502.47 272.213 502.229 272.018C501.987 271.824 501.679 271.727 501.305 271.727C500.931 271.727 500.623 271.824 500.382 272.018C500.14 272.213 499.962 272.467 499.846 272.782C499.73 273.097 499.672 273.437 499.672 273.801C499.672 274.166 499.73 274.504 499.846 274.817C499.962 275.129 500.14 275.381 500.382 275.573C500.623 275.765 500.931 275.861 501.305 275.861ZM510.07 278.659C509.665 278.659 509.317 278.607 509.026 278.503C508.735 278.401 508.492 278.266 508.298 278.098C508.107 277.932 507.954 277.755 507.84 277.565L508.508 277.097C508.584 277.196 508.679 277.31 508.795 277.438C508.911 277.568 509.07 277.68 509.271 277.775C509.475 277.872 509.741 277.92 510.07 277.92C510.511 277.92 510.874 277.814 511.161 277.601C511.447 277.388 511.59 277.054 511.59 276.599V275.491H511.519C511.458 275.591 511.37 275.714 511.256 275.861C511.145 276.005 510.984 276.134 510.773 276.248C510.565 276.359 510.283 276.415 509.928 276.415C509.488 276.415 509.093 276.311 508.742 276.102C508.394 275.894 508.118 275.591 507.915 275.193C507.714 274.795 507.613 274.312 507.613 273.744C507.613 273.186 507.711 272.699 507.908 272.285C508.104 271.868 508.378 271.546 508.728 271.319C509.078 271.089 509.483 270.974 509.942 270.974C510.298 270.974 510.579 271.034 510.788 271.152C510.998 271.268 511.159 271.401 511.271 271.55C511.384 271.696 511.472 271.817 511.533 271.912H511.619V271.045H512.428V276.656C512.428 277.125 512.322 277.506 512.109 277.8C511.898 278.096 511.614 278.312 511.256 278.45C510.901 278.589 510.506 278.659 510.07 278.659ZM510.042 275.662C510.378 275.662 510.662 275.585 510.894 275.431C511.126 275.277 511.303 275.056 511.423 274.767C511.544 274.478 511.604 274.133 511.604 273.73C511.604 273.337 511.545 272.99 511.427 272.69C511.308 272.389 511.133 272.153 510.901 271.983C510.669 271.812 510.383 271.727 510.042 271.727C509.687 271.727 509.391 271.817 509.154 271.997C508.92 272.177 508.743 272.419 508.625 272.722C508.509 273.025 508.451 273.361 508.451 273.73C508.451 274.109 508.51 274.444 508.629 274.735C508.749 275.024 508.927 275.251 509.161 275.417C509.398 275.58 509.692 275.662 510.042 275.662ZM513.962 276.5V271.045H514.772V271.869H514.829C514.928 271.599 515.108 271.38 515.369 271.212C515.629 271.044 515.923 270.96 516.249 270.96C516.311 270.96 516.388 270.961 516.48 270.964C516.572 270.966 516.642 270.97 516.69 270.974V271.827C516.661 271.82 516.596 271.809 516.494 271.795C516.395 271.778 516.29 271.77 516.178 271.77C515.913 271.77 515.676 271.826 515.468 271.937C515.262 272.046 515.099 272.197 514.978 272.391C514.86 272.583 514.8 272.802 514.8 273.048V276.5H513.962ZM517.683 276.5V271.045H518.521V276.5H517.683ZM518.109 270.136C517.946 270.136 517.805 270.081 517.687 269.969C517.571 269.858 517.513 269.724 517.513 269.568C517.513 269.412 517.571 269.278 517.687 269.167C517.805 269.056 517.946 269 518.109 269C518.273 269 518.412 269.056 518.528 269.167C518.647 269.278 518.706 269.412 518.706 269.568C518.706 269.724 518.647 269.858 518.528 269.969C518.412 270.081 518.273 270.136 518.109 270.136ZM522.116 276.614C521.661 276.614 521.26 276.499 520.912 276.269C520.564 276.037 520.292 275.71 520.095 275.289C519.899 274.865 519.8 274.365 519.8 273.787C519.8 273.214 519.899 272.717 520.095 272.295C520.292 271.874 520.565 271.549 520.915 271.319C521.266 271.089 521.671 270.974 522.13 270.974C522.485 270.974 522.766 271.034 522.972 271.152C523.18 271.268 523.339 271.401 523.447 271.55C523.559 271.696 523.645 271.817 523.707 271.912H523.778V269.227H524.616V276.5H523.806V275.662H523.707C523.645 275.761 523.558 275.887 523.444 276.038C523.33 276.187 523.168 276.321 522.957 276.44C522.747 276.556 522.466 276.614 522.116 276.614ZM522.229 275.861C522.566 275.861 522.85 275.773 523.082 275.598C523.314 275.42 523.49 275.175 523.611 274.863C523.732 274.548 523.792 274.185 523.792 273.773C523.792 273.366 523.733 273.009 523.614 272.704C523.496 272.396 523.321 272.157 523.089 271.987C522.857 271.814 522.57 271.727 522.229 271.727C521.874 271.727 521.578 271.818 521.342 272.001C521.107 272.181 520.931 272.426 520.812 272.736C520.696 273.044 520.638 273.389 520.638 273.773C520.638 274.161 520.698 274.514 520.816 274.831C520.937 275.146 521.114 275.397 521.349 275.584C521.585 275.768 521.879 275.861 522.229 275.861Z" fill="white"/>
<defs>
<filter id="filter0_d_3153_17767" x="179.5" y="28.5" width="372" height="208" filterUnits="userSpaceOnUse" color-interpolation-filters="sRGB">
<feFlood flood-opacity="0" result="BackgroundImageFix"/>
<feColorMatrix in="SourceAlpha" type="matrix" values="0 0 0 0 0 0 0 0 0 0 0 0 0 0 0 0 0 0 127 0" result="hardAlpha"/>
<feOffset dy="2"/>
<feGaussianBlur stdDeviation="2"/>
<feComposite in2="hardAlpha" operator="out"/>
<feColorMatrix type="matrix" values="0 0 0 0 0.435294 0 0 0 0 0.470588 0 0 0 0 0.501961 0 0 0 0.3 0"/>
<feBlend mode="normal" in2="BackgroundImageFix" result="effect1_dropShadow_3153_17767"/>
<feBlend mode="normal" in="SourceGraphic" in2="effect1_dropShadow_3153_17767" result="shape"/>
</filter>
<filter id="filter1_d_3153_17767" x="179.5" y="292.5" width="372" height="208" filterUnits="userSpaceOnUse" color-interpolation-filters="sRGB">
<feFlood flood-opacity="0" result="BackgroundImageFix"/>
<feColorMatrix in="SourceAlpha" type="matrix" values="0 0 0 0 0 0 0 0 0 0 0 0 0 0 0 0 0 0 127 0" result="hardAlpha"/>
<feOffset dy="2"/>
<feGaussianBlur stdDeviation="2"/>
<feComposite in2="hardAlpha" operator="out"/>
<feColorMatrix type="matrix" values="0 0 0 0 0.435294 0 0 0 0 0.470588 0 0 0 0 0.501961 0 0 0 0.3 0"/>
<feBlend mode="normal" in2="BackgroundImageFix" result="effect1_dropShadow_3153_17767"/>
<feBlend mode="normal" in="SourceGraphic" in2="effect1_dropShadow_3153_17767" result="shape"/>
</filter>
</defs>
</svg>
