<svg width="372" height="472" viewBox="0 0 372 472" fill="none" xmlns="http://www.w3.org/2000/svg">
<g filter="url(#filter0_d_5583_675)">
<rect width="364" height="200" transform="translate(4 2)" fill="#FF0000" fill-opacity="0.1"/>
<rect width="16" height="200" transform="translate(4 2)" fill="white"/>
<rect opacity="0.1" x="4" y="2" width="16" height="200" fill="white"/>
<rect width="4" height="200" transform="translate(44 2)" fill="white"/>
<rect opacity="0.1" x="44" y="2" width="4" height="200" fill="white"/>
<rect width="4" height="200" transform="translate(72 2)" fill="white"/>
<rect opacity="0.1" x="72" y="2" width="4" height="200" fill="white"/>
<rect width="4" height="200" transform="translate(100 2)" fill="white"/>
<rect opacity="0.1" x="100" y="2" width="4" height="200" fill="white"/>
<rect width="4" height="200" transform="translate(128 2)" fill="white"/>
<rect opacity="0.1" x="128" y="2" width="4" height="200" fill="white"/>
<rect width="4" height="200" transform="translate(156 2)" fill="white"/>
<rect opacity="0.1" x="156" y="2" width="4" height="200" fill="white"/>
<rect width="4" height="200" transform="translate(184 2)" fill="white"/>
<rect opacity="0.1" x="184" y="2" width="4" height="200" fill="white"/>
<rect width="4" height="200" transform="translate(212 2)" fill="white"/>
<rect opacity="0.1" x="212" y="2" width="4" height="200" fill="white"/>
<rect width="4" height="200" transform="translate(240 2)" fill="white"/>
<rect opacity="0.1" x="240" y="2" width="4" height="200" fill="white"/>
<rect width="4" height="200" transform="translate(268 2)" fill="white"/>
<rect opacity="0.1" x="268" y="2" width="4" height="200" fill="white"/>
<rect width="4" height="200" transform="translate(296 2)" fill="white"/>
<rect opacity="0.1" x="296" y="2" width="4" height="200" fill="white"/>
<rect width="4" height="200" transform="translate(324 2)" fill="white"/>
<rect opacity="0.1" x="324" y="2" width="4" height="200" fill="white"/>
<rect width="16" height="200" transform="translate(352 2)" fill="white"/>
<rect opacity="0.1" x="352" y="2" width="16" height="200" fill="white"/>
<rect opacity="0.3" x="20" y="10" width="332" height="40" fill="#6F7880"/>
<rect opacity="0.3" x="48" y="58" width="220" height="136" fill="#6F7880"/>
<g opacity="0.6">
<rect x="276" y="65" width="72" height="122" fill="#3A7DFF"/>
<path d="M306.429 128.5L308.589 122H309.609L311.769 128.5H310.799L310.259 126.84H307.889L307.349 128.5H306.429ZM308.159 125.98H309.989L309.079 123.14L308.159 125.98ZM314.61 128.62C313.983 128.62 313.483 128.397 313.11 127.95C312.737 127.503 312.55 126.9 312.55 126.14C312.55 125.38 312.737 124.777 313.11 124.33C313.483 123.883 313.983 123.66 314.61 123.66C314.863 123.66 315.117 123.7 315.37 123.78C315.623 123.86 315.87 123.98 316.11 124.14V121.4H317.01V128.5H316.34L316.25 128.04C315.723 128.427 315.177 128.62 314.61 128.62ZM314.8 127.78C315.02 127.78 315.243 127.743 315.47 127.67C315.697 127.597 315.91 127.493 316.11 127.36V124.92C315.91 124.78 315.697 124.673 315.47 124.6C315.243 124.527 315.02 124.49 314.8 124.49C314.373 124.49 314.043 124.637 313.81 124.93C313.583 125.217 313.47 125.62 313.47 126.14C313.47 126.66 313.583 127.063 313.81 127.35C314.043 127.637 314.373 127.78 314.8 127.78Z" fill="white"/>
</g>
<rect x="272" y="58" width="80" height="136" stroke="#3A7DFF" stroke-width="0.5" stroke-dasharray="2 2"/>
</g>
<g filter="url(#filter1_d_5583_675)">
<rect width="364" height="200" transform="translate(4 266)" fill="#FF0000" fill-opacity="0.1"/>
<rect width="16" height="200" transform="translate(4 266)" fill="white"/>
<rect opacity="0.1" x="4" y="266" width="16" height="200" fill="white"/>
<rect width="4" height="200" transform="translate(44 266)" fill="white"/>
<rect opacity="0.1" x="44" y="266" width="4" height="200" fill="white"/>
<rect width="4" height="200" transform="translate(72 266)" fill="white"/>
<rect opacity="0.1" x="72" y="266" width="4" height="200" fill="white"/>
<rect width="4" height="200" transform="translate(100 266)" fill="white"/>
<rect opacity="0.1" x="100" y="266" width="4" height="200" fill="white"/>
<rect width="4" height="200" transform="translate(128 266)" fill="white"/>
<rect opacity="0.1" x="128" y="266" width="4" height="200" fill="white"/>
<rect width="4" height="200" transform="translate(156 266)" fill="white"/>
<rect opacity="0.1" x="156" y="266" width="4" height="200" fill="white"/>
<rect width="4" height="200" transform="translate(184 266)" fill="white"/>
<rect opacity="0.1" x="184" y="266" width="4" height="200" fill="white"/>
<rect width="4" height="200" transform="translate(212 266)" fill="white"/>
<rect opacity="0.1" x="212" y="266" width="4" height="200" fill="white"/>
<rect width="4" height="200" transform="translate(240 266)" fill="white"/>
<rect opacity="0.1" x="240" y="266" width="4" height="200" fill="white"/>
<rect width="4" height="200" transform="translate(268 266)" fill="white"/>
<rect opacity="0.1" x="268" y="266" width="4" height="200" fill="white"/>
<rect width="4" height="200" transform="translate(296 266)" fill="white"/>
<rect opacity="0.1" x="296" y="266" width="4" height="200" fill="white"/>
<rect width="4" height="200" transform="translate(324 266)" fill="white"/>
<rect opacity="0.1" x="324" y="266" width="4" height="200" fill="white"/>
<rect width="16" height="200" transform="translate(352 266)" fill="white"/>
<rect opacity="0.1" x="352" y="266" width="16" height="200" fill="white"/>
<g opacity="0.8">
<rect opacity="0.3" x="4" y="298" width="364" height="136" fill="#6F7880"/>
</g>
<rect opacity="0.5" x="76" y="313" width="108" height="105" fill="#6F7880"/>
<rect x="188.5" y="313.5" width="107" height="104" stroke="#3A7DFF" stroke-dasharray="2 2"/>
<rect x="206" y="345" width="33" height="2" fill="black" fill-opacity="0.15"/>
<rect x="206" y="351" width="68" height="6" fill="#6F7880"/>
<rect x="206" y="371" width="77" height="4" fill="black" fill-opacity="0.15"/>
<rect x="206" y="377" width="86" height="4" fill="black" fill-opacity="0.15"/>
<rect x="206" y="383" width="59" height="4" fill="black" fill-opacity="0.15"/>
</g>
<path d="M281 284L281 308H279L279 284H281Z" fill="#4D5359"/>
<path d="M280 313C278.895 313 274 308.105 274 307C274 305.895 278.895 301 280 301C281.105 301 286 305.895 286 307C286 308.105 281.105 313 280 313Z" fill="#4D5359"/>
<path d="M312 223L312 199H314L314 223H312Z" fill="#4D5359"/>
<path d="M313 194C314.105 194 319 198.895 319 200C319 201.105 314.105 206 313 206C311.895 206 307 201.105 307 200C307 198.895 311.895 194 313 194Z" fill="#4D5359"/>
<rect x="279" y="256" width="2" height="28" fill="#4D5359"/>
<rect x="312" y="212" width="2" height="24" fill="#4D5359"/>
<rect x="213" y="232" width="149" height="24" rx="12" fill="#494949"/>
<path d="M235.877 243H234.997C234.945 242.747 234.854 242.524 234.723 242.332C234.596 242.141 234.439 241.98 234.255 241.849C234.072 241.717 233.87 241.617 233.647 241.551C233.425 241.485 233.193 241.452 232.951 241.452C232.511 241.452 232.112 241.563 231.755 241.786C231.4 242.008 231.117 242.336 230.906 242.769C230.698 243.202 230.593 243.734 230.593 244.364C230.593 244.993 230.698 245.525 230.906 245.958C231.117 246.391 231.4 246.719 231.755 246.942C232.112 247.164 232.511 247.276 232.951 247.276C233.193 247.276 233.425 247.242 233.647 247.176C233.87 247.11 234.072 247.012 234.255 246.881C234.439 246.749 234.596 246.587 234.723 246.395C234.854 246.201 234.945 245.978 234.997 245.727H235.877C235.811 246.099 235.69 246.432 235.515 246.725C235.34 247.019 235.122 247.268 234.862 247.474C234.601 247.678 234.309 247.833 233.985 247.94C233.663 248.046 233.318 248.099 232.951 248.099C232.331 248.099 231.779 247.948 231.297 247.645C230.814 247.342 230.434 246.911 230.157 246.352C229.88 245.794 229.741 245.131 229.741 244.364C229.741 243.597 229.88 242.934 230.157 242.375C230.434 241.816 230.814 241.385 231.297 241.082C231.779 240.779 232.331 240.628 232.951 240.628C233.318 240.628 233.663 240.681 233.985 240.788C234.309 240.894 234.601 241.05 234.862 241.256C235.122 241.46 235.34 241.709 235.515 242.002C235.69 242.293 235.811 242.626 235.877 243ZM239.403 248.114C238.91 248.114 238.478 247.996 238.107 247.762C237.737 247.528 237.449 247.2 237.24 246.778C237.034 246.357 236.931 245.865 236.931 245.301C236.931 244.733 237.034 244.237 237.24 243.813C237.449 243.389 237.737 243.06 238.107 242.826C238.478 242.592 238.91 242.474 239.403 242.474C239.895 242.474 240.326 242.592 240.695 242.826C241.067 243.06 241.356 243.389 241.562 243.813C241.77 244.237 241.874 244.733 241.874 245.301C241.874 245.865 241.77 246.357 241.562 246.778C241.356 247.2 241.067 247.528 240.695 247.762C240.326 247.996 239.895 248.114 239.403 248.114ZM239.403 247.361C239.777 247.361 240.085 247.265 240.326 247.073C240.568 246.881 240.746 246.629 240.862 246.317C240.978 246.004 241.036 245.666 241.036 245.301C241.036 244.937 240.978 244.597 240.862 244.282C240.746 243.967 240.568 243.713 240.326 243.518C240.085 243.324 239.777 243.227 239.403 243.227C239.029 243.227 238.721 243.324 238.48 243.518C238.238 243.713 238.059 243.967 237.943 244.282C237.827 244.597 237.769 244.937 237.769 245.301C237.769 245.666 237.827 246.004 237.943 246.317C238.059 246.629 238.238 246.881 238.48 247.073C238.721 247.265 239.029 247.361 239.403 247.361ZM243.992 244.719V248H243.154V242.545H243.963V243.398H244.034C244.162 243.121 244.356 242.898 244.617 242.73C244.877 242.56 245.213 242.474 245.625 242.474C245.995 242.474 246.318 242.55 246.595 242.702C246.872 242.851 247.087 243.078 247.241 243.384C247.395 243.687 247.472 244.07 247.472 244.534V248H246.634V244.591C246.634 244.162 246.523 243.829 246.3 243.589C246.078 243.348 245.772 243.227 245.384 243.227C245.116 243.227 244.877 243.285 244.667 243.401C244.458 243.517 244.294 243.687 244.173 243.909C244.052 244.132 243.992 244.402 243.992 244.719ZM251.376 242.545V243.256H248.549V242.545H251.376ZM249.373 241.239H250.211V246.438C250.211 246.674 250.245 246.852 250.314 246.97C250.385 247.086 250.475 247.164 250.584 247.205C250.695 247.242 250.812 247.261 250.935 247.261C251.028 247.261 251.103 247.257 251.162 247.247C251.222 247.235 251.269 247.226 251.305 247.219L251.475 247.972C251.418 247.993 251.339 248.014 251.237 248.036C251.135 248.059 251.006 248.071 250.85 248.071C250.613 248.071 250.381 248.02 250.154 247.918C249.929 247.817 249.742 247.661 249.593 247.453C249.446 247.245 249.373 246.982 249.373 246.665V241.239ZM254.241 248.128C253.896 248.128 253.582 248.063 253.3 247.933C253.019 247.8 252.795 247.609 252.629 247.361C252.463 247.11 252.381 246.807 252.381 246.452C252.381 246.139 252.442 245.886 252.565 245.692C252.688 245.495 252.853 245.341 253.059 245.23C253.265 245.119 253.492 245.036 253.741 244.982C253.992 244.925 254.244 244.88 254.497 244.847C254.828 244.804 255.097 244.772 255.303 244.751C255.511 244.727 255.663 244.688 255.758 244.634C255.855 244.579 255.903 244.484 255.903 244.349V244.321C255.903 243.971 255.807 243.698 255.616 243.504C255.426 243.31 255.139 243.213 254.753 243.213C254.353 243.213 254.039 243.301 253.812 243.476C253.584 243.651 253.425 243.838 253.332 244.037L252.537 243.753C252.679 243.421 252.868 243.163 253.105 242.979C253.344 242.792 253.604 242.661 253.886 242.588C254.17 242.512 254.45 242.474 254.724 242.474C254.899 242.474 255.101 242.496 255.328 242.538C255.558 242.579 255.779 242.663 255.992 242.79C256.207 242.918 256.386 243.111 256.528 243.369C256.67 243.627 256.741 243.973 256.741 244.406V248H255.903V247.261H255.861C255.804 247.38 255.709 247.506 255.577 247.641C255.444 247.776 255.268 247.891 255.047 247.986C254.827 248.08 254.559 248.128 254.241 248.128ZM254.369 247.375C254.701 247.375 254.98 247.31 255.207 247.18C255.437 247.049 255.61 246.881 255.726 246.675C255.844 246.469 255.903 246.253 255.903 246.026V245.259C255.868 245.301 255.79 245.34 255.669 245.376C255.55 245.409 255.413 245.438 255.257 245.464C255.103 245.488 254.953 245.509 254.806 245.528C254.662 245.545 254.544 245.559 254.454 245.571C254.237 245.599 254.033 245.646 253.844 245.71C253.657 245.771 253.505 245.865 253.389 245.99C253.275 246.113 253.219 246.281 253.219 246.494C253.219 246.786 253.326 247.006 253.542 247.155C253.76 247.302 254.035 247.375 254.369 247.375ZM258.271 248V242.545H259.109V248H258.271ZM258.697 241.636C258.534 241.636 258.393 241.581 258.275 241.469C258.158 241.358 258.1 241.224 258.1 241.068C258.1 240.912 258.158 240.778 258.275 240.667C258.393 240.556 258.534 240.5 258.697 240.5C258.86 240.5 259 240.556 259.116 240.667C259.234 240.778 259.294 240.912 259.294 241.068C259.294 241.224 259.234 241.358 259.116 241.469C259 241.581 258.86 241.636 258.697 241.636ZM261.482 244.719V248H260.644V242.545H261.454V243.398H261.525C261.653 243.121 261.847 242.898 262.107 242.73C262.367 242.56 262.704 242.474 263.116 242.474C263.485 242.474 263.808 242.55 264.085 242.702C264.362 242.851 264.577 243.078 264.731 243.384C264.885 243.687 264.962 244.07 264.962 244.534V248H264.124V244.591C264.124 244.162 264.013 243.829 263.79 243.589C263.568 243.348 263.262 243.227 262.874 243.227C262.607 243.227 262.367 243.285 262.157 243.401C261.948 243.517 261.784 243.687 261.663 243.909C261.542 244.132 261.482 244.402 261.482 244.719ZM268.781 248.114C268.255 248.114 267.802 247.998 267.42 247.766C267.042 247.531 266.749 247.205 266.543 246.786C266.34 246.364 266.238 245.874 266.238 245.315C266.238 244.757 266.34 244.264 266.543 243.838C266.749 243.41 267.036 243.076 267.403 242.837C267.772 242.595 268.203 242.474 268.695 242.474C268.979 242.474 269.26 242.522 269.537 242.616C269.814 242.711 270.066 242.865 270.293 243.078C270.521 243.289 270.702 243.568 270.837 243.916C270.972 244.264 271.039 244.693 271.039 245.202V245.557H266.835V244.832H270.187C270.187 244.525 270.125 244.25 270.002 244.009C269.881 243.767 269.709 243.576 269.484 243.437C269.261 243.297 268.998 243.227 268.695 243.227C268.362 243.227 268.073 243.31 267.829 243.476C267.587 243.639 267.402 243.852 267.271 244.115C267.141 244.378 267.076 244.66 267.076 244.96V245.443C267.076 245.855 267.147 246.204 267.289 246.491C267.433 246.775 267.634 246.991 267.889 247.141C268.145 247.287 268.442 247.361 268.781 247.361C269.001 247.361 269.2 247.33 269.377 247.268C269.557 247.205 269.712 247.11 269.842 246.984C269.973 246.857 270.073 246.698 270.144 246.509L270.954 246.736C270.869 247.01 270.725 247.252 270.524 247.46C270.323 247.666 270.074 247.827 269.778 247.943C269.482 248.057 269.15 248.114 268.781 248.114ZM272.314 248V242.545H273.124V243.369H273.18C273.28 243.099 273.46 242.88 273.72 242.712C273.981 242.544 274.274 242.46 274.601 242.46C274.662 242.46 274.739 242.461 274.832 242.464C274.924 242.466 274.994 242.47 275.041 242.474V243.327C275.013 243.32 274.948 243.309 274.846 243.295C274.746 243.278 274.641 243.27 274.53 243.27C274.265 243.27 274.028 243.326 273.82 243.437C273.614 243.546 273.45 243.697 273.33 243.891C273.211 244.083 273.152 244.302 273.152 244.548V248H272.314ZM280.452 248.128C280.107 248.128 279.793 248.063 279.511 247.933C279.229 247.8 279.006 247.609 278.84 247.361C278.674 247.11 278.591 246.807 278.591 246.452C278.591 246.139 278.653 245.886 278.776 245.692C278.899 245.495 279.064 245.341 279.27 245.23C279.476 245.119 279.703 245.036 279.952 244.982C280.202 244.925 280.455 244.88 280.708 244.847C281.039 244.804 281.308 244.772 281.514 244.751C281.722 244.727 281.874 244.688 281.969 244.634C282.066 244.579 282.114 244.484 282.114 244.349V244.321C282.114 243.971 282.018 243.698 281.827 243.504C281.637 243.31 281.349 243.213 280.964 243.213C280.564 243.213 280.25 243.301 280.023 243.476C279.795 243.651 279.635 243.838 279.543 244.037L278.748 243.753C278.89 243.421 279.079 243.163 279.316 242.979C279.555 242.792 279.815 242.661 280.097 242.588C280.381 242.512 280.661 242.474 280.935 242.474C281.11 242.474 281.312 242.496 281.539 242.538C281.769 242.579 281.99 242.663 282.203 242.79C282.418 242.918 282.597 243.111 282.739 243.369C282.881 243.627 282.952 243.973 282.952 244.406V248H282.114V247.261H282.072C282.015 247.38 281.92 247.506 281.787 247.641C281.655 247.776 281.479 247.891 281.258 247.986C281.038 248.08 280.769 248.128 280.452 248.128ZM280.58 247.375C280.912 247.375 281.191 247.31 281.418 247.18C281.648 247.049 281.821 246.881 281.937 246.675C282.055 246.469 282.114 246.253 282.114 246.026V245.259C282.079 245.301 282.001 245.34 281.88 245.376C281.761 245.409 281.624 245.438 281.468 245.464C281.314 245.488 281.164 245.509 281.017 245.528C280.872 245.545 280.755 245.559 280.665 245.571C280.448 245.599 280.244 245.646 280.055 245.71C279.867 245.771 279.716 245.865 279.6 245.99C279.486 246.113 279.43 246.281 279.43 246.494C279.43 246.786 279.537 247.006 279.753 247.155C279.97 247.302 280.246 247.375 280.58 247.375ZM285.32 240.727V248H284.482V240.727H285.32ZM286.855 248V242.545H287.693V248H286.855ZM287.281 241.636C287.118 241.636 286.977 241.581 286.858 241.469C286.742 241.358 286.684 241.224 286.684 241.068C286.684 240.912 286.742 240.778 286.858 240.667C286.977 240.556 287.118 240.5 287.281 240.5C287.444 240.5 287.584 240.556 287.7 240.667C287.818 240.778 287.878 240.912 287.878 241.068C287.878 241.224 287.818 241.358 287.7 241.469C287.584 241.581 287.444 241.636 287.281 241.636ZM291.43 250.159C291.025 250.159 290.677 250.107 290.386 250.003C290.094 249.901 289.852 249.766 289.658 249.598C289.466 249.432 289.313 249.255 289.2 249.065L289.867 248.597C289.943 248.696 290.039 248.81 290.155 248.938C290.271 249.068 290.429 249.18 290.631 249.275C290.834 249.372 291.101 249.42 291.43 249.42C291.87 249.42 292.233 249.314 292.52 249.101C292.806 248.888 292.95 248.554 292.95 248.099V246.991H292.879C292.817 247.091 292.729 247.214 292.616 247.361C292.504 247.505 292.344 247.634 292.133 247.748C291.924 247.859 291.643 247.915 291.288 247.915C290.847 247.915 290.452 247.811 290.102 247.602C289.754 247.394 289.478 247.091 289.274 246.693C289.073 246.295 288.972 245.812 288.972 245.244C288.972 244.686 289.071 244.199 289.267 243.785C289.464 243.368 289.737 243.046 290.087 242.819C290.438 242.589 290.843 242.474 291.302 242.474C291.657 242.474 291.939 242.534 292.147 242.652C292.358 242.768 292.519 242.901 292.63 243.05C292.744 243.196 292.831 243.317 292.893 243.412H292.978V242.545H293.788V248.156C293.788 248.625 293.681 249.006 293.468 249.3C293.257 249.596 292.973 249.812 292.616 249.95C292.261 250.089 291.865 250.159 291.43 250.159ZM291.401 247.162C291.737 247.162 292.022 247.085 292.254 246.931C292.486 246.777 292.662 246.556 292.783 246.267C292.903 245.978 292.964 245.633 292.964 245.23C292.964 244.837 292.905 244.49 292.786 244.19C292.668 243.889 292.493 243.653 292.261 243.483C292.029 243.312 291.742 243.227 291.401 243.227C291.046 243.227 290.75 243.317 290.513 243.497C290.279 243.677 290.103 243.919 289.984 244.222C289.868 244.525 289.81 244.861 289.81 245.23C289.81 245.609 289.87 245.944 289.988 246.235C290.109 246.524 290.286 246.751 290.521 246.917C290.757 247.08 291.051 247.162 291.401 247.162ZM296.16 244.719V248H295.322V242.545H296.131V243.398H296.202C296.33 243.121 296.524 242.898 296.785 242.73C297.045 242.56 297.381 242.474 297.793 242.474C298.163 242.474 298.486 242.55 298.763 242.702C299.04 242.851 299.255 243.078 299.409 243.384C299.563 243.687 299.64 244.07 299.64 244.534V248H298.802V244.591C298.802 244.162 298.691 243.829 298.468 243.589C298.246 243.348 297.94 243.227 297.552 243.227C297.284 243.227 297.045 243.285 296.835 243.401C296.626 243.517 296.462 243.687 296.341 243.909C296.22 244.132 296.16 244.402 296.16 244.719ZM303.458 248.114C302.933 248.114 302.479 247.998 302.098 247.766C301.719 247.531 301.427 247.205 301.221 246.786C301.017 246.364 300.916 245.874 300.916 245.315C300.916 244.757 301.017 244.264 301.221 243.838C301.427 243.41 301.713 243.076 302.08 242.837C302.45 242.595 302.881 242.474 303.373 242.474C303.657 242.474 303.938 242.522 304.215 242.616C304.492 242.711 304.744 242.865 304.971 243.078C305.198 243.289 305.379 243.568 305.514 243.916C305.649 244.264 305.717 244.693 305.717 245.202V245.557H301.512V244.832H304.865C304.865 244.525 304.803 244.25 304.68 244.009C304.559 243.767 304.386 243.576 304.161 243.437C303.939 243.297 303.676 243.227 303.373 243.227C303.039 243.227 302.75 243.31 302.507 243.476C302.265 243.639 302.079 243.852 301.949 244.115C301.819 244.378 301.754 244.66 301.754 244.96V245.443C301.754 245.855 301.825 246.204 301.967 246.491C302.111 246.775 302.311 246.991 302.567 247.141C302.823 247.287 303.12 247.361 303.458 247.361C303.678 247.361 303.877 247.33 304.055 247.268C304.235 247.205 304.39 247.11 304.52 246.984C304.65 246.857 304.751 246.698 304.822 246.509L305.632 246.736C305.546 247.01 305.403 247.252 305.202 247.46C305.001 247.666 304.752 247.827 304.456 247.943C304.16 248.057 303.828 248.114 303.458 248.114ZM309.051 248.114C308.597 248.114 308.195 247.999 307.847 247.769C307.499 247.537 307.227 247.21 307.031 246.789C306.834 246.365 306.736 245.865 306.736 245.287C306.736 244.714 306.834 244.217 307.031 243.795C307.227 243.374 307.501 243.049 307.851 242.819C308.201 242.589 308.606 242.474 309.066 242.474C309.421 242.474 309.701 242.534 309.907 242.652C310.115 242.768 310.274 242.901 310.383 243.05C310.494 243.196 310.581 243.317 310.642 243.412H310.713V240.727H311.551V248H310.742V247.162H310.642C310.581 247.261 310.493 247.387 310.379 247.538C310.266 247.687 310.104 247.821 309.893 247.94C309.682 248.056 309.402 248.114 309.051 248.114ZM309.165 247.361C309.501 247.361 309.785 247.273 310.017 247.098C310.249 246.92 310.426 246.675 310.546 246.363C310.667 246.048 310.727 245.685 310.727 245.273C310.727 244.866 310.668 244.509 310.55 244.204C310.432 243.896 310.256 243.657 310.024 243.487C309.792 243.314 309.506 243.227 309.165 243.227C308.81 243.227 308.514 243.318 308.277 243.501C308.043 243.681 307.866 243.926 307.748 244.236C307.632 244.544 307.574 244.889 307.574 245.273C307.574 245.661 307.633 246.014 307.752 246.331C307.872 246.646 308.05 246.897 308.284 247.084C308.521 247.268 308.815 247.361 309.165 247.361ZM318.387 242.545V243.256H315.561V242.545H318.387ZM316.384 241.239H317.222V246.438C317.222 246.674 317.257 246.852 317.325 246.97C317.396 247.086 317.486 247.164 317.595 247.205C317.707 247.242 317.824 247.261 317.947 247.261C318.039 247.261 318.115 247.257 318.174 247.247C318.233 247.235 318.281 247.226 318.316 247.219L318.487 247.972C318.43 247.993 318.351 248.014 318.249 248.036C318.147 248.059 318.018 248.071 317.862 248.071C317.625 248.071 317.393 248.02 317.166 247.918C316.941 247.817 316.754 247.661 316.605 247.453C316.458 247.245 316.384 246.982 316.384 246.665V241.239ZM321.805 248.114C321.313 248.114 320.881 247.996 320.509 247.762C320.14 247.528 319.851 247.2 319.643 246.778C319.437 246.357 319.334 245.865 319.334 245.301C319.334 244.733 319.437 244.237 319.643 243.813C319.851 243.389 320.14 243.06 320.509 242.826C320.881 242.592 321.313 242.474 321.805 242.474C322.298 242.474 322.729 242.592 323.098 242.826C323.47 243.06 323.758 243.389 323.964 243.813C324.173 244.237 324.277 244.733 324.277 245.301C324.277 245.865 324.173 246.357 323.964 246.778C323.758 247.2 323.47 247.528 323.098 247.762C322.729 247.996 322.298 248.114 321.805 248.114ZM321.805 247.361C322.179 247.361 322.487 247.265 322.729 247.073C322.97 246.881 323.149 246.629 323.265 246.317C323.381 246.004 323.439 245.666 323.439 245.301C323.439 244.937 323.381 244.597 323.265 244.282C323.149 243.967 322.97 243.713 322.729 243.518C322.487 243.324 322.179 243.227 321.805 243.227C321.431 243.227 321.123 243.324 320.882 243.518C320.64 243.713 320.462 243.967 320.346 244.282C320.23 244.597 320.172 244.937 320.172 245.301C320.172 245.666 320.23 246.004 320.346 246.317C320.462 246.629 320.64 246.881 320.882 247.073C321.123 247.265 321.431 247.361 321.805 247.361ZM330.57 250.159C330.165 250.159 329.817 250.107 329.526 250.003C329.235 249.901 328.992 249.766 328.798 249.598C328.607 249.432 328.454 249.255 328.34 249.065L329.008 248.597C329.084 248.696 329.179 248.81 329.295 248.938C329.411 249.068 329.57 249.18 329.771 249.275C329.975 249.372 330.241 249.42 330.57 249.42C331.011 249.42 331.374 249.314 331.661 249.101C331.947 248.888 332.09 248.554 332.09 248.099V246.991H332.019C331.958 247.091 331.87 247.214 331.756 247.361C331.645 247.505 331.484 247.634 331.273 247.748C331.065 247.859 330.783 247.915 330.428 247.915C329.988 247.915 329.593 247.811 329.242 247.602C328.894 247.394 328.618 247.091 328.415 246.693C328.214 246.295 328.113 245.812 328.113 245.244C328.113 244.686 328.211 244.199 328.408 243.785C328.604 243.368 328.878 243.046 329.228 242.819C329.578 242.589 329.983 242.474 330.442 242.474C330.798 242.474 331.079 242.534 331.288 242.652C331.498 242.768 331.659 242.901 331.771 243.05C331.884 243.196 331.972 243.317 332.033 243.412H332.119V242.545H332.928V248.156C332.928 248.625 332.822 249.006 332.609 249.3C332.398 249.596 332.114 249.812 331.756 249.95C331.401 250.089 331.006 250.159 330.57 250.159ZM330.542 247.162C330.878 247.162 331.162 247.085 331.394 246.931C331.626 246.777 331.803 246.556 331.923 246.267C332.044 245.978 332.104 245.633 332.104 245.23C332.104 244.837 332.045 244.49 331.927 244.19C331.808 243.889 331.633 243.653 331.401 243.483C331.169 243.312 330.883 243.227 330.542 243.227C330.187 243.227 329.891 243.317 329.654 243.497C329.42 243.677 329.243 243.919 329.125 244.222C329.009 244.525 328.951 244.861 328.951 245.23C328.951 245.609 329.01 245.944 329.129 246.235C329.249 246.524 329.427 246.751 329.661 246.917C329.898 247.08 330.192 247.162 330.542 247.162ZM334.462 248V242.545H335.272V243.369H335.329C335.428 243.099 335.608 242.88 335.869 242.712C336.129 242.544 336.423 242.46 336.749 242.46C336.811 242.46 336.888 242.461 336.98 242.464C337.072 242.466 337.142 242.47 337.19 242.474V243.327C337.161 243.32 337.096 243.309 336.994 243.295C336.895 243.278 336.79 243.27 336.678 243.27C336.413 243.27 336.176 243.326 335.968 243.437C335.762 243.546 335.599 243.697 335.478 243.891C335.36 244.083 335.3 244.302 335.3 244.548V248H334.462ZM338.183 248V242.545H339.021V248H338.183ZM338.609 241.636C338.446 241.636 338.305 241.581 338.187 241.469C338.071 241.358 338.013 241.224 338.013 241.068C338.013 240.912 338.071 240.778 338.187 240.667C338.305 240.556 338.446 240.5 338.609 240.5C338.773 240.5 338.912 240.556 339.028 240.667C339.147 240.778 339.206 240.912 339.206 241.068C339.206 241.224 339.147 241.358 339.028 241.469C338.912 241.581 338.773 241.636 338.609 241.636ZM342.616 248.114C342.161 248.114 341.76 247.999 341.412 247.769C341.064 247.537 340.792 247.21 340.595 246.789C340.399 246.365 340.3 245.865 340.3 245.287C340.3 244.714 340.399 244.217 340.595 243.795C340.792 243.374 341.065 243.049 341.415 242.819C341.766 242.589 342.171 242.474 342.63 242.474C342.985 242.474 343.266 242.534 343.472 242.652C343.68 242.768 343.839 242.901 343.947 243.05C344.059 243.196 344.145 243.317 344.207 243.412H344.278V240.727H345.116V248H344.306V247.162H344.207C344.145 247.261 344.058 247.387 343.944 247.538C343.83 247.687 343.668 247.821 343.457 247.94C343.247 248.056 342.966 248.114 342.616 248.114ZM342.729 247.361C343.066 247.361 343.35 247.273 343.582 247.098C343.814 246.92 343.99 246.675 344.111 246.363C344.232 246.048 344.292 245.685 344.292 245.273C344.292 244.866 344.233 244.509 344.114 244.204C343.996 243.896 343.821 243.657 343.589 243.487C343.357 243.314 343.07 243.227 342.729 243.227C342.374 243.227 342.078 243.318 341.842 243.501C341.607 243.681 341.431 243.926 341.312 244.236C341.196 244.544 341.138 244.889 341.138 245.273C341.138 245.661 341.198 246.014 341.316 246.331C341.437 246.646 341.614 246.897 341.849 247.084C342.085 247.268 342.379 247.361 342.729 247.361Z" fill="white"/>
<defs>
<filter id="filter0_d_5583_675" x="0" y="0" width="372" height="208" filterUnits="userSpaceOnUse" color-interpolation-filters="sRGB">
<feFlood flood-opacity="0" result="BackgroundImageFix"/>
<feColorMatrix in="SourceAlpha" type="matrix" values="0 0 0 0 0 0 0 0 0 0 0 0 0 0 0 0 0 0 127 0" result="hardAlpha"/>
<feOffset dy="2"/>
<feGaussianBlur stdDeviation="2"/>
<feComposite in2="hardAlpha" operator="out"/>
<feColorMatrix type="matrix" values="0 0 0 0 0.435294 0 0 0 0 0.470588 0 0 0 0 0.501961 0 0 0 0.3 0"/>
<feBlend mode="normal" in2="BackgroundImageFix" result="effect1_dropShadow_5583_675"/>
<feBlend mode="normal" in="SourceGraphic" in2="effect1_dropShadow_5583_675" result="shape"/>
</filter>
<filter id="filter1_d_5583_675" x="0" y="264" width="372" height="208" filterUnits="userSpaceOnUse" color-interpolation-filters="sRGB">
<feFlood flood-opacity="0" result="BackgroundImageFix"/>
<feColorMatrix in="SourceAlpha" type="matrix" values="0 0 0 0 0 0 0 0 0 0 0 0 0 0 0 0 0 0 127 0" result="hardAlpha"/>
<feOffset dy="2"/>
<feGaussianBlur stdDeviation="2"/>
<feComposite in2="hardAlpha" operator="out"/>
<feColorMatrix type="matrix" values="0 0 0 0 0.435294 0 0 0 0 0.470588 0 0 0 0 0.501961 0 0 0 0.3 0"/>
<feBlend mode="normal" in2="BackgroundImageFix" result="effect1_dropShadow_5583_675"/>
<feBlend mode="normal" in="SourceGraphic" in2="effect1_dropShadow_5583_675" result="shape"/>
</filter>
</defs>
</svg>
