<svg width="22" height="23" viewBox="0 0 22 23" fill="none" xmlns="http://www.w3.org/2000/svg">
<path fill-rule="evenodd" clip-rule="evenodd" d="M9.89968 3.87608C9.89968 4.48347 10.3926 4.9764 11 4.9764C11.6074 4.9764 12.1003 4.48347 12.1003 3.87608V1.67649C12.1003 1.0691 11.6074 0.576172 11 0.576172C10.3926 0.576172 9.89968 1.0691 9.89968 1.67649V3.87608ZM2.97809 3.55432C3.40708 3.12431 4.10417 3.12431 4.53316 3.55432L6.08926 5.1094C6.51824 5.53942 6.51824 6.23548 6.08926 6.6655C5.65924 7.09449 4.96317 7.09449 4.53316 6.6655L2.97809 5.1094C2.54807 4.68041 2.54807 3.98331 2.97809 3.55432ZM16.1777 5.11043C15.7477 5.53942 15.7477 6.23651 16.1777 6.6655C16.6077 7.09552 17.3037 7.09552 17.7327 6.6655L19.2888 5.11043C19.7189 4.68041 19.7189 3.98434 19.2888 3.55432C18.8588 3.12534 18.1628 3.12534 17.7327 3.55432L16.1777 5.11043ZM8.80042 17.0756C8.19303 17.0756 7.70011 17.5686 7.70011 18.1759C7.70011 18.7833 8.19303 19.2763 8.80042 19.2763H13.1996C13.807 19.2763 14.2999 18.7833 14.2999 18.1759C14.2999 17.5686 13.807 17.0756 13.1996 17.0756H8.80042ZM1.10032 10.4758C0.492925 10.4758 0 10.9687 0 11.5761C0 12.1835 0.492925 12.6765 1.10032 12.6765H3.29989C3.90729 12.6765 4.40021 12.1835 4.40021 11.5761C4.40021 10.9687 3.90729 10.4758 3.29989 10.4758H1.10032ZM17.5998 11.5761C17.5998 10.9687 18.0927 10.4758 18.7001 10.4758H20.8997C21.5071 10.4758 22 10.9687 22 11.5761C22 12.1835 21.5071 12.6765 20.8997 12.6765H18.7001C18.0927 12.6765 17.5998 12.1835 17.5998 11.5761ZM7.70011 20.8159C7.70011 20.5725 7.89707 20.3755 8.14044 20.3755H13.8596C14.1029 20.3755 14.2999 20.5725 14.2999 20.8159C14.2999 21.7883 13.512 22.5762 12.5396 22.5762H9.4604C8.48796 22.5762 7.70011 21.7883 7.70011 20.8159ZM13.5987 13.6097C13.3698 13.9025 13.1997 14.248 13.1997 14.6203C13.1997 15.5628 14.1731 16.1661 14.8475 15.5061C15.8674 14.5079 16.4996 13.1157 16.4996 11.576C16.4996 8.538 14.038 6.07653 11.0001 6.07653C7.96312 6.07653 5.50061 8.53805 5.50061 11.576C5.50061 13.1156 6.13274 14.5077 7.15261 15.5061C7.82703 16.1661 8.8005 15.5628 8.8005 14.6203C8.8005 14.248 8.63035 13.9025 8.40143 13.6097C7.96212 13.0497 7.70021 12.3433 7.70021 11.5761C7.70021 9.75395 9.17796 8.2762 11.0001 8.2762C12.8223 8.2762 14.3 9.75395 14.3 11.5761C14.3 12.3433 14.038 13.0497 13.5987 13.6097Z" fill="#333333"/>
</svg>
