<svg version="1.1" viewBox="0.0 0.0 600.0 371.0" fill="none" stroke="none" stroke-linecap="square" stroke-miterlimit="10" width="600" height="371" xmlns:xlink="http://www.w3.org/1999/xlink" xmlns="http://www.w3.org/2000/svg"><path fill="#ffffff" d="M0 0L600.0 0L600.0 371.0L0 371.0L0 0Z" fill-rule="nonzero"/><path stroke="#333333" stroke-width="1.0" stroke-linecap="butt" d="M84.5 81.5L84.5 300.5" fill-rule="nonzero"/><path stroke="#cccccc" stroke-width="1.0" stroke-linecap="butt" d="M208.5 81.5L208.5 300.5" fill-rule="nonzero"/><path stroke="#cccccc" stroke-width="1.0" stroke-linecap="butt" d="M333.5 81.5L333.5 300.5" fill-rule="nonzero"/><path stroke="#cccccc" stroke-width="1.0" stroke-linecap="butt" d="M457.5 81.5L457.5 300.5" fill-rule="nonzero"/><path stroke="#cccccc" stroke-width="1.0" stroke-linecap="butt" d="M581.5 81.5L581.5 300.5" fill-rule="nonzero"/><clipPath id="id_0"><path d="M84.55 81.28333L581.45 81.28333L581.45 300.45L84.55 300.45L84.55 81.28333Z" clip-rule="nonzero"/></clipPath><path stroke="#000000" stroke-width="2.0" stroke-linecap="butt" stroke-opacity="0.0" clip-path="url(#id_0)" d="M85.0 143.0L85.0 115.0L578.0 115.0C579.10455 115.0 580.0 115.89543 580.0 117.0L580.0 141.0C580.0 142.10457 579.10455 143.0 578.0 143.0Z" fill-rule="nonzero"/><path fill="#4285f4" clip-path="url(#id_0)" d="M85.0 143.0L85.0 115.0L578.0 115.0C579.10455 115.0 580.0 115.89543 580.0 117.0L580.0 141.0C580.0 142.10457 579.10455 143.0 578.0 143.0Z" fill-rule="nonzero"/><path stroke="#000000" stroke-width="2.0" stroke-linecap="butt" stroke-opacity="0.0" clip-path="url(#id_0)" d="M85.0 236.0L85.0 208.0L106.0 208.0C107.10457 208.0 108.0 208.89543 108.0 210.0L108.0 234.0C108.0 235.10457 107.10457 236.0 106.0 236.0Z" fill-rule="nonzero"/><path fill="#4285f4" clip-path="url(#id_0)" d="M85.0 236.0L85.0 208.0L106.0 208.0C107.10457 208.0 108.0 208.89543 108.0 210.0L108.0 234.0C108.0 235.10457 107.10457 236.0 106.0 236.0Z" fill-rule="nonzero"/><path stroke="#000000" stroke-width="2.0" stroke-linecap="butt" stroke-opacity="0.0" clip-path="url(#id_0)" d="M85.0 173.0L85.0 145.0L153.0 145.0C154.10457 145.0 155.0 145.89543 155.0 147.0L155.0 171.0C155.0 172.10457 154.10457 173.0 153.0 173.0Z" fill-rule="nonzero"/><path fill="#ea4335" clip-path="url(#id_0)" d="M85.0 173.0L85.0 145.0L153.0 145.0C154.10457 145.0 155.0 145.89543 155.0 147.0L155.0 171.0C155.0 172.10457 154.10457 173.0 153.0 173.0Z" fill-rule="nonzero"/><path stroke="#000000" stroke-width="2.0" stroke-linecap="butt" stroke-opacity="0.0" clip-path="url(#id_0)" d="M85.0 266.0L85.0 238.0L92.0 238.0C93.10457 238.0 94.0 238.89543 94.0 240.0L94.0 264.0C94.0 265.10458 93.10457 266.0 92.0 266.0Z" fill-rule="nonzero"/><path fill="#ea4335" clip-path="url(#id_0)" d="M85.0 266.0L85.0 238.0L92.0 238.0C93.10457 238.0 94.0 238.89543 94.0 240.0L94.0 264.0C94.0 265.10458 93.10457 266.0 92.0 266.0Z" fill-rule="nonzero"/><path fill="#000000" d="M291.26562 349.45L290.28125 349.45L290.28125 340.85626L291.34375 340.85626L291.34375 343.91876Q292.01562 343.09064 293.04688 343.09064Q293.625 343.09064 294.125 343.325Q294.64062 343.54376 294.96875 343.96564Q295.3125 344.3875 295.5 344.98126Q295.6875 345.575 295.6875 346.2469Q295.6875 347.84064 294.89062 348.71564Q294.09375 349.59064 293.0 349.59064Q291.89062 349.59064 291.26562 348.66876L291.26562 349.45ZM291.25 346.29376Q291.25 347.40314 291.5625 347.90314Q292.0625 348.71564 292.90625 348.71564Q293.59375 348.71564 294.09375 348.1219Q294.60938 347.52814 294.60938 346.325Q294.60938 345.10626 294.125 344.52814Q293.64062 343.95 292.95312 343.95Q292.26562 343.95 291.75 344.5594Q291.25 345.15314 291.25 346.29376ZM301.375 349.45L301.375 348.52814Q300.64062 349.59064 299.39062 349.59064Q298.84375 349.59064 298.35938 349.3875Q297.89062 349.16876 297.65625 348.85626Q297.42188 348.52814 297.32812 348.0594Q297.26562 347.7625 297.26562 347.075L297.26562 343.23126L298.32812 343.23126L298.32812 346.6844Q298.32812 347.4969 298.39062 347.79376Q298.48438 348.2 298.79688 348.45Q299.125 348.6844 299.60938 348.6844Q300.07812 348.6844 300.48438 348.45Q300.90625 348.2 301.07812 347.77814Q301.26562 347.35626 301.26562 346.5594L301.26562 343.23126L302.3125 343.23126L302.3125 349.45L301.375 349.45ZM304.29688 349.45L304.29688 343.23126L305.23438 343.23126L305.23438 344.10626Q305.92188 343.09064 307.21875 343.09064Q307.78125 343.09064 308.25 343.29376Q308.73438 343.4969 308.96875 343.825Q309.20312 344.15314 309.29688 344.59064Q309.34375 344.8875 309.34375 345.6219L309.34375 349.45L308.29688 349.45L308.29688 345.66876Q308.29688 345.0125 308.17188 344.7Q308.04688 344.3875 307.73438 344.2Q307.42188 343.9969 307.0 343.9969Q306.32812 343.9969 305.82812 344.4344Q305.34375 344.85626 305.34375 346.04376L305.34375 349.45L304.29688 349.45ZM315.32812 349.45L315.32812 348.66876Q314.73438 349.59064 313.59375 349.59064Q312.84375 349.59064 312.21875 349.1844Q311.59375 348.7625 311.25 348.02814Q310.90625 347.29376 310.90625 346.34064Q310.90625 345.41876 311.21875 344.65314Q311.53125 343.8875 312.15625 343.4969Q312.78125 343.09064 313.54688 343.09064Q314.10938 343.09064 314.54688 343.325Q314.98438 343.5594 315.26562 343.9344L315.26562 340.85626L316.3125 340.85626L316.3125 349.45L315.32812 349.45ZM312.0 346.34064Q312.0 347.54376 312.5 348.1375Q313.0 348.71564 313.6875 348.71564Q314.375 348.71564 314.85938 348.15314Q315.34375 347.59064 315.34375 346.4344Q315.34375 345.15314 314.84375 344.5594Q314.35938 343.96564 313.64062 343.96564Q312.9375 343.96564 312.46875 344.54376Q312.0 345.10626 312.0 346.34064ZM318.26562 349.45L318.26562 340.85626L319.32812 340.85626L319.32812 349.45L318.26562 349.45ZM325.54688 347.45L326.64062 347.575Q326.39062 348.52814 325.6875 349.0594Q324.98438 349.59064 323.90625 349.59064Q322.54688 349.59064 321.73438 348.7469Q320.9375 347.90314 320.9375 346.3875Q320.9375 344.825 321.75 343.96564Q322.5625 343.09064 323.84375 343.09064Q325.09375 343.09064 325.875 343.9344Q326.67188 344.77814 326.67188 346.325Q326.67188 346.41876 326.67188 346.60626L322.03125 346.60626Q322.09375 347.6375 322.60938 348.1844Q323.125 348.71564 323.90625 348.71564Q324.48438 348.71564 324.89062 348.41876Q325.3125 348.10626 325.54688 347.45ZM322.09375 345.7469L325.5625 345.7469Q325.5 344.95 325.17188 344.5594Q324.65625 343.95 323.85938 343.95Q323.125 343.95 322.625 344.4344Q322.14062 344.91876 322.09375 345.7469ZM330.875 347.59064L331.90625 347.4344Q332.0 348.0594 332.39062 348.3875Q332.79688 348.71564 333.53125 348.71564Q334.25 348.71564 334.59375 348.4344Q334.95312 348.1375 334.95312 347.73126Q334.95312 347.3719 334.64062 347.16876Q334.42188 347.02814 333.5625 346.8094Q332.40625 346.5125 331.95312 346.3094Q331.51562 346.09064 331.28125 345.71564Q331.04688 345.34064 331.04688 344.8719Q331.04688 344.46564 331.23438 344.10626Q331.42188 343.7469 331.75 343.5125Q332.0 343.34064 332.42188 343.21564Q332.84375 343.09064 333.34375 343.09064Q334.0625 343.09064 334.60938 343.3094Q335.17188 343.5125 335.4375 343.8719Q335.70312 344.23126 335.79688 344.825L334.76562 344.96564Q334.70312 344.4969 334.35938 344.23126Q334.03125 343.95 333.40625 343.95Q332.6875 343.95 332.375 344.2Q332.0625 344.4344 332.0625 344.7625Q332.0625 344.96564 332.1875 345.1219Q332.32812 345.29376 332.59375 345.40314Q332.75 345.46564 333.53125 345.66876Q334.65625 345.98126 335.09375 346.16876Q335.53125 346.35626 335.78125 346.71564Q336.03125 347.075 336.03125 347.6219Q336.03125 348.15314 335.71875 348.6219Q335.42188 349.075 334.84375 349.34064Q334.26562 349.59064 333.53125 349.59064Q332.3125 349.59064 331.67188 349.09064Q331.04688 348.575 330.875 347.59064ZM338.29688 342.075L338.29688 340.85626L339.35938 340.85626L339.35938 342.075L338.29688 342.075ZM338.29688 349.45L338.29688 343.23126L339.35938 343.23126L339.35938 349.45L338.29688 349.45ZM340.73438 349.45L340.73438 348.59064L344.70312 344.04376Q344.01562 344.075 343.5 344.075L340.96875 344.075L340.96875 343.23126L346.0625 343.23126L346.0625 343.91876L342.6875 347.8719L342.03125 348.59064Q342.75 348.54376 343.35938 348.54376L346.25 348.54376L346.25 349.45L340.73438 349.45ZM350.54688 347.45L351.64062 347.575Q351.39062 348.52814 350.6875 349.0594Q349.98438 349.59064 348.90625 349.59064Q347.54688 349.59064 346.73438 348.7469Q345.9375 347.90314 345.9375 346.3875Q345.9375 344.825 346.75 343.96564Q347.5625 343.09064 348.84375 343.09064Q350.09375 343.09064 350.875 343.9344Q351.67188 344.77814 351.67188 346.325Q351.67188 346.41876 351.67188 346.60626L347.03125 346.60626Q347.09375 347.6375 347.60938 348.1844Q348.125 348.71564 348.90625 348.71564Q349.48438 348.71564 349.89062 348.41876Q350.3125 348.10626 350.54688 347.45ZM347.09375 345.7469L350.5625 345.7469Q350.5 344.95 350.17188 344.5594Q349.65625 343.95 348.85938 343.95Q348.125 343.95 347.625 344.4344Q347.14062 344.91876 347.09375 345.7469ZM358.3125 351.98126Q357.4375 350.8719 356.82812 349.40314Q356.23438 347.91876 356.23438 346.34064Q356.23438 344.95 356.67188 343.66876Q357.20312 342.1844 358.3125 340.71564L359.0625 340.71564Q358.35938 341.9344 358.125 342.45Q357.76562 343.2625 357.5625 344.1375Q357.3125 345.23126 357.3125 346.34064Q357.3125 349.16876 359.0625 351.98126L358.3125 351.98126ZM360.29688 349.45L360.29688 340.85626L361.35938 340.85626L361.35938 345.7625L363.84375 343.23126L365.21875 343.23126L362.82812 345.52814L365.45312 349.45L364.15625 349.45L362.09375 346.2625L361.35938 346.98126L361.35938 349.45L360.29688 349.45ZM367.26562 349.45L366.28125 349.45L366.28125 340.85626L367.34375 340.85626L367.34375 343.91876Q368.01562 343.09064 369.04688 343.09064Q369.625 343.09064 370.125 343.325Q370.64062 343.54376 370.96875 343.96564Q371.3125 344.3875 371.5 344.98126Q371.6875 345.575 371.6875 346.2469Q371.6875 347.84064 370.89062 348.71564Q370.09375 349.59064 369.0 349.59064Q367.89062 349.59064 367.26562 348.66876L367.26562 349.45ZM367.25 346.29376Q367.25 347.40314 367.5625 347.90314Q368.0625 348.71564 368.90625 348.71564Q369.59375 348.71564 370.09375 348.1219Q370.60938 347.52814 370.60938 346.325Q370.60938 345.10626 370.125 344.52814Q369.64062 343.95 368.95312 343.95Q368.26562 343.95 367.75 344.5594Q367.25 345.15314 367.25 346.29376ZM373.98438 351.98126L373.23438 351.98126Q374.98438 349.16876 374.98438 346.34064Q374.98438 345.2469 374.73438 344.15314Q374.53125 343.27814 374.17188 342.46564Q373.9375 341.95 373.23438 340.71564L373.98438 340.71564Q375.07812 342.1844 375.60938 343.66876Q376.0625 344.95 376.0625 346.34064Q376.0625 347.91876 375.45312 349.40314Q374.84375 350.8719 373.98438 351.98126Z" fill-rule="nonzero"/><path fill="#000000" d="M29.550013 257.49167L20.956263 257.49167L20.956263 254.2573Q20.956263 253.27292 21.221888 252.67917Q21.487513 252.08542 22.034388 251.7573Q22.565638 251.41354 23.159388 251.41354Q23.706263 251.41354 24.190638 251.71042Q24.675013 252.0073 24.971888 252.61667Q25.206263 251.83542 25.768763 251.42917Q26.315638 251.0073 27.065638 251.0073Q27.659388 251.0073 28.190638 251.2573Q28.706263 251.5073 28.987513 251.8823Q29.268763 252.2573 29.409388 252.83542Q29.550013 253.39792 29.550013 254.21042L29.550013 257.49167ZM24.565638 256.35104L24.565638 254.49167Q24.565638 253.74167 24.471888 253.41354Q24.346888 252.97604 24.050013 252.7573Q23.737513 252.53854 23.284388 252.53854Q22.862513 252.53854 22.534388 252.74167Q22.206263 252.9448 22.096888 253.33542Q21.971888 253.71042 21.971888 254.6323L21.971888 256.35104L24.565638 256.35104ZM28.534388 256.35104L28.534388 254.21042Q28.534388 253.66354 28.487513 253.4448Q28.425013 253.03854 28.268763 252.78854Q28.096888 252.52292 27.784388 252.35104Q27.471888 252.17917 27.065638 252.17917Q26.581263 252.17917 26.221888 252.42917Q25.862513 252.66354 25.721888 253.10104Q25.581263 253.53854 25.581263 254.36667L25.581263 256.35104L28.534388 256.35104ZM29.550013 245.49167L28.628138 245.49167Q29.690638 246.22604 29.690638 247.47604Q29.690638 248.02292 29.487513 248.5073Q29.268763 248.97604 28.956263 249.21042Q28.628138 249.4448 28.159388 249.53854Q27.862513 249.60104 27.175013 249.60104L23.331263 249.60104L23.331263 248.53854L26.784388 248.53854Q27.596888 248.53854 27.893763 248.47604Q28.300013 248.3823 28.550013 248.0698Q28.784388 247.74167 28.784388 247.2573Q28.784388 246.78854 28.550013 246.3823Q28.300013 245.96042 27.878138 245.78854Q27.456263 245.60104 26.659388 245.60104L23.331263 245.60104L23.331263 244.55417L29.550013 244.55417L29.550013 245.49167ZM29.550013 242.5698L23.331263 242.5698L23.331263 241.6323L24.206263 241.6323Q23.190638 240.9448 23.190638 239.64792Q23.190638 239.08542 23.393763 238.61667Q23.596888 238.1323 23.925013 237.89792Q24.253138 237.66354 24.690638 237.5698Q24.987513 237.52292 25.721888 237.52292L29.550013 237.52292L29.550013 238.5698L25.768763 238.5698Q25.112513 238.5698 24.800013 238.6948Q24.487513 238.8198 24.300013 239.1323Q24.096888 239.4448 24.096888 239.86667Q24.096888 240.53854 24.534388 241.03854Q24.956263 241.52292 26.143763 241.52292L29.550013 241.52292L29.550013 242.5698ZM29.550013 231.53854L28.768763 231.53854Q29.690638 232.1323 29.690638 233.27292Q29.690638 234.02292 29.284388 234.64792Q28.862513 235.27292 28.128138 235.61667Q27.393763 235.96042 26.440638 235.96042Q25.518763 235.96042 24.753138 235.64792Q23.987513 235.33542 23.596888 234.71042Q23.190638 234.08542 23.190638 233.3198Q23.190638 232.7573 23.425013 232.3198Q23.659388 231.8823 24.034388 231.60104L20.956263 231.60104L20.956263 230.55417L29.550013 230.55417L29.550013 231.53854ZM26.440638 234.86667Q27.643763 234.86667 28.237513 234.36667Q28.815638 233.86667 28.815638 233.17917Q28.815638 232.49167 28.253138 232.0073Q27.690638 231.52292 26.534388 231.52292Q25.253138 231.52292 24.659388 232.02292Q24.065638 232.5073 24.065638 233.22604Q24.065638 233.92917 24.643763 234.39792Q25.206263 234.86667 26.440638 234.86667ZM29.550013 228.60104L20.956263 228.60104L20.956263 227.53854L29.550013 227.53854L29.550013 228.60104ZM27.550013 221.3198L27.675013 220.22604Q28.628138 220.47604 29.159388 221.17917Q29.690638 221.8823 29.690638 222.96042Q29.690638 224.3198 28.846888 225.1323Q28.003138 225.92917 26.487513 225.92917Q24.925013 225.92917 24.065638 225.11667Q23.190638 224.30417 23.190638 223.02292Q23.190638 221.77292 24.034388 220.99167Q24.878138 220.1948 26.425013 220.1948Q26.518763 220.1948 26.706263 220.1948L26.706263 224.83542Q27.737513 224.77292 28.284388 224.2573Q28.815638 223.74167 28.815638 222.96042Q28.815638 222.3823 28.518763 221.97604Q28.206263 221.55417 27.550013 221.3198ZM25.846888 224.77292L25.846888 221.30417Q25.050013 221.36667 24.659388 221.6948Q24.050013 222.21042 24.050013 223.0073Q24.050013 223.74167 24.534388 224.24167Q25.018763 224.72604 25.846888 224.77292ZM27.268763 211.5073L27.409388 210.47604Q28.471888 210.64792 29.081263 211.35104Q29.690638 212.05417 29.690638 213.0698Q29.690638 214.35104 28.862513 215.1323Q28.018763 215.89792 26.456263 215.89792Q25.456263 215.89792 24.706263 215.5698Q23.940638 215.22604 23.565638 214.55417Q23.190638 213.86667 23.190638 213.05417Q23.190638 212.05417 23.706263 211.41354Q24.206263 210.7573 25.159388 210.5698L25.315638 211.60104Q24.690638 211.74167 24.378138 212.11667Q24.050013 212.49167 24.050013 213.02292Q24.050013 213.8198 24.628138 214.3198Q25.190638 214.8198 26.425013 214.8198Q27.690638 214.8198 28.253138 214.33542Q28.815638 213.85104 28.815638 213.08542Q28.815638 212.46042 28.440638 212.05417Q28.065638 211.6323 27.268763 211.5073ZM26.440638 209.96042Q24.706263 209.96042 23.878138 209.0073Q23.190638 208.21042 23.190638 207.05417Q23.190638 205.77292 24.034388 204.96042Q24.862513 204.1323 26.346888 204.1323Q27.550013 204.1323 28.237513 204.49167Q28.925013 204.85104 29.315638 205.55417Q29.690638 206.24167 29.690638 207.05417Q29.690638 208.35104 28.862513 209.16354Q28.018763 209.96042 26.440638 209.96042ZM26.440638 208.8823Q27.628138 208.8823 28.221888 208.36667Q28.815638 207.83542 28.815638 207.05417Q28.815638 206.2573 28.221888 205.74167Q27.628138 205.22604 26.409388 205.22604Q25.253138 205.22604 24.659388 205.7573Q24.065638 206.27292 24.065638 207.05417Q24.065638 207.83542 24.659388 208.36667Q25.237513 208.8823 26.440638 208.8823ZM29.550013 202.5698L23.331263 202.5698L23.331263 201.6323L24.206263 201.6323Q23.737513 201.33542 23.471888 200.85104Q23.190638 200.36667 23.190638 199.74167Q23.190638 199.05417 23.471888 198.61667Q23.753138 198.16354 24.268763 197.99167Q23.190638 197.24167 23.190638 196.0698Q23.190638 195.1323 23.706263 194.64792Q24.206263 194.14792 25.284388 194.14792L29.550013 194.14792L29.550013 195.1948L25.628138 195.1948Q25.003138 195.1948 24.721888 195.30417Q24.440638 195.39792 24.268763 195.66354Q24.096888 195.92917 24.096888 196.30417Q24.096888 196.96042 24.534388 197.39792Q24.971888 197.8198 25.940638 197.8198L29.550013 197.8198L29.550013 198.8823L25.503138 198.8823Q24.800013 198.8823 24.456263 199.14792Q24.096888 199.39792 24.096888 199.97604Q24.096888 200.42917 24.331263 200.80417Q24.565638 201.17917 25.018763 201.35104Q25.471888 201.52292 26.315638 201.52292L29.550013 201.52292L29.550013 202.5698ZM31.940638 191.5698L23.331263 191.5698L23.331263 190.61667L24.128138 190.61667Q23.659388 190.27292 23.425013 189.85104Q23.190638 189.41354 23.190638 188.80417Q23.190638 188.0073 23.596888 187.39792Q24.003138 186.78854 24.753138 186.49167Q25.503138 186.17917 26.393763 186.17917Q27.346888 186.17917 28.112513 186.52292Q28.878138 186.85104 29.284388 187.5073Q29.690638 188.16354 29.690638 188.8823Q29.690638 189.41354 29.471888 189.83542Q29.237513 190.2573 28.909388 190.52292L31.940638 190.52292L31.940638 191.5698ZM26.471888 190.61667Q27.675013 190.61667 28.253138 190.1323Q28.815638 189.64792 28.815638 188.96042Q28.815638 188.2573 28.221888 187.7573Q27.628138 187.2573 26.378138 187.2573Q25.190638 187.2573 24.612513 187.74167Q24.018763 188.22604 24.018763 188.91354Q24.018763 189.58542 24.643763 190.10104Q25.268763 190.61667 26.471888 190.61667ZM29.550013 184.58542L23.331263 184.58542L23.331263 183.6323L24.268763 183.6323Q23.612513 183.27292 23.409388 182.97604Q23.190638 182.66354 23.190638 182.28854Q23.190638 181.7573 23.518763 181.21042L24.503138 181.5698Q24.268763 181.96042 24.268763 182.33542Q24.268763 182.6948 24.487513 182.97604Q24.690638 183.24167 25.065638 183.35104Q25.628138 183.53854 26.284388 183.53854L29.550013 183.53854L29.550013 184.58542ZM27.550013 176.3198L27.675013 175.22604Q28.628138 175.47604 29.159388 176.17917Q29.690638 176.8823 29.690638 177.96042Q29.690638 179.3198 28.846888 180.1323Q28.003138 180.92917 26.487513 180.92917Q24.925013 180.92917 24.065638 180.11667Q23.190638 179.30417 23.190638 178.02292Q23.190638 176.77292 24.034388 175.99167Q24.878138 175.1948 26.425013 175.1948Q26.518763 175.1948 26.706263 175.1948L26.706263 179.83542Q27.737513 179.77292 28.284388 179.2573Q28.815638 178.74167 28.815638 177.96042Q28.815638 177.3823 28.518763 176.97604Q28.206263 176.55417 27.550013 176.3198ZM25.846888 179.77292L25.846888 176.30417Q25.050013 176.36667 24.659388 176.6948Q24.050013 177.21042 24.050013 178.0073Q24.050013 178.74167 24.534388 179.24167Q25.018763 179.72604 25.846888 179.77292ZM27.690638 173.99167L27.534388 172.96042Q28.159388 172.86667 28.487513 172.47604Q28.815638 172.0698 28.815638 171.33542Q28.815638 170.61667 28.534388 170.27292Q28.237513 169.91354 27.831263 169.91354Q27.471888 169.91354 27.268763 170.22604Q27.128138 170.4448 26.909388 171.30417Q26.612513 172.46042 26.409388 172.91354Q26.190638 173.35104 25.815638 173.58542Q25.440638 173.8198 24.971888 173.8198Q24.565638 173.8198 24.206263 173.6323Q23.846888 173.4448 23.612513 173.11667Q23.440638 172.86667 23.315638 172.4448Q23.190638 172.02292 23.190638 171.52292Q23.190638 170.80417 23.409388 170.2573Q23.612513 169.6948 23.971888 169.42917Q24.331263 169.16354 24.925013 169.0698L25.065638 170.10104Q24.596888 170.16354 24.331263 170.5073Q24.050013 170.83542 24.050013 171.46042Q24.050013 172.17917 24.300013 172.49167Q24.534388 172.80417 24.862513 172.80417Q25.065638 172.80417 25.221888 172.67917Q25.393763 172.53854 25.503138 172.27292Q25.565638 172.11667 25.768763 171.33542Q26.081263 170.21042 26.268763 169.77292Q26.456263 169.33542 26.815638 169.08542Q27.175013 168.83542 27.721888 168.83542Q28.253138 168.83542 28.721888 169.14792Q29.175013 169.4448 29.440638 170.02292Q29.690638 170.60104 29.690638 171.33542Q29.690638 172.55417 29.190638 173.1948Q28.675013 173.8198 27.690638 173.99167ZM27.690638 166.99167L27.534388 165.96042Q28.159388 165.86667 28.487513 165.47604Q28.815638 165.0698 28.815638 164.33542Q28.815638 163.61667 28.534388 163.27292Q28.237513 162.91354 27.831263 162.91354Q27.471888 162.91354 27.268763 163.22604Q27.128138 163.4448 26.909388 164.30417Q26.612513 165.46042 26.409388 165.91354Q26.190638 166.35104 25.815638 166.58542Q25.440638 166.8198 24.971888 166.8198Q24.565638 166.8198 24.206263 166.6323Q23.846888 166.4448 23.612513 166.11667Q23.440638 165.86667 23.315638 165.4448Q23.190638 165.02292 23.190638 164.52292Q23.190638 163.80417 23.409388 163.2573Q23.612513 162.6948 23.971888 162.42917Q24.331263 162.16354 24.925013 162.0698L25.065638 163.10104Q24.596888 163.16354 24.331263 163.5073Q24.050013 163.83542 24.050013 164.46042Q24.050013 165.17917 24.300013 165.49167Q24.534388 165.80417 24.862513 165.80417Q25.065638 165.80417 25.221888 165.67917Q25.393763 165.53854 25.503138 165.27292Q25.565638 165.11667 25.768763 164.33542Q26.081263 163.21042 26.268763 162.77292Q26.456263 162.33542 26.815638 162.08542Q27.175013 161.83542 27.721888 161.83542Q28.253138 161.83542 28.721888 162.14792Q29.175013 162.4448 29.440638 163.02292Q29.690638 163.60104 29.690638 164.33542Q29.690638 165.55417 29.190638 166.1948Q28.675013 166.8198 27.690638 166.99167ZM22.175013 159.5698L20.956263 159.5698L20.956263 158.5073L22.175013 158.5073L22.175013 159.5698ZM29.550013 159.5698L23.331263 159.5698L23.331263 158.5073L29.550013 158.5073L29.550013 159.5698ZM26.440638 156.96042Q24.706263 156.96042 23.878138 156.0073Q23.190638 155.21042 23.190638 154.05417Q23.190638 152.77292 24.034388 151.96042Q24.862513 151.1323 26.346888 151.1323Q27.550013 151.1323 28.237513 151.49167Q28.925013 151.85104 29.315638 152.55417Q29.690638 153.24167 29.690638 154.05417Q29.690638 155.35104 28.862513 156.16354Q28.018763 156.96042 26.440638 156.96042ZM26.440638 155.8823Q27.628138 155.8823 28.221888 155.36667Q28.815638 154.83542 28.815638 154.05417Q28.815638 153.2573 28.221888 152.74167Q27.628138 152.22604 26.409388 152.22604Q25.253138 152.22604 24.659388 152.7573Q24.065638 153.27292 24.065638 154.05417Q24.065638 154.83542 24.659388 155.36667Q25.237513 155.8823 26.440638 155.8823ZM29.550013 149.5698L23.331263 149.5698L23.331263 148.6323L24.206263 148.6323Q23.190638 147.9448 23.190638 146.64792Q23.190638 146.08542 23.393763 145.61667Q23.596888 145.1323 23.925013 144.89792Q24.253138 144.66354 24.690638 144.5698Q24.987513 144.52292 25.721888 144.52292L29.550013 144.52292L29.550013 145.5698L25.768763 145.5698Q25.112513 145.5698 24.800013 145.6948Q24.487513 145.8198 24.300013 146.1323Q24.096888 146.4448 24.096888 146.86667Q24.096888 147.53854 24.534388 148.03854Q24.956263 148.52292 26.143763 148.52292L29.550013 148.52292L29.550013 149.5698Z" fill-rule="nonzero"/><path fill="#000000" d="M51.346874 148.23546L51.346874 142.01671L52.284374 142.01671L52.284374 142.89171Q52.971874 141.87608 54.26875 141.87608Q54.83125 141.87608 55.3 142.07921Q55.784374 142.28233 56.01875 142.61046Q56.253124 142.93858 56.346874 143.37608Q56.39375 143.67296 56.39375 144.40733L56.39375 148.23546L55.346874 148.23546L55.346874 144.45421Q55.346874 143.79796 55.221874 143.48546Q55.096874 143.17296 54.784374 142.98546Q54.471874 142.78233 54.05 142.78233Q53.378124 142.78233 52.878124 143.21983Q52.39375 143.64171 52.39375 144.82921L52.39375 148.23546L51.346874 148.23546ZM57.95625 145.12608Q57.95625 143.39171 58.909374 142.56358Q59.70625 141.87608 60.8625 141.87608Q62.14375 141.87608 62.95625 142.71983Q63.784374 143.54796 63.784374 145.03233Q63.784374 146.23546 63.425 146.92296Q63.065624 147.61046 62.3625 148.00108Q61.675 148.37608 60.8625 148.37608Q59.565624 148.37608 58.753124 147.54796Q57.95625 146.70421 57.95625 145.12608ZM59.034374 145.12608Q59.034374 146.31358 59.55 146.90733Q60.08125 147.50108 60.8625 147.50108Q61.659374 147.50108 62.175 146.90733Q62.690624 146.31358 62.690624 145.09483Q62.690624 143.93858 62.159374 143.34483Q61.64375 142.75108 60.8625 142.75108Q60.08125 142.75108 59.55 143.34483Q59.034374 143.92296 59.034374 145.12608ZM65.34688 148.23546L65.34688 142.01671L66.28438 142.01671L66.28438 142.89171Q66.97188 141.87608 68.26875 141.87608Q68.83125 141.87608 69.3 142.07921Q69.78438 142.28233 70.01875 142.61046Q70.25313 142.93858 70.34688 143.37608Q70.39375 143.67296 70.39375 144.40733L70.39375 148.23546L69.34688 148.23546L69.34688 144.45421Q69.34688 143.79796 69.22188 143.48546Q69.09688 143.17296 68.78438 142.98546Q68.47188 142.78233 68.05 142.78233Q67.37813 142.78233 66.87813 143.21983Q66.39375 143.64171 66.39375 144.82921L66.39375 148.23546L65.34688 148.23546ZM76.59688 146.23546L77.69063 146.36046Q77.44063 147.31358 76.7375 147.84483Q76.03438 148.37608 74.95625 148.37608Q73.59688 148.37608 72.78438 147.53233Q71.9875 146.68858 71.9875 145.17296Q71.9875 143.61046 72.8 142.75108Q73.6125 141.87608 74.89375 141.87608Q76.14375 141.87608 76.925 142.71983Q77.72188 143.56358 77.72188 145.11046Q77.72188 145.20421 77.72188 145.39171L73.08125 145.39171Q73.14375 146.42296 73.65938 146.96983Q74.175 147.50108 74.95625 147.50108Q75.53438 147.50108 75.94063 147.20421Q76.3625 146.89171 76.59688 146.23546ZM73.14375 144.53233L76.6125 144.53233Q76.55 143.73546 76.22188 143.34483Q75.70625 142.73546 74.90938 142.73546Q74.175 142.73546 73.675 143.21983Q73.19063 143.70421 73.14375 144.53233Z" fill-rule="nonzero"/><path fill="#000000" d="M57.14375 242.0135L58.175 242.16975Q58.2375 242.6385 58.534374 242.85725Q58.925 243.15413 59.596874 243.15413Q60.33125 243.15413 60.721874 242.85725Q61.128124 242.56038 61.26875 242.04475Q61.3625 241.71663 61.346874 240.68538Q60.659374 241.49788 59.628124 241.49788Q58.346874 241.49788 57.64375 240.576Q56.940624 239.6385 56.940624 238.35725Q56.940624 237.46663 57.253124 236.71663Q57.58125 235.951 58.190624 235.54475Q58.8 235.1385 59.628124 235.1385Q60.7375 235.1385 61.45625 236.02913L61.45625 235.27913L62.425 235.27913L62.425 240.65413Q62.425 242.10725 62.128124 242.71663Q61.83125 243.326 61.190624 243.66975Q60.55 244.02913 59.6125 244.02913Q58.503124 244.02913 57.815624 243.52913Q57.128124 243.02913 57.14375 242.0135ZM58.01875 238.27913Q58.01875 239.49788 58.503124 240.06038Q58.9875 240.62288 59.721874 240.62288Q60.45625 240.62288 60.940624 240.06038Q61.440624 239.49788 61.440624 238.31038Q61.440624 237.16975 60.925 236.59163Q60.425 236.0135 59.70625 236.0135Q59.003124 236.0135 58.503124 236.59163Q58.01875 237.15413 58.01875 238.27913ZM63.784374 241.49788L63.784374 240.6385L67.75313 236.09163Q67.06563 236.12288 66.55 236.12288L64.01875 236.12288L64.01875 235.27913L69.1125 235.27913L69.1125 235.96663L65.7375 239.91975L65.08125 240.6385Q65.8 240.59163 66.40938 240.59163L69.3 240.59163L69.3 241.49788L63.784374 241.49788ZM69.34688 234.12288L69.34688 232.90413L70.40938 232.90413L70.40938 234.12288L69.34688 234.12288ZM69.34688 241.49788L69.34688 235.27913L70.40938 235.27913L70.40938 241.49788L69.34688 241.49788ZM72.34688 243.8885L72.34688 235.27913L73.3 235.27913L73.3 236.076Q73.64375 235.60725 74.06563 235.37288Q74.50313 235.1385 75.1125 235.1385Q75.90938 235.1385 76.51875 235.54475Q77.12813 235.951 77.425 236.701Q77.7375 237.451 77.7375 238.34163Q77.7375 239.29475 77.39375 240.06038Q77.06563 240.826 76.40938 241.23225Q75.75313 241.6385 75.03438 241.6385Q74.50313 241.6385 74.08125 241.41975Q73.65938 241.18538 73.39375 240.85725L73.39375 243.8885L72.34688 243.8885ZM73.3 238.41975Q73.3 239.62288 73.78438 240.201Q74.26875 240.7635 74.95625 240.7635Q75.65938 240.7635 76.15938 240.16975Q76.65938 239.576 76.65938 238.326Q76.65938 237.1385 76.175 236.56038Q75.69063 235.96663 75.00313 235.96663Q74.33125 235.96663 73.81563 236.59163Q73.3 237.21663 73.3 238.41975Z" fill-rule="nonzero"/><path fill="#000000" d="M81.55 313.21564Q81.55 311.6844 81.8625 310.7625Q82.175 309.825 82.78438 309.325Q83.40938 308.825 84.34688 308.825Q85.03438 308.825 85.55 309.10626Q86.08125 309.3875 86.425 309.91876Q86.76875 310.4344 86.95625 311.1844Q87.14375 311.9344 87.14375 313.21564Q87.14375 314.73126 86.83125 315.65314Q86.53438 316.575 85.90938 317.09064Q85.3 317.59064 84.34688 317.59064Q83.1125 317.59064 82.39375 316.7Q81.55 315.6375 81.55 313.21564ZM82.62813 313.21564Q82.62813 315.325 83.12813 316.02814Q83.62813 316.73126 84.34688 316.73126Q85.08125 316.73126 85.56563 316.02814Q86.06563 315.325 86.06563 313.21564Q86.06563 311.09064 85.56563 310.40314Q85.08125 309.7 84.33125 309.7Q83.6125 309.7 83.175 310.3094Q82.62813 311.09064 82.62813 313.21564Z" fill-rule="nonzero"/><path fill="#000000" d="M202.74374 317.45L201.69687 317.45L201.69687 310.73126Q201.30624 311.09064 200.68124 311.46564Q200.07187 311.825 199.5875 311.9969L199.5875 310.98126Q200.4625 310.5594 201.11874 309.98126Q201.79062 309.3875 202.07187 308.825L202.74374 308.825L202.74374 317.45ZM205.775 313.21564Q205.775 311.6844 206.0875 310.7625Q206.4 309.825 207.00937 309.325Q207.63437 308.825 208.57187 308.825Q209.25937 308.825 209.775 309.10626Q210.30624 309.3875 210.65 309.91876Q210.99374 310.4344 211.18124 311.1844Q211.36874 311.9344 211.36874 313.21564Q211.36874 314.73126 211.05624 315.65314Q210.75937 316.575 210.13437 317.09064Q209.525 317.59064 208.57187 317.59064Q207.3375 317.59064 206.61874 316.7Q205.775 315.6375 205.775 313.21564ZM206.85312 313.21564Q206.85312 315.325 207.35312 316.02814Q207.85312 316.73126 208.57187 316.73126Q209.30624 316.73126 209.79062 316.02814Q210.29062 315.325 210.29062 313.21564Q210.29062 311.09064 209.79062 310.40314Q209.30624 309.7 208.55624 309.7Q207.8375 309.7 207.4 310.3094Q206.85312 311.09064 206.85312 313.21564ZM212.775 313.21564Q212.775 311.6844 213.0875 310.7625Q213.4 309.825 214.00937 309.325Q214.63437 308.825 215.57187 308.825Q216.25937 308.825 216.775 309.10626Q217.30624 309.3875 217.65 309.91876Q217.99374 310.4344 218.18124 311.1844Q218.36874 311.9344 218.36874 313.21564Q218.36874 314.73126 218.05624 315.65314Q217.75937 316.575 217.13437 317.09064Q216.525 317.59064 215.57187 317.59064Q214.3375 317.59064 213.61874 316.7Q212.775 315.6375 212.775 313.21564ZM213.85312 313.21564Q213.85312 315.325 214.35312 316.02814Q214.85312 316.73126 215.57187 316.73126Q216.30624 316.73126 216.79062 316.02814Q217.29062 315.325 217.29062 313.21564Q217.29062 311.09064 216.79062 310.40314Q216.30624 309.7 215.55624 309.7Q214.8375 309.7 214.4 310.3094Q213.85312 311.09064 213.85312 313.21564Z" fill-rule="nonzero"/><path fill="#000000" d="M328.54688 316.4344L328.54688 317.45L322.85938 317.45Q322.85938 317.075 322.98438 316.71564Q323.20312 316.1375 323.67188 315.575Q324.15625 315.0125 325.0625 314.27814Q326.46875 313.1219 326.95312 312.45Q327.45312 311.77814 327.45312 311.1844Q327.45312 310.5594 327.0 310.1375Q326.54688 309.7 325.82812 309.7Q325.0625 309.7 324.60938 310.15314Q324.15625 310.60626 324.14062 311.41876L323.0625 311.3094Q323.17188 310.09064 323.89062 309.46564Q324.625 308.825 325.85938 308.825Q327.09375 308.825 327.8125 309.5125Q328.53125 310.2 328.53125 311.21564Q328.53125 311.73126 328.3125 312.23126Q328.10938 312.71564 327.60938 313.27814Q327.125 313.825 326.0 314.77814Q325.04688 315.575 324.76562 315.8719Q324.5 316.15314 324.32812 316.4344L328.54688 316.4344ZM330.0 313.21564Q330.0 311.6844 330.3125 310.7625Q330.625 309.825 331.23438 309.325Q331.85938 308.825 332.79688 308.825Q333.48438 308.825 334.0 309.10626Q334.53125 309.3875 334.875 309.91876Q335.21875 310.4344 335.40625 311.1844Q335.59375 311.9344 335.59375 313.21564Q335.59375 314.73126 335.28125 315.65314Q334.98438 316.575 334.35938 317.09064Q333.75 317.59064 332.79688 317.59064Q331.5625 317.59064 330.84375 316.7Q330.0 315.6375 330.0 313.21564ZM331.07812 313.21564Q331.07812 315.325 331.57812 316.02814Q332.07812 316.73126 332.79688 316.73126Q333.53125 316.73126 334.01562 316.02814Q334.51562 315.325 334.51562 313.21564Q334.51562 311.09064 334.01562 310.40314Q333.53125 309.7 332.78125 309.7Q332.0625 309.7 331.625 310.3094Q331.07812 311.09064 331.07812 313.21564ZM337.0 313.21564Q337.0 311.6844 337.3125 310.7625Q337.625 309.825 338.23438 309.325Q338.85938 308.825 339.79688 308.825Q340.48438 308.825 341.0 309.10626Q341.53125 309.3875 341.875 309.91876Q342.21875 310.4344 342.40625 311.1844Q342.59375 311.9344 342.59375 313.21564Q342.59375 314.73126 342.28125 315.65314Q341.98438 316.575 341.35938 317.09064Q340.75 317.59064 339.79688 317.59064Q338.5625 317.59064 337.84375 316.7Q337.0 315.6375 337.0 313.21564ZM338.07812 313.21564Q338.07812 315.325 338.57812 316.02814Q339.07812 316.73126 339.79688 316.73126Q340.53125 316.73126 341.01562 316.02814Q341.51562 315.325 341.51562 313.21564Q341.51562 311.09064 341.01562 310.40314Q340.53125 309.7 339.78125 309.7Q339.0625 309.7 338.625 310.3094Q338.07812 311.09064 338.07812 313.21564Z" fill-rule="nonzero"/><path fill="#000000" d="M447.225 315.1844L448.2875 315.04376Q448.45938 315.9344 448.89688 316.34064Q449.33438 316.73126 449.95938 316.73126Q450.70938 316.73126 451.225 316.21564Q451.74063 315.7 451.74063 314.9344Q451.74063 314.21564 451.25626 313.7469Q450.7875 313.2625 450.05313 313.2625Q449.75626 313.2625 449.30313 313.3875L449.42813 312.45Q449.5375 312.46564 449.6 312.46564Q450.27188 312.46564 450.80313 312.1219Q451.35 311.7625 451.35 311.02814Q451.35 310.45 450.95938 310.075Q450.56876 309.6844 449.94376 309.6844Q449.33438 309.6844 448.9125 310.075Q448.50626 310.46564 448.39688 311.23126L447.33438 311.04376Q447.52188 309.9969 448.20938 309.41876Q448.89688 308.825 449.9125 308.825Q450.61563 308.825 451.20938 309.1375Q451.80313 309.4344 452.11563 309.95Q452.42813 310.46564 452.42813 311.0594Q452.42813 311.60626 452.13126 312.075Q451.83438 312.52814 451.25626 312.79376Q452.00626 312.96564 452.42813 313.52814Q452.85 314.075 452.85 314.91876Q452.85 316.04376 452.02188 316.825Q451.20938 317.60626 449.95938 317.60626Q448.83438 317.60626 448.08438 316.9344Q447.33438 316.2469 447.225 315.1844ZM454.225 313.21564Q454.225 311.6844 454.5375 310.7625Q454.85 309.825 455.45938 309.325Q456.08438 308.825 457.02188 308.825Q457.70938 308.825 458.225 309.10626Q458.75626 309.3875 459.1 309.91876Q459.44376 310.4344 459.63126 311.1844Q459.81876 311.9344 459.81876 313.21564Q459.81876 314.73126 459.50626 315.65314Q459.20938 316.575 458.58438 317.09064Q457.975 317.59064 457.02188 317.59064Q455.7875 317.59064 455.06876 316.7Q454.225 315.6375 454.225 313.21564ZM455.30313 313.21564Q455.30313 315.325 455.80313 316.02814Q456.30313 316.73126 457.02188 316.73126Q457.75626 316.73126 458.24063 316.02814Q458.74063 315.325 458.74063 313.21564Q458.74063 311.09064 458.24063 310.40314Q457.75626 309.7 457.00626 309.7Q456.2875 309.7 455.85 310.3094Q455.30313 311.09064 455.30313 313.21564ZM461.225 313.21564Q461.225 311.6844 461.5375 310.7625Q461.85 309.825 462.45938 309.325Q463.08438 308.825 464.02188 308.825Q464.70938 308.825 465.225 309.10626Q465.75626 309.3875 466.1 309.91876Q466.44376 310.4344 466.63126 311.1844Q466.81876 311.9344 466.81876 313.21564Q466.81876 314.73126 466.50626 315.65314Q466.20938 316.575 465.58438 317.09064Q464.975 317.59064 464.02188 317.59064Q462.7875 317.59064 462.06876 316.7Q461.225 315.6375 461.225 313.21564ZM462.30313 313.21564Q462.30313 315.325 462.80313 316.02814Q463.30313 316.73126 464.02188 316.73126Q464.75626 316.73126 465.24063 316.02814Q465.74063 315.325 465.74063 313.21564Q465.74063 311.09064 465.24063 310.40314Q464.75626 309.7 464.00626 309.7Q463.2875 309.7 462.85 310.3094Q462.30313 311.09064 462.30313 313.21564Z" fill-rule="nonzero"/><path fill="#000000" d="M574.825 317.45L574.825 315.3875L571.10626 315.3875L571.10626 314.41876L575.02814 308.85626L575.8875 308.85626L575.8875 314.41876L577.04376 314.41876L577.04376 315.3875L575.8875 315.3875L575.8875 317.45L574.825 317.45ZM574.825 314.41876L574.825 310.5594L572.1375 314.41876L574.825 314.41876ZM578.45 313.21564Q578.45 311.6844 578.7625 310.7625Q579.075 309.825 579.6844 309.325Q580.3094 308.825 581.2469 308.825Q581.9344 308.825 582.45 309.10626Q582.98126 309.3875 583.325 309.91876Q583.66876 310.4344 583.85626 311.1844Q584.04376 311.9344 584.04376 313.21564Q584.04376 314.73126 583.73126 315.65314Q583.4344 316.575 582.8094 317.09064Q582.2 317.59064 581.2469 317.59064Q580.0125 317.59064 579.29376 316.7Q578.45 315.6375 578.45 313.21564ZM579.52814 313.21564Q579.52814 315.325 580.02814 316.02814Q580.52814 316.73126 581.2469 316.73126Q581.98126 316.73126 582.46564 316.02814Q582.96564 315.325 582.96564 313.21564Q582.96564 311.09064 582.46564 310.40314Q581.98126 309.7 581.23126 309.7Q580.5125 309.7 580.075 310.3094Q579.52814 311.09064 579.52814 313.21564ZM585.45 313.21564Q585.45 311.6844 585.7625 310.7625Q586.075 309.825 586.6844 309.325Q587.3094 308.825 588.2469 308.825Q588.9344 308.825 589.45 309.10626Q589.98126 309.3875 590.325 309.91876Q590.66876 310.4344 590.85626 311.1844Q591.04376 311.9344 591.04376 313.21564Q591.04376 314.73126 590.73126 315.65314Q590.4344 316.575 589.8094 317.09064Q589.2 317.59064 588.2469 317.59064Q587.0125 317.59064 586.29376 316.7Q585.45 315.6375 585.45 313.21564ZM586.52814 313.21564Q586.52814 315.325 587.02814 316.02814Q587.52814 316.73126 588.2469 316.73126Q588.98126 316.73126 589.46564 316.02814Q589.96564 315.325 589.96564 313.21564Q589.96564 311.09064 589.46564 310.40314Q588.98126 309.7 588.23126 309.7Q587.5125 309.7 587.075 310.3094Q586.52814 311.09064 586.52814 313.21564Z" fill-rule="nonzero"/><path fill="#4285f4" d="M131.0 56.916668C131.0 56.364384 131.44771 55.916668 132.0 55.916668L142.0 55.916668C142.55229 55.916668 143.0 56.364384 143.0 56.916668L143.0 66.916664C143.0 67.46895 142.55229 67.916664 142.0 67.916664L132.0 67.916664C131.44771 67.916664 131.0 67.46895 131.0 66.916664Z" fill-rule="nonzero"/><path fill="#1a1a1a" d="M151.40625 62.80729Q151.40625 61.072914 152.35938 60.24479Q153.15625 59.55729 154.3125 59.55729Q155.59375 59.55729 156.40625 60.40104Q157.23438 61.229164 157.23438 62.71354Q157.23438 63.916664 156.875 64.604164Q156.51562 65.291664 155.8125 65.68229Q155.125 66.05729 154.3125 66.05729Q153.01562 66.05729 152.20312 65.229164Q151.40625 64.385414 151.40625 62.80729ZM152.48438 62.80729Q152.48438 63.99479 153.0 64.58854Q153.53125 65.18229 154.3125 65.18229Q155.10938 65.18229 155.625 64.58854Q156.14062 63.99479 156.14062 62.77604Q156.14062 61.61979 155.60938 61.02604Q155.09375 60.43229 154.3125 60.43229Q153.53125 60.43229 153.0 61.02604Q152.48438 61.604164 152.48438 62.80729ZM164.04688 64.90104L164.04688 65.916664L158.35938 65.916664Q158.35938 65.541664 158.48438 65.18229Q158.70312 64.604164 159.17188 64.041664Q159.65625 63.479164 160.5625 62.74479Q161.96875 61.58854 162.45312 60.916664Q162.95312 60.24479 162.95312 59.65104Q162.95312 59.02604 162.5 58.604164Q162.04688 58.166664 161.32812 58.166664Q160.5625 58.166664 160.10938 58.61979Q159.65625 59.072914 159.64062 59.885414L158.5625 59.77604Q158.67188 58.55729 159.39062 57.93229Q160.125 57.291664 161.35938 57.291664Q162.59375 57.291664 163.3125 57.979164Q164.03125 58.666664 164.03125 59.68229Q164.03125 60.197914 163.8125 60.697914Q163.60938 61.18229 163.10938 61.74479Q162.625 62.291664 161.5 63.24479Q160.54688 64.041664 160.26562 64.33854Q160.0 64.61979 159.82812 64.90104L164.04688 64.90104ZM170.8125 68.447914Q169.9375 67.33854 169.32812 65.86979Q168.73438 64.385414 168.73438 62.80729Q168.73438 61.416664 169.17188 60.135414Q169.70312 58.65104 170.8125 57.18229L171.5625 57.18229Q170.85938 58.40104 170.625 58.916664Q170.26562 59.729164 170.0625 60.604164Q169.8125 61.697914 169.8125 62.80729Q169.8125 65.635414 171.5625 68.447914L170.8125 68.447914ZM173.76562 65.916664L172.78125 65.916664L172.78125 57.322914L173.84375 57.322914L173.84375 60.385414Q174.51562 59.55729 175.54688 59.55729Q176.125 59.55729 176.625 59.791664Q177.14062 60.010414 177.46875 60.43229Q177.8125 60.854164 178.0 61.447914Q178.1875 62.041664 178.1875 62.71354Q178.1875 64.30729 177.39062 65.18229Q176.59375 66.05729 175.5 66.05729Q174.39062 66.05729 173.76562 65.135414L173.76562 65.916664ZM173.75 62.760414Q173.75 63.86979 174.0625 64.36979Q174.5625 65.18229 175.40625 65.18229Q176.09375 65.18229 176.59375 64.58854Q177.10938 63.99479 177.10938 62.791664Q177.10938 61.572914 176.625 60.99479Q176.14062 60.416664 175.45312 60.416664Q174.76562 60.416664 174.25 61.02604Q173.75 61.61979 173.75 62.760414ZM183.875 65.916664L183.875 64.99479Q183.14062 66.05729 181.89062 66.05729Q181.34375 66.05729 180.85938 65.854164Q180.39062 65.635414 180.15625 65.322914Q179.92188 64.99479 179.82812 64.52604Q179.76562 64.229164 179.76562 63.541664L179.76562 59.697914L180.82812 59.697914L180.82812 63.15104Q180.82812 63.96354 180.89062 64.260414Q180.98438 64.666664 181.29688 64.916664Q181.625 65.15104 182.10938 65.15104Q182.57812 65.15104 182.98438 64.916664Q183.40625 64.666664 183.57812 64.24479Q183.76562 63.822914 183.76562 63.02604L183.76562 59.697914L184.8125 59.697914L184.8125 65.916664L183.875 65.916664ZM189.09375 64.979164L189.25 65.90104Q188.79688 65.99479 188.45312 65.99479Q187.875 65.99479 187.5625 65.822914Q187.25 65.635414 187.10938 65.33854Q186.98438 65.041664 186.98438 64.08854L186.98438 60.510414L186.21875 60.510414L186.21875 59.697914L186.98438 59.697914L186.98438 58.15104L188.03125 57.52604L188.03125 59.697914L189.09375 59.697914L189.09375 60.510414L188.03125 60.510414L188.03125 64.15104Q188.03125 64.604164 188.07812 64.729164Q188.14062 64.854164 188.26562 64.93229Q188.39062 65.010414 188.625 65.010414Q188.8125 65.010414 189.09375 64.979164ZM192.09375 64.979164L192.25 65.90104Q191.79688 65.99479 191.45312 65.99479Q190.875 65.99479 190.5625 65.822914Q190.25 65.635414 190.10938 65.33854Q189.98438 65.041664 189.98438 64.08854L189.98438 60.510414L189.21875 60.510414L189.21875 59.697914L189.98438 59.697914L189.98438 58.15104L191.03125 57.52604L191.03125 59.697914L192.09375 59.697914L192.09375 60.510414L191.03125 60.510414L191.03125 64.15104Q191.03125 64.604164 191.07812 64.729164Q191.14062 64.854164 191.26562 64.93229Q191.39062 65.010414 191.625 65.010414Q191.8125 65.010414 192.09375 64.979164ZM192.40625 62.80729Q192.40625 61.072914 193.35938 60.24479Q194.15625 59.55729 195.3125 59.55729Q196.59375 59.55729 197.40625 60.40104Q198.23438 61.229164 198.23438 62.71354Q198.23438 63.916664 197.875 64.604164Q197.51562 65.291664 196.8125 65.68229Q196.125 66.05729 195.3125 66.05729Q194.01562 66.05729 193.20312 65.229164Q192.40625 64.385414 192.40625 62.80729ZM193.48438 62.80729Q193.48438 63.99479 194.0 64.58854Q194.53125 65.18229 195.3125 65.18229Q196.10938 65.18229 196.625 64.58854Q197.14062 63.99479 197.14062 62.77604Q197.14062 61.61979 196.60938 61.02604Q196.09375 60.43229 195.3125 60.43229Q194.53125 60.43229 194.0 61.02604Q193.48438 61.604164 193.48438 62.80729ZM199.79688 65.916664L199.79688 59.697914L200.73438 59.697914L200.73438 60.572914Q201.42188 59.55729 202.71875 59.55729Q203.28125 59.55729 203.75 59.760414Q204.23438 59.96354 204.46875 60.291664Q204.70312 60.61979 204.79688 61.05729Q204.84375 61.354164 204.84375 62.08854L204.84375 65.916664L203.79688 65.916664L203.79688 62.135414Q203.79688 61.479164 203.67188 61.166664Q203.54688 60.854164 203.23438 60.666664Q202.92188 60.46354 202.5 60.46354Q201.82812 60.46354 201.32812 60.90104Q200.84375 61.322914 200.84375 62.510414L200.84375 65.916664L199.79688 65.916664ZM206.375 64.05729L207.40625 63.90104Q207.5 64.52604 207.89062 64.854164Q208.29688 65.18229 209.03125 65.18229Q209.75 65.18229 210.09375 64.90104Q210.45312 64.604164 210.45312 64.197914Q210.45312 63.83854 210.14062 63.635414Q209.92188 63.49479 209.0625 63.27604Q207.90625 62.979164 207.45312 62.77604Q207.01562 62.55729 206.78125 62.18229Q206.54688 61.80729 206.54688 61.33854Q206.54688 60.93229 206.73438 60.572914Q206.92188 60.21354 207.25 59.979164Q207.5 59.80729 207.92188 59.68229Q208.34375 59.55729 208.84375 59.55729Q209.5625 59.55729 210.10938 59.77604Q210.67188 59.979164 210.9375 60.33854Q211.20312 60.697914 211.29688 61.291664L210.26562 61.43229Q210.20312 60.96354 209.85938 60.697914Q209.53125 60.416664 208.90625 60.416664Q208.1875 60.416664 207.875 60.666664Q207.5625 60.90104 207.5625 61.229164Q207.5625 61.43229 207.6875 61.58854Q207.82812 61.760414 208.09375 61.86979Q208.25 61.93229 209.03125 62.135414Q210.15625 62.447914 210.59375 62.635414Q211.03125 62.822914 211.28125 63.18229Q211.53125 63.541664 211.53125 64.08854Q211.53125 64.61979 211.21875 65.08854Q210.92188 65.541664 210.34375 65.80729Q209.76562 66.05729 209.03125 66.05729Q207.8125 66.05729 207.17188 65.55729Q206.54688 65.041664 206.375 64.05729ZM214.0625 65.916664L214.0625 64.71354L215.26562 64.71354L215.26562 65.916664Q215.26562 66.572914 215.03125 66.979164Q214.79688 67.40104 214.29688 67.61979L214.0 67.166664Q214.32812 67.02604 214.48438 66.729164Q214.64062 66.447914 214.67188 65.916664L214.0625 65.916664ZM220.04688 65.916664L220.04688 60.510414L219.10938 60.510414L219.10938 59.697914L220.04688 59.697914L220.04688 59.02604Q220.04688 58.40104 220.15625 58.104164Q220.3125 57.68229 220.6875 57.43229Q221.07812 57.18229 221.76562 57.18229Q222.21875 57.18229 222.75 57.291664L222.59375 58.197914Q222.26562 58.15104 221.96875 58.15104Q221.48438 58.15104 221.28125 58.354164Q221.09375 58.55729 221.09375 59.11979L221.09375 59.697914L222.3125 59.697914L222.3125 60.510414L221.09375 60.510414L221.09375 65.916664L220.04688 65.916664ZM222.40625 62.80729Q222.40625 61.072914 223.35938 60.24479Q224.15625 59.55729 225.3125 59.55729Q226.59375 59.55729 227.40625 60.40104Q228.23438 61.229164 228.23438 62.71354Q228.23438 63.916664 227.875 64.604164Q227.51562 65.291664 226.8125 65.68229Q226.125 66.05729 225.3125 66.05729Q224.01562 66.05729 223.20312 65.229164Q222.40625 64.385414 222.40625 62.80729ZM223.48438 62.80729Q223.48438 63.99479 224.0 64.58854Q224.53125 65.18229 225.3125 65.18229Q226.10938 65.18229 226.625 64.58854Q227.14062 63.99479 227.14062 62.77604Q227.14062 61.61979 226.60938 61.02604Q226.09375 60.43229 225.3125 60.43229Q224.53125 60.43229 224.0 61.02604Q223.48438 61.604164 223.48438 62.80729ZM229.79688 65.916664L229.79688 59.697914L230.73438 59.697914L230.73438 60.572914Q231.42188 59.55729 232.71875 59.55729Q233.28125 59.55729 233.75 59.760414Q234.23438 59.96354 234.46875 60.291664Q234.70312 60.61979 234.79688 61.05729Q234.84375 61.354164 234.84375 62.08854L234.84375 65.916664L233.79688 65.916664L233.79688 62.135414Q233.79688 61.479164 233.67188 61.166664Q233.54688 60.854164 233.23438 60.666664Q232.92188 60.46354 232.5 60.46354Q231.82812 60.46354 231.32812 60.90104Q230.84375 61.322914 230.84375 62.510414L230.84375 65.916664L229.79688 65.916664ZM239.09375 64.979164L239.25 65.90104Q238.79688 65.99479 238.45312 65.99479Q237.875 65.99479 237.5625 65.822914Q237.25 65.635414 237.10938 65.33854Q236.98438 65.041664 236.98438 64.08854L236.98438 60.510414L236.21875 60.510414L236.21875 59.697914L236.98438 59.697914L236.98438 58.15104L238.03125 57.52604L238.03125 59.697914L239.09375 59.697914L239.09375 60.510414L238.03125 60.510414L238.03125 64.15104Q238.03125 64.604164 238.07812 64.729164Q238.14062 64.854164 238.26562 64.93229Q238.39062 65.010414 238.625 65.010414Q238.8125 65.010414 239.09375 64.979164ZM239.375 64.05729L240.40625 63.90104Q240.5 64.52604 240.89062 64.854164Q241.29688 65.18229 242.03125 65.18229Q242.75 65.18229 243.09375 64.90104Q243.45312 64.604164 243.45312 64.197914Q243.45312 63.83854 243.14062 63.635414Q242.92188 63.49479 242.0625 63.27604Q240.90625 62.979164 240.45312 62.77604Q240.01562 62.55729 239.78125 62.18229Q239.54688 61.80729 239.54688 61.33854Q239.54688 60.93229 239.73438 60.572914Q239.92188 60.21354 240.25 59.979164Q240.5 59.80729 240.92188 59.68229Q241.34375 59.55729 241.84375 59.55729Q242.5625 59.55729 243.10938 59.77604Q243.67188 59.979164 243.9375 60.33854Q244.20312 60.697914 244.29688 61.291664L243.26562 61.43229Q243.20312 60.96354 242.85938 60.697914Q242.53125 60.416664 241.90625 60.416664Q241.1875 60.416664 240.875 60.666664Q240.5625 60.90104 240.5625 61.229164Q240.5625 61.43229 240.6875 61.58854Q240.82812 61.760414 241.09375 61.86979Q241.25 61.93229 242.03125 62.135414Q243.15625 62.447914 243.59375 62.635414Q244.03125 62.822914 244.28125 63.18229Q244.53125 63.541664 244.53125 64.08854Q244.53125 64.61979 244.21875 65.08854Q243.92188 65.541664 243.34375 65.80729Q242.76562 66.05729 242.03125 66.05729Q240.8125 66.05729 240.17188 65.55729Q239.54688 65.041664 239.375 64.05729ZM247.0625 65.916664L247.0625 64.71354L248.26562 64.71354L248.26562 65.916664Q248.26562 66.572914 248.03125 66.979164Q247.79688 67.40104 247.29688 67.61979L247.0 67.166664Q247.32812 67.02604 247.48438 66.729164Q247.64062 66.447914 247.67188 65.916664L247.0625 65.916664ZM256.85938 63.635414L257.89062 63.77604Q257.71875 64.83854 257.01562 65.447914Q256.3125 66.05729 255.29688 66.05729Q254.01562 66.05729 253.23438 65.229164Q252.46875 64.385414 252.46875 62.822914Q252.46875 61.822914 252.79688 61.072914Q253.14062 60.30729 253.8125 59.93229Q254.5 59.55729 255.3125 59.55729Q256.3125 59.55729 256.95312 60.072914Q257.60938 60.572914 257.79688 61.52604L256.76562 61.68229Q256.625 61.05729 256.25 60.74479Q255.875 60.416664 255.34375 60.416664Q254.54688 60.416664 254.04688 60.99479Q253.54688 61.55729 253.54688 62.791664Q253.54688 64.05729 254.03125 64.61979Q254.51562 65.18229 255.28125 65.18229Q255.90625 65.18229 256.3125 64.80729Q256.73438 64.43229 256.85938 63.635414ZM258.40625 62.80729Q258.40625 61.072914 259.35938 60.24479Q260.15625 59.55729 261.3125 59.55729Q262.59375 59.55729 263.40625 60.40104Q264.23438 61.229164 264.23438 62.71354Q264.23438 63.916664 263.875 64.604164Q263.51562 65.291664 262.8125 65.68229Q262.125 66.05729 261.3125 66.05729Q260.01562 66.05729 259.20312 65.229164Q258.40625 64.385414 258.40625 62.80729ZM259.48438 62.80729Q259.48438 63.99479 260.0 64.58854Q260.53125 65.18229 261.3125 65.18229Q262.10938 65.18229 262.625 64.58854Q263.14062 63.99479 263.14062 62.77604Q263.14062 61.61979 262.60938 61.02604Q262.09375 60.43229 261.3125 60.43229Q260.53125 60.43229 260.0 61.02604Q259.48438 61.604164 259.48438 62.80729ZM265.76562 65.916664L265.76562 57.322914L266.82812 57.322914L266.82812 65.916664L265.76562 65.916664ZM268.40625 62.80729Q268.40625 61.072914 269.35938 60.24479Q270.15625 59.55729 271.3125 59.55729Q272.59375 59.55729 273.40625 60.40104Q274.23438 61.229164 274.23438 62.71354Q274.23438 63.916664 273.875 64.604164Q273.51562 65.291664 272.8125 65.68229Q272.125 66.05729 271.3125 66.05729Q270.01562 66.05729 269.20312 65.229164Q268.40625 64.385414 268.40625 62.80729ZM269.48438 62.80729Q269.48438 63.99479 270.0 64.58854Q270.53125 65.18229 271.3125 65.18229Q272.10938 65.18229 272.625 64.58854Q273.14062 63.99479 273.14062 62.77604Q273.14062 61.61979 272.60938 61.02604Q272.09375 60.43229 271.3125 60.43229Q270.53125 60.43229 270.0 61.02604Q269.48438 61.604164 269.48438 62.80729ZM275.78125 65.916664L275.78125 59.697914L276.73438 59.697914L276.73438 60.635414Q277.09375 59.979164 277.39062 59.77604Q277.70312 59.55729 278.07812 59.55729Q278.60938 59.55729 279.15625 59.885414L278.79688 60.86979Q278.40625 60.635414 278.03125 60.635414Q277.67188 60.635414 277.39062 60.854164Q277.125 61.05729 277.01562 61.43229Q276.82812 61.99479 276.82812 62.65104L276.82812 65.916664L275.78125 65.916664ZM279.375 64.05729L280.40625 63.90104Q280.5 64.52604 280.89062 64.854164Q281.29688 65.18229 282.03125 65.18229Q282.75 65.18229 283.09375 64.90104Q283.45312 64.604164 283.45312 64.197914Q283.45312 63.83854 283.14062 63.635414Q282.92188 63.49479 282.0625 63.27604Q280.90625 62.979164 280.45312 62.77604Q280.01562 62.55729 279.78125 62.18229Q279.54688 61.80729 279.54688 61.33854Q279.54688 60.93229 279.73438 60.572914Q279.92188 60.21354 280.25 59.979164Q280.5 59.80729 280.92188 59.68229Q281.34375 59.55729 281.84375 59.55729Q282.5625 59.55729 283.10938 59.77604Q283.67188 59.979164 283.9375 60.33854Q284.20312 60.697914 284.29688 61.291664L283.26562 61.43229Q283.20312 60.96354 282.85938 60.697914Q282.53125 60.416664 281.90625 60.416664Q281.1875 60.416664 280.875 60.666664Q280.5625 60.90104 280.5625 61.229164Q280.5625 61.43229 280.6875 61.58854Q280.82812 61.760414 281.09375 61.86979Q281.25 61.93229 282.03125 62.135414Q283.15625 62.447914 283.59375 62.635414Q284.03125 62.822914 284.28125 63.18229Q284.53125 63.541664 284.53125 64.08854Q284.53125 64.61979 284.21875 65.08854Q283.92188 65.541664 283.34375 65.80729Q282.76562 66.05729 282.03125 66.05729Q280.8125 66.05729 280.17188 65.55729Q279.54688 65.041664 279.375 64.05729ZM287.0625 65.916664L287.0625 64.71354L288.26562 64.71354L288.26562 65.916664Q288.26562 66.572914 288.03125 66.979164Q287.79688 67.40104 287.29688 67.61979L287.0 67.166664Q287.32812 67.02604 287.48438 66.729164Q287.64062 66.447914 287.67188 65.916664L287.0625 65.916664ZM292.79688 65.916664L292.79688 59.697914L293.73438 59.697914L293.73438 60.572914Q294.42188 59.55729 295.71875 59.55729Q296.28125 59.55729 296.75 59.760414Q297.23438 59.96354 297.46875 60.291664Q297.70312 60.61979 297.79688 61.05729Q297.84375 61.354164 297.84375 62.08854L297.84375 65.916664L296.79688 65.916664L296.79688 62.135414Q296.79688 61.479164 296.67188 61.166664Q296.54688 60.854164 296.23438 60.666664Q295.92188 60.46354 295.5 60.46354Q294.82812 60.46354 294.32812 60.90104Q293.84375 61.322914 293.84375 62.510414L293.84375 65.916664L292.79688 65.916664ZM299.40625 62.80729Q299.40625 61.072914 300.35938 60.24479Q301.15625 59.55729 302.3125 59.55729Q303.59375 59.55729 304.40625 60.40104Q305.23438 61.229164 305.23438 62.71354Q305.23438 63.916664 304.875 64.604164Q304.51562 65.291664 303.8125 65.68229Q303.125 66.05729 302.3125 66.05729Q301.01562 66.05729 300.20312 65.229164Q299.40625 64.385414 299.40625 62.80729ZM300.48438 62.80729Q300.48438 63.99479 301.0 64.58854Q301.53125 65.18229 302.3125 65.18229Q303.10938 65.18229 303.625 64.58854Q304.14062 63.99479 304.14062 62.77604Q304.14062 61.61979 303.60938 61.02604Q303.09375 60.43229 302.3125 60.43229Q301.53125 60.43229 301.0 61.02604Q300.48438 61.604164 300.48438 62.80729ZM306.78125 65.916664L306.78125 59.697914L307.73438 59.697914L307.73438 60.635414Q308.09375 59.979164 308.39062 59.77604Q308.70312 59.55729 309.07812 59.55729Q309.60938 59.55729 310.15625 59.885414L309.79688 60.86979Q309.40625 60.635414 309.03125 60.635414Q308.67188 60.635414 308.39062 60.854164Q308.125 61.05729 308.01562 61.43229Q307.82812 61.99479 307.82812 62.65104L307.82812 65.916664L306.78125 65.916664ZM310.79688 65.916664L310.79688 59.697914L311.73438 59.697914L311.73438 60.572914Q312.03125 60.104164 312.51562 59.83854Q313.0 59.55729 313.625 59.55729Q314.3125 59.55729 314.75 59.83854Q315.20312 60.11979 315.375 60.635414Q316.125 59.55729 317.29688 59.55729Q318.23438 59.55729 318.71875 60.072914Q319.21875 60.572914 319.21875 61.65104L319.21875 65.916664L318.17188 65.916664L318.17188 61.99479Q318.17188 61.36979 318.0625 61.08854Q317.96875 60.80729 317.70312 60.635414Q317.4375 60.46354 317.0625 60.46354Q316.40625 60.46354 315.96875 60.90104Q315.54688 61.33854 315.54688 62.30729L315.54688 65.916664L314.48438 65.916664L314.48438 61.86979Q314.48438 61.166664 314.21875 60.822914Q313.96875 60.46354 313.39062 60.46354Q312.9375 60.46354 312.5625 60.697914Q312.1875 60.93229 312.01562 61.385414Q311.84375 61.83854 311.84375 62.68229L311.84375 65.916664L310.79688 65.916664ZM325.85938 65.15104Q325.26562 65.65104 324.71875 65.854164Q324.1875 66.05729 323.5625 66.05729Q322.53125 66.05729 321.98438 65.55729Q321.4375 65.05729 321.4375 64.27604Q321.4375 63.822914 321.64062 63.447914Q321.84375 63.05729 322.1875 62.83854Q322.53125 62.604164 322.95312 62.49479Q323.25 62.40104 323.89062 62.322914Q325.15625 62.18229 325.76562 61.96354Q325.76562 61.74479 325.76562 61.697914Q325.76562 61.041664 325.46875 60.77604Q325.0625 60.43229 324.26562 60.43229Q323.53125 60.43229 323.17188 60.697914Q322.8125 60.947914 322.64062 61.604164L321.60938 61.46354Q321.75 60.80729 322.07812 60.40104Q322.40625 59.99479 323.01562 59.77604Q323.625 59.55729 324.42188 59.55729Q325.21875 59.55729 325.71875 59.74479Q326.21875 59.93229 326.45312 60.21354Q326.6875 60.49479 326.78125 60.93229Q326.82812 61.197914 326.82812 61.90104L326.82812 63.30729Q326.82812 64.77604 326.89062 65.166664Q326.96875 65.55729 327.17188 65.916664L326.0625 65.916664Q325.90625 65.58854 325.85938 65.15104ZM325.76562 62.791664Q325.1875 63.02604 324.04688 63.197914Q323.39062 63.291664 323.125 63.416664Q322.85938 63.52604 322.70312 63.74479Q322.5625 63.96354 322.5625 64.24479Q322.5625 64.666664 322.875 64.947914Q323.20312 65.229164 323.8125 65.229164Q324.42188 65.229164 324.89062 64.96354Q325.375 64.697914 325.59375 64.229164Q325.76562 63.86979 325.76562 63.18229L325.76562 62.791664ZM328.76562 65.916664L328.76562 57.322914L329.82812 57.322914L329.82812 65.916664L328.76562 65.916664ZM331.79688 58.541664L331.79688 57.322914L332.85938 57.322914L332.85938 58.541664L331.79688 58.541664ZM331.79688 65.916664L331.79688 59.697914L332.85938 59.697914L332.85938 65.916664L331.79688 65.916664ZM334.375 64.05729L335.40625 63.90104Q335.5 64.52604 335.89062 64.854164Q336.29688 65.18229 337.03125 65.18229Q337.75 65.18229 338.09375 64.90104Q338.45312 64.604164 338.45312 64.197914Q338.45312 63.83854 338.14062 63.635414Q337.92188 63.49479 337.0625 63.27604Q335.90625 62.979164 335.45312 62.77604Q335.01562 62.55729 334.78125 62.18229Q334.54688 61.80729 334.54688 61.33854Q334.54688 60.93229 334.73438 60.572914Q334.92188 60.21354 335.25 59.979164Q335.5 59.80729 335.92188 59.68229Q336.34375 59.55729 336.84375 59.55729Q337.5625 59.55729 338.10938 59.77604Q338.67188 59.979164 338.9375 60.33854Q339.20312 60.697914 339.29688 61.291664L338.26562 61.43229Q338.20312 60.96354 337.85938 60.697914Q337.53125 60.416664 336.90625 60.416664Q336.1875 60.416664 335.875 60.666664Q335.5625 60.90104 335.5625 61.229164Q335.5625 61.43229 335.6875 61.58854Q335.82812 61.760414 336.09375 61.86979Q336.25 61.93229 337.03125 62.135414Q338.15625 62.447914 338.59375 62.635414Q339.03125 62.822914 339.28125 63.18229Q339.53125 63.541664 339.53125 64.08854Q339.53125 64.61979 339.21875 65.08854Q338.92188 65.541664 338.34375 65.80729Q337.76562 66.05729 337.03125 66.05729Q335.8125 66.05729 335.17188 65.55729Q334.54688 65.041664 334.375 64.05729ZM346.04688 63.916664L347.14062 64.041664Q346.89062 64.99479 346.1875 65.52604Q345.48438 66.05729 344.40625 66.05729Q343.04688 66.05729 342.23438 65.21354Q341.4375 64.36979 341.4375 62.854164Q341.4375 61.291664 342.25 60.43229Q343.0625 59.55729 344.34375 59.55729Q345.59375 59.55729 346.375 60.40104Q347.17188 61.24479 347.17188 62.791664Q347.17188 62.885414 347.17188 63.072914L342.53125 63.072914Q342.59375 64.104164 343.10938 64.65104Q343.625 65.18229 344.40625 65.18229Q344.98438 65.18229 345.39062 64.885414Q345.8125 64.572914 346.04688 63.916664ZM342.59375 62.21354L346.0625 62.21354Q346.0 61.416664 345.67188 61.02604Q345.15625 60.416664 344.35938 60.416664Q343.625 60.416664 343.125 60.90104Q342.64062 61.385414 342.59375 62.21354ZM349.48438 68.447914L348.73438 68.447914Q350.48438 65.635414 350.48438 62.80729Q350.48438 61.71354 350.23438 60.61979Q350.03125 59.74479 349.67188 58.93229Q349.4375 58.416664 348.73438 57.18229L349.48438 57.18229Q350.57812 58.65104 351.10938 60.135414Q351.5625 61.416664 351.5625 62.80729Q351.5625 64.385414 350.95312 65.86979Q350.34375 67.33854 349.48438 68.447914Z" fill-rule="nonzero"/><path fill="#ea4335" d="M368.0 56.916668C368.0 56.364384 368.44772 55.916668 369.0 55.916668L379.0 55.916668C379.55228 55.916668 380.0 56.364384 380.0 56.916668L380.0 66.916664C380.0 67.46895 379.55228 67.916664 379.0 67.916664L369.0 67.916664C368.44772 67.916664 368.0 67.46895 368.0 66.916664Z" fill-rule="nonzero"/><path fill="#1a1a1a" d="M388.40625 62.80729Q388.40625 61.072914 389.35938 60.24479Q390.15625 59.55729 391.3125 59.55729Q392.59375 59.55729 393.40625 60.40104Q394.23438 61.229164 394.23438 62.71354Q394.23438 63.916664 393.875 64.604164Q393.51562 65.291664 392.8125 65.68229Q392.125 66.05729 391.3125 66.05729Q390.01562 66.05729 389.20312 65.229164Q388.40625 64.385414 388.40625 62.80729ZM389.48438 62.80729Q389.48438 63.99479 390.0 64.58854Q390.53125 65.18229 391.3125 65.18229Q392.10938 65.18229 392.625 64.58854Q393.14062 63.99479 393.14062 62.77604Q393.14062 61.61979 392.60938 61.02604Q392.09375 60.43229 391.3125 60.43229Q390.53125 60.43229 390.0 61.02604Q389.48438 61.604164 389.48438 62.80729ZM395.5 63.65104L396.5625 63.510414Q396.73438 64.40104 397.17188 64.80729Q397.60938 65.197914 398.23438 65.197914Q398.98438 65.197914 399.5 64.68229Q400.01562 64.166664 400.01562 63.40104Q400.01562 62.68229 399.53125 62.21354Q399.0625 61.729164 398.32812 61.729164Q398.03125 61.729164 397.57812 61.854164L397.70312 60.916664Q397.8125 60.93229 397.875 60.93229Q398.54688 60.93229 399.07812 60.58854Q399.625 60.229164 399.625 59.49479Q399.625 58.916664 399.23438 58.541664Q398.84375 58.15104 398.21875 58.15104Q397.60938 58.15104 397.1875 58.541664Q396.78125 58.93229 396.67188 59.697914L395.60938 59.510414Q395.79688 58.46354 396.48438 57.885414Q397.17188 57.291664 398.1875 57.291664Q398.89062 57.291664 399.48438 57.604164Q400.07812 57.90104 400.39062 58.416664Q400.70312 58.93229 400.70312 59.52604Q400.70312 60.072914 400.40625 60.541664Q400.10938 60.99479 399.53125 61.260414Q400.28125 61.43229 400.70312 61.99479Q401.125 62.541664 401.125 63.385414Q401.125 64.510414 400.29688 65.291664Q399.48438 66.072914 398.23438 66.072914Q397.10938 66.072914 396.35938 65.40104Q395.60938 64.71354 395.5 63.65104ZM407.8125 68.447914Q406.9375 67.33854 406.32812 65.86979Q405.73438 64.385414 405.73438 62.80729Q405.73438 61.416664 406.17188 60.135414Q406.70312 58.65104 407.8125 57.18229L408.5625 57.18229Q407.85938 58.40104 407.625 58.916664Q407.26562 59.729164 407.0625 60.604164Q406.8125 61.697914 406.8125 62.80729Q406.8125 65.635414 408.5625 68.447914L407.8125 68.447914ZM414.04688 63.916664L415.14062 64.041664Q414.89062 64.99479 414.1875 65.52604Q413.48438 66.05729 412.40625 66.05729Q411.04688 66.05729 410.23438 65.21354Q409.4375 64.36979 409.4375 62.854164Q409.4375 61.291664 410.25 60.43229Q411.0625 59.55729 412.34375 59.55729Q413.59375 59.55729 414.375 60.40104Q415.17188 61.24479 415.17188 62.791664Q415.17188 62.885414 415.17188 63.072914L410.53125 63.072914Q410.59375 64.104164 411.10938 64.65104Q411.625 65.18229 412.40625 65.18229Q412.98438 65.18229 413.39062 64.885414Q413.8125 64.572914 414.04688 63.916664ZM410.59375 62.21354L414.0625 62.21354Q414.0 61.416664 413.67188 61.02604Q413.15625 60.416664 412.35938 60.416664Q411.625 60.416664 411.125 60.90104Q410.64062 61.385414 410.59375 62.21354ZM420.76562 68.30729L420.76562 65.260414Q420.51562 65.604164 420.0625 65.83854Q419.625 66.05729 419.125 66.05729Q418.01562 66.05729 417.21875 65.18229Q416.42188 64.291664 416.42188 62.74479Q416.42188 61.80729 416.75 61.072914Q417.07812 60.322914 417.6875 59.947914Q418.3125 59.55729 419.04688 59.55729Q420.20312 59.55729 420.85938 60.52604L420.85938 59.697914L421.8125 59.697914L421.8125 68.30729L420.76562 68.30729ZM417.5 62.791664Q417.5 63.99479 418.0 64.58854Q418.51562 65.18229 419.21875 65.18229Q419.89062 65.18229 420.375 64.61979Q420.85938 64.041664 420.85938 62.885414Q420.85938 61.635414 420.34375 61.010414Q419.84375 60.385414 419.14062 60.385414Q418.46875 60.385414 417.98438 60.979164Q417.5 61.55729 417.5 62.791664ZM427.875 65.916664L427.875 64.99479Q427.14062 66.05729 425.89062 66.05729Q425.34375 66.05729 424.85938 65.854164Q424.39062 65.635414 424.15625 65.322914Q423.92188 64.99479 423.82812 64.52604Q423.76562 64.229164 423.76562 63.541664L423.76562 59.697914L424.82812 59.697914L424.82812 63.15104Q424.82812 63.96354 424.89062 64.260414Q424.98438 64.666664 425.29688 64.916664Q425.625 65.15104 426.10938 65.15104Q426.57812 65.15104 426.98438 64.916664Q427.40625 64.666664 427.57812 64.24479Q427.76562 63.822914 427.76562 63.02604L427.76562 59.697914L428.8125 59.697914L428.8125 65.916664L427.875 65.916664ZM430.79688 58.541664L430.79688 57.322914L431.85938 57.322914L431.85938 58.541664L430.79688 58.541664ZM430.79688 65.916664L430.79688 59.697914L431.85938 59.697914L431.85938 65.916664L430.79688 65.916664ZM435.51562 65.916664L433.15625 59.697914L434.26562 59.697914L435.60938 63.416664Q435.8125 64.02604 436.0 64.666664Q436.14062 64.18229 436.39062 63.49479L437.78125 59.697914L438.85938 59.697914L436.5 65.916664L435.51562 65.916664ZM442.85938 65.15104Q442.26562 65.65104 441.71875 65.854164Q441.1875 66.05729 440.5625 66.05729Q439.53125 66.05729 438.98438 65.55729Q438.4375 65.05729 438.4375 64.27604Q438.4375 63.822914 438.64062 63.447914Q438.84375 63.05729 439.1875 62.83854Q439.53125 62.604164 439.95312 62.49479Q440.25 62.40104 440.89062 62.322914Q442.15625 62.18229 442.76562 61.96354Q442.76562 61.74479 442.76562 61.697914Q442.76562 61.041664 442.46875 60.77604Q442.0625 60.43229 441.26562 60.43229Q440.53125 60.43229 440.17188 60.697914Q439.8125 60.947914 439.64062 61.604164L438.60938 61.46354Q438.75 60.80729 439.07812 60.40104Q439.40625 59.99479 440.01562 59.77604Q440.625 59.55729 441.42188 59.55729Q442.21875 59.55729 442.71875 59.74479Q443.21875 59.93229 443.45312 60.21354Q443.6875 60.49479 443.78125 60.93229Q443.82812 61.197914 443.82812 61.90104L443.82812 63.30729Q443.82812 64.77604 443.89062 65.166664Q443.96875 65.55729 444.17188 65.916664L443.0625 65.916664Q442.90625 65.58854 442.85938 65.15104ZM442.76562 62.791664Q442.1875 63.02604 441.04688 63.197914Q440.39062 63.291664 440.125 63.416664Q439.85938 63.52604 439.70312 63.74479Q439.5625 63.96354 439.5625 64.24479Q439.5625 64.666664 439.875 64.947914Q440.20312 65.229164 440.8125 65.229164Q441.42188 65.229164 441.89062 64.96354Q442.375 64.697914 442.59375 64.229164Q442.76562 63.86979 442.76562 63.18229L442.76562 62.791664ZM445.76562 65.916664L445.76562 57.322914L446.82812 57.322914L446.82812 65.916664L445.76562 65.916664ZM453.04688 63.916664L454.14062 64.041664Q453.89062 64.99479 453.1875 65.52604Q452.48438 66.05729 451.40625 66.05729Q450.04688 66.05729 449.23438 65.21354Q448.4375 64.36979 448.4375 62.854164Q448.4375 61.291664 449.25 60.43229Q450.0625 59.55729 451.34375 59.55729Q452.59375 59.55729 453.375 60.40104Q454.17188 61.24479 454.17188 62.791664Q454.17188 62.885414 454.17188 63.072914L449.53125 63.072914Q449.59375 64.104164 450.10938 64.65104Q450.625 65.18229 451.40625 65.18229Q451.98438 65.18229 452.39062 64.885414Q452.8125 64.572914 453.04688 63.916664ZM449.59375 62.21354L453.0625 62.21354Q453.0 61.416664 452.67188 61.02604Q452.15625 60.416664 451.35938 60.416664Q450.625 60.416664 450.125 60.90104Q449.64062 61.385414 449.59375 62.21354ZM455.79688 65.916664L455.79688 59.697914L456.73438 59.697914L456.73438 60.572914Q457.42188 59.55729 458.71875 59.55729Q459.28125 59.55729 459.75 59.760414Q460.23438 59.96354 460.46875 60.291664Q460.70312 60.61979 460.79688 61.05729Q460.84375 61.354164 460.84375 62.08854L460.84375 65.916664L459.79688 65.916664L459.79688 62.135414Q459.79688 61.479164 459.67188 61.166664Q459.54688 60.854164 459.23438 60.666664Q458.92188 60.46354 458.5 60.46354Q457.82812 60.46354 457.32812 60.90104Q456.84375 61.322914 456.84375 62.510414L456.84375 65.916664L455.79688 65.916664ZM465.09375 64.979164L465.25 65.90104Q464.79688 65.99479 464.45312 65.99479Q463.875 65.99479 463.5625 65.822914Q463.25 65.635414 463.10938 65.33854Q462.98438 65.041664 462.98438 64.08854L462.98438 60.510414L462.21875 60.510414L462.21875 59.697914L462.98438 59.697914L462.98438 58.15104L464.03125 57.52604L464.03125 59.697914L465.09375 59.697914L465.09375 60.510414L464.03125 60.510414L464.03125 64.15104Q464.03125 64.604164 464.07812 64.729164Q464.14062 64.854164 464.26562 64.93229Q464.39062 65.010414 464.625 65.010414Q464.8125 65.010414 465.09375 64.979164ZM466.48438 68.447914L465.73438 68.447914Q467.48438 65.635414 467.48438 62.80729Q467.48438 61.71354 467.23438 60.61979Q467.03125 59.74479 466.67188 58.93229Q466.4375 58.416664 465.73438 57.18229L466.48438 57.18229Q467.57812 58.65104 468.10938 60.135414Q468.5625 61.416664 468.5625 62.80729Q468.5625 64.385414 467.95312 65.86979Q467.34375 67.33854 466.48438 68.447914Z" fill-rule="nonzero"/><path fill="#757575" d="M19.221874 32.3625Q19.221874 29.4875 20.815624 28.096874Q22.159374 26.940624 24.08125 26.940624Q26.221874 26.940624 27.565624 28.346874Q28.925 29.753124 28.925 32.221874Q28.925 34.221874 28.33125 35.378124Q27.7375 36.51875 26.58125 37.159374Q25.440624 37.784374 24.08125 37.784374Q21.89375 37.784374 20.55 36.39375Q19.221874 34.9875 19.221874 32.3625ZM21.01875 32.3625Q21.01875 34.3625 21.878124 35.346874Q22.753124 36.33125 24.08125 36.33125Q25.39375 36.33125 26.253124 35.346874Q27.128124 34.346874 27.128124 32.3Q27.128124 30.378124 26.253124 29.39375Q25.378124 28.39375 24.08125 28.39375Q22.753124 28.39375 21.878124 29.39375Q21.01875 30.378124 21.01875 32.3625ZM30.39375 33.76875L32.14375 33.534374Q32.45625 35.034374 33.175 35.690624Q33.909374 36.346874 34.95625 36.346874Q36.190624 36.346874 37.034374 35.4875Q37.89375 34.628124 37.89375 33.3625Q37.89375 32.14375 37.096874 31.3625Q36.315624 30.58125 35.096874 30.58125Q34.596874 30.58125 33.8625 30.76875L34.05 29.221874Q34.221874 29.253124 34.33125 29.253124Q35.45625 29.253124 36.346874 28.675Q37.253124 28.08125 37.253124 26.8625Q37.253124 25.89375 36.596874 25.253124Q35.940624 24.6125 34.909374 24.6125Q33.89375 24.6125 33.20625 25.26875Q32.51875 25.909374 32.33125 27.190624L30.565624 26.878124Q30.89375 25.1125 32.034374 24.14375Q33.175 23.175 34.878124 23.175Q36.05 23.175 37.034374 23.675Q38.01875 24.175 38.534374 25.05Q39.065624 25.925 39.065624 26.89375Q39.065624 27.815624 38.565624 28.58125Q38.065624 29.346874 37.096874 29.8Q38.3625 30.08125 39.065624 31.01875Q39.76875 31.940624 39.76875 33.315624Q39.76875 35.190624 38.39375 36.503124Q37.034374 37.8 34.940624 37.8Q33.05 37.8 31.8 36.675Q30.565624 35.55 30.39375 33.76875ZM49.4875 37.55L47.8625 37.55L47.8625 23.2375L49.6125 23.2375L49.6125 28.346874Q50.7375 26.940624 52.45625 26.940624Q53.409374 26.940624 54.26875 27.33125Q55.128124 27.721874 55.675 28.425Q56.221874 29.1125 56.534374 30.096874Q56.846874 31.08125 56.846874 32.20625Q56.846874 34.878124 55.534374 36.33125Q54.221874 37.784374 52.378124 37.784374Q50.534374 37.784374 49.4875 36.253124L49.4875 37.55ZM49.471874 32.284374Q49.471874 34.14375 49.971874 34.9875Q50.815624 36.33125 52.221874 36.33125Q53.378124 36.33125 54.20625 35.33125Q55.05 34.33125 55.05 32.346874Q55.05 30.315624 54.2375 29.3625Q53.440624 28.39375 52.3 28.39375Q51.14375 28.39375 50.3 29.39375Q49.471874 30.39375 49.471874 32.284374ZM65.65938 37.55L65.65938 36.01875Q64.45625 37.784374 62.378124 37.784374Q61.45625 37.784374 60.659374 37.440624Q59.8625 37.08125 59.471874 36.55Q59.096874 36.01875 58.940624 35.2375Q58.83125 34.721874 58.83125 33.596874L58.83125 27.175L60.58125 27.175L60.58125 32.925Q60.58125 34.3 60.690624 34.784374Q60.8625 35.471874 61.39375 35.878124Q61.940624 36.26875 62.721874 36.26875Q63.51875 36.26875 64.20625 35.8625Q64.90938 35.45625 65.19063 34.76875Q65.4875 34.065624 65.4875 32.7375L65.4875 27.175L67.2375 27.175L67.2375 37.55L65.65938 37.55ZM68.8625 37.55L68.8625 27.175L70.45625 27.175L70.45625 28.659374Q71.59688 26.940624 73.75313 26.940624Q74.69063 26.940624 75.47188 27.284374Q76.26875 27.6125 76.65938 28.159374Q77.05 28.70625 77.20625 29.45625Q77.3 29.95625 77.3 31.175L77.3 37.55L75.53438 37.55L75.53438 31.2375Q75.53438 30.159374 75.33125 29.628124Q75.12813 29.096874 74.59688 28.784374Q74.08125 28.471874 73.37813 28.471874Q72.25313 28.471874 71.44063 29.190624Q70.62813 29.89375 70.62813 31.878124L70.62813 37.55L68.8625 37.55ZM85.59688 37.55L85.59688 36.2375Q84.6125 37.784374 82.69063 37.784374Q81.45625 37.784374 80.40938 37.096874Q79.37813 36.409374 78.8 35.190624Q78.2375 33.971874 78.2375 32.378124Q78.2375 30.815624 78.75313 29.55Q79.26875 28.284374 80.3 27.6125Q81.34688 26.940624 82.6125 26.940624Q83.55 26.940624 84.28438 27.346874Q85.01875 27.7375 85.4875 28.3625L85.4875 23.2375L87.22188 23.2375L87.22188 37.55L85.59688 37.55ZM80.03438 32.378124Q80.03438 34.3625 80.87813 35.346874Q81.72188 36.33125 82.8625 36.33125Q84.01875 36.33125 84.81563 35.39375Q85.62813 34.45625 85.62813 32.51875Q85.62813 30.39375 84.8 29.39375Q83.9875 28.39375 82.78438 28.39375Q81.6125 28.39375 80.81563 29.3625Q80.03438 30.315624 80.03438 32.378124ZM89.83125 37.55L89.83125 23.2375L91.58125 23.2375L91.58125 37.55L89.83125 37.55ZM100.97188 34.20625L102.78438 34.440624Q102.3625 36.01875 101.19063 36.909374Q100.03438 37.784374 98.22188 37.784374Q95.95625 37.784374 94.6125 36.39375Q93.28438 34.9875 93.28438 32.45625Q93.28438 29.83125 94.62813 28.39375Q95.97188 26.940624 98.12813 26.940624Q100.20625 26.940624 101.51875 28.3625Q102.84688 29.76875 102.84688 32.346874Q102.84688 32.503124 102.83125 32.815624L95.09688 32.815624Q95.19063 34.51875 96.06563 35.425Q96.94063 36.33125 98.2375 36.33125Q99.20625 36.33125 99.87813 35.83125Q100.56563 35.315624 100.97188 34.20625ZM95.19063 31.3625L100.9875 31.3625Q100.87813 30.065624 100.33125 29.409374Q99.4875 28.39375 98.14375 28.39375Q96.94063 28.39375 96.1125 29.20625Q95.28438 30.003124 95.19063 31.3625ZM104.15938 34.45625L105.90938 34.175Q106.05 35.221874 106.72188 35.784374Q107.39375 36.33125 108.59688 36.33125Q109.8 36.33125 110.37813 35.846874Q110.97188 35.346874 110.97188 34.690624Q110.97188 34.096874 110.45625 33.753124Q110.09688 33.51875 108.65938 33.159374Q106.72188 32.659374 105.97188 32.315624Q105.2375 31.95625 104.84688 31.33125Q104.45625 30.690624 104.45625 29.925Q104.45625 29.2375 104.76875 28.64375Q105.09688 28.05 105.64375 27.659374Q106.05 27.3625 106.75313 27.159374Q107.47188 26.940624 108.28438 26.940624Q109.50313 26.940624 110.425 27.3Q111.34688 27.64375 111.78438 28.253124Q112.22188 28.846874 112.39375 29.846874L110.675 30.08125Q110.55 29.284374 109.9875 28.846874Q109.425 28.39375 108.40938 28.39375Q107.19063 28.39375 106.675 28.8Q106.15938 29.190624 106.15938 29.721874Q106.15938 30.065624 106.37813 30.346874Q106.58125 30.628124 107.05 30.815624Q107.31563 30.909374 108.59688 31.253124Q110.47188 31.753124 111.20625 32.08125Q111.94063 32.39375 112.3625 33.003124Q112.78438 33.596874 112.78438 34.503124Q112.78438 35.378124 112.26875 36.159374Q111.75313 36.940624 110.78438 37.3625Q109.81563 37.784374 108.59688 37.784374Q106.58125 37.784374 105.51875 36.940624Q104.45625 36.096874 104.15938 34.45625ZM127.64375 36.26875Q126.65938 37.096874 125.75313 37.440624Q124.84688 37.784374 123.81563 37.784374Q122.1125 37.784374 121.19063 36.95625Q120.26875 36.1125 120.26875 34.815624Q120.26875 34.05 120.6125 33.425Q120.97188 32.8 121.53438 32.425Q122.09688 32.034374 122.8 31.83125Q123.31563 31.70625 124.3625 31.565624Q126.4875 31.315624 127.4875 30.971874Q127.50313 30.6125 127.50313 30.503124Q127.50313 29.440624 127.00313 28.9875Q126.33125 28.39375 125.00313 28.39375Q123.75313 28.39375 123.15938 28.83125Q122.58125 29.26875 122.3 30.378124L120.58125 30.14375Q120.81563 29.034374 121.34688 28.3625Q121.87813 27.675 122.89375 27.315624Q123.90938 26.940624 125.25313 26.940624Q126.58125 26.940624 127.40938 27.253124Q128.2375 27.565624 128.62813 28.05Q129.01875 28.51875 129.175 29.2375Q129.26875 29.690624 129.26875 30.8625L129.26875 33.20625Q129.26875 35.659374 129.37813 36.315624Q129.4875 36.95625 129.83125 37.55L127.9875 37.55Q127.72188 37.003124 127.64375 36.26875ZM127.4875 32.346874Q126.53438 32.7375 124.6125 33.003124Q123.53438 33.159374 123.08125 33.3625Q122.64375 33.55 122.39375 33.925Q122.14375 34.3 122.14375 34.76875Q122.14375 35.471874 122.675 35.940624Q123.20625 36.409374 124.2375 36.409374Q125.25313 36.409374 126.03438 35.971874Q126.83125 35.51875 127.20625 34.753124Q127.4875 34.14375 127.4875 32.9875L127.4875 32.346874ZM131.84688 37.55L131.84688 27.175L133.425 27.175L133.425 28.753124Q134.03438 27.64375 134.55 27.3Q135.06563 26.940624 135.675 26.940624Q136.56563 26.940624 137.4875 27.503124L136.87813 29.14375Q136.2375 28.753124 135.59688 28.753124Q135.01875 28.753124 134.55 29.1125Q134.09688 29.45625 133.89375 30.065624Q133.6125 31.003124 133.6125 32.1125L133.6125 37.55L131.84688 37.55ZM145.97188 34.20625L147.78438 34.440624Q147.3625 36.01875 146.19063 36.909374Q145.03438 37.784374 143.22188 37.784374Q140.95625 37.784374 139.6125 36.39375Q138.28438 34.9875 138.28438 32.45625Q138.28438 29.83125 139.62813 28.39375Q140.97188 26.940624 143.12813 26.940624Q145.20625 26.940624 146.51875 28.3625Q147.84688 29.76875 147.84688 32.346874Q147.84688 32.503124 147.83125 32.815624L140.09688 32.815624Q140.19063 34.51875 141.06563 35.425Q141.94063 36.33125 143.2375 36.33125Q144.20625 36.33125 144.87813 35.83125Q145.56563 35.315624 145.97188 34.20625ZM140.19063 31.3625L145.9875 31.3625Q145.87813 30.065624 145.33125 29.409374Q144.4875 28.39375 143.14375 28.39375Q141.94063 28.39375 141.1125 29.20625Q140.28438 30.003124 140.19063 31.3625ZM155.8625 37.55L155.8625 27.175L157.44063 27.175L157.44063 28.628124Q157.925 27.878124 158.7375 27.409374Q159.55 26.940624 160.58125 26.940624Q161.7375 26.940624 162.47188 27.425Q163.20625 27.89375 163.51875 28.753124Q164.75313 26.940624 166.72188 26.940624Q168.26875 26.940624 169.09688 27.8Q169.925 28.659374 169.925 30.425L169.925 37.55L168.175 37.55L168.175 31.01875Q168.175 29.95625 168.00313 29.503124Q167.83125 29.034374 167.37813 28.753124Q166.94063 28.471874 166.33125 28.471874Q165.2375 28.471874 164.50313 29.20625Q163.78438 29.925 163.78438 31.51875L163.78438 37.55L162.03438 37.55L162.03438 30.815624Q162.03438 29.64375 161.59688 29.065624Q161.175 28.471874 160.19063 28.471874Q159.45625 28.471874 158.81563 28.8625Q158.19063 29.253124 157.90938 30.003124Q157.62813 30.753124 157.62813 32.175L157.62813 37.55L155.8625 37.55ZM178.65938 37.55L178.65938 36.01875Q177.45625 37.784374 175.37813 37.784374Q174.45625 37.784374 173.65938 37.440624Q172.8625 37.08125 172.47188 36.55Q172.09688 36.01875 171.94063 35.2375Q171.83125 34.721874 171.83125 33.596874L171.83125 27.175L173.58125 27.175L173.58125 32.925Q173.58125 34.3 173.69063 34.784374Q173.8625 35.471874 174.39375 35.878124Q174.94063 36.26875 175.72188 36.26875Q176.51875 36.26875 177.20625 35.8625Q177.90938 35.45625 178.19063 34.76875Q178.4875 34.065624 178.4875 32.7375L178.4875 27.175L180.2375 27.175L180.2375 37.55L178.65938 37.55ZM188.64375 33.753124L190.3625 33.971874Q190.08125 35.76875 188.90938 36.784374Q187.75313 37.784374 186.05 37.784374Q183.925 37.784374 182.62813 36.39375Q181.33125 35.003124 181.33125 32.409374Q181.33125 30.721874 181.87813 29.471874Q182.44063 28.20625 183.58125 27.58125Q184.72188 26.940624 186.06563 26.940624Q187.75313 26.940624 188.81563 27.8Q189.89375 28.659374 190.20625 30.221874L188.4875 30.4875Q188.25313 29.440624 187.62813 28.925Q187.00313 28.39375 186.12813 28.39375Q184.8 28.39375 183.97188 29.346874Q183.14375 30.3 183.14375 32.346874Q183.14375 34.440624 183.94063 35.39375Q184.7375 36.33125 186.03438 36.33125Q187.06563 36.33125 187.75313 35.70625Q188.45625 35.065624 188.64375 33.753124ZM191.8625 37.55L191.8625 23.2375L193.62813 23.2375L193.62813 28.3625Q194.8625 26.940624 196.7375 26.940624Q197.87813 26.940624 198.72188 27.39375Q199.58125 27.846874 199.94063 28.659374Q200.31563 29.45625 200.31563 30.971874L200.31563 37.55L198.56563 37.55L198.56563 30.971874Q198.56563 29.659374 197.9875 29.065624Q197.40938 28.45625 196.37813 28.45625Q195.59688 28.45625 194.89375 28.8625Q194.20625 29.26875 193.90938 29.971874Q193.62813 30.659374 193.62813 31.878124L193.62813 37.55L191.8625 37.55ZM207.15938 34.45625L208.90938 34.175Q209.05 35.221874 209.72188 35.784374Q210.39375 36.33125 211.59688 36.33125Q212.8 36.33125 213.37813 35.846874Q213.97188 35.346874 213.97188 34.690624Q213.97188 34.096874 213.45625 33.753124Q213.09688 33.51875 211.65938 33.159374Q209.72188 32.659374 208.97188 32.315624Q208.2375 31.95625 207.84688 31.33125Q207.45625 30.690624 207.45625 29.925Q207.45625 29.2375 207.76875 28.64375Q208.09688 28.05 208.64375 27.659374Q209.05 27.3625 209.75313 27.159374Q210.47188 26.940624 211.28438 26.940624Q212.50313 26.940624 213.425 27.3Q214.34688 27.64375 214.78438 28.253124Q215.22188 28.846874 215.39375 29.846874L213.675 30.08125Q213.55 29.284374 212.9875 28.846874Q212.425 28.39375 211.40938 28.39375Q210.19063 28.39375 209.675 28.8Q209.15938 29.190624 209.15938 29.721874Q209.15938 30.065624 209.37813 30.346874Q209.58125 30.628124 210.05 30.815624Q210.31563 30.909374 211.59688 31.253124Q213.47188 31.753124 214.20625 32.08125Q214.94063 32.39375 215.3625 33.003124Q215.78438 33.596874 215.78438 34.503124Q215.78438 35.378124 215.26875 36.159374Q214.75313 36.940624 213.78438 37.3625Q212.81563 37.784374 211.59688 37.784374Q209.58125 37.784374 208.51875 36.940624Q207.45625 36.096874 207.15938 34.45625ZM217.8625 37.55L217.8625 27.175L219.44063 27.175L219.44063 28.628124Q219.925 27.878124 220.7375 27.409374Q221.55 26.940624 222.58125 26.940624Q223.7375 26.940624 224.47188 27.425Q225.20625 27.89375 225.51875 28.753124Q226.75313 26.940624 228.72188 26.940624Q230.26875 26.940624 231.09688 27.8Q231.925 28.659374 231.925 30.425L231.925 37.55L230.175 37.55L230.175 31.01875Q230.175 29.95625 230.00313 29.503124Q229.83125 29.034374 229.37813 28.753124Q228.94063 28.471874 228.33125 28.471874Q227.2375 28.471874 226.50313 29.20625Q225.78438 29.925 225.78438 31.51875L225.78438 37.55L224.03438 37.55L224.03438 30.815624Q224.03438 29.64375 223.59688 29.065624Q223.175 28.471874 222.19063 28.471874Q221.45625 28.471874 220.81563 28.8625Q220.19063 29.253124 219.90938 30.003124Q219.62813 30.753124 219.62813 32.175L219.62813 37.55L217.8625 37.55ZM240.64375 36.26875Q239.65938 37.096874 238.75313 37.440624Q237.84688 37.784374 236.81563 37.784374Q235.1125 37.784374 234.19063 36.95625Q233.26875 36.1125 233.26875 34.815624Q233.26875 34.05 233.6125 33.425Q233.97188 32.8 234.53438 32.425Q235.09688 32.034374 235.8 31.83125Q236.31563 31.70625 237.3625 31.565624Q239.4875 31.315624 240.4875 30.971874Q240.50313 30.6125 240.50313 30.503124Q240.50313 29.440624 240.00313 28.9875Q239.33125 28.39375 238.00313 28.39375Q236.75313 28.39375 236.15938 28.83125Q235.58125 29.26875 235.3 30.378124L233.58125 30.14375Q233.81563 29.034374 234.34688 28.3625Q234.87813 27.675 235.89375 27.315624Q236.90938 26.940624 238.25313 26.940624Q239.58125 26.940624 240.40938 27.253124Q241.2375 27.565624 241.62813 28.05Q242.01875 28.51875 242.175 29.2375Q242.26875 29.690624 242.26875 30.8625L242.26875 33.20625Q242.26875 35.659374 242.37813 36.315624Q242.4875 36.95625 242.83125 37.55L240.9875 37.55Q240.72188 37.003124 240.64375 36.26875ZM240.4875 32.346874Q239.53438 32.7375 237.6125 33.003124Q236.53438 33.159374 236.08125 33.3625Q235.64375 33.55 235.39375 33.925Q235.14375 34.3 235.14375 34.76875Q235.14375 35.471874 235.675 35.940624Q236.20625 36.409374 237.2375 36.409374Q238.25313 36.409374 239.03438 35.971874Q239.83125 35.51875 240.20625 34.753124Q240.4875 34.14375 240.4875 32.9875L240.4875 32.346874ZM244.83125 37.55L244.83125 23.2375L246.58125 23.2375L246.58125 37.55L244.83125 37.55ZM248.83125 37.55L248.83125 23.2375L250.58125 23.2375L250.58125 37.55L248.83125 37.55ZM259.97186 34.20625L261.78436 34.440624Q261.3625 36.01875 260.1906 36.909374Q259.03436 37.784374 257.22186 37.784374Q254.95625 37.784374 253.6125 36.39375Q252.28438 34.9875 252.28438 32.45625Q252.28438 29.83125 253.62813 28.39375Q254.97188 26.940624 257.1281 26.940624Q259.20624 26.940624 260.51874 28.3625Q261.84686 29.76875 261.84686 32.346874Q261.84686 32.503124 261.83124 32.815624L254.09688 32.815624Q254.19063 34.51875 255.06563 35.425Q255.94063 36.33125 257.2375 36.33125Q258.20624 36.33125 258.8781 35.83125Q259.5656 35.315624 259.97186 34.20625ZM254.19063 31.3625L259.9875 31.3625Q259.8781 30.065624 259.33124 29.409374Q258.4875 28.39375 257.14374 28.39375Q255.94063 28.39375 255.1125 29.20625Q254.28438 30.003124 254.19063 31.3625ZM263.84686 37.55L263.84686 27.175L265.425 27.175L265.425 28.753124Q266.03436 27.64375 266.55 27.3Q267.0656 26.940624 267.675 26.940624Q268.5656 26.940624 269.4875 27.503124L268.8781 29.14375Q268.2375 28.753124 267.59686 28.753124Q267.01874 28.753124 266.55 29.1125Q266.09686 29.45625 265.89374 30.065624Q265.6125 31.003124 265.6125 32.1125L265.6125 37.55L263.84686 37.55ZM280.70624 35.971874L280.95624 37.534374Q280.22186 37.690624 279.6281 37.690624Q278.675 37.690624 278.14374 37.39375Q277.6281 37.08125 277.40936 36.596874Q277.1906 36.096874 277.1906 34.51875L277.1906 28.55L275.90936 28.55L275.90936 27.175L277.1906 27.175L277.1906 24.6125L278.9406 23.55L278.9406 27.175L280.70624 27.175L280.70624 28.55L278.9406 28.55L278.9406 34.6125Q278.9406 35.3625 279.03436 35.58125Q279.1281 35.784374 279.33124 35.925Q279.55 36.05 279.9406 36.05Q280.22186 36.05 280.70624 35.971874ZM282.8625 37.55L282.8625 23.2375L284.6281 23.2375L284.6281 28.3625Q285.8625 26.940624 287.7375 26.940624Q288.8781 26.940624 289.72186 27.39375Q290.58124 27.846874 290.9406 28.659374Q291.3156 29.45625 291.3156 30.971874L291.3156 37.55L289.5656 37.55L289.5656 30.971874Q289.5656 29.659374 288.9875 29.065624Q288.40936 28.45625 287.3781 28.45625Q286.59686 28.45625 285.89374 28.8625Q285.20624 29.26875 284.90936 29.971874Q284.6281 30.659374 284.6281 31.878124L284.6281 37.55L282.8625 37.55ZM299.64374 36.26875Q298.65936 37.096874 297.7531 37.440624Q296.84686 37.784374 295.8156 37.784374Q294.1125 37.784374 293.1906 36.95625Q292.26874 36.1125 292.26874 34.815624Q292.26874 34.05 292.6125 33.425Q292.97186 32.8 293.53436 32.425Q294.09686 32.034374 294.8 31.83125Q295.3156 31.70625 296.3625 31.565624Q298.4875 31.315624 299.4875 30.971874Q299.5031 30.6125 299.5031 30.503124Q299.5031 29.440624 299.0031 28.9875Q298.33124 28.39375 297.0031 28.39375Q295.7531 28.39375 295.15936 28.83125Q294.58124 29.26875 294.3 30.378124L292.58124 30.14375Q292.8156 29.034374 293.34686 28.3625Q293.8781 27.675 294.89374 27.315624Q295.90936 26.940624 297.2531 26.940624Q298.58124 26.940624 299.40936 27.253124Q300.2375 27.565624 300.6281 28.05Q301.01874 28.51875 301.175 29.2375Q301.26874 29.690624 301.26874 30.8625L301.26874 33.20625Q301.26874 35.659374 301.3781 36.315624Q301.4875 36.95625 301.83124 37.55L299.9875 37.55Q299.72186 37.003124 299.64374 36.26875ZM299.4875 32.346874Q298.53436 32.7375 296.6125 33.003124Q295.53436 33.159374 295.08124 33.3625Q294.64374 33.55 294.39374 33.925Q294.14374 34.3 294.14374 34.76875Q294.14374 35.471874 294.675 35.940624Q295.20624 36.409374 296.2375 36.409374Q297.2531 36.409374 298.03436 35.971874Q298.83124 35.51875 299.20624 34.753124Q299.4875 34.14375 299.4875 32.9875L299.4875 32.346874ZM303.8625 37.55L303.8625 27.175L305.45624 27.175L305.45624 28.659374Q306.59686 26.940624 308.7531 26.940624Q309.6906 26.940624 310.47186 27.284374Q311.26874 27.6125 311.65936 28.159374Q312.05 28.70625 312.20624 29.45625Q312.3 29.95625 312.3 31.175L312.3 37.55L310.53436 37.55L310.53436 31.2375Q310.53436 30.159374 310.33124 29.628124Q310.1281 29.096874 309.59686 28.784374Q309.08124 28.471874 308.3781 28.471874Q307.2531 28.471874 306.4406 29.190624Q305.6281 29.89375 305.6281 31.878124L305.6281 37.55L303.8625 37.55ZM319.22186 32.3625Q319.22186 29.4875 320.8156 28.096874Q322.15936 26.940624 324.08124 26.940624Q326.22186 26.940624 327.5656 28.346874Q328.925 29.753124 328.925 32.221874Q328.925 34.221874 328.33124 35.378124Q327.7375 36.51875 326.58124 37.159374Q325.4406 37.784374 324.08124 37.784374Q321.89374 37.784374 320.55 36.39375Q319.22186 34.9875 319.22186 32.3625ZM321.01874 32.3625Q321.01874 34.3625 321.8781 35.346874Q322.7531 36.33125 324.08124 36.33125Q325.39374 36.33125 326.2531 35.346874Q327.1281 34.346874 327.1281 32.3Q327.1281 30.378124 326.2531 29.39375Q325.3781 28.39375 324.08124 28.39375Q322.7531 28.39375 321.8781 29.39375Q321.01874 30.378124 321.01874 32.3625ZM339.6125 35.8625L339.6125 37.55L330.15936 37.55Q330.14374 36.909374 330.3625 36.33125Q330.72186 35.3625 331.51874 34.425Q332.3156 33.4875 333.8156 32.253124Q336.15936 30.346874 336.97186 29.2375Q337.8 28.1125 337.8 27.1125Q337.8 26.065624 337.05 25.346874Q336.3 24.628124 335.09686 24.628124Q333.83124 24.628124 333.0656 25.39375Q332.3 26.159374 332.3 27.503124L330.4875 27.315624Q330.675 25.3 331.8781 24.2375Q333.09686 23.175 335.14374 23.175Q337.1906 23.175 338.39374 24.315624Q339.59686 25.45625 339.59686 27.14375Q339.59686 28.003124 339.2375 28.846874Q338.89374 29.675 338.08124 30.596874Q337.26874 31.503124 335.3781 33.1125Q333.78436 34.440624 333.33124 34.909374Q332.89374 35.378124 332.59686 35.8625L339.6125 35.8625Z" fill-rule="nonzero"/></svg>