<svg width="501" height="200" viewBox="0 0 501 200" fill="none" xmlns="http://www.w3.org/2000/svg">
<path d="M137 8C137 3.58173 140.582 0 145 0H493C497.418 0 501 3.58172 501 8V192C501 196.418 497.418 200 493 200H145C140.582 200 137 196.418 137 192V8Z" fill="#FF0000" fill-opacity="0.2"/>
<path d="M137 4C137 1.79086 138.791 0 141 0H153V200H141C138.791 200 137 198.209 137 196V4Z" fill="white"/>
<rect opacity="0.1" x="137" width="16" height="200" fill="white"/>
<rect width="4" height="200" transform="translate(177)" fill="white"/>
<rect opacity="0.1" x="177" width="4" height="200" fill="white"/>
<rect width="4" height="200" transform="translate(205)" fill="white"/>
<rect opacity="0.1" x="205" width="4" height="200" fill="white"/>
<rect width="4" height="200" transform="translate(233)" fill="white"/>
<rect opacity="0.1" x="233" width="4" height="200" fill="white"/>
<rect width="4" height="200" transform="translate(261)" fill="white"/>
<rect opacity="0.1" x="261" width="4" height="200" fill="white"/>
<rect width="4" height="200" transform="translate(289)" fill="white"/>
<rect opacity="0.1" x="289" width="4" height="200" fill="white"/>
<rect width="4" height="200" transform="translate(317)" fill="white"/>
<rect opacity="0.1" x="317" width="4" height="200" fill="white"/>
<rect width="4" height="200" transform="translate(345)" fill="white"/>
<rect opacity="0.1" x="345" width="4" height="200" fill="white"/>
<rect width="4" height="200" transform="translate(373)" fill="white"/>
<rect opacity="0.1" x="373" width="4" height="200" fill="white"/>
<rect width="4" height="200" transform="translate(401)" fill="white"/>
<rect opacity="0.1" x="401" width="4" height="200" fill="white"/>
<rect width="4" height="200" transform="translate(429)" fill="white"/>
<rect opacity="0.1" x="429" width="4" height="200" fill="white"/>
<rect width="4" height="200" transform="translate(457)" fill="white"/>
<rect opacity="0.1" x="457" width="4" height="200" fill="white"/>
<path d="M485 0H497C499.209 0 501 1.79086 501 4V196C501 198.209 499.209 200 497 200H485V0Z" fill="white"/>
<rect opacity="0.1" x="485" width="16" height="200" fill="white"/>
<rect width="100" height="180" fill="#FF0000" fill-opacity="0.2"/>
<rect width="4" height="180" fill="white"/>
<rect opacity="0.1" width="4" height="180" fill="white"/>
<rect width="4" height="180" transform="translate(24)" fill="white"/>
<rect opacity="0.1" x="24" width="4" height="180" fill="white"/>
<rect width="4" height="180" transform="translate(48)" fill="white"/>
<rect opacity="0.1" x="48" width="4" height="180" fill="white"/>
<rect width="4" height="180" transform="translate(72)" fill="white"/>
<rect opacity="0.1" x="72" width="4" height="180" fill="white"/>
<rect width="4" height="180" transform="translate(96)" fill="white"/>
<rect opacity="0.1" x="96" width="4" height="180" fill="white"/>
<rect opacity="0.3" x="153" y="8" width="80" height="40" fill="#159BFF"/>
<path d="M190.78 30.62L190.77 29.78C191.623 29.78 192.31 29.7367 192.83 29.65C193.35 29.5633 193.726 29.4267 193.96 29.24C194.193 29.0533 194.31 28.8067 194.31 28.5C194.31 28.1867 194.193 27.98 193.96 27.88C193.726 27.7733 193.39 27.72 192.95 27.72H191.77V26.88H192.58C193.06 26.88 193.426 26.8 193.68 26.64C193.933 26.4733 194.06 26.2133 194.06 25.86C194.06 25.2467 193.65 24.94 192.83 24.94C192.21 24.94 191.653 25.1233 191.16 25.49L190.72 24.76C191.346 24.3067 192.063 24.08 192.87 24.08C193.543 24.08 194.063 24.2233 194.43 24.51C194.803 24.7967 194.99 25.2067 194.99 25.74C194.99 26.3867 194.713 26.8367 194.16 27.09V27.11C194.513 27.1967 194.78 27.3567 194.96 27.59C195.146 27.8167 195.24 28.1333 195.24 28.54C195.24 29.04 195.09 29.4433 194.79 29.75C194.496 30.05 194.023 30.27 193.37 30.41C192.716 30.5433 191.853 30.6133 190.78 30.62Z" fill="#159BFF"/>
<rect opacity="0.3" x="237" y="8" width="80" height="40" fill="#159BFF"/>
<path d="M274.78 30.62L274.77 29.78C275.623 29.78 276.31 29.7367 276.83 29.65C277.35 29.5633 277.726 29.4267 277.96 29.24C278.193 29.0533 278.31 28.8067 278.31 28.5C278.31 28.1867 278.193 27.98 277.96 27.88C277.726 27.7733 277.39 27.72 276.95 27.72H275.77V26.88H276.58C277.06 26.88 277.426 26.8 277.68 26.64C277.933 26.4733 278.06 26.2133 278.06 25.86C278.06 25.2467 277.65 24.94 276.83 24.94C276.21 24.94 275.653 25.1233 275.16 25.49L274.72 24.76C275.346 24.3067 276.063 24.08 276.87 24.08C277.543 24.08 278.063 24.2233 278.43 24.51C278.803 24.7967 278.99 25.2067 278.99 25.74C278.99 26.3867 278.713 26.8367 278.16 27.09V27.11C278.513 27.1967 278.78 27.3567 278.96 27.59C279.146 27.8167 279.24 28.1333 279.24 28.54C279.24 29.04 279.09 29.4433 278.79 29.75C278.496 30.05 278.023 30.27 277.37 30.41C276.716 30.5433 275.853 30.6133 274.78 30.62Z" fill="#159BFF"/>
<rect opacity="0.3" x="153" y="56" width="108" height="40" fill="#159BFF"/>
<path d="M207.59 78.5V77.07H204.43V76.37L206.97 72.2H207.98L205.53 76.24H207.59V74.28L208.51 73.76V76.24H209.59V77.07H208.51V78.5H207.59Z" fill="#159BFF"/>
<rect opacity="0.3" x="4" y="120" width="92" height="32" fill="#159BFF"/>
<path d="M30.7869 138.5V137.07H27.6269V136.37L30.1669 132.2H31.1769L28.7269 136.24H30.7869V134.28L31.7069 133.76V136.24H32.7869V137.07H31.7069V138.5H30.7869ZM43.4284 140.72C42.7684 140.553 42.1984 140.25 41.7184 139.81C41.2384 139.377 40.8684 138.837 40.6084 138.19C40.3484 137.537 40.2184 136.807 40.2184 136C40.2184 135.193 40.3484 134.467 40.6084 133.82C40.8684 133.167 41.2384 132.623 41.7184 132.19C42.1984 131.75 42.7684 131.447 43.4284 131.28V131.98C42.6951 132.213 42.1151 132.68 41.6884 133.38C41.2618 134.08 41.0484 134.953 41.0484 136C41.0484 137.047 41.2618 137.92 41.6884 138.62C42.1151 139.32 42.6951 139.787 43.4284 140.02V140.72ZM45.3092 138.5V137.66H47.1592V133.64L45.7992 134.69L45.3792 134.12L47.4492 132.14H48.0792V137.66H49.9292V138.5H45.3092ZM51.21 138.5V137.79C51.21 137.017 51.3533 136.42 51.64 136C51.9267 135.573 52.4 135.267 53.06 135.08L53.85 134.85C54.1167 134.777 54.32 134.673 54.46 134.54C54.6 134.407 54.67 134.207 54.67 133.94C54.67 133.607 54.56 133.357 54.34 133.19C54.12 133.023 53.8033 132.94 53.39 132.94C52.75 132.94 52.1833 133.16 51.69 133.6L51.21 132.87C51.5367 132.597 51.8733 132.397 52.22 132.27C52.5667 132.143 52.9533 132.08 53.38 132.08C54.0867 132.08 54.6333 132.243 55.02 132.57C55.4067 132.897 55.6 133.363 55.6 133.97C55.6 134.43 55.48 134.8 55.24 135.08C55 135.36 54.62 135.573 54.1 135.72L53.31 135.95C53.03 136.03 52.8067 136.133 52.64 136.26C52.4733 136.387 52.35 136.563 52.27 136.79C52.1967 137.01 52.1533 137.3 52.14 137.66H55.6V138.5H51.21ZM56.8508 139.1L60.6908 131.4H61.5508L57.7108 139.1H56.8508ZM62.7816 138.62L62.7716 137.78C63.6249 137.78 64.3116 137.737 64.8316 137.65C65.3516 137.563 65.7282 137.427 65.9616 137.24C66.1949 137.053 66.3116 136.807 66.3116 136.5C66.3116 136.187 66.1949 135.98 65.9616 135.88C65.7282 135.773 65.3916 135.72 64.9516 135.72H63.7716V134.88H64.5816C65.0616 134.88 65.4282 134.8 65.6816 134.64C65.9349 134.473 66.0616 134.213 66.0616 133.86C66.0616 133.247 65.6516 132.94 64.8316 132.94C64.2116 132.94 63.6549 133.123 63.1616 133.49L62.7216 132.76C63.3482 132.307 64.0649 132.08 64.8716 132.08C65.5449 132.08 66.0649 132.223 66.4316 132.51C66.8049 132.797 66.9916 133.207 66.9916 133.74C66.9916 134.387 66.7149 134.837 66.1616 135.09V135.11C66.5149 135.197 66.7816 135.357 66.9616 135.59C67.1482 135.817 67.2416 136.133 67.2416 136.54C67.2416 137.04 67.0916 137.443 66.7916 137.75C66.4982 138.05 66.0249 138.27 65.3716 138.41C64.7182 138.543 63.8549 138.613 62.7816 138.62ZM69.1723 140.72V140.02C69.9057 139.787 70.4857 139.32 70.9123 138.62C71.339 137.92 71.5523 137.047 71.5523 136C71.5523 134.953 71.339 134.08 70.9123 133.38C70.4857 132.68 69.9057 132.213 69.1723 131.98V131.28C69.8323 131.447 70.4023 131.75 70.8823 132.19C71.3623 132.623 71.7323 133.167 71.9923 133.82C72.2523 134.467 72.3823 135.193 72.3823 136C72.3823 136.807 72.2523 137.537 71.9923 138.19C71.7323 138.837 71.3623 139.377 70.8823 139.81C70.4023 140.25 69.8323 140.553 69.1723 140.72Z" fill="#159BFF"/>
<rect opacity="0.3" x="153" y="104" width="164" height="40" fill="#159BFF"/>
<path d="M235.1 126.62C234.353 126.62 233.766 126.37 233.34 125.87C232.913 125.363 232.7 124.65 232.7 123.73C232.7 122.563 233.053 121.67 233.76 121.05C234.473 120.423 235.52 120.1 236.9 120.08L236.93 120.92C234.93 120.967 233.84 121.71 233.66 123.15H233.68C234.146 122.697 234.696 122.47 235.33 122.47C235.736 122.47 236.09 122.557 236.39 122.73C236.696 122.897 236.93 123.13 237.09 123.43C237.256 123.73 237.34 124.077 237.34 124.47C237.34 124.903 237.246 125.28 237.06 125.6C236.873 125.92 236.61 126.17 236.27 126.35C235.936 126.53 235.546 126.62 235.1 126.62ZM235.12 125.76C235.5 125.76 235.81 125.647 236.05 125.42C236.29 125.193 236.41 124.89 236.41 124.51C236.41 124.15 236.3 123.863 236.08 123.65C235.86 123.43 235.553 123.32 235.16 123.32C234.866 123.32 234.59 123.383 234.33 123.51C234.076 123.637 233.843 123.833 233.63 124.1C233.663 124.62 233.81 125.027 234.07 125.32C234.33 125.613 234.68 125.76 235.12 125.76Z" fill="#159BFF"/>
<rect opacity="0.3" x="153" y="152" width="332" height="40" fill="#159BFF"/>
<path d="M276.384 174.62C275.604 174.62 274.987 174.4 274.534 173.96C274.08 173.513 273.854 172.907 273.854 172.14C273.854 171.373 274.08 170.77 274.534 170.33C274.987 169.883 275.604 169.66 276.384 169.66C277.004 169.66 277.574 169.823 278.094 170.15L277.764 170.89C277.53 170.75 277.304 170.65 277.084 170.59C276.864 170.523 276.634 170.49 276.394 170.49C275.874 170.49 275.474 170.633 275.194 170.92C274.914 171.2 274.774 171.607 274.774 172.14C274.774 172.673 274.914 173.08 275.194 173.36C275.474 173.64 275.874 173.78 276.394 173.78C276.887 173.78 277.387 173.623 277.894 173.31L278.244 174.03C277.69 174.423 277.07 174.62 276.384 174.62ZM281.795 174.62C281.315 174.62 280.895 174.517 280.535 174.31C280.175 174.103 279.895 173.813 279.695 173.44C279.495 173.067 279.395 172.633 279.395 172.14C279.395 171.647 279.495 171.213 279.695 170.84C279.895 170.467 280.175 170.177 280.535 169.97C280.895 169.763 281.315 169.66 281.795 169.66C282.275 169.66 282.695 169.763 283.055 169.97C283.415 170.177 283.695 170.467 283.895 170.84C284.095 171.213 284.195 171.647 284.195 172.14C284.195 172.633 284.095 173.067 283.895 173.44C283.695 173.813 283.415 174.103 283.055 174.31C282.695 174.517 282.275 174.62 281.795 174.62ZM281.795 173.78C282.255 173.78 282.615 173.637 282.875 173.35C283.141 173.057 283.275 172.653 283.275 172.14C283.275 171.627 283.141 171.223 282.875 170.93C282.615 170.637 282.255 170.49 281.795 170.49C281.335 170.49 280.971 170.637 280.705 170.93C280.445 171.223 280.315 171.627 280.315 172.14C280.315 172.653 280.445 173.057 280.705 173.35C280.971 173.637 281.335 173.78 281.795 173.78ZM288.695 174.62C287.509 174.62 286.915 174.023 286.915 172.83V168.22H284.975V167.4H287.815V172.69C287.815 173.077 287.892 173.357 288.045 173.53C288.199 173.697 288.452 173.78 288.805 173.78C289.219 173.78 289.609 173.677 289.975 173.47L290.215 174.25C289.762 174.497 289.255 174.62 288.695 174.62ZM292.986 174.62C292.433 174.62 292.009 174.47 291.716 174.17C291.429 173.863 291.286 173.417 291.286 172.83V169.78H292.186V172.69C292.186 173.077 292.263 173.357 292.416 173.53C292.576 173.697 292.833 173.78 293.186 173.78C293.659 173.78 294.109 173.64 294.536 173.36V169.78H295.436V174.5H294.766L294.676 174.04C294.163 174.427 293.599 174.62 292.986 174.62ZM296.797 174.5V169.78H297.367L297.447 170.15C297.794 169.823 298.17 169.66 298.577 169.66C298.997 169.66 299.294 169.823 299.467 170.15C299.807 169.823 300.177 169.66 300.577 169.66C300.904 169.66 301.16 169.763 301.347 169.97C301.534 170.17 301.627 170.45 301.627 170.81V174.5H300.807V170.91C300.807 170.59 300.657 170.43 300.357 170.43C300.09 170.43 299.847 170.537 299.627 170.75V174.5H298.807V170.91C298.807 170.59 298.654 170.43 298.347 170.43C298.08 170.43 297.837 170.537 297.617 170.75V174.5H296.797ZM302.958 174.5V169.78H303.628L303.718 170.24C304.231 169.853 304.794 169.66 305.408 169.66C305.961 169.66 306.381 169.813 306.668 170.12C306.961 170.42 307.108 170.863 307.108 171.45V174.5H306.208V171.59C306.208 171.197 306.128 170.917 305.968 170.75C305.814 170.577 305.561 170.49 305.208 170.49C304.734 170.49 304.284 170.633 303.858 170.92V174.5H302.958ZM316.579 174.62C315.726 174.62 314.979 174.427 314.339 174.04L314.689 173.3C315.249 173.64 315.889 173.81 316.609 173.81C317.423 173.81 317.829 173.59 317.829 173.15C317.829 172.977 317.779 172.853 317.679 172.78C317.579 172.7 317.399 172.643 317.139 172.61L316.019 172.46C315.519 172.393 315.153 172.26 314.919 172.06C314.693 171.853 314.579 171.553 314.579 171.16C314.579 170.68 314.753 170.31 315.099 170.05C315.453 169.79 315.953 169.66 316.599 169.66C317.319 169.66 317.989 169.82 318.609 170.14L318.299 170.88C317.786 170.6 317.213 170.46 316.579 170.46C315.853 170.46 315.489 170.67 315.489 171.09C315.489 171.257 315.539 171.38 315.639 171.46C315.739 171.533 315.919 171.587 316.179 171.62L317.299 171.76C317.799 171.827 318.163 171.963 318.389 172.17C318.623 172.377 318.739 172.68 318.739 173.08C318.739 173.573 318.553 173.953 318.179 174.22C317.806 174.487 317.273 174.62 316.579 174.62ZM320.29 176.6V169.78H320.96L321.05 170.24C321.577 169.853 322.123 169.66 322.69 169.66C323.317 169.66 323.817 169.883 324.19 170.33C324.563 170.777 324.75 171.38 324.75 172.14C324.75 172.9 324.563 173.503 324.19 173.95C323.817 174.397 323.317 174.62 322.69 174.62C322.17 174.62 321.67 174.457 321.19 174.13V176.6H320.29ZM322.5 173.78C322.927 173.78 323.253 173.637 323.48 173.35C323.713 173.063 323.83 172.66 323.83 172.14C323.83 171.613 323.713 171.207 323.48 170.92C323.253 170.633 322.927 170.49 322.5 170.49C322.047 170.49 321.61 170.633 321.19 170.92V173.36C321.61 173.64 322.047 173.78 322.5 173.78ZM327.731 174.62C327.157 174.62 326.711 174.487 326.391 174.22C326.077 173.953 325.921 173.583 325.921 173.11C325.921 172.657 326.071 172.31 326.371 172.07C326.671 171.83 327.114 171.71 327.701 171.71H329.381V171.56C329.381 171.167 329.287 170.887 329.101 170.72C328.914 170.547 328.597 170.46 328.151 170.46C327.544 170.46 326.987 170.6 326.481 170.88L326.201 170.13C326.794 169.817 327.467 169.66 328.221 169.66C328.934 169.66 329.454 169.807 329.781 170.1C330.114 170.387 330.281 170.84 330.281 171.46V174.5H329.611L329.511 174.04C328.991 174.427 328.397 174.62 327.731 174.62ZM327.891 173.81C328.451 173.81 328.947 173.663 329.381 173.37V172.45H327.731C327.137 172.45 326.841 172.663 326.841 173.09C326.841 173.57 327.191 173.81 327.891 173.81ZM331.962 174.5V169.78H332.632L332.722 170.24C333.235 169.853 333.798 169.66 334.412 169.66C334.965 169.66 335.385 169.813 335.672 170.12C335.965 170.42 336.112 170.863 336.112 171.45V174.5H335.212V171.59C335.212 171.197 335.132 170.917 334.972 170.75C334.818 170.577 334.565 170.49 334.212 170.49C333.738 170.49 333.288 170.633 332.862 170.92V174.5H331.962ZM343.603 172.1V171.37H347.603V172.1H343.603ZM354.915 174.5V173.66H356.765V169.64L355.405 170.69L354.985 170.12L357.055 168.14H357.685V173.66H359.535V174.5H354.915ZM360.815 174.5V173.79C360.815 173.017 360.959 172.42 361.245 172C361.532 171.573 362.005 171.267 362.665 171.08L363.455 170.85C363.722 170.777 363.925 170.673 364.065 170.54C364.205 170.407 364.275 170.207 364.275 169.94C364.275 169.607 364.165 169.357 363.945 169.19C363.725 169.023 363.409 168.94 362.995 168.94C362.355 168.94 361.789 169.16 361.295 169.6L360.815 168.87C361.142 168.597 361.479 168.397 361.825 168.27C362.172 168.143 362.559 168.08 362.985 168.08C363.692 168.08 364.239 168.243 364.625 168.57C365.012 168.897 365.205 169.363 365.205 169.97C365.205 170.43 365.085 170.8 364.845 171.08C364.605 171.36 364.225 171.573 363.705 171.72L362.915 171.95C362.635 172.03 362.412 172.133 362.245 172.26C362.079 172.387 361.955 172.563 361.875 172.79C361.802 173.01 361.759 173.3 361.745 173.66H365.205V174.5H360.815Z" fill="#159BFF"/>
<rect opacity="0.3" x="265" y="56" width="108" height="40" fill="#159BFF"/>
<path d="M319.59 78.5V77.07H316.43V76.37L318.97 72.2H319.98L317.53 76.24H319.59V74.28L320.51 73.76V76.24H321.59V77.07H320.51V78.5H319.59Z" fill="#159BFF"/>
<rect opacity="0.3" x="4" y="84" width="92" height="32" fill="#159BFF"/>
<path d="M30.7869 102.5V101.07H27.6269V100.37L30.1669 96.2H31.1769L28.7269 100.24H30.7869V98.28L31.7069 97.76V100.24H32.7869V101.07H31.7069V102.5H30.7869ZM43.4284 104.72C42.7684 104.553 42.1984 104.25 41.7184 103.81C41.2384 103.377 40.8684 102.837 40.6084 102.19C40.3484 101.537 40.2184 100.807 40.2184 100C40.2184 99.1933 40.3484 98.4667 40.6084 97.82C40.8684 97.1667 41.2384 96.6233 41.7184 96.19C42.1984 95.75 42.7684 95.4467 43.4284 95.28V95.98C42.6951 96.2133 42.1151 96.68 41.6884 97.38C41.2618 98.08 41.0484 98.9533 41.0484 100C41.0484 101.047 41.2618 101.92 41.6884 102.62C42.1151 103.32 42.6951 103.787 43.4284 104.02V104.72ZM45.3092 102.5V101.66H47.1592V97.64L45.7992 98.69L45.3792 98.12L47.4492 96.14H48.0792V101.66H49.9292V102.5H45.3092ZM51.21 102.5V101.79C51.21 101.017 51.3533 100.42 51.64 100C51.9267 99.5733 52.4 99.2667 53.06 99.08L53.85 98.85C54.1167 98.7767 54.32 98.6733 54.46 98.54C54.6 98.4067 54.67 98.2067 54.67 97.94C54.67 97.6067 54.56 97.3567 54.34 97.19C54.12 97.0233 53.8033 96.94 53.39 96.94C52.75 96.94 52.1833 97.16 51.69 97.6L51.21 96.87C51.5367 96.5967 51.8733 96.3967 52.22 96.27C52.5667 96.1433 52.9533 96.08 53.38 96.08C54.0867 96.08 54.6333 96.2433 55.02 96.57C55.4067 96.8967 55.6 97.3633 55.6 97.97C55.6 98.43 55.48 98.8 55.24 99.08C55 99.36 54.62 99.5733 54.1 99.72L53.31 99.95C53.03 100.03 52.8067 100.133 52.64 100.26C52.4733 100.387 52.35 100.563 52.27 100.79C52.1967 101.01 52.1533 101.3 52.14 101.66H55.6V102.5H51.21ZM56.8508 103.1L60.6908 95.4H61.5508L57.7108 103.1H56.8508ZM62.7816 102.62L62.7716 101.78C63.6249 101.78 64.3116 101.737 64.8316 101.65C65.3516 101.563 65.7282 101.427 65.9616 101.24C66.1949 101.053 66.3116 100.807 66.3116 100.5C66.3116 100.187 66.1949 99.98 65.9616 99.88C65.7282 99.7733 65.3916 99.72 64.9516 99.72H63.7716V98.88H64.5816C65.0616 98.88 65.4282 98.8 65.6816 98.64C65.9349 98.4733 66.0616 98.2133 66.0616 97.86C66.0616 97.2467 65.6516 96.94 64.8316 96.94C64.2116 96.94 63.6549 97.1233 63.1616 97.49L62.7216 96.76C63.3482 96.3067 64.0649 96.08 64.8716 96.08C65.5449 96.08 66.0649 96.2233 66.4316 96.51C66.8049 96.7967 66.9916 97.2067 66.9916 97.74C66.9916 98.3867 66.7149 98.8367 66.1616 99.09V99.11C66.5149 99.1967 66.7816 99.3567 66.9616 99.59C67.1482 99.8167 67.2416 100.133 67.2416 100.54C67.2416 101.04 67.0916 101.443 66.7916 101.75C66.4982 102.05 66.0249 102.27 65.3716 102.41C64.7182 102.543 63.8549 102.613 62.7816 102.62ZM69.1723 104.72V104.02C69.9057 103.787 70.4857 103.32 70.9123 102.62C71.339 101.92 71.5523 101.047 71.5523 100C71.5523 98.9533 71.339 98.08 70.9123 97.38C70.4857 96.68 69.9057 96.2133 69.1723 95.98V95.28C69.8323 95.4467 70.4023 95.75 70.8823 96.19C71.3623 96.6233 71.7323 97.1667 71.9923 97.82C72.2523 98.4667 72.3823 99.1933 72.3823 100C72.3823 100.807 72.2523 101.537 71.9923 102.19C71.7323 102.837 71.3623 103.377 70.8823 103.81C70.4023 104.25 69.8323 104.553 69.1723 104.72Z" fill="#159BFF"/>
<rect opacity="0.3" x="4" y="48" width="44" height="32" fill="#159BFF"/>
<path d="M6.90727 66.5V65.79C6.90727 65.0167 7.0506 64.42 7.33727 64C7.62393 63.5733 8.09727 63.2667 8.75727 63.08L9.54727 62.85C9.81393 62.7767 10.0173 62.6733 10.1573 62.54C10.2973 62.4067 10.3673 62.2067 10.3673 61.94C10.3673 61.6067 10.2573 61.3567 10.0373 61.19C9.81727 61.0233 9.5006 60.94 9.08727 60.94C8.44727 60.94 7.8806 61.16 7.38727 61.6L6.90727 60.87C7.23393 60.5967 7.5706 60.3967 7.91727 60.27C8.26393 60.1433 8.6506 60.08 9.07727 60.08C9.78393 60.08 10.3306 60.2433 10.7173 60.57C11.1039 60.8967 11.2973 61.3633 11.2973 61.97C11.2973 62.43 11.1773 62.8 10.9373 63.08C10.6973 63.36 10.3173 63.5733 9.79727 63.72L9.00727 63.95C8.72727 64.03 8.50393 64.1333 8.33727 64.26C8.1706 64.3867 8.04727 64.5633 7.96727 64.79C7.89393 65.01 7.8506 65.3 7.83727 65.66H11.2973V66.5H6.90727ZM22.3288 68.72C21.6688 68.5533 21.0988 68.25 20.6188 67.81C20.1388 67.3767 19.7688 66.8367 19.5088 66.19C19.2488 65.5367 19.1188 64.8067 19.1188 64C19.1188 63.1933 19.2488 62.4667 19.5088 61.82C19.7688 61.1667 20.1388 60.6233 20.6188 60.19C21.0988 59.75 21.6688 59.4467 22.3288 59.28V59.98C21.5955 60.2133 21.0155 60.68 20.5888 61.38C20.1622 62.08 19.9488 62.9533 19.9488 64C19.9488 65.0467 20.1622 65.92 20.5888 66.62C21.0155 67.32 21.5955 67.7867 22.3288 68.02V68.72ZM26.5996 66.62C25.8529 66.62 25.2663 66.37 24.8396 65.87C24.4129 65.3633 24.1996 64.65 24.1996 63.73C24.1996 62.5633 24.5529 61.67 25.2596 61.05C25.9729 60.4233 27.0196 60.1 28.3996 60.08L28.4296 60.92C26.4296 60.9667 25.3396 61.71 25.1596 63.15H25.1796C25.6463 62.6967 26.1963 62.47 26.8296 62.47C27.2363 62.47 27.5896 62.5567 27.8896 62.73C28.1963 62.8967 28.4296 63.13 28.5896 63.43C28.7563 63.73 28.8396 64.0767 28.8396 64.47C28.8396 64.9033 28.7463 65.28 28.5596 65.6C28.3729 65.92 28.1096 66.17 27.7696 66.35C27.4363 66.53 27.0463 66.62 26.5996 66.62ZM26.6196 65.76C26.9996 65.76 27.3096 65.6467 27.5496 65.42C27.7896 65.1933 27.9096 64.89 27.9096 64.51C27.9096 64.15 27.7996 63.8633 27.5796 63.65C27.3596 63.43 27.0529 63.32 26.6596 63.32C26.3663 63.32 26.0896 63.3833 25.8296 63.51C25.5763 63.6367 25.3429 63.8333 25.1296 64.1C25.1629 64.62 25.3096 65.0267 25.5696 65.32C25.8296 65.6133 26.1796 65.76 26.6196 65.76ZM29.9504 67.1L33.7904 59.4H34.6504L30.8104 67.1H29.9504ZM35.8812 66.62L35.8712 65.78C36.7245 65.78 37.4112 65.7367 37.9312 65.65C38.4512 65.5633 38.8278 65.4267 39.0612 65.24C39.2945 65.0533 39.4112 64.8067 39.4112 64.5C39.4112 64.1867 39.2945 63.98 39.0612 63.88C38.8278 63.7733 38.4912 63.72 38.0512 63.72H36.8712V62.88H37.6812C38.1612 62.88 38.5278 62.8 38.7812 62.64C39.0345 62.4733 39.1612 62.2133 39.1612 61.86C39.1612 61.2467 38.7512 60.94 37.9312 60.94C37.3112 60.94 36.7545 61.1233 36.2612 61.49L35.8212 60.76C36.4478 60.3067 37.1645 60.08 37.9712 60.08C38.6445 60.08 39.1645 60.2233 39.5312 60.51C39.9045 60.7967 40.0912 61.2067 40.0912 61.74C40.0912 62.3867 39.8145 62.8367 39.2612 63.09V63.11C39.6145 63.1967 39.8812 63.3567 40.0612 63.59C40.2478 63.8167 40.3412 64.1333 40.3412 64.54C40.3412 65.04 40.1912 65.4433 39.8912 65.75C39.5978 66.05 39.1245 66.27 38.4712 66.41C37.8178 66.5433 36.9545 66.6133 35.8812 66.62ZM42.272 68.72V68.02C43.0053 67.7867 43.5853 67.32 44.012 66.62C44.4386 65.92 44.652 65.0467 44.652 64C44.652 62.9533 44.4386 62.08 44.012 61.38C43.5853 60.68 43.0053 60.2133 42.272 59.98V59.28C42.932 59.4467 43.502 59.75 43.982 60.19C44.462 60.6233 44.832 61.1667 45.092 61.82C45.352 62.4667 45.482 63.1933 45.482 64C45.482 64.8067 45.352 65.5367 45.092 66.19C44.832 66.8367 44.462 67.3767 43.982 67.81C43.502 68.25 42.932 68.5533 42.272 68.72Z" fill="#159BFF"/>
<rect opacity="0.3" x="52" y="48" width="44" height="32" fill="#159BFF"/>
<path d="M54.9073 66.5V65.79C54.9073 65.0167 55.0506 64.42 55.3373 64C55.6239 63.5733 56.0973 63.2667 56.7573 63.08L57.5473 62.85C57.8139 62.7767 58.0173 62.6733 58.1573 62.54C58.2973 62.4067 58.3673 62.2067 58.3673 61.94C58.3673 61.6067 58.2573 61.3567 58.0373 61.19C57.8173 61.0233 57.5006 60.94 57.0873 60.94C56.4473 60.94 55.8806 61.16 55.3873 61.6L54.9073 60.87C55.2339 60.5967 55.5706 60.3967 55.9173 60.27C56.2639 60.1433 56.6506 60.08 57.0773 60.08C57.7839 60.08 58.3306 60.2433 58.7173 60.57C59.1039 60.8967 59.2973 61.3633 59.2973 61.97C59.2973 62.43 59.1773 62.8 58.9373 63.08C58.6973 63.36 58.3173 63.5733 57.7973 63.72L57.0073 63.95C56.7273 64.03 56.5039 64.1333 56.3373 64.26C56.1706 64.3867 56.0473 64.5633 55.9673 64.79C55.8939 65.01 55.8506 65.3 55.8373 65.66H59.2973V66.5H54.9073ZM70.3288 68.72C69.6688 68.5533 69.0988 68.25 68.6188 67.81C68.1388 67.3767 67.7688 66.8367 67.5088 66.19C67.2488 65.5367 67.1188 64.8067 67.1188 64C67.1188 63.1933 67.2488 62.4667 67.5088 61.82C67.7688 61.1667 68.1388 60.6233 68.6188 60.19C69.0988 59.75 69.6688 59.4467 70.3288 59.28V59.98C69.5955 60.2133 69.0155 60.68 68.5888 61.38C68.1622 62.08 67.9488 62.9533 67.9488 64C67.9488 65.0467 68.1622 65.92 68.5888 66.62C69.0155 67.32 69.5955 67.7867 70.3288 68.02V68.72ZM74.5996 66.62C73.8529 66.62 73.2663 66.37 72.8396 65.87C72.4129 65.3633 72.1996 64.65 72.1996 63.73C72.1996 62.5633 72.5529 61.67 73.2596 61.05C73.9729 60.4233 75.0196 60.1 76.3996 60.08L76.4296 60.92C74.4296 60.9667 73.3396 61.71 73.1596 63.15H73.1796C73.6463 62.6967 74.1963 62.47 74.8296 62.47C75.2363 62.47 75.5896 62.5567 75.8896 62.73C76.1963 62.8967 76.4296 63.13 76.5896 63.43C76.7563 63.73 76.8396 64.0767 76.8396 64.47C76.8396 64.9033 76.7463 65.28 76.5596 65.6C76.3729 65.92 76.1096 66.17 75.7696 66.35C75.4363 66.53 75.0463 66.62 74.5996 66.62ZM74.6196 65.76C74.9996 65.76 75.3096 65.6467 75.5496 65.42C75.7896 65.1933 75.9096 64.89 75.9096 64.51C75.9096 64.15 75.7996 63.8633 75.5796 63.65C75.3596 63.43 75.0529 63.32 74.6596 63.32C74.3663 63.32 74.0896 63.3833 73.8296 63.51C73.5763 63.6367 73.3429 63.8333 73.1296 64.1C73.1629 64.62 73.3096 65.0267 73.5696 65.32C73.8296 65.6133 74.1796 65.76 74.6196 65.76ZM77.9504 67.1L81.7904 59.4H82.6504L78.8104 67.1H77.9504ZM83.8812 66.62L83.8712 65.78C84.7245 65.78 85.4112 65.7367 85.9312 65.65C86.4512 65.5633 86.8278 65.4267 87.0612 65.24C87.2945 65.0533 87.4112 64.8067 87.4112 64.5C87.4112 64.1867 87.2945 63.98 87.0612 63.88C86.8278 63.7733 86.4912 63.72 86.0512 63.72H84.8712V62.88H85.6812C86.1612 62.88 86.5278 62.8 86.7812 62.64C87.0345 62.4733 87.1612 62.2133 87.1612 61.86C87.1612 61.2467 86.7512 60.94 85.9312 60.94C85.3112 60.94 84.7545 61.1233 84.2612 61.49L83.8212 60.76C84.4478 60.3067 85.1645 60.08 85.9712 60.08C86.6445 60.08 87.1645 60.2233 87.5312 60.51C87.9045 60.7967 88.0912 61.2067 88.0912 61.74C88.0912 62.3867 87.8145 62.8367 87.2612 63.09V63.11C87.6145 63.1967 87.8812 63.3567 88.0612 63.59C88.2478 63.8167 88.3412 64.1333 88.3412 64.54C88.3412 65.04 88.1912 65.4433 87.8912 65.75C87.5978 66.05 87.1245 66.27 86.4712 66.41C85.8178 66.5433 84.9545 66.6133 83.8812 66.62ZM90.272 68.72V68.02C91.0053 67.7867 91.5853 67.32 92.012 66.62C92.4386 65.92 92.652 65.0467 92.652 64C92.652 62.9533 92.4386 62.08 92.012 61.38C91.5853 60.68 91.0053 60.2133 90.272 59.98V59.28C90.932 59.4467 91.502 59.75 91.982 60.19C92.462 60.6233 92.832 61.1667 93.092 61.82C93.352 62.4667 93.482 63.1933 93.482 64C93.482 64.8067 93.352 65.5367 93.092 66.19C92.832 66.8367 92.462 67.3767 91.982 67.81C91.502 68.25 90.932 68.5533 90.272 68.72Z" fill="#159BFF"/>
<rect opacity="0.3" x="4" y="12" width="20" height="32" fill="#159BFF"/>
<path d="M11.7096 30.5V29.66H13.5596V25.64L12.1996 26.69L11.7796 26.12L13.8496 24.14H14.4796V29.66H16.3296V30.5H11.7096Z" fill="#159BFF"/>
<rect opacity="0.3" x="28" y="12" width="20" height="32" fill="#159BFF"/>
<path d="M35.7096 30.5V29.66H37.5596V25.64L36.1996 26.69L35.7796 26.12L37.8496 24.14H38.4796V29.66H40.3296V30.5H35.7096Z" fill="#159BFF"/>
<rect opacity="0.3" x="52" y="12" width="20" height="32" fill="#159BFF"/>
<path d="M59.7096 30.5V29.66H61.5596V25.64L60.1996 26.69L59.7796 26.12L61.8496 24.14H62.4796V29.66H64.3296V30.5H59.7096Z" fill="#159BFF"/>
<rect opacity="0.3" x="76" y="12" width="20" height="32" fill="#159BFF"/>
<path d="M83.7096 30.5V29.66H85.5596V25.64L84.1996 26.69L83.7796 26.12L85.8496 24.14H86.4796V29.66H88.3296V30.5H83.7096Z" fill="#159BFF"/>
<rect opacity="0.3" x="321" y="104" width="164" height="40" fill="#159BFF"/>
<path d="M403.1 126.62C402.353 126.62 401.766 126.37 401.34 125.87C400.913 125.363 400.7 124.65 400.7 123.73C400.7 122.563 401.053 121.67 401.76 121.05C402.473 120.423 403.52 120.1 404.9 120.08L404.93 120.92C402.93 120.967 401.84 121.71 401.66 123.15H401.68C402.146 122.697 402.696 122.47 403.33 122.47C403.736 122.47 404.09 122.557 404.39 122.73C404.696 122.897 404.93 123.13 405.09 123.43C405.256 123.73 405.34 124.077 405.34 124.47C405.34 124.903 405.246 125.28 405.06 125.6C404.873 125.92 404.61 126.17 404.27 126.35C403.936 126.53 403.546 126.62 403.1 126.62ZM403.12 125.76C403.5 125.76 403.81 125.647 404.05 125.42C404.29 125.193 404.41 124.89 404.41 124.51C404.41 124.15 404.3 123.863 404.08 123.65C403.86 123.43 403.553 123.32 403.16 123.32C402.866 123.32 402.59 123.383 402.33 123.51C402.076 123.637 401.843 123.833 401.63 124.1C401.663 124.62 401.81 125.027 402.07 125.32C402.33 125.613 402.68 125.76 403.12 125.76Z" fill="#159BFF"/>
<rect opacity="0.3" x="377" y="56" width="108" height="40" fill="#159BFF"/>
<path d="M431.59 78.5V77.07H428.43V76.37L430.97 72.2H431.98L429.53 76.24H431.59V74.28L432.51 73.76V76.24H433.59V77.07H432.51V78.5H431.59Z" fill="#159BFF"/>
<rect opacity="0.3" x="321" y="8" width="80" height="40" fill="#159BFF"/>
<path d="M358.78 30.62L358.77 29.78C359.623 29.78 360.31 29.7367 360.83 29.65C361.35 29.5633 361.726 29.4267 361.96 29.24C362.193 29.0533 362.31 28.8067 362.31 28.5C362.31 28.1867 362.193 27.98 361.96 27.88C361.726 27.7733 361.39 27.72 360.95 27.72H359.77V26.88H360.58C361.06 26.88 361.426 26.8 361.68 26.64C361.933 26.4733 362.06 26.2133 362.06 25.86C362.06 25.2467 361.65 24.94 360.83 24.94C360.21 24.94 359.653 25.1233 359.16 25.49L358.72 24.76C359.346 24.3067 360.063 24.08 360.87 24.08C361.543 24.08 362.063 24.2233 362.43 24.51C362.803 24.7967 362.99 25.2067 362.99 25.74C362.99 26.3867 362.713 26.8367 362.16 27.09V27.11C362.513 27.1967 362.78 27.3567 362.96 27.59C363.146 27.8167 363.24 28.1333 363.24 28.54C363.24 29.04 363.09 29.4433 362.79 29.75C362.496 30.05 362.023 30.27 361.37 30.41C360.716 30.5433 359.853 30.6133 358.78 30.62Z" fill="#159BFF"/>
<rect opacity="0.3" x="405" y="8" width="80" height="40" fill="#159BFF"/>
<path d="M442.78 30.62L442.77 29.78C443.623 29.78 444.31 29.7367 444.83 29.65C445.35 29.5633 445.726 29.4267 445.96 29.24C446.193 29.0533 446.31 28.8067 446.31 28.5C446.31 28.1867 446.193 27.98 445.96 27.88C445.726 27.7733 445.39 27.72 444.95 27.72H443.77V26.88H444.58C445.06 26.88 445.426 26.8 445.68 26.64C445.933 26.4733 446.06 26.2133 446.06 25.86C446.06 25.2467 445.65 24.94 444.83 24.94C444.21 24.94 443.653 25.1233 443.16 25.49L442.72 24.76C443.346 24.3067 444.063 24.08 444.87 24.08C445.543 24.08 446.063 24.2233 446.43 24.51C446.803 24.7967 446.99 25.2067 446.99 25.74C446.99 26.3867 446.713 26.8367 446.16 27.09V27.11C446.513 27.1967 446.78 27.3567 446.96 27.59C447.146 27.8167 447.24 28.1333 447.24 28.54C447.24 29.04 447.09 29.4433 446.79 29.75C446.496 30.05 446.023 30.27 445.37 30.41C444.716 30.5433 443.853 30.6133 442.78 30.62Z" fill="#159BFF"/>
</svg>
