<svg width="500" height="251" viewBox="0 0 500 251" fill="none" xmlns="http://www.w3.org/2000/svg">
<path d="M0 8.25781C0 3.83954 3.58172 0.257812 8 0.257812H492C496.418 0.257812 500 3.83954 500 8.25781V250.258H0V8.25781Z" fill="#F2F2F2"/>
<path d="M121.052 99.2578H119.442L115.634 89.2058H117.412L120.268 97.0458L123.124 89.2058H124.86L121.052 99.2578ZM127.706 92.0058V99.2578H126.068V92.0058H127.706ZM125.872 89.7938C125.872 89.5138 125.97 89.2758 126.166 89.0798C126.362 88.8838 126.6 88.7858 126.88 88.7858C127.16 88.7858 127.398 88.8838 127.594 89.0798C127.79 89.2758 127.888 89.5138 127.888 89.7938C127.888 90.0738 127.79 90.3118 127.594 90.5078C127.398 90.7038 127.16 90.8018 126.88 90.8018C126.6 90.8018 126.362 90.7038 126.166 90.5078C125.97 90.3118 125.872 90.0738 125.872 89.7938ZM130.824 95.6318C130.824 96.1918 130.922 96.6491 131.118 97.0038C131.323 97.3491 131.594 97.6058 131.93 97.7738C132.275 97.9325 132.653 98.0118 133.064 98.0118C133.474 98.0118 133.838 97.9605 134.156 97.8578C134.473 97.7458 134.804 97.5731 135.15 97.3398V98.7818C134.832 99.0151 134.473 99.1785 134.072 99.2718C133.67 99.3745 133.241 99.4258 132.784 99.4258C132.074 99.4258 131.454 99.2671 130.922 98.9498C130.39 98.6325 129.974 98.1891 129.676 97.6198C129.377 97.0411 129.228 96.3785 129.228 95.6318C129.228 94.9038 129.368 94.2551 129.648 93.6858C129.937 93.1165 130.334 92.6685 130.838 92.3418C131.342 92.0058 131.92 91.8378 132.574 91.8378C133.078 91.8378 133.521 91.9265 133.904 92.1038C134.286 92.2718 134.608 92.5145 134.87 92.8318C135.131 93.1398 135.327 93.5131 135.458 93.9518C135.588 94.3905 135.654 94.8758 135.654 95.4078V95.9818H130.418L130.46 94.7638H134.058C134.048 94.5491 134.011 94.3485 133.946 94.1618C133.88 93.9751 133.782 93.8118 133.652 93.6718C133.53 93.5225 133.381 93.4105 133.204 93.3358C133.026 93.2518 132.816 93.2098 132.574 93.2098C132.275 93.2098 131.99 93.2985 131.72 93.4758C131.449 93.6438 131.23 93.9051 131.062 94.2598C130.903 94.6145 130.824 95.0718 130.824 95.6318ZM140.644 92.0058H142.128L143.43 97.1998L144.858 92.0058H146.412L144.298 99.2578H142.688L141.358 94.1478L140.028 99.2578H138.418L136.304 92.0058H137.914L139.328 97.1998L140.644 92.0058Z" fill="black"/>
<rect width="107" height="40" transform="translate(163 73.2578)" fill="black"/>
<path d="M190 86.2578H184V92.2578H190V86.2578Z" fill="white"/>
<path d="M198 86.2578H192V92.2578H198V86.2578Z" fill="white"/>
<path d="M184 94.2578H190V100.258H184V94.2578Z" fill="white"/>
<path d="M198 94.2578H192V100.258H198V94.2578Z" fill="white"/>
<path d="M211.852 90.7038V89.2058H220.238V90.7038H216.892V99.2578H215.198V90.7038H211.852ZM219.482 95.6318C219.482 94.8851 219.626 94.2271 219.916 93.6578C220.214 93.0885 220.62 92.6451 221.134 92.3278C221.656 92.0011 222.258 91.8378 222.94 91.8378C223.621 91.8378 224.218 92.0011 224.732 92.3278C225.254 92.6451 225.66 93.0885 225.95 93.6578C226.248 94.2271 226.398 94.8851 226.398 95.6318C226.398 96.3691 226.248 97.0271 225.95 97.6058C225.66 98.1751 225.254 98.6231 224.732 98.9498C224.218 99.2671 223.621 99.4258 222.94 99.4258C222.258 99.4258 221.656 99.2671 221.134 98.9498C220.62 98.6231 220.214 98.1751 219.916 97.6058C219.626 97.0271 219.482 96.3691 219.482 95.6318ZM221.12 95.6318C221.12 96.0891 221.19 96.4998 221.33 96.8638C221.47 97.2278 221.675 97.5125 221.946 97.7178C222.216 97.9231 222.548 98.0258 222.94 98.0258C223.332 98.0258 223.663 97.9231 223.934 97.7178C224.204 97.5125 224.41 97.2278 224.55 96.8638C224.69 96.4998 224.76 96.0891 224.76 95.6318C224.76 95.1745 224.69 94.7685 224.55 94.4138C224.41 94.0498 224.204 93.7651 223.934 93.5598C223.663 93.3451 223.332 93.2378 222.94 93.2378C222.548 93.2378 222.216 93.3451 221.946 93.5598C221.675 93.7651 221.47 94.0498 221.33 94.4138C221.19 94.7685 221.12 95.1745 221.12 95.6318ZM229.567 94.2598V97.0038C229.707 97.2931 229.922 97.5265 230.211 97.7038C230.501 97.8811 230.813 97.9698 231.149 97.9698C231.467 97.9698 231.747 97.9138 231.989 97.8018C232.241 97.6805 232.451 97.5171 232.619 97.3118C232.797 97.0971 232.932 96.8498 233.025 96.5698C233.119 96.2805 233.165 95.9678 233.165 95.6318C233.165 95.2958 233.119 94.9878 233.025 94.7078C232.932 94.4185 232.797 94.1711 232.619 93.9658C232.451 93.7511 232.241 93.5878 231.989 93.4758C231.747 93.3545 231.467 93.2938 231.149 93.2938C230.813 93.2938 230.501 93.3825 230.211 93.5598C229.922 93.7371 229.707 93.9705 229.567 94.2598ZM229.567 98.6418V102.058H227.929V92.0058H229.567V92.6218C229.679 92.4818 229.829 92.3558 230.015 92.2438C230.202 92.1225 230.417 92.0245 230.659 91.9498C230.902 91.8751 231.159 91.8378 231.429 91.8378C231.961 91.8378 232.433 91.9405 232.843 92.1458C233.263 92.3418 233.618 92.6125 233.907 92.9578C234.206 93.3031 234.43 93.7045 234.579 94.1618C234.729 94.6191 234.803 95.1091 234.803 95.6318C234.803 96.1451 234.729 96.6351 234.579 97.1018C234.43 97.5591 234.206 97.9605 233.907 98.3058C233.618 98.6511 233.263 98.9265 232.843 99.1318C232.433 99.3278 231.961 99.4258 231.429 99.4258C231.159 99.4258 230.902 99.3885 230.659 99.3138C230.417 99.2391 230.202 99.1411 230.015 99.0198C229.829 98.8985 229.679 98.7725 229.567 98.6418ZM237.948 92.0058V99.2578H236.31V92.0058H237.948ZM236.114 89.7938C236.114 89.5138 236.212 89.2758 236.408 89.0798C236.604 88.8838 236.842 88.7858 237.122 88.7858C237.402 88.7858 237.64 88.8838 237.836 89.0798C238.032 89.2758 238.13 89.5138 238.13 89.7938C238.13 90.0738 238.032 90.3118 237.836 90.5078C237.64 90.7038 237.402 90.8018 237.122 90.8018C236.842 90.8018 236.604 90.7038 236.408 90.5078C236.212 90.3118 236.114 90.0738 236.114 89.7938ZM241.108 95.6318C241.108 96.0891 241.196 96.4951 241.374 96.8498C241.551 97.2045 241.798 97.4845 242.116 97.6898C242.433 97.8951 242.797 97.9978 243.208 97.9978C243.544 97.9978 243.87 97.9325 244.188 97.8018C244.514 97.6711 244.808 97.4751 245.07 97.2138V98.8098C244.808 99.0338 244.5 99.1925 244.146 99.2858C243.8 99.3791 243.45 99.4258 243.096 99.4258C242.396 99.4258 241.77 99.2671 241.22 98.9498C240.678 98.6325 240.249 98.1891 239.932 97.6198C239.624 97.0411 239.47 96.3785 239.47 95.6318C239.47 94.8758 239.624 94.2131 239.932 93.6438C240.249 93.0745 240.678 92.6311 241.22 92.3138C241.77 91.9965 242.396 91.8378 243.096 91.8378C243.45 91.8378 243.8 91.8845 244.146 91.9778C244.5 92.0711 244.808 92.2298 245.07 92.4538V94.0498C244.808 93.7885 244.514 93.5925 244.188 93.4618C243.87 93.3311 243.544 93.2658 243.208 93.2658C242.797 93.2658 242.433 93.3685 242.116 93.5738C241.798 93.7791 241.551 94.0591 241.374 94.4138C241.196 94.7685 241.108 95.1745 241.108 95.6318Z" fill="white"/>
<rect x="270.5" y="73.7578" width="126" height="39" stroke="black"/>
<path d="M290 88.2578H292V90.2578H290V88.2578Z" fill="black"/>
<path d="M306 88.2578H294V90.2578H306V88.2578Z" fill="black"/>
<path d="M292 92.2578H290V94.2578H292V92.2578Z" fill="black"/>
<path d="M290 96.2578H292V98.2578H290V96.2578Z" fill="black"/>
<path d="M294 92.2578H306V94.2578H294V92.2578Z" fill="black"/>
<path d="M306 96.2578H294V98.2578H306V96.2578Z" fill="black"/>
<path d="M318.503 90.7038V89.2058H326.889V90.7038H323.543V99.2578H321.849V90.7038H318.503ZM329.833 92.0058V99.2578H328.195V92.0058H329.833ZM327.999 89.7938C327.999 89.5138 328.097 89.2758 328.293 89.0798C328.489 88.8838 328.727 88.7858 329.007 88.7858C329.287 88.7858 329.525 88.8838 329.721 89.0798C329.917 89.2758 330.015 89.5138 330.015 89.7938C330.015 90.0738 329.917 90.3118 329.721 90.5078C329.525 90.7038 329.287 90.8018 329.007 90.8018C328.727 90.8018 328.489 90.7038 328.293 90.5078C328.097 90.3118 327.999 90.0738 327.999 89.7938ZM337.235 92.8038C337.496 92.5051 337.799 92.2718 338.145 92.1038C338.499 91.9265 338.919 91.8378 339.405 91.8378C339.899 91.8378 340.319 91.9498 340.665 92.1738C341.019 92.3885 341.285 92.7011 341.463 93.1118C341.649 93.5131 341.743 93.9891 341.743 94.5398V99.2578H340.105V94.8058C340.105 94.3485 340.007 93.9891 339.811 93.7278C339.615 93.4571 339.316 93.3218 338.915 93.3218C338.625 93.3218 338.355 93.4105 338.103 93.5878C337.86 93.7651 337.701 94.0311 337.627 94.3858V99.2578H335.989V94.8058C335.989 94.3485 335.891 93.9891 335.695 93.7278C335.499 93.4571 335.2 93.3218 334.799 93.3218C334.509 93.3218 334.239 93.4105 333.987 93.5878C333.744 93.7651 333.585 94.0311 333.511 94.3858V99.2578H331.873V92.0058H333.511V92.6078C333.679 92.3745 333.921 92.1878 334.239 92.0478C334.556 91.9078 334.915 91.8378 335.317 91.8378C335.727 91.8378 336.101 91.9311 336.437 92.1178C336.782 92.2951 337.048 92.5238 337.235 92.8038ZM344.749 95.6318C344.749 96.1918 344.847 96.6491 345.043 97.0038C345.249 97.3491 345.519 97.6058 345.855 97.7738C346.201 97.9325 346.579 98.0118 346.989 98.0118C347.4 98.0118 347.764 97.9605 348.081 97.8578C348.399 97.7458 348.73 97.5731 349.075 97.3398V98.7818C348.758 99.0151 348.399 99.1785 347.997 99.2718C347.596 99.3745 347.167 99.4258 346.709 99.4258C346 99.4258 345.379 99.2671 344.847 98.9498C344.315 98.6325 343.9 98.1891 343.601 97.6198C343.303 97.0411 343.153 96.3785 343.153 95.6318C343.153 94.9038 343.293 94.2551 343.573 93.6858C343.863 93.1165 344.259 92.6685 344.763 92.3418C345.267 92.0058 345.846 91.8378 346.499 91.8378C347.003 91.8378 347.447 91.9265 347.829 92.1038C348.212 92.2718 348.534 92.5145 348.795 92.8318C349.057 93.1398 349.253 93.5131 349.383 93.9518C349.514 94.3905 349.579 94.8758 349.579 95.4078V95.9818H344.343L344.385 94.7638H347.983C347.974 94.5491 347.937 94.3485 347.871 94.1618C347.806 93.9751 347.708 93.8118 347.577 93.6718C347.456 93.5225 347.307 93.4105 347.129 93.3358C346.952 93.2518 346.742 93.2098 346.499 93.2098C346.201 93.2098 345.916 93.2985 345.645 93.4758C345.375 93.6438 345.155 93.9051 344.987 94.2598C344.829 94.6145 344.749 95.0718 344.749 95.6318ZM352.747 88.6178V99.2578H351.109V88.6178H352.747ZM356.425 92.0058V99.2578H354.787V92.0058H356.425ZM354.591 89.7938C354.591 89.5138 354.689 89.2758 354.885 89.0798C355.081 88.8838 355.319 88.7858 355.599 88.7858C355.879 88.7858 356.117 88.8838 356.313 89.0798C356.509 89.2758 356.607 89.5138 356.607 89.7938C356.607 90.0738 356.509 90.3118 356.313 90.5078C356.117 90.7038 355.879 90.8018 355.599 90.8018C355.319 90.8018 355.081 90.7038 354.885 90.5078C354.689 90.3118 354.591 90.0738 354.591 89.7938ZM358.464 99.2578V92.0058H360.102V92.6918C360.298 92.4585 360.564 92.2578 360.9 92.0898C361.246 91.9218 361.633 91.8378 362.062 91.8378C362.613 91.8378 363.08 91.9545 363.462 92.1878C363.845 92.4118 364.134 92.7245 364.33 93.1258C364.536 93.5271 364.638 93.9985 364.638 94.5398V99.2578H363V94.8198C363 94.3625 362.884 93.9985 362.65 93.7278C362.426 93.4571 362.081 93.3218 361.614 93.3218C361.381 93.3218 361.157 93.3685 360.942 93.4618C360.737 93.5551 360.56 93.6905 360.41 93.8678C360.261 94.0358 360.158 94.2411 360.102 94.4838V99.2578H358.464ZM367.65 95.6318C367.65 96.1918 367.748 96.6491 367.944 97.0038C368.149 97.3491 368.42 97.6058 368.756 97.7738C369.101 97.9325 369.479 98.0118 369.89 98.0118C370.3 98.0118 370.664 97.9605 370.982 97.8578C371.299 97.7458 371.63 97.5731 371.976 97.3398V98.7818C371.658 99.0151 371.299 99.1785 370.898 99.2718C370.496 99.3745 370.067 99.4258 369.61 99.4258C368.9 99.4258 368.28 99.2671 367.748 98.9498C367.216 98.6325 366.8 98.1891 366.502 97.6198C366.203 97.0411 366.054 96.3785 366.054 95.6318C366.054 94.9038 366.194 94.2551 366.474 93.6858C366.763 93.1165 367.16 92.6685 367.664 92.3418C368.168 92.0058 368.746 91.8378 369.4 91.8378C369.904 91.8378 370.347 91.9265 370.73 92.1038C371.112 92.2718 371.434 92.5145 371.696 92.8318C371.957 93.1398 372.153 93.5131 372.284 93.9518C372.414 94.3905 372.48 94.8758 372.48 95.4078V95.9818H367.244L367.286 94.7638H370.884C370.874 94.5491 370.837 94.3485 370.772 94.1618C370.706 93.9751 370.608 93.8118 370.478 93.6718C370.356 93.5225 370.207 93.4105 370.03 93.3358C369.852 93.2518 369.642 93.2098 369.4 93.2098C369.101 93.2098 368.816 93.2985 368.546 93.4758C368.275 93.6438 368.056 93.9051 367.888 94.2598C367.729 94.6145 367.65 95.0718 367.65 95.6318Z" fill="black"/>
<rect x="103.5" y="65.7578" width="56" height="55" stroke="#990F3D" stroke-dasharray="2 2"/>
<path d="M131.5 121.758C131.5 121.482 131.724 121.258 132 121.258C132.276 121.258 132.5 121.482 132.5 121.758V153.258H131.5V121.758Z" fill="#990F3D"/>
<path d="M128 157.258C128 155.049 129.791 153.258 132 153.258C134.209 153.258 136 155.049 136 157.258C136 159.467 134.209 161.258 132 161.258C129.791 161.258 128 159.467 128 157.258Z" fill="#990F3D"/>
<path d="M111.014 180.258H109.722L115.151 170.076H116.423L118.472 180.258H117.179L115.568 171.687H115.489L111.014 180.258ZM112.148 176.281H117.358L117.179 177.374H111.969L112.148 176.281ZM122.981 180.417C122.262 180.417 121.672 180.248 121.211 179.91C120.754 179.572 120.435 179.106 120.256 178.513C120.077 177.92 120.051 177.242 120.177 176.479C120.303 175.704 120.558 175.019 120.942 174.426C121.327 173.83 121.806 173.364 122.379 173.029C122.953 172.691 123.584 172.522 124.273 172.522C124.81 172.522 125.278 172.621 125.675 172.82C126.073 173.019 126.38 173.298 126.595 173.656C126.811 174.013 126.912 174.431 126.898 174.908H125.725C125.692 174.56 125.543 174.252 125.278 173.984C125.016 173.712 124.628 173.576 124.114 173.576C123.657 173.576 123.236 173.695 122.852 173.934C122.467 174.169 122.144 174.502 121.882 174.933C121.62 175.361 121.443 175.863 121.35 176.44C121.251 177.03 121.259 177.543 121.375 177.981C121.491 178.418 121.701 178.758 122.006 179C122.311 179.242 122.696 179.363 123.16 179.363C123.465 179.363 123.75 179.31 124.015 179.204C124.28 179.098 124.515 178.945 124.721 178.746C124.926 178.548 125.089 178.309 125.208 178.031H126.381C126.236 178.481 126.002 178.887 125.68 179.249C125.359 179.607 124.969 179.892 124.512 180.104C124.055 180.312 123.544 180.417 122.981 180.417ZM132.312 172.621L132.153 173.616H128.196L128.355 172.621H132.312ZM129.807 170.792H130.98L129.767 178.07C129.714 178.402 129.722 178.65 129.792 178.816C129.865 178.978 129.974 179.088 130.12 179.144C130.269 179.197 130.43 179.224 130.602 179.224C130.732 179.224 130.838 179.217 130.92 179.204C131.003 179.187 131.07 179.174 131.119 179.164L131.199 180.218C131.109 180.248 130.988 180.278 130.836 180.308C130.687 180.341 130.503 180.357 130.284 180.357C129.953 180.357 129.641 180.286 129.349 180.143C129.058 180.001 128.834 179.784 128.678 179.492C128.522 179.201 128.481 178.833 128.554 178.388L129.807 170.792ZM132.805 180.258L134.077 172.621H135.251L133.978 180.258H132.805ZM135.022 171.329C134.793 171.329 134.596 171.251 134.43 171.095C134.268 170.939 134.187 170.752 134.187 170.533C134.187 170.315 134.268 170.127 134.43 169.972C134.596 169.816 134.793 169.738 135.022 169.738C135.251 169.738 135.446 169.816 135.609 169.972C135.774 170.127 135.857 170.315 135.857 170.533C135.857 170.752 135.774 170.939 135.609 171.095C135.446 171.251 135.251 171.329 135.022 171.329ZM139.279 180.417C138.576 180.417 137.988 180.25 137.514 179.915C137.04 179.58 136.705 179.111 136.51 178.508C136.318 177.905 136.286 177.202 136.415 176.4C136.541 175.618 136.791 174.937 137.166 174.357C137.544 173.773 138.013 173.322 138.573 173.004C139.136 172.683 139.756 172.522 140.432 172.522C141.135 172.522 141.722 172.691 142.192 173.029C142.666 173.364 143.001 173.835 143.197 174.441C143.392 175.044 143.425 175.75 143.296 176.559C143.17 177.335 142.916 178.012 142.535 178.592C142.157 179.169 141.689 179.618 141.128 179.94C140.572 180.258 139.955 180.417 139.279 180.417ZM139.299 179.363C139.836 179.363 140.301 179.225 140.696 178.95C141.094 178.675 141.415 178.312 141.66 177.862C141.909 177.411 142.076 176.924 142.162 176.4C142.242 175.903 142.239 175.44 142.153 175.013C142.066 174.582 141.882 174.236 141.601 173.974C141.319 173.709 140.923 173.576 140.412 173.576C139.876 173.576 139.407 173.715 139.006 173.994C138.608 174.272 138.286 174.638 138.041 175.092C137.796 175.546 137.632 176.035 137.549 176.559C137.469 177.056 137.471 177.518 137.554 177.946C137.64 178.37 137.824 178.713 138.106 178.975C138.391 179.234 138.788 179.363 139.299 179.363ZM146.409 175.664L145.654 180.258H144.48L145.753 172.621H146.887L146.688 173.815H146.787C147.026 173.427 147.349 173.115 147.757 172.88C148.164 172.641 148.657 172.522 149.233 172.522C149.744 172.522 150.175 172.628 150.526 172.84C150.881 173.049 151.131 173.367 151.277 173.795C151.426 174.219 151.447 174.756 151.341 175.406L150.526 180.258H149.353L150.148 175.485C150.248 174.888 150.17 174.421 149.914 174.083C149.663 173.745 149.263 173.576 148.716 173.576C148.338 173.576 147.989 173.657 147.667 173.82C147.349 173.982 147.079 174.219 146.857 174.531C146.638 174.842 146.489 175.22 146.409 175.664Z" fill="#333333"/>
</svg>
