<?xml version="1.0" encoding="UTF-8" standalone="no"?>
<!DOCTYPE svg PUBLIC "-//W3C//DTD SVG 1.1//EN" "http://www.w3.org/Graphics/SVG/1.1/DTD/svg11.dtd">
<svg width="100%" height="100%" viewBox="0 0 520 520" version="1.1" xmlns="http://www.w3.org/2000/svg" xmlns:xlink="http://www.w3.org/1999/xlink" xml:space="preserve" xmlns:serif="http://www.serif.com/" style="fill-rule:evenodd;clip-rule:evenodd;stroke-linecap:round;stroke-linejoin:round;stroke-miterlimit:1.5;">
    <g transform="matrix(1,0,0,1,-5342.75,0)">
        <g id="Layer1">
        </g>
        <g id="V3---Large---transparent" serif:id="V3 - Large - transparent" transform="matrix(1.67526,0,0,1.72226,4882.27,63.9548)">
            <rect x="274.869" y="-37.134" width="310.399" height="301.93" style="fill:none;"/>
            <g transform="matrix(0.961538,0,0,0.961538,16.5411,4.3781)">
                <clipPath id="_clip1">
                    <rect x="274.882" y="-37.112" width="310.422" height="301.901"/>
                </clipPath>
                <g clip-path="url(#_clip1)">
                    <g id="Pink-sleeve-cuff-shadows" serif:id="Pink sleeve cuff shadows">
                        <g transform="matrix(0.620798,3.35209e-17,-3.44612e-17,0.603859,-4836.39,-36.6405)">
                            <path d="M8597.69,311.182L8614.69,297.261C8614.69,297.261 8602.22,284.869 8596.47,289.685C8590.73,294.5 8597.69,311.182 8597.69,311.182Z" style="fill:rgb(207,170,182);"/>
                        </g>
                        <g transform="matrix(0.620798,0,0,0.603859,-4835.74,-37.1344)">
                            <path d="M8659.88,403.941L8680.23,388.014C8680.23,388.014 8684.38,401.108 8676.58,405.406C8670.41,408.807 8659.88,403.941 8659.88,403.941Z" style="fill:rgb(207,170,182);"/>
                        </g>
                    </g>
                    <g id="pink-sleeve" serif:id="pink sleeve" transform="matrix(0.781223,-0.214743,0.22707,0.781605,-9849.56,-1229.1)">
                        <g transform="matrix(0.95324,0,0,0.95324,4887.79,3592.77)">
                            <path d="M7345.42,1543.49C7345.42,1543.49 7324.06,1561.42 7307.11,1571.13C7284.16,1584.29 7276.25,1568.46 7276.25,1568.46C7276.25,1568.46 7289.93,1576.73 7292.28,1562.79C7295.45,1544.03 7281.54,1502.79 7265.4,1480.67C7247.93,1456.73 7242.17,1474.82 7242.1,1474.6C7231.78,1441.34 7293.25,1430.27 7307.67,1424.29C7321.08,1418.72 7337.84,1404.23 7352.14,1396.21C7375.6,1383.04 7394.28,1376.61 7394.28,1376.61L7345.42,1543.49Z" style="fill:rgb(246,160,189);"/>
                        </g>
                        <g transform="matrix(0.860079,0,0,0.987131,3024.94,3545.68)">
                            <path d="M10361.5,1376.14C10362,1376.06 10362.5,1376.32 10362.5,1376.72C10362.6,1377.12 10362.3,1377.51 10361.9,1377.59C10355.3,1379.04 10347.8,1382.31 10339.5,1386.33C10336.1,1387.94 10332.7,1389.65 10329.2,1391.45C10324.2,1394 10319,1396.68 10313.9,1399.45C10291.4,1411.49 10268.3,1424.8 10252.5,1429.29C10239.8,1432.85 10228.9,1436.44 10219.9,1440.03C10211.8,1443.29 10205.2,1446.57 10200.5,1450.21C10193.8,1455.41 10190.7,1461.23 10192.1,1468.34C10192.2,1468.61 10192,1468.88 10191.7,1468.94C10191.3,1468.99 10191,1468.82 10191,1468.55C10188,1458.84 10192.9,1450.66 10204.6,1443.21C10208.3,1440.85 10212.7,1438.59 10217.8,1436.4C10226.8,1432.52 10238,1428.9 10250.9,1425.15C10266.4,1420.74 10289,1407.49 10311.1,1395.77C10316.4,1392.99 10321.6,1390.28 10326.7,1387.84C10330.3,1386.09 10333.9,1384.47 10337.4,1383.05C10346.3,1379.46 10354.6,1377.02 10361.5,1376.14Z"/>
                        </g>
                        <g transform="matrix(0.949818,0.312803,-0.312803,0.949818,1922.07,552.859)">
                            <path d="M10825.6,1212.64C10829.1,1213.57 10832.2,1213.49 10835.2,1212.86C10839.6,1211.93 10843.5,1209.52 10847.2,1206.11C10850.4,1203.16 10853.3,1199.46 10856.3,1195.57C10859,1191.83 10861.9,1187.93 10864.4,1184.03C10866.6,1180.73 10868.7,1177.44 10870.8,1174.45C10874.9,1168.42 10878.8,1163.51 10881.9,1160.89C10882,1160.73 10882.3,1160.72 10882.4,1160.87C10882.6,1161.02 10882.6,1161.27 10882.4,1161.42C10880.6,1163.67 10878.8,1167.25 10876.6,1171.53C10875.5,1173.72 10874.3,1176.08 10873,1178.53C10870.3,1183.53 10867.3,1188.88 10863.9,1193.96C10862.8,1195.66 10861.7,1197.33 10860.4,1198.9C10859.2,1200.54 10857.8,1202.08 10856.4,1203.52C10850.1,1210.12 10843,1215 10835.5,1215.22C10832.2,1215.32 10828.9,1214.48 10825.6,1212.64Z"/>
                        </g>
                    </g>
                    <g transform="matrix(0.210708,0.417754,-0.53083,0.25333,2060.82,-1690.21)">
                        <path d="M1869.79,3616.53C1870.68,3615.91 1849.13,3583.55 1831.86,3588.08C1820.88,3590.97 1818.05,3635.97 1818.05,3635.97C1818.05,3635.97 1849.65,3634.07 1854.55,3629.17C1858.41,3625.32 1872.01,3616.53 1869.79,3616.53" style="fill:rgb(182,199,149);"/>
                    </g>
                    <g transform="matrix(0.210708,0.417754,-0.53083,0.25333,2057.98,-1689.29)">
                        <path d="M1891.36,3738.64C1886.3,3738.07 1852.08,3753.43 1853.83,3755.18C1856.88,3758.23 1876.34,3760.41 1879.8,3759.54C1891.15,3756.7 1891.36,3749.43 1891.36,3738.64Z" style="fill:rgb(182,199,149);"/>
                    </g>
                    <g transform="matrix(2.72367e-16,4.38791,-4.54288,2.74407e-16,590.121,-28.4844)">
                        <path d="M1.506,18.612C3.65,16.478 11.51,10.453 11.503,10.36C11.29,7.36 17.99,2.16 19.564,0.858C21.731,-0.934 24.391,-4.907 26.042,-3.485C27.516,-2.216 21.549,2.086 21.973,3.515C22.382,4.894 28.695,-3.732 30.55,-2.561C32.793,-1.145 24.546,4.177 25.657,5.191C26.885,6.312 35.016,-3.791 37.225,-2.102C39.397,-0.441 27.616,7.261 28.776,8.526C29.739,9.576 40.693,-3.009 43.021,-0.305C44.916,1.897 27.844,12.783 28.989,14.055C29.884,15.049 36.205,8.477 37.66,9.751C39.882,11.695 27.166,22.977 22.168,20.76C21.889,20.637 8.035,37.343 1.506,43.275" style="fill:rgb(124,82,31);stroke:black;stroke-width:0.82px;"/>
                    </g>
                    <g transform="matrix(0.158031,0.313316,-0.398122,0.189998,-401.316,-2107.49)">
                        <g transform="matrix(1.33333,0,0,1.33333,4095.81,-4550.89)">
                            <path d="M1891.19,3741.93C1893.6,3758.71 1882.66,3777.61 1865.26,3787.89C1830.62,3808.35 1773.2,3807.99 1732.41,3818.94C1657.13,3839.15 1650.46,3840.6 1639.74,3843.3C1620.99,3848.04 1613.66,3853.67 1613.66,3853.67L1773.74,3589.69C1773.74,3589.69 1783.82,3596.86 1809.08,3574.52C1824.35,3561.02 1864.93,3569.59 1869.33,3612.28C1870.19,3620.7 1844.32,3585.09 1832.38,3588.74C1815.13,3594.01 1820.7,3631.26 1819.1,3659.61C1817.2,3693.21 1832.13,3750.35 1852.76,3756.08C1866.44,3759.87 1868.61,3768.19 1891.19,3741.93Z" style="fill:rgb(214,234,175);"/>
                        </g>
                        <g transform="matrix(1.86783,0.0579576,0.0610884,1.82329,3582.87,-2064.58)">
                            <path d="M1567.39,1228.94C1567.58,1229.22 1567.45,1229.58 1567.11,1229.75C1566.77,1229.92 1566.34,1229.84 1566.15,1229.57C1564.66,1227.66 1559.39,1221.28 1553.65,1217.05C1551.64,1215.56 1549.58,1214.37 1547.61,1213.8C1546.39,1213.44 1545.22,1213.36 1544.15,1213.84C1540.46,1215.44 1538.31,1219.06 1536.8,1223.11C1534.39,1229.59 1533.87,1237.29 1533.6,1241.61C1532.54,1257.6 1532.23,1273.27 1534.61,1288.65C1536.16,1298.72 1538.85,1308.67 1543.28,1318.5C1546.84,1326.49 1552.57,1333.07 1558.93,1335.12C1562.48,1336.26 1566.15,1335.77 1569.74,1333.06C1572.42,1331.03 1575.1,1327.97 1577.59,1323.54C1577.94,1322.84 1578.89,1322.47 1579.72,1322.71C1580.54,1322.96 1580.93,1323.72 1580.58,1324.42C1578.45,1329.32 1575.97,1332.88 1573.29,1335.32C1570.26,1338.06 1566.94,1339.4 1563.66,1339.77C1559.84,1340.18 1555.98,1339.18 1552.38,1337.07C1546.72,1333.76 1541.64,1327.58 1538.3,1320.27C1533.71,1310.14 1530.88,1299.89 1529.29,1289.5C1526.89,1273.85 1527.27,1257.91 1528.39,1241.65C1528.73,1237.07 1529.37,1228.93 1532.04,1222.1C1534.09,1216.84 1537.4,1212.39 1542.25,1210.39C1545.83,1209 1550.01,1210.01 1553.81,1212.77C1560.22,1217.42 1565.93,1226.5 1567.39,1228.94Z"/>
                        </g>
                        <g transform="matrix(2.21288,0,0,2.21288,3482.86,-2179.48)">
                            <path d="M1417.73,1182.48C1417.78,1182.13 1418.16,1181.88 1418.59,1181.91C1419.02,1181.95 1419.33,1182.27 1419.29,1182.61C1417.42,1197.75 1409.94,1206.95 1399.44,1212.99C1392.56,1216.95 1384.37,1219.58 1375.53,1221.52C1363.42,1224.17 1350.13,1225.55 1337.57,1227.9C1326.2,1229.99 1314.79,1232.59 1303.54,1235.39C1286.15,1239.72 1269.12,1244.52 1253.06,1248.56C1252.65,1248.66 1252.21,1248.48 1252.08,1248.15C1251.95,1247.81 1252.17,1247.46 1252.59,1247.35C1271.19,1242.49 1291.1,1236.6 1311.34,1231.57C1319.85,1229.46 1328.41,1227.49 1336.97,1225.82C1349.48,1223.41 1362.69,1221.86 1374.79,1219.28C1383.34,1217.45 1391.34,1215.13 1398.08,1211.41C1408.3,1205.76 1415.6,1196.99 1417.73,1182.48Z"/>
                        </g>
                        <g transform="matrix(2.21288,0,0,2.21288,3482.86,-2179.48)">
                            <path d="M1345.15,1093.72C1344.76,1093.86 1344.3,1093.71 1344.12,1093.39C1343.95,1093.07 1344.13,1092.7 1344.52,1092.56C1347.58,1091.42 1350.37,1090.33 1352.82,1089.21C1355.88,1087.82 1358.4,1086.42 1360.37,1085.07C1364.05,1082.63 1367.74,1080.79 1371.4,1079.71C1378.22,1077.68 1384.83,1078.1 1390.56,1081.02C1397.31,1084.46 1402.93,1091.57 1406.33,1102.89C1406.44,1103.23 1406.19,1103.57 1405.77,1103.66C1405.36,1103.75 1404.93,1103.54 1404.82,1103.2C1401.2,1092.55 1395.77,1085.87 1389.26,1082.73C1384.14,1080.27 1378.4,1080.15 1372.38,1081.9C1368.96,1082.89 1365.42,1084.44 1361.88,1086.62C1360.1,1087.68 1357.91,1088.74 1355.36,1089.83C1352.42,1091.09 1349.01,1092.4 1345.15,1093.72Z"/>
                        </g>
                    </g>
                    <g id="yellow-sleeve---arm" serif:id="yellow sleeve + arm" transform="matrix(0.469846,0,0,0.457027,-3491.22,-230.491)">
                        <g transform="matrix(1.38798,0,0,1.38884,2571.05,-1085.61)">
                            <path d="M4058.25,1281.32C4080.8,1273.29 4062.46,1241.44 4062.46,1241.44C4058.85,1244.02 4040.1,1262.42 4037.86,1260.48" style="fill:rgb(225,209,38);"/>
                        </g>
                        <g transform="matrix(1.38798,0,0,1.38884,2571.05,-1085.61)">
                            <path d="M3991.2,1180.83C3994.58,1178.19 4007.12,1168.17 4002.18,1162.65C3995.55,1155.23 3984.17,1161.62 3982.37,1165.47" style="fill:rgb(225,209,38);"/>
                        </g>
                        <g transform="matrix(9.46713,0,0,9.80558,8035.65,423.825)">
                            <path d="M1.025,18.612C3.169,16.478 12.151,9.887 12.145,9.794C11.932,6.794 16.84,2.713 18.683,1.834C20.87,0.792 23.998,-3.522 25.387,-2.6C26.824,-1.645 21.209,2.566 21.973,3.515C22.875,4.636 28.763,-3.834 30.55,-2.561C32.814,-0.949 24.572,4.419 25.657,5.191C27.012,6.155 35.016,-3.791 37.225,-2.102C39.397,-0.441 27.616,7.261 28.776,8.526C29.739,9.576 40.693,-3.009 43.021,-0.305C44.916,1.897 27.837,12.789 28.989,14.055C29.866,15.018 36.296,8.42 37.593,9.855C39.58,12.054 26.834,23.211 22.168,20.76C21.898,20.618 6.811,34.502 0.281,40.434" style="fill:rgb(187,155,142);stroke:black;stroke-width:0.82px;"/>
                        </g>
                        <g transform="matrix(1.38798,0,0,1.38884,2571.05,-1085.61)">
                            <path d="M3980.17,1160.25C3980.17,1160.25 3974.33,1175.63 3952.93,1192.8C3942.79,1200.94 3936.97,1207.53 3934.81,1210.67C3926.64,1222.57 3930.82,1239.47 3950.45,1274.53C3961.31,1293.9 3987.34,1331.19 4002.64,1328.01C4014.2,1325.61 4023.53,1309.32 4030.86,1305.14C4049.16,1294.7 4060.12,1291.94 4064.55,1288.89C4067.36,1286.95 4082.12,1283.36 4074.09,1268.06C4055.23,1308.84 4016.91,1228.79 4005.43,1211.42C4003.5,1208.49 3977.29,1165.39 3980.17,1160.25Z" style="fill:rgb(255,236,26);"/>
                        </g>
                        <g transform="matrix(1.46813,0,0,1.52915,2255.3,-1267.34)">
                            <path d="M3921.04,1402.2C3925.35,1397.6 3945.18,1381.82 3966.63,1363.7C3991.55,1342.65 4016.29,1321.7 4003.33,1322.71C3991.43,1323.63 3974.8,1311.03 3960,1291.64C3942.35,1268.53 3926.5,1238.78 3933.65,1218.16C3930.68,1215.72 3926.26,1221.51 3921.04,1225.65L3921.04,1402.2Z" style="fill:rgb(255,241,229);"/>
                        </g>
                        <g transform="matrix(1.94894,0,0,1.83343,-5432.1,-1676.64)">
                            <path d="M6963.7,1324.88C6963.47,1325.08 6963.13,1325.04 6962.94,1324.8C6962.75,1324.55 6962.78,1324.19 6963.01,1323.98C6965.57,1321.54 6967.59,1318.74 6970.72,1315.33C6972.26,1313.66 6974.07,1311.85 6976.31,1309.85C6981.5,1305.34 6988.02,1302.71 6993.95,1300.43C6996.03,1299.63 6998.03,1298.87 6999.87,1298.1C7001.9,1297.24 7003.72,1296.38 7005.2,1295.27C7006.91,1293.99 7008.18,1292.48 7008.77,1290.29C7009.27,1288.39 7009.39,1286.14 7008.9,1283.26C7008.89,1283.21 7008.91,1283.16 7008.96,1283.15C7009,1283.13 7009.05,1283.16 7009.07,1283.21C7010.32,1286.09 7010.8,1288.5 7010.68,1290.63C7010.52,1293.6 7009.19,1295.92 7007.19,1297.88C7005.65,1299.4 7003.63,1300.65 7001.32,1301.75C6999.44,1302.65 6997.35,1303.42 6995.16,1304.18C6989.47,1306.17 6983.08,1308.08 6977.92,1312.06C6976.25,1313.33 6974.81,1314.52 6973.53,1315.64C6969.31,1319.36 6966.83,1322.36 6963.7,1324.88Z"/>
                        </g>
                        <g transform="matrix(1.41755,0,0,1.41755,-1724.62,-1131.66)">
                            <path d="M6951.57,1173.19C6951.65,1173.57 6951.4,1173.93 6951.03,1174C6950.65,1174.08 6950.29,1173.83 6950.22,1173.46C6949.68,1173.2 6949.69,1173.52 6949.19,1173.19C6948.95,1173.04 6948.72,1172.97 6948.53,1172.76C6947.8,1171.98 6946.94,1171.22 6945.8,1170.65C6943.22,1169.37 6939.76,1168.93 6936.88,1169.5C6935.28,1169.82 6933.84,1170.44 6933.13,1171.71C6932.23,1173.34 6932.62,1175.67 6934.3,1178.97C6938.85,1187.99 6944.85,1199.19 6951.41,1210.95C6960.29,1226.9 6970.24,1243.84 6979.42,1257.51C6982.1,1261.5 6984.74,1265.2 6987.2,1268.54C6990.22,1272.63 6992.98,1276.21 6995.57,1278.91C6998.78,1282.25 7001.39,1284.4 7003.42,1284.39C7008.31,1284.32 7011.14,1282.63 7012.61,1280.07C7014.01,1277.66 7014.2,1274.65 7014.1,1271.87C7013.91,1267.16 7012.66,1263.01 7012.58,1262.76C7012.15,1261.47 7012.85,1260.06 7014.15,1259.63C7015.44,1259.2 7016.85,1259.9 7017.28,1261.2C7017.38,1261.48 7019.14,1266.21 7019.41,1271.62C7019.61,1275.4 7019.02,1279.46 7017.08,1282.7C7014.82,1286.47 7010.74,1289.36 7003.45,1289.32C7002.03,1289.32 7000.37,1288.79 6998.54,1287.7C6992.67,1284.2 6984.04,1274.05 6974.82,1260.62C6965.42,1246.93 6955.25,1229.89 6946.3,1213.79C6939.72,1201.95 6933.83,1190.58 6929.32,1181.46C6925.13,1172.94 6927.64,1168 6931.86,1165.68C6934.26,1164.36 6937.44,1163.88 6940.61,1164.25C6945.32,1164.81 6950.39,1166.89 6951.86,1170.28C6952.1,1170.84 6952.31,1171.34 6952.27,1171.93C6952.26,1172.01 6952.28,1172.06 6952.25,1172.12C6951.93,1172.77 6951.88,1172.35 6951.58,1173C6951.55,1173.06 6951.58,1173.13 6951.57,1173.19Z"/>
                        </g>
                        <g transform="matrix(1.41755,0,0,1.41755,-1724.62,-1131.66)">
                            <path d="M6925.39,1170.19C6925.59,1169.87 6926.02,1169.77 6926.34,1169.97C6926.66,1170.17 6926.76,1170.6 6926.56,1170.92C6924.75,1174.12 6922.91,1179.68 6919.51,1185.37C6917.73,1188.35 6915.53,1191.34 6912.72,1194.08C6906.96,1199.63 6900.93,1204.91 6895.61,1209.87C6893.09,1212.21 6890.74,1214.46 6888.69,1216.68C6885.3,1220.36 6882.7,1223.86 6881.88,1227.57C6881.08,1231.24 6881.27,1235.82 6882.4,1240.96C6882.81,1242.83 6883.37,1244.76 6884.02,1246.75C6887.02,1255.93 6892.23,1266.24 6898.32,1276.49C6900.73,1280.53 6903.27,1284.57 6905.91,1288.51C6913.48,1299.76 6921.89,1310.16 6929.67,1317.82C6934.03,1322.11 6938.16,1325.55 6941.88,1327.69C6944.73,1329.34 6947.23,1330.21 6949.32,1329.97C6950.2,1329.87 6951.03,1329.65 6951.71,1329.05C6952.57,1328.17 6953.98,1328.17 6954.85,1329.03C6955.72,1329.89 6955.73,1331.3 6954.87,1332.17C6953.48,1333.75 6951.72,1334.64 6949.69,1334.94C6947.48,1335.26 6944.88,1334.71 6942.03,1333.47C6937.66,1331.56 6932.54,1327.83 6927.19,1322.74C6921.49,1317.32 6915.5,1310.35 6909.7,1302.6C6904.53,1295.68 6899.49,1288.14 6895.05,1280.47C6887.69,1267.77 6882.12,1254.69 6879.24,1243.86C6877.48,1237.23 6876.72,1231.38 6877.53,1226.72C6878.3,1222.24 6880.95,1217.73 6884.91,1213.27C6887.03,1210.88 6889.52,1208.5 6892.26,1206.14C6897.77,1201.38 6904.29,1196.67 6910.41,1191.52C6913.21,1189.19 6915.46,1186.57 6917.32,1183.94C6921.11,1178.58 6923.35,1173.21 6925.39,1170.19Z"/>
                        </g>
                        <g transform="matrix(1.41755,0,0,1.41755,-1724.62,-1131.66)">
                            <path d="M6868.29,1227.61C6868.27,1227.57 6868.19,1227.54 6867.96,1227.54C6867.94,1227.67 6867.83,1227.76 6867.7,1227.74C6867.57,1227.72 6867.48,1227.6 6867.5,1227.47C6867.28,1227.4 6867.19,1227.41 6867.17,1227.44C6867.14,1227.4 6867.11,1227.35 6867.06,1227.29C6866.98,1227.18 6867.07,1227.01 6867.08,1226.85C6867.15,1225.81 6867.56,1224.31 6868.41,1222.61C6868.76,1221.92 6869.2,1221.24 6869.74,1220.59C6870.25,1219.98 6870.85,1219.42 6871.51,1218.94C6872.32,1218.34 6873.18,1217.84 6874.09,1217.47C6876.42,1216.52 6878.75,1216.22 6880.83,1217.32C6880.95,1217.36 6881.03,1217.49 6880.99,1217.61C6880.95,1217.74 6880.82,1217.81 6880.7,1217.77C6879.03,1217.62 6877.63,1218.37 6876.24,1219.44C6875.36,1220.11 6874.65,1220.97 6873.86,1221.82C6873.34,1222.37 6872.82,1222.93 6872.31,1223.46C6871.65,1224.12 6870.99,1224.68 6870.43,1225.26C6869.68,1226.03 6869.06,1226.63 6868.67,1227.18C6868.56,1227.34 6868.5,1227.48 6868.37,1227.56C6868.34,1227.58 6868.31,1227.59 6868.29,1227.61ZM6868.29,1227.61C6868.33,1227.71 6867.84,1227.88 6868.29,1227.61ZM6867.17,1227.44C6867.35,1227.73 6867.11,1227.52 6867.17,1227.44Z"/>
                        </g>
                        <g transform="matrix(-1.41755,0,0,-1.41755,17802.3,2532.08)">
                            <path d="M6818.8,1252.46C6819.21,1252.61 6819.42,1253.06 6819.27,1253.47C6819.12,1253.88 6818.67,1254.09 6818.26,1253.95C6817.42,1253.85 6816.92,1253.4 6816.47,1252.91C6815.67,1252.02 6815.6,1250.54 6816.12,1248.47C6816.36,1247.5 6816.78,1246.42 6817.45,1245.23C6819.6,1241.4 6824.07,1236.6 6829.57,1231.01C6837.12,1223.34 6847.02,1214.37 6857.26,1205.48C6863.65,1199.94 6870.15,1194.41 6876.36,1189.31C6878.56,1187.5 6880.73,1185.76 6882.86,1184.1C6886.36,1181.35 6889.69,1178.8 6892.77,1176.49C6900.92,1170.34 6907.06,1165.87 6909.06,1163.76C6909.34,1163.42 6909.83,1163.37 6910.17,1163.65C6910.51,1163.92 6910.56,1164.42 6910.28,1164.76C6908.58,1167.18 6903.24,1172.79 6895.73,1179.97C6892.95,1182.64 6889.86,1185.49 6886.55,1188.48C6884.54,1190.29 6882.45,1192.13 6880.29,1193.99C6874.22,1199.22 6867.7,1204.68 6861.28,1210.15C6851.06,1218.86 6841.09,1227.53 6833.36,1234.87C6827.96,1239.99 6823.86,1244.57 6821.22,1247.78C6820.1,1249.14 6819.14,1250.07 6818.76,1250.98C6818.5,1251.62 6818.26,1252.11 6818.8,1252.46Z"/>
                        </g>
                    </g>
                    <g id="blue-sleeve-hnad" serif:id="blue sleeve hnad" transform="matrix(2.71244e-16,-4.36958,4.50708,2.72259e-16,281.183,261.839)">
                        <path d="M0.051,20.539C2.195,18.405 11.51,10.453 11.503,10.36C11.29,7.36 16.574,3.522 18.291,2.415C20.327,1.103 23.82,-3.69 25.387,-2.6C26.785,-1.626 21.325,2.445 21.973,3.515C22.598,4.548 28.587,-3.851 30.55,-2.561C32.993,-0.956 24.907,4.43 25.657,5.191C26.824,6.375 35.016,-3.791 37.225,-2.102C39.397,-0.441 27.616,7.261 28.776,8.526C29.739,9.576 40.693,-3.009 43.021,-0.305C44.916,1.897 27.974,12.681 28.989,14.055C29.936,15.335 36.166,8.444 37.713,10.067C39.651,12.098 26.637,22.664 22.168,20.76C21.888,20.641 6.581,39.326 0.051,45.258" style="fill:rgb(254,209,203);stroke:black;stroke-width:0.82px;"/>
                    </g>
                    <g id="Blue-sleeve" serif:id="Blue sleeve" transform="matrix(0.791108,-0.090903,0.0862575,0.710274,-9353.77,-1140.39)">
                        <g transform="matrix(0.842764,-2.29757e-17,-3.4746e-17,0.845119,1328.83,2390.99)">
                            <path d="M12732.9,1338.45C12704.8,1292.53 12666.9,1233.74 12657.6,1227.85C12654.3,1225.71 12620.4,1189.01 12619.6,1190.52C12618.9,1192.03 12610.3,1193.04 12603.8,1206.01C12594.7,1223.83 12573.6,1247.07 12557,1256.21C12547.1,1261.68 12532.3,1264.8 12530.5,1269.94C12529.9,1271.48 12538.1,1282.84 12539.3,1285.31C12544.7,1296.06 12548.6,1303.83 12554.7,1315.71" style="fill:rgb(160,238,245);"/>
                        </g>
                        <g transform="matrix(0.857179,-4.62994e-17,-2.32824e-17,0.861707,1149.48,2376.17)">
                            <path d="M12513.5,1244.53C12512.9,1250.19 12530.5,1269.97 12532.3,1269.14C12543.6,1264.01 12562,1252.63 12574.1,1242.31C12580.2,1237.17 12591.1,1224.93 12596.8,1215.48C12601.8,1207.18 12601.8,1201.43 12605.7,1199.11C12609.8,1196.67 12619,1193.45 12619.5,1190.09C12620.1,1185.09 12609.3,1176.23 12600.9,1167.82C12597.4,1164.37 12569.1,1196.32 12562.1,1201.54C12549.2,1211.24 12514.5,1234.74 12513.5,1244.53Z" style="fill:rgb(18,165,179);"/>
                        </g>
                        <g transform="matrix(-0.841702,-0.0700189,-0.0728003,0.875138,21270.2,3223.83)">
                            <path d="M10837.6,1208.34C10837.5,1208.6 10837.6,1208.93 10837.8,1209.07C10838.1,1209.21 10838.4,1209.12 10838.5,1208.86C10839.3,1207.47 10842.4,1203.64 10846.5,1198.74C10851.3,1193.02 10857.7,1185.92 10863.6,1179.2C10871.8,1169.7 10879,1161.06 10880.3,1159.08C10890,1143.91 10902.3,1129.82 10915.7,1116.49C10921.6,1110.64 10927.6,1104.94 10933.8,1099.36C10944,1090.11 10954.3,1081.13 10964.5,1072.68C10969.1,1068.91 10973.6,1065.26 10978.1,1061.65C10978.3,1061.47 10978.3,1061.14 10978.2,1060.9C10978,1060.67 10977.7,1060.62 10977.4,1060.81C10973,1064.33 10968.4,1067.94 10963.7,1071.59C10953.3,1079.79 10942.5,1088.21 10932,1097.22C10925.7,1102.68 10919.5,1108.34 10913.6,1114.19C10900,1127.6 10887.6,1142.01 10877.8,1157.39C10876.7,1159.19 10870.7,1166.39 10863.7,1174.94C10859,1180.7 10854,1187.1 10849.5,1192.72C10843.5,1200.25 10838.6,1206.46 10837.6,1208.34Z"/>
                        </g>
                        <g transform="matrix(-0.878975,-0.0731195,-0.0712884,0.856963,21679.2,3280.42)">
                            <path d="M11042.6,1160.89C11042.4,1161.04 11042.2,1161.3 11042.2,1161.59C11042.2,1161.93 11042.4,1162.13 11042.6,1162.27C11042.7,1162.33 11043,1162.55 11043.4,1162.28C11043.4,1162.26 11043.5,1162.21 11043.5,1162.14C11043.6,1162.04 11043.9,1161.8 11044.2,1161.48C11045.9,1159.89 11049.8,1156.15 11050.9,1155.3C11053.3,1153.57 11056.6,1151.23 11059.1,1148.4C11060.3,1147.08 11061.3,1145.63 11062,1144.15C11064,1140.19 11063.9,1135.94 11060,1131.93C11056.9,1128.8 11054.1,1126.14 11051.5,1123.81C11039.2,1112.75 11031.4,1108.79 11016.3,1093.89C11014.5,1092.11 11012.2,1089.42 11009.6,1086.27C11001,1075.79 10989.5,1060.2 10983.2,1053.82C10982.9,1053.51 10982.4,1053.53 10982.1,1053.85C10981.9,1054.18 10981.9,1054.7 10982.2,1055.02C10988.1,1061.72 10998.8,1077.96 11007,1088.79C11009.6,1092.2 11011.9,1095.06 11013.8,1096.99C11016.9,1100.14 11019.6,1102.83 11022.2,1105.19C11034.7,1116.6 11042.4,1120.6 11057.1,1135.48C11059.4,1137.63 11059.4,1139.93 11058.5,1142.17C11057.9,1143.36 11057.2,1144.53 11056.4,1145.68C11054.3,1148.63 11051.5,1151.39 11049.6,1153.37C11048.5,1154.34 11044.8,1158.55 11043.2,1160.26C11042.9,1160.57 11042.5,1160.77 11042.6,1160.89Z"/>
                        </g>
                        <g transform="matrix(-0.896214,-0.0745536,-0.0732893,0.881016,21871.1,3268.32)">
                            <path d="M10964,1080.32C10963.5,1080.06 10962.9,1080.3 10962.6,1080.85C10962.4,1081.39 10962.6,1082.05 10963.1,1082.3C10967.9,1084.98 10971.8,1089.35 10975.2,1094.32C10977.8,1098.02 10979.9,1102.09 10981.9,1105.97C10984.2,1110.46 10986.3,1114.71 10988,1118.2C10992.1,1126.18 10997.7,1133.23 11004.3,1139.36C11013.7,1148.01 11025,1154.85 11036.5,1160.25C11036.9,1160.48 11037.5,1160.26 11037.7,1159.76C11037.9,1159.26 11037.7,1158.67 11037.2,1158.44C11028.1,1153.58 11019.1,1147.72 11011.3,1140.8C11003.2,1133.7 10996.3,1125.49 10991.7,1115.91C10990,1112.39 10988,1108.01 10985.5,1103.59C10983.2,1099.66 10980.6,1095.74 10977.7,1092.11C10973.7,1087.13 10969.2,1082.79 10964,1080.32Z"/>
                        </g>
                        <g transform="matrix(-0.876768,-0.0729359,-0.0703789,0.846031,21653,3292.12)">
                            <path d="M11039.4,1167.06C11039.8,1166.82 11039.9,1166.29 11039.7,1165.88C11039.5,1165.46 11039.1,1165.31 11038.7,1165.54C11037.4,1166.29 11036.2,1167.27 11034.9,1168.37C11032.4,1170.63 11029.9,1173.41 11027.6,1176.66C11025.4,1179.92 11023.5,1183.56 11021.7,1187.03C11019.7,1190.97 11018.1,1194.77 11016.5,1197.66C11016.3,1198.06 11016.4,1198.6 11016.7,1198.87C11017.1,1199.13 11017.5,1199.03 11017.8,1198.63C11020.2,1194.93 11023.2,1189.75 11026.3,1184.48C11027.3,1182.93 11028.2,1181.38 11029.1,1179.83C11030.1,1178.27 11031,1176.69 11031.9,1175.23C11034.2,1171.83 11036.7,1168.91 11039.4,1167.06Z"/>
                        </g>
                    </g>
                    <g id="pink-sleeve-hand-colour-block" serif:id="pink sleeve hand colour block" transform="matrix(-4.4481,-5.37364e-16,5.56343e-16,-4.48141,587.458,255.317)">
                        <path d="M7.784,13.359L11.503,10.36C11.29,7.36 17.619,2.507 18.761,1.567C19.733,0.324 23.736,-4.078 25.387,-2.6C26.752,-1.377 20.83,2.464 21.973,3.515C22.483,3.984 23.814,2.166 25.519,0.447C27.356,-1.405 29.6,-3.187 30.55,-2.561C32.727,-1.126 24.44,4.207 25.657,5.191C26.95,6.236 35.016,-3.791 37.225,-2.102C39.397,-0.441 27.616,7.261 28.776,8.526C29.739,9.576 40.693,-3.009 43.021,-0.305C44.916,1.897 28.192,12.545 28.989,14.055C29.608,15.227 35.756,8.513 37.804,10.252C40.231,12.313 26.637,22.664 22.168,20.76L16.984,25.333C16.984,25.333 12.951,21.662 11.418,19.666C9.94,17.742 7.784,13.359 7.784,13.359Z" style="fill:rgb(80,55,26);"/>
                    </g>
                    <g id="pink-sleeve-cuff-outline" serif:id="pink sleeve cuff outline" transform="matrix(0.781223,-0.214743,0.25105,0.864145,-7833.59,1059.9)">
                        <path d="M10192.6,1478.87C10192.6,1479.22 10192.3,1479.51 10191.9,1479.52C10191.5,1479.54 10191.2,1479.27 10191.2,1478.92C10190.4,1473.99 10190.9,1470.68 10192,1468.61C10193.2,1466.49 10195.1,1465.56 10197.2,1465.34C10199.7,1465.07 10202.8,1466.14 10205.9,1468.22C10207.9,1469.6 10209.9,1471.48 10211.8,1473.57C10215.3,1477.67 10219.5,1484.43 10223.5,1492.42C10231,1507.31 10238,1526.44 10239.5,1539.9C10240.5,1549.25 10238.5,1555.95 10233.1,1557.39C10230,1558.22 10225.5,1557.37 10219.3,1553.94C10218.8,1553.66 10218.6,1553.04 10219,1552.57C10219.3,1552.1 10220,1551.95 10220.5,1552.24C10225.8,1555.04 10229.7,1555.93 10232.3,1555.15C10234.4,1554.55 10235.5,1552.88 10236.1,1550.53C10236.9,1547.83 10236.8,1544.29 10236.3,1540.21C10234.7,1528.93 10229,1513.67 10222.6,1500.44C10217.6,1490.16 10212.2,1481.1 10207.9,1476.18C10206,1473.94 10203.9,1472.02 10201.8,1470.68C10200.2,1469.66 10198.8,1468.91 10197.4,1468.92C10196.2,1468.93 10195.2,1469.62 10194.4,1471.12C10193.5,1472.86 10192.8,1475.35 10192.6,1478.87Z"/>
                    </g>
                    <g id="Pink-sleeve-hand" serif:id="Pink sleeve hand" transform="matrix(-4.4481,-5.37364e-16,5.56343e-16,-4.48141,587.458,255.317)">
                        <path d="M7.991,12.976L11.503,10.36C11.29,7.36 17.619,2.507 18.761,1.567C19.733,0.324 23.736,-4.078 25.387,-2.6C26.752,-1.377 20.83,2.464 21.973,3.515C22.483,3.984 23.814,2.166 25.519,0.447C27.356,-1.405 29.6,-3.187 30.55,-2.561C32.727,-1.126 24.44,4.207 25.657,5.191C26.95,6.236 35.016,-3.791 37.225,-2.102C39.397,-0.441 27.616,7.261 28.776,8.526C29.739,9.576 40.693,-3.009 43.021,-0.305C44.916,1.897 28.192,12.545 28.989,14.055C29.608,15.227 35.756,8.513 37.804,10.252C40.231,12.313 26.637,22.664 22.168,20.76L17.084,25.237" style="fill:none;stroke:black;stroke-width:0.82px;"/>
                    </g>
                </g>
            </g>
        </g>
    </g>
</svg>
