<svg xmlns="http://www.w3.org/2000/svg" xmlns:lucid="lucid" xmlns:xlink="http://www.w3.org/1999/xlink" viewBox="0 0 1760 1802"><g lucid:page-tab-id="0eqBfotfVGlV"><path fill="#fff" stroke="#fcce14" stroke-width="4" d="M956.03 356.7a10.67 10.67 0 0 1 12.8 0l67.2 50.38a6 6 0 0 1 0 9.6l-67.2 50.4a10.67 10.67 0 0 1-12.8 0l-67.2-50.4a6 6 0 0 1 0-9.6z"/><use xlink:href="#a" transform="translate(941.516 394.92)"/><use xlink:href="#b" transform="translate(918.401 416.253)"/><use xlink:href="#c" transform="translate(939.047 437.587)"/><path fill="#cc4e00" d="M1196.4 566.84a10.1 10.1 0 0 1 12.56 0l67.95 53.8a6.33 6.33 0 0 1 0 9.93l-67.94 53.8a10.1 10.1 0 0 1-12.55 0l-67.94-53.8a6.33 6.33 0 0 1 0-9.93z"/><use xlink:href="#d" transform="translate(1181.777 598.846)"/><use xlink:href="#e" transform="translate(1161.555 620.179)"/><use xlink:href="#f" transform="translate(1151.283 641.512)"/><use xlink:href="#g" transform="translate(1207.332 641.512)"/><path fill="#008573" d="M731.44 545.4a10 10 0 0 1 12.5 0l74.52 59.64a6.4 6.4 0 0 1 0 10l-74.53 59.64a10 10 0 0 1-12.5 0l-74.52-59.64a6.4 6.4 0 0 1 0-10z"/><use xlink:href="#h" transform="translate(723.67 591.064)"/><use xlink:href="#i" transform="translate(686.214 612.398)"/><use xlink:href="#j" transform="translate(705.478 633.73)"/><path fill="#008a0e" stroke="#008a0e" stroke-width=".05" d="M851.85 525.56h-114v-.7l-.06-.1-1.03-.43.2-.5.67-.27h114.2zm111.58-12.96-.16 2-.48 1.98-.8 1.9-1.05 1.73-1.33 1.56-1.55 1.32-1.74 1.07-1.88.78-2 .48-1.98.16h-67.5v-2h67.42l1.75-.14 1.68-.4 1.6-.66 1.46-.9 1.3-1.12 1.12-1.3.9-1.5.67-1.58.4-1.68.13-1.76v-40.3h2z"/><path fill="#008a0e" d="m962.43 471.22 1-.06v1.1h-2v-1.1z"/><path fill="#008a0e" stroke="#008a0e" stroke-width=".05" d="m962.43 471.2 1.02-.07v1.14h-2.05v-1.14zm-.98 1.02h1.95v-1.04l-.97.07-.98-.06z"/><path fill="#008a0e" d="m737.7 539.98-4.65-14.27h9.27z"/><path fill="#008a0e" stroke="#008a0e" stroke-width=".05" d="m737.7 543.2-6.02-18.5h12.02zm-3.27-16.5 3.26 10.04 3.25-10.03z"/><use xlink:href="#k" transform="translate(851.853 527.674)"/><path fill="#e81313" stroke="#e81313" stroke-width=".05" d="m1190.72 516.94 2 .16 1.98.47 1.9.78 1.73 1.07 1.55 1.33 1.32 1.55 1.07 1.74.78 1.88.48 2 .15 1.98v16.25h-2V530l-.13-1.76-.4-1.68-.67-1.6-.9-1.46-1.12-1.32-1.3-1.12-1.48-.9-1.6-.66-1.68-.4-1.76-.14h-96.44v-2zm-227.15-9.28.4 1.68.66 1.6.9 1.46 1.12 1.32 1.3 1.12 1.48.9 1.6.66 1.68.4 1.77.14h96.44v2h-96.5l-2-.16-2-.47-1.88-.77-1.74-1.07-1.55-1.33-1.32-1.55-1.06-1.74-.78-1.88-.48-2-.15-1.98v-33.76h2v33.68z"/><path fill="#e81313" d="m962.43 471.22 1-.06v1.1h-2v-1.1z"/><path fill="#e81313" stroke="#e81313" stroke-width=".05" d="m962.43 471.2 1.02-.07v1.14h-2.05v-1.14zm-.98 1.02h1.95v-1.04l-.97.07-.98-.06z"/><path fill="#e81313" d="m1202.68 561.42-4.63-14.26h9.27z"/><path fill="#e81313" stroke="#e81313" stroke-width=".05" d="m1202.68 564.66-6-18.5h12zm-3.26-16.5 3.26 10.02 3.26-10.02z"/><use xlink:href="#l" transform="translate(1070.915 521.05)"/><path fill="#1071e5" d="M1010.43 220c17.67 0 32 17.9 32 40s-14.33 40-32 40h-96c-17.68 0-32-17.9-32-40s14.32-40 32-40z"/><use xlink:href="#m" transform="translate(908.48 244.441)"/><use xlink:href="#n" transform="translate(950.85 244.441)"/><use xlink:href="#o" transform="translate(932.16 265.774)"/><use xlink:href="#p" transform="translate(952.85 265.774)"/><use xlink:href="#q" transform="translate(923.74 287.108)"/><path fill="none" stroke="#333" d="M962.43 300.5v35.66"/><path fill="#333" stroke="#333" stroke-width=".05" d="M962.93 300.5h-1v-.5h1z"/><path fill="#333" stroke="#333" d="m962.43 350.93-4.64-14.27h9.26z"/><path fill="none" d="M562.48 108a8 8 0 0 1 8-8h836.75a8 8 0 0 1 8 8v25.16a8 8 0 0 1-8 8H570.48a8 8 0 0 1-8-8z"/><use xlink:href="#r" transform="translate(828.583 129.783)"/><use xlink:href="#s" transform="translate(934.856 129.783)"/><use xlink:href="#t" transform="translate(1054.094 129.783)"/><path fill="none" stroke="#a9afb8" stroke-width="2" d="M794.08 139.8h399.94m-399.92 0h-1.02m400.92 0h1.02"/><path fill="#fff" stroke="#3a414a" d="M955.97 750.72a10.94 10.94 0 0 1 12.9 0l106.86 78.16a5.85 5.85 0 0 1 0 9.44l-106.85 78.16a10.94 10.94 0 0 1-12.9 0L849.1 838.32a5.85 5.85 0 0 1 0-9.44z"/><use xlink:href="#u" transform="translate(896.098 818.122)"/><use xlink:href="#v" transform="translate(929.363 818.122)"/><use xlink:href="#w" transform="translate(1011.714 818.122)"/><use xlink:href="#x" transform="translate(889.48 837.056)"/><use xlink:href="#y" transform="translate(959.559 837.056)"/><use xlink:href="#z" transform="translate(977.09 837.056)"/><use xlink:href="#A" transform="translate(1005.972 837.056)"/><use xlink:href="#B" transform="translate(912.358 855.989)"/><path fill="#fff" stroke="#3a414a" d="M400 754a8 8 0 0 1 8-8h144a8 8 0 0 1 8 8v104a8 8 0 0 1-8 8H408a8 8 0 0 1-8-8z"/><use xlink:href="#C" transform="translate(431.075 799.4)"/><use xlink:href="#D" transform="translate(468.025 799.4)"/><use xlink:href="#E" transform="translate(435.525 821)"/><path fill="#008a0e" stroke="#008a0e" stroke-width=".05" d="M595.5 712.2H492.05l-1.76.12-1.68.4-1.6.67-1.46.9-1.32 1.1-1.12 1.32-.9 1.47-.66 1.6-.4 1.67-.14 1.75v3.8h-2v-3.85l.16-2 .47-1.98.78-1.9 1.08-1.73 1.32-1.55 1.56-1.33 1.74-1.07 1.88-.78 2-.48 1.98-.15H595.5zm143.2-12.98-.17 2-.47 1.98-.78 1.9-1.07 1.73-1.32 1.55-1.55 1.33-1.74 1.07-1.9.78-1.98.48-2 .16H622.2v-2h103.47l1.76-.15 1.7-.4 1.58-.67 1.47-.9 1.32-1.12 1.12-1.3.9-1.48.65-1.6.4-1.67.14-1.75v-21.28h2z"/><path fill="#008a0e" d="m737.7 676.87 1-.07v1.1h-2v-1.1z"/><path fill="#008a0e" stroke="#008a0e" stroke-width=".05" d="m737.7 676.85 1-.07v1.14h-2.04v-1.14zm-1 1.02h1.96v-1.04l-.97.07-1-.07z"/><path fill="#008a0e" d="M480 742.26 475.37 728h9.26z"/><path fill="#008a0e" stroke="#008a0e" stroke-width=".05" d="m480 745.5-6-18.5h12zm-3.26-16.5 3.26 10.03 3.26-10.03z"/><use xlink:href="#F" transform="translate(595.516 713.852)"/><path fill="#e81313" stroke="#e81313" stroke-width=".05" d="m950.47 711.5 2 .15 1.98.48 1.88.78 1.74 1.07 1.55 1.33 1.33 1.55 1.06 1.74.8 1.87.47 2 .16 1.98v5.16h-2v-5.07l-.14-1.76-.4-1.68-.67-1.6-.9-1.47-1.13-1.3-1.3-1.13-1.48-.9-1.6-.67-1.67-.4-1.76-.14h-54.72v-2zm-211.64-9.3.4 1.7.66 1.58.9 1.48 1.1 1.3 1.33 1.13 1.47.9 1.6.65 1.67.4 1.76.14h126v2H749.64l-2-.16-1.98-.48-1.88-.78-1.75-1.07-1.56-1.3-1.33-1.57-1.07-1.74-.78-1.9-.47-1.97-.16-2v-22.66h2v22.58z"/><path fill="#e81313" d="m737.7 676.87 1-.07v1.1h-2v-1.1z"/><path fill="#e81313" stroke="#e81313" stroke-width=".05" d="m737.7 676.85 1-.07v1.14h-2.04v-1.14zm-1 1.02h1.96v-1.04l-.97.07-1-.07z"/><path fill="#e81313" d="m962.43 744.88-4.64-14.27h9.26z"/><path fill="#e81313" stroke="#e81313" stroke-width=".05" d="m962.43 748.1-6-18.5h12zm-3.26-16.5 3.26 10.04 3.26-10.03z"/><use xlink:href="#G" transform="translate(875.723 715.158)"/><path fill="#fff" stroke="#3a414a" d="M400 935.2a8 8 0 0 1 8-8h144a8 8 0 0 1 8 8v104a8 8 0 0 1-8 8H408a8 8 0 0 1-8-8z"/><use xlink:href="#H" transform="translate(445.025 980.6)"/><use xlink:href="#I" transform="translate(425.225 1002.2)"/><path fill="#008a0e" stroke="#008a0e" stroke-width=".05" d="M782.2 988.2H579v-2h203.2zm181.23-12.96-.16 2-.48 1.98-.8 1.88-1.05 1.74-1.33 1.55-1.55 1.32-1.74 1.07-1.88.77-2 .47-1.98.16H808.85v-2H950.4l1.75-.14 1.68-.4 1.6-.66 1.46-.9 1.3-1.12 1.12-1.32.9-1.47.67-1.6.4-1.68.13-1.76V920.1h2z"/><path fill="#008a0e" d="m962.43 919.1 1-.08v1.1h-2V919z"/><path fill="#008a0e" stroke="#008a0e" stroke-width=".05" d="m962.43 919.06 1.02-.06v1.14h-2.05V919zm-.98 1.03h1.95v-1.05l-.97.06-.98-.05z"/><path fill="#008a0e" d="m578 991.84-14.26-4.64 14.26-4.63z"/><path fill="#008a0e" stroke="#008a0e" stroke-width=".05" d="m579 993.2-18.5-6 18.5-6zm-12.03-6 10.03 3.26v-6.52z"/><use xlink:href="#F" transform="translate(782.192 989.867)"/><path fill="#e81313" stroke="#e81313" stroke-width=".05" d="m963.43 975.16.14 1.76.4 1.68.66 1.6.9 1.46 1.12 1.32 1.3 1.12 1.48.9 1.6.66 1.68.4 1.77.14h20.3v2H974.4l-2-.16-2-.47-1.88-.78-1.74-1.08-1.55-1.33-1.32-1.56-1.06-1.74-.78-1.88-.48-2-.15-1.98V920.1h2zm104.48 11.04v2h-53.18v-2z"/><path fill="#e81313" d="m962.43 919.1 1-.08v1.1h-2V919z"/><path fill="#e81313" stroke="#e81313" stroke-width=".05" d="m962.43 919.06 1.02-.06v1.14h-2.05V919zm-.98 1.03h1.95v-1.05l-.97.06-.98-.05z"/><path fill="#e81313" d="m1083.18 987.2-14.27 4.63v-9.26z"/><path fill="#e81313" stroke="#e81313" stroke-width=".05" d="m1086.4 987.2-18.5 6v-12zm-16.5 3.26 10.04-3.26-10.03-3.26z"/><use xlink:href="#G" transform="translate(994.763 989.867)"/><path fill="#fff" stroke="#3a414a" d="M1082.2 929.2a8 8 0 0 1 8-8h224a8 8 0 0 1 8 8v116a8 8 0 0 1-8 8h-224a8 8 0 0 1-8-8z"/><use xlink:href="#J" transform="translate(1108.313 981.35)"/><use xlink:href="#K" transform="translate(1155.213 981.35)"/><use xlink:href="#L" transform="translate(1175.213 981.35)"/><use xlink:href="#M" transform="translate(1236.113 981.35)"/><use xlink:href="#N" transform="translate(1181.238 1002.95)"/><path fill="#008a0e" stroke="#008a0e" stroke-width=".05" d="M1039.73 718.33h-65.26l-1.76.14-1.67.4-1.6.66-1.47.9-1.3 1.13-1.13 1.3-.9 1.48-.66 1.6-.4 1.67-.14 1.77v.24h-2v-.3l.15-2 .48-2 .78-1.87 1.07-1.74 1.33-1.56 1.55-1.33 1.74-1.05 1.9-.78 1.97-.48 2-.17h65.33zm163.95-12.96-.15 2-.48 1.98-.78 1.88-1.07 1.74-1.32 1.56-1.55 1.32-1.74 1.07-1.9.78-1.98.47-2 .16H1066.4v-2h124.24l1.76-.14 1.68-.4 1.6-.67 1.47-.9 1.3-1.12 1.13-1.3.9-1.48.66-1.6.4-1.67.14-1.76v-17.75h2z"/><path fill="#008a0e" d="m1202.68 686.55 1-.07v1.1h-2v-1.1z"/><path fill="#008a0e" stroke="#008a0e" stroke-width=".05" d="m1202.68 686.52 1.03-.06v1.14h-2.04v-1.14zm-.97 1.03h1.96v-1.04l-.98.08-.97-.07z"/><path fill="#008a0e" d="m962.43 744.88-4.64-14.27h9.26z"/><path fill="#008a0e" stroke="#008a0e" stroke-width=".05" d="m962.43 748.1-6-18.5h12zm-3.26-16.5 3.26 10.04 3.26-10.03z"/><use xlink:href="#F" transform="translate(1039.737 719.998)"/><path fill="#e81313" stroke="#e81313" stroke-width=".05" d="M1203.2 904.25h-2v-91.6h2zm.48-107.6h-2v-109.1h2z"/><path fill="#e81313" d="m1202.68 686.55 1-.07v1.1h-2v-1.1z"/><path fill="#e81313" stroke="#e81313" stroke-width=".05" d="m1202.68 686.52 1.03-.06v1.14h-2.04v-1.14zm-.97 1.03h1.96v-1.04l-.98.08-.97-.07z"/><path fill="#e81313" d="m1202.2 919.52-4.65-14.27h9.27z"/><path fill="#e81313" stroke="#e81313" stroke-width=".05" d="m1202.2 922.75-6.02-18.5h12.02zm-3.27-16.5 3.26 10.03 3.25-10.03z"/><use xlink:href="#G" transform="translate(1192.46 807.319)"/><path fill="#fff" stroke="#3a414a" d="M1401.3 1508a8 8 0 0 1 8-8h144a8 8 0 0 1 8 8v104a8 8 0 0 1-8 8h-144a8 8 0 0 1-8-8z"/><use xlink:href="#O" transform="translate(1440.36 1553.4)"/><use xlink:href="#P" transform="translate(1443.86 1575)"/><path fill="#fff" stroke="#3a414a" d="M1474.47 1335.5a13.15 13.15 0 0 1 13.67 0l66.33 40.34a4.87 4.87 0 0 1 0 8.32l-66.33 40.35a13.15 13.15 0 0 1-13.67 0l-66.33-40.34a4.87 4.87 0 0 1 0-8.32z"/><use xlink:href="#u" transform="translate(1454.624 1365.206)"/><use xlink:href="#Q" transform="translate(1487.889 1365.206)"/><use xlink:href="#R" transform="translate(1435.822 1384.139)"/><use xlink:href="#S" transform="translate(1478.73 1384.139)"/><use xlink:href="#T" transform="translate(1490.957 1384.139)"/><use xlink:href="#U" transform="translate(1451.118 1403.072)"/><path fill="#fff" stroke="#3a414a" d="M1123.18 1508a8 8 0 0 1 8-8h144a8 8 0 0 1 8 8v104a8 8 0 0 1-8 8h-144a8 8 0 0 1-8-8z"/><use xlink:href="#V" transform="translate(1175.279 1553.4)"/><use xlink:href="#E" transform="translate(1158.704 1575)"/><path fill="#fff" stroke="#3a414a" d="M1195.8 1132.8a10.67 10.67 0 0 1 12.8 0l67.2 50.4a6 6 0 0 1 0 9.6l-67.2 50.4a10.67 10.67 0 0 1-12.8 0l-67.2-50.4a6 6 0 0 1 0-9.6z"/><use xlink:href="#W" transform="translate(1163.23 1173.122)"/><use xlink:href="#X" transform="translate(1216.656 1173.122)"/><use xlink:href="#Y" transform="translate(1146.576 1192.056)"/><use xlink:href="#Z" transform="translate(1168.49 1192.056)"/><use xlink:href="#aa" transform="translate(1185.1 1192.056)"/><use xlink:href="#ab" transform="translate(1211.397 1192.056)"/><use xlink:href="#ac" transform="translate(1172.85 1210.989)"/><path fill="none" stroke="#3a414a" d="M1202.2 1054.2v59.58"/><path fill="#3a414a" stroke="#3a414a" stroke-width=".05" d="M1202.7 1054.2h-1v-.5h1z"/><path fill="#3a414a" stroke="#3a414a" d="m1202.2 1128.55-4.65-14.27h9.27z"/><path fill="#e81313" stroke="#e81313" stroke-width=".05" d="m1471.34 1187.16 2 .47 1.87.78 1.75 1.08 1.55 1.33 1.33 1.56 1.07 1.74.78 1.88.47 2 .16 1.98v114.6h-2v-114.52l-.13-1.76-.4-1.68-.66-1.6-.9-1.46-1.1-1.32-1.33-1.12-1.47-.9-1.6-.66-1.67-.4-1.76-.14h-6.75v-2h6.83zM1279.7 1189v-2h162.86v2z"/><path fill="#e81313" d="M1279.72 1189h-1.12l.1-1-.1-1h1.12z"/><path fill="#e81313" stroke="#e81313" stroke-width=".05" d="M1279.74 1189.03h-1.17l.1-1.03-.1-1.03h1.17zm-1.12-2 .1.97-.1.97h1.07v-1.94z"/><path fill="#e81313" d="m1481.3 1329.84-4.63-14.27h9.27z"/><path fill="#e81313" stroke="#e81313" stroke-width=".05" d="m1481.3 1333.08-6-18.5h12.02zm-3.25-16.5 3.26 10.02 3.27-10.03z"/><use xlink:href="#G" transform="translate(1442.56 1190.667)"/><path fill="#e81313" stroke="#e81313" stroke-width=".05" d="M1482.3 1481h-2v-14.18h2zm0-30.18h-2v-22.9h2z"/><path fill="#e81313" d="m1481.3 1426.92 1-.05v1.08h-2v-1.08z"/><path fill="#e81313" stroke="#e81313" stroke-width=".05" d="m1481.3 1426.9 1.04-.06v1.14h-2.05v-1.14zm-.96 1.03h1.95v-1.03l-1 .05-.96-.05z"/><path fill="#e81313" d="m1481.3 1496.26-4.63-14.26h9.27z"/><path fill="#e81313" stroke="#e81313" stroke-width=".05" d="m1481.3 1499.5-6-18.5h12.02zm-3.25-16.5 3.26 10.03 3.27-10.03z"/><use xlink:href="#G" transform="translate(1471.333 1461.486)"/><path fill="#fff" stroke="#3a414a" d="M180 935.2a8 8 0 0 1 8-8h144a8 8 0 0 1 8 8v104a8 8 0 0 1-8 8H188a8 8 0 0 1-8-8z"/><use xlink:href="#ad" transform="translate(199.125 980.6)"/><use xlink:href="#ae" transform="translate(241.075 980.6)"/><use xlink:href="#af" transform="translate(270.875 980.6)"/><use xlink:href="#ag" transform="translate(295.875 980.6)"/><use xlink:href="#ah" transform="translate(241.05 1002.2)"/><path fill="none" stroke="#3a414a" d="M399 987.2h-42.12"/><path fill="#3a414a" stroke="#3a414a" stroke-width=".05" d="M399.5 987.7h-.5v-1h.5z"/><path fill="#3a414a" stroke="#3a414a" d="m342.12 987.2 14.26-4.63v9.26z"/><path fill="#fff" stroke="#3a414a" d="M1123.18 1328a8 8 0 0 1 8-8h144a8 8 0 0 1 8 8v104a8 8 0 0 1-8 8h-144a8 8 0 0 1-8-8z"/><use xlink:href="#H" transform="translate(1168.204 1373.4)"/><use xlink:href="#I" transform="translate(1148.404 1395)"/><path fill="#008a0e" stroke="#008a0e" stroke-width=".05" d="M1204.18 1301h-2v-10.33h2zm-1-26.33h-2v-27.84h2z"/><path fill="#008a0e" d="m1202.2 1245.83 1-.06v1.1h-2v-1.1z"/><path fill="#008a0e" stroke="#008a0e" stroke-width=".05" d="m1202.2 1245.8 1-.06v1.14h-2.04v-1.14zm-1 1.04h1.96v-1.04l-.97.06-1-.06z"/><path fill="#008a0e" d="m1203.18 1316.26-4.64-14.26h9.27z"/><path fill="#008a0e" stroke="#008a0e" stroke-width=".05" d="m1203.18 1319.5-6-18.5h12zm-3.26-16.5 3.26 10.03 3.26-10.03z"/><use xlink:href="#F" transform="translate(1189.355 1285.334)"/><path fill="none" stroke="#3a414a" d="M1203.18 1441v42.12"/><path fill="#3a414a" stroke="#3a414a" stroke-width=".05" d="M1203.68 1441h-1v-.5h1z"/><path fill="#3a414a" stroke="#3a414a" d="m1203.18 1497.88-4.64-14.26h9.27z"/><path fill="#008a0e" stroke="#008a0e" stroke-width=".05" d="M1331.16 1381h-28.98v-2h28.98zm73.14 0h-46.47v-2h46.48z"/><path fill="#008a0e" d="m1405.3 1380 .1 1h-1.12v-2h1.13z"/><path fill="#008a0e" stroke="#008a0e" stroke-width=".05" d="m1405.33 1380 .1 1.03h-1.18v-2.06h1.18zm-1.03-.97v1.94h1.08l-.1-.97.1-.97z"/><path fill="#008a0e" d="m1301.18 1384.63-14.26-4.63 14.26-4.63z"/><path fill="#008a0e" stroke="#008a0e" stroke-width=".05" d="m1302.18 1386-18.5-6 18.5-6zm-12.03-6 10.03 3.26v-6.52z"/><use xlink:href="#F" transform="translate(1331.163 1382.667)"/><defs><path id="ai" fill="#333" d="M30-248c118-7 216 8 213 122C240-48 200 0 122 0H30v-248zM63-27c89 8 146-16 146-99s-60-101-146-95v194"/><path id="aj" fill="#333" d="M100-194c62-1 85 37 85 99 1 63-27 99-86 99S16-35 15-95c0-66 28-99 85-99zM99-20c44 1 53-31 53-75 0-43-8-75-51-75s-53 32-53 75 10 74 51 75"/><path id="ak" fill="#333" d="M100-194c63 0 86 42 84 106H49c0 40 14 67 53 68 26 1 43-12 49-29l28 8c-11 28-37 45-77 45C44 4 14-33 15-96c1-61 26-98 85-98zm52 81c6-60-76-77-97-28-3 7-6 17-6 28h103"/><path id="al" fill="#333" d="M135-143c-3-34-86-38-87 0 15 53 115 12 119 90S17 21 10-45l28-5c4 36 97 45 98 0-10-56-113-15-118-90-4-57 82-63 122-42 12 7 21 19 24 35"/><path id="am" fill="#333" d="M96-169c-40 0-48 33-48 73s9 75 48 75c24 0 41-14 43-38l32 2c-6 37-31 61-74 61-59 0-76-41-82-99-10-93 101-131 147-64 4 7 5 14 7 22l-32 3c-4-21-16-35-41-35"/><path id="an" fill="#333" d="M210-169c-67 3-38 105-44 169h-31v-121c0-29-5-50-35-48C34-165 62-65 56 0H25l-1-190h30c1 10-1 24 2 32 10-44 99-50 107 0 11-21 27-35 58-36 85-2 47 119 55 194h-31v-121c0-29-5-49-35-48"/><path id="ao" fill="#333" d="M115-194c55 1 70 41 70 98S169 2 115 4C84 4 66-9 55-30l1 105H24l-1-265h31l2 30c10-21 28-34 59-34zm-8 174c40 0 45-34 45-75s-6-73-45-74c-42 0-51 32-51 76 0 43 10 73 51 73"/><path id="ap" fill="#333" d="M117-194c89-4 53 116 60 194h-32v-121c0-31-8-49-39-48C34-167 62-67 57 0H25l-1-190h30c1 10-1 24 2 32 11-22 29-35 61-36"/><path id="aq" fill="#333" d="M59-47c-2 24 18 29 38 22v24C64 9 27 4 27-40v-127H5v-23h24l9-43h21v43h35v23H59v120"/><path id="ar" fill="#333" d="M141 0 90-78 38 0H4l68-98-65-92h35l48 74 47-74h35l-64 92 68 98h-35"/><path id="as" fill="#333" d="M24-231v-30h32v30H24zM24 0v-190h32V0H24"/><path id="at" fill="#333" d="M103-251c84 0 111 97 45 133-19 10-37 24-39 52H78c0-63 77-55 77-114 0-30-21-42-52-43-32 0-53 17-56 46l-32-2c7-45 34-72 88-72zM77 0v-35h34V0H77"/><path id="au" fill="#fff" d="M30-248c118-7 216 8 213 122C240-48 200 0 122 0H30v-248zM63-27c89 8 146-16 146-99s-60-101-146-95v194"/><path id="av" fill="#fff" d="M100-194c62-1 85 37 85 99 1 63-27 99-86 99S16-35 15-95c0-66 28-99 85-99zM99-20c44 1 53-31 53-75 0-43-8-75-51-75s-53 32-53 75 10 74 51 75"/><path id="aw" fill="#fff" d="M100-194c63 0 86 42 84 106H49c0 40 14 67 53 68 26 1 43-12 49-29l28 8c-11 28-37 45-77 45C44 4 14-33 15-96c1-61 26-98 85-98zm52 81c6-60-76-77-97-28-3 7-6 17-6 28h103"/><path id="ax" fill="#fff" d="M135-143c-3-34-86-38-87 0 15 53 115 12 119 90S17 21 10-45l28-5c4 36 97 45 98 0-10-56-113-15-118-90-4-57 82-63 122-42 12 7 21 19 24 35"/><path id="ay" fill="#fff" d="M210-169c-67 3-38 105-44 169h-31v-121c0-29-5-50-35-48C34-165 62-65 56 0H25l-1-190h30c1 10-1 24 2 32 10-44 99-50 107 0 11-21 27-35 58-36 85-2 47 119 55 194h-31v-121c0-29-5-49-35-48"/><path id="az" fill="#fff" d="M59-47c-2 24 18 29 38 22v24C64 9 27 4 27-40v-127H5v-23h24l9-43h21v43h35v23H59v120"/><path id="aA" fill="#fff" d="M106-169C34-169 62-67 57 0H25v-261h32l-1 103c12-21 28-36 61-36 89 0 53 116 60 194h-32v-121c2-32-8-49-39-48"/><path id="aB" fill="#fff" d="M24-231v-30h32v30H24zM24 0v-190h32V0H24"/><path id="aC" fill="#fff" d="M117-194c89-4 53 116 60 194h-32v-121c0-31-8-49-39-48C34-167 62-67 57 0H25l-1-190h30c1 10-1 24 2 32 11-22 29-35 61-36"/><path id="aD" fill="#fff" d="M177-190C167-65 218 103 67 71c-23-6-38-20-44-43l32-5c15 47 100 32 89-28v-30C133-14 115 1 83 1 29 1 15-40 15-95c0-56 16-97 71-98 29-1 48 16 59 35 1-10 0-23 2-32h30zM94-22c36 0 50-32 50-73 0-42-14-75-50-75-39 0-46 34-46 75s6 73 46 73"/><path id="aE" fill="#fff" d="M24 0v-261h32V0H24"/><path id="aF" fill="#fff" d="M141-36C126-15 110 5 73 4 37 3 15-17 15-53c-1-64 63-63 125-63 3-35-9-54-41-54-24 1-41 7-42 31l-33-3c5-37 33-52 76-52 45 0 72 20 72 64v82c-1 20 7 32 28 27v20c-31 9-61-2-59-35zM48-53c0 20 12 33 32 33 41-3 63-29 60-74-43 2-92-5-92 41"/><path id="aG" fill="#fff" d="M114-163C36-179 61-72 57 0H25l-1-190h30c1 12-1 29 2 39 6-27 23-49 58-41v29"/><path id="aH" fill="#fff" d="M141 0 90-78 38 0H4l68-98-65-92h35l48 74 47-74h35l-64 92 68 98h-35"/><path id="aI" fill="#fff" d="M103-251c84 0 111 97 45 133-19 10-37 24-39 52H78c0-63 77-55 77-114 0-30-21-42-52-43-32 0-53 17-56 46l-32-2c7-45 34-72 88-72zM77 0v-35h34V0H77"/><path id="aJ" fill="#fff" d="m205 0-28-72H64L36 0H1l101-248h38L239 0h-34zm-38-99-47-123c-12 45-31 82-46 123h93"/><path id="aK" fill="#fff" d="M145-31C134-9 116 4 85 4 32 4 16-35 15-94c0-59 17-99 70-100 32-1 48 14 60 33 0-11-1-24 2-32h30l-1 268h-32zM93-21c41 0 51-33 51-76s-8-73-50-73c-40 0-46 35-46 75s5 74 45 74"/><path id="aL" fill="#fff" d="M84 4C-5 8 30-112 23-190h32v120c0 31 7 50 39 49 72-2 45-101 50-169h31l1 190h-30c-1-10 1-25-2-33-11 22-28 36-60 37"/><path id="aM" fill="#fff" d="M101-234c-31-9-42 10-38 44h38v23H63V0H32v-167H5v-23h27c-7-52 17-82 69-68v24"/><path id="aN" fill="#fff" d="M85-194c31 0 48 13 60 33l-1-100h32l1 261h-30c-2-10 0-23-3-31C134-8 116 4 85 4 32 4 16-35 15-94c0-66 23-100 70-100zm9 24c-40 0-46 34-46 75 0 40 6 74 45 74 42 0 51-32 51-76 0-42-9-74-50-73"/><path id="aO" fill="#333" d="M146-102V0H94v-102L6-248h54l60 105 60-105h54"/><path id="aP" fill="#333" d="M24 0v-248h195v40H76v63h132v40H76v65h150V0H24"/><path id="aQ" fill="#333" d="M169-182c-1-43-94-46-97-3 18 66 151 10 154 114 3 95-165 93-204 36-6-8-10-19-12-30l50-8c3 46 112 56 116 5-17-69-150-10-154-114-4-87 153-88 188-35 5 8 8 18 10 28"/><path id="aR" fill="#333" d="M175 0 67-191c6 58 2 128 3 191H24v-248h59L193-55c-6-58-2-129-3-193h46V0h-61"/><path id="aS" fill="#333" d="M140-251c80 0 125 45 125 126S219 4 139 4C58 4 15-44 15-125s44-126 125-126zm-1 214c52 0 73-35 73-88 0-50-21-86-72-86-52 0-73 35-73 86s22 88 72 88"/><path id="aT" fill="#fff" d="M232-93c-1 65-40 97-104 97C67 4 28-28 28-90v-158h33c8 89-33 224 67 224 102 0 64-133 71-224h33v155"/><path id="aU" fill="#fff" d="M233-177c-1 41-23 64-60 70L243 0h-38l-65-103H63V0H30v-248c88 3 205-21 203 71zM63-129c60-2 137 13 137-47 0-61-80-42-137-45v92"/><path id="aV" fill="#fff" d="M63-220v92h138v28H63V0H30v-248h175v28H63"/><path id="aW" fill="#fff" d="M115-194c53 0 69 39 70 98 0 66-23 100-70 100C84 3 66-7 56-30L54 0H23l1-261h32v101c10-23 28-34 59-34zm-8 174c40 0 45-34 45-75 0-40-5-75-45-74-42 0-51 32-51 76 0 43 10 73 51 73"/><path id="aX" fill="#fff" d="M96-169c-40 0-48 33-48 73s9 75 48 75c24 0 41-14 43-38l32 2c-6 37-31 61-74 61-59 0-76-41-82-99-10-93 101-131 147-64 4 7 5 14 7 22l-32 3c-4-21-16-35-41-35"/><path id="aY" fill="#fff" d="M143 0 79-87 56-68V0H24v-261h32v163l83-92h37l-77 82L181 0h-38"/><path id="aZ" d="M140-251c80 0 125 45 125 126S219 4 139 4C58 4 15-44 15-125s44-126 125-126zm-1 214c52 0 73-35 73-88 0-50-21-86-72-86-52 0-73 35-73 86s22 88 72 88"/><path id="ba" d="M135-150c-39-12-60 13-60 57V0H25l-1-190h47c2 13-1 29 3 40 6-28 27-53 61-41v41"/><path id="bb" d="M25-224v-37h50v37H25zM25 0v-190h50V0H25"/><path id="bc" d="M195-6C206 82 75 100 31 46c-4-6-6-13-8-21l49-6c3 16 16 24 34 25 40 0 42-37 40-79-11 22-30 35-61 35-53 0-70-43-70-97 0-56 18-96 73-97 30 0 46 14 59 34l2-30h47zm-90-29c32 0 41-27 41-63 0-35-9-62-40-62-32 0-39 29-40 63 0 36 9 62 39 62"/><path id="bd" d="M133-34C117-15 103 5 69 4 32 3 11-16 11-54c-1-60 55-63 116-61 1-26-3-47-28-47-18 1-26 9-28 27l-52-2c7-38 36-58 82-57s74 22 75 68l1 82c-1 14 12 18 25 15v27c-30 8-71 5-69-32zm-48 3c29 0 43-24 42-57-32 0-66-3-65 30 0 17 8 27 23 27"/><path id="be" d="M220-157c-53 9-28 100-34 157h-49v-107c1-27-5-49-29-50C55-147 81-57 75 0H25l-1-190h47c2 12-1 28 3 38 10-53 101-56 108 0 13-22 24-43 59-42 82 1 51 116 57 194h-49v-107c-1-25-5-48-29-50"/><path id="bf" d="M24-248c93 1 206-16 204 79-1 75-69 88-152 82V0H24v-248zm52 121c47 0 100 7 100-41 0-47-54-39-100-39v80"/><path id="bg" d="M110-194c64 0 96 36 96 99 0 64-35 99-97 99-61 0-95-36-95-99 0-62 34-99 96-99zm-1 164c35 0 45-28 45-65 0-40-10-65-43-65-34 0-45 26-45 65 0 36 10 65 43 65"/><path id="bh" d="M135-194c53 0 70 44 70 98 0 56-19 98-73 100-31 1-45-17-59-34 3 33 2 69 2 105H25l-1-265h48c2 10 0 23 3 31 11-24 29-35 60-35zM114-30c33 0 39-31 40-66 0-38-9-64-40-64-56 0-55 130 0 130"/><path id="bi" d="M137-138c1-29-70-34-71-4 15 46 118 7 119 86 1 83-164 76-172 9l43-7c4 19 20 25 44 25 33 8 57-30 24-41C81-84 22-81 20-136c-2-80 154-74 161-7"/><path id="bj" d="M25 0v-261h50V0H25"/><path id="bk" d="M190-63c-7 42-38 67-86 67-59 0-84-38-90-98-12-110 154-137 174-36l-49 2c-2-19-15-32-35-32-30 0-35 28-38 64-6 74 65 87 74 30"/><path id="bl" d="M185-48c-13 30-37 53-82 52C43 2 14-33 14-96s30-98 90-98c62 0 83 45 84 108H66c0 31 8 55 39 56 18 0 30-7 34-22zm-45-69c5-46-57-63-70-21-2 6-4 13-4 21h74"/><path id="bm" fill="#3a414a" d="M212-179c-10-28-35-45-73-45-59 0-87 40-87 99 0 60 29 101 89 101 43 0 62-24 78-52l27 14C228-24 195 4 139 4 59 4 22-46 18-125c-6-104 99-153 187-111 19 9 31 26 39 46"/><path id="bn" fill="#3a414a" d="M141-36C126-15 110 5 73 4 37 3 15-17 15-53c-1-64 63-63 125-63 3-35-9-54-41-54-24 1-41 7-42 31l-33-3c5-37 33-52 76-52 45 0 72 20 72 64v82c-1 20 7 32 28 27v20c-31 9-61-2-59-35zM48-53c0 20 12 33 32 33 41-3 63-29 60-74-43 2-92-5-92 41"/><path id="bo" fill="#3a414a" d="M117-194c89-4 53 116 60 194h-32v-121c0-31-8-49-39-48C34-167 62-67 57 0H25l-1-190h30c1 10-1 24 2 32 11-22 29-35 61-36"/><path id="bp" fill="#3a414a" d="M96-169c-40 0-48 33-48 73s9 75 48 75c24 0 41-14 43-38l32 2c-6 37-31 61-74 61-59 0-76-41-82-99-10-93 101-131 147-64 4 7 5 14 7 22l-32 3c-4-21-16-35-41-35"/><path id="bq" fill="#3a414a" d="M100-194c62-1 85 37 85 99 1 63-27 99-86 99S16-35 15-95c0-66 28-99 85-99zM99-20c44 1 53-31 53-75 0-43-8-75-51-75s-53 32-53 75 10 74 51 75"/><path id="br" fill="#3a414a" d="M210-169c-67 3-38 105-44 169h-31v-121c0-29-5-50-35-48C34-165 62-65 56 0H25l-1-190h30c1 10-1 24 2 32 10-44 99-50 107 0 11-21 27-35 58-36 85-2 47 119 55 194h-31v-121c0-29-5-49-35-48"/><path id="bs" fill="#3a414a" d="M115-194c55 1 70 41 70 98S169 2 115 4C84 4 66-9 55-30l1 105H24l-1-265h31l2 30c10-21 28-34 59-34zm-8 174c40 0 45-34 45-75s-6-73-45-74c-42 0-51 32-51 76 0 43 10 73 51 73"/><path id="bt" fill="#3a414a" d="M100-194c63 0 86 42 84 106H49c0 40 14 67 53 68 26 1 43-12 49-29l28 8c-11 28-37 45-77 45C44 4 14-33 15-96c1-61 26-98 85-98zm52 81c6-60-76-77-97-28-3 7-6 17-6 28h103"/><path id="bu" fill="#3a414a" d="M59-47c-2 24 18 29 38 22v24C64 9 27 4 27-40v-127H5v-23h24l9-43h21v43h35v23H59v120"/><path id="bv" fill="#3a414a" d="M115-194c53 0 69 39 70 98 0 66-23 100-70 100C84 3 66-7 56-30L54 0H23l1-261h32v101c10-23 28-34 59-34zm-8 174c40 0 45-34 45-75 0-40-5-75-45-74-42 0-51 32-51 76 0 43 10 73 51 73"/><path id="bw" fill="#3a414a" d="M85-194c31 0 48 13 60 33l-1-100h32l1 261h-30c-2-10 0-23-3-31C134-8 116 4 85 4 32 4 16-35 15-94c0-66 23-100 70-100zm9 24c-40 0-46 34-46 75 0 40 6 74 45 74 42 0 51-32 51-76 0-42-9-74-50-73"/><path id="bx" fill="#3a414a" d="M135-143c-3-34-86-38-87 0 15 53 115 12 119 90S17 21 10-45l28-5c4 36 97 45 98 0-10-56-113-15-118-90-4-57 82-63 122-42 12 7 21 19 24 35"/><path id="by" fill="#3a414a" d="M84 4C-5 8 30-112 23-190h32v120c0 31 7 50 39 49 72-2 45-101 50-169h31l1 190h-30c-1-10 1-25-2-33-11 22-28 36-60 37"/><path id="bz" fill="#3a414a" d="M24-231v-30h32v30H24zM24 0v-190h32V0H24"/><path id="bA" fill="#3a414a" d="M206 0h-36l-40-164L89 0H53L-1-190h32L70-26l43-164h34l41 164 42-164h31"/><path id="bB" fill="#3a414a" d="M114-163C36-179 61-72 57 0H25l-1-190h30c1 12-1 29 2 39 6-27 23-49 58-41v29"/><path id="bC" fill="#3a414a" d="M145-31C134-9 116 4 85 4 32 4 16-35 15-94c0-59 17-99 70-100 32-1 48 14 60 33 0-11-1-24 2-32h30l-1 268h-32zM93-21c41 0 51-33 51-76s-8-73-50-73c-40 0-46 35-46 75s5 74 45 74"/><path id="bD" fill="#3a414a" d="M103-251c84 0 111 97 45 133-19 10-37 24-39 52H78c0-63 77-55 77-114 0-30-21-42-52-43-32 0-53 17-56 46l-32-2c7-45 34-72 88-72zM77 0v-35h34V0H77"/><path id="bE" fill="#3a414a" d="M232-93c-1 65-40 97-104 97C67 4 28-28 28-90v-158h33c8 89-33 224 67 224 102 0 64-133 71-224h33v155"/><path id="bF" fill="#3a414a" d="M141 0 90-78 38 0H4l68-98-65-92h35l48 74 47-74h35l-64 92 68 98h-35"/><path id="bG" fill="#3a414a" d="M177-190C167-65 218 103 67 71c-23-6-38-20-44-43l32-5c15 47 100 32 89-28v-30C133-14 115 1 83 1 29 1 15-40 15-95c0-56 16-97 71-98 29-1 48 16 59 35 1-10 0-23 2-32h30zM94-22c36 0 50-32 50-73 0-42-14-75-50-75-39 0-46 34-46 75s6 73 46 73"/><path id="bH" d="M137-103V0h-34v-103L8-248h37l75 118 75-118h37"/><path id="bI" d="M30 0v-248h187v28H63v79h144v27H63v87h162V0H30"/><path id="bJ" d="M185-189c-5-48-123-54-124 2 14 75 158 14 163 119 3 78-121 87-175 55-17-10-28-26-33-46l33-7c5 56 141 63 141-1 0-78-155-14-162-118-5-82 145-84 179-34 5 7 8 16 11 25"/><path id="bK" d="M190 0 58-211 59 0H30v-248h39L202-35l-2-213h31V0h-41"/><path id="bL" d="M140-251c81 0 123 46 123 126C263-46 219 4 140 4 59 4 17-45 17-125s42-126 123-126zm0 227c63 0 89-41 89-101s-29-99-89-99c-61 0-89 39-89 99S79-25 140-24"/><path id="bM" fill="#3a414a" d="M30 0v-248h187v28H63v79h144v27H63v87h162V0H30"/><path id="bN" fill="#3a414a" d="M108 0H70L1-190h34L89-25l56-165h34"/><path id="bO" fill="#3a414a" d="M24 0v-261h32V0H24"/><path id="bP" fill="#3a414a" d="M179-190 93 31C79 59 56 82 12 73V49c39 6 53-20 64-50L1-190h34L92-34l54-156h33"/><path id="bQ" fill="#3a414a" d="m0 4 72-265h28L28 4H0"/><path id="bR" fill="#3a414a" d="M101-234c-31-9-42 10-38 44h38v23H63V0H32v-167H5v-23h27c-7-52 17-82 69-68v24"/><path id="bS" fill="#3a414a" d="M160-131c35 5 61 23 61 61C221 17 115-2 30 0v-248c76 3 177-17 177 60 0 33-19 50-47 57zm-97-11c50-1 110 9 110-42 0-47-63-36-110-37v79zm0 115c55-2 124 14 124-45 0-56-70-42-124-44v89"/><path id="bT" fill="#3a414a" d="M30-248c118-7 216 8 213 122C240-48 200 0 122 0H30v-248zM63-27c89 8 146-16 146-99s-60-101-146-95v194"/><path id="bU" fill="#3a414a" d="M185-189c-5-48-123-54-124 2 14 75 158 14 163 119 3 78-121 87-175 55-17-10-28-26-33-46l33-7c5 56 141 63 141-1 0-78-155-14-162-118-5-82 145-84 179-34 5 7 8 16 11 25"/><path id="bV" fill="#3a414a" d="M143 4C61 4 22-44 18-125c-5-107 100-154 193-111 17 8 29 25 37 43l-32 9c-13-25-37-40-76-40-61 0-88 39-88 99 0 61 29 100 91 101 35 0 62-11 79-27v-45h-74v-28h105v86C228-13 192 4 143 4"/><path id="bW" fill="#3a414a" d="M143 0 79-87 56-68V0H24v-261h32v163l83-92h37l-77 82L181 0h-38"/><path id="bX" fill="#3a414a" d="M106-169C34-169 62-67 57 0H25v-261h32l-1 103c12-21 28-36 61-36 89 0 53 116 60 194h-32v-121c2-32-8-49-39-48"/><path id="bY" fill="#3a414a" d="M266 0h-40l-56-210L115 0H75L2-248h35L96-30l15-64 43-154h32l59 218 59-218h35"/><g id="a"><use xlink:href="#ai" transform="scale(.04938)"/><use xlink:href="#aj" transform="matrix(.04938 0 0 .04938 12.79 0)"/><use xlink:href="#ak" transform="matrix(.04938 0 0 .04938 22.667 0)"/><use xlink:href="#al" transform="matrix(.04938 0 0 .04938 32.543 0)"/></g><g id="b"><use xlink:href="#am" transform="scale(.04938)"/><use xlink:href="#aj" transform="matrix(.04938 0 0 .04938 8.889 0)"/><use xlink:href="#an" transform="matrix(.04938 0 0 .04938 18.765 0)"/><use xlink:href="#ao" transform="matrix(.04938 0 0 .04938 33.53 0)"/><use xlink:href="#aj" transform="matrix(.04938 0 0 .04938 43.407 0)"/><use xlink:href="#ap" transform="matrix(.04938 0 0 .04938 53.284 0)"/><use xlink:href="#ak" transform="matrix(.04938 0 0 .04938 63.16 0)"/><use xlink:href="#ap" transform="matrix(.04938 0 0 .04938 73.037 0)"/><use xlink:href="#aq" transform="matrix(.04938 0 0 .04938 82.914 0)"/></g><g id="c"><use xlink:href="#ak" transform="scale(.04938)"/><use xlink:href="#ar" transform="matrix(.04938 0 0 .04938 9.877 0)"/><use xlink:href="#as" transform="matrix(.04938 0 0 .04938 18.765 0)"/><use xlink:href="#al" transform="matrix(.04938 0 0 .04938 22.667 0)"/><use xlink:href="#aq" transform="matrix(.04938 0 0 .04938 31.556 0)"/><use xlink:href="#at" transform="matrix(.04938 0 0 .04938 36.494 0)"/></g><g id="d"><use xlink:href="#au" transform="scale(.04938)"/><use xlink:href="#av" transform="matrix(.04938 0 0 .04938 12.79 0)"/><use xlink:href="#aw" transform="matrix(.04938 0 0 .04938 22.667 0)"/><use xlink:href="#ax" transform="matrix(.04938 0 0 .04938 32.543 0)"/></g><g id="e"><use xlink:href="#ax" transform="scale(.04938)"/><use xlink:href="#av" transform="matrix(.04938 0 0 .04938 8.889 0)"/><use xlink:href="#ay" transform="matrix(.04938 0 0 .04938 18.765 0)"/><use xlink:href="#aw" transform="matrix(.04938 0 0 .04938 33.53 0)"/><use xlink:href="#az" transform="matrix(.04938 0 0 .04938 43.407 0)"/><use xlink:href="#aA" transform="matrix(.04938 0 0 .04938 48.346 0)"/><use xlink:href="#aB" transform="matrix(.04938 0 0 .04938 58.222 0)"/><use xlink:href="#aC" transform="matrix(.04938 0 0 .04938 62.123 0)"/><use xlink:href="#aD" transform="matrix(.04938 0 0 .04938 72 0)"/></g><g id="f"><use xlink:href="#ax" transform="scale(.04938)"/><use xlink:href="#aB" transform="matrix(.04938 0 0 .04938 8.889 0)"/><use xlink:href="#ay" transform="matrix(.04938 0 0 .04938 12.79 0)"/><use xlink:href="#aB" transform="matrix(.04938 0 0 .04938 27.556 0)"/><use xlink:href="#aE" transform="matrix(.04938 0 0 .04938 31.457 0)"/><use xlink:href="#aF" transform="matrix(.04938 0 0 .04938 35.358 0)"/><use xlink:href="#aG" transform="matrix(.04938 0 0 .04938 45.235 0)"/></g><g id="g"><use xlink:href="#aw" transform="scale(.04938)"/><use xlink:href="#aH" transform="matrix(.04938 0 0 .04938 9.877 0)"/><use xlink:href="#aB" transform="matrix(.04938 0 0 .04938 18.765 0)"/><use xlink:href="#ax" transform="matrix(.04938 0 0 .04938 22.667 0)"/><use xlink:href="#az" transform="matrix(.04938 0 0 .04938 31.556 0)"/><use xlink:href="#aI" transform="matrix(.04938 0 0 .04938 36.494 0)"/></g><g id="h"><use xlink:href="#aJ" transform="scale(.04938)"/><use xlink:href="#aG" transform="matrix(.04938 0 0 .04938 11.852 0)"/><use xlink:href="#aw" transform="matrix(.04938 0 0 .04938 17.728 0)"/></g><g id="i"><use xlink:href="#aG" transform="scale(.04938)"/><use xlink:href="#aw" transform="matrix(.04938 0 0 .04938 5.877 0)"/><use xlink:href="#aK" transform="matrix(.04938 0 0 .04938 15.753 0)"/><use xlink:href="#aL" transform="matrix(.04938 0 0 .04938 25.63 0)"/><use xlink:href="#aB" transform="matrix(.04938 0 0 .04938 35.506 0)"/><use xlink:href="#aG" transform="matrix(.04938 0 0 .04938 39.407 0)"/><use xlink:href="#aw" transform="matrix(.04938 0 0 .04938 45.284 0)"/><use xlink:href="#ay" transform="matrix(.04938 0 0 .04938 55.16 0)"/><use xlink:href="#aw" transform="matrix(.04938 0 0 .04938 69.926 0)"/><use xlink:href="#aC" transform="matrix(.04938 0 0 .04938 79.802 0)"/><use xlink:href="#az" transform="matrix(.04938 0 0 .04938 89.679 0)"/><use xlink:href="#ax" transform="matrix(.04938 0 0 .04938 94.617 0)"/></g><g id="j"><use xlink:href="#aM" transform="scale(.04938)"/><use xlink:href="#aL" transform="matrix(.04938 0 0 .04938 4.938 0)"/><use xlink:href="#aE" transform="matrix(.04938 0 0 .04938 14.815 0)"/><use xlink:href="#aE" transform="matrix(.04938 0 0 .04938 18.716 0)"/><use xlink:href="#aM" transform="matrix(.04938 0 0 .04938 22.617 0)"/><use xlink:href="#aB" transform="matrix(.04938 0 0 .04938 27.556 0)"/><use xlink:href="#aE" transform="matrix(.04938 0 0 .04938 31.457 0)"/><use xlink:href="#aw" transform="matrix(.04938 0 0 .04938 35.358 0)"/><use xlink:href="#aN" transform="matrix(.04938 0 0 .04938 45.235 0)"/><use xlink:href="#aI" transform="matrix(.04938 0 0 .04938 55.111 0)"/></g><g id="k"><use xlink:href="#aO" transform="rotate(.137) scale(.04321)"/><use xlink:href="#aP" transform="matrix(.04321 0 0 .04321 10.37 0)"/><use xlink:href="#aQ" transform="matrix(.04321 0 0 .04321 20.74 0)"/></g><g id="l"><use xlink:href="#aR" transform="rotate(.137) scale(.04321)"/><use xlink:href="#aS" transform="matrix(.04321 0 0 .04321 11.191 0)"/></g><g id="m"><use xlink:href="#aT" transform="scale(.04938)"/><use xlink:href="#ax" transform="matrix(.04938 0 0 .04938 12.79 0)"/><use xlink:href="#aw" transform="matrix(.04938 0 0 .04938 21.679 0)"/><use xlink:href="#aG" transform="matrix(.04938 0 0 .04938 31.556 0)"/></g><g id="n"><use xlink:href="#aU" transform="scale(.04938)"/><use xlink:href="#aw" transform="matrix(.04938 0 0 .04938 12.79 0)"/><use xlink:href="#aK" transform="matrix(.04938 0 0 .04938 22.667 0)"/><use xlink:href="#aL" transform="matrix(.04938 0 0 .04938 32.543 0)"/><use xlink:href="#aw" transform="matrix(.04938 0 0 .04938 42.42 0)"/><use xlink:href="#ax" transform="matrix(.04938 0 0 .04938 52.296 0)"/><use xlink:href="#az" transform="matrix(.04938 0 0 .04938 61.185 0)"/></g><g id="o"><use xlink:href="#av" transform="scale(.04938)"/><use xlink:href="#aG" transform="matrix(.04938 0 0 .04938 9.877 0)"/></g><g id="p"><use xlink:href="#aJ" transform="scale(.04938)"/><use xlink:href="#aL" transform="matrix(.04938 0 0 .04938 11.852 0)"/><use xlink:href="#aN" transform="matrix(.04938 0 0 .04938 21.728 0)"/><use xlink:href="#aB" transform="matrix(.04938 0 0 .04938 31.605 0)"/><use xlink:href="#az" transform="matrix(.04938 0 0 .04938 35.506 0)"/></g><g id="q"><use xlink:href="#aV" transform="scale(.04938)"/><use xlink:href="#aw" transform="matrix(.04938 0 0 .04938 10.815 0)"/><use xlink:href="#aw" transform="matrix(.04938 0 0 .04938 20.691 0)"/><use xlink:href="#aN" transform="matrix(.04938 0 0 .04938 30.568 0)"/><use xlink:href="#aW" transform="matrix(.04938 0 0 .04938 40.444 0)"/><use xlink:href="#aF" transform="matrix(.04938 0 0 .04938 50.321 0)"/><use xlink:href="#aX" transform="matrix(.04938 0 0 .04938 60.198 0)"/><use xlink:href="#aY" transform="matrix(.04938 0 0 .04938 69.086 0)"/></g><g id="r"><use xlink:href="#aZ" transform="rotate(.211) scale(.07284)"/><use xlink:href="#ba" transform="matrix(.07284 0 0 .07284 20.395 0)"/><use xlink:href="#bb" transform="matrix(.07284 0 0 .07284 30.593 0)"/><use xlink:href="#bc" transform="matrix(.07284 0 0 .07284 37.877 0)"/><use xlink:href="#bd" transform="matrix(.07284 0 0 .07284 53.828 0)"/><use xlink:href="#be" transform="matrix(.07284 0 0 .07284 68.396 0)"/><use xlink:href="#bb" transform="matrix(.07284 0 0 .07284 91.705 0)"/></g><g id="s"><use xlink:href="#bf" transform="rotate(.211) scale(.07284)"/><use xlink:href="#ba" transform="matrix(.07284 0 0 .07284 17.481 0)"/><use xlink:href="#bg" transform="matrix(.07284 0 0 .07284 27.679 0)"/><use xlink:href="#bh" transform="matrix(.07284 0 0 .07284 43.63 0)"/><use xlink:href="#bg" transform="matrix(.07284 0 0 .07284 59.583 0)"/><use xlink:href="#bi" transform="matrix(.07284 0 0 .07284 75.535 0)"/><use xlink:href="#bd" transform="matrix(.07284 0 0 .07284 90.102 0)"/><use xlink:href="#bj" transform="matrix(.07284 0 0 .07284 104.67 0)"/></g><g id="t"><use xlink:href="#bf" transform="rotate(.211) scale(.07284)"/><use xlink:href="#ba" transform="matrix(.07284 0 0 .07284 17.481 0)"/><use xlink:href="#bg" transform="matrix(.07284 0 0 .07284 27.679 0)"/><use xlink:href="#bk" transform="matrix(.07284 0 0 .07284 43.63 0)"/><use xlink:href="#bl" transform="matrix(.07284 0 0 .07284 58.199 0)"/><use xlink:href="#bi" transform="matrix(.07284 0 0 .07284 72.767 0)"/><use xlink:href="#bi" transform="matrix(.07284 0 0 .07284 87.335 0)"/></g><g id="u"><use xlink:href="#bm" transform="scale(.04383)"/><use xlink:href="#bn" transform="matrix(.04383 0 0 .04383 11.351 0)"/><use xlink:href="#bo" transform="matrix(.04383 0 0 .04383 20.117 0)"/></g><g id="v"><use xlink:href="#bp" transform="scale(.04383)"/><use xlink:href="#bq" transform="matrix(.04383 0 0 .04383 7.889 0)"/><use xlink:href="#br" transform="matrix(.04383 0 0 .04383 16.654 0)"/><use xlink:href="#bs" transform="matrix(.04383 0 0 .04383 29.759 0)"/><use xlink:href="#bq" transform="matrix(.04383 0 0 .04383 38.524 0)"/><use xlink:href="#bo" transform="matrix(.04383 0 0 .04383 47.29 0)"/><use xlink:href="#bt" transform="matrix(.04383 0 0 .04383 56.055 0)"/><use xlink:href="#bo" transform="matrix(.04383 0 0 .04383 64.82 0)"/><use xlink:href="#bu" transform="matrix(.04383 0 0 .04383 73.586 0)"/></g><g id="w"><use xlink:href="#bv" transform="scale(.04383)"/><use xlink:href="#bt" transform="matrix(.04383 0 0 .04383 8.765 0)"/></g><g id="x"><use xlink:href="#bn" transform="scale(.04383)"/><use xlink:href="#br" transform="matrix(.04383 0 0 .04383 8.765 0)"/><use xlink:href="#bt" transform="matrix(.04383 0 0 .04383 21.87 0)"/><use xlink:href="#bo" transform="matrix(.04383 0 0 .04383 30.635 0)"/><use xlink:href="#bw" transform="matrix(.04383 0 0 .04383 39.4 0)"/><use xlink:href="#bt" transform="matrix(.04383 0 0 .04383 48.166 0)"/><use xlink:href="#bw" transform="matrix(.04383 0 0 .04383 56.931 0)"/></g><g id="y"><use xlink:href="#bu" transform="scale(.04383)"/><use xlink:href="#bq" transform="matrix(.04383 0 0 .04383 4.383 0)"/></g><g id="z"><use xlink:href="#bx" transform="scale(.04383)"/><use xlink:href="#by" transform="matrix(.04383 0 0 .04383 7.889 0)"/><use xlink:href="#bz" transform="matrix(.04383 0 0 .04383 16.654 0)"/><use xlink:href="#bu" transform="matrix(.04383 0 0 .04383 20.117 0)"/></g><g id="A"><use xlink:href="#bo" transform="scale(.04383)"/><use xlink:href="#bt" transform="matrix(.04383 0 0 .04383 8.765 0)"/><use xlink:href="#bA" transform="matrix(.04383 0 0 .04383 17.53 0)"/></g><g id="B"><use xlink:href="#bB" transform="scale(.04383)"/><use xlink:href="#bt" transform="matrix(.04383 0 0 .04383 5.215 0)"/><use xlink:href="#bC" transform="matrix(.04383 0 0 .04383 13.98 0)"/><use xlink:href="#by" transform="matrix(.04383 0 0 .04383 22.746 0)"/><use xlink:href="#bz" transform="matrix(.04383 0 0 .04383 31.512 0)"/><use xlink:href="#bB" transform="matrix(.04383 0 0 .04383 34.974 0)"/><use xlink:href="#bt" transform="matrix(.04383 0 0 .04383 40.19 0)"/><use xlink:href="#br" transform="matrix(.04383 0 0 .04383 48.955 0)"/><use xlink:href="#bt" transform="matrix(.04383 0 0 .04383 62.06 0)"/><use xlink:href="#bo" transform="matrix(.04383 0 0 .04383 70.825 0)"/><use xlink:href="#bu" transform="matrix(.04383 0 0 .04383 79.59 0)"/><use xlink:href="#bx" transform="matrix(.04383 0 0 .04383 83.973 0)"/><use xlink:href="#bD" transform="matrix(.04383 0 0 .04383 91.862 0)"/></g><g id="C"><use xlink:href="#bE" transform="scale(.05)"/><use xlink:href="#bx" transform="translate(12.95) scale(.05)"/><use xlink:href="#bt" transform="translate(21.95) scale(.05)"/></g><g id="D"><use xlink:href="#bt" transform="scale(.05)"/><use xlink:href="#bF" transform="translate(10) scale(.05)"/><use xlink:href="#bz" transform="translate(19) scale(.05)"/><use xlink:href="#bx" transform="translate(22.95) scale(.05)"/><use xlink:href="#bu" transform="translate(31.95) scale(.05)"/><use xlink:href="#bz" transform="translate(36.95) scale(.05)"/><use xlink:href="#bo" transform="translate(40.9) scale(.05)"/><use xlink:href="#bG" transform="translate(50.9) scale(.05)"/></g><g id="E"><use xlink:href="#bp" transform="scale(.05)"/><use xlink:href="#bq" transform="translate(9) scale(.05)"/><use xlink:href="#br" transform="translate(19) scale(.05)"/><use xlink:href="#bs" transform="translate(33.95) scale(.05)"/><use xlink:href="#bq" transform="translate(43.95) scale(.05)"/><use xlink:href="#bo" transform="translate(53.95) scale(.05)"/><use xlink:href="#bt" transform="translate(63.95) scale(.05)"/><use xlink:href="#bo" transform="translate(73.95) scale(.05)"/><use xlink:href="#bu" transform="translate(83.95) scale(.05)"/></g><g id="F"><use xlink:href="#bH" transform="scale(.03704)"/><use xlink:href="#bI" transform="matrix(.03704 0 0 .03704 8.889 0)"/><use xlink:href="#bJ" transform="matrix(.03704 0 0 .03704 17.778 0)"/></g><g id="G"><use xlink:href="#bK" transform="scale(.03704)"/><use xlink:href="#bL" transform="matrix(.03704 0 0 .03704 9.593 0)"/></g><g id="H"><use xlink:href="#bM" transform="scale(.05)"/><use xlink:href="#bN" transform="translate(12) scale(.05)"/><use xlink:href="#bn" transform="translate(21) scale(.05)"/><use xlink:href="#bO" transform="translate(31) scale(.05)"/><use xlink:href="#by" transform="translate(34.95) scale(.05)"/><use xlink:href="#bn" transform="translate(44.95) scale(.05)"/><use xlink:href="#bu" transform="translate(54.95) scale(.05)"/><use xlink:href="#bt" transform="translate(59.95) scale(.05)"/></g><g id="I"><use xlink:href="#by" transform="scale(.05)"/><use xlink:href="#bB" transform="translate(10) scale(.05)"/><use xlink:href="#bG" transform="translate(15.95) scale(.05)"/><use xlink:href="#bt" transform="translate(25.95) scale(.05)"/><use xlink:href="#bo" transform="translate(35.95) scale(.05)"/><use xlink:href="#bp" transform="translate(45.95) scale(.05)"/><use xlink:href="#bP" transform="translate(54.95) scale(.05)"/><use xlink:href="#bQ" transform="translate(63.95) scale(.05)"/><use xlink:href="#bt" transform="translate(68.95) scale(.05)"/><use xlink:href="#bR" transform="translate(78.95) scale(.05)"/><use xlink:href="#bR" transform="translate(83.6) scale(.05)"/><use xlink:href="#bq" transform="translate(88.6) scale(.05)"/><use xlink:href="#bB" transform="translate(98.6) scale(.05)"/><use xlink:href="#bu" transform="translate(104.55) scale(.05)"/></g><g id="J"><use xlink:href="#bS" transform="scale(.05)"/><use xlink:href="#bB" transform="translate(12) scale(.05)"/><use xlink:href="#bz" transform="translate(17.95) scale(.05)"/><use xlink:href="#bo" transform="translate(21.9) scale(.05)"/><use xlink:href="#bG" transform="translate(31.9) scale(.05)"/></g><g id="K"><use xlink:href="#bu" transform="scale(.05)"/><use xlink:href="#bq" transform="translate(5) scale(.05)"/></g><g id="L"><use xlink:href="#bT" transform="scale(.05)"/><use xlink:href="#bt" transform="translate(12.95) scale(.05)"/><use xlink:href="#bx" transform="translate(22.95) scale(.05)"/><use xlink:href="#bz" transform="translate(31.95) scale(.05)"/><use xlink:href="#bG" transform="translate(35.9) scale(.05)"/><use xlink:href="#bo" transform="translate(45.9) scale(.05)"/></g><g id="M"><use xlink:href="#bU" transform="scale(.05)"/><use xlink:href="#bP" transform="translate(12) scale(.05)"/><use xlink:href="#bx" transform="translate(21) scale(.05)"/><use xlink:href="#bu" transform="translate(30) scale(.05)"/><use xlink:href="#bt" transform="translate(35) scale(.05)"/><use xlink:href="#br" transform="translate(45) scale(.05)"/></g><g id="N"><use xlink:href="#bV" transform="scale(.05)"/><use xlink:href="#by" transform="translate(14) scale(.05)"/><use xlink:href="#bz" transform="translate(24) scale(.05)"/><use xlink:href="#bO" transform="translate(27.95) scale(.05)"/><use xlink:href="#bw" transform="translate(31.9) scale(.05)"/></g><g id="O"><use xlink:href="#bT" transform="scale(.05)"/><use xlink:href="#bq" transform="translate(12.95) scale(.05)"/><use xlink:href="#bp" transform="translate(22.95) scale(.05)"/><use xlink:href="#by" transform="translate(31.95) scale(.05)"/><use xlink:href="#br" transform="translate(41.95) scale(.05)"/><use xlink:href="#bt" transform="translate(56.9) scale(.05)"/><use xlink:href="#bo" transform="translate(66.9) scale(.05)"/><use xlink:href="#bu" transform="translate(76.9) scale(.05)"/></g><g id="P"><use xlink:href="#bw" transform="scale(.05)"/><use xlink:href="#bt" transform="translate(10) scale(.05)"/><use xlink:href="#bp" transform="translate(20) scale(.05)"/><use xlink:href="#bz" transform="translate(29) scale(.05)"/><use xlink:href="#bx" transform="translate(32.95) scale(.05)"/><use xlink:href="#bz" transform="translate(41.95) scale(.05)"/><use xlink:href="#bq" transform="translate(45.9) scale(.05)"/><use xlink:href="#bo" transform="translate(55.9) scale(.05)"/><use xlink:href="#bx" transform="translate(65.9) scale(.05)"/></g><g id="Q"><use xlink:href="#bA" transform="scale(.04383)"/><use xlink:href="#bt" transform="matrix(.04383 0 0 .04383 11.351 0)"/></g><g id="R"><use xlink:href="#br" transform="scale(.04383)"/><use xlink:href="#bn" transform="matrix(.04383 0 0 .04383 13.104 0)"/><use xlink:href="#bW" transform="matrix(.04383 0 0 .04383 21.87 0)"/><use xlink:href="#bt" transform="matrix(.04383 0 0 .04383 29.759 0)"/></g><g id="S"><use xlink:href="#bz" transform="scale(.04383)"/><use xlink:href="#bu" transform="matrix(.04383 0 0 .04383 3.462 0)"/></g><g id="T"><use xlink:href="#br" transform="scale(.04383)"/><use xlink:href="#bq" transform="matrix(.04383 0 0 .04383 13.104 0)"/><use xlink:href="#bB" transform="matrix(.04383 0 0 .04383 21.87 0)"/><use xlink:href="#bt" transform="matrix(.04383 0 0 .04383 27.085 0)"/></g><g id="U"><use xlink:href="#bG" transform="scale(.04383)"/><use xlink:href="#bt" transform="matrix(.04383 0 0 .04383 8.765 0)"/><use xlink:href="#bo" transform="matrix(.04383 0 0 .04383 17.53 0)"/><use xlink:href="#bt" transform="matrix(.04383 0 0 .04383 26.296 0)"/><use xlink:href="#bB" transform="matrix(.04383 0 0 .04383 35.062 0)"/><use xlink:href="#bz" transform="matrix(.04383 0 0 .04383 40.277 0)"/><use xlink:href="#bp" transform="matrix(.04383 0 0 .04383 43.74 0)"/><use xlink:href="#bD" transform="matrix(.04383 0 0 .04383 51.628 0)"/></g><g id="V"><use xlink:href="#bT" transform="scale(.05)"/><use xlink:href="#bt" transform="translate(12.95) scale(.05)"/><use xlink:href="#bO" transform="translate(22.95) scale(.05)"/><use xlink:href="#bz" transform="translate(26.9) scale(.05)"/><use xlink:href="#bN" transform="translate(30.85) scale(.05)"/><use xlink:href="#bt" transform="translate(39.85) scale(.05)"/><use xlink:href="#bB" transform="translate(49.85) scale(.05)"/></g><g id="W"><use xlink:href="#bU" transform="scale(.04383)"/><use xlink:href="#bX" transform="matrix(.04383 0 0 .04383 10.519 0)"/><use xlink:href="#bq" transform="matrix(.04383 0 0 .04383 19.284 0)"/><use xlink:href="#by" transform="matrix(.04383 0 0 .04383 28.05 0)"/><use xlink:href="#bO" transform="matrix(.04383 0 0 .04383 36.815 0)"/><use xlink:href="#bw" transform="matrix(.04383 0 0 .04383 40.277 0)"/></g><g id="X"><use xlink:href="#bu" transform="scale(.04383)"/><use xlink:href="#bX" transform="matrix(.04383 0 0 .04383 4.383 0)"/><use xlink:href="#bz" transform="matrix(.04383 0 0 .04383 13.148 0)"/><use xlink:href="#bx" transform="matrix(.04383 0 0 .04383 16.61 0)"/></g><g id="Y"><use xlink:href="#bv" transform="scale(.04383)"/><use xlink:href="#bt" transform="matrix(.04383 0 0 .04383 8.765 0)"/></g><g id="Z"><use xlink:href="#bz" transform="scale(.04383)"/><use xlink:href="#bo" transform="matrix(.04383 0 0 .04383 3.462 0)"/></g><g id="aa"><use xlink:href="#bu" transform="scale(.04383)"/><use xlink:href="#bX" transform="matrix(.04383 0 0 .04383 4.383 0)"/><use xlink:href="#bt" transform="matrix(.04383 0 0 .04383 13.148 0)"/></g><g id="ab"><use xlink:href="#bw" transform="scale(.04383)"/><use xlink:href="#bt" transform="matrix(.04383 0 0 .04383 8.765 0)"/><use xlink:href="#bx" transform="matrix(.04383 0 0 .04383 17.53 0)"/><use xlink:href="#bz" transform="matrix(.04383 0 0 .04383 25.42 0)"/><use xlink:href="#bG" transform="matrix(.04383 0 0 .04383 28.882 0)"/><use xlink:href="#bo" transform="matrix(.04383 0 0 .04383 37.648 0)"/></g><g id="ac"><use xlink:href="#bx" transform="scale(.04383)"/><use xlink:href="#bP" transform="matrix(.04383 0 0 .04383 7.889 0)"/><use xlink:href="#bx" transform="matrix(.04383 0 0 .04383 15.778 0)"/><use xlink:href="#bu" transform="matrix(.04383 0 0 .04383 23.667 0)"/><use xlink:href="#bt" transform="matrix(.04383 0 0 .04383 28.05 0)"/><use xlink:href="#br" transform="matrix(.04383 0 0 .04383 36.815 0)"/><use xlink:href="#bD" transform="matrix(.04383 0 0 .04383 49.92 0)"/></g><g id="ad"><use xlink:href="#bY" transform="scale(.05)"/><use xlink:href="#bX" transform="translate(16.95) scale(.05)"/><use xlink:href="#bq" transform="translate(26.95) scale(.05)"/></g><g id="ae"><use xlink:href="#bA" transform="scale(.05)"/><use xlink:href="#bz" transform="translate(12.95) scale(.05)"/><use xlink:href="#bO" transform="translate(16.9) scale(.05)"/><use xlink:href="#bO" transform="translate(20.85) scale(.05)"/></g><g id="af"><use xlink:href="#bw" transform="scale(.05)"/><use xlink:href="#bq" transform="translate(10) scale(.05)"/></g><g id="ag"><use xlink:href="#bu" transform="scale(.05)"/><use xlink:href="#bX" transform="translate(5) scale(.05)"/><use xlink:href="#bt" transform="translate(15) scale(.05)"/></g><g id="ah"><use xlink:href="#bA" transform="scale(.05)"/><use xlink:href="#bq" transform="translate(12.95) scale(.05)"/><use xlink:href="#bB" transform="translate(22.95) scale(.05)"/><use xlink:href="#bW" transform="translate(28.9) scale(.05)"/></g></defs></g></svg>