<svg width="711" height="276" viewBox="0 0 711 276" fill="none" xmlns="http://www.w3.org/2000/svg">
<line x1="300" y1="225.5" x2="300" y2="237.5" stroke="#3A7DFF"/>
<line x1="439.5" y1="231" x2="299.5" y2="231" stroke="#3A7DFF"/>
<line x1="440" y1="225.5" x2="440" y2="237.5" stroke="#3A7DFF"/>
<path d="M347.33 248.955C347.278 248.523 347.071 248.188 346.707 247.949C346.344 247.71 345.898 247.591 345.369 247.591C344.983 247.591 344.645 247.653 344.355 247.778C344.068 247.903 343.844 248.075 343.682 248.294C343.523 248.513 343.443 248.761 343.443 249.04C343.443 249.273 343.499 249.473 343.609 249.641C343.723 249.805 343.868 249.943 344.044 250.054C344.22 250.162 344.405 250.251 344.598 250.322C344.791 250.391 344.969 250.446 345.131 250.489L346.017 250.727C346.244 250.787 346.497 250.869 346.776 250.974C347.057 251.08 347.325 251.223 347.581 251.405C347.839 251.584 348.053 251.814 348.22 252.095C348.388 252.376 348.472 252.722 348.472 253.131C348.472 253.602 348.348 254.028 348.101 254.409C347.857 254.79 347.499 255.092 347.027 255.317C346.558 255.541 345.989 255.653 345.318 255.653C344.693 255.653 344.152 255.553 343.695 255.351C343.24 255.149 342.882 254.868 342.621 254.507C342.362 254.146 342.216 253.727 342.182 253.25H343.273C343.301 253.58 343.412 253.852 343.605 254.068C343.801 254.281 344.048 254.44 344.347 254.545C344.648 254.648 344.972 254.699 345.318 254.699C345.722 254.699 346.084 254.634 346.405 254.503C346.726 254.369 346.98 254.185 347.168 253.949C347.355 253.71 347.449 253.432 347.449 253.114C347.449 252.824 347.368 252.588 347.206 252.406C347.044 252.224 346.831 252.077 346.567 251.963C346.303 251.849 346.017 251.75 345.71 251.665L344.636 251.358C343.955 251.162 343.415 250.882 343.017 250.518C342.619 250.155 342.42 249.679 342.42 249.091C342.42 248.602 342.553 248.176 342.817 247.812C343.084 247.446 343.442 247.162 343.891 246.96C344.342 246.756 344.847 246.653 345.403 246.653C345.966 246.653 346.466 246.754 346.903 246.956C347.341 247.155 347.688 247.428 347.943 247.774C348.202 248.121 348.338 248.514 348.352 248.955H347.33ZM350.073 257.955V248.955H351.044V249.994H351.164C351.238 249.881 351.34 249.736 351.471 249.56C351.604 249.381 351.794 249.222 352.042 249.082C352.292 248.94 352.63 248.869 353.056 248.869C353.607 248.869 354.093 249.007 354.513 249.283C354.934 249.558 355.262 249.949 355.498 250.455C355.733 250.96 355.851 251.557 355.851 252.244C355.851 252.938 355.733 253.538 355.498 254.047C355.262 254.553 354.935 254.945 354.517 255.223C354.1 255.499 353.618 255.636 353.073 255.636C352.652 255.636 352.316 255.567 352.063 255.428C351.81 255.286 351.615 255.125 351.479 254.946C351.343 254.764 351.238 254.614 351.164 254.494H351.078V257.955H350.073ZM351.061 252.227C351.061 252.722 351.134 253.158 351.279 253.536C351.424 253.911 351.635 254.205 351.914 254.418C352.192 254.628 352.533 254.733 352.936 254.733C353.357 254.733 353.708 254.622 353.989 254.401C354.273 254.176 354.486 253.875 354.628 253.497C354.773 253.116 354.846 252.693 354.846 252.227C354.846 251.767 354.775 251.352 354.632 250.983C354.493 250.611 354.282 250.317 353.998 250.101C353.716 249.882 353.363 249.773 352.936 249.773C352.527 249.773 352.184 249.876 351.905 250.084C351.627 250.288 351.417 250.575 351.275 250.945C351.132 251.311 351.061 251.739 351.061 252.227ZM359.311 255.653C358.897 255.653 358.52 255.575 358.182 255.419C357.844 255.26 357.576 255.031 357.377 254.733C357.178 254.432 357.078 254.068 357.078 253.642C357.078 253.267 357.152 252.963 357.3 252.73C357.448 252.494 357.645 252.31 357.892 252.176C358.14 252.043 358.412 251.943 358.711 251.878C359.012 251.81 359.314 251.756 359.618 251.716C360.016 251.665 360.338 251.626 360.586 251.601C360.836 251.572 361.017 251.526 361.131 251.46C361.248 251.395 361.306 251.281 361.306 251.119V251.085C361.306 250.665 361.191 250.338 360.961 250.105C360.733 249.872 360.388 249.756 359.925 249.756C359.445 249.756 359.069 249.861 358.796 250.071C358.523 250.281 358.331 250.506 358.221 250.744L357.266 250.403C357.436 250.006 357.664 249.696 357.948 249.474C358.235 249.25 358.547 249.094 358.885 249.006C359.226 248.915 359.561 248.869 359.891 248.869C360.101 248.869 360.343 248.895 360.615 248.946C360.891 248.994 361.157 249.095 361.412 249.249C361.671 249.402 361.885 249.634 362.056 249.943C362.226 250.253 362.311 250.668 362.311 251.188V255.5H361.306V254.614H361.255C361.186 254.756 361.073 254.908 360.914 255.07C360.755 255.232 360.543 255.369 360.279 255.483C360.015 255.597 359.692 255.653 359.311 255.653ZM359.465 254.75C359.863 254.75 360.198 254.672 360.471 254.516C360.746 254.359 360.953 254.158 361.093 253.911C361.235 253.663 361.306 253.403 361.306 253.131V252.21C361.263 252.261 361.169 252.308 361.025 252.351C360.882 252.391 360.718 252.426 360.53 252.457C360.346 252.486 360.165 252.511 359.989 252.534C359.816 252.554 359.675 252.571 359.567 252.585C359.306 252.619 359.061 252.675 358.834 252.751C358.61 252.825 358.428 252.937 358.289 253.088C358.152 253.236 358.084 253.437 358.084 253.693C358.084 254.043 358.213 254.307 358.472 254.486C358.733 254.662 359.064 254.75 359.465 254.75ZM365.153 251.562V255.5H364.147V248.955H365.119V249.977H365.204C365.357 249.645 365.59 249.378 365.903 249.176C366.215 248.972 366.619 248.869 367.113 248.869C367.556 248.869 367.944 248.96 368.276 249.142C368.609 249.321 368.867 249.594 369.052 249.96C369.237 250.324 369.329 250.784 369.329 251.341V255.5H368.323V251.409C368.323 250.895 368.19 250.494 367.923 250.207C367.656 249.918 367.289 249.773 366.823 249.773C366.502 249.773 366.215 249.842 365.962 249.982C365.712 250.121 365.515 250.324 365.37 250.591C365.225 250.858 365.153 251.182 365.153 251.562ZM374.951 250.335V249.415H380.201V250.335H374.951ZM374.951 252.858V251.938H380.201V252.858H374.951ZM388.707 255.619C388.349 255.614 387.991 255.545 387.634 255.415C387.276 255.284 386.949 255.064 386.653 254.754C386.358 254.442 386.121 254.02 385.942 253.489C385.763 252.955 385.673 252.284 385.673 251.477C385.673 250.705 385.746 250.02 385.891 249.423C386.036 248.824 386.246 248.32 386.521 247.911C386.797 247.499 387.129 247.186 387.518 246.973C387.911 246.76 388.352 246.653 388.844 246.653C389.332 246.653 389.767 246.751 390.148 246.947C390.531 247.141 390.844 247.411 391.085 247.757C391.327 248.104 391.483 248.503 391.554 248.955H390.514C390.418 248.562 390.23 248.237 389.952 247.979C389.673 247.72 389.304 247.591 388.844 247.591C388.168 247.591 387.635 247.885 387.246 248.473C386.859 249.061 386.665 249.886 386.662 250.949H386.73C386.889 250.707 387.078 250.501 387.297 250.331C387.518 250.158 387.763 250.024 388.03 249.93C388.297 249.837 388.58 249.79 388.878 249.79C389.378 249.79 389.835 249.915 390.25 250.165C390.665 250.412 390.997 250.754 391.247 251.192C391.497 251.626 391.622 252.125 391.622 252.688C391.622 253.227 391.501 253.722 391.26 254.17C391.018 254.616 390.679 254.972 390.241 255.236C389.807 255.497 389.295 255.625 388.707 255.619ZM388.707 254.682C389.065 254.682 389.386 254.592 389.67 254.413C389.957 254.234 390.183 253.994 390.348 253.693C390.516 253.392 390.599 253.057 390.599 252.688C390.599 252.327 390.518 251.999 390.357 251.703C390.197 251.405 389.977 251.168 389.696 250.991C389.418 250.815 389.099 250.727 388.741 250.727C388.472 250.727 388.22 250.781 387.987 250.889C387.754 250.994 387.55 251.139 387.374 251.324C387.2 251.509 387.064 251.72 386.964 251.959C386.865 252.195 386.815 252.443 386.815 252.705C386.815 253.051 386.896 253.375 387.058 253.676C387.223 253.977 387.447 254.22 387.732 254.405C388.018 254.589 388.344 254.682 388.707 254.682Z" fill="#333333"/>
<g filter="url(#filter0_d_3184_7392)">
<rect width="348" height="200" transform="translate(195.5 14.5)" fill="#FF0000" fill-opacity="0.1"/>
<rect width="32" height="200" transform="translate(195.5 14.5)" fill="white"/>
<rect opacity="0.1" x="195.5" y="14.5" width="32" height="200" fill="white"/>
<rect width="4" height="200" transform="translate(247.5 14.5)" fill="white"/>
<rect opacity="0.1" x="247.5" y="14.5" width="4" height="200" fill="white"/>
<rect width="4" height="200" transform="translate(271.5 14.5)" fill="white"/>
<rect opacity="0.1" x="271.5" y="14.5" width="4" height="200" fill="white"/>
<rect width="4" height="200" transform="translate(295.5 14.5)" fill="white"/>
<rect opacity="0.1" x="295.5" y="14.5" width="4" height="200" fill="white"/>
<rect width="4" height="200" transform="translate(319.5 14.5)" fill="white"/>
<rect opacity="0.1" x="319.5" y="14.5" width="4" height="200" fill="white"/>
<rect width="4" height="200" transform="translate(343.5 14.5)" fill="white"/>
<rect opacity="0.1" x="343.5" y="14.5" width="4" height="200" fill="white"/>
<rect width="4" height="200" transform="translate(367.5 14.5)" fill="white"/>
<rect opacity="0.1" x="367.5" y="14.5" width="4" height="200" fill="white"/>
<rect width="4" height="200" transform="translate(391.5 14.5)" fill="white"/>
<rect opacity="0.1" x="391.5" y="14.5" width="4" height="200" fill="white"/>
<rect width="4" height="200" transform="translate(415.5 14.5)" fill="white"/>
<rect opacity="0.1" x="415.5" y="14.5" width="4" height="200" fill="white"/>
<rect width="4" height="200" transform="translate(439.5 14.5)" fill="white"/>
<rect opacity="0.1" x="439.5" y="14.5" width="4" height="200" fill="white"/>
<rect width="4" height="200" transform="translate(463.5 14.5)" fill="white"/>
<rect opacity="0.1" x="463.5" y="14.5" width="4" height="200" fill="white"/>
<rect width="4" height="200" transform="translate(487.5 14.5)" fill="white"/>
<rect opacity="0.1" x="487.5" y="14.5" width="4" height="200" fill="white"/>
<rect width="32" height="200" transform="translate(511.5 14.5)" fill="white"/>
<rect opacity="0.1" x="511.5" y="14.5" width="32" height="200" fill="white"/>
<rect opacity="0.3" x="195.5" y="14.5" width="348" height="30" fill="#6F7880"/>
<path opacity="0.7" d="M299.5 73.5H386.5C387.052 73.5 387.5 73.9477 387.5 74.5V78.5C387.5 79.0523 387.052 79.5 386.5 79.5H299.5V73.5Z" fill="#6F7880"/>
<path d="M299.5 88.5H433.5C434.052 88.5 434.5 88.9477 434.5 89.5V93.5C434.5 94.0523 434.052 94.5 433.5 94.5H299.5V88.5Z" fill="black" fill-opacity="0.1"/>
<path d="M299.5 157.5H433.5C434.052 157.5 434.5 157.948 434.5 158.5V162.5C434.5 163.052 434.052 163.5 433.5 163.5H299.5V157.5Z" fill="black" fill-opacity="0.1"/>
<path d="M299.5 98.5H427.5C428.052 98.5 428.5 98.9477 428.5 99.5V103.5C428.5 104.052 428.052 104.5 427.5 104.5H299.5V98.5Z" fill="black" fill-opacity="0.1"/>
<path d="M299.5 167.5H427.5C428.052 167.5 428.5 167.948 428.5 168.5V172.5C428.5 173.052 428.052 173.5 427.5 173.5H299.5V167.5Z" fill="black" fill-opacity="0.1"/>
<path d="M299.5 108.5H427.5C428.052 108.5 428.5 108.948 428.5 109.5V113.5C428.5 114.052 428.052 114.5 427.5 114.5H299.5V108.5Z" fill="black" fill-opacity="0.1"/>
<path d="M299.5 177.5H427.5C428.052 177.5 428.5 177.948 428.5 178.5V182.5C428.5 183.052 428.052 183.5 427.5 183.5H299.5V177.5Z" fill="black" fill-opacity="0.1"/>
<path d="M299.5 118.5H438.5C439.052 118.5 439.5 118.948 439.5 119.5V123.5C439.5 124.052 439.052 124.5 438.5 124.5H299.5V118.5Z" fill="black" fill-opacity="0.1"/>
<path d="M299.5 187.5H438.5C439.052 187.5 439.5 187.948 439.5 188.5V192.5C439.5 193.052 439.052 193.5 438.5 193.5H299.5V187.5Z" fill="black" fill-opacity="0.1"/>
<path d="M299.5 128.5H434.5C435.052 128.5 435.5 128.948 435.5 129.5V133.5C435.5 134.052 435.052 134.5 434.5 134.5H299.5V128.5Z" fill="black" fill-opacity="0.1"/>
<path d="M299.5 197.5H434.5C435.052 197.5 435.5 197.948 435.5 198.5V202.5C435.5 203.052 435.052 203.5 434.5 203.5H299.5V197.5Z" fill="black" fill-opacity="0.1"/>
<path d="M299.5 138.5H434.5C435.052 138.5 435.5 138.948 435.5 139.5V143.5C435.5 144.052 435.052 144.5 434.5 144.5H299.5V138.5Z" fill="black" fill-opacity="0.1"/>
<path d="M299.5 207.5H434.5C435.052 207.5 435.5 207.948 435.5 208.5V212.5C435.5 213.052 435.052 213.5 434.5 213.5H299.5V207.5Z" fill="black" fill-opacity="0.1"/>
</g>
<defs>
<filter id="filter0_d_3184_7392" x="191.5" y="12.5" width="356" height="208" filterUnits="userSpaceOnUse" color-interpolation-filters="sRGB">
<feFlood flood-opacity="0" result="BackgroundImageFix"/>
<feColorMatrix in="SourceAlpha" type="matrix" values="0 0 0 0 0 0 0 0 0 0 0 0 0 0 0 0 0 0 127 0" result="hardAlpha"/>
<feOffset dy="2"/>
<feGaussianBlur stdDeviation="2"/>
<feComposite in2="hardAlpha" operator="out"/>
<feColorMatrix type="matrix" values="0 0 0 0 0.435294 0 0 0 0 0.470588 0 0 0 0 0.501961 0 0 0 0.3 0"/>
<feBlend mode="normal" in2="BackgroundImageFix" result="effect1_dropShadow_3184_7392"/>
<feBlend mode="normal" in="SourceGraphic" in2="effect1_dropShadow_3184_7392" result="shape"/>
</filter>
</defs>
</svg>
