<svg
	width="427"
	height="316"
	viewBox="0 0 427 316"
	fill="none"
	xmlns="http://www.w3.org/2000/svg"
>
	<g clip-path="url(#clip0_1410_859)">
		<rect width="375" height="264" transform="translate(0 52)" fill="#FFF1E5"
		></rect>
		<rect y="101" width="375" height="1" fill="black" fill-opacity="0.2"></rect>
		<g opacity="0.8">
			<path
				fill-rule="evenodd"
				clip-rule="evenodd"
				d="M16 75.001H36V72H16V75.001Z"
				fill="black"></path>
			<path
				fill-rule="evenodd"
				clip-rule="evenodd"
				d="M16 81.001H36V78.001H16V81.001Z"
				fill="black"></path>
			<path
				fill-rule="evenodd"
				clip-rule="evenodd"
				d="M16 87.001H36V84.001H16V87.001Z"
				fill="black"></path>
		</g>
		<rect x="16" y="72" width="20" height="16" fill="#D9D9D9"></rect>
		<rect x="77" y="62" width="210" height="32" fill="#D9D9D9"></rect>
		<rect x="327" y="72" width="32" height="16" fill="#D9D9D9"></rect>
		<rect
			x="16"
			y="52"
			width="74"
			height="264"
			fill="#EE7C7C"
			fill-opacity="0.3"></rect>
		<rect
			x="106"
			y="52"
			width="74"
			height="264"
			fill="#EE7C7C"
			fill-opacity="0.3"></rect>
		<rect
			x="196"
			y="52"
			width="74"
			height="264"
			fill="#EE7C7C"
			fill-opacity="0.3"></rect>
		<rect
			x="285"
			y="52"
			width="74"
			height="264"
			fill="#EE7C7C"
			fill-opacity="0.3"></rect>
	</g>
	<path
		d="M47 10C47 4.47715 51.4772 0 57 0C62.5228 0 67 4.47715 67 10C67 15.5228 62.5228 20 57 20C51.4772 20 47 15.5228 47 10Z"
		fill="#990F3D"></path>
	<path
		d="M58.338 6.384V15H56.91V8.136L55.014 9.096V7.62L57.486 6.384H58.338Z"
		fill="white"></path>
	<path
		d="M56 20H58V51C58 51.5523 57.5523 52 57 52C56.4477 52 56 51.5523 56 51V20Z"
		fill="#990F3D"></path>
	<path
		d="M178 10C178 4.47715 182.477 0 188 0C193.523 0 198 4.47715 198 10C198 15.5228 193.523 20 188 20C182.477 20 178 15.5228 178 10Z"
		fill="#990F3D"></path>
	<path
		d="M187.68 13.728H190.728V15H185.124L187.632 11.724C187.904 11.364 188.156 11.028 188.388 10.716C188.62 10.396 188.804 10.084 188.94 9.78C189.084 9.468 189.156 9.148 189.156 8.82C189.156 8.444 189.04 8.14 188.808 7.908C188.584 7.668 188.244 7.548 187.788 7.548C187.46 7.548 187.144 7.608 186.84 7.728C186.544 7.84 186.268 7.988 186.012 8.172C185.756 8.348 185.528 8.536 185.328 8.736V7.296C185.624 6.984 186 6.732 186.456 6.54C186.92 6.34 187.408 6.24 187.92 6.24C188.456 6.24 188.92 6.344 189.312 6.552C189.712 6.752 190.02 7.044 190.236 7.428C190.46 7.804 190.572 8.252 190.572 8.772C190.572 9.156 190.492 9.536 190.332 9.912C190.18 10.288 189.976 10.664 189.72 11.04C189.464 11.416 189.184 11.8 188.88 12.192L187.68 13.728Z"
		fill="white"></path>
	<path
		d="M187 20H189V51C189 51.5523 188.552 52 188 52C187.448 52 187 51.5523 187 51V20Z"
		fill="#990F3D"></path>
	<path
		d="M375 158C375 157.448 375.448 157 376 157H407V159H376C375.448 159 375 158.552 375 158Z"
		fill="#990F3D"></path>
	<path
		d="M407 158C407 152.477 411.477 148 417 148C422.523 148 427 152.477 427 158C427 163.523 422.523 168 417 168C411.477 168 407 163.523 407 158Z"
		fill="#990F3D"></path>
	<path
		d="M414.41 155.656V154.384H419.546L417.65 157.876C418.042 157.964 418.382 158.12 418.67 158.344C418.966 158.568 419.194 158.848 419.354 159.184C419.514 159.52 419.594 159.904 419.594 160.336C419.594 160.912 419.458 161.412 419.186 161.836C418.922 162.252 418.57 162.576 418.13 162.808C417.69 163.032 417.21 163.144 416.69 163.144C416.13 163.144 415.662 163.076 415.286 162.94C414.918 162.796 414.598 162.62 414.326 162.412V160.924C414.63 161.22 414.978 161.452 415.37 161.62C415.77 161.788 416.178 161.872 416.594 161.872C416.938 161.872 417.234 161.82 417.482 161.716C417.73 161.604 417.922 161.436 418.058 161.212C418.202 160.988 418.274 160.7 418.274 160.348C418.274 159.972 418.166 159.664 417.95 159.424C417.734 159.176 417.438 158.996 417.062 158.884C416.694 158.764 416.278 158.704 415.814 158.704L417.458 155.656H414.41Z"
		fill="white"></path>
	<defs>
		<clipPath id="clip0_1410_859">
			<rect width="375" height="264" fill="white" transform="translate(0 52)"
			></rect>
		</clipPath>
	</defs>
</svg>
