<svg width="656" height="382" viewBox="0 0 656 382" fill="none" xmlns="http://www.w3.org/2000/svg">
<line x1="44.5" y1="278" x2="44.5" y2="290" stroke="#3A7DFF"/>
<line x1="179" y1="283.5" x2="44" y2="283.5" stroke="#3A7DFF"/>
<line x1="179.5" y1="278" x2="179.5" y2="290" stroke="#3A7DFF"/>
<line x1="476.5" y1="278" x2="476.5" y2="290" stroke="#3A7DFF"/>
<line x1="611" y1="283.5" x2="476" y2="283.5" stroke="#3A7DFF"/>
<line x1="611.5" y1="278" x2="611.5" y2="290" stroke="#3A7DFF"/>
<line x1="188.5" y1="278" x2="188.5" y2="290" stroke="#3A7DFF"/>
<line x1="468" y1="283.5" x2="188" y2="283.5" stroke="#3A7DFF"/>
<line x1="468.5" y1="278" x2="468.5" y2="290" stroke="#3A7DFF"/>
<line x1="44.5" y1="314" x2="44.5" y2="326" stroke="#3A7DFF"/>
<line x1="228" y1="319.5" x2="44" y2="319.5" stroke="#3A7DFF"/>
<line x1="228.5" y1="314" x2="228.5" y2="326" stroke="#3A7DFF"/>
<line x1="44.5" y1="350" x2="44.5" y2="362" stroke="#3A7DFF"/>
<line x1="612" y1="355.5" x2="44" y2="355.5" stroke="#3A7DFF"/>
<line x1="612.5" y1="350" x2="612.5" y2="362" stroke="#3A7DFF"/>
<line x1="236.5" y1="314" x2="236.5" y2="326" stroke="#3A7DFF"/>
<line x1="420" y1="319.5" x2="236" y2="319.5" stroke="#3A7DFF"/>
<line x1="420.5" y1="314" x2="420.5" y2="326" stroke="#3A7DFF"/>
<line x1="428.5" y1="314" x2="428.5" y2="326" stroke="#3A7DFF"/>
<line x1="612" y1="319.5" x2="428" y2="319.5" stroke="#3A7DFF"/>
<line x1="612.5" y1="314" x2="612.5" y2="326" stroke="#3A7DFF"/>
<path d="M91.483 299.074L90.429 299.372C90.3627 299.196 90.2649 299.026 90.1357 298.86C90.0097 298.691 89.8374 298.552 89.6186 298.442C89.3999 298.333 89.1198 298.278 88.7784 298.278C88.3111 298.278 87.9216 298.386 87.6101 298.602C87.3018 298.814 87.1477 299.084 87.1477 299.412C87.1477 299.704 87.2538 299.934 87.4659 300.103C87.678 300.272 88.0095 300.413 88.4602 300.526L89.5938 300.804C90.2765 300.97 90.7853 301.223 91.12 301.565C91.4548 301.903 91.6222 302.339 91.6222 302.872C91.6222 303.31 91.4962 303.701 91.2443 304.045C90.9957 304.39 90.6477 304.662 90.2003 304.861C89.7528 305.06 89.2325 305.159 88.6392 305.159C87.8603 305.159 87.2157 304.99 86.7053 304.652C86.1948 304.314 85.8717 303.82 85.7358 303.17L86.8494 302.892C86.9555 303.303 87.156 303.611 87.451 303.817C87.7493 304.022 88.1387 304.125 88.6193 304.125C89.1662 304.125 89.6004 304.009 89.9219 303.777C90.2467 303.542 90.4091 303.26 90.4091 302.932C90.4091 302.667 90.3163 302.445 90.1307 302.266C89.9451 302.083 89.66 301.947 89.2756 301.858L88.0028 301.56C87.3035 301.394 86.7898 301.137 86.4616 300.789C86.1368 300.438 85.9744 299.999 85.9744 299.472C85.9744 299.041 86.0954 298.66 86.3374 298.328C86.5826 297.997 86.9157 297.737 87.3366 297.548C87.7609 297.359 88.2415 297.264 88.7784 297.264C89.5341 297.264 90.1274 297.43 90.5582 297.761C90.9924 298.093 91.3007 298.53 91.483 299.074ZM93.3883 307.864V297.364H94.5218V298.577H94.661C94.7472 298.444 94.8665 298.275 95.019 298.07C95.1748 297.861 95.3968 297.675 95.6852 297.513C95.9769 297.347 96.3713 297.264 96.8684 297.264C97.5114 297.264 98.0782 297.425 98.5687 297.746C99.0592 298.068 99.4421 298.524 99.7172 299.114C99.9922 299.704 100.13 300.4 100.13 301.202C100.13 302.01 99.9922 302.711 99.7172 303.305C99.4421 303.895 99.0609 304.352 98.5737 304.677C98.0865 304.998 97.5247 305.159 96.8883 305.159C96.3978 305.159 96.005 305.078 95.71 304.915C95.4151 304.75 95.188 304.562 95.0289 304.354C94.8699 304.142 94.7472 303.966 94.661 303.827H94.5616V307.864H93.3883ZM94.5417 301.182C94.5417 301.759 94.6262 302.267 94.7953 302.708C94.9643 303.146 95.2112 303.489 95.536 303.737C95.8609 303.982 96.2586 304.105 96.7292 304.105C97.2198 304.105 97.6291 303.976 97.9572 303.717C98.2886 303.455 98.5372 303.104 98.7029 302.663C98.872 302.219 98.9565 301.725 98.9565 301.182C98.9565 300.645 98.8736 300.161 98.7079 299.73C98.5455 299.296 98.2986 298.953 97.9672 298.701C97.639 298.446 97.2264 298.318 96.7292 298.318C96.252 298.318 95.8509 298.439 95.5261 298.681C95.2013 298.92 94.956 299.254 94.7903 299.685C94.6246 300.113 94.5417 300.612 94.5417 301.182ZM104.167 305.179C103.683 305.179 103.244 305.088 102.849 304.906C102.455 304.72 102.142 304.453 101.91 304.105C101.678 303.754 101.562 303.33 101.562 302.832C101.562 302.395 101.648 302.04 101.82 301.768C101.992 301.493 102.223 301.278 102.511 301.122C102.8 300.966 103.118 300.85 103.466 300.774C103.817 300.695 104.17 300.632 104.525 300.585C104.989 300.526 105.365 300.481 105.653 300.451C105.945 300.418 106.157 300.363 106.29 300.287C106.425 300.211 106.493 300.078 106.493 299.889V299.849C106.493 299.359 106.359 298.978 106.091 298.706C105.826 298.434 105.423 298.298 104.883 298.298C104.323 298.298 103.883 298.421 103.565 298.666C103.247 298.911 103.023 299.173 102.894 299.452L101.78 299.054C101.979 298.59 102.244 298.229 102.576 297.97C102.911 297.708 103.275 297.526 103.67 297.423C104.067 297.317 104.458 297.264 104.843 297.264C105.088 297.264 105.37 297.294 105.688 297.354C106.01 297.41 106.319 297.528 106.618 297.707C106.919 297.886 107.17 298.156 107.368 298.517C107.567 298.878 107.667 299.362 107.667 299.969V305H106.493V303.966H106.434C106.354 304.132 106.222 304.309 106.036 304.498C105.85 304.687 105.604 304.848 105.295 304.98C104.987 305.113 104.611 305.179 104.167 305.179ZM104.346 304.125C104.81 304.125 105.201 304.034 105.519 303.852C105.84 303.669 106.082 303.434 106.245 303.146C106.411 302.857 106.493 302.554 106.493 302.236V301.162C106.444 301.222 106.334 301.276 106.165 301.326C106 301.372 105.807 301.414 105.589 301.45C105.373 301.483 105.163 301.513 104.957 301.54C104.755 301.563 104.591 301.583 104.465 301.599C104.16 301.639 103.875 301.704 103.61 301.793C103.348 301.879 103.136 302.01 102.974 302.186C102.814 302.358 102.735 302.594 102.735 302.892C102.735 303.3 102.886 303.608 103.187 303.817C103.492 304.022 103.878 304.125 104.346 304.125ZM110.982 300.406V305H109.808V297.364H110.942V298.557H111.041C111.22 298.169 111.492 297.857 111.857 297.622C112.221 297.384 112.692 297.264 113.268 297.264C113.786 297.264 114.238 297.37 114.626 297.582C115.013 297.791 115.315 298.109 115.531 298.537C115.746 298.961 115.854 299.498 115.854 300.148V305H114.68V300.227C114.68 299.627 114.525 299.16 114.213 298.825C113.902 298.487 113.474 298.318 112.93 298.318C112.556 298.318 112.221 298.399 111.926 298.562C111.634 298.724 111.404 298.961 111.235 299.273C111.066 299.584 110.982 299.962 110.982 300.406ZM126.31 299.362V300.456H121.856V299.362H126.31ZM135.733 305.139C135.076 305.139 134.491 305.027 133.978 304.801C133.467 304.576 133.061 304.263 132.76 303.862C132.461 303.457 132.299 302.988 132.272 302.455H133.525C133.552 302.783 133.664 303.066 133.863 303.305C134.062 303.54 134.322 303.722 134.644 303.852C134.965 303.981 135.322 304.045 135.713 304.045C136.15 304.045 136.538 303.969 136.876 303.817C137.214 303.664 137.479 303.452 137.672 303.18C137.864 302.909 137.96 302.594 137.96 302.236C137.96 301.861 137.867 301.531 137.681 301.246C137.496 300.958 137.224 300.733 136.866 300.57C136.508 300.408 136.071 300.327 135.554 300.327H134.738V299.233H135.554C135.958 299.233 136.313 299.16 136.618 299.014C136.926 298.868 137.166 298.663 137.338 298.398C137.514 298.133 137.602 297.821 137.602 297.463C137.602 297.118 137.526 296.818 137.373 296.563C137.221 296.308 137.005 296.109 136.727 295.967C136.452 295.824 136.127 295.753 135.752 295.753C135.401 295.753 135.07 295.817 134.758 295.947C134.45 296.073 134.198 296.257 134.002 296.499C133.807 296.737 133.701 297.026 133.684 297.364H132.491C132.511 296.83 132.672 296.363 132.973 295.962C133.275 295.557 133.669 295.242 134.157 295.017C134.647 294.792 135.186 294.679 135.772 294.679C136.402 294.679 136.942 294.807 137.393 295.062C137.844 295.314 138.19 295.647 138.432 296.061C138.674 296.475 138.795 296.923 138.795 297.403C138.795 297.977 138.644 298.466 138.343 298.87C138.044 299.274 137.638 299.554 137.125 299.71V299.79C137.768 299.896 138.27 300.169 138.631 300.61C138.992 301.048 139.173 301.589 139.173 302.236C139.173 302.789 139.022 303.286 138.721 303.727C138.422 304.165 138.015 304.509 137.498 304.761C136.98 305.013 136.392 305.139 135.733 305.139Z" fill="#333333"/>
<path d="M523.483 299.074L522.429 299.372C522.363 299.196 522.265 299.026 522.136 298.86C522.01 298.691 521.837 298.552 521.619 298.442C521.4 298.333 521.12 298.278 520.778 298.278C520.311 298.278 519.922 298.386 519.61 298.602C519.302 298.814 519.148 299.084 519.148 299.412C519.148 299.704 519.254 299.934 519.466 300.103C519.678 300.272 520.009 300.413 520.46 300.526L521.594 300.804C522.277 300.97 522.785 301.223 523.12 301.565C523.455 301.903 523.622 302.339 523.622 302.872C523.622 303.31 523.496 303.701 523.244 304.045C522.996 304.39 522.648 304.662 522.2 304.861C521.753 305.06 521.232 305.159 520.639 305.159C519.86 305.159 519.216 304.99 518.705 304.652C518.195 304.314 517.872 303.82 517.736 303.17L518.849 302.892C518.955 303.303 519.156 303.611 519.451 303.817C519.749 304.022 520.139 304.125 520.619 304.125C521.166 304.125 521.6 304.009 521.922 303.777C522.247 303.542 522.409 303.26 522.409 302.932C522.409 302.667 522.316 302.445 522.131 302.266C521.945 302.083 521.66 301.947 521.276 301.858L520.003 301.56C519.304 301.394 518.79 301.137 518.462 300.789C518.137 300.438 517.974 299.999 517.974 299.472C517.974 299.041 518.095 298.66 518.337 298.328C518.583 297.997 518.916 297.737 519.337 297.548C519.761 297.359 520.241 297.264 520.778 297.264C521.534 297.264 522.127 297.43 522.558 297.761C522.992 298.093 523.301 298.53 523.483 299.074ZM525.388 307.864V297.364H526.522V298.577H526.661C526.747 298.444 526.867 298.275 527.019 298.07C527.175 297.861 527.397 297.675 527.685 297.513C527.977 297.347 528.371 297.264 528.868 297.264C529.511 297.264 530.078 297.425 530.569 297.746C531.059 298.068 531.442 298.524 531.717 299.114C531.992 299.704 532.13 300.4 532.13 301.202C532.13 302.01 531.992 302.711 531.717 303.305C531.442 303.895 531.061 304.352 530.574 304.677C530.086 304.998 529.525 305.159 528.888 305.159C528.398 305.159 528.005 305.078 527.71 304.915C527.415 304.75 527.188 304.562 527.029 304.354C526.87 304.142 526.747 303.966 526.661 303.827H526.562V307.864H525.388ZM526.542 301.182C526.542 301.759 526.626 302.267 526.795 302.708C526.964 303.146 527.211 303.489 527.536 303.737C527.861 303.982 528.259 304.105 528.729 304.105C529.22 304.105 529.629 303.976 529.957 303.717C530.289 303.455 530.537 303.104 530.703 302.663C530.872 302.219 530.956 301.725 530.956 301.182C530.956 300.645 530.874 300.161 530.708 299.73C530.546 299.296 530.299 298.953 529.967 298.701C529.639 298.446 529.226 298.318 528.729 298.318C528.252 298.318 527.851 298.439 527.526 298.681C527.201 298.92 526.956 299.254 526.79 299.685C526.625 300.113 526.542 300.612 526.542 301.182ZM536.167 305.179C535.683 305.179 535.244 305.088 534.849 304.906C534.455 304.72 534.142 304.453 533.91 304.105C533.678 303.754 533.562 303.33 533.562 302.832C533.562 302.395 533.648 302.04 533.82 301.768C533.992 301.493 534.223 301.278 534.511 301.122C534.8 300.966 535.118 300.85 535.466 300.774C535.817 300.695 536.17 300.632 536.525 300.585C536.989 300.526 537.365 300.481 537.653 300.451C537.945 300.418 538.157 300.363 538.29 300.287C538.425 300.211 538.493 300.078 538.493 299.889V299.849C538.493 299.359 538.359 298.978 538.091 298.706C537.826 298.434 537.423 298.298 536.883 298.298C536.323 298.298 535.883 298.421 535.565 298.666C535.247 298.911 535.023 299.173 534.894 299.452L533.78 299.054C533.979 298.59 534.244 298.229 534.576 297.97C534.911 297.708 535.275 297.526 535.67 297.423C536.067 297.317 536.458 297.264 536.843 297.264C537.088 297.264 537.37 297.294 537.688 297.354C538.01 297.41 538.319 297.528 538.618 297.707C538.919 297.886 539.17 298.156 539.368 298.517C539.567 298.878 539.667 299.362 539.667 299.969V305H538.493V303.966H538.434C538.354 304.132 538.222 304.309 538.036 304.498C537.85 304.687 537.604 304.848 537.295 304.98C536.987 305.113 536.611 305.179 536.167 305.179ZM536.346 304.125C536.81 304.125 537.201 304.034 537.519 303.852C537.84 303.669 538.082 303.434 538.245 303.146C538.411 302.857 538.493 302.554 538.493 302.236V301.162C538.444 301.222 538.334 301.276 538.165 301.326C538 301.372 537.807 301.414 537.589 301.45C537.373 301.483 537.163 301.513 536.957 301.54C536.755 301.563 536.591 301.583 536.465 301.599C536.16 301.639 535.875 301.704 535.61 301.793C535.348 301.879 535.136 302.01 534.974 302.186C534.814 302.358 534.735 302.594 534.735 302.892C534.735 303.3 534.886 303.608 535.187 303.817C535.492 304.022 535.878 304.125 536.346 304.125ZM542.982 300.406V305H541.808V297.364H542.942V298.557H543.041C543.22 298.169 543.492 297.857 543.857 297.622C544.221 297.384 544.692 297.264 545.268 297.264C545.786 297.264 546.238 297.37 546.626 297.582C547.013 297.791 547.315 298.109 547.531 298.537C547.746 298.961 547.854 299.498 547.854 300.148V305H546.68V300.227C546.68 299.627 546.525 299.16 546.213 298.825C545.902 298.487 545.474 298.318 544.93 298.318C544.556 298.318 544.221 298.399 543.926 298.562C543.634 298.724 543.404 298.961 543.235 299.273C543.066 299.584 542.982 299.962 542.982 300.406ZM558.31 299.362V300.456H553.856V299.362H558.31ZM567.733 305.139C567.076 305.139 566.491 305.027 565.978 304.801C565.467 304.576 565.061 304.263 564.76 303.862C564.461 303.457 564.299 302.988 564.272 302.455H565.525C565.552 302.783 565.664 303.066 565.863 303.305C566.062 303.54 566.322 303.722 566.644 303.852C566.965 303.981 567.322 304.045 567.713 304.045C568.15 304.045 568.538 303.969 568.876 303.817C569.214 303.664 569.479 303.452 569.672 303.18C569.864 302.909 569.96 302.594 569.96 302.236C569.96 301.861 569.867 301.531 569.681 301.246C569.496 300.958 569.224 300.733 568.866 300.57C568.508 300.408 568.071 300.327 567.554 300.327H566.738V299.233H567.554C567.958 299.233 568.313 299.16 568.618 299.014C568.926 298.868 569.166 298.663 569.338 298.398C569.514 298.133 569.602 297.821 569.602 297.463C569.602 297.118 569.526 296.818 569.373 296.563C569.221 296.308 569.005 296.109 568.727 295.967C568.452 295.824 568.127 295.753 567.752 295.753C567.401 295.753 567.07 295.817 566.758 295.947C566.45 296.073 566.198 296.257 566.002 296.499C565.807 296.737 565.701 297.026 565.684 297.364H564.491C564.511 296.83 564.672 296.363 564.973 295.962C565.275 295.557 565.669 295.242 566.157 295.017C566.647 294.792 567.186 294.679 567.772 294.679C568.402 294.679 568.942 294.807 569.393 295.062C569.844 295.314 570.19 295.647 570.432 296.061C570.674 296.475 570.795 296.923 570.795 297.403C570.795 297.977 570.644 298.466 570.343 298.87C570.044 299.274 569.638 299.554 569.125 299.71V299.79C569.768 299.896 570.27 300.169 570.631 300.61C570.992 301.048 571.173 301.589 571.173 302.236C571.173 302.789 571.022 303.286 570.721 303.727C570.422 304.165 570.015 304.509 569.498 304.761C568.98 305.013 568.392 305.139 567.733 305.139Z" fill="#333333"/>
<path d="M306.483 299.074L305.429 299.372C305.363 299.196 305.265 299.026 305.136 298.86C305.01 298.691 304.837 298.552 304.619 298.442C304.4 298.333 304.12 298.278 303.778 298.278C303.311 298.278 302.922 298.386 302.61 298.602C302.302 298.814 302.148 299.084 302.148 299.412C302.148 299.704 302.254 299.934 302.466 300.103C302.678 300.272 303.009 300.413 303.46 300.526L304.594 300.804C305.277 300.97 305.785 301.223 306.12 301.565C306.455 301.903 306.622 302.339 306.622 302.872C306.622 303.31 306.496 303.701 306.244 304.045C305.996 304.39 305.648 304.662 305.2 304.861C304.753 305.06 304.232 305.159 303.639 305.159C302.86 305.159 302.216 304.99 301.705 304.652C301.195 304.314 300.872 303.82 300.736 303.17L301.849 302.892C301.955 303.303 302.156 303.611 302.451 303.817C302.749 304.022 303.139 304.125 303.619 304.125C304.166 304.125 304.6 304.009 304.922 303.777C305.247 303.542 305.409 303.26 305.409 302.932C305.409 302.667 305.316 302.445 305.131 302.266C304.945 302.083 304.66 301.947 304.276 301.858L303.003 301.56C302.304 301.394 301.79 301.137 301.462 300.789C301.137 300.438 300.974 299.999 300.974 299.472C300.974 299.041 301.095 298.66 301.337 298.328C301.583 297.997 301.916 297.737 302.337 297.548C302.761 297.359 303.241 297.264 303.778 297.264C304.534 297.264 305.127 297.43 305.558 297.761C305.992 298.093 306.301 298.53 306.483 299.074ZM308.388 307.864V297.364H309.522V298.577H309.661C309.747 298.444 309.867 298.275 310.019 298.07C310.175 297.861 310.397 297.675 310.685 297.513C310.977 297.347 311.371 297.264 311.868 297.264C312.511 297.264 313.078 297.425 313.569 297.746C314.059 298.068 314.442 298.524 314.717 299.114C314.992 299.704 315.13 300.4 315.13 301.202C315.13 302.01 314.992 302.711 314.717 303.305C314.442 303.895 314.061 304.352 313.574 304.677C313.086 304.998 312.525 305.159 311.888 305.159C311.398 305.159 311.005 305.078 310.71 304.915C310.415 304.75 310.188 304.562 310.029 304.354C309.87 304.142 309.747 303.966 309.661 303.827H309.562V307.864H308.388ZM309.542 301.182C309.542 301.759 309.626 302.267 309.795 302.708C309.964 303.146 310.211 303.489 310.536 303.737C310.861 303.982 311.259 304.105 311.729 304.105C312.22 304.105 312.629 303.976 312.957 303.717C313.289 303.455 313.537 303.104 313.703 302.663C313.872 302.219 313.956 301.725 313.956 301.182C313.956 300.645 313.874 300.161 313.708 299.73C313.546 299.296 313.299 298.953 312.967 298.701C312.639 298.446 312.226 298.318 311.729 298.318C311.252 298.318 310.851 298.439 310.526 298.681C310.201 298.92 309.956 299.254 309.79 299.685C309.625 300.113 309.542 300.612 309.542 301.182ZM319.167 305.179C318.683 305.179 318.244 305.088 317.849 304.906C317.455 304.72 317.142 304.453 316.91 304.105C316.678 303.754 316.562 303.33 316.562 302.832C316.562 302.395 316.648 302.04 316.82 301.768C316.992 301.493 317.223 301.278 317.511 301.122C317.8 300.966 318.118 300.85 318.466 300.774C318.817 300.695 319.17 300.632 319.525 300.585C319.989 300.526 320.365 300.481 320.653 300.451C320.945 300.418 321.157 300.363 321.29 300.287C321.425 300.211 321.493 300.078 321.493 299.889V299.849C321.493 299.359 321.359 298.978 321.091 298.706C320.826 298.434 320.423 298.298 319.883 298.298C319.323 298.298 318.883 298.421 318.565 298.666C318.247 298.911 318.023 299.173 317.894 299.452L316.78 299.054C316.979 298.59 317.244 298.229 317.576 297.97C317.911 297.708 318.275 297.526 318.67 297.423C319.067 297.317 319.458 297.264 319.843 297.264C320.088 297.264 320.37 297.294 320.688 297.354C321.01 297.41 321.319 297.528 321.618 297.707C321.919 297.886 322.17 298.156 322.368 298.517C322.567 298.878 322.667 299.362 322.667 299.969V305H321.493V303.966H321.434C321.354 304.132 321.222 304.309 321.036 304.498C320.85 304.687 320.604 304.848 320.295 304.98C319.987 305.113 319.611 305.179 319.167 305.179ZM319.346 304.125C319.81 304.125 320.201 304.034 320.519 303.852C320.84 303.669 321.082 303.434 321.245 303.146C321.411 302.857 321.493 302.554 321.493 302.236V301.162C321.444 301.222 321.334 301.276 321.165 301.326C321 301.372 320.807 301.414 320.589 301.45C320.373 301.483 320.163 301.513 319.957 301.54C319.755 301.563 319.591 301.583 319.465 301.599C319.16 301.639 318.875 301.704 318.61 301.793C318.348 301.879 318.136 302.01 317.974 302.186C317.814 302.358 317.735 302.594 317.735 302.892C317.735 303.3 317.886 303.608 318.187 303.817C318.492 304.022 318.878 304.125 319.346 304.125ZM325.982 300.406V305H324.808V297.364H325.942V298.557H326.041C326.22 298.169 326.492 297.857 326.857 297.622C327.221 297.384 327.692 297.264 328.268 297.264C328.786 297.264 329.238 297.37 329.626 297.582C330.013 297.791 330.315 298.109 330.531 298.537C330.746 298.961 330.854 299.498 330.854 300.148V305H329.68V300.227C329.68 299.627 329.525 299.16 329.213 298.825C328.902 298.487 328.474 298.318 327.93 298.318C327.556 298.318 327.221 298.399 326.926 298.562C326.634 298.724 326.404 298.961 326.235 299.273C326.066 299.584 325.982 299.962 325.982 300.406ZM341.31 299.362V300.456H336.856V299.362H341.31ZM350.673 305.139C350.255 305.133 349.838 305.053 349.42 304.901C349.002 304.748 348.621 304.491 348.277 304.13C347.932 303.765 347.655 303.273 347.446 302.653C347.238 302.03 347.133 301.248 347.133 300.307C347.133 299.405 347.218 298.607 347.387 297.911C347.556 297.211 347.801 296.623 348.123 296.146C348.444 295.665 348.832 295.3 349.286 295.052C349.743 294.803 350.259 294.679 350.832 294.679C351.402 294.679 351.909 294.793 352.353 295.022C352.801 295.247 353.165 295.562 353.447 295.967C353.729 296.371 353.911 296.837 353.994 297.364H352.781C352.668 296.906 352.449 296.527 352.125 296.225C351.8 295.924 351.369 295.773 350.832 295.773C350.043 295.773 349.422 296.116 348.968 296.802C348.517 297.488 348.29 298.451 348.287 299.69H348.366C348.552 299.409 348.772 299.168 349.027 298.969C349.286 298.767 349.571 298.612 349.882 298.502C350.194 298.393 350.524 298.338 350.872 298.338C351.455 298.338 351.989 298.484 352.473 298.776C352.957 299.064 353.344 299.463 353.636 299.974C353.928 300.481 354.074 301.062 354.074 301.719C354.074 302.348 353.933 302.925 353.651 303.449C353.369 303.969 352.973 304.384 352.463 304.692C351.956 304.997 351.359 305.146 350.673 305.139ZM350.673 304.045C351.091 304.045 351.465 303.941 351.797 303.732C352.131 303.523 352.395 303.243 352.587 302.892C352.783 302.541 352.88 302.15 352.88 301.719C352.88 301.298 352.786 300.915 352.597 300.57C352.411 300.222 352.154 299.946 351.826 299.74C351.502 299.535 351.13 299.432 350.713 299.432C350.398 299.432 350.105 299.495 349.833 299.621C349.561 299.743 349.322 299.912 349.117 300.128C348.915 300.343 348.756 300.59 348.64 300.869C348.524 301.144 348.466 301.434 348.466 301.739C348.466 302.143 348.56 302.521 348.749 302.872C348.941 303.223 349.203 303.507 349.534 303.722C349.869 303.938 350.249 304.045 350.673 304.045Z" fill="#333333"/>
<path d="M114.483 335.074L113.429 335.372C113.363 335.196 113.265 335.026 113.136 334.86C113.01 334.691 112.837 334.552 112.619 334.442C112.4 334.333 112.12 334.278 111.778 334.278C111.311 334.278 110.922 334.386 110.61 334.602C110.302 334.814 110.148 335.084 110.148 335.412C110.148 335.704 110.254 335.934 110.466 336.103C110.678 336.272 111.009 336.413 111.46 336.526L112.594 336.804C113.277 336.97 113.785 337.223 114.12 337.565C114.455 337.903 114.622 338.339 114.622 338.872C114.622 339.31 114.496 339.701 114.244 340.045C113.996 340.39 113.648 340.662 113.2 340.861C112.753 341.06 112.232 341.159 111.639 341.159C110.86 341.159 110.216 340.99 109.705 340.652C109.195 340.314 108.872 339.82 108.736 339.17L109.849 338.892C109.955 339.303 110.156 339.611 110.451 339.817C110.749 340.022 111.139 340.125 111.619 340.125C112.166 340.125 112.6 340.009 112.922 339.777C113.247 339.542 113.409 339.26 113.409 338.932C113.409 338.667 113.316 338.445 113.131 338.266C112.945 338.083 112.66 337.947 112.276 337.858L111.003 337.56C110.304 337.394 109.79 337.137 109.462 336.789C109.137 336.438 108.974 335.999 108.974 335.472C108.974 335.041 109.095 334.66 109.337 334.328C109.583 333.997 109.916 333.737 110.337 333.548C110.761 333.359 111.241 333.264 111.778 333.264C112.534 333.264 113.127 333.43 113.558 333.761C113.992 334.093 114.301 334.53 114.483 335.074ZM116.388 343.864V333.364H117.522V334.577H117.661C117.747 334.444 117.867 334.275 118.019 334.07C118.175 333.861 118.397 333.675 118.685 333.513C118.977 333.347 119.371 333.264 119.868 333.264C120.511 333.264 121.078 333.425 121.569 333.746C122.059 334.068 122.442 334.524 122.717 335.114C122.992 335.704 123.13 336.4 123.13 337.202C123.13 338.01 122.992 338.711 122.717 339.305C122.442 339.895 122.061 340.352 121.574 340.677C121.086 340.998 120.525 341.159 119.888 341.159C119.398 341.159 119.005 341.078 118.71 340.915C118.415 340.75 118.188 340.562 118.029 340.354C117.87 340.142 117.747 339.966 117.661 339.827H117.562V343.864H116.388ZM117.542 337.182C117.542 337.759 117.626 338.267 117.795 338.708C117.964 339.146 118.211 339.489 118.536 339.737C118.861 339.982 119.259 340.105 119.729 340.105C120.22 340.105 120.629 339.976 120.957 339.717C121.289 339.455 121.537 339.104 121.703 338.663C121.872 338.219 121.956 337.725 121.956 337.182C121.956 336.645 121.874 336.161 121.708 335.73C121.546 335.296 121.299 334.953 120.967 334.701C120.639 334.446 120.226 334.318 119.729 334.318C119.252 334.318 118.851 334.439 118.526 334.681C118.201 334.92 117.956 335.254 117.79 335.685C117.625 336.113 117.542 336.612 117.542 337.182ZM127.167 341.179C126.683 341.179 126.244 341.088 125.849 340.906C125.455 340.72 125.142 340.453 124.91 340.105C124.678 339.754 124.562 339.33 124.562 338.832C124.562 338.395 124.648 338.04 124.82 337.768C124.992 337.493 125.223 337.278 125.511 337.122C125.8 336.966 126.118 336.85 126.466 336.774C126.817 336.695 127.17 336.632 127.525 336.585C127.989 336.526 128.365 336.481 128.653 336.451C128.945 336.418 129.157 336.363 129.29 336.287C129.425 336.211 129.493 336.078 129.493 335.889V335.849C129.493 335.359 129.359 334.978 129.091 334.706C128.826 334.434 128.423 334.298 127.883 334.298C127.323 334.298 126.883 334.421 126.565 334.666C126.247 334.911 126.023 335.173 125.894 335.452L124.78 335.054C124.979 334.59 125.244 334.229 125.576 333.97C125.911 333.708 126.275 333.526 126.67 333.423C127.067 333.317 127.458 333.264 127.843 333.264C128.088 333.264 128.37 333.294 128.688 333.354C129.01 333.41 129.319 333.528 129.618 333.707C129.919 333.886 130.17 334.156 130.368 334.517C130.567 334.878 130.667 335.362 130.667 335.969V341H129.493V339.966H129.434C129.354 340.132 129.222 340.309 129.036 340.498C128.85 340.687 128.604 340.848 128.295 340.98C127.987 341.113 127.611 341.179 127.167 341.179ZM127.346 340.125C127.81 340.125 128.201 340.034 128.519 339.852C128.84 339.669 129.082 339.434 129.245 339.146C129.411 338.857 129.493 338.554 129.493 338.236V337.162C129.444 337.222 129.334 337.276 129.165 337.326C129 337.372 128.807 337.414 128.589 337.45C128.373 337.483 128.163 337.513 127.957 337.54C127.755 337.563 127.591 337.583 127.465 337.599C127.16 337.639 126.875 337.704 126.61 337.793C126.348 337.879 126.136 338.01 125.974 338.186C125.814 338.358 125.735 338.594 125.735 338.892C125.735 339.3 125.886 339.608 126.187 339.817C126.492 340.022 126.878 340.125 127.346 340.125ZM133.982 336.406V341H132.808V333.364H133.942V334.557H134.041C134.22 334.169 134.492 333.857 134.857 333.622C135.221 333.384 135.692 333.264 136.268 333.264C136.786 333.264 137.238 333.37 137.626 333.582C138.013 333.791 138.315 334.109 138.531 334.537C138.746 334.961 138.854 335.498 138.854 336.148V341H137.68V336.227C137.68 335.627 137.525 335.16 137.213 334.825C136.902 334.487 136.474 334.318 135.93 334.318C135.556 334.318 135.221 334.399 134.926 334.562C134.634 334.724 134.404 334.961 134.235 335.273C134.066 335.584 133.982 335.962 133.982 336.406ZM149.31 335.362V336.456H144.856V335.362H149.31ZM155.054 338.912V337.898L159.528 330.818H160.264V332.389H159.767L156.386 337.739V337.818H162.412V338.912H155.054ZM159.846 341V338.604V338.131V330.818H161.02V341H159.846Z" fill="#333333"/>
<path d="M306.483 335.074L305.429 335.372C305.363 335.196 305.265 335.026 305.136 334.86C305.01 334.691 304.837 334.552 304.619 334.442C304.4 334.333 304.12 334.278 303.778 334.278C303.311 334.278 302.922 334.386 302.61 334.602C302.302 334.814 302.148 335.084 302.148 335.412C302.148 335.704 302.254 335.934 302.466 336.103C302.678 336.272 303.009 336.413 303.46 336.526L304.594 336.804C305.277 336.97 305.785 337.223 306.12 337.565C306.455 337.903 306.622 338.339 306.622 338.872C306.622 339.31 306.496 339.701 306.244 340.045C305.996 340.39 305.648 340.662 305.2 340.861C304.753 341.06 304.232 341.159 303.639 341.159C302.86 341.159 302.216 340.99 301.705 340.652C301.195 340.314 300.872 339.82 300.736 339.17L301.849 338.892C301.955 339.303 302.156 339.611 302.451 339.817C302.749 340.022 303.139 340.125 303.619 340.125C304.166 340.125 304.6 340.009 304.922 339.777C305.247 339.542 305.409 339.26 305.409 338.932C305.409 338.667 305.316 338.445 305.131 338.266C304.945 338.083 304.66 337.947 304.276 337.858L303.003 337.56C302.304 337.394 301.79 337.137 301.462 336.789C301.137 336.438 300.974 335.999 300.974 335.472C300.974 335.041 301.095 334.66 301.337 334.328C301.583 333.997 301.916 333.737 302.337 333.548C302.761 333.359 303.241 333.264 303.778 333.264C304.534 333.264 305.127 333.43 305.558 333.761C305.992 334.093 306.301 334.53 306.483 335.074ZM308.388 343.864V333.364H309.522V334.577H309.661C309.747 334.444 309.867 334.275 310.019 334.07C310.175 333.861 310.397 333.675 310.685 333.513C310.977 333.347 311.371 333.264 311.868 333.264C312.511 333.264 313.078 333.425 313.569 333.746C314.059 334.068 314.442 334.524 314.717 335.114C314.992 335.704 315.13 336.4 315.13 337.202C315.13 338.01 314.992 338.711 314.717 339.305C314.442 339.895 314.061 340.352 313.574 340.677C313.086 340.998 312.525 341.159 311.888 341.159C311.398 341.159 311.005 341.078 310.71 340.915C310.415 340.75 310.188 340.562 310.029 340.354C309.87 340.142 309.747 339.966 309.661 339.827H309.562V343.864H308.388ZM309.542 337.182C309.542 337.759 309.626 338.267 309.795 338.708C309.964 339.146 310.211 339.489 310.536 339.737C310.861 339.982 311.259 340.105 311.729 340.105C312.22 340.105 312.629 339.976 312.957 339.717C313.289 339.455 313.537 339.104 313.703 338.663C313.872 338.219 313.956 337.725 313.956 337.182C313.956 336.645 313.874 336.161 313.708 335.73C313.546 335.296 313.299 334.953 312.967 334.701C312.639 334.446 312.226 334.318 311.729 334.318C311.252 334.318 310.851 334.439 310.526 334.681C310.201 334.92 309.956 335.254 309.79 335.685C309.625 336.113 309.542 336.612 309.542 337.182ZM319.167 341.179C318.683 341.179 318.244 341.088 317.849 340.906C317.455 340.72 317.142 340.453 316.91 340.105C316.678 339.754 316.562 339.33 316.562 338.832C316.562 338.395 316.648 338.04 316.82 337.768C316.992 337.493 317.223 337.278 317.511 337.122C317.8 336.966 318.118 336.85 318.466 336.774C318.817 336.695 319.17 336.632 319.525 336.585C319.989 336.526 320.365 336.481 320.653 336.451C320.945 336.418 321.157 336.363 321.29 336.287C321.425 336.211 321.493 336.078 321.493 335.889V335.849C321.493 335.359 321.359 334.978 321.091 334.706C320.826 334.434 320.423 334.298 319.883 334.298C319.323 334.298 318.883 334.421 318.565 334.666C318.247 334.911 318.023 335.173 317.894 335.452L316.78 335.054C316.979 334.59 317.244 334.229 317.576 333.97C317.911 333.708 318.275 333.526 318.67 333.423C319.067 333.317 319.458 333.264 319.843 333.264C320.088 333.264 320.37 333.294 320.688 333.354C321.01 333.41 321.319 333.528 321.618 333.707C321.919 333.886 322.17 334.156 322.368 334.517C322.567 334.878 322.667 335.362 322.667 335.969V341H321.493V339.966H321.434C321.354 340.132 321.222 340.309 321.036 340.498C320.85 340.687 320.604 340.848 320.295 340.98C319.987 341.113 319.611 341.179 319.167 341.179ZM319.346 340.125C319.81 340.125 320.201 340.034 320.519 339.852C320.84 339.669 321.082 339.434 321.245 339.146C321.411 338.857 321.493 338.554 321.493 338.236V337.162C321.444 337.222 321.334 337.276 321.165 337.326C321 337.372 320.807 337.414 320.589 337.45C320.373 337.483 320.163 337.513 319.957 337.54C319.755 337.563 319.591 337.583 319.465 337.599C319.16 337.639 318.875 337.704 318.61 337.793C318.348 337.879 318.136 338.01 317.974 338.186C317.814 338.358 317.735 338.594 317.735 338.892C317.735 339.3 317.886 339.608 318.187 339.817C318.492 340.022 318.878 340.125 319.346 340.125ZM325.982 336.406V341H324.808V333.364H325.942V334.557H326.041C326.22 334.169 326.492 333.857 326.857 333.622C327.221 333.384 327.692 333.264 328.268 333.264C328.786 333.264 329.238 333.37 329.626 333.582C330.013 333.791 330.315 334.109 330.531 334.537C330.746 334.961 330.854 335.498 330.854 336.148V341H329.68V336.227C329.68 335.627 329.525 335.16 329.213 334.825C328.902 334.487 328.474 334.318 327.93 334.318C327.556 334.318 327.221 334.399 326.926 334.562C326.634 334.724 326.404 334.961 326.235 335.273C326.066 335.584 325.982 335.962 325.982 336.406ZM341.31 335.362V336.456H336.856V335.362H341.31ZM347.054 338.912V337.898L351.528 330.818H352.264V332.389H351.767L348.386 337.739V337.818H354.412V338.912H347.054ZM351.846 341V338.604V338.131V330.818H353.02V341H351.846Z" fill="#333333"/>
<path d="M306.483 371.074L305.429 371.372C305.363 371.196 305.265 371.026 305.136 370.86C305.01 370.691 304.837 370.552 304.619 370.442C304.4 370.333 304.12 370.278 303.778 370.278C303.311 370.278 302.922 370.386 302.61 370.602C302.302 370.814 302.148 371.084 302.148 371.412C302.148 371.704 302.254 371.934 302.466 372.103C302.678 372.272 303.009 372.413 303.46 372.526L304.594 372.804C305.277 372.97 305.785 373.223 306.12 373.565C306.455 373.903 306.622 374.339 306.622 374.872C306.622 375.31 306.496 375.701 306.244 376.045C305.996 376.39 305.648 376.662 305.2 376.861C304.753 377.06 304.232 377.159 303.639 377.159C302.86 377.159 302.216 376.99 301.705 376.652C301.195 376.314 300.872 375.82 300.736 375.17L301.849 374.892C301.955 375.303 302.156 375.611 302.451 375.817C302.749 376.022 303.139 376.125 303.619 376.125C304.166 376.125 304.6 376.009 304.922 375.777C305.247 375.542 305.409 375.26 305.409 374.932C305.409 374.667 305.316 374.445 305.131 374.266C304.945 374.083 304.66 373.947 304.276 373.858L303.003 373.56C302.304 373.394 301.79 373.137 301.462 372.789C301.137 372.438 300.974 371.999 300.974 371.472C300.974 371.041 301.095 370.66 301.337 370.328C301.583 369.997 301.916 369.737 302.337 369.548C302.761 369.359 303.241 369.264 303.778 369.264C304.534 369.264 305.127 369.43 305.558 369.761C305.992 370.093 306.301 370.53 306.483 371.074ZM308.388 379.864V369.364H309.522V370.577H309.661C309.747 370.444 309.867 370.275 310.019 370.07C310.175 369.861 310.397 369.675 310.685 369.513C310.977 369.347 311.371 369.264 311.868 369.264C312.511 369.264 313.078 369.425 313.569 369.746C314.059 370.068 314.442 370.524 314.717 371.114C314.992 371.704 315.13 372.4 315.13 373.202C315.13 374.01 314.992 374.711 314.717 375.305C314.442 375.895 314.061 376.352 313.574 376.677C313.086 376.998 312.525 377.159 311.888 377.159C311.398 377.159 311.005 377.078 310.71 376.915C310.415 376.75 310.188 376.562 310.029 376.354C309.87 376.142 309.747 375.966 309.661 375.827H309.562V379.864H308.388ZM309.542 373.182C309.542 373.759 309.626 374.267 309.795 374.708C309.964 375.146 310.211 375.489 310.536 375.737C310.861 375.982 311.259 376.105 311.729 376.105C312.22 376.105 312.629 375.976 312.957 375.717C313.289 375.455 313.537 375.104 313.703 374.663C313.872 374.219 313.956 373.725 313.956 373.182C313.956 372.645 313.874 372.161 313.708 371.73C313.546 371.296 313.299 370.953 312.967 370.701C312.639 370.446 312.226 370.318 311.729 370.318C311.252 370.318 310.851 370.439 310.526 370.681C310.201 370.92 309.956 371.254 309.79 371.685C309.625 372.113 309.542 372.612 309.542 373.182ZM319.167 377.179C318.683 377.179 318.244 377.088 317.849 376.906C317.455 376.72 317.142 376.453 316.91 376.105C316.678 375.754 316.562 375.33 316.562 374.832C316.562 374.395 316.648 374.04 316.82 373.768C316.992 373.493 317.223 373.278 317.511 373.122C317.8 372.966 318.118 372.85 318.466 372.774C318.817 372.695 319.17 372.632 319.525 372.585C319.989 372.526 320.365 372.481 320.653 372.451C320.945 372.418 321.157 372.363 321.29 372.287C321.425 372.211 321.493 372.078 321.493 371.889V371.849C321.493 371.359 321.359 370.978 321.091 370.706C320.826 370.434 320.423 370.298 319.883 370.298C319.323 370.298 318.883 370.421 318.565 370.666C318.247 370.911 318.023 371.173 317.894 371.452L316.78 371.054C316.979 370.59 317.244 370.229 317.576 369.97C317.911 369.708 318.275 369.526 318.67 369.423C319.067 369.317 319.458 369.264 319.843 369.264C320.088 369.264 320.37 369.294 320.688 369.354C321.01 369.41 321.319 369.528 321.618 369.707C321.919 369.886 322.17 370.156 322.368 370.517C322.567 370.878 322.667 371.362 322.667 371.969V377H321.493V375.966H321.434C321.354 376.132 321.222 376.309 321.036 376.498C320.85 376.687 320.604 376.848 320.295 376.98C319.987 377.113 319.611 377.179 319.167 377.179ZM319.346 376.125C319.81 376.125 320.201 376.034 320.519 375.852C320.84 375.669 321.082 375.434 321.245 375.146C321.411 374.857 321.493 374.554 321.493 374.236V373.162C321.444 373.222 321.334 373.276 321.165 373.326C321 373.372 320.807 373.414 320.589 373.45C320.373 373.483 320.163 373.513 319.957 373.54C319.755 373.563 319.591 373.583 319.465 373.599C319.16 373.639 318.875 373.704 318.61 373.793C318.348 373.879 318.136 374.01 317.974 374.186C317.814 374.358 317.735 374.594 317.735 374.892C317.735 375.3 317.886 375.608 318.187 375.817C318.492 376.022 318.878 376.125 319.346 376.125ZM325.982 372.406V377H324.808V369.364H325.942V370.557H326.041C326.22 370.169 326.492 369.857 326.857 369.622C327.221 369.384 327.692 369.264 328.268 369.264C328.786 369.264 329.238 369.37 329.626 369.582C330.013 369.791 330.315 370.109 330.531 370.537C330.746 370.961 330.854 371.498 330.854 372.148V377H329.68V372.227C329.68 371.627 329.525 371.16 329.213 370.825C328.902 370.487 328.474 370.318 327.93 370.318C327.556 370.318 327.221 370.399 326.926 370.562C326.634 370.724 326.404 370.961 326.235 371.273C326.066 371.584 325.982 371.962 325.982 372.406ZM341.31 371.362V372.456H336.856V371.362H341.31ZM350.872 366.818V377H349.639V368.111H349.579L347.093 369.761V368.509L349.639 366.818H350.872ZM353.8 377V376.105L357.161 372.426C357.555 371.995 357.88 371.621 358.135 371.303C358.391 370.981 358.579 370.679 358.702 370.398C358.828 370.113 358.891 369.814 358.891 369.503C358.891 369.145 358.805 368.835 358.632 368.573C358.463 368.311 358.231 368.109 357.936 367.967C357.641 367.824 357.31 367.753 356.942 367.753C356.551 367.753 356.21 367.834 355.918 367.996C355.63 368.156 355.406 368.379 355.247 368.668C355.091 368.956 355.013 369.294 355.013 369.682H353.84C353.84 369.085 353.977 368.562 354.252 368.111C354.528 367.66 354.902 367.309 355.376 367.057C355.853 366.805 356.389 366.679 356.982 366.679C357.578 366.679 358.107 366.805 358.568 367.057C359.029 367.309 359.39 367.648 359.652 368.076C359.913 368.504 360.044 368.979 360.044 369.503C360.044 369.877 359.976 370.244 359.841 370.602C359.708 370.956 359.476 371.352 359.145 371.79C358.816 372.224 358.361 372.754 357.777 373.381L355.49 375.827V375.906H360.223V377H353.8Z" fill="#333333"/>
<path d="M498.483 335.074L497.429 335.372C497.363 335.196 497.265 335.026 497.136 334.86C497.01 334.691 496.837 334.552 496.619 334.442C496.4 334.333 496.12 334.278 495.778 334.278C495.311 334.278 494.922 334.386 494.61 334.602C494.302 334.814 494.148 335.084 494.148 335.412C494.148 335.704 494.254 335.934 494.466 336.103C494.678 336.272 495.009 336.413 495.46 336.526L496.594 336.804C497.277 336.97 497.785 337.223 498.12 337.565C498.455 337.903 498.622 338.339 498.622 338.872C498.622 339.31 498.496 339.701 498.244 340.045C497.996 340.39 497.648 340.662 497.2 340.861C496.753 341.06 496.232 341.159 495.639 341.159C494.86 341.159 494.216 340.99 493.705 340.652C493.195 340.314 492.872 339.82 492.736 339.17L493.849 338.892C493.955 339.303 494.156 339.611 494.451 339.817C494.749 340.022 495.139 340.125 495.619 340.125C496.166 340.125 496.6 340.009 496.922 339.777C497.247 339.542 497.409 339.26 497.409 338.932C497.409 338.667 497.316 338.445 497.131 338.266C496.945 338.083 496.66 337.947 496.276 337.858L495.003 337.56C494.304 337.394 493.79 337.137 493.462 336.789C493.137 336.438 492.974 335.999 492.974 335.472C492.974 335.041 493.095 334.66 493.337 334.328C493.583 333.997 493.916 333.737 494.337 333.548C494.761 333.359 495.241 333.264 495.778 333.264C496.534 333.264 497.127 333.43 497.558 333.761C497.992 334.093 498.301 334.53 498.483 335.074ZM500.388 343.864V333.364H501.522V334.577H501.661C501.747 334.444 501.867 334.275 502.019 334.07C502.175 333.861 502.397 333.675 502.685 333.513C502.977 333.347 503.371 333.264 503.868 333.264C504.511 333.264 505.078 333.425 505.569 333.746C506.059 334.068 506.442 334.524 506.717 335.114C506.992 335.704 507.13 336.4 507.13 337.202C507.13 338.01 506.992 338.711 506.717 339.305C506.442 339.895 506.061 340.352 505.574 340.677C505.086 340.998 504.525 341.159 503.888 341.159C503.398 341.159 503.005 341.078 502.71 340.915C502.415 340.75 502.188 340.562 502.029 340.354C501.87 340.142 501.747 339.966 501.661 339.827H501.562V343.864H500.388ZM501.542 337.182C501.542 337.759 501.626 338.267 501.795 338.708C501.964 339.146 502.211 339.489 502.536 339.737C502.861 339.982 503.259 340.105 503.729 340.105C504.22 340.105 504.629 339.976 504.957 339.717C505.289 339.455 505.537 339.104 505.703 338.663C505.872 338.219 505.956 337.725 505.956 337.182C505.956 336.645 505.874 336.161 505.708 335.73C505.546 335.296 505.299 334.953 504.967 334.701C504.639 334.446 504.226 334.318 503.729 334.318C503.252 334.318 502.851 334.439 502.526 334.681C502.201 334.92 501.956 335.254 501.79 335.685C501.625 336.113 501.542 336.612 501.542 337.182ZM511.167 341.179C510.683 341.179 510.244 341.088 509.849 340.906C509.455 340.72 509.142 340.453 508.91 340.105C508.678 339.754 508.562 339.33 508.562 338.832C508.562 338.395 508.648 338.04 508.82 337.768C508.992 337.493 509.223 337.278 509.511 337.122C509.8 336.966 510.118 336.85 510.466 336.774C510.817 336.695 511.17 336.632 511.525 336.585C511.989 336.526 512.365 336.481 512.653 336.451C512.945 336.418 513.157 336.363 513.29 336.287C513.425 336.211 513.493 336.078 513.493 335.889V335.849C513.493 335.359 513.359 334.978 513.091 334.706C512.826 334.434 512.423 334.298 511.883 334.298C511.323 334.298 510.883 334.421 510.565 334.666C510.247 334.911 510.023 335.173 509.894 335.452L508.78 335.054C508.979 334.59 509.244 334.229 509.576 333.97C509.911 333.708 510.275 333.526 510.67 333.423C511.067 333.317 511.458 333.264 511.843 333.264C512.088 333.264 512.37 333.294 512.688 333.354C513.01 333.41 513.319 333.528 513.618 333.707C513.919 333.886 514.17 334.156 514.368 334.517C514.567 334.878 514.667 335.362 514.667 335.969V341H513.493V339.966H513.434C513.354 340.132 513.222 340.309 513.036 340.498C512.85 340.687 512.604 340.848 512.295 340.98C511.987 341.113 511.611 341.179 511.167 341.179ZM511.346 340.125C511.81 340.125 512.201 340.034 512.519 339.852C512.84 339.669 513.082 339.434 513.245 339.146C513.411 338.857 513.493 338.554 513.493 338.236V337.162C513.444 337.222 513.334 337.276 513.165 337.326C513 337.372 512.807 337.414 512.589 337.45C512.373 337.483 512.163 337.513 511.957 337.54C511.755 337.563 511.591 337.583 511.465 337.599C511.16 337.639 510.875 337.704 510.61 337.793C510.348 337.879 510.136 338.01 509.974 338.186C509.814 338.358 509.735 338.594 509.735 338.892C509.735 339.3 509.886 339.608 510.187 339.817C510.492 340.022 510.878 340.125 511.346 340.125ZM517.982 336.406V341H516.808V333.364H517.942V334.557H518.041C518.22 334.169 518.492 333.857 518.857 333.622C519.221 333.384 519.692 333.264 520.268 333.264C520.786 333.264 521.238 333.37 521.626 333.582C522.013 333.791 522.315 334.109 522.531 334.537C522.746 334.961 522.854 335.498 522.854 336.148V341H521.68V336.227C521.68 335.627 521.525 335.16 521.213 334.825C520.902 334.487 520.474 334.318 519.93 334.318C519.556 334.318 519.221 334.399 518.926 334.562C518.634 334.724 518.404 334.961 518.235 335.273C518.066 335.584 517.982 335.962 517.982 336.406ZM533.31 335.362V336.456H528.856V335.362H533.31ZM539.054 338.912V337.898L543.528 330.818H544.264V332.389H543.767L540.386 337.739V337.818H546.412V338.912H539.054ZM543.846 341V338.604V338.131V330.818H545.02V341H543.846Z" fill="#333333"/>
<g filter="url(#filter0_d_5609_1378)">
<g clip-path="url(#clip0_5609_1378)">
<rect width="648" height="264" transform="translate(4 2)" fill="#FF0000" fill-opacity="0.1"/>
<rect width="40" height="264" transform="translate(4 2)" fill="white"/>
<rect opacity="0.1" x="4" y="2" width="40" height="264" fill="white"/>
<rect width="8" height="264" transform="translate(84 2)" fill="white"/>
<rect opacity="0.1" x="84" y="2" width="8" height="264" fill="white"/>
<rect width="8" height="264" transform="translate(132 2)" fill="white"/>
<rect opacity="0.1" x="132" y="2" width="8" height="264" fill="white"/>
<rect width="8" height="264" transform="translate(180 2)" fill="white"/>
<rect opacity="0.1" x="180" y="2" width="8" height="264" fill="white"/>
<rect width="8" height="264" transform="translate(228 2)" fill="white"/>
<rect opacity="0.1" x="228" y="2" width="8" height="264" fill="white"/>
<rect width="8" height="264" transform="translate(276 2)" fill="white"/>
<rect opacity="0.1" x="276" y="2" width="8" height="264" fill="white"/>
<rect width="8" height="264" transform="translate(324 2)" fill="white"/>
<rect opacity="0.1" x="324" y="2" width="8" height="264" fill="white"/>
<rect width="8" height="264" transform="translate(372 2)" fill="white"/>
<rect opacity="0.1" x="372" y="2" width="8" height="264" fill="white"/>
<rect width="8" height="264" transform="translate(420 2)" fill="white"/>
<rect opacity="0.1" x="420" y="2" width="8" height="264" fill="white"/>
<rect width="8" height="264" transform="translate(468 2)" fill="white"/>
<rect opacity="0.1" x="468" y="2" width="8" height="264" fill="white"/>
<rect width="8" height="264" transform="translate(516 2)" fill="white"/>
<rect opacity="0.1" x="516" y="2" width="8" height="264" fill="white"/>
<rect width="8" height="264" transform="translate(564 2)" fill="white"/>
<rect opacity="0.1" x="564" y="2" width="8" height="264" fill="white"/>
<rect width="40" height="264" transform="translate(612 2)" fill="white"/>
<rect opacity="0.1" x="612" y="2" width="40" height="264" fill="white"/>
</g>
<path opacity="0.3" d="M188 184H468V266H188V184Z" fill="#4D5359"/>
<path opacity="0.3" d="M44 47H180V141H44V47Z" fill="#6F7880"/>
<path opacity="0.3" d="M44 2H228V34H44V2Z" fill="#919599"/>
<path opacity="0.3" d="M236 2H420V34H236V2Z" fill="#919599"/>
<path opacity="0.3" d="M428 2H612V34H428V2Z" fill="#919599"/>
<path opacity="0.3" d="M188 47H324V141H188V47Z" fill="#6F7880"/>
<path opacity="0.3" d="M332 47H468V141H332V47Z" fill="#6F7880"/>
<path opacity="0.3" d="M476 47H612V141H476V47Z" fill="#6F7880"/>
<path d="M46 186H123C124.105 186 125 186.895 125 188V196C125 197.105 124.105 198 123 198H46V186Z" fill="#6F7880" fill-opacity="0.4"/>
<path d="M44 149H161C161.552 149 162 149.448 162 150V154C162 154.552 161.552 155 161 155H44V149Z" fill="black" fill-opacity="0.1"/>
<path d="M188 149H305C305.552 149 306 149.448 306 150V154C306 154.552 305.552 155 305 155H188V149Z" fill="black" fill-opacity="0.1"/>
<path d="M332 149H449C449.552 149 450 149.448 450 150V154C450 154.552 449.552 155 449 155H332V149Z" fill="black" fill-opacity="0.1"/>
<path d="M476 149H593C593.552 149 594 149.448 594 150V154C594 154.552 593.552 155 593 155H476V149Z" fill="black" fill-opacity="0.1"/>
<path d="M46 207H167C167.552 207 168 207.448 168 208V212C168 212.552 167.552 213 167 213H46V207Z" fill="black" fill-opacity="0.1"/>
<path d="M44 161H144C144.552 161 145 161.448 145 162V166C145 166.552 144.552 167 144 167H44V161Z" fill="black" fill-opacity="0.1"/>
<path d="M188 161H288C288.552 161 289 161.448 289 162V166C289 166.552 288.552 167 288 167H188V161Z" fill="black" fill-opacity="0.1"/>
<path d="M332 161H432C432.552 161 433 161.448 433 162V166C433 166.552 432.552 167 432 167H332V161Z" fill="black" fill-opacity="0.1"/>
<path d="M476 161H576C576.552 161 577 161.448 577 162V166C577 166.552 576.552 167 576 167H476V161Z" fill="black" fill-opacity="0.1"/>
<path d="M46 217H137C137.552 217 138 217.448 138 218V222C138 222.552 137.552 223 137 223H46V217Z" fill="black" fill-opacity="0.1"/>
<path d="M484 186H575C575.552 186 576 186.448 576 187V191C576 191.552 575.552 192 575 192H484V186Z" fill="black" fill-opacity="0.1"/>
<path d="M484 202H575C575.552 202 576 202.448 576 203V207C576 207.552 575.552 208 575 208H484V202Z" fill="black" fill-opacity="0.1"/>
<path d="M484 218H575C575.552 218 576 218.448 576 219V223C576 223.552 575.552 224 575 224H484V218Z" fill="black" fill-opacity="0.1"/>
<path d="M484 234H575C575.552 234 576 234.448 576 235V239C576 239.552 575.552 240 575 240H484V234Z" fill="black" fill-opacity="0.1"/>
<path d="M46 227H149C149.552 227 150 227.448 150 228V232C150 232.552 149.552 233 149 233H46V227Z" fill="black" fill-opacity="0.1"/>
</g>
<defs>
<filter id="filter0_d_5609_1378" x="0" y="0" width="656" height="272" filterUnits="userSpaceOnUse" color-interpolation-filters="sRGB">
<feFlood flood-opacity="0" result="BackgroundImageFix"/>
<feColorMatrix in="SourceAlpha" type="matrix" values="0 0 0 0 0 0 0 0 0 0 0 0 0 0 0 0 0 0 127 0" result="hardAlpha"/>
<feOffset dy="2"/>
<feGaussianBlur stdDeviation="2"/>
<feComposite in2="hardAlpha" operator="out"/>
<feColorMatrix type="matrix" values="0 0 0 0 0.435294 0 0 0 0 0.470588 0 0 0 0 0.501961 0 0 0 0.3 0"/>
<feBlend mode="normal" in2="BackgroundImageFix" result="effect1_dropShadow_5609_1378"/>
<feBlend mode="normal" in="SourceGraphic" in2="effect1_dropShadow_5609_1378" result="shape"/>
</filter>
<clipPath id="clip0_5609_1378">
<rect width="648" height="264" fill="white" transform="translate(4 2)"/>
</clipPath>
</defs>
</svg>
