<svg width="688" height="208" viewBox="0 0 688 208" fill="none" xmlns="http://www.w3.org/2000/svg">
<g filter="url(#filter0_d_3278_15205)">
<rect width="100" height="200" transform="translate(4 2)" fill="#FF0000" fill-opacity="0.1"/>
<rect width="4" height="200" transform="translate(4 2)" fill="white"/>
<rect opacity="0.1" x="4" y="2" width="4" height="200" fill="white"/>
<rect width="4" height="200" transform="translate(28 2)" fill="white"/>
<rect opacity="0.1" x="28" y="2" width="4" height="200" fill="white"/>
<rect width="4" height="200" transform="translate(52 2)" fill="white"/>
<rect opacity="0.1" x="52" y="2" width="4" height="200" fill="white"/>
<rect width="4" height="200" transform="translate(76 2)" fill="white"/>
<rect opacity="0.1" x="76" y="2" width="4" height="200" fill="white"/>
<rect width="4" height="200" transform="translate(100 2)" fill="white"/>
<rect opacity="0.1" x="100" y="2" width="4" height="200" fill="white"/>
<rect x="4" y="18" width="100" height="1" fill="black" fill-opacity="0.2"/>
<rect opacity="0.3" x="8" y="39" width="92" height="52" rx="1" fill="#3A7DFF"/>
<rect opacity="0.3" x="8" y="128" width="92" height="52" rx="1" fill="#3A7DFF"/>
<rect x="8" y="119" width="92" height="1" fill="black" fill-opacity="0.05"/>
<path d="M8 95H59C59.5523 95 60 95.4477 60 96V97C60 97.5523 59.5523 98 59 98H8V95Z" fill="black" fill-opacity="0.1"/>
<path d="M8 184H59C59.5523 184 60 184.448 60 185V186C60 186.552 59.5523 187 59 187H8V184Z" fill="black" fill-opacity="0.1"/>
<path d="M8 102H87C87.5523 102 88 102.448 88 103V104C88 104.552 87.5523 105 87 105H8V102Z" fill="black" fill-opacity="0.1"/>
<path d="M8 191H87C87.5523 191 88 191.448 88 192V193C88 193.552 87.5523 194 87 194H8V191Z" fill="black" fill-opacity="0.1"/>
<path opacity="0.3" d="M8 28H70C70.5523 28 71 28.4477 71 29V30C71 30.5523 70.5523 31 70 31H8V28Z" fill="#4D5359"/>
</g>
<g filter="url(#filter1_d_3278_15205)">
<rect width="196" height="200" transform="translate(128 2)" fill="#FF0000" fill-opacity="0.1"/>
<rect width="4" height="200" transform="translate(128 2)" fill="white"/>
<rect opacity="0.1" x="128" y="2" width="4" height="200" fill="white"/>
<rect width="4" height="200" transform="translate(152 2)" fill="white"/>
<rect opacity="0.1" x="152" y="2" width="4" height="200" fill="white"/>
<rect width="4" height="200" transform="translate(176 2)" fill="white"/>
<rect opacity="0.1" x="176" y="2" width="4" height="200" fill="white"/>
<rect width="4" height="200" transform="translate(200 2)" fill="white"/>
<rect opacity="0.1" x="200" y="2" width="4" height="200" fill="white"/>
<rect width="4" height="200" transform="translate(224 2)" fill="white"/>
<rect opacity="0.1" x="224" y="2" width="4" height="200" fill="white"/>
<rect width="4" height="200" transform="translate(248 2)" fill="white"/>
<rect opacity="0.1" x="248" y="2" width="4" height="200" fill="white"/>
<rect width="4" height="200" transform="translate(272 2)" fill="white"/>
<rect opacity="0.1" x="272" y="2" width="4" height="200" fill="white"/>
<rect width="4" height="200" transform="translate(296 2)" fill="white"/>
<rect opacity="0.1" x="296" y="2" width="4" height="200" fill="white"/>
<rect width="4" height="200" transform="translate(320 2)" fill="white"/>
<rect opacity="0.1" x="320" y="2" width="4" height="200" fill="white"/>
<rect opacity="0.3" x="132" y="39" width="92" height="52" rx="1" fill="#3A7DFF"/>
<rect opacity="0.3" x="228" y="39" width="92" height="52" rx="1" fill="#3A7DFF"/>
<rect opacity="0.3" x="132" y="127" width="92" height="52" rx="1" fill="#3A7DFF"/>
<rect opacity="0.3" x="228" y="127" width="92" height="52" rx="1" fill="#3A7DFF"/>
<rect x="128" y="18" width="196" height="1" fill="black" fill-opacity="0.2"/>
<rect x="132" y="119" width="92" height="1" fill="black" fill-opacity="0.05"/>
<rect x="228" y="119" width="92" height="1" fill="black" fill-opacity="0.05"/>
<path d="M132 95H183C183.552 95 184 95.4477 184 96V97C184 97.5523 183.552 98 183 98H132V95Z" fill="black" fill-opacity="0.1"/>
<path d="M132 184H183C183.552 184 184 184.448 184 185V186C184 186.552 183.552 187 183 187H132V184Z" fill="black" fill-opacity="0.1"/>
<path d="M228 95H279C279.552 95 280 95.4477 280 96V97C280 97.5523 279.552 98 279 98H228V95Z" fill="black" fill-opacity="0.1"/>
<path d="M228 184H279C279.552 184 280 184.448 280 185V186C280 186.552 279.552 187 279 187H228V184Z" fill="black" fill-opacity="0.1"/>
<path d="M132 102H211C211.552 102 212 102.448 212 103V104C212 104.552 211.552 105 211 105H132V102Z" fill="black" fill-opacity="0.1"/>
<path d="M132 191H211C211.552 191 212 191.448 212 192V193C212 193.552 211.552 194 211 194H132V191Z" fill="black" fill-opacity="0.1"/>
<path d="M228 102H307C307.552 102 308 102.448 308 103V104C308 104.552 307.552 105 307 105H228V102Z" fill="black" fill-opacity="0.1"/>
<path d="M228 191H307C307.552 191 308 191.448 308 192V193C308 193.552 307.552 194 307 194H228V191Z" fill="black" fill-opacity="0.1"/>
<path opacity="0.3" d="M132 28H194C194.552 28 195 28.4477 195 29V30C195 30.5523 194.552 31 194 31H132V28Z" fill="#4D5359"/>
</g>
<g filter="url(#filter2_d_3278_15205)">
<rect width="340" height="200" transform="translate(344 2)" fill="#FF0000" fill-opacity="0.1"/>
<rect width="28" height="200" transform="translate(344 2)" fill="white"/>
<rect opacity="0.1" x="344" y="2" width="28" height="200" fill="white"/>
<rect width="4" height="200" transform="translate(392 2)" fill="white"/>
<rect opacity="0.1" x="392" y="2" width="4" height="200" fill="white"/>
<rect width="4" height="200" transform="translate(416 2)" fill="white"/>
<rect opacity="0.1" x="416" y="2" width="4" height="200" fill="white"/>
<rect width="4" height="200" transform="translate(440 2)" fill="white"/>
<rect opacity="0.1" x="440" y="2" width="4" height="200" fill="white"/>
<rect width="4" height="200" transform="translate(464 2)" fill="white"/>
<rect opacity="0.1" x="464" y="2" width="4" height="200" fill="white"/>
<rect width="4" height="200" transform="translate(488 2)" fill="white"/>
<rect opacity="0.1" x="488" y="2" width="4" height="200" fill="white"/>
<rect width="4" height="200" transform="translate(512 2)" fill="white"/>
<rect opacity="0.1" x="512" y="2" width="4" height="200" fill="white"/>
<rect width="4" height="200" transform="translate(536 2)" fill="white"/>
<rect opacity="0.1" x="536" y="2" width="4" height="200" fill="white"/>
<rect width="4" height="200" transform="translate(560 2)" fill="white"/>
<rect opacity="0.1" x="560" y="2" width="4" height="200" fill="white"/>
<rect width="4" height="200" transform="translate(584 2)" fill="white"/>
<rect opacity="0.1" x="584" y="2" width="4" height="200" fill="white"/>
<rect width="4" height="200" transform="translate(608 2)" fill="white"/>
<rect opacity="0.1" x="608" y="2" width="4" height="200" fill="white"/>
<rect width="4" height="200" transform="translate(632 2)" fill="white"/>
<rect opacity="0.1" x="632" y="2" width="4" height="200" fill="white"/>
<rect width="28" height="200" transform="translate(656 2)" fill="white"/>
<rect opacity="0.1" x="656" y="2" width="28" height="200" fill="white"/>
<rect opacity="0.3" x="372" y="39" width="92" height="52" rx="1" fill="#3A7DFF"/>
<rect opacity="0.3" x="372" y="127" width="92" height="52" rx="1" fill="#3A7DFF"/>
<rect opacity="0.3" x="468" y="127" width="92" height="52" rx="1" fill="#3A7DFF"/>
<rect opacity="0.3" x="564" y="127" width="92" height="52" rx="1" fill="#3A7DFF"/>
<rect opacity="0.3" x="468" y="39" width="92" height="52" rx="1" fill="#3A7DFF"/>
<rect opacity="0.3" x="564" y="39" width="92" height="52" rx="1" fill="#3A7DFF"/>
<rect x="344" y="18" width="340" height="1" fill="black" fill-opacity="0.2"/>
<path d="M372 95H423C423.552 95 424 95.4477 424 96V97C424 97.5523 423.552 98 423 98H372V95Z" fill="black" fill-opacity="0.1"/>
<path d="M372 183H423C423.552 183 424 183.448 424 184V185C424 185.552 423.552 186 423 186H372V183Z" fill="black" fill-opacity="0.1"/>
<path d="M468 183H519C519.552 183 520 183.448 520 184V185C520 185.552 519.552 186 519 186H468V183Z" fill="black" fill-opacity="0.1"/>
<path d="M564 183H615C615.552 183 616 183.448 616 184V185C616 185.552 615.552 186 615 186H564V183Z" fill="black" fill-opacity="0.1"/>
<path d="M468 95H519C519.552 95 520 95.4477 520 96V97C520 97.5523 519.552 98 519 98H468V95Z" fill="black" fill-opacity="0.1"/>
<path d="M564 95H615C615.552 95 616 95.4477 616 96V97C616 97.5523 615.552 98 615 98H564V95Z" fill="black" fill-opacity="0.1"/>
<path d="M372 102H451C451.552 102 452 102.448 452 103V104C452 104.552 451.552 105 451 105H372V102Z" fill="black" fill-opacity="0.1"/>
<path d="M372 190H451C451.552 190 452 190.448 452 191V192C452 192.552 451.552 193 451 193H372V190Z" fill="black" fill-opacity="0.1"/>
<path d="M468 190H547C547.552 190 548 190.448 548 191V192C548 192.552 547.552 193 547 193H468V190Z" fill="black" fill-opacity="0.1"/>
<path d="M564 190H643C643.552 190 644 190.448 644 191V192C644 192.552 643.552 193 643 193H564V190Z" fill="black" fill-opacity="0.1"/>
<path d="M468 102H547C547.552 102 548 102.448 548 103V104C548 104.552 547.552 105 547 105H468V102Z" fill="black" fill-opacity="0.1"/>
<path d="M564 102H643C643.552 102 644 102.448 644 103V104C644 104.552 643.552 105 643 105H564V102Z" fill="black" fill-opacity="0.1"/>
<path opacity="0.3" d="M372 28H434C434.552 28 435 28.4477 435 29V30C435 30.5523 434.552 31 434 31H372V28Z" fill="#4D5359"/>
</g>
<defs>
<filter id="filter0_d_3278_15205" x="0" y="0" width="108" height="208" filterUnits="userSpaceOnUse" color-interpolation-filters="sRGB">
<feFlood flood-opacity="0" result="BackgroundImageFix"/>
<feColorMatrix in="SourceAlpha" type="matrix" values="0 0 0 0 0 0 0 0 0 0 0 0 0 0 0 0 0 0 127 0" result="hardAlpha"/>
<feOffset dy="2"/>
<feGaussianBlur stdDeviation="2"/>
<feComposite in2="hardAlpha" operator="out"/>
<feColorMatrix type="matrix" values="0 0 0 0 0.435294 0 0 0 0 0.470588 0 0 0 0 0.501961 0 0 0 0.3 0"/>
<feBlend mode="normal" in2="BackgroundImageFix" result="effect1_dropShadow_3278_15205"/>
<feBlend mode="normal" in="SourceGraphic" in2="effect1_dropShadow_3278_15205" result="shape"/>
</filter>
<filter id="filter1_d_3278_15205" x="124" y="0" width="204" height="208" filterUnits="userSpaceOnUse" color-interpolation-filters="sRGB">
<feFlood flood-opacity="0" result="BackgroundImageFix"/>
<feColorMatrix in="SourceAlpha" type="matrix" values="0 0 0 0 0 0 0 0 0 0 0 0 0 0 0 0 0 0 127 0" result="hardAlpha"/>
<feOffset dy="2"/>
<feGaussianBlur stdDeviation="2"/>
<feComposite in2="hardAlpha" operator="out"/>
<feColorMatrix type="matrix" values="0 0 0 0 0.435294 0 0 0 0 0.470588 0 0 0 0 0.501961 0 0 0 0.3 0"/>
<feBlend mode="normal" in2="BackgroundImageFix" result="effect1_dropShadow_3278_15205"/>
<feBlend mode="normal" in="SourceGraphic" in2="effect1_dropShadow_3278_15205" result="shape"/>
</filter>
<filter id="filter2_d_3278_15205" x="340" y="0" width="348" height="208" filterUnits="userSpaceOnUse" color-interpolation-filters="sRGB">
<feFlood flood-opacity="0" result="BackgroundImageFix"/>
<feColorMatrix in="SourceAlpha" type="matrix" values="0 0 0 0 0 0 0 0 0 0 0 0 0 0 0 0 0 0 127 0" result="hardAlpha"/>
<feOffset dy="2"/>
<feGaussianBlur stdDeviation="2"/>
<feComposite in2="hardAlpha" operator="out"/>
<feColorMatrix type="matrix" values="0 0 0 0 0.435294 0 0 0 0 0.470588 0 0 0 0 0.501961 0 0 0 0.3 0"/>
<feBlend mode="normal" in2="BackgroundImageFix" result="effect1_dropShadow_3278_15205"/>
<feBlend mode="normal" in="SourceGraphic" in2="effect1_dropShadow_3278_15205" result="shape"/>
</filter>
</defs>
</svg>
