<svg width="298pt" height="332pt" viewBox="0.00 0.00 298.43 332.00" xmlns="http://www.w3.org/2000/svg"><g class="graph" transform="translate(4 328)"><title>%3</title><path fill="#fff" stroke="transparent" d="M-4 4v-332h298.433V4H-4z"/><g class="node"><title>o-colors</title><ellipse fill="none" stroke="#8c8c8c" stroke-dasharray="5,2" cx="105.945" cy="-306" rx="39.171" ry="18"/><text text-anchor="middle" x="105.945" y="-301.8" font-family="Times,serif" font-size="14" fill="#8c8c8c">o-colors</text></g><g class="node"><title>o-typography</title><ellipse fill="none" stroke="#8c8c8c" stroke-dasharray="5,2" cx="105.945" cy="-234" rx="57.507" ry="18"/><text text-anchor="middle" x="105.945" y="-229.8" font-family="Times,serif" font-size="14" fill="#8c8c8c">o-typography</text></g><g class="edge"><title>o-colors-&gt;o-typography</title><path fill="none" stroke="#8c8c8c" stroke-dasharray="5,2" d="M105.945-287.831v25.418"/><path fill="#8c8c8c" stroke="#8c8c8c" d="M109.445-262.413l-3.5 10-3.5-10h7z"/></g><g class="node"><title>o-buttons</title><ellipse fill="none" stroke="#8c8c8c" stroke-dasharray="5,2" cx="196.945" cy="-162" rx="43.532" ry="18"/><text text-anchor="middle" x="196.945" y="-157.8" font-family="Times,serif" font-size="14" fill="#8c8c8c">o-buttons</text></g><g class="edge"><title>o-colors-&gt;o-buttons</title><path fill="none" stroke="#8c8c8c" stroke-dasharray="5,2" d="M139.839-297h62.24v107.073"/><path fill="#8c8c8c" stroke="#8c8c8c" d="M205.58-189.927l-3.5 10-3.5-10h7z"/></g><g class="node"><title>o-table</title><ellipse fill="none" stroke="#000" cx="196.945" cy="-90" rx="34.82" ry="18"/><text text-anchor="middle" x="196.945" y="-85.8" font-family="Times,serif" font-size="14">o-table</text></g><g class="edge"><title>o-colors-&gt;o-table</title><path fill="none" stroke="#8c8c8c" stroke-dasharray="5,2" d="M145.373-306h120.074v210h-25.455"/><path fill="#8c8c8c" stroke="#8c8c8c" d="M239.992-92.5l-10-3.5 10-3.5v7z"/></g><g class="node"><title>ft.com</title><ellipse fill="none" stroke="#000" cx="32.945" cy="-18" rx="32.891" ry="18"/><text text-anchor="middle" x="32.945" y="-13.8" font-family="Times,serif" font-size="14">ft.com</text></g><g class="edge"><title>o-colors-&gt;ft.com</title><path fill="none" stroke="#8c8c8c" stroke-dasharray="5,2" d="M68.868-312H16.064v268.193"/><path fill="#8c8c8c" stroke="#8c8c8c" d="M19.564-43.807l-3.5 10-3.5-10h7z"/></g><g class="node"><title>ft app</title><ellipse fill="none" stroke="#000" cx="259.945" cy="-18" rx="30.477" ry="18"/><text text-anchor="middle" x="259.945" y="-13.8" font-family="Times,serif" font-size="14">ft app</text></g><g class="edge"><title>o-colors-&gt;ft app</title><path fill="none" stroke="#8c8c8c" stroke-dasharray="5,2" d="M139.926-315H277.94v272.272"/><path fill="#8c8c8c" stroke="#8c8c8c" d="M281.44-42.728l-3.5 10-3.5-10h7z"/></g><g class="node"><title>an internal tool</title><ellipse fill="none" stroke="#000" cx="147.945" cy="-18" rx="63.785" ry="18"/><text text-anchor="middle" x="147.945" y="-13.8" font-family="Times,serif" font-size="14">an internal tool</text></g><g class="edge"><title>o-colors-&gt;an internal tool</title><path fill="none" stroke="#8c8c8c" stroke-dasharray="5,2" d="M69.037-300H32.128v102h69.456v157.628"/><path fill="#8c8c8c" stroke="#8c8c8c" d="M105.084-40.372l-3.5 10-3.5-10h7z"/></g><g class="edge"><title>o-typography-&gt;o-buttons</title><path fill="none" stroke="#8c8c8c" stroke-dasharray="5,2" d="M158.564-226.566v45.722"/><path fill="#8c8c8c" stroke="#8c8c8c" d="M162.064-180.844l-3.5 10-3.5-10h7z"/></g><g class="edge"><title>o-typography-&gt;o-table</title><path fill="none" stroke="#8c8c8c" stroke-dasharray="5,2" d="M136.148-218.438V-96h17.907"/><path fill="#8c8c8c" stroke="#8c8c8c" d="M154.055-99.5l10 3.5-10 3.5v-7z"/></g><g class="edge"><title>o-typography-&gt;ft.com</title><path fill="none" stroke="#8c8c8c" stroke-dasharray="5,2" d="M52.617-226.813v184.29"/><path fill="#8c8c8c" stroke="#8c8c8c" d="M56.117-42.523l-3.5 10-3.5-10h7z"/></g><g class="edge"><title>o-typography-&gt;ft app</title><path fill="none" stroke="#8c8c8c" stroke-dasharray="5,2" d="M164.047-234h88.907v188.324"/><path fill="#8c8c8c" stroke="#8c8c8c" d="M256.454-45.676l-3.5 10-3.5-10h7z"/></g><g class="edge"><title>o-typography-&gt;an internal tool</title><path fill="none" stroke="#8c8c8c" stroke-dasharray="5,2" d="M118.866-216.324v172.188"/><path fill="#8c8c8c" stroke="#8c8c8c" d="M122.366-44.136l-3.5 10-3.5-10h7z"/></g><g class="edge"><title>o-buttons-&gt;o-table</title><path fill="none" stroke="#8c8c8c" stroke-dasharray="5,2" d="M196.945-143.831v25.418"/><path fill="#8c8c8c" stroke="#8c8c8c" d="M200.445-118.413l-3.5 10-3.5-10h7z"/></g><g class="edge"><title>o-buttons-&gt;ft.com</title><path fill="none" stroke="#8c8c8c" stroke-dasharray="5,2" d="M153.063-162H57.042v121.723"/><path fill="#8c8c8c" stroke="#8c8c8c" d="M60.542-40.277l-3.5 10-3.5-10h7z"/></g><g class="edge"><title>o-buttons-&gt;ft app</title><path fill="none" stroke="#8c8c8c" stroke-dasharray="5,2" d="M237.51-155.438v115.077"/><path fill="#8c8c8c" stroke="#8c8c8c" d="M241.01-40.361l-3.5 10-3.5-10h7z"/></g><g class="edge"><title>o-buttons-&gt;an internal tool</title><path fill="none" stroke="#8c8c8c" stroke-dasharray="5,2" d="M157.857-153.845v107.921"/><path fill="#8c8c8c" stroke="#8c8c8c" d="M161.358-45.924l-3.5 10-3.5-10h7z"/></g><g class="edge"><title>o-table-&gt;ft.com</title><path fill="none" stroke="#000" d="M164.15-84H61.465v46.823"/><path stroke="#000" d="M64.966-37.177l-3.5 10-3.5-10h7z"/></g><g class="edge"><title>o-table-&gt;ft app</title><path fill="none" stroke="#000" d="M229.64-84h4.917v45.976"/><path stroke="#000" d="M238.057-38.024l-3.5 10-3.5-10h7z"/></g><g class="edge"><title>o-table-&gt;an internal tool</title><path fill="none" stroke="#000" d="M186.937-72.57v30.205"/><path stroke="#000" d="M190.437-42.365l-3.5 10-3.5-10h7z"/></g></g></svg>