<svg width="711" height="184" viewBox="0 0 711 184" fill="none" xmlns="http://www.w3.org/2000/svg">
<g clip-path="url(#clip0_4812_1458)">
<rect width="44" height="1" transform="translate(285.5 70) rotate(90)" fill="#595454"/>
<mask id="mask0_4812_1458" style="mask-type:alpha" maskUnits="userSpaceOnUse" x="284" y="52" width="2" height="80">
<rect x="285.5" y="52" width="80" height="1" transform="rotate(90 285.5 52)" fill="#595454"/>
</mask>
<g mask="url(#mask0_4812_1458)">
</g>
</g>
<g clip-path="url(#clip1_4812_1458)">
<rect width="1" height="32" transform="translate(301.5 70) rotate(90)" fill="#595454"/>
<mask id="mask1_4812_1458" style="mask-type:alpha" maskUnits="userSpaceOnUse" x="261" y="70" width="41" height="1">
<rect x="261.5" y="70" width="40" height="1" fill="#595454"/>
</mask>
<g mask="url(#mask1_4812_1458)">
</g>
</g>
<g clip-path="url(#clip2_4812_1458)">
<rect width="1" height="32" transform="translate(301.5 113) rotate(90)" fill="#595454"/>
<mask id="mask2_4812_1458" style="mask-type:alpha" maskUnits="userSpaceOnUse" x="261" y="113" width="41" height="1">
<rect x="261.5" y="113" width="40" height="1" fill="#595454"/>
</mask>
<g mask="url(#mask2_4812_1458)">
</g>
</g>
<path d="M243.084 97V94.712H238.028V93.592L242.092 86.92H243.708L239.788 93.384H243.084V90.248L244.556 89.416V93.384H246.284V94.712H244.556V97H243.084ZM252.365 97V94.712H247.309V93.592L251.373 86.92H252.989L249.069 93.384H252.365V90.248L253.837 89.416V93.384H255.565V94.712H253.837V97H252.365ZM257.327 100.36V89.448H258.399L258.543 90.184C259.385 89.5653 260.26 89.256 261.167 89.256C262.18 89.256 262.98 89.6133 263.567 90.328C264.164 91.0427 264.463 92.008 264.463 93.224C264.463 94.44 264.164 95.4053 263.567 96.12C262.98 96.8347 262.18 97.192 261.167 97.192C260.761 97.192 260.356 97.128 259.951 97C259.545 96.872 259.151 96.6747 258.767 96.408V100.36H257.327ZM260.863 95.848C261.545 95.848 262.068 95.6187 262.431 95.16C262.804 94.7013 262.991 94.056 262.991 93.224C262.991 92.392 262.804 91.7467 262.431 91.288C262.068 90.8187 261.545 90.584 260.863 90.584C260.521 90.584 260.164 90.6427 259.791 90.76C259.428 90.8773 259.087 91.048 258.767 91.272V95.176C259.087 95.3893 259.428 95.5547 259.791 95.672C260.164 95.7893 260.521 95.848 260.863 95.848ZM266.112 97L269.056 93.128L266.192 89.448H268.016L270.096 92.136L272.112 89.448H273.776L270.912 93.192L273.856 97H272.032L269.872 94.216L267.776 97H266.112Z" fill="#494949"/>
<rect x="328.5" y="78" width="64" height="28" rx="2" fill="#0D7680"/>
<path d="M337.474 88.384H343.33V89.944H339.25V91.828H342.958V93.376H339.25V95.44H343.33V97H337.474V88.384ZM348.522 97L347.154 95.032L345.798 97H343.962L346.242 93.772L344.118 90.748H346.026L347.25 92.5L348.462 90.748H350.286L348.15 93.76L350.43 97H348.522ZM353.406 95.872C353.67 95.872 353.906 95.82 354.114 95.716C354.33 95.604 354.478 95.464 354.558 95.296V94.828C354.478 94.668 354.33 94.54 354.114 94.444C353.906 94.348 353.67 94.3 353.406 94.3C353.214 94.3 353.034 94.328 352.866 94.384C352.698 94.44 352.562 94.528 352.458 94.648C352.362 94.76 352.314 94.904 352.314 95.08C352.314 95.256 352.362 95.404 352.458 95.524C352.562 95.636 352.698 95.724 352.866 95.788C353.034 95.844 353.214 95.872 353.406 95.872ZM354.558 93.052C354.558 92.78 354.442 92.552 354.21 92.368C353.978 92.184 353.622 92.092 353.142 92.092C352.822 92.092 352.518 92.14 352.23 92.236C351.942 92.324 351.674 92.448 351.426 92.608V91.108C351.642 90.964 351.938 90.844 352.314 90.748C352.698 90.652 353.098 90.604 353.514 90.604C354.098 90.604 354.59 90.7 354.99 90.892C355.39 91.076 355.694 91.348 355.902 91.708C356.118 92.06 356.226 92.492 356.226 93.004V97H354.558V96.676C354.438 96.78 354.242 96.884 353.97 96.988C353.698 97.084 353.39 97.132 353.046 97.132C352.622 97.132 352.23 97.048 351.87 96.88C351.51 96.712 351.226 96.476 351.018 96.172C350.81 95.868 350.706 95.508 350.706 95.092C350.706 94.676 350.81 94.316 351.018 94.012C351.226 93.708 351.51 93.476 351.87 93.316C352.23 93.148 352.622 93.064 353.046 93.064C353.39 93.064 353.698 93.108 353.97 93.196C354.25 93.284 354.446 93.38 354.558 93.484V93.052ZM362.68 91.396C362.888 91.172 363.148 90.984 363.46 90.832C363.772 90.68 364.144 90.604 364.576 90.604C365.008 90.604 365.376 90.7 365.68 90.892C365.992 91.076 366.228 91.344 366.388 91.696C366.556 92.04 366.64 92.448 366.64 92.92V97H364.888V93.28C364.888 92.944 364.816 92.676 364.672 92.476C364.528 92.268 364.304 92.164 364 92.164C363.776 92.164 363.572 92.232 363.388 92.368C363.204 92.504 363.084 92.704 363.028 92.968V97H361.276V93.28C361.276 92.944 361.204 92.676 361.06 92.476C360.916 92.268 360.692 92.164 360.388 92.164C360.164 92.164 359.96 92.232 359.776 92.368C359.592 92.504 359.472 92.704 359.416 92.968V97H357.664V90.748H359.416V91.264C359.56 91.064 359.772 90.904 360.052 90.784C360.332 90.664 360.644 90.604 360.988 90.604C361.364 90.604 361.696 90.68 361.984 90.832C362.272 90.976 362.504 91.164 362.68 91.396ZM369.834 92.848V94.9C369.93 95.116 370.086 95.292 370.302 95.428C370.526 95.564 370.766 95.632 371.022 95.632C371.254 95.632 371.462 95.588 371.646 95.5C371.838 95.412 371.998 95.288 372.126 95.128C372.254 94.968 372.35 94.784 372.414 94.576C372.486 94.36 372.522 94.124 372.522 93.868C372.522 93.62 372.486 93.388 372.414 93.172C372.35 92.956 372.254 92.772 372.126 92.62C371.998 92.46 371.838 92.336 371.646 92.248C371.462 92.16 371.254 92.116 371.022 92.116C370.766 92.116 370.526 92.184 370.302 92.32C370.086 92.456 369.93 92.632 369.834 92.848ZM369.834 96.484V99.34H368.082V90.748H369.834V91.264C369.922 91.152 370.046 91.048 370.206 90.952C370.374 90.848 370.558 90.764 370.758 90.7C370.966 90.636 371.186 90.604 371.418 90.604C371.858 90.604 372.254 90.692 372.606 90.868C372.958 91.036 373.258 91.268 373.506 91.564C373.762 91.86 373.954 92.208 374.082 92.608C374.21 93 374.274 93.42 374.274 93.868C374.274 94.316 374.21 94.74 374.082 95.14C373.954 95.532 373.762 95.88 373.506 96.184C373.258 96.48 372.958 96.716 372.606 96.892C372.254 97.06 371.858 97.144 371.418 97.144C371.186 97.144 370.966 97.112 370.758 97.048C370.558 96.984 370.378 96.904 370.218 96.808C370.058 96.704 369.93 96.596 369.834 96.484ZM377.135 87.88V97H375.383V87.88H377.135ZM379.924 93.832C379.924 94.28 380 94.644 380.152 94.924C380.312 95.196 380.528 95.396 380.8 95.524C381.08 95.644 381.396 95.704 381.748 95.704C382.076 95.704 382.38 95.664 382.66 95.584C382.948 95.504 383.244 95.364 383.548 95.164V96.592C383.284 96.784 382.972 96.924 382.612 97.012C382.252 97.1 381.864 97.144 381.448 97.144C380.808 97.144 380.248 97.012 379.768 96.748C379.296 96.476 378.924 96.096 378.652 95.608C378.388 95.112 378.256 94.536 378.256 93.88C378.256 93.248 378.38 92.684 378.628 92.188C378.884 91.692 379.232 91.304 379.672 91.024C380.12 90.736 380.632 90.592 381.208 90.592C381.664 90.592 382.064 90.668 382.408 90.82C382.752 90.972 383.04 91.184 383.272 91.456C383.512 91.728 383.688 92.056 383.8 92.44C383.92 92.816 383.98 93.236 383.98 93.7V94.252H379.444L379.468 93.136H382.348C382.34 92.976 382.308 92.828 382.252 92.692C382.204 92.548 382.132 92.424 382.036 92.32C381.948 92.216 381.836 92.136 381.7 92.08C381.572 92.016 381.42 91.984 381.244 91.984C381.02 91.984 380.804 92.052 380.596 92.188C380.396 92.316 380.232 92.516 380.104 92.788C379.984 93.052 379.924 93.4 379.924 93.832Z" fill="white"/>
<rect x="425" y="78.5" width="63" height="27" rx="1.5" stroke="#0D7680"/>
<path d="M433.474 88.384H439.33V89.944H435.25V91.828H438.958V93.376H435.25V95.44H439.33V97H433.474V88.384ZM444.522 97L443.154 95.032L441.798 97H439.962L442.242 93.772L440.118 90.748H442.026L443.25 92.5L444.462 90.748H446.286L444.15 93.76L446.43 97H444.522ZM449.406 95.872C449.67 95.872 449.906 95.82 450.114 95.716C450.33 95.604 450.478 95.464 450.558 95.296V94.828C450.478 94.668 450.33 94.54 450.114 94.444C449.906 94.348 449.67 94.3 449.406 94.3C449.214 94.3 449.034 94.328 448.866 94.384C448.698 94.44 448.562 94.528 448.458 94.648C448.362 94.76 448.314 94.904 448.314 95.08C448.314 95.256 448.362 95.404 448.458 95.524C448.562 95.636 448.698 95.724 448.866 95.788C449.034 95.844 449.214 95.872 449.406 95.872ZM450.558 93.052C450.558 92.78 450.442 92.552 450.21 92.368C449.978 92.184 449.622 92.092 449.142 92.092C448.822 92.092 448.518 92.14 448.23 92.236C447.942 92.324 447.674 92.448 447.426 92.608V91.108C447.642 90.964 447.938 90.844 448.314 90.748C448.698 90.652 449.098 90.604 449.514 90.604C450.098 90.604 450.59 90.7 450.99 90.892C451.39 91.076 451.694 91.348 451.902 91.708C452.118 92.06 452.226 92.492 452.226 93.004V97H450.558V96.676C450.438 96.78 450.242 96.884 449.97 96.988C449.698 97.084 449.39 97.132 449.046 97.132C448.622 97.132 448.23 97.048 447.87 96.88C447.51 96.712 447.226 96.476 447.018 96.172C446.81 95.868 446.706 95.508 446.706 95.092C446.706 94.676 446.81 94.316 447.018 94.012C447.226 93.708 447.51 93.476 447.87 93.316C448.23 93.148 448.622 93.064 449.046 93.064C449.39 93.064 449.698 93.108 449.97 93.196C450.25 93.284 450.446 93.38 450.558 93.484V93.052ZM458.68 91.396C458.888 91.172 459.148 90.984 459.46 90.832C459.772 90.68 460.144 90.604 460.576 90.604C461.008 90.604 461.376 90.7 461.68 90.892C461.992 91.076 462.228 91.344 462.388 91.696C462.556 92.04 462.64 92.448 462.64 92.92V97H460.888V93.28C460.888 92.944 460.816 92.676 460.672 92.476C460.528 92.268 460.304 92.164 460 92.164C459.776 92.164 459.572 92.232 459.388 92.368C459.204 92.504 459.084 92.704 459.028 92.968V97H457.276V93.28C457.276 92.944 457.204 92.676 457.06 92.476C456.916 92.268 456.692 92.164 456.388 92.164C456.164 92.164 455.96 92.232 455.776 92.368C455.592 92.504 455.472 92.704 455.416 92.968V97H453.664V90.748H455.416V91.264C455.56 91.064 455.772 90.904 456.052 90.784C456.332 90.664 456.644 90.604 456.988 90.604C457.364 90.604 457.696 90.68 457.984 90.832C458.272 90.976 458.504 91.164 458.68 91.396ZM465.834 92.848V94.9C465.93 95.116 466.086 95.292 466.302 95.428C466.526 95.564 466.766 95.632 467.022 95.632C467.254 95.632 467.462 95.588 467.646 95.5C467.838 95.412 467.998 95.288 468.126 95.128C468.254 94.968 468.35 94.784 468.414 94.576C468.486 94.36 468.522 94.124 468.522 93.868C468.522 93.62 468.486 93.388 468.414 93.172C468.35 92.956 468.254 92.772 468.126 92.62C467.998 92.46 467.838 92.336 467.646 92.248C467.462 92.16 467.254 92.116 467.022 92.116C466.766 92.116 466.526 92.184 466.302 92.32C466.086 92.456 465.93 92.632 465.834 92.848ZM465.834 96.484V99.34H464.082V90.748H465.834V91.264C465.922 91.152 466.046 91.048 466.206 90.952C466.374 90.848 466.558 90.764 466.758 90.7C466.966 90.636 467.186 90.604 467.418 90.604C467.858 90.604 468.254 90.692 468.606 90.868C468.958 91.036 469.258 91.268 469.506 91.564C469.762 91.86 469.954 92.208 470.082 92.608C470.21 93 470.274 93.42 470.274 93.868C470.274 94.316 470.21 94.74 470.082 95.14C469.954 95.532 469.762 95.88 469.506 96.184C469.258 96.48 468.958 96.716 468.606 96.892C468.254 97.06 467.858 97.144 467.418 97.144C467.186 97.144 466.966 97.112 466.758 97.048C466.558 96.984 466.378 96.904 466.218 96.808C466.058 96.704 465.93 96.596 465.834 96.484ZM473.135 87.88V97H471.383V87.88H473.135ZM475.924 93.832C475.924 94.28 476 94.644 476.152 94.924C476.312 95.196 476.528 95.396 476.8 95.524C477.08 95.644 477.396 95.704 477.748 95.704C478.076 95.704 478.38 95.664 478.66 95.584C478.948 95.504 479.244 95.364 479.548 95.164V96.592C479.284 96.784 478.972 96.924 478.612 97.012C478.252 97.1 477.864 97.144 477.448 97.144C476.808 97.144 476.248 97.012 475.768 96.748C475.296 96.476 474.924 96.096 474.652 95.608C474.388 95.112 474.256 94.536 474.256 93.88C474.256 93.248 474.38 92.684 474.628 92.188C474.884 91.692 475.232 91.304 475.672 91.024C476.12 90.736 476.632 90.592 477.208 90.592C477.664 90.592 478.064 90.668 478.408 90.82C478.752 90.972 479.04 91.184 479.272 91.456C479.512 91.728 479.688 92.056 479.8 92.44C479.92 92.816 479.98 93.236 479.98 93.7V94.252H475.444L475.468 93.136H478.348C478.34 92.976 478.308 92.828 478.252 92.692C478.204 92.548 478.132 92.424 478.036 92.32C477.948 92.216 477.836 92.136 477.7 92.08C477.572 92.016 477.42 91.984 477.244 91.984C477.02 91.984 476.804 92.052 476.596 92.188C476.396 92.316 476.232 92.516 476.104 92.788C475.984 93.052 475.924 93.4 475.924 93.832Z" fill="#0D7680"/>
<rect x="321" y="70.5" width="79" height="43" rx="3.5" stroke="#990F3D" stroke-dasharray="2 2"/>
<rect x="417" y="70.5" width="79" height="43" rx="3.5" stroke="#990F3D" stroke-dasharray="2 2"/>
<defs>
<clipPath id="clip0_4812_1458">
<rect width="44" height="1" fill="white" transform="translate(285.5 70) rotate(90)"/>
</clipPath>
<clipPath id="clip1_4812_1458">
<rect width="1" height="32" fill="white" transform="translate(301.5 70) rotate(90)"/>
</clipPath>
<clipPath id="clip2_4812_1458">
<rect width="1" height="32" fill="white" transform="translate(301.5 113) rotate(90)"/>
</clipPath>
</defs>
</svg>
