<svg width="711" height="144" viewBox="0 0 711 144" fill="none" xmlns="http://www.w3.org/2000/svg">
<g opacity="0.4">
<rect x="317.5" y="50" width="96" height="44" rx="2" fill="#1B1B1B"/>
<path d="M334.799 66.512H342.607V68.592H337.167V71.104H342.111V73.168H337.167V75.92H342.607V78H334.799V66.512ZM349.529 78L347.705 75.376L345.897 78H343.449L346.489 73.696L343.657 69.664H346.201L347.833 72L349.449 69.664H351.881L349.033 73.68L352.073 78H349.529ZM356.041 76.496C356.393 76.496 356.708 76.4267 356.985 76.288C357.273 76.1387 357.471 75.952 357.577 75.728V75.104C357.471 74.8907 357.273 74.72 356.985 74.592C356.708 74.464 356.393 74.4 356.041 74.4C355.785 74.4 355.545 74.4373 355.321 74.512C355.097 74.5867 354.916 74.704 354.777 74.864C354.649 75.0133 354.585 75.2053 354.585 75.44C354.585 75.6747 354.649 75.872 354.777 76.032C354.916 76.1813 355.097 76.2987 355.321 76.384C355.545 76.4587 355.785 76.496 356.041 76.496ZM357.577 72.736C357.577 72.3733 357.423 72.0693 357.113 71.824C356.804 71.5787 356.329 71.456 355.689 71.456C355.263 71.456 354.857 71.52 354.473 71.648C354.089 71.7653 353.732 71.9307 353.401 72.144V70.144C353.689 69.952 354.084 69.792 354.585 69.664C355.097 69.536 355.631 69.472 356.185 69.472C356.964 69.472 357.62 69.6 358.153 69.856C358.687 70.1013 359.092 70.464 359.369 70.944C359.657 71.4133 359.801 71.9893 359.801 72.672V78H357.577V77.568C357.417 77.7067 357.156 77.8453 356.793 77.984C356.431 78.112 356.02 78.176 355.561 78.176C354.996 78.176 354.473 78.064 353.993 77.84C353.513 77.616 353.135 77.3013 352.857 76.896C352.58 76.4907 352.441 76.0107 352.441 75.456C352.441 74.9013 352.58 74.4213 352.857 74.016C353.135 73.6107 353.513 73.3013 353.993 73.088C354.473 72.864 354.996 72.752 355.561 72.752C356.02 72.752 356.431 72.8107 356.793 72.928C357.167 73.0453 357.428 73.1733 357.577 73.312V72.736ZM368.407 70.528C368.684 70.2293 369.031 69.9787 369.447 69.776C369.863 69.5733 370.359 69.472 370.935 69.472C371.511 69.472 372.002 69.6 372.407 69.856C372.823 70.1013 373.138 70.4587 373.351 70.928C373.575 71.3867 373.687 71.9307 373.687 72.56V78H371.351V73.04C371.351 72.592 371.255 72.2347 371.063 71.968C370.871 71.6907 370.572 71.552 370.167 71.552C369.868 71.552 369.596 71.6427 369.351 71.824C369.106 72.0053 368.946 72.272 368.871 72.624V78H366.535V73.04C366.535 72.592 366.439 72.2347 366.247 71.968C366.055 71.6907 365.756 71.552 365.351 71.552C365.052 71.552 364.78 71.6427 364.535 71.824C364.29 72.0053 364.13 72.272 364.055 72.624V78H361.719V69.664H364.055V70.352C364.247 70.0853 364.53 69.872 364.903 69.712C365.276 69.552 365.692 69.472 366.151 69.472C366.652 69.472 367.095 69.5733 367.479 69.776C367.863 69.968 368.172 70.2187 368.407 70.528ZM377.946 72.464V75.2C378.074 75.488 378.282 75.7227 378.57 75.904C378.868 76.0853 379.188 76.176 379.53 76.176C379.839 76.176 380.116 76.1173 380.362 76C380.618 75.8827 380.831 75.7173 381.002 75.504C381.172 75.2907 381.3 75.0453 381.386 74.768C381.482 74.48 381.53 74.1653 381.53 73.824C381.53 73.4933 381.482 73.184 381.386 72.896C381.3 72.608 381.172 72.3627 381.002 72.16C380.831 71.9467 380.618 71.7813 380.362 71.664C380.116 71.5467 379.839 71.488 379.53 71.488C379.188 71.488 378.868 71.5787 378.57 71.76C378.282 71.9413 378.074 72.176 377.946 72.464ZM377.946 77.312V81.12H375.61V69.664H377.946V70.352C378.063 70.2027 378.228 70.064 378.442 69.936C378.666 69.7973 378.911 69.6853 379.178 69.6C379.455 69.5147 379.748 69.472 380.058 69.472C380.644 69.472 381.172 69.5893 381.642 69.824C382.111 70.048 382.511 70.3573 382.842 70.752C383.183 71.1467 383.439 71.6107 383.61 72.144C383.78 72.6667 383.866 73.2267 383.866 73.824C383.866 74.4213 383.78 74.9867 383.61 75.52C383.439 76.0427 383.183 76.5067 382.842 76.912C382.511 77.3067 382.111 77.6213 381.642 77.856C381.172 78.08 380.644 78.192 380.058 78.192C379.748 78.192 379.455 78.1493 379.178 78.064C378.911 77.9787 378.671 77.872 378.458 77.744C378.244 77.6053 378.074 77.4613 377.946 77.312ZM387.68 65.84V78H385.344V65.84H387.68ZM391.399 73.776C391.399 74.3733 391.501 74.8587 391.703 75.232C391.917 75.5947 392.205 75.8613 392.567 76.032C392.941 76.192 393.362 76.272 393.831 76.272C394.269 76.272 394.674 76.2187 395.047 76.112C395.431 76.0053 395.826 75.8187 396.231 75.552V77.456C395.879 77.712 395.463 77.8987 394.983 78.016C394.503 78.1333 393.986 78.192 393.431 78.192C392.578 78.192 391.831 78.016 391.191 77.664C390.562 77.3013 390.066 76.7947 389.703 76.144C389.351 75.4827 389.175 74.7147 389.175 73.84C389.175 72.9973 389.341 72.2453 389.671 71.584C390.013 70.9227 390.477 70.4053 391.063 70.032C391.661 69.648 392.343 69.456 393.111 69.456C393.719 69.456 394.253 69.5573 394.711 69.76C395.17 69.9627 395.554 70.2453 395.863 70.608C396.183 70.9707 396.418 71.408 396.567 71.92C396.727 72.4213 396.807 72.9813 396.807 73.6V74.336H390.759L390.791 72.848H394.631C394.621 72.6347 394.578 72.4373 394.503 72.256C394.439 72.064 394.343 71.8987 394.215 71.76C394.098 71.6213 393.949 71.5147 393.767 71.44C393.597 71.3547 393.394 71.312 393.159 71.312C392.861 71.312 392.573 71.4027 392.295 71.584C392.029 71.7547 391.81 72.0213 391.639 72.384C391.479 72.736 391.399 73.2 391.399 73.776Z" fill="white"/>
</g>
</svg>
