<svg width="711" height="184" viewBox="0 0 711 184" fill="none" xmlns="http://www.w3.org/2000/svg">
<g clip-path="url(#clip0_4208_31057)">
<rect width="44" height="1" transform="translate(285.5 70) rotate(90)" fill="#595454"/>
<mask id="mask0_4208_31057" style="mask-type:alpha" maskUnits="userSpaceOnUse" x="284" y="52" width="2" height="80">
<rect x="285.5" y="52" width="80" height="1" transform="rotate(90 285.5 52)" fill="#595454"/>
</mask>
<g mask="url(#mask0_4208_31057)">
</g>
</g>
<g clip-path="url(#clip1_4208_31057)">
<rect width="1" height="32" transform="translate(301.5 70) rotate(90)" fill="#595454"/>
<mask id="mask1_4208_31057" style="mask-type:alpha" maskUnits="userSpaceOnUse" x="261" y="70" width="41" height="1">
<rect x="261.5" y="70" width="40" height="1" fill="#595454"/>
</mask>
<g mask="url(#mask1_4208_31057)">
</g>
</g>
<g clip-path="url(#clip2_4208_31057)">
<rect width="1" height="32" transform="translate(301.5 113) rotate(90)" fill="#595454"/>
<mask id="mask2_4208_31057" style="mask-type:alpha" maskUnits="userSpaceOnUse" x="261" y="113" width="41" height="1">
<rect x="261.5" y="113" width="40" height="1" fill="#595454"/>
</mask>
<g mask="url(#mask2_4208_31057)">
</g>
</g>
<path d="M243.084 97V94.712H238.028V93.592L242.092 86.92H243.708L239.788 93.384H243.084V90.248L244.556 89.416V93.384H246.284V94.712H244.556V97H243.084ZM252.365 97V94.712H247.309V93.592L251.373 86.92H252.989L249.069 93.384H252.365V90.248L253.837 89.416V93.384H255.565V94.712H253.837V97H252.365ZM257.327 100.36V89.448H258.399L258.543 90.184C259.385 89.5653 260.26 89.256 261.167 89.256C262.18 89.256 262.98 89.6133 263.567 90.328C264.164 91.0427 264.463 92.008 264.463 93.224C264.463 94.44 264.164 95.4053 263.567 96.12C262.98 96.8347 262.18 97.192 261.167 97.192C260.761 97.192 260.356 97.128 259.951 97C259.545 96.872 259.151 96.6747 258.767 96.408V100.36H257.327ZM260.863 95.848C261.545 95.848 262.068 95.6187 262.431 95.16C262.804 94.7013 262.991 94.056 262.991 93.224C262.991 92.392 262.804 91.7467 262.431 91.288C262.068 90.8187 261.545 90.584 260.863 90.584C260.521 90.584 260.164 90.6427 259.791 90.76C259.428 90.8773 259.087 91.048 258.767 91.272V95.176C259.087 95.3893 259.428 95.5547 259.791 95.672C260.164 95.7893 260.521 95.848 260.863 95.848ZM266.112 97L269.056 93.128L266.192 89.448H268.016L270.096 92.136L272.112 89.448H273.776L270.912 93.192L273.856 97H272.032L269.872 94.216L267.776 97H266.112Z" fill="#494949"/>
<rect x="328.5" y="78" width="64" height="28" rx="2" fill="#593380"/>
<path d="M337.469 88.384H343.325V89.944H339.245V91.828H342.953V93.376H339.245V95.44H343.325V97H337.469V88.384ZM348.527 97L347.159 95.032L345.803 97H343.967L346.247 93.772L344.123 90.748H346.031L347.255 92.5L348.467 90.748H350.291L348.155 93.76L350.435 97H348.527ZM353.412 95.872C353.676 95.872 353.912 95.82 354.12 95.716C354.336 95.604 354.484 95.464 354.564 95.296V94.828C354.484 94.668 354.336 94.54 354.12 94.444C353.912 94.348 353.676 94.3 353.412 94.3C353.22 94.3 353.04 94.328 352.872 94.384C352.704 94.44 352.568 94.528 352.464 94.648C352.368 94.76 352.32 94.904 352.32 95.08C352.32 95.256 352.368 95.404 352.464 95.524C352.568 95.636 352.704 95.724 352.872 95.788C353.04 95.844 353.22 95.872 353.412 95.872ZM354.564 93.052C354.564 92.78 354.448 92.552 354.216 92.368C353.984 92.184 353.628 92.092 353.148 92.092C352.828 92.092 352.524 92.14 352.236 92.236C351.948 92.324 351.68 92.448 351.432 92.608V91.108C351.648 90.964 351.944 90.844 352.32 90.748C352.704 90.652 353.104 90.604 353.52 90.604C354.104 90.604 354.596 90.7 354.996 90.892C355.396 91.076 355.7 91.348 355.908 91.708C356.124 92.06 356.232 92.492 356.232 93.004V97H354.564V96.676C354.444 96.78 354.248 96.884 353.976 96.988C353.704 97.084 353.396 97.132 353.052 97.132C352.628 97.132 352.236 97.048 351.876 96.88C351.516 96.712 351.232 96.476 351.024 96.172C350.816 95.868 350.712 95.508 350.712 95.092C350.712 94.676 350.816 94.316 351.024 94.012C351.232 93.708 351.516 93.476 351.876 93.316C352.236 93.148 352.628 93.064 353.052 93.064C353.396 93.064 353.704 93.108 353.976 93.196C354.256 93.284 354.452 93.38 354.564 93.484V93.052ZM362.686 91.396C362.894 91.172 363.154 90.984 363.466 90.832C363.778 90.68 364.15 90.604 364.582 90.604C365.014 90.604 365.382 90.7 365.686 90.892C365.998 91.076 366.234 91.344 366.394 91.696C366.562 92.04 366.646 92.448 366.646 92.92V97H364.894V93.28C364.894 92.944 364.822 92.676 364.678 92.476C364.534 92.268 364.31 92.164 364.006 92.164C363.782 92.164 363.578 92.232 363.394 92.368C363.21 92.504 363.09 92.704 363.034 92.968V97H361.282V93.28C361.282 92.944 361.21 92.676 361.066 92.476C360.922 92.268 360.698 92.164 360.394 92.164C360.17 92.164 359.966 92.232 359.782 92.368C359.598 92.504 359.478 92.704 359.422 92.968V97H357.67V90.748H359.422V91.264C359.566 91.064 359.778 90.904 360.058 90.784C360.338 90.664 360.65 90.604 360.994 90.604C361.37 90.604 361.702 90.68 361.99 90.832C362.278 90.976 362.51 91.164 362.686 91.396ZM369.84 92.848V94.9C369.936 95.116 370.092 95.292 370.308 95.428C370.532 95.564 370.772 95.632 371.028 95.632C371.26 95.632 371.468 95.588 371.652 95.5C371.844 95.412 372.004 95.288 372.132 95.128C372.26 94.968 372.356 94.784 372.42 94.576C372.492 94.36 372.528 94.124 372.528 93.868C372.528 93.62 372.492 93.388 372.42 93.172C372.356 92.956 372.26 92.772 372.132 92.62C372.004 92.46 371.844 92.336 371.652 92.248C371.468 92.16 371.26 92.116 371.028 92.116C370.772 92.116 370.532 92.184 370.308 92.32C370.092 92.456 369.936 92.632 369.84 92.848ZM369.84 96.484V99.34H368.088V90.748H369.84V91.264C369.928 91.152 370.052 91.048 370.212 90.952C370.38 90.848 370.564 90.764 370.764 90.7C370.972 90.636 371.192 90.604 371.424 90.604C371.864 90.604 372.26 90.692 372.612 90.868C372.964 91.036 373.264 91.268 373.512 91.564C373.768 91.86 373.96 92.208 374.088 92.608C374.216 93 374.28 93.42 374.28 93.868C374.28 94.316 374.216 94.74 374.088 95.14C373.96 95.532 373.768 95.88 373.512 96.184C373.264 96.48 372.964 96.716 372.612 96.892C372.26 97.06 371.864 97.144 371.424 97.144C371.192 97.144 370.972 97.112 370.764 97.048C370.564 96.984 370.384 96.904 370.224 96.808C370.064 96.704 369.936 96.596 369.84 96.484ZM377.141 87.88V97H375.389V87.88H377.141ZM379.93 93.832C379.93 94.28 380.006 94.644 380.158 94.924C380.318 95.196 380.534 95.396 380.806 95.524C381.086 95.644 381.402 95.704 381.754 95.704C382.082 95.704 382.386 95.664 382.666 95.584C382.954 95.504 383.25 95.364 383.554 95.164V96.592C383.29 96.784 382.978 96.924 382.618 97.012C382.258 97.1 381.87 97.144 381.454 97.144C380.814 97.144 380.254 97.012 379.774 96.748C379.302 96.476 378.93 96.096 378.658 95.608C378.394 95.112 378.262 94.536 378.262 93.88C378.262 93.248 378.386 92.684 378.634 92.188C378.89 91.692 379.238 91.304 379.678 91.024C380.126 90.736 380.638 90.592 381.214 90.592C381.67 90.592 382.07 90.668 382.414 90.82C382.758 90.972 383.046 91.184 383.278 91.456C383.518 91.728 383.694 92.056 383.806 92.44C383.926 92.816 383.986 93.236 383.986 93.7V94.252H379.45L379.474 93.136H382.354C382.346 92.976 382.314 92.828 382.258 92.692C382.21 92.548 382.138 92.424 382.042 92.32C381.954 92.216 381.842 92.136 381.706 92.08C381.578 92.016 381.426 91.984 381.25 91.984C381.026 91.984 380.81 92.052 380.602 92.188C380.402 92.316 380.238 92.516 380.11 92.788C379.99 93.052 379.93 93.4 379.93 93.832Z" fill="white"/>
<rect x="425" y="78.5" width="63" height="27" rx="1.5" stroke="#593380"/>
<path d="M433.469 88.384H439.325V89.944H435.245V91.828H438.953V93.376H435.245V95.44H439.325V97H433.469V88.384ZM444.527 97L443.159 95.032L441.803 97H439.967L442.247 93.772L440.123 90.748H442.031L443.255 92.5L444.467 90.748H446.291L444.155 93.76L446.435 97H444.527ZM449.412 95.872C449.676 95.872 449.912 95.82 450.12 95.716C450.336 95.604 450.484 95.464 450.564 95.296V94.828C450.484 94.668 450.336 94.54 450.12 94.444C449.912 94.348 449.676 94.3 449.412 94.3C449.22 94.3 449.04 94.328 448.872 94.384C448.704 94.44 448.568 94.528 448.464 94.648C448.368 94.76 448.32 94.904 448.32 95.08C448.32 95.256 448.368 95.404 448.464 95.524C448.568 95.636 448.704 95.724 448.872 95.788C449.04 95.844 449.22 95.872 449.412 95.872ZM450.564 93.052C450.564 92.78 450.448 92.552 450.216 92.368C449.984 92.184 449.628 92.092 449.148 92.092C448.828 92.092 448.524 92.14 448.236 92.236C447.948 92.324 447.68 92.448 447.432 92.608V91.108C447.648 90.964 447.944 90.844 448.32 90.748C448.704 90.652 449.104 90.604 449.52 90.604C450.104 90.604 450.596 90.7 450.996 90.892C451.396 91.076 451.7 91.348 451.908 91.708C452.124 92.06 452.232 92.492 452.232 93.004V97H450.564V96.676C450.444 96.78 450.248 96.884 449.976 96.988C449.704 97.084 449.396 97.132 449.052 97.132C448.628 97.132 448.236 97.048 447.876 96.88C447.516 96.712 447.232 96.476 447.024 96.172C446.816 95.868 446.712 95.508 446.712 95.092C446.712 94.676 446.816 94.316 447.024 94.012C447.232 93.708 447.516 93.476 447.876 93.316C448.236 93.148 448.628 93.064 449.052 93.064C449.396 93.064 449.704 93.108 449.976 93.196C450.256 93.284 450.452 93.38 450.564 93.484V93.052ZM458.686 91.396C458.894 91.172 459.154 90.984 459.466 90.832C459.778 90.68 460.15 90.604 460.582 90.604C461.014 90.604 461.382 90.7 461.686 90.892C461.998 91.076 462.234 91.344 462.394 91.696C462.562 92.04 462.646 92.448 462.646 92.92V97H460.894V93.28C460.894 92.944 460.822 92.676 460.678 92.476C460.534 92.268 460.31 92.164 460.006 92.164C459.782 92.164 459.578 92.232 459.394 92.368C459.21 92.504 459.09 92.704 459.034 92.968V97H457.282V93.28C457.282 92.944 457.21 92.676 457.066 92.476C456.922 92.268 456.698 92.164 456.394 92.164C456.17 92.164 455.966 92.232 455.782 92.368C455.598 92.504 455.478 92.704 455.422 92.968V97H453.67V90.748H455.422V91.264C455.566 91.064 455.778 90.904 456.058 90.784C456.338 90.664 456.65 90.604 456.994 90.604C457.37 90.604 457.702 90.68 457.99 90.832C458.278 90.976 458.51 91.164 458.686 91.396ZM465.84 92.848V94.9C465.936 95.116 466.092 95.292 466.308 95.428C466.532 95.564 466.772 95.632 467.028 95.632C467.26 95.632 467.468 95.588 467.652 95.5C467.844 95.412 468.004 95.288 468.132 95.128C468.26 94.968 468.356 94.784 468.42 94.576C468.492 94.36 468.528 94.124 468.528 93.868C468.528 93.62 468.492 93.388 468.42 93.172C468.356 92.956 468.26 92.772 468.132 92.62C468.004 92.46 467.844 92.336 467.652 92.248C467.468 92.16 467.26 92.116 467.028 92.116C466.772 92.116 466.532 92.184 466.308 92.32C466.092 92.456 465.936 92.632 465.84 92.848ZM465.84 96.484V99.34H464.088V90.748H465.84V91.264C465.928 91.152 466.052 91.048 466.212 90.952C466.38 90.848 466.564 90.764 466.764 90.7C466.972 90.636 467.192 90.604 467.424 90.604C467.864 90.604 468.26 90.692 468.612 90.868C468.964 91.036 469.264 91.268 469.512 91.564C469.768 91.86 469.96 92.208 470.088 92.608C470.216 93 470.28 93.42 470.28 93.868C470.28 94.316 470.216 94.74 470.088 95.14C469.96 95.532 469.768 95.88 469.512 96.184C469.264 96.48 468.964 96.716 468.612 96.892C468.26 97.06 467.864 97.144 467.424 97.144C467.192 97.144 466.972 97.112 466.764 97.048C466.564 96.984 466.384 96.904 466.224 96.808C466.064 96.704 465.936 96.596 465.84 96.484ZM473.141 87.88V97H471.389V87.88H473.141ZM475.93 93.832C475.93 94.28 476.006 94.644 476.158 94.924C476.318 95.196 476.534 95.396 476.806 95.524C477.086 95.644 477.402 95.704 477.754 95.704C478.082 95.704 478.386 95.664 478.666 95.584C478.954 95.504 479.25 95.364 479.554 95.164V96.592C479.29 96.784 478.978 96.924 478.618 97.012C478.258 97.1 477.87 97.144 477.454 97.144C476.814 97.144 476.254 97.012 475.774 96.748C475.302 96.476 474.93 96.096 474.658 95.608C474.394 95.112 474.262 94.536 474.262 93.88C474.262 93.248 474.386 92.684 474.634 92.188C474.89 91.692 475.238 91.304 475.678 91.024C476.126 90.736 476.638 90.592 477.214 90.592C477.67 90.592 478.07 90.668 478.414 90.82C478.758 90.972 479.046 91.184 479.278 91.456C479.518 91.728 479.694 92.056 479.806 92.44C479.926 92.816 479.986 93.236 479.986 93.7V94.252H475.45L475.474 93.136H478.354C478.346 92.976 478.314 92.828 478.258 92.692C478.21 92.548 478.138 92.424 478.042 92.32C477.954 92.216 477.842 92.136 477.706 92.08C477.578 92.016 477.426 91.984 477.25 91.984C477.026 91.984 476.81 92.052 476.602 92.188C476.402 92.316 476.238 92.516 476.11 92.788C475.99 93.052 475.93 93.4 475.93 93.832Z" fill="#593380"/>
<rect x="321" y="70.5" width="79" height="43" rx="3.5" stroke="#FF7FAA" stroke-dasharray="2 2"/>
<rect x="417" y="70.5" width="79" height="43" rx="3.5" stroke="#FF7FAA" stroke-dasharray="2 2"/>
<defs>
<clipPath id="clip0_4208_31057">
<rect width="44" height="1" fill="white" transform="translate(285.5 70) rotate(90)"/>
</clipPath>
<clipPath id="clip1_4208_31057">
<rect width="1" height="32" fill="white" transform="translate(301.5 70) rotate(90)"/>
</clipPath>
<clipPath id="clip2_4208_31057">
<rect width="1" height="32" fill="white" transform="translate(301.5 113) rotate(90)"/>
</clipPath>
</defs>
</svg>
