<svg width="711" height="144" viewBox="0 0 711 144" fill="none" xmlns="http://www.w3.org/2000/svg">
<g opacity="0.4">
<rect x="317.5" y="50" width="96" height="44" rx="2" fill="#593380"/>
<path d="M334.792 66.512H342.6V68.592H337.16V71.104H342.104V73.168H337.16V75.92H342.6V78H334.792V66.512ZM349.537 78L347.713 75.376L345.905 78H343.457L346.497 73.696L343.665 69.664H346.209L347.841 72L349.457 69.664H351.889L349.041 73.68L352.081 78H349.537ZM356.049 76.496C356.401 76.496 356.716 76.4267 356.993 76.288C357.281 76.1387 357.478 75.952 357.585 75.728V75.104C357.478 74.8907 357.281 74.72 356.993 74.592C356.716 74.464 356.401 74.4 356.049 74.4C355.793 74.4 355.553 74.4373 355.329 74.512C355.105 74.5867 354.924 74.704 354.785 74.864C354.657 75.0133 354.593 75.2053 354.593 75.44C354.593 75.6747 354.657 75.872 354.785 76.032C354.924 76.1813 355.105 76.2987 355.329 76.384C355.553 76.4587 355.793 76.496 356.049 76.496ZM357.585 72.736C357.585 72.3733 357.43 72.0693 357.121 71.824C356.812 71.5787 356.337 71.456 355.697 71.456C355.27 71.456 354.865 71.52 354.481 71.648C354.097 71.7653 353.74 71.9307 353.409 72.144V70.144C353.697 69.952 354.092 69.792 354.593 69.664C355.105 69.536 355.638 69.472 356.193 69.472C356.972 69.472 357.628 69.6 358.161 69.856C358.694 70.1013 359.1 70.464 359.377 70.944C359.665 71.4133 359.809 71.9893 359.809 72.672V78H357.585V77.568C357.425 77.7067 357.164 77.8453 356.801 77.984C356.438 78.112 356.028 78.176 355.569 78.176C355.004 78.176 354.481 78.064 354.001 77.84C353.521 77.616 353.142 77.3013 352.865 76.896C352.588 76.4907 352.449 76.0107 352.449 75.456C352.449 74.9013 352.588 74.4213 352.865 74.016C353.142 73.6107 353.521 73.3013 354.001 73.088C354.481 72.864 355.004 72.752 355.569 72.752C356.028 72.752 356.438 72.8107 356.801 72.928C357.174 73.0453 357.436 73.1733 357.585 73.312V72.736ZM368.415 70.528C368.692 70.2293 369.039 69.9787 369.455 69.776C369.871 69.5733 370.367 69.472 370.943 69.472C371.519 69.472 372.009 69.6 372.415 69.856C372.831 70.1013 373.145 70.4587 373.359 70.928C373.583 71.3867 373.695 71.9307 373.695 72.56V78H371.359V73.04C371.359 72.592 371.263 72.2347 371.071 71.968C370.879 71.6907 370.58 71.552 370.175 71.552C369.876 71.552 369.604 71.6427 369.359 71.824C369.113 72.0053 368.953 72.272 368.879 72.624V78H366.543V73.04C366.543 72.592 366.447 72.2347 366.255 71.968C366.063 71.6907 365.764 71.552 365.359 71.552C365.06 71.552 364.788 71.6427 364.543 71.824C364.297 72.0053 364.137 72.272 364.063 72.624V78H361.727V69.664H364.063V70.352C364.255 70.0853 364.537 69.872 364.911 69.712C365.284 69.552 365.7 69.472 366.159 69.472C366.66 69.472 367.103 69.5733 367.487 69.776C367.871 69.968 368.18 70.2187 368.415 70.528ZM377.953 72.464V75.2C378.081 75.488 378.289 75.7227 378.577 75.904C378.876 76.0853 379.196 76.176 379.537 76.176C379.847 76.176 380.124 76.1173 380.369 76C380.625 75.8827 380.839 75.7173 381.009 75.504C381.18 75.2907 381.308 75.0453 381.393 74.768C381.489 74.48 381.537 74.1653 381.537 73.824C381.537 73.4933 381.489 73.184 381.393 72.896C381.308 72.608 381.18 72.3627 381.009 72.16C380.839 71.9467 380.625 71.7813 380.369 71.664C380.124 71.5467 379.847 71.488 379.537 71.488C379.196 71.488 378.876 71.5787 378.577 71.76C378.289 71.9413 378.081 72.176 377.953 72.464ZM377.953 77.312V81.12H375.617V69.664H377.953V70.352C378.071 70.2027 378.236 70.064 378.449 69.936C378.673 69.7973 378.919 69.6853 379.185 69.6C379.463 69.5147 379.756 69.472 380.065 69.472C380.652 69.472 381.18 69.5893 381.649 69.824C382.119 70.048 382.519 70.3573 382.849 70.752C383.191 71.1467 383.447 71.6107 383.617 72.144C383.788 72.6667 383.873 73.2267 383.873 73.824C383.873 74.4213 383.788 74.9867 383.617 75.52C383.447 76.0427 383.191 76.5067 382.849 76.912C382.519 77.3067 382.119 77.6213 381.649 77.856C381.18 78.08 380.652 78.192 380.065 78.192C379.756 78.192 379.463 78.1493 379.185 78.064C378.919 77.9787 378.679 77.872 378.465 77.744C378.252 77.6053 378.081 77.4613 377.953 77.312ZM387.688 65.84V78H385.352V65.84H387.688ZM391.407 73.776C391.407 74.3733 391.508 74.8587 391.711 75.232C391.924 75.5947 392.212 75.8613 392.575 76.032C392.948 76.192 393.37 76.272 393.839 76.272C394.276 76.272 394.682 76.2187 395.055 76.112C395.439 76.0053 395.834 75.8187 396.239 75.552V77.456C395.887 77.712 395.471 77.8987 394.991 78.016C394.511 78.1333 393.994 78.192 393.439 78.192C392.586 78.192 391.839 78.016 391.199 77.664C390.57 77.3013 390.074 76.7947 389.711 76.144C389.359 75.4827 389.183 74.7147 389.183 73.84C389.183 72.9973 389.348 72.2453 389.679 71.584C390.02 70.9227 390.484 70.4053 391.071 70.032C391.668 69.648 392.351 69.456 393.119 69.456C393.727 69.456 394.26 69.5573 394.719 69.76C395.178 69.9627 395.562 70.2453 395.871 70.608C396.191 70.9707 396.426 71.408 396.575 71.92C396.735 72.4213 396.815 72.9813 396.815 73.6V74.336H390.767L390.799 72.848H394.639C394.628 72.6347 394.586 72.4373 394.511 72.256C394.447 72.064 394.351 71.8987 394.223 71.76C394.106 71.6213 393.956 71.5147 393.775 71.44C393.604 71.3547 393.402 71.312 393.167 71.312C392.868 71.312 392.58 71.4027 392.303 71.584C392.036 71.7547 391.818 72.0213 391.647 72.384C391.487 72.736 391.407 73.2 391.407 73.776Z" fill="white"/>
</g>
</svg>
