<svg width="644" height="250" viewBox="0 0 644 250" fill="none" xmlns="http://www.w3.org/2000/svg">
<path d="M0 8C0 3.58172 3.58172 0 8 0H636C640.418 0 644 3.58172 644 8V250H0V8Z" fill="#F2F2F2"/>
<rect width="86" height="40" transform="translate(39 105)" fill="black"/>
<path d="M55.9217 130.286V128.494C56.2297 128.737 56.5563 128.947 56.9017 129.124C57.2563 129.301 57.6203 129.437 57.9937 129.53C58.367 129.614 58.7497 129.656 59.1417 129.656C59.5057 129.656 59.837 129.609 60.1357 129.516C60.4437 129.423 60.6863 129.278 60.8637 129.082C61.0503 128.877 61.1437 128.625 61.1437 128.326C61.1437 128.018 61.0503 127.766 60.8637 127.57C60.677 127.365 60.425 127.192 60.1077 127.052C59.7997 126.903 59.459 126.767 59.0857 126.646C58.7217 126.525 58.353 126.389 57.9797 126.24C57.6063 126.091 57.261 125.909 56.9437 125.694C56.6357 125.47 56.3883 125.195 56.2017 124.868C56.015 124.532 55.9217 124.117 55.9217 123.622C55.9217 123.034 56.0757 122.53 56.3837 122.11C56.6917 121.681 57.1023 121.354 57.6157 121.13C58.1383 120.897 58.7077 120.78 59.3237 120.78C59.8837 120.78 60.4157 120.85 60.9197 120.99C61.4237 121.13 61.8763 121.331 62.2777 121.592V123.356C61.867 123.029 61.4237 122.768 60.9477 122.572C60.4717 122.367 59.9397 122.264 59.3517 122.264C58.8383 122.264 58.4137 122.371 58.0777 122.586C57.751 122.791 57.5877 123.099 57.5877 123.51C57.5877 123.799 57.681 124.042 57.8677 124.238C58.0543 124.425 58.3017 124.588 58.6097 124.728C58.927 124.859 59.2723 124.989 59.6457 125.12C60.019 125.241 60.3877 125.381 60.7517 125.54C61.125 125.689 61.4657 125.876 61.7737 126.1C62.091 126.324 62.343 126.604 62.5297 126.94C62.7163 127.276 62.8097 127.691 62.8097 128.186C62.8097 128.793 62.6417 129.32 62.3057 129.768C61.9697 130.216 61.5217 130.561 60.9617 130.804C60.411 131.047 59.8043 131.168 59.1417 131.168C58.479 131.168 57.863 131.084 57.2937 130.916C56.7337 130.739 56.2763 130.529 55.9217 130.286ZM65.5951 127.374C65.5951 127.934 65.6931 128.391 65.8891 128.746C66.0945 129.091 66.3651 129.348 66.7011 129.516C67.0465 129.675 67.4245 129.754 67.8351 129.754C68.2458 129.754 68.6098 129.703 68.9271 129.6C69.2445 129.488 69.5758 129.315 69.9211 129.082V130.524C69.6038 130.757 69.2445 130.921 68.8431 131.014C68.4418 131.117 68.0125 131.168 67.5551 131.168C66.8458 131.168 66.2251 131.009 65.6931 130.692C65.1611 130.375 64.7458 129.931 64.4471 129.362C64.1485 128.783 63.9991 128.121 63.9991 127.374C63.9991 126.646 64.1391 125.997 64.4191 125.428C64.7085 124.859 65.1051 124.411 65.6091 124.084C66.1131 123.748 66.6918 123.58 67.3451 123.58C67.8491 123.58 68.2925 123.669 68.6751 123.846C69.0578 124.014 69.3798 124.257 69.6411 124.574C69.9025 124.882 70.0985 125.255 70.2291 125.694C70.3598 126.133 70.4251 126.618 70.4251 127.15V127.724H65.1891L65.2311 126.506H68.8291C68.8198 126.291 68.7825 126.091 68.7171 125.904C68.6518 125.717 68.5538 125.554 68.4231 125.414C68.3018 125.265 68.1525 125.153 67.9751 125.078C67.7978 124.994 67.5878 124.952 67.3451 124.952C67.0465 124.952 66.7618 125.041 66.4911 125.218C66.2205 125.386 66.0011 125.647 65.8331 126.002C65.6745 126.357 65.5951 126.814 65.5951 127.374ZM73.143 127.374C73.143 127.831 73.2316 128.237 73.409 128.592C73.5863 128.947 73.8336 129.227 74.151 129.432C74.4683 129.637 74.8323 129.74 75.243 129.74C75.579 129.74 75.9056 129.675 76.223 129.544C76.5496 129.413 76.8436 129.217 77.105 128.956V130.552C76.8436 130.776 76.5356 130.935 76.181 131.028C75.8356 131.121 75.4856 131.168 75.131 131.168C74.431 131.168 73.8056 131.009 73.255 130.692C72.7136 130.375 72.2843 129.931 71.967 129.362C71.659 128.783 71.505 128.121 71.505 127.374C71.505 126.618 71.659 125.955 71.967 125.386C72.2843 124.817 72.7136 124.373 73.255 124.056C73.8056 123.739 74.431 123.58 75.131 123.58C75.4856 123.58 75.8356 123.627 76.181 123.72C76.5356 123.813 76.8436 123.972 77.105 124.196V125.792C76.8436 125.531 76.5496 125.335 76.223 125.204C75.9056 125.073 75.579 125.008 75.243 125.008C74.8323 125.008 74.4683 125.111 74.151 125.316C73.8336 125.521 73.5863 125.801 73.409 126.156C73.2316 126.511 73.143 126.917 73.143 127.374ZM78.1769 127.374C78.1769 126.627 78.3215 125.969 78.6109 125.4C78.9095 124.831 79.3155 124.387 79.8289 124.07C80.3515 123.743 80.9535 123.58 81.6349 123.58C82.3162 123.58 82.9135 123.743 83.4269 124.07C83.9495 124.387 84.3555 124.831 84.6449 125.4C84.9435 125.969 85.0929 126.627 85.0929 127.374C85.0929 128.111 84.9435 128.769 84.6449 129.348C84.3555 129.917 83.9495 130.365 83.4269 130.692C82.9135 131.009 82.3162 131.168 81.6349 131.168C80.9535 131.168 80.3515 131.009 79.8289 130.692C79.3155 130.365 78.9095 129.917 78.6109 129.348C78.3215 128.769 78.1769 128.111 78.1769 127.374ZM79.8149 127.374C79.8149 127.831 79.8849 128.242 80.0249 128.606C80.1649 128.97 80.3702 129.255 80.6409 129.46C80.9115 129.665 81.2429 129.768 81.6349 129.768C82.0269 129.768 82.3582 129.665 82.6289 129.46C82.8995 129.255 83.1049 128.97 83.2449 128.606C83.3849 128.242 83.4549 127.831 83.4549 127.374C83.4549 126.917 83.3849 126.511 83.2449 126.156C83.1049 125.792 82.8995 125.507 82.6289 125.302C82.3582 125.087 82.0269 124.98 81.6349 124.98C81.2429 124.98 80.9115 125.087 80.6409 125.302C80.3702 125.507 80.1649 125.792 80.0249 126.156C79.8849 126.511 79.8149 126.917 79.8149 127.374ZM86.6245 131V123.748H88.2625V124.434C88.4585 124.201 88.7245 124 89.0605 123.832C89.4059 123.664 89.7932 123.58 90.2225 123.58C90.7732 123.58 91.2399 123.697 91.6225 123.93C92.0052 124.154 92.2945 124.467 92.4905 124.868C92.6959 125.269 92.7985 125.741 92.7985 126.282V131H91.1605V126.562C91.1605 126.105 91.0439 125.741 90.8105 125.47C90.5865 125.199 90.2412 125.064 89.7745 125.064C89.5412 125.064 89.3172 125.111 89.1025 125.204C88.8972 125.297 88.7199 125.433 88.5705 125.61C88.4212 125.778 88.3185 125.983 88.2625 126.226V131H86.6245ZM99.45 130.384C99.338 130.515 99.1886 130.641 99.002 130.762C98.8153 130.883 98.6006 130.981 98.358 131.056C98.1153 131.131 97.8586 131.168 97.588 131.168C97.056 131.168 96.58 131.07 96.16 130.874C95.7493 130.669 95.3946 130.393 95.096 130.048C94.8066 129.703 94.5873 129.301 94.438 128.844C94.2886 128.377 94.214 127.887 94.214 127.374C94.214 126.851 94.2886 126.361 94.438 125.904C94.5873 125.447 94.8066 125.045 95.096 124.7C95.3946 124.355 95.7493 124.084 96.16 123.888C96.58 123.683 97.056 123.58 97.588 123.58C97.8586 123.58 98.1153 123.617 98.358 123.692C98.6006 123.767 98.8153 123.865 99.002 123.986C99.1886 124.098 99.338 124.224 99.45 124.364V120.36H101.088V131H99.45V130.384ZM99.45 128.746V126.002C99.31 125.713 99.0953 125.479 98.806 125.302C98.5166 125.125 98.204 125.036 97.868 125.036C97.5506 125.036 97.266 125.097 97.014 125.218C96.7713 125.33 96.5613 125.493 96.384 125.708C96.216 125.913 96.0853 126.161 95.992 126.45C95.8986 126.73 95.852 127.038 95.852 127.374C95.852 127.71 95.8986 128.023 95.992 128.312C96.0853 128.592 96.216 128.839 96.384 129.054C96.5613 129.259 96.7713 129.423 97.014 129.544C97.266 129.656 97.5506 129.712 97.868 129.712C98.204 129.712 98.5166 129.623 98.806 129.446C99.0953 129.269 99.31 129.035 99.45 128.746ZM102.762 130.412V128.746C102.996 128.97 103.248 129.161 103.518 129.32C103.798 129.479 104.083 129.6 104.372 129.684C104.671 129.768 104.96 129.81 105.24 129.81C105.474 129.81 105.684 129.782 105.87 129.726C106.066 129.67 106.22 129.586 106.332 129.474C106.454 129.362 106.514 129.217 106.514 129.04C106.514 128.807 106.426 128.629 106.248 128.508C106.071 128.377 105.838 128.27 105.548 128.186C105.268 128.093 104.97 127.999 104.652 127.906C104.335 127.803 104.032 127.673 103.742 127.514C103.462 127.355 103.234 127.141 103.056 126.87C102.879 126.599 102.79 126.24 102.79 125.792C102.79 125.353 102.907 124.971 103.14 124.644C103.383 124.308 103.71 124.047 104.12 123.86C104.54 123.673 105.012 123.58 105.534 123.58C105.954 123.58 106.346 123.636 106.71 123.748C107.074 123.851 107.406 124.005 107.704 124.21V125.876C107.396 125.605 107.06 125.381 106.696 125.204C106.342 125.027 105.954 124.938 105.534 124.938C105.208 124.938 104.928 125.008 104.694 125.148C104.47 125.279 104.358 125.465 104.358 125.708C104.358 125.932 104.447 126.105 104.624 126.226C104.811 126.347 105.044 126.45 105.324 126.534C105.604 126.618 105.903 126.707 106.22 126.8C106.547 126.893 106.85 127.019 107.13 127.178C107.41 127.337 107.639 127.556 107.816 127.836C108.003 128.116 108.096 128.485 108.096 128.942C108.096 129.409 107.97 129.81 107.718 130.146C107.466 130.473 107.121 130.725 106.682 130.902C106.253 131.079 105.763 131.168 105.212 131.168C104.755 131.168 104.302 131.103 103.854 130.972C103.416 130.832 103.052 130.645 102.762 130.412Z" fill="white"/>
<path d="M125.5 105.5H208.5V144.5H125.5V105.5Z" stroke="black"/>
<path d="M150.505 123.958L147.369 128.9L144.233 123.958V131H142.567V120.948H144.135L147.397 126.184L150.659 120.948H152.171V131H150.505V123.958ZM155.947 123.748V131H154.309V123.748H155.947ZM154.113 121.536C154.113 121.256 154.211 121.018 154.407 120.822C154.603 120.626 154.841 120.528 155.121 120.528C155.401 120.528 155.639 120.626 155.835 120.822C156.031 121.018 156.129 121.256 156.129 121.536C156.129 121.816 156.031 122.054 155.835 122.25C155.639 122.446 155.401 122.544 155.121 122.544C154.841 122.544 154.603 122.446 154.407 122.25C154.211 122.054 154.113 121.816 154.113 121.536ZM157.987 131V123.748H159.625V124.434C159.821 124.201 160.087 124 160.423 123.832C160.768 123.664 161.156 123.58 161.585 123.58C162.136 123.58 162.602 123.697 162.985 123.93C163.368 124.154 163.657 124.467 163.853 124.868C164.058 125.269 164.161 125.741 164.161 126.282V131H162.523V126.562C162.523 126.105 162.406 125.741 162.173 125.47C161.949 125.199 161.604 125.064 161.137 125.064C160.904 125.064 160.68 125.111 160.465 125.204C160.26 125.297 160.082 125.433 159.933 125.61C159.784 125.778 159.681 125.983 159.625 126.226V131H157.987ZM172.114 123.748V131H170.476V130.328C170.28 130.561 170.014 130.762 169.678 130.93C169.342 131.089 168.96 131.168 168.53 131.168C167.98 131.168 167.513 131.056 167.13 130.832C166.757 130.599 166.472 130.281 166.276 129.88C166.08 129.469 165.982 128.998 165.982 128.466V123.748H167.62V128.2C167.62 128.648 167.728 129.007 167.942 129.278C168.166 129.549 168.512 129.684 168.978 129.684C169.333 129.684 169.646 129.581 169.916 129.376C170.196 129.171 170.383 128.886 170.476 128.522V123.748H172.114ZM176.667 125.106V131H175.029V125.106H173.545V123.748H175.029V121.774H176.667V123.748H178.305V125.106H176.667ZM180.625 127.374C180.625 127.934 180.723 128.391 180.919 128.746C181.125 129.091 181.395 129.348 181.731 129.516C182.077 129.675 182.455 129.754 182.865 129.754C183.276 129.754 183.64 129.703 183.957 129.6C184.275 129.488 184.606 129.315 184.951 129.082V130.524C184.634 130.757 184.275 130.921 183.873 131.014C183.472 131.117 183.043 131.168 182.585 131.168C181.876 131.168 181.255 131.009 180.723 130.692C180.191 130.375 179.776 129.931 179.477 129.362C179.179 128.783 179.029 128.121 179.029 127.374C179.029 126.646 179.169 125.997 179.449 125.428C179.739 124.859 180.135 124.411 180.639 124.084C181.143 123.748 181.722 123.58 182.375 123.58C182.879 123.58 183.323 123.669 183.705 123.846C184.088 124.014 184.41 124.257 184.671 124.574C184.933 124.882 185.129 125.255 185.259 125.694C185.39 126.133 185.455 126.618 185.455 127.15V127.724H180.219L180.261 126.506H183.859C183.85 126.291 183.813 126.091 183.747 125.904C183.682 125.717 183.584 125.554 183.453 125.414C183.332 125.265 183.183 125.153 183.005 125.078C182.828 124.994 182.618 124.952 182.375 124.952C182.077 124.952 181.792 125.041 181.521 125.218C181.251 125.386 181.031 125.647 180.863 126.002C180.705 126.357 180.625 126.814 180.625 127.374ZM186.621 130.412V128.746C186.854 128.97 187.106 129.161 187.377 129.32C187.657 129.479 187.942 129.6 188.231 129.684C188.53 129.768 188.819 129.81 189.099 129.81C189.332 129.81 189.542 129.782 189.729 129.726C189.925 129.67 190.079 129.586 190.191 129.474C190.312 129.362 190.373 129.217 190.373 129.04C190.373 128.807 190.284 128.629 190.107 128.508C189.93 128.377 189.696 128.27 189.407 128.186C189.127 128.093 188.828 127.999 188.511 127.906C188.194 127.803 187.89 127.673 187.601 127.514C187.321 127.355 187.092 127.141 186.915 126.87C186.738 126.599 186.649 126.24 186.649 125.792C186.649 125.353 186.766 124.971 186.999 124.644C187.242 124.308 187.568 124.047 187.979 123.86C188.399 123.673 188.87 123.58 189.393 123.58C189.813 123.58 190.205 123.636 190.569 123.748C190.933 123.851 191.264 124.005 191.563 124.21V125.876C191.255 125.605 190.919 125.381 190.555 125.204C190.2 125.027 189.813 124.938 189.393 124.938C189.066 124.938 188.786 125.008 188.553 125.148C188.329 125.279 188.217 125.465 188.217 125.708C188.217 125.932 188.306 126.105 188.483 126.226C188.67 126.347 188.903 126.45 189.183 126.534C189.463 126.618 189.762 126.707 190.079 126.8C190.406 126.893 190.709 127.019 190.989 127.178C191.269 127.337 191.498 127.556 191.675 127.836C191.862 128.116 191.955 128.485 191.955 128.942C191.955 129.409 191.829 129.81 191.577 130.146C191.325 130.473 190.98 130.725 190.541 130.902C190.112 131.079 189.622 131.168 189.071 131.168C188.614 131.168 188.161 131.103 187.713 130.972C187.274 130.832 186.91 130.645 186.621 130.412Z" fill="black"/>
<path d="M208.5 105.5H287.5V144.5H208.5V105.5Z" stroke="black"/>
<path d="M236.523 120.948H238.217V131H236.523V126.59H231.455V131H229.761V120.948H231.455V125.092H236.523V120.948ZM239.836 127.374C239.836 126.627 239.981 125.969 240.27 125.4C240.569 124.831 240.975 124.387 241.488 124.07C242.011 123.743 242.613 123.58 243.294 123.58C243.975 123.58 244.573 123.743 245.086 124.07C245.609 124.387 246.015 124.831 246.304 125.4C246.603 125.969 246.752 126.627 246.752 127.374C246.752 128.111 246.603 128.769 246.304 129.348C246.015 129.917 245.609 130.365 245.086 130.692C244.573 131.009 243.975 131.168 243.294 131.168C242.613 131.168 242.011 131.009 241.488 130.692C240.975 130.365 240.569 129.917 240.27 129.348C239.981 128.769 239.836 128.111 239.836 127.374ZM241.474 127.374C241.474 127.831 241.544 128.242 241.684 128.606C241.824 128.97 242.029 129.255 242.3 129.46C242.571 129.665 242.902 129.768 243.294 129.768C243.686 129.768 244.017 129.665 244.288 129.46C244.559 129.255 244.764 128.97 244.904 128.606C245.044 128.242 245.114 127.831 245.114 127.374C245.114 126.917 245.044 126.511 244.904 126.156C244.764 125.792 244.559 125.507 244.288 125.302C244.017 125.087 243.686 124.98 243.294 124.98C242.902 124.98 242.571 125.087 242.3 125.302C242.029 125.507 241.824 125.792 241.684 126.156C241.544 126.511 241.474 126.917 241.474 127.374ZM254.304 123.748V131H252.666V130.328C252.47 130.561 252.204 130.762 251.868 130.93C251.532 131.089 251.149 131.168 250.72 131.168C250.169 131.168 249.702 131.056 249.32 130.832C248.946 130.599 248.662 130.281 248.466 129.88C248.27 129.469 248.172 128.998 248.172 128.466V123.748H249.81V128.2C249.81 128.648 249.917 129.007 250.132 129.278C250.356 129.549 250.701 129.684 251.168 129.684C251.522 129.684 251.835 129.581 252.106 129.376C252.386 129.171 252.572 128.886 252.666 128.522V123.748H254.304ZM260.41 123.706V125.4C260.289 125.316 260.139 125.255 259.962 125.218C259.785 125.171 259.612 125.148 259.444 125.148C259.22 125.148 259.005 125.19 258.8 125.274C258.604 125.358 258.431 125.484 258.282 125.652C258.142 125.82 258.044 126.035 257.988 126.296V131H256.35V123.748H257.988V124.476C258.081 124.299 258.207 124.145 258.366 124.014C258.534 123.874 258.721 123.767 258.926 123.692C259.141 123.617 259.365 123.58 259.598 123.58C259.785 123.58 259.953 123.594 260.102 123.622C260.251 123.641 260.354 123.669 260.41 123.706ZM261.428 130.412V128.746C261.661 128.97 261.913 129.161 262.184 129.32C262.464 129.479 262.748 129.6 263.038 129.684C263.336 129.768 263.626 129.81 263.906 129.81C264.139 129.81 264.349 129.782 264.536 129.726C264.732 129.67 264.886 129.586 264.998 129.474C265.119 129.362 265.18 129.217 265.18 129.04C265.18 128.807 265.091 128.629 264.914 128.508C264.736 128.377 264.503 128.27 264.214 128.186C263.934 128.093 263.635 127.999 263.318 127.906C263 127.803 262.697 127.673 262.408 127.514C262.128 127.355 261.899 127.141 261.722 126.87C261.544 126.599 261.456 126.24 261.456 125.792C261.456 125.353 261.572 124.971 261.806 124.644C262.048 124.308 262.375 124.047 262.786 123.86C263.206 123.673 263.677 123.58 264.2 123.58C264.62 123.58 265.012 123.636 265.376 123.748C265.74 123.851 266.071 124.005 266.37 124.21V125.876C266.062 125.605 265.726 125.381 265.362 125.204C265.007 125.027 264.62 124.938 264.2 124.938C263.873 124.938 263.593 125.008 263.36 125.148C263.136 125.279 263.024 125.465 263.024 125.708C263.024 125.932 263.112 126.105 263.29 126.226C263.476 126.347 263.71 126.45 263.99 126.534C264.27 126.618 264.568 126.707 264.886 126.8C265.212 126.893 265.516 127.019 265.796 127.178C266.076 127.337 266.304 127.556 266.482 127.836C266.668 128.116 266.762 128.485 266.762 128.942C266.762 129.409 266.636 129.81 266.384 130.146C266.132 130.473 265.786 130.725 265.348 130.902C264.918 131.079 264.428 131.168 263.878 131.168C263.42 131.168 262.968 131.103 262.52 130.972C262.081 130.832 261.717 130.645 261.428 130.412Z" fill="black"/>
<path d="M287.5 105.5H366.5V144.5H287.5V105.5Z" stroke="black"/>
<path d="M314.064 129.502H315.688C316.397 129.502 316.99 129.362 317.466 129.082C317.942 128.793 318.301 128.382 318.544 127.85C318.787 127.318 318.908 126.693 318.908 125.974C318.908 125.246 318.787 124.621 318.544 124.098C318.301 123.566 317.942 123.16 317.466 122.88C316.99 122.591 316.397 122.446 315.688 122.446H314.064V129.502ZM312.37 131V120.948H315.758C316.747 120.948 317.606 121.153 318.334 121.564C319.062 121.975 319.627 122.558 320.028 123.314C320.429 124.061 320.63 124.947 320.63 125.974C320.63 126.991 320.429 127.878 320.028 128.634C319.627 129.39 319.062 129.973 318.334 130.384C317.606 130.795 316.747 131 315.758 131H312.37ZM324.677 129.852C325.031 129.852 325.349 129.782 325.629 129.642C325.918 129.493 326.109 129.301 326.203 129.068V128.452C326.109 128.237 325.918 128.065 325.629 127.934C325.349 127.794 325.031 127.724 324.677 127.724C324.425 127.724 324.182 127.766 323.949 127.85C323.725 127.925 323.543 128.041 323.403 128.2C323.263 128.359 323.193 128.555 323.193 128.788C323.193 129.021 323.263 129.217 323.403 129.376C323.543 129.535 323.725 129.656 323.949 129.74C324.182 129.815 324.425 129.852 324.677 129.852ZM326.203 126.282C326.203 125.937 326.063 125.647 325.783 125.414C325.503 125.171 325.078 125.05 324.509 125.05C324.117 125.05 323.757 125.111 323.431 125.232C323.104 125.344 322.791 125.498 322.493 125.694V124.182C322.726 124.014 323.053 123.874 323.473 123.762C323.902 123.641 324.345 123.58 324.803 123.58C325.437 123.58 325.974 123.687 326.413 123.902C326.851 124.117 327.183 124.425 327.407 124.826C327.64 125.218 327.757 125.694 327.757 126.254V131H326.203V130.608C326.081 130.729 325.857 130.855 325.531 130.986C325.204 131.107 324.835 131.168 324.425 131.168C323.93 131.168 323.473 131.07 323.053 130.874C322.633 130.678 322.297 130.403 322.045 130.048C321.802 129.693 321.681 129.273 321.681 128.788C321.681 128.303 321.802 127.883 322.045 127.528C322.297 127.173 322.633 126.898 323.053 126.702C323.473 126.506 323.93 126.408 324.425 126.408C324.835 126.408 325.204 126.464 325.531 126.576C325.867 126.688 326.091 126.8 326.203 126.912V126.282ZM331.653 131.182L328.825 123.748H330.575L332.451 129.082L334.327 123.748H336.021L332.199 133.8H330.617L331.653 131.182ZM336.818 130.412V128.746C337.051 128.97 337.303 129.161 337.574 129.32C337.854 129.479 338.139 129.6 338.428 129.684C338.727 129.768 339.016 129.81 339.296 129.81C339.529 129.81 339.739 129.782 339.926 129.726C340.122 129.67 340.276 129.586 340.388 129.474C340.509 129.362 340.57 129.217 340.57 129.04C340.57 128.807 340.481 128.629 340.304 128.508C340.127 128.377 339.893 128.27 339.604 128.186C339.324 128.093 339.025 127.999 338.708 127.906C338.391 127.803 338.087 127.673 337.798 127.514C337.518 127.355 337.289 127.141 337.112 126.87C336.935 126.599 336.846 126.24 336.846 125.792C336.846 125.353 336.963 124.971 337.196 124.644C337.439 124.308 337.765 124.047 338.176 123.86C338.596 123.673 339.067 123.58 339.59 123.58C340.01 123.58 340.402 123.636 340.766 123.748C341.13 123.851 341.461 124.005 341.76 124.21V125.876C341.452 125.605 341.116 125.381 340.752 125.204C340.397 125.027 340.01 124.938 339.59 124.938C339.263 124.938 338.983 125.008 338.75 125.148C338.526 125.279 338.414 125.465 338.414 125.708C338.414 125.932 338.503 126.105 338.68 126.226C338.867 126.347 339.1 126.45 339.38 126.534C339.66 126.618 339.959 126.707 340.276 126.8C340.603 126.893 340.906 127.019 341.186 127.178C341.466 127.337 341.695 127.556 341.872 127.836C342.059 128.116 342.152 128.485 342.152 128.942C342.152 129.409 342.026 129.81 341.774 130.146C341.522 130.473 341.177 130.725 340.738 130.902C340.309 131.079 339.819 131.168 339.268 131.168C338.811 131.168 338.358 131.103 337.91 130.972C337.471 130.832 337.107 130.645 336.818 130.412Z" fill="black"/>
<path d="M366.5 105.5H445.5V144.5H366.5V105.5Z" stroke="black"/>
<path d="M391.108 120.948H392.48L394.398 128.354L396.218 120.948H397.856L395.266 131H393.698L391.78 123.818L389.862 131H388.308L385.718 120.948H387.384L389.204 128.326L391.108 120.948ZM399.678 127.374C399.678 127.934 399.776 128.391 399.972 128.746C400.177 129.091 400.448 129.348 400.784 129.516C401.129 129.675 401.507 129.754 401.918 129.754C402.329 129.754 402.693 129.703 403.01 129.6C403.327 129.488 403.659 129.315 404.004 129.082V130.524C403.687 130.757 403.327 130.921 402.926 131.014C402.525 131.117 402.095 131.168 401.638 131.168C400.929 131.168 400.308 131.009 399.776 130.692C399.244 130.375 398.829 129.931 398.53 129.362C398.231 128.783 398.082 128.121 398.082 127.374C398.082 126.646 398.222 125.997 398.502 125.428C398.791 124.859 399.188 124.411 399.692 124.084C400.196 123.748 400.775 123.58 401.428 123.58C401.932 123.58 402.375 123.669 402.758 123.846C403.141 124.014 403.463 124.257 403.724 124.574C403.985 124.882 404.181 125.255 404.312 125.694C404.443 126.133 404.508 126.618 404.508 127.15V127.724H399.272L399.314 126.506H402.912C402.903 126.291 402.865 126.091 402.8 125.904C402.735 125.717 402.637 125.554 402.506 125.414C402.385 125.265 402.235 125.153 402.058 125.078C401.881 124.994 401.671 124.952 401.428 124.952C401.129 124.952 400.845 125.041 400.574 125.218C400.303 125.386 400.084 125.647 399.916 126.002C399.757 126.357 399.678 126.814 399.678 127.374ZM407.184 127.374C407.184 127.934 407.282 128.391 407.478 128.746C407.683 129.091 407.954 129.348 408.29 129.516C408.635 129.675 409.013 129.754 409.424 129.754C409.835 129.754 410.199 129.703 410.516 129.6C410.833 129.488 411.165 129.315 411.51 129.082V130.524C411.193 130.757 410.833 130.921 410.432 131.014C410.031 131.117 409.601 131.168 409.144 131.168C408.435 131.168 407.814 131.009 407.282 130.692C406.75 130.375 406.335 129.931 406.036 129.362C405.737 128.783 405.588 128.121 405.588 127.374C405.588 126.646 405.728 125.997 406.008 125.428C406.297 124.859 406.694 124.411 407.198 124.084C407.702 123.748 408.281 123.58 408.934 123.58C409.438 123.58 409.881 123.669 410.264 123.846C410.647 124.014 410.969 124.257 411.23 124.574C411.491 124.882 411.687 125.255 411.818 125.694C411.949 126.133 412.014 126.618 412.014 127.15V127.724H406.778L406.82 126.506H410.418C410.409 126.291 410.371 126.091 410.306 125.904C410.241 125.717 410.143 125.554 410.012 125.414C409.891 125.265 409.741 125.153 409.564 125.078C409.387 124.994 409.177 124.952 408.934 124.952C408.635 124.952 408.351 125.041 408.08 125.218C407.809 125.386 407.59 125.647 407.422 126.002C407.263 126.357 407.184 126.814 407.184 127.374ZM416.749 127.024L420.109 131H418.121L415.181 127.514V131H413.543V120.36H415.181V126.674L418.051 123.748H419.997L416.749 127.024ZM420.631 130.412V128.746C420.864 128.97 421.116 129.161 421.387 129.32C421.667 129.479 421.951 129.6 422.241 129.684C422.539 129.768 422.829 129.81 423.109 129.81C423.342 129.81 423.552 129.782 423.739 129.726C423.935 129.67 424.089 129.586 424.201 129.474C424.322 129.362 424.383 129.217 424.383 129.04C424.383 128.807 424.294 128.629 424.117 128.508C423.939 128.377 423.706 128.27 423.417 128.186C423.137 128.093 422.838 127.999 422.521 127.906C422.203 127.803 421.9 127.673 421.611 127.514C421.331 127.355 421.102 127.141 420.925 126.87C420.747 126.599 420.659 126.24 420.659 125.792C420.659 125.353 420.775 124.971 421.009 124.644C421.251 124.308 421.578 124.047 421.989 123.86C422.409 123.673 422.88 123.58 423.403 123.58C423.823 123.58 424.215 123.636 424.579 123.748C424.943 123.851 425.274 124.005 425.573 124.21V125.876C425.265 125.605 424.929 125.381 424.565 125.204C424.21 125.027 423.823 124.938 423.403 124.938C423.076 124.938 422.796 125.008 422.563 125.148C422.339 125.279 422.227 125.465 422.227 125.708C422.227 125.932 422.315 126.105 422.493 126.226C422.679 126.347 422.913 126.45 423.193 126.534C423.473 126.618 423.771 126.707 424.089 126.8C424.415 126.893 424.719 127.019 424.999 127.178C425.279 127.337 425.507 127.556 425.685 127.836C425.871 128.116 425.965 128.485 425.965 128.942C425.965 129.409 425.839 129.81 425.587 130.146C425.335 130.473 424.989 130.725 424.551 130.902C424.121 131.079 423.631 131.168 423.081 131.168C422.623 131.168 422.171 131.103 421.723 130.972C421.284 130.832 420.92 130.645 420.631 130.412Z" fill="black"/>
<path d="M445.5 105.5H525.5V144.5H445.5V105.5Z" stroke="black"/>
<path d="M470.475 123.958L467.339 128.9L464.203 123.958V131H462.537V120.948H464.105L467.367 126.184L470.629 120.948H472.141V131H470.475V123.958ZM473.761 127.374C473.761 126.627 473.906 125.969 474.195 125.4C474.494 124.831 474.9 124.387 475.413 124.07C475.936 123.743 476.538 123.58 477.219 123.58C477.9 123.58 478.498 123.743 479.011 124.07C479.534 124.387 479.94 124.831 480.229 125.4C480.528 125.969 480.677 126.627 480.677 127.374C480.677 128.111 480.528 128.769 480.229 129.348C479.94 129.917 479.534 130.365 479.011 130.692C478.498 131.009 477.9 131.168 477.219 131.168C476.538 131.168 475.936 131.009 475.413 130.692C474.9 130.365 474.494 129.917 474.195 129.348C473.906 128.769 473.761 128.111 473.761 127.374ZM475.399 127.374C475.399 127.831 475.469 128.242 475.609 128.606C475.749 128.97 475.954 129.255 476.225 129.46C476.496 129.665 476.827 129.768 477.219 129.768C477.611 129.768 477.942 129.665 478.213 129.46C478.484 129.255 478.689 128.97 478.829 128.606C478.969 128.242 479.039 127.831 479.039 127.374C479.039 126.917 478.969 126.511 478.829 126.156C478.689 125.792 478.484 125.507 478.213 125.302C477.942 125.087 477.611 124.98 477.219 124.98C476.827 124.98 476.496 125.087 476.225 125.302C475.954 125.507 475.749 125.792 475.609 126.156C475.469 126.511 475.399 126.917 475.399 127.374ZM482.209 131V123.748H483.847V124.434C484.043 124.201 484.309 124 484.645 123.832C484.99 123.664 485.377 123.58 485.807 123.58C486.357 123.58 486.824 123.697 487.207 123.93C487.589 124.154 487.879 124.467 488.075 124.868C488.28 125.269 488.383 125.741 488.383 126.282V131H486.745V126.562C486.745 126.105 486.628 125.741 486.395 125.47C486.171 125.199 485.825 125.064 485.359 125.064C485.125 125.064 484.901 125.111 484.687 125.204C484.481 125.297 484.304 125.433 484.155 125.61C484.005 125.778 483.903 125.983 483.847 126.226V131H482.209ZM492.822 125.106V131H491.184V125.106H489.7V123.748H491.184V121.774H492.822V123.748H494.46V125.106H492.822ZM495.908 131V120.36H497.546V124.434C497.742 124.201 498.008 124 498.344 123.832C498.689 123.664 499.076 123.58 499.506 123.58C500.056 123.58 500.523 123.697 500.906 123.93C501.288 124.154 501.578 124.467 501.774 124.868C501.979 125.269 502.082 125.741 502.082 126.282V131H500.444V126.562C500.444 126.105 500.327 125.741 500.094 125.47C499.87 125.199 499.524 125.064 499.058 125.064C498.824 125.064 498.6 125.111 498.386 125.204C498.18 125.297 498.003 125.433 497.854 125.61C497.704 125.778 497.602 125.983 497.546 126.226V131H495.908ZM503.651 130.412V128.746C503.884 128.97 504.136 129.161 504.407 129.32C504.687 129.479 504.972 129.6 505.261 129.684C505.56 129.768 505.849 129.81 506.129 129.81C506.362 129.81 506.572 129.782 506.759 129.726C506.955 129.67 507.109 129.586 507.221 129.474C507.342 129.362 507.403 129.217 507.403 129.04C507.403 128.807 507.314 128.629 507.137 128.508C506.96 128.377 506.726 128.27 506.437 128.186C506.157 128.093 505.858 127.999 505.541 127.906C505.224 127.803 504.92 127.673 504.631 127.514C504.351 127.355 504.122 127.141 503.945 126.87C503.768 126.599 503.679 126.24 503.679 125.792C503.679 125.353 503.796 124.971 504.029 124.644C504.272 124.308 504.598 124.047 505.009 123.86C505.429 123.673 505.9 123.58 506.423 123.58C506.843 123.58 507.235 123.636 507.599 123.748C507.963 123.851 508.294 124.005 508.593 124.21V125.876C508.285 125.605 507.949 125.381 507.585 125.204C507.23 125.027 506.843 124.938 506.423 124.938C506.096 124.938 505.816 125.008 505.583 125.148C505.359 125.279 505.247 125.465 505.247 125.708C505.247 125.932 505.336 126.105 505.513 126.226C505.7 126.347 505.933 126.45 506.213 126.534C506.493 126.618 506.792 126.707 507.109 126.8C507.436 126.893 507.739 127.019 508.019 127.178C508.299 127.337 508.528 127.556 508.705 127.836C508.892 128.116 508.985 128.485 508.985 128.942C508.985 129.409 508.859 129.81 508.607 130.146C508.355 130.473 508.01 130.725 507.571 130.902C507.142 131.079 506.652 131.168 506.101 131.168C505.644 131.168 505.191 131.103 504.743 130.972C504.304 130.832 503.94 130.645 503.651 130.412Z" fill="black"/>
<path d="M525.5 105.5H604.5V144.5H525.5V105.5Z" stroke="black"/>
<path d="M552.226 125.442L554.886 120.948H556.664L553.038 126.982V131H551.344V126.982L547.718 120.948H549.566L552.226 125.442ZM557.619 127.374C557.619 127.934 557.717 128.391 557.913 128.746C558.118 129.091 558.389 129.348 558.725 129.516C559.07 129.675 559.448 129.754 559.859 129.754C560.269 129.754 560.633 129.703 560.951 129.6C561.268 129.488 561.599 129.315 561.945 129.082V130.524C561.627 130.757 561.268 130.921 560.867 131.014C560.465 131.117 560.036 131.168 559.579 131.168C558.869 131.168 558.249 131.009 557.717 130.692C557.185 130.375 556.769 129.931 556.471 129.362C556.172 128.783 556.023 128.121 556.023 127.374C556.023 126.646 556.163 125.997 556.443 125.428C556.732 124.859 557.129 124.411 557.633 124.084C558.137 123.748 558.715 123.58 559.369 123.58C559.873 123.58 560.316 123.669 560.699 123.846C561.081 124.014 561.403 124.257 561.665 124.574C561.926 124.882 562.122 125.255 562.253 125.694C562.383 126.133 562.449 126.618 562.449 127.15V127.724H557.213L557.255 126.506H560.853C560.843 126.291 560.806 126.091 560.741 125.904C560.675 125.717 560.577 125.554 560.447 125.414C560.325 125.265 560.176 125.153 559.999 125.078C559.821 124.994 559.611 124.952 559.369 124.952C559.07 124.952 558.785 125.041 558.515 125.218C558.244 125.386 558.025 125.647 557.857 126.002C557.698 126.357 557.619 126.814 557.619 127.374ZM566.498 129.852C566.853 129.852 567.17 129.782 567.45 129.642C567.739 129.493 567.931 129.301 568.024 129.068V128.452C567.931 128.237 567.739 128.065 567.45 127.934C567.17 127.794 566.853 127.724 566.498 127.724C566.246 127.724 566.003 127.766 565.77 127.85C565.546 127.925 565.364 128.041 565.224 128.2C565.084 128.359 565.014 128.555 565.014 128.788C565.014 129.021 565.084 129.217 565.224 129.376C565.364 129.535 565.546 129.656 565.77 129.74C566.003 129.815 566.246 129.852 566.498 129.852ZM568.024 126.282C568.024 125.937 567.884 125.647 567.604 125.414C567.324 125.171 566.899 125.05 566.33 125.05C565.938 125.05 565.579 125.111 565.252 125.232C564.925 125.344 564.613 125.498 564.314 125.694V124.182C564.547 124.014 564.874 123.874 565.294 123.762C565.723 123.641 566.167 123.58 566.624 123.58C567.259 123.58 567.795 123.687 568.234 123.902C568.673 124.117 569.004 124.425 569.228 124.826C569.461 125.218 569.578 125.694 569.578 126.254V131H568.024V130.608C567.903 130.729 567.679 130.855 567.352 130.986C567.025 131.107 566.657 131.168 566.246 131.168C565.751 131.168 565.294 131.07 564.874 130.874C564.454 130.678 564.118 130.403 563.866 130.048C563.623 129.693 563.502 129.273 563.502 128.788C563.502 128.303 563.623 127.883 563.866 127.528C564.118 127.173 564.454 126.898 564.874 126.702C565.294 126.506 565.751 126.408 566.246 126.408C566.657 126.408 567.025 126.464 567.352 126.576C567.688 126.688 567.912 126.8 568.024 126.912V126.282ZM575.585 123.706V125.4C575.464 125.316 575.314 125.255 575.137 125.218C574.96 125.171 574.787 125.148 574.619 125.148C574.395 125.148 574.18 125.19 573.975 125.274C573.779 125.358 573.606 125.484 573.457 125.652C573.317 125.82 573.219 126.035 573.163 126.296V131H571.525V123.748H573.163V124.476C573.256 124.299 573.382 124.145 573.541 124.014C573.709 123.874 573.896 123.767 574.101 123.692C574.316 123.617 574.54 123.58 574.773 123.58C574.96 123.58 575.128 123.594 575.277 123.622C575.426 123.641 575.529 123.669 575.585 123.706ZM576.602 130.412V128.746C576.836 128.97 577.088 129.161 577.358 129.32C577.638 129.479 577.923 129.6 578.212 129.684C578.511 129.768 578.8 129.81 579.08 129.81C579.314 129.81 579.524 129.782 579.71 129.726C579.906 129.67 580.06 129.586 580.172 129.474C580.294 129.362 580.354 129.217 580.354 129.04C580.354 128.807 580.266 128.629 580.088 128.508C579.911 128.377 579.678 128.27 579.388 128.186C579.108 128.093 578.81 127.999 578.492 127.906C578.175 127.803 577.872 127.673 577.582 127.514C577.302 127.355 577.074 127.141 576.896 126.87C576.719 126.599 576.63 126.24 576.63 125.792C576.63 125.353 576.747 124.971 576.98 124.644C577.223 124.308 577.55 124.047 577.96 123.86C578.38 123.673 578.852 123.58 579.374 123.58C579.794 123.58 580.186 123.636 580.55 123.748C580.914 123.851 581.246 124.005 581.544 124.21V125.876C581.236 125.605 580.9 125.381 580.536 125.204C580.182 125.027 579.794 124.938 579.374 124.938C579.048 124.938 578.768 125.008 578.534 125.148C578.31 125.279 578.198 125.465 578.198 125.708C578.198 125.932 578.287 126.105 578.464 126.226C578.651 126.347 578.884 126.45 579.164 126.534C579.444 126.618 579.743 126.707 580.06 126.8C580.387 126.893 580.69 127.019 580.97 127.178C581.25 127.337 581.479 127.556 581.656 127.836C581.843 128.116 581.936 128.485 581.936 128.942C581.936 129.409 581.81 129.81 581.558 130.146C581.306 130.473 580.961 130.725 580.522 130.902C580.093 131.079 579.603 131.168 579.052 131.168C578.595 131.168 578.142 131.103 577.694 130.972C577.256 130.832 576.892 130.645 576.602 130.412Z" fill="black"/>
</svg>
