<svg width="500" height="251" viewBox="0 0 500 251" fill="none" xmlns="http://www.w3.org/2000/svg">
<path d="M0 8.25781C0 3.83954 3.58172 0.257812 8 0.257812H492C496.418 0.257812 500 3.83954 500 8.25781V250.258H0V8.25781Z" fill="#F2F2F2"/>
<path d="M98.51 118.578V115.162H100.302V123.758H98.51V120.146H94.618V123.758H92.826V115.162H94.618V118.578H98.51ZM109.673 119.46C109.673 120.094 109.575 120.682 109.379 121.224C109.183 121.765 108.903 122.236 108.539 122.638C108.165 123.039 107.727 123.352 107.223 123.576C106.719 123.79 106.177 123.898 105.599 123.898C105.02 123.898 104.479 123.79 103.975 123.576C103.471 123.352 103.037 123.039 102.673 122.638C102.309 122.236 102.029 121.765 101.833 121.224C101.637 120.682 101.539 120.094 101.539 119.46C101.539 118.825 101.637 118.237 101.833 117.696C102.029 117.145 102.309 116.669 102.673 116.268C103.037 115.866 103.466 115.558 103.961 115.344C104.465 115.129 105.011 115.022 105.599 115.022C106.187 115.022 106.728 115.129 107.223 115.344C107.727 115.558 108.165 115.866 108.539 116.268C108.903 116.669 109.183 117.145 109.379 117.696C109.575 118.237 109.673 118.825 109.673 119.46ZM107.867 119.46C107.867 118.629 107.661 117.943 107.251 117.402C107.055 117.15 106.812 116.958 106.523 116.828C106.243 116.688 105.935 116.618 105.599 116.618C105.272 116.618 104.969 116.688 104.689 116.828C104.409 116.958 104.171 117.15 103.975 117.402C103.564 117.943 103.359 118.629 103.359 119.46C103.359 119.88 103.41 120.267 103.513 120.622C103.625 120.967 103.779 121.261 103.975 121.504C104.171 121.756 104.409 121.952 104.689 122.092C104.969 122.232 105.272 122.302 105.599 122.302C105.935 122.302 106.243 122.232 106.523 122.092C106.812 121.952 107.055 121.756 107.251 121.504C107.447 121.261 107.596 120.967 107.699 120.622C107.811 120.267 107.867 119.88 107.867 119.46ZM117.648 118.214L115.198 121.91H115.142L112.664 118.214V123.758H110.914V115.162H112.58L115.184 119.222L117.774 115.162H119.412V123.758H117.648V118.214ZM121.045 123.758V115.162H126.883V116.73H122.809V118.606H126.505V120.132H122.809V122.176H126.883V123.758H121.045Z" fill="#1A1A1A"/>
<rect x="92" y="137.758" width="36" height="4" fill="#1A1A1A"/>
<path d="M143.374 120.944L144.886 115.162H146.286L147.77 120.944L149.184 115.162H150.948L148.708 123.758H147.07L145.558 118.088L144.046 123.758H142.408L140.168 115.162H141.974L143.374 120.944ZM159.519 119.46C159.519 120.094 159.421 120.682 159.225 121.224C159.029 121.765 158.749 122.236 158.385 122.638C158.011 123.039 157.573 123.352 157.069 123.576C156.565 123.79 156.023 123.898 155.445 123.898C154.866 123.898 154.325 123.79 153.821 123.576C153.317 123.352 152.883 123.039 152.519 122.638C152.155 122.236 151.875 121.765 151.679 121.224C151.483 120.682 151.385 120.094 151.385 119.46C151.385 118.825 151.483 118.237 151.679 117.696C151.875 117.145 152.155 116.669 152.519 116.268C152.883 115.866 153.312 115.558 153.807 115.344C154.311 115.129 154.857 115.022 155.445 115.022C156.033 115.022 156.574 115.129 157.069 115.344C157.573 115.558 158.011 115.866 158.385 116.268C158.749 116.669 159.029 117.145 159.225 117.696C159.421 118.237 159.519 118.825 159.519 119.46ZM157.713 119.46C157.713 118.629 157.507 117.943 157.097 117.402C156.901 117.15 156.658 116.958 156.369 116.828C156.089 116.688 155.781 116.618 155.445 116.618C155.118 116.618 154.815 116.688 154.535 116.828C154.255 116.958 154.017 117.15 153.821 117.402C153.41 117.943 153.205 118.629 153.205 119.46C153.205 119.88 153.256 120.267 153.359 120.622C153.471 120.967 153.625 121.261 153.821 121.504C154.017 121.756 154.255 121.952 154.535 122.092C154.815 122.232 155.118 122.302 155.445 122.302C155.781 122.302 156.089 122.232 156.369 122.092C156.658 121.952 156.901 121.756 157.097 121.504C157.293 121.261 157.442 120.967 157.545 120.622C157.657 120.267 157.713 119.88 157.713 119.46ZM162.538 120.552V123.758H160.76V115.162H164.302C165.235 115.162 165.968 115.404 166.5 115.89C167.041 116.366 167.312 117.033 167.312 117.892C167.312 118.564 167.139 119.119 166.794 119.558C166.458 119.987 165.977 120.276 165.352 120.426L167.62 123.758H165.604L163.476 120.552H162.538ZM162.538 119.082H164.19C164.628 119.082 164.964 118.979 165.198 118.774C165.431 118.559 165.548 118.265 165.548 117.892C165.548 117.518 165.431 117.224 165.198 117.01C164.964 116.795 164.628 116.688 164.19 116.688H162.538V119.082ZM174.444 123.758H168.648V115.162H170.44V122.176H174.444V123.758ZM175.744 115.162H178.782C179.417 115.162 180 115.264 180.532 115.47C181.064 115.666 181.517 115.95 181.89 116.324C182.254 116.697 182.534 117.154 182.73 117.696C182.926 118.228 183.024 118.816 183.024 119.46C183.024 120.104 182.926 120.696 182.73 121.238C182.534 121.77 182.254 122.222 181.89 122.596C181.517 122.969 181.064 123.258 180.532 123.464C180 123.66 179.417 123.758 178.782 123.758H175.744V115.162ZM178.712 122.176C179.515 122.176 180.135 121.938 180.574 121.462C181.022 120.976 181.246 120.309 181.246 119.46C181.246 118.592 181.027 117.92 180.588 117.444C180.149 116.968 179.524 116.73 178.712 116.73H177.522V122.176H178.712Z" fill="#808080"/>
<rect opacity="0.01" x="140" y="136.758" width="44" height="4" fill="#33302E"/>
<path d="M200.27 123.898C199.738 123.898 199.253 123.823 198.814 123.674C198.375 123.515 198.002 123.286 197.694 122.988C197.031 122.344 196.7 121.448 196.7 120.3V115.162H198.492V120.118C198.492 121.564 199.085 122.288 200.27 122.288C201.455 122.288 202.048 121.564 202.048 120.118V115.162H203.84V120.3C203.84 121.457 203.523 122.348 202.888 122.974C202.253 123.59 201.381 123.898 200.27 123.898ZM205.371 115.162H207.163V118.858L210.299 115.162H212.455L208.885 119.278L212.581 123.758H210.383L207.163 119.866V123.758H205.371V115.162Z" fill="#808080"/>
<rect opacity="0.01" x="196" y="136.758" width="17" height="4" fill="#33302E"/>
<path d="M225.406 119.46C225.406 118.816 225.509 118.218 225.714 117.668C225.919 117.117 226.218 116.641 226.61 116.24C226.993 115.848 227.445 115.549 227.968 115.344C228.491 115.129 229.06 115.022 229.676 115.022C230.591 115.022 231.337 115.246 231.916 115.694V117.5C231.272 116.94 230.553 116.66 229.76 116.66C228.985 116.66 228.365 116.916 227.898 117.43C227.441 117.943 227.212 118.62 227.212 119.46C227.212 120.3 227.441 120.976 227.898 121.49C228.365 121.994 228.985 122.246 229.76 122.246C230.171 122.246 230.549 122.18 230.894 122.05C231.249 121.919 231.589 121.709 231.916 121.42V123.226C231.347 123.674 230.6 123.898 229.676 123.898C229.069 123.898 228.505 123.79 227.982 123.576C227.459 123.361 227.002 123.058 226.61 122.666C226.218 122.274 225.919 121.802 225.714 121.252C225.509 120.701 225.406 120.104 225.406 119.46ZM241.019 119.46C241.019 120.094 240.921 120.682 240.725 121.224C240.529 121.765 240.249 122.236 239.885 122.638C239.511 123.039 239.073 123.352 238.569 123.576C238.065 123.79 237.523 123.898 236.945 123.898C236.366 123.898 235.825 123.79 235.321 123.576C234.817 123.352 234.383 123.039 234.019 122.638C233.655 122.236 233.375 121.765 233.179 121.224C232.983 120.682 232.885 120.094 232.885 119.46C232.885 118.825 232.983 118.237 233.179 117.696C233.375 117.145 233.655 116.669 234.019 116.268C234.383 115.866 234.812 115.558 235.307 115.344C235.811 115.129 236.357 115.022 236.945 115.022C237.533 115.022 238.074 115.129 238.569 115.344C239.073 115.558 239.511 115.866 239.885 116.268C240.249 116.669 240.529 117.145 240.725 117.696C240.921 118.237 241.019 118.825 241.019 119.46ZM239.213 119.46C239.213 118.629 239.007 117.943 238.597 117.402C238.401 117.15 238.158 116.958 237.869 116.828C237.589 116.688 237.281 116.618 236.945 116.618C236.618 116.618 236.315 116.688 236.035 116.828C235.755 116.958 235.517 117.15 235.321 117.402C234.91 117.943 234.705 118.629 234.705 119.46C234.705 119.88 234.756 120.267 234.859 120.622C234.971 120.967 235.125 121.261 235.321 121.504C235.517 121.756 235.755 121.952 236.035 122.092C236.315 122.232 236.618 122.302 236.945 122.302C237.281 122.302 237.589 122.232 237.869 122.092C238.158 121.952 238.401 121.756 238.597 121.504C238.793 121.261 238.942 120.967 239.045 120.622C239.157 120.267 239.213 119.88 239.213 119.46ZM248.994 118.214L246.544 121.91H246.488L244.01 118.214V123.758H242.26V115.162H243.926L246.53 119.222L249.12 115.162H250.758V123.758H248.994V118.214ZM254.168 120.776V123.758H252.39V115.162H255.89C256.833 115.162 257.57 115.409 258.102 115.904C258.644 116.389 258.914 117.08 258.914 117.976C258.914 118.853 258.644 119.539 258.102 120.034C257.561 120.528 256.824 120.776 255.89 120.776H254.168ZM257.15 117.976C257.15 117.565 257.034 117.248 256.8 117.024C256.567 116.8 256.226 116.688 255.778 116.688H254.168V119.25H255.778C256.226 119.25 256.567 119.138 256.8 118.914C257.034 118.68 257.15 118.368 257.15 117.976ZM258.802 123.758L262.092 115.162H263.87L267.16 123.758H265.34L264.57 121.686H261.35L260.594 123.758H258.802ZM264.01 120.174L262.96 117.318L261.91 120.174H264.01ZM273.669 115.162H275.391V123.758H273.977L269.917 118.032V123.758H268.195V115.162H269.875L273.669 120.594V115.162ZM277.041 115.162H278.833V123.758H277.041V115.162ZM280.472 123.758V115.162H286.31V116.73H282.236V118.606H285.932V120.132H282.236V122.176H286.31V123.758H280.472ZM287.397 121.406C287.817 121.714 288.261 121.952 288.727 122.12C289.194 122.278 289.665 122.358 290.141 122.358C290.617 122.358 290.991 122.278 291.261 122.12C291.532 121.961 291.667 121.728 291.667 121.42C291.667 121.168 291.593 120.972 291.443 120.832C291.294 120.692 291.033 120.552 290.659 120.412L289.399 119.992C288.681 119.758 288.149 119.446 287.803 119.054C287.458 118.652 287.285 118.13 287.285 117.486C287.285 116.73 287.57 116.132 288.139 115.694C288.709 115.246 289.441 115.022 290.337 115.022C291.336 115.022 292.204 115.246 292.941 115.694V117.444C292.129 116.846 291.28 116.548 290.393 116.548C289.973 116.548 289.642 116.622 289.399 116.772C289.157 116.912 289.035 117.122 289.035 117.402C289.035 117.644 289.105 117.831 289.245 117.962C289.385 118.092 289.633 118.218 289.987 118.34L291.331 118.802C292.059 119.044 292.591 119.371 292.927 119.782C293.263 120.183 293.431 120.706 293.431 121.35C293.431 122.171 293.119 122.806 292.493 123.254C292.204 123.459 291.859 123.618 291.457 123.73C291.056 123.842 290.627 123.898 290.169 123.898C289.628 123.898 289.115 123.832 288.629 123.702C288.153 123.571 287.743 123.394 287.397 123.17V121.406Z" fill="#808080"/>
<rect opacity="0.01" x="225" y="136.758" width="69" height="4" fill="#33302E"/>
<path d="M309.122 116.73H306.364V115.162H313.7V116.73H310.928V123.758H309.122V116.73ZM314.879 123.758V115.162H320.717V116.73H316.643V118.606H320.339V120.132H316.643V122.176H320.717V123.758H314.879ZM321.677 119.46C321.677 118.816 321.78 118.218 321.985 117.668C322.191 117.117 322.489 116.641 322.881 116.24C323.264 115.848 323.717 115.549 324.239 115.344C324.762 115.129 325.331 115.022 325.947 115.022C326.862 115.022 327.609 115.246 328.187 115.694V117.5C327.543 116.94 326.825 116.66 326.031 116.66C325.257 116.66 324.636 116.916 324.169 117.43C323.712 117.943 323.483 118.62 323.483 119.46C323.483 120.3 323.712 120.976 324.169 121.49C324.636 121.994 325.257 122.246 326.031 122.246C326.442 122.246 326.82 122.18 327.165 122.05C327.52 121.919 327.861 121.709 328.187 121.42V123.226C327.618 123.674 326.871 123.898 325.947 123.898C325.341 123.898 324.776 123.79 324.253 123.576C323.731 123.361 323.273 123.058 322.881 122.666C322.489 122.274 322.191 121.802 321.985 121.252C321.78 120.701 321.677 120.104 321.677 119.46ZM335.315 118.578V115.162H337.107V123.758H335.315V120.146H331.423V123.758H329.631V115.162H331.423V118.578H335.315Z" fill="#808080"/>
<rect opacity="0.01" x="306" y="136.758" width="32" height="4" fill="#33302E"/>
<path d="M357.56 118.214L355.11 121.91H355.054L352.576 118.214V123.758H350.826V115.162H352.492L355.096 119.222L357.686 115.162H359.324V123.758H357.56V118.214ZM360.341 123.758L363.631 115.162H365.409L368.699 123.758H366.879L366.109 121.686H362.889L362.133 123.758H360.341ZM365.549 120.174L364.499 117.318L363.449 120.174H365.549ZM371.512 120.552V123.758H369.734V115.162H373.276C374.21 115.162 374.942 115.404 375.474 115.89C376.016 116.366 376.286 117.033 376.286 117.892C376.286 118.564 376.114 119.119 375.768 119.558C375.432 119.987 374.952 120.276 374.326 120.426L376.594 123.758H374.578L372.45 120.552H371.512ZM371.512 119.082H373.164C373.603 119.082 373.939 118.979 374.172 118.774C374.406 118.559 374.522 118.265 374.522 117.892C374.522 117.518 374.406 117.224 374.172 117.01C373.939 116.795 373.603 116.688 373.164 116.688H371.512V119.082ZM377.623 115.162H379.415V118.858L382.551 115.162H384.707L381.137 119.278L384.833 123.758H382.635L379.415 119.866V123.758H377.623V115.162ZM385.812 123.758V115.162H391.65V116.73H387.576V118.606H391.272V120.132H387.576V122.176H391.65V123.758H385.812ZM395.327 116.73H392.569V115.162H399.905V116.73H397.133V123.758H395.327V116.73ZM400.803 121.406C401.223 121.714 401.667 121.952 402.133 122.12C402.6 122.278 403.071 122.358 403.547 122.358C404.023 122.358 404.397 122.278 404.667 122.12C404.938 121.961 405.073 121.728 405.073 121.42C405.073 121.168 404.999 120.972 404.849 120.832C404.7 120.692 404.439 120.552 404.065 120.412L402.805 119.992C402.087 119.758 401.555 119.446 401.209 119.054C400.864 118.652 400.691 118.13 400.691 117.486C400.691 116.73 400.976 116.132 401.545 115.694C402.115 115.246 402.847 115.022 403.743 115.022C404.742 115.022 405.61 115.246 406.347 115.694V117.444C405.535 116.846 404.686 116.548 403.799 116.548C403.379 116.548 403.048 116.622 402.805 116.772C402.563 116.912 402.441 117.122 402.441 117.402C402.441 117.644 402.511 117.831 402.651 117.962C402.791 118.092 403.039 118.218 403.393 118.34L404.737 118.802C405.465 119.044 405.997 119.371 406.333 119.782C406.669 120.183 406.837 120.706 406.837 121.35C406.837 122.171 406.525 122.806 405.899 123.254C405.61 123.459 405.265 123.618 404.863 123.73C404.462 123.842 404.033 123.898 403.575 123.898C403.034 123.898 402.521 123.832 402.035 123.702C401.559 123.571 401.149 123.394 400.803 123.17V121.406Z" fill="#808080"/>
<rect opacity="0.01" x="350" y="136.758" width="58" height="4" fill="#33302E"/>
</svg>
