<svg width="500" height="250" viewBox="0 0 500 250" fill="none" xmlns="http://www.w3.org/2000/svg">
<path d="M0 8C0 3.58172 3.58172 0 8 0H492C496.418 0 500 3.58172 500 8V250H0V8Z" fill="#F2F2F2"/>
<rect width="86" height="40" transform="translate(125 105)" fill="black"/>
<path d="M141.922 130.286V128.494C142.23 128.737 142.556 128.947 142.902 129.124C143.256 129.301 143.62 129.437 143.994 129.53C144.367 129.614 144.75 129.656 145.142 129.656C145.506 129.656 145.837 129.609 146.136 129.516C146.444 129.423 146.686 129.278 146.864 129.082C147.05 128.877 147.144 128.625 147.144 128.326C147.144 128.018 147.05 127.766 146.864 127.57C146.677 127.365 146.425 127.192 146.108 127.052C145.8 126.903 145.459 126.767 145.086 126.646C144.722 126.525 144.353 126.389 143.98 126.24C143.606 126.091 143.261 125.909 142.944 125.694C142.636 125.47 142.388 125.195 142.202 124.868C142.015 124.532 141.922 124.117 141.922 123.622C141.922 123.034 142.076 122.53 142.384 122.11C142.692 121.681 143.102 121.354 143.616 121.13C144.138 120.897 144.708 120.78 145.324 120.78C145.884 120.78 146.416 120.85 146.92 120.99C147.424 121.13 147.876 121.331 148.278 121.592V123.356C147.867 123.029 147.424 122.768 146.948 122.572C146.472 122.367 145.94 122.264 145.352 122.264C144.838 122.264 144.414 122.371 144.078 122.586C143.751 122.791 143.588 123.099 143.588 123.51C143.588 123.799 143.681 124.042 143.868 124.238C144.054 124.425 144.302 124.588 144.61 124.728C144.927 124.859 145.272 124.989 145.646 125.12C146.019 125.241 146.388 125.381 146.752 125.54C147.125 125.689 147.466 125.876 147.774 126.1C148.091 126.324 148.343 126.604 148.53 126.94C148.716 127.276 148.81 127.691 148.81 128.186C148.81 128.793 148.642 129.32 148.306 129.768C147.97 130.216 147.522 130.561 146.962 130.804C146.411 131.047 145.804 131.168 145.142 131.168C144.479 131.168 143.863 131.084 143.294 130.916C142.734 130.739 142.276 130.529 141.922 130.286ZM151.595 127.374C151.595 127.934 151.693 128.391 151.889 128.746C152.094 129.091 152.365 129.348 152.701 129.516C153.046 129.675 153.424 129.754 153.835 129.754C154.246 129.754 154.61 129.703 154.927 129.6C155.244 129.488 155.576 129.315 155.921 129.082V130.524C155.604 130.757 155.244 130.921 154.843 131.014C154.442 131.117 154.012 131.168 153.555 131.168C152.846 131.168 152.225 131.009 151.693 130.692C151.161 130.375 150.746 129.931 150.447 129.362C150.148 128.783 149.999 128.121 149.999 127.374C149.999 126.646 150.139 125.997 150.419 125.428C150.708 124.859 151.105 124.411 151.609 124.084C152.113 123.748 152.692 123.58 153.345 123.58C153.849 123.58 154.292 123.669 154.675 123.846C155.058 124.014 155.38 124.257 155.641 124.574C155.902 124.882 156.098 125.255 156.229 125.694C156.36 126.133 156.425 126.618 156.425 127.15V127.724H151.189L151.231 126.506H154.829C154.82 126.291 154.782 126.091 154.717 125.904C154.652 125.717 154.554 125.554 154.423 125.414C154.302 125.265 154.152 125.153 153.975 125.078C153.798 124.994 153.588 124.952 153.345 124.952C153.046 124.952 152.762 125.041 152.491 125.218C152.22 125.386 152.001 125.647 151.833 126.002C151.674 126.357 151.595 126.814 151.595 127.374ZM159.143 127.374C159.143 127.831 159.232 128.237 159.409 128.592C159.586 128.947 159.834 129.227 160.151 129.432C160.468 129.637 160.832 129.74 161.243 129.74C161.579 129.74 161.906 129.675 162.223 129.544C162.55 129.413 162.844 129.217 163.105 128.956V130.552C162.844 130.776 162.536 130.935 162.181 131.028C161.836 131.121 161.486 131.168 161.131 131.168C160.431 131.168 159.806 131.009 159.255 130.692C158.714 130.375 158.284 129.931 157.967 129.362C157.659 128.783 157.505 128.121 157.505 127.374C157.505 126.618 157.659 125.955 157.967 125.386C158.284 124.817 158.714 124.373 159.255 124.056C159.806 123.739 160.431 123.58 161.131 123.58C161.486 123.58 161.836 123.627 162.181 123.72C162.536 123.813 162.844 123.972 163.105 124.196V125.792C162.844 125.531 162.55 125.335 162.223 125.204C161.906 125.073 161.579 125.008 161.243 125.008C160.832 125.008 160.468 125.111 160.151 125.316C159.834 125.521 159.586 125.801 159.409 126.156C159.232 126.511 159.143 126.917 159.143 127.374ZM164.177 127.374C164.177 126.627 164.322 125.969 164.611 125.4C164.91 124.831 165.316 124.387 165.829 124.07C166.352 123.743 166.954 123.58 167.635 123.58C168.316 123.58 168.914 123.743 169.427 124.07C169.95 124.387 170.356 124.831 170.645 125.4C170.944 125.969 171.093 126.627 171.093 127.374C171.093 128.111 170.944 128.769 170.645 129.348C170.356 129.917 169.95 130.365 169.427 130.692C168.914 131.009 168.316 131.168 167.635 131.168C166.954 131.168 166.352 131.009 165.829 130.692C165.316 130.365 164.91 129.917 164.611 129.348C164.322 128.769 164.177 128.111 164.177 127.374ZM165.815 127.374C165.815 127.831 165.885 128.242 166.025 128.606C166.165 128.97 166.37 129.255 166.641 129.46C166.912 129.665 167.243 129.768 167.635 129.768C168.027 129.768 168.358 129.665 168.629 129.46C168.9 129.255 169.105 128.97 169.245 128.606C169.385 128.242 169.455 127.831 169.455 127.374C169.455 126.917 169.385 126.511 169.245 126.156C169.105 125.792 168.9 125.507 168.629 125.302C168.358 125.087 168.027 124.98 167.635 124.98C167.243 124.98 166.912 125.087 166.641 125.302C166.37 125.507 166.165 125.792 166.025 126.156C165.885 126.511 165.815 126.917 165.815 127.374ZM172.625 131V123.748H174.263V124.434C174.459 124.201 174.725 124 175.061 123.832C175.406 123.664 175.793 123.58 176.223 123.58C176.773 123.58 177.24 123.697 177.623 123.93C178.005 124.154 178.295 124.467 178.491 124.868C178.696 125.269 178.799 125.741 178.799 126.282V131H177.161V126.562C177.161 126.105 177.044 125.741 176.811 125.47C176.587 125.199 176.241 125.064 175.775 125.064C175.541 125.064 175.317 125.111 175.103 125.204C174.897 125.297 174.72 125.433 174.571 125.61C174.421 125.778 174.319 125.983 174.263 126.226V131H172.625ZM185.45 130.384C185.338 130.515 185.189 130.641 185.002 130.762C184.815 130.883 184.601 130.981 184.358 131.056C184.115 131.131 183.859 131.168 183.588 131.168C183.056 131.168 182.58 131.07 182.16 130.874C181.749 130.669 181.395 130.393 181.096 130.048C180.807 129.703 180.587 129.301 180.438 128.844C180.289 128.377 180.214 127.887 180.214 127.374C180.214 126.851 180.289 126.361 180.438 125.904C180.587 125.447 180.807 125.045 181.096 124.7C181.395 124.355 181.749 124.084 182.16 123.888C182.58 123.683 183.056 123.58 183.588 123.58C183.859 123.58 184.115 123.617 184.358 123.692C184.601 123.767 184.815 123.865 185.002 123.986C185.189 124.098 185.338 124.224 185.45 124.364V120.36H187.088V131H185.45V130.384ZM185.45 128.746V126.002C185.31 125.713 185.095 125.479 184.806 125.302C184.517 125.125 184.204 125.036 183.868 125.036C183.551 125.036 183.266 125.097 183.014 125.218C182.771 125.33 182.561 125.493 182.384 125.708C182.216 125.913 182.085 126.161 181.992 126.45C181.899 126.73 181.852 127.038 181.852 127.374C181.852 127.71 181.899 128.023 181.992 128.312C182.085 128.592 182.216 128.839 182.384 129.054C182.561 129.259 182.771 129.423 183.014 129.544C183.266 129.656 183.551 129.712 183.868 129.712C184.204 129.712 184.517 129.623 184.806 129.446C185.095 129.269 185.31 129.035 185.45 128.746ZM188.762 130.412V128.746C188.996 128.97 189.248 129.161 189.518 129.32C189.798 129.479 190.083 129.6 190.372 129.684C190.671 129.768 190.96 129.81 191.24 129.81C191.474 129.81 191.684 129.782 191.87 129.726C192.066 129.67 192.22 129.586 192.332 129.474C192.454 129.362 192.514 129.217 192.514 129.04C192.514 128.807 192.426 128.629 192.248 128.508C192.071 128.377 191.838 128.27 191.548 128.186C191.268 128.093 190.97 127.999 190.652 127.906C190.335 127.803 190.032 127.673 189.742 127.514C189.462 127.355 189.234 127.141 189.056 126.87C188.879 126.599 188.79 126.24 188.79 125.792C188.79 125.353 188.907 124.971 189.14 124.644C189.383 124.308 189.71 124.047 190.12 123.86C190.54 123.673 191.012 123.58 191.534 123.58C191.954 123.58 192.346 123.636 192.71 123.748C193.074 123.851 193.406 124.005 193.704 124.21V125.876C193.396 125.605 193.06 125.381 192.696 125.204C192.342 125.027 191.954 124.938 191.534 124.938C191.208 124.938 190.928 125.008 190.694 125.148C190.47 125.279 190.358 125.465 190.358 125.708C190.358 125.932 190.447 126.105 190.624 126.226C190.811 126.347 191.044 126.45 191.324 126.534C191.604 126.618 191.903 126.707 192.22 126.8C192.547 126.893 192.85 127.019 193.13 127.178C193.41 127.337 193.639 127.556 193.816 127.836C194.003 128.116 194.096 128.485 194.096 128.942C194.096 129.409 193.97 129.81 193.718 130.146C193.466 130.473 193.121 130.725 192.682 130.902C192.253 131.079 191.763 131.168 191.212 131.168C190.755 131.168 190.302 131.103 189.854 130.972C189.416 130.832 189.052 130.645 188.762 130.412Z" fill="white"/>
<path d="M211.5 105.5H294.5V144.5H211.5V105.5Z" stroke="black"/>
<path d="M236.505 123.958L233.369 128.9L230.233 123.958V131H228.567V120.948H230.135L233.397 126.184L236.659 120.948H238.171V131H236.505V123.958ZM241.947 123.748V131H240.309V123.748H241.947ZM240.113 121.536C240.113 121.256 240.211 121.018 240.407 120.822C240.603 120.626 240.841 120.528 241.121 120.528C241.401 120.528 241.639 120.626 241.835 120.822C242.031 121.018 242.129 121.256 242.129 121.536C242.129 121.816 242.031 122.054 241.835 122.25C241.639 122.446 241.401 122.544 241.121 122.544C240.841 122.544 240.603 122.446 240.407 122.25C240.211 122.054 240.113 121.816 240.113 121.536ZM243.987 131V123.748H245.625V124.434C245.821 124.201 246.087 124 246.423 123.832C246.768 123.664 247.156 123.58 247.585 123.58C248.136 123.58 248.602 123.697 248.985 123.93C249.368 124.154 249.657 124.467 249.853 124.868C250.058 125.269 250.161 125.741 250.161 126.282V131H248.523V126.562C248.523 126.105 248.406 125.741 248.173 125.47C247.949 125.199 247.604 125.064 247.137 125.064C246.904 125.064 246.68 125.111 246.465 125.204C246.26 125.297 246.082 125.433 245.933 125.61C245.784 125.778 245.681 125.983 245.625 126.226V131H243.987ZM258.114 123.748V131H256.476V130.328C256.28 130.561 256.014 130.762 255.678 130.93C255.342 131.089 254.96 131.168 254.53 131.168C253.98 131.168 253.513 131.056 253.13 130.832C252.757 130.599 252.472 130.281 252.276 129.88C252.08 129.469 251.982 128.998 251.982 128.466V123.748H253.62V128.2C253.62 128.648 253.728 129.007 253.942 129.278C254.166 129.549 254.512 129.684 254.978 129.684C255.333 129.684 255.646 129.581 255.916 129.376C256.196 129.171 256.383 128.886 256.476 128.522V123.748H258.114ZM262.667 125.106V131H261.029V125.106H259.545V123.748H261.029V121.774H262.667V123.748H264.305V125.106H262.667ZM266.625 127.374C266.625 127.934 266.723 128.391 266.919 128.746C267.125 129.091 267.395 129.348 267.731 129.516C268.077 129.675 268.455 129.754 268.865 129.754C269.276 129.754 269.64 129.703 269.957 129.6C270.275 129.488 270.606 129.315 270.951 129.082V130.524C270.634 130.757 270.275 130.921 269.873 131.014C269.472 131.117 269.043 131.168 268.585 131.168C267.876 131.168 267.255 131.009 266.723 130.692C266.191 130.375 265.776 129.931 265.477 129.362C265.179 128.783 265.029 128.121 265.029 127.374C265.029 126.646 265.169 125.997 265.449 125.428C265.739 124.859 266.135 124.411 266.639 124.084C267.143 123.748 267.722 123.58 268.375 123.58C268.879 123.58 269.323 123.669 269.705 123.846C270.088 124.014 270.41 124.257 270.671 124.574C270.933 124.882 271.129 125.255 271.259 125.694C271.39 126.133 271.455 126.618 271.455 127.15V127.724H266.219L266.261 126.506H269.859C269.85 126.291 269.813 126.091 269.747 125.904C269.682 125.717 269.584 125.554 269.453 125.414C269.332 125.265 269.183 125.153 269.005 125.078C268.828 124.994 268.618 124.952 268.375 124.952C268.077 124.952 267.792 125.041 267.521 125.218C267.251 125.386 267.031 125.647 266.863 126.002C266.705 126.357 266.625 126.814 266.625 127.374ZM272.621 130.412V128.746C272.854 128.97 273.106 129.161 273.377 129.32C273.657 129.479 273.942 129.6 274.231 129.684C274.53 129.768 274.819 129.81 275.099 129.81C275.332 129.81 275.542 129.782 275.729 129.726C275.925 129.67 276.079 129.586 276.191 129.474C276.312 129.362 276.373 129.217 276.373 129.04C276.373 128.807 276.284 128.629 276.107 128.508C275.93 128.377 275.696 128.27 275.407 128.186C275.127 128.093 274.828 127.999 274.511 127.906C274.194 127.803 273.89 127.673 273.601 127.514C273.321 127.355 273.092 127.141 272.915 126.87C272.738 126.599 272.649 126.24 272.649 125.792C272.649 125.353 272.766 124.971 272.999 124.644C273.242 124.308 273.568 124.047 273.979 123.86C274.399 123.673 274.87 123.58 275.393 123.58C275.813 123.58 276.205 123.636 276.569 123.748C276.933 123.851 277.264 124.005 277.563 124.21V125.876C277.255 125.605 276.919 125.381 276.555 125.204C276.2 125.027 275.813 124.938 275.393 124.938C275.066 124.938 274.786 125.008 274.553 125.148C274.329 125.279 274.217 125.465 274.217 125.708C274.217 125.932 274.306 126.105 274.483 126.226C274.67 126.347 274.903 126.45 275.183 126.534C275.463 126.618 275.762 126.707 276.079 126.8C276.406 126.893 276.709 127.019 276.989 127.178C277.269 127.337 277.498 127.556 277.675 127.836C277.862 128.116 277.955 128.485 277.955 128.942C277.955 129.409 277.829 129.81 277.577 130.146C277.325 130.473 276.98 130.725 276.541 130.902C276.112 131.079 275.622 131.168 275.071 131.168C274.614 131.168 274.161 131.103 273.713 130.972C273.274 130.832 272.91 130.645 272.621 130.412Z" fill="black"/>
<path d="M294.5 105.5H373.5V144.5H294.5V105.5Z" stroke="black"/>
<path d="M322.523 120.948H324.217V131H322.523V126.59H317.455V131H315.761V120.948H317.455V125.092H322.523V120.948ZM325.836 127.374C325.836 126.627 325.981 125.969 326.27 125.4C326.569 124.831 326.975 124.387 327.488 124.07C328.011 123.743 328.613 123.58 329.294 123.58C329.975 123.58 330.573 123.743 331.086 124.07C331.609 124.387 332.015 124.831 332.304 125.4C332.603 125.969 332.752 126.627 332.752 127.374C332.752 128.111 332.603 128.769 332.304 129.348C332.015 129.917 331.609 130.365 331.086 130.692C330.573 131.009 329.975 131.168 329.294 131.168C328.613 131.168 328.011 131.009 327.488 130.692C326.975 130.365 326.569 129.917 326.27 129.348C325.981 128.769 325.836 128.111 325.836 127.374ZM327.474 127.374C327.474 127.831 327.544 128.242 327.684 128.606C327.824 128.97 328.029 129.255 328.3 129.46C328.571 129.665 328.902 129.768 329.294 129.768C329.686 129.768 330.017 129.665 330.288 129.46C330.559 129.255 330.764 128.97 330.904 128.606C331.044 128.242 331.114 127.831 331.114 127.374C331.114 126.917 331.044 126.511 330.904 126.156C330.764 125.792 330.559 125.507 330.288 125.302C330.017 125.087 329.686 124.98 329.294 124.98C328.902 124.98 328.571 125.087 328.3 125.302C328.029 125.507 327.824 125.792 327.684 126.156C327.544 126.511 327.474 126.917 327.474 127.374ZM340.304 123.748V131H338.666V130.328C338.47 130.561 338.204 130.762 337.868 130.93C337.532 131.089 337.149 131.168 336.72 131.168C336.169 131.168 335.702 131.056 335.32 130.832C334.946 130.599 334.662 130.281 334.466 129.88C334.27 129.469 334.172 128.998 334.172 128.466V123.748H335.81V128.2C335.81 128.648 335.917 129.007 336.132 129.278C336.356 129.549 336.701 129.684 337.168 129.684C337.522 129.684 337.835 129.581 338.106 129.376C338.386 129.171 338.572 128.886 338.666 128.522V123.748H340.304ZM346.41 123.706V125.4C346.289 125.316 346.139 125.255 345.962 125.218C345.785 125.171 345.612 125.148 345.444 125.148C345.22 125.148 345.005 125.19 344.8 125.274C344.604 125.358 344.431 125.484 344.282 125.652C344.142 125.82 344.044 126.035 343.988 126.296V131H342.35V123.748H343.988V124.476C344.081 124.299 344.207 124.145 344.366 124.014C344.534 123.874 344.721 123.767 344.926 123.692C345.141 123.617 345.365 123.58 345.598 123.58C345.785 123.58 345.953 123.594 346.102 123.622C346.251 123.641 346.354 123.669 346.41 123.706ZM347.428 130.412V128.746C347.661 128.97 347.913 129.161 348.184 129.32C348.464 129.479 348.748 129.6 349.038 129.684C349.336 129.768 349.626 129.81 349.906 129.81C350.139 129.81 350.349 129.782 350.536 129.726C350.732 129.67 350.886 129.586 350.998 129.474C351.119 129.362 351.18 129.217 351.18 129.04C351.18 128.807 351.091 128.629 350.914 128.508C350.736 128.377 350.503 128.27 350.214 128.186C349.934 128.093 349.635 127.999 349.318 127.906C349 127.803 348.697 127.673 348.408 127.514C348.128 127.355 347.899 127.141 347.722 126.87C347.544 126.599 347.456 126.24 347.456 125.792C347.456 125.353 347.572 124.971 347.806 124.644C348.048 124.308 348.375 124.047 348.786 123.86C349.206 123.673 349.677 123.58 350.2 123.58C350.62 123.58 351.012 123.636 351.376 123.748C351.74 123.851 352.071 124.005 352.37 124.21V125.876C352.062 125.605 351.726 125.381 351.362 125.204C351.007 125.027 350.62 124.938 350.2 124.938C349.873 124.938 349.593 125.008 349.36 125.148C349.136 125.279 349.024 125.465 349.024 125.708C349.024 125.932 349.112 126.105 349.29 126.226C349.476 126.347 349.71 126.45 349.99 126.534C350.27 126.618 350.568 126.707 350.886 126.8C351.212 126.893 351.516 127.019 351.796 127.178C352.076 127.337 352.304 127.556 352.482 127.836C352.668 128.116 352.762 128.485 352.762 128.942C352.762 129.409 352.636 129.81 352.384 130.146C352.132 130.473 351.786 130.725 351.348 130.902C350.918 131.079 350.428 131.168 349.878 131.168C349.42 131.168 348.968 131.103 348.52 130.972C348.081 130.832 347.717 130.645 347.428 130.412Z" fill="black"/>
</svg>
