<svg width="711" height="144" viewBox="0 0 711 144" fill="none" xmlns="http://www.w3.org/2000/svg">
<rect x="302" y="50" width="127" height="44" rx="2" fill="#1B1B1B"/>
<path d="M318.695 77.216V74.848C319.036 75.104 319.409 75.3333 319.815 75.536C320.22 75.728 320.641 75.8773 321.079 75.984C321.516 76.08 321.953 76.128 322.391 76.128C322.764 76.128 323.105 76.0853 323.415 76C323.735 75.9147 323.991 75.776 324.183 75.584C324.375 75.392 324.471 75.152 324.471 74.864C324.471 74.5547 324.364 74.304 324.151 74.112C323.948 73.92 323.671 73.7547 323.319 73.616C322.977 73.4667 322.599 73.328 322.183 73.2C321.767 73.072 321.351 72.9227 320.935 72.752C320.519 72.5813 320.135 72.368 319.783 72.112C319.441 71.856 319.164 71.536 318.951 71.152C318.737 70.7573 318.631 70.2773 318.631 69.712C318.631 69.0187 318.817 68.4213 319.191 67.92C319.564 67.408 320.06 67.0133 320.679 66.736C321.308 66.4587 321.996 66.32 322.743 66.32C323.436 66.32 324.071 66.4 324.647 66.56C325.223 66.7093 325.74 66.928 326.199 67.216V69.568C325.708 69.1947 325.185 68.9013 324.631 68.688C324.076 68.464 323.468 68.352 322.807 68.352C322.284 68.352 321.852 68.4533 321.511 68.656C321.169 68.848 320.999 69.1467 320.999 69.552C320.999 69.84 321.1 70.08 321.303 70.272C321.516 70.4533 321.799 70.6133 322.151 70.752C322.503 70.8907 322.887 71.0293 323.303 71.168C323.719 71.3067 324.129 71.4613 324.535 71.632C324.951 71.8027 325.335 72.0213 325.687 72.288C326.039 72.544 326.316 72.864 326.519 73.248C326.732 73.632 326.839 74.1067 326.839 74.672C326.839 75.408 326.636 76.0427 326.231 76.576C325.825 77.0987 325.287 77.4987 324.615 77.776C323.943 78.0533 323.212 78.192 322.423 78.192C321.655 78.192 320.945 78.096 320.295 77.904C319.644 77.712 319.111 77.4827 318.695 77.216ZM336.102 66.512H338.502V78H336.102V73.168H330.902V78H328.502V66.512H330.902V71.088H336.102V66.512ZM344.274 66.512H346.674L351.058 78H348.626L347.602 75.232H343.298L342.274 78H339.874L344.274 66.512ZM345.442 69.392L344.034 73.2H346.85L345.442 69.392ZM354.808 73.712V78H352.44V66.512H357.176C357.987 66.512 358.691 66.656 359.288 66.944C359.896 67.2213 360.365 67.6267 360.696 68.16C361.037 68.6933 361.208 69.36 361.208 70.16C361.208 71.0667 360.968 71.8027 360.488 72.368C360.008 72.9333 359.363 73.312 358.552 73.504L361.608 78H358.92L356.072 73.712H354.808ZM354.808 71.744H357.032C357.619 71.744 358.067 71.6 358.376 71.312C358.696 71.024 358.856 70.64 358.856 70.16C358.856 69.6693 358.696 69.28 358.376 68.992C358.067 68.6933 357.619 68.544 357.032 68.544H354.808V71.744ZM362.971 66.512H370.779V68.592H365.339V71.104H370.283V73.168H365.339V75.92H370.779V78H362.971V66.512ZM385.291 66.512V78H383.387L377.963 70.336V78H375.659V66.512H377.899L382.987 73.76V66.512H385.291ZM392.382 78.192C391.572 78.192 390.836 78.048 390.174 77.76C389.513 77.4613 388.937 77.0453 388.446 76.512C387.966 75.9787 387.593 75.3493 387.326 74.624C387.07 73.8987 386.942 73.1093 386.942 72.256C386.942 71.104 387.172 70.0853 387.63 69.2C388.1 68.304 388.74 67.6 389.55 67.088C390.372 66.576 391.316 66.32 392.382 66.32C393.449 66.32 394.388 66.576 395.198 67.088C396.009 67.6 396.644 68.304 397.102 69.2C397.572 70.0853 397.806 71.104 397.806 72.256C397.806 73.1093 397.673 73.8987 397.406 74.624C397.15 75.3493 396.777 75.9787 396.286 76.512C395.806 77.0453 395.236 77.4613 394.574 77.76C393.913 78.048 393.182 78.192 392.382 78.192ZM392.382 68.448C391.774 68.448 391.246 68.6133 390.798 68.944C390.35 69.264 389.998 69.712 389.742 70.288C389.497 70.8533 389.374 71.5093 389.374 72.256C389.374 73.0027 389.497 73.664 389.742 74.24C389.998 74.8053 390.35 75.2533 390.798 75.584C391.246 75.904 391.774 76.064 392.382 76.064C392.98 76.064 393.502 75.904 393.95 75.584C394.409 75.2533 394.761 74.8053 395.006 74.24C395.252 73.664 395.374 73.0027 395.374 72.256C395.374 71.5093 395.252 70.8533 395.006 70.288C394.761 69.712 394.409 69.264 393.95 68.944C393.502 68.6133 392.98 68.448 392.382 68.448ZM404.598 66.512H406.47L408.47 74.288L410.374 66.512H412.726L409.734 78H407.542L405.51 70.4L403.478 78H401.302L398.326 66.512H400.71L402.598 74.272L404.598 66.512Z" fill="white"/>
</svg>
