<svg width="711" height="144" viewBox="0 0 711 144" fill="none" xmlns="http://www.w3.org/2000/svg">
<rect x="310" y="50" width="111" height="44" rx="2" fill="#0D7680"/>
<path d="M326.757 77.216V74.848C327.099 75.104 327.472 75.3333 327.877 75.536C328.283 75.728 328.704 75.8773 329.141 75.984C329.579 76.08 330.016 76.128 330.453 76.128C330.827 76.128 331.168 76.0853 331.477 76C331.797 75.9147 332.053 75.776 332.245 75.584C332.437 75.392 332.533 75.152 332.533 74.864C332.533 74.5547 332.427 74.304 332.213 74.112C332.011 73.92 331.733 73.7547 331.381 73.616C331.04 73.4667 330.661 73.328 330.245 73.2C329.829 73.072 329.413 72.9227 328.997 72.752C328.581 72.5813 328.197 72.368 327.845 72.112C327.504 71.856 327.227 71.536 327.013 71.152C326.8 70.7573 326.693 70.2773 326.693 69.712C326.693 69.0187 326.88 68.4213 327.253 67.92C327.627 67.408 328.123 67.0133 328.741 66.736C329.371 66.4587 330.059 66.32 330.805 66.32C331.499 66.32 332.133 66.4 332.709 66.56C333.285 66.7093 333.803 66.928 334.261 67.216V69.568C333.771 69.1947 333.248 68.9013 332.693 68.688C332.139 68.464 331.531 68.352 330.869 68.352C330.347 68.352 329.915 68.4533 329.573 68.656C329.232 68.848 329.061 69.1467 329.061 69.552C329.061 69.84 329.163 70.08 329.365 70.272C329.579 70.4533 329.861 70.6133 330.213 70.752C330.565 70.8907 330.949 71.0293 331.365 71.168C331.781 71.3067 332.192 71.4613 332.597 71.632C333.013 71.8027 333.397 72.0213 333.749 72.288C334.101 72.544 334.379 72.864 334.581 73.248C334.795 73.632 334.901 74.1067 334.901 74.672C334.901 75.408 334.699 76.0427 334.293 76.576C333.888 77.0987 333.349 77.4987 332.677 77.776C332.005 78.0533 331.275 78.192 330.485 78.192C329.717 78.192 329.008 78.096 328.357 77.904C327.707 77.712 327.173 77.4827 326.757 77.216ZM336.406 78V65.84H338.742V70.416C338.966 70.1493 339.27 69.9253 339.654 69.744C340.049 69.5627 340.492 69.472 340.982 69.472C341.612 69.472 342.145 69.6 342.582 69.856C343.02 70.112 343.356 70.4693 343.59 70.928C343.825 71.3867 343.942 71.9307 343.942 72.56V78H341.622V73.056C341.622 72.5973 341.505 72.2347 341.27 71.968C341.046 71.6907 340.705 71.552 340.246 71.552C340.012 71.552 339.788 71.6 339.574 71.696C339.372 71.7813 339.196 71.9147 339.046 72.096C338.897 72.2667 338.796 72.4693 338.742 72.704V78H336.406ZM348.948 76.496C349.3 76.496 349.614 76.4267 349.892 76.288C350.18 76.1387 350.377 75.952 350.484 75.728V75.104C350.377 74.8907 350.18 74.72 349.892 74.592C349.614 74.464 349.3 74.4 348.948 74.4C348.692 74.4 348.452 74.4373 348.228 74.512C348.004 74.5867 347.822 74.704 347.684 74.864C347.556 75.0133 347.492 75.2053 347.492 75.44C347.492 75.6747 347.556 75.872 347.684 76.032C347.822 76.1813 348.004 76.2987 348.228 76.384C348.452 76.4587 348.692 76.496 348.948 76.496ZM350.484 72.736C350.484 72.3733 350.329 72.0693 350.02 71.824C349.71 71.5787 349.236 71.456 348.596 71.456C348.169 71.456 347.764 71.52 347.38 71.648C346.996 71.7653 346.638 71.9307 346.308 72.144V70.144C346.596 69.952 346.99 69.792 347.492 69.664C348.004 69.536 348.537 69.472 349.092 69.472C349.87 69.472 350.526 69.6 351.06 69.856C351.593 70.1013 351.998 70.464 352.276 70.944C352.564 71.4133 352.708 71.9893 352.708 72.672V78H350.484V77.568C350.324 77.7067 350.062 77.8453 349.7 77.984C349.337 78.112 348.926 78.176 348.468 78.176C347.902 78.176 347.38 78.064 346.9 77.84C346.42 77.616 346.041 77.3013 345.764 76.896C345.486 76.4907 345.348 76.0107 345.348 75.456C345.348 74.9013 345.486 74.4213 345.764 74.016C346.041 73.6107 346.42 73.3013 346.9 73.088C347.38 72.864 347.902 72.752 348.468 72.752C348.926 72.752 349.337 72.8107 349.7 72.928C350.073 73.0453 350.334 73.1733 350.484 73.312V72.736ZM359.697 69.616V71.936C359.537 71.84 359.356 71.7707 359.153 71.728C358.961 71.6853 358.759 71.664 358.545 71.664C358.289 71.664 358.049 71.7067 357.825 71.792C357.601 71.8773 357.415 72.0053 357.265 72.176C357.116 72.3467 357.015 72.56 356.961 72.816V78H354.625V69.664H356.961V70.448C357.079 70.256 357.228 70.0853 357.409 69.936C357.601 69.7867 357.815 69.6747 358.049 69.6C358.295 69.5147 358.551 69.472 358.817 69.472C359.02 69.472 359.201 69.488 359.361 69.52C359.521 69.5413 359.633 69.5733 359.697 69.616ZM362.649 73.776C362.649 74.3733 362.751 74.8587 362.953 75.232C363.167 75.5947 363.455 75.8613 363.817 76.032C364.191 76.192 364.612 76.272 365.081 76.272C365.519 76.272 365.924 76.2187 366.297 76.112C366.681 76.0053 367.076 75.8187 367.481 75.552V77.456C367.129 77.712 366.713 77.8987 366.233 78.016C365.753 78.1333 365.236 78.192 364.681 78.192C363.828 78.192 363.081 78.016 362.441 77.664C361.812 77.3013 361.316 76.7947 360.953 76.144C360.601 75.4827 360.425 74.7147 360.425 73.84C360.425 72.9973 360.591 72.2453 360.921 71.584C361.263 70.9227 361.727 70.4053 362.313 70.032C362.911 69.648 363.593 69.456 364.361 69.456C364.969 69.456 365.503 69.5573 365.961 69.76C366.42 69.9627 366.804 70.2453 367.113 70.608C367.433 70.9707 367.668 71.408 367.817 71.92C367.977 72.4213 368.057 72.9813 368.057 73.6V74.336H362.009L362.041 72.848H365.881C365.871 72.6347 365.828 72.4373 365.753 72.256C365.689 72.064 365.593 71.8987 365.465 71.76C365.348 71.6213 365.199 71.5147 365.017 71.44C364.847 71.3547 364.644 71.312 364.409 71.312C364.111 71.312 363.823 71.4027 363.545 71.584C363.279 71.7547 363.06 72.0213 362.889 72.384C362.729 72.736 362.649 73.2 362.649 73.776ZM382.322 66.512V78H380.418L374.994 70.336V78H372.69V66.512H374.93L380.018 73.76V66.512H382.322ZM383.91 73.824C383.91 72.9707 384.08 72.2187 384.422 71.568C384.774 70.9067 385.254 70.3947 385.862 70.032C386.48 69.6587 387.195 69.472 388.006 69.472C388.816 69.472 389.531 69.6587 390.15 70.032C390.768 70.3947 391.248 70.9067 391.59 71.568C391.942 72.2187 392.118 72.9707 392.118 73.824C392.118 74.6773 391.942 75.4347 391.59 76.096C391.248 76.7573 390.768 77.2747 390.15 77.648C389.531 78.0107 388.816 78.192 388.006 78.192C387.195 78.192 386.48 78.0107 385.862 77.648C385.254 77.2747 384.774 76.7573 384.422 76.096C384.08 75.4347 383.91 74.6773 383.91 73.824ZM386.214 73.824C386.214 74.2933 386.283 74.7147 386.422 75.088C386.56 75.4507 386.763 75.7333 387.03 75.936C387.296 76.1387 387.622 76.24 388.006 76.24C388.4 76.24 388.726 76.1387 388.982 75.936C389.248 75.7333 389.451 75.4507 389.59 75.088C389.728 74.7147 389.798 74.2933 389.798 73.824C389.798 73.3653 389.728 72.9547 389.59 72.592C389.451 72.2293 389.248 71.9467 388.982 71.744C388.726 71.5307 388.4 71.424 388.006 71.424C387.622 71.424 387.296 71.5307 387.03 71.744C386.763 71.9467 386.56 72.2293 386.422 72.592C386.283 72.9547 386.214 73.3653 386.214 73.824ZM397.744 69.664H399.536L400.928 75.04L402.448 69.664H404.656L402.112 78H400L398.608 72.784L397.2 78H395.104L392.56 69.664H394.832L396.336 75.04L397.744 69.664Z" fill="white"/>
</svg>
