<svg width="711" height="144" viewBox="0 0 711 144" fill="none" xmlns="http://www.w3.org/2000/svg">
<rect x="311" y="50" width="109" height="44" rx="2" fill="#593380"/>
<path d="M327.953 77.216V74.848C328.294 75.104 328.667 75.3333 329.073 75.536C329.478 75.728 329.899 75.8773 330.337 75.984C330.774 76.08 331.211 76.128 331.649 76.128C332.022 76.128 332.363 76.0853 332.673 76C332.993 75.9147 333.249 75.776 333.441 75.584C333.633 75.392 333.729 75.152 333.729 74.864C333.729 74.5547 333.622 74.304 333.409 74.112C333.206 73.92 332.929 73.7547 332.577 73.616C332.235 73.4667 331.857 73.328 331.441 73.2C331.025 73.072 330.609 72.9227 330.193 72.752C329.777 72.5813 329.393 72.368 329.041 72.112C328.699 71.856 328.422 71.536 328.209 71.152C327.995 70.7573 327.889 70.2773 327.889 69.712C327.889 69.0187 328.075 68.4213 328.449 67.92C328.822 67.408 329.318 67.0133 329.937 66.736C330.566 66.4587 331.254 66.32 332.001 66.32C332.694 66.32 333.329 66.4 333.905 66.56C334.481 66.7093 334.998 66.928 335.457 67.216V69.568C334.966 69.1947 334.443 68.9013 333.889 68.688C333.334 68.464 332.726 68.352 332.065 68.352C331.542 68.352 331.11 68.4533 330.769 68.656C330.427 68.848 330.257 69.1467 330.257 69.552C330.257 69.84 330.358 70.08 330.561 70.272C330.774 70.4533 331.057 70.6133 331.409 70.752C331.761 70.8907 332.145 71.0293 332.561 71.168C332.977 71.3067 333.387 71.4613 333.793 71.632C334.209 71.8027 334.593 72.0213 334.945 72.288C335.297 72.544 335.574 72.864 335.777 73.248C335.99 73.632 336.097 74.1067 336.097 74.672C336.097 75.408 335.894 76.0427 335.489 76.576C335.083 77.0987 334.545 77.4987 333.873 77.776C333.201 78.0533 332.47 78.192 331.681 78.192C330.913 78.192 330.203 78.096 329.553 77.904C328.902 77.712 328.369 77.4827 327.953 77.216ZM337.602 78V65.84H339.938V70.416C340.162 70.1493 340.466 69.9253 340.85 69.744C341.244 69.5627 341.687 69.472 342.178 69.472C342.807 69.472 343.34 69.6 343.778 69.856C344.215 70.112 344.551 70.4693 344.786 70.928C345.02 71.3867 345.138 71.9307 345.138 72.56V78H342.818V73.056C342.818 72.5973 342.7 72.2347 342.466 71.968C342.242 71.6907 341.9 71.552 341.442 71.552C341.207 71.552 340.983 71.6 340.77 71.696C340.567 71.7813 340.391 71.9147 340.242 72.096C340.092 72.2667 339.991 72.4693 339.938 72.704V78H337.602ZM350.143 76.496C350.495 76.496 350.81 76.4267 351.087 76.288C351.375 76.1387 351.572 75.952 351.679 75.728V75.104C351.572 74.8907 351.375 74.72 351.087 74.592C350.81 74.464 350.495 74.4 350.143 74.4C349.887 74.4 349.647 74.4373 349.423 74.512C349.199 74.5867 349.018 74.704 348.879 74.864C348.751 75.0133 348.687 75.2053 348.687 75.44C348.687 75.6747 348.751 75.872 348.879 76.032C349.018 76.1813 349.199 76.2987 349.423 76.384C349.647 76.4587 349.887 76.496 350.143 76.496ZM351.679 72.736C351.679 72.3733 351.524 72.0693 351.215 71.824C350.906 71.5787 350.431 71.456 349.791 71.456C349.364 71.456 348.959 71.52 348.575 71.648C348.191 71.7653 347.834 71.9307 347.503 72.144V70.144C347.791 69.952 348.186 69.792 348.687 69.664C349.199 69.536 349.732 69.472 350.287 69.472C351.066 69.472 351.722 69.6 352.255 69.856C352.788 70.1013 353.194 70.464 353.471 70.944C353.759 71.4133 353.903 71.9893 353.903 72.672V78H351.679V77.568C351.519 77.7067 351.258 77.8453 350.895 77.984C350.532 78.112 350.122 78.176 349.663 78.176C349.098 78.176 348.575 78.064 348.095 77.84C347.615 77.616 347.236 77.3013 346.959 76.896C346.682 76.4907 346.543 76.0107 346.543 75.456C346.543 74.9013 346.682 74.4213 346.959 74.016C347.236 73.6107 347.615 73.3013 348.095 73.088C348.575 72.864 349.098 72.752 349.663 72.752C350.122 72.752 350.532 72.8107 350.895 72.928C351.268 73.0453 351.53 73.1733 351.679 73.312V72.736ZM360.893 69.616V71.936C360.733 71.84 360.551 71.7707 360.349 71.728C360.157 71.6853 359.954 71.664 359.741 71.664C359.485 71.664 359.245 71.7067 359.021 71.792C358.797 71.8773 358.61 72.0053 358.461 72.176C358.311 72.3467 358.21 72.56 358.157 72.816V78H355.821V69.664H358.157V70.448C358.274 70.256 358.423 70.0853 358.605 69.936C358.797 69.7867 359.01 69.6747 359.245 69.6C359.49 69.5147 359.746 69.472 360.013 69.472C360.215 69.472 360.397 69.488 360.557 69.52C360.717 69.5413 360.829 69.5733 360.893 69.616ZM363.845 73.776C363.845 74.3733 363.946 74.8587 364.149 75.232C364.362 75.5947 364.65 75.8613 365.013 76.032C365.386 76.192 365.807 76.272 366.277 76.272C366.714 76.272 367.119 76.2187 367.493 76.112C367.877 76.0053 368.271 75.8187 368.677 75.552V77.456C368.325 77.712 367.909 77.8987 367.429 78.016C366.949 78.1333 366.431 78.192 365.877 78.192C365.023 78.192 364.277 78.016 363.637 77.664C363.007 77.3013 362.511 76.7947 362.149 76.144C361.797 75.4827 361.621 74.7147 361.621 73.84C361.621 72.9973 361.786 72.2453 362.117 71.584C362.458 70.9227 362.922 70.4053 363.509 70.032C364.106 69.648 364.789 69.456 365.557 69.456C366.165 69.456 366.698 69.5573 367.157 69.76C367.615 69.9627 367.999 70.2453 368.309 70.608C368.629 70.9707 368.863 71.408 369.013 71.92C369.173 72.4213 369.253 72.9813 369.253 73.6V74.336H363.205L363.237 72.848H367.077C367.066 72.6347 367.023 72.4373 366.949 72.256C366.885 72.064 366.789 71.8987 366.661 71.76C366.543 71.6213 366.394 71.5147 366.213 71.44C366.042 71.3547 365.839 71.312 365.605 71.312C365.306 71.312 365.018 71.4027 364.741 71.584C364.474 71.7547 364.255 72.0213 364.085 72.384C363.925 72.736 363.845 73.2 363.845 73.776ZM373.789 78V69.664H376.125V70.416C376.349 70.1493 376.653 69.9253 377.037 69.744C377.432 69.5627 377.875 69.472 378.365 69.472C378.995 69.472 379.528 69.6 379.965 69.856C380.403 70.112 380.739 70.4693 380.973 70.928C381.208 71.3867 381.325 71.9307 381.325 72.56V78H379.005V73.056C379.005 72.5973 378.888 72.2347 378.653 71.968C378.429 71.6907 378.088 71.552 377.629 71.552C377.395 71.552 377.171 71.6 376.957 71.696C376.755 71.7813 376.579 71.9147 376.429 72.096C376.28 72.2667 376.179 72.4693 376.125 72.704V78H373.789ZM382.714 73.824C382.714 72.9707 382.885 72.2187 383.226 71.568C383.578 70.9067 384.058 70.3947 384.666 70.032C385.285 69.6587 386 69.472 386.81 69.472C387.621 69.472 388.336 69.6587 388.954 70.032C389.573 70.3947 390.053 70.9067 390.394 71.568C390.746 72.2187 390.922 72.9707 390.922 73.824C390.922 74.6773 390.746 75.4347 390.394 76.096C390.053 76.7573 389.573 77.2747 388.954 77.648C388.336 78.0107 387.621 78.192 386.81 78.192C386 78.192 385.285 78.0107 384.666 77.648C384.058 77.2747 383.578 76.7573 383.226 76.096C382.885 75.4347 382.714 74.6773 382.714 73.824ZM385.018 73.824C385.018 74.2933 385.088 74.7147 385.226 75.088C385.365 75.4507 385.568 75.7333 385.834 75.936C386.101 76.1387 386.426 76.24 386.81 76.24C387.205 76.24 387.53 76.1387 387.786 75.936C388.053 75.7333 388.256 75.4507 388.394 75.088C388.533 74.7147 388.602 74.2933 388.602 73.824C388.602 73.3653 388.533 72.9547 388.394 72.592C388.256 72.2293 388.053 71.9467 387.786 71.744C387.53 71.5307 387.205 71.424 386.81 71.424C386.426 71.424 386.101 71.5307 385.834 71.744C385.568 71.9467 385.365 72.2293 385.226 72.592C385.088 72.9547 385.018 73.3653 385.018 73.824ZM396.549 69.664H398.341L399.733 75.04L401.253 69.664H403.461L400.917 78H398.805L397.413 72.784L396.005 78H393.909L391.365 69.664H393.637L395.141 75.04L396.549 69.664Z" fill="white"/>
</svg>
