<svg width="711" height="144" viewBox="0 0 711 144" fill="none" xmlns="http://www.w3.org/2000/svg">
<rect x="316" y="50" width="99" height="44" rx="2" fill="#0D7680"/>
<path d="M332.575 72.256C332.575 71.3813 332.719 70.5813 333.007 69.856C333.295 69.1307 333.695 68.5067 334.207 67.984C334.719 67.4507 335.322 67.04 336.015 66.752C336.709 66.464 337.466 66.32 338.287 66.32C338.917 66.32 339.477 66.4 339.967 66.56C340.469 66.72 340.906 66.944 341.279 67.232V69.616C340.842 69.232 340.389 68.9547 339.919 68.784C339.461 68.6027 338.959 68.512 338.415 68.512C337.743 68.512 337.151 68.6667 336.639 68.976C336.127 69.2747 335.727 69.7067 335.439 70.272C335.151 70.8373 335.007 71.4987 335.007 72.256C335.007 73.0027 335.151 73.664 335.439 74.24C335.727 74.8053 336.127 75.2427 336.639 75.552C337.151 75.8507 337.743 76 338.415 76C338.959 76 339.461 75.9093 339.919 75.728C340.389 75.5467 340.842 75.2693 341.279 74.896V77.28C340.906 77.568 340.469 77.792 339.967 77.952C339.477 78.112 338.917 78.192 338.287 78.192C337.466 78.192 336.709 78.048 336.015 77.76C335.322 77.472 334.719 77.0667 334.207 76.544C333.695 76.0107 333.295 75.3813 333.007 74.656C332.719 73.9307 332.575 73.1307 332.575 72.256ZM342.527 73.824C342.527 72.9707 342.698 72.2187 343.039 71.568C343.391 70.9067 343.871 70.3947 344.479 70.032C345.098 69.6587 345.812 69.472 346.623 69.472C347.434 69.472 348.148 69.6587 348.767 70.032C349.386 70.3947 349.866 70.9067 350.207 71.568C350.559 72.2187 350.735 72.9707 350.735 73.824C350.735 74.6773 350.559 75.4347 350.207 76.096C349.866 76.7573 349.386 77.2747 348.767 77.648C348.148 78.0107 347.434 78.192 346.623 78.192C345.812 78.192 345.098 78.0107 344.479 77.648C343.871 77.2747 343.391 76.7573 343.039 76.096C342.698 75.4347 342.527 74.6773 342.527 73.824ZM344.831 73.824C344.831 74.2933 344.9 74.7147 345.039 75.088C345.178 75.4507 345.38 75.7333 345.647 75.936C345.914 76.1387 346.239 76.24 346.623 76.24C347.018 76.24 347.343 76.1387 347.599 75.936C347.866 75.7333 348.068 75.4507 348.207 75.088C348.346 74.7147 348.415 74.2933 348.415 73.824C348.415 73.3653 348.346 72.9547 348.207 72.592C348.068 72.2293 347.866 71.9467 347.599 71.744C347.343 71.5307 347.018 71.424 346.623 71.424C346.239 71.424 345.914 71.5307 345.647 71.744C345.38 71.9467 345.178 72.2293 345.039 72.592C344.9 72.9547 344.831 73.3653 344.831 73.824ZM352.211 78V69.664H354.547V70.416C354.771 70.1493 355.075 69.9253 355.459 69.744C355.854 69.5627 356.296 69.472 356.787 69.472C357.416 69.472 357.95 69.6 358.387 69.856C358.824 70.112 359.16 70.4693 359.395 70.928C359.63 71.3867 359.747 71.9307 359.747 72.56V78H357.427V73.056C357.427 72.5973 357.31 72.2347 357.075 71.968C356.851 71.6907 356.51 71.552 356.051 71.552C355.816 71.552 355.592 71.6 355.379 71.696C355.176 71.7813 355 71.9147 354.851 72.096C354.702 72.2667 354.6 72.4693 354.547 72.704V78H352.211ZM364.945 71.536V78H362.625V71.536H361.025V69.664H362.625V67.408H364.945V69.664H366.721V71.536H364.945ZM370.469 69.664V78H368.133V69.664H370.469ZM367.925 67.232C367.925 66.8373 368.058 66.5173 368.325 66.272C368.592 66.016 368.912 65.888 369.285 65.888C369.669 65.888 369.994 66.016 370.261 66.272C370.528 66.5173 370.661 66.8373 370.661 67.232C370.661 67.6053 370.528 67.92 370.261 68.176C369.994 68.432 369.669 68.56 369.285 68.56C368.912 68.56 368.592 68.432 368.325 68.176C368.058 67.92 367.925 67.6053 367.925 67.232ZM372.492 78V69.664H374.828V70.416C375.052 70.1493 375.356 69.9253 375.74 69.744C376.135 69.5627 376.578 69.472 377.068 69.472C377.698 69.472 378.231 69.6 378.668 69.856C379.106 70.112 379.442 70.4693 379.676 70.928C379.911 71.3867 380.028 71.9307 380.028 72.56V78H377.708V73.056C377.708 72.5973 377.591 72.2347 377.356 71.968C377.132 71.6907 376.791 71.552 376.332 71.552C376.098 71.552 375.874 71.6 375.66 71.696C375.458 71.7813 375.282 71.9147 375.132 72.096C374.983 72.2667 374.882 72.4693 374.828 72.704V78H372.492ZM389.354 69.664V78H387.018V77.248C386.794 77.5147 386.49 77.7387 386.106 77.92C385.722 78.1013 385.284 78.192 384.794 78.192C384.164 78.192 383.631 78.064 383.194 77.808C382.756 77.552 382.42 77.1947 382.186 76.736C381.962 76.2667 381.85 75.7227 381.85 75.104V69.664H384.186V74.624C384.186 75.0613 384.292 75.4187 384.506 75.696C384.73 75.9733 385.071 76.112 385.53 76.112C385.882 76.112 386.196 76.0107 386.474 75.808C386.751 75.5947 386.932 75.3067 387.018 74.944V69.664H389.354ZM393.063 73.776C393.063 74.3733 393.165 74.8587 393.367 75.232C393.581 75.5947 393.869 75.8613 394.231 76.032C394.605 76.192 395.026 76.272 395.495 76.272C395.933 76.272 396.338 76.2187 396.711 76.112C397.095 76.0053 397.49 75.8187 397.895 75.552V77.456C397.543 77.712 397.127 77.8987 396.647 78.016C396.167 78.1333 395.65 78.192 395.095 78.192C394.242 78.192 393.495 78.016 392.855 77.664C392.226 77.3013 391.73 76.7947 391.367 76.144C391.015 75.4827 390.839 74.7147 390.839 73.84C390.839 72.9973 391.005 72.2453 391.335 71.584C391.677 70.9227 392.141 70.4053 392.727 70.032C393.325 69.648 394.007 69.456 394.775 69.456C395.383 69.456 395.917 69.5573 396.375 69.76C396.834 69.9627 397.218 70.2453 397.527 70.608C397.847 70.9707 398.082 71.408 398.231 71.92C398.391 72.4213 398.471 72.9813 398.471 73.6V74.336H392.423L392.455 72.848H396.295C396.285 72.6347 396.242 72.4373 396.167 72.256C396.103 72.064 396.007 71.8987 395.879 71.76C395.762 71.6213 395.613 71.5147 395.431 71.44C395.261 71.3547 395.058 71.312 394.823 71.312C394.525 71.312 394.237 71.4027 393.959 71.584C393.693 71.7547 393.474 72.0213 393.303 72.384C393.143 72.736 393.063 73.2 393.063 73.776Z" fill="white"/>
</svg>
