<svg width="711" height="144" viewBox="0 0 711 144" fill="none" xmlns="http://www.w3.org/2000/svg">
<rect x="325.5" y="50" width="80" height="44" rx="2" fill="#1B1B1B"/>
<path d="M344.921 77.216V74.848C345.263 75.104 345.636 75.3333 346.041 75.536C346.447 75.728 346.868 75.8773 347.305 75.984C347.743 76.08 348.18 76.128 348.617 76.128C348.991 76.128 349.332 76.0853 349.641 76C349.961 75.9147 350.217 75.776 350.409 75.584C350.601 75.392 350.697 75.152 350.697 74.864C350.697 74.5547 350.591 74.304 350.377 74.112C350.175 73.92 349.897 73.7547 349.545 73.616C349.204 73.4667 348.825 73.328 348.409 73.2C347.993 73.072 347.577 72.9227 347.161 72.752C346.745 72.5813 346.361 72.368 346.009 72.112C345.668 71.856 345.391 71.536 345.177 71.152C344.964 70.7573 344.857 70.2773 344.857 69.712C344.857 69.0187 345.044 68.4213 345.417 67.92C345.791 67.408 346.287 67.0133 346.905 66.736C347.535 66.4587 348.223 66.32 348.969 66.32C349.663 66.32 350.297 66.4 350.873 66.56C351.449 66.7093 351.967 66.928 352.425 67.216V69.568C351.935 69.1947 351.412 68.9013 350.857 68.688C350.303 68.464 349.695 68.352 349.033 68.352C348.511 68.352 348.079 68.4533 347.737 68.656C347.396 68.848 347.225 69.1467 347.225 69.552C347.225 69.84 347.327 70.08 347.529 70.272C347.743 70.4533 348.025 70.6133 348.377 70.752C348.729 70.8907 349.113 71.0293 349.529 71.168C349.945 71.3067 350.356 71.4613 350.761 71.632C351.177 71.8027 351.561 72.0213 351.913 72.288C352.265 72.544 352.543 72.864 352.745 73.248C352.959 73.632 353.065 74.1067 353.065 74.672C353.065 75.408 352.863 76.0427 352.457 76.576C352.052 77.0987 351.513 77.4987 350.841 77.776C350.169 78.0533 349.439 78.192 348.649 78.192C347.881 78.192 347.172 78.096 346.521 77.904C345.871 77.712 345.337 77.4827 344.921 77.216ZM354.571 78V65.84H356.907V70.416C357.131 70.1493 357.435 69.9253 357.819 69.744C358.213 69.5627 358.656 69.472 359.147 69.472C359.776 69.472 360.309 69.6 360.747 69.856C361.184 70.112 361.52 70.4693 361.755 70.928C361.989 71.3867 362.107 71.9307 362.107 72.56V78H359.787V73.056C359.787 72.5973 359.669 72.2347 359.435 71.968C359.211 71.6907 358.869 71.552 358.411 71.552C358.176 71.552 357.952 71.6 357.739 71.696C357.536 71.7813 357.36 71.9147 357.211 72.096C357.061 72.2667 356.96 72.4693 356.907 72.704V78H354.571ZM367.112 76.496C367.464 76.496 367.778 76.4267 368.056 76.288C368.344 76.1387 368.541 75.952 368.648 75.728V75.104C368.541 74.8907 368.344 74.72 368.056 74.592C367.778 74.464 367.464 74.4 367.112 74.4C366.856 74.4 366.616 74.4373 366.392 74.512C366.168 74.5867 365.986 74.704 365.848 74.864C365.72 75.0133 365.656 75.2053 365.656 75.44C365.656 75.6747 365.72 75.872 365.848 76.032C365.986 76.1813 366.168 76.2987 366.392 76.384C366.616 76.4587 366.856 76.496 367.112 76.496ZM368.648 72.736C368.648 72.3733 368.493 72.0693 368.184 71.824C367.874 71.5787 367.4 71.456 366.76 71.456C366.333 71.456 365.928 71.52 365.544 71.648C365.16 71.7653 364.802 71.9307 364.472 72.144V70.144C364.76 69.952 365.154 69.792 365.656 69.664C366.168 69.536 366.701 69.472 367.256 69.472C368.034 69.472 368.69 69.6 369.224 69.856C369.757 70.1013 370.162 70.464 370.44 70.944C370.728 71.4133 370.872 71.9893 370.872 72.672V78H368.648V77.568C368.488 77.7067 368.226 77.8453 367.864 77.984C367.501 78.112 367.09 78.176 366.632 78.176C366.066 78.176 365.544 78.064 365.064 77.84C364.584 77.616 364.205 77.3013 363.928 76.896C363.65 76.4907 363.512 76.0107 363.512 75.456C363.512 74.9013 363.65 74.4213 363.928 74.016C364.205 73.6107 364.584 73.3013 365.064 73.088C365.544 72.864 366.066 72.752 366.632 72.752C367.09 72.752 367.501 72.8107 367.864 72.928C368.237 73.0453 368.498 73.1733 368.648 73.312V72.736ZM377.861 69.616V71.936C377.701 71.84 377.52 71.7707 377.317 71.728C377.125 71.6853 376.923 71.664 376.709 71.664C376.453 71.664 376.213 71.7067 375.989 71.792C375.765 71.8773 375.579 72.0053 375.429 72.176C375.28 72.3467 375.179 72.56 375.125 72.816V78H372.789V69.664H375.125V70.448C375.243 70.256 375.392 70.0853 375.573 69.936C375.765 69.7867 375.979 69.6747 376.213 69.6C376.459 69.5147 376.715 69.472 376.981 69.472C377.184 69.472 377.365 69.488 377.525 69.52C377.685 69.5413 377.797 69.5733 377.861 69.616ZM380.813 73.776C380.813 74.3733 380.915 74.8587 381.117 75.232C381.331 75.5947 381.619 75.8613 381.981 76.032C382.355 76.192 382.776 76.272 383.245 76.272C383.683 76.272 384.088 76.2187 384.461 76.112C384.845 76.0053 385.24 75.8187 385.645 75.552V77.456C385.293 77.712 384.877 77.8987 384.397 78.016C383.917 78.1333 383.4 78.192 382.845 78.192C381.992 78.192 381.245 78.016 380.605 77.664C379.976 77.3013 379.48 76.7947 379.117 76.144C378.765 75.4827 378.589 74.7147 378.589 73.84C378.589 72.9973 378.755 72.2453 379.085 71.584C379.427 70.9227 379.891 70.4053 380.477 70.032C381.075 69.648 381.757 69.456 382.525 69.456C383.133 69.456 383.667 69.5573 384.125 69.76C384.584 69.9627 384.968 70.2453 385.277 70.608C385.597 70.9707 385.832 71.408 385.981 71.92C386.141 72.4213 386.221 72.9813 386.221 73.6V74.336H380.173L380.205 72.848H384.045C384.035 72.6347 383.992 72.4373 383.917 72.256C383.853 72.064 383.757 71.8987 383.629 71.76C383.512 71.6213 383.363 71.5147 383.181 71.44C383.011 71.3547 382.808 71.312 382.573 71.312C382.275 71.312 381.987 71.4027 381.709 71.584C381.443 71.7547 381.224 72.0213 381.053 72.384C380.893 72.736 380.813 73.2 380.813 73.776Z" fill="white"/>
</svg>
