<svg width="711" height="144" viewBox="0 0 711 144" fill="none" xmlns="http://www.w3.org/2000/svg">
<rect x="218" y="50" width="295" height="44" rx="2" fill="#1B1B1B"/>
<path d="M234.96 77.216V74.848C235.302 75.104 235.675 75.3333 236.08 75.536C236.486 75.728 236.907 75.8773 237.344 75.984C237.782 76.08 238.219 76.128 238.656 76.128C239.03 76.128 239.371 76.0853 239.68 76C240 75.9147 240.256 75.776 240.448 75.584C240.64 75.392 240.736 75.152 240.736 74.864C240.736 74.5547 240.63 74.304 240.416 74.112C240.214 73.92 239.936 73.7547 239.584 73.616C239.243 73.4667 238.864 73.328 238.448 73.2C238.032 73.072 237.616 72.9227 237.2 72.752C236.784 72.5813 236.4 72.368 236.048 72.112C235.707 71.856 235.43 71.536 235.216 71.152C235.003 70.7573 234.896 70.2773 234.896 69.712C234.896 69.0187 235.083 68.4213 235.456 67.92C235.83 67.408 236.326 67.0133 236.944 66.736C237.574 66.4587 238.262 66.32 239.008 66.32C239.702 66.32 240.336 66.4 240.912 66.56C241.488 66.7093 242.006 66.928 242.464 67.216V69.568C241.974 69.1947 241.451 68.9013 240.896 68.688C240.342 68.464 239.734 68.352 239.072 68.352C238.55 68.352 238.118 68.4533 237.776 68.656C237.435 68.848 237.264 69.1467 237.264 69.552C237.264 69.84 237.366 70.08 237.568 70.272C237.782 70.4533 238.064 70.6133 238.416 70.752C238.768 70.8907 239.152 71.0293 239.568 71.168C239.984 71.3067 240.395 71.4613 240.8 71.632C241.216 71.8027 241.6 72.0213 241.952 72.288C242.304 72.544 242.582 72.864 242.784 73.248C242.998 73.632 243.104 74.1067 243.104 74.672C243.104 75.408 242.902 76.0427 242.496 76.576C242.091 77.0987 241.552 77.4987 240.88 77.776C240.208 78.0533 239.478 78.192 238.688 78.192C237.92 78.192 237.211 78.096 236.56 77.904C235.91 77.712 235.376 77.4827 234.96 77.216ZM244.61 78V65.84H246.946V70.416C247.17 70.1493 247.474 69.9253 247.858 69.744C248.252 69.5627 248.695 69.472 249.186 69.472C249.815 69.472 250.348 69.6 250.786 69.856C251.223 70.112 251.559 70.4693 251.794 70.928C252.028 71.3867 252.146 71.9307 252.146 72.56V78H249.826V73.056C249.826 72.5973 249.708 72.2347 249.474 71.968C249.25 71.6907 248.908 71.552 248.45 71.552C248.215 71.552 247.991 71.6 247.778 71.696C247.575 71.7813 247.399 71.9147 247.25 72.096C247.1 72.2667 246.999 72.4693 246.946 72.704V78H244.61ZM257.151 76.496C257.503 76.496 257.817 76.4267 258.095 76.288C258.383 76.1387 258.58 75.952 258.687 75.728V75.104C258.58 74.8907 258.383 74.72 258.095 74.592C257.817 74.464 257.503 74.4 257.151 74.4C256.895 74.4 256.655 74.4373 256.431 74.512C256.207 74.5867 256.025 74.704 255.887 74.864C255.759 75.0133 255.695 75.2053 255.695 75.44C255.695 75.6747 255.759 75.872 255.887 76.032C256.025 76.1813 256.207 76.2987 256.431 76.384C256.655 76.4587 256.895 76.496 257.151 76.496ZM258.687 72.736C258.687 72.3733 258.532 72.0693 258.223 71.824C257.913 71.5787 257.439 71.456 256.799 71.456C256.372 71.456 255.967 71.52 255.583 71.648C255.199 71.7653 254.841 71.9307 254.511 72.144V70.144C254.799 69.952 255.193 69.792 255.695 69.664C256.207 69.536 256.74 69.472 257.295 69.472C258.073 69.472 258.729 69.6 259.263 69.856C259.796 70.1013 260.201 70.464 260.479 70.944C260.767 71.4133 260.911 71.9893 260.911 72.672V78H258.687V77.568C258.527 77.7067 258.265 77.8453 257.903 77.984C257.54 78.112 257.129 78.176 256.671 78.176C256.105 78.176 255.583 78.064 255.103 77.84C254.623 77.616 254.244 77.3013 253.967 76.896C253.689 76.4907 253.551 76.0107 253.551 75.456C253.551 74.9013 253.689 74.4213 253.967 74.016C254.244 73.6107 254.623 73.3013 255.103 73.088C255.583 72.864 256.105 72.752 256.671 72.752C257.129 72.752 257.54 72.8107 257.903 72.928C258.276 73.0453 258.537 73.1733 258.687 73.312V72.736ZM267.9 69.616V71.936C267.74 71.84 267.559 71.7707 267.356 71.728C267.164 71.6853 266.962 71.664 266.748 71.664C266.492 71.664 266.252 71.7067 266.028 71.792C265.804 71.8773 265.618 72.0053 265.468 72.176C265.319 72.3467 265.218 72.56 265.164 72.816V78H262.828V69.664H265.164V70.448C265.282 70.256 265.431 70.0853 265.612 69.936C265.804 69.7867 266.018 69.6747 266.252 69.6C266.498 69.5147 266.754 69.472 267.02 69.472C267.223 69.472 267.404 69.488 267.564 69.52C267.724 69.5413 267.836 69.5733 267.9 69.616ZM270.852 73.776C270.852 74.3733 270.954 74.8587 271.156 75.232C271.37 75.5947 271.658 75.8613 272.02 76.032C272.394 76.192 272.815 76.272 273.284 76.272C273.722 76.272 274.127 76.2187 274.5 76.112C274.884 76.0053 275.279 75.8187 275.684 75.552V77.456C275.332 77.712 274.916 77.8987 274.436 78.016C273.956 78.1333 273.439 78.192 272.884 78.192C272.031 78.192 271.284 78.016 270.644 77.664C270.015 77.3013 269.519 76.7947 269.156 76.144C268.804 75.4827 268.628 74.7147 268.628 73.84C268.628 72.9973 268.794 72.2453 269.124 71.584C269.466 70.9227 269.93 70.4053 270.516 70.032C271.114 69.648 271.796 69.456 272.564 69.456C273.172 69.456 273.706 69.5573 274.164 69.76C274.623 69.9627 275.007 70.2453 275.316 70.608C275.636 70.9707 275.871 71.408 276.02 71.92C276.18 72.4213 276.26 72.9813 276.26 73.6V74.336H270.212L270.244 72.848H274.084C274.074 72.6347 274.031 72.4373 273.956 72.256C273.892 72.064 273.796 71.8987 273.668 71.76C273.551 71.6213 273.402 71.5147 273.22 71.44C273.05 71.3547 272.847 71.312 272.612 71.312C272.314 71.312 272.026 71.4027 271.748 71.584C271.482 71.7547 271.263 72.0213 271.092 72.384C270.932 72.736 270.852 73.2 270.852 73.776ZM280.269 73.824C280.269 72.9707 280.44 72.2187 280.781 71.568C281.133 70.9067 281.613 70.3947 282.221 70.032C282.84 69.6587 283.554 69.472 284.365 69.472C285.176 69.472 285.89 69.6587 286.509 70.032C287.128 70.3947 287.608 70.9067 287.949 71.568C288.301 72.2187 288.477 72.9707 288.477 73.824C288.477 74.6773 288.301 75.4347 287.949 76.096C287.608 76.7573 287.128 77.2747 286.509 77.648C285.89 78.0107 285.176 78.192 284.365 78.192C283.554 78.192 282.84 78.0107 282.221 77.648C281.613 77.2747 281.133 76.7573 280.781 76.096C280.44 75.4347 280.269 74.6773 280.269 73.824ZM282.573 73.824C282.573 74.2933 282.642 74.7147 282.781 75.088C282.92 75.4507 283.122 75.7333 283.389 75.936C283.656 76.1387 283.981 76.24 284.365 76.24C284.76 76.24 285.085 76.1387 285.341 75.936C285.608 75.7333 285.81 75.4507 285.949 75.088C286.088 74.7147 286.157 74.2933 286.157 73.824C286.157 73.3653 286.088 72.9547 285.949 72.592C285.81 72.2293 285.608 71.9467 285.341 71.744C285.085 71.5307 284.76 71.424 284.365 71.424C283.981 71.424 283.656 71.5307 283.389 71.744C283.122 71.9467 282.92 72.2293 282.781 72.592C282.642 72.9547 282.573 73.3653 282.573 73.824ZM289.953 78V69.664H292.289V70.416C292.513 70.1493 292.817 69.9253 293.201 69.744C293.596 69.5627 294.039 69.472 294.529 69.472C295.159 69.472 295.692 69.6 296.129 69.856C296.567 70.112 296.903 70.4693 297.137 70.928C297.372 71.3867 297.489 71.9307 297.489 72.56V78H295.169V73.056C295.169 72.5973 295.052 72.2347 294.817 71.968C294.593 71.6907 294.252 71.552 293.793 71.552C293.559 71.552 293.335 71.6 293.121 71.696C292.919 71.7813 292.743 71.9147 292.593 72.096C292.444 72.2667 292.343 72.4693 292.289 72.704V78H289.953ZM304.87 78.032L301.67 69.664H304.118L306.022 75.184L307.926 69.664H310.278L305.926 81.12H303.654L304.87 78.032ZM310.597 73.824C310.597 72.9707 310.768 72.2187 311.109 71.568C311.461 70.9067 311.941 70.3947 312.549 70.032C313.168 69.6587 313.883 69.472 314.693 69.472C315.504 69.472 316.219 69.6587 316.837 70.032C317.456 70.3947 317.936 70.9067 318.277 71.568C318.629 72.2187 318.805 72.9707 318.805 73.824C318.805 74.6773 318.629 75.4347 318.277 76.096C317.936 76.7573 317.456 77.2747 316.837 77.648C316.219 78.0107 315.504 78.192 314.693 78.192C313.883 78.192 313.168 78.0107 312.549 77.648C311.941 77.2747 311.461 76.7573 311.109 76.096C310.768 75.4347 310.597 74.6773 310.597 73.824ZM312.901 73.824C312.901 74.2933 312.971 74.7147 313.109 75.088C313.248 75.4507 313.451 75.7333 313.717 75.936C313.984 76.1387 314.309 76.24 314.693 76.24C315.088 76.24 315.413 76.1387 315.669 75.936C315.936 75.7333 316.139 75.4507 316.277 75.088C316.416 74.7147 316.485 74.2933 316.485 73.824C316.485 73.3653 316.416 72.9547 316.277 72.592C316.139 72.2293 315.936 71.9467 315.669 71.744C315.413 71.5307 315.088 71.424 314.693 71.424C314.309 71.424 313.984 71.5307 313.717 71.744C313.451 71.9467 313.248 72.2293 313.109 72.592C312.971 72.9547 312.901 73.3653 312.901 73.824ZM327.689 69.664V78H325.353V77.248C325.129 77.5147 324.825 77.7387 324.441 77.92C324.057 78.1013 323.62 78.192 323.129 78.192C322.5 78.192 321.967 78.064 321.529 77.808C321.092 77.552 320.756 77.1947 320.521 76.736C320.297 76.2667 320.185 75.7227 320.185 75.104V69.664H322.521V74.624C322.521 75.0613 322.628 75.4187 322.841 75.696C323.065 75.9733 323.407 76.112 323.865 76.112C324.217 76.112 324.532 76.0107 324.809 75.808C325.087 75.5947 325.268 75.3067 325.353 74.944V69.664H327.689ZM334.775 69.616V71.936C334.615 71.84 334.434 71.7707 334.231 71.728C334.039 71.6853 333.837 71.664 333.623 71.664C333.367 71.664 333.127 71.7067 332.903 71.792C332.679 71.8773 332.493 72.0053 332.343 72.176C332.194 72.3467 332.093 72.56 332.039 72.816V78H329.703V69.664H332.039V70.448C332.157 70.256 332.306 70.0853 332.487 69.936C332.679 69.7867 332.893 69.6747 333.127 69.6C333.373 69.5147 333.629 69.472 333.895 69.472C334.098 69.472 334.279 69.488 334.439 69.52C334.599 69.5413 334.711 69.5733 334.775 69.616ZM338.945 77.344V75.2C339.211 75.4453 339.51 75.6533 339.841 75.824C340.171 75.9947 340.507 76.128 340.849 76.224C341.201 76.3093 341.531 76.352 341.841 76.352C342.075 76.352 342.283 76.3307 342.465 76.288C342.657 76.2347 342.806 76.1547 342.913 76.048C343.03 75.9413 343.089 75.8027 343.089 75.632C343.089 75.3973 342.987 75.2213 342.785 75.104C342.582 74.976 342.321 74.8693 342.001 74.784C341.691 74.6987 341.361 74.6027 341.009 74.496C340.657 74.3893 340.321 74.2453 340.001 74.064C339.691 73.8827 339.435 73.6373 339.233 73.328C339.041 73.0187 338.945 72.608 338.945 72.096C338.945 71.552 339.089 71.0827 339.377 70.688C339.665 70.2933 340.059 69.9947 340.561 69.792C341.062 69.5787 341.622 69.472 342.241 69.472C342.763 69.472 343.243 69.5307 343.681 69.648C344.118 69.7653 344.518 69.9467 344.881 70.192V72.32C344.507 72.0213 344.107 71.776 343.681 71.584C343.254 71.392 342.806 71.296 342.337 71.296C342.017 71.296 341.745 71.36 341.521 71.488C341.307 71.616 341.201 71.792 341.201 72.016C341.201 72.24 341.302 72.4107 341.505 72.528C341.707 72.6453 341.963 72.7467 342.273 72.832C342.582 72.9173 342.913 73.0133 343.265 73.12C343.627 73.2267 343.963 73.3707 344.273 73.552C344.593 73.7333 344.849 73.984 345.041 74.304C345.243 74.624 345.345 75.0453 345.345 75.568C345.345 76.1333 345.19 76.6133 344.881 77.008C344.582 77.4027 344.171 77.7013 343.649 77.904C343.137 78.096 342.55 78.192 341.889 78.192C341.334 78.192 340.79 78.1173 340.257 77.968C339.734 77.8187 339.297 77.6107 338.945 77.344ZM346.378 73.824C346.378 72.9707 346.549 72.2187 346.89 71.568C347.242 70.9067 347.722 70.3947 348.33 70.032C348.949 69.6587 349.664 69.472 350.474 69.472C351.285 69.472 352 69.6587 352.618 70.032C353.237 70.3947 353.717 70.9067 354.058 71.568C354.41 72.2187 354.586 72.9707 354.586 73.824C354.586 74.6773 354.41 75.4347 354.058 76.096C353.717 76.7573 353.237 77.2747 352.618 77.648C352 78.0107 351.285 78.192 350.474 78.192C349.664 78.192 348.949 78.0107 348.33 77.648C347.722 77.2747 347.242 76.7573 346.89 76.096C346.549 75.4347 346.378 74.6773 346.378 73.824ZM348.682 73.824C348.682 74.2933 348.752 74.7147 348.89 75.088C349.029 75.4507 349.232 75.7333 349.498 75.936C349.765 76.1387 350.09 76.24 350.474 76.24C350.869 76.24 351.194 76.1387 351.45 75.936C351.717 75.7333 351.92 75.4507 352.058 75.088C352.197 74.7147 352.266 74.2933 352.266 73.824C352.266 73.3653 352.197 72.9547 352.058 72.592C351.92 72.2293 351.717 71.9467 351.45 71.744C351.194 71.5307 350.869 71.424 350.474 71.424C350.09 71.424 349.765 71.5307 349.498 71.744C349.232 71.9467 349.029 72.2293 348.89 72.592C348.752 72.9547 348.682 73.3653 348.682 73.824ZM357.932 73.824C357.932 74.304 358.023 74.7253 358.204 75.088C358.396 75.44 358.658 75.7173 358.988 75.92C359.33 76.112 359.714 76.208 360.14 76.208C360.503 76.208 360.85 76.144 361.18 76.016C361.522 75.8773 361.842 75.68 362.14 75.424V77.536C361.842 77.7707 361.495 77.936 361.1 78.032C360.706 78.1387 360.295 78.192 359.868 78.192C359.047 78.192 358.316 78.0107 357.676 77.648C357.036 77.2853 356.535 76.7787 356.172 76.128C355.81 75.4667 355.628 74.6987 355.628 73.824C355.628 72.9493 355.81 72.1867 356.172 71.536C356.535 70.8747 357.036 70.368 357.676 70.016C358.316 69.6533 359.047 69.472 359.868 69.472C360.295 69.472 360.706 69.5253 361.1 69.632C361.495 69.728 361.842 69.8933 362.14 70.128V72.224C361.842 71.968 361.522 71.776 361.18 71.648C360.85 71.52 360.503 71.456 360.14 71.456C359.714 71.456 359.33 71.5573 358.988 71.76C358.658 71.952 358.396 72.2293 358.204 72.592C358.023 72.944 357.932 73.3547 357.932 73.824ZM366.055 69.664V78H363.719V69.664H366.055ZM363.511 67.232C363.511 66.8373 363.644 66.5173 363.911 66.272C364.178 66.016 364.498 65.888 364.871 65.888C365.255 65.888 365.58 66.016 365.847 66.272C366.114 66.5173 366.247 66.8373 366.247 67.232C366.247 67.6053 366.114 67.92 365.847 68.176C365.58 68.432 365.255 68.56 364.871 68.56C364.498 68.56 364.178 68.432 363.911 68.176C363.644 67.92 363.511 67.6053 363.511 67.232ZM371.166 76.496C371.518 76.496 371.833 76.4267 372.11 76.288C372.398 76.1387 372.596 75.952 372.702 75.728V75.104C372.596 74.8907 372.398 74.72 372.11 74.592C371.833 74.464 371.518 74.4 371.166 74.4C370.91 74.4 370.67 74.4373 370.446 74.512C370.222 74.5867 370.041 74.704 369.902 74.864C369.774 75.0133 369.71 75.2053 369.71 75.44C369.71 75.6747 369.774 75.872 369.902 76.032C370.041 76.1813 370.222 76.2987 370.446 76.384C370.67 76.4587 370.91 76.496 371.166 76.496ZM372.702 72.736C372.702 72.3733 372.548 72.0693 372.238 71.824C371.929 71.5787 371.454 71.456 370.814 71.456C370.388 71.456 369.982 71.52 369.598 71.648C369.214 71.7653 368.857 71.9307 368.526 72.144V70.144C368.814 69.952 369.209 69.792 369.71 69.664C370.222 69.536 370.756 69.472 371.31 69.472C372.089 69.472 372.745 69.6 373.278 69.856C373.812 70.1013 374.217 70.464 374.494 70.944C374.782 71.4133 374.926 71.9893 374.926 72.672V78H372.702V77.568C372.542 77.7067 372.281 77.8453 371.918 77.984C371.556 78.112 371.145 78.176 370.686 78.176C370.121 78.176 369.598 78.064 369.118 77.84C368.638 77.616 368.26 77.3013 367.982 76.896C367.705 76.4907 367.566 76.0107 367.566 75.456C367.566 74.9013 367.705 74.4213 367.982 74.016C368.26 73.6107 368.638 73.3013 369.118 73.088C369.598 72.864 370.121 72.752 370.686 72.752C371.145 72.752 371.556 72.8107 371.918 72.928C372.292 73.0453 372.553 73.1733 372.702 73.312V72.736ZM379.18 65.84V78H376.844V65.84H379.18ZM390.923 70.528C391.2 70.2293 391.547 69.9787 391.963 69.776C392.379 69.5733 392.875 69.472 393.451 69.472C394.027 69.472 394.517 69.6 394.923 69.856C395.339 70.1013 395.653 70.4587 395.867 70.928C396.091 71.3867 396.203 71.9307 396.203 72.56V78H393.867V73.04C393.867 72.592 393.771 72.2347 393.579 71.968C393.387 71.6907 393.088 71.552 392.683 71.552C392.384 71.552 392.112 71.6427 391.867 71.824C391.621 72.0053 391.461 72.272 391.387 72.624V78H389.051V73.04C389.051 72.592 388.955 72.2347 388.763 71.968C388.571 71.6907 388.272 71.552 387.867 71.552C387.568 71.552 387.296 71.6427 387.051 71.824C386.805 72.0053 386.645 72.272 386.571 72.624V78H384.235V69.664H386.571V70.352C386.763 70.0853 387.045 69.872 387.419 69.712C387.792 69.552 388.208 69.472 388.667 69.472C389.168 69.472 389.611 69.5733 389.995 69.776C390.379 69.968 390.688 70.2187 390.923 70.528ZM399.821 73.776C399.821 74.3733 399.923 74.8587 400.125 75.232C400.339 75.5947 400.627 75.8613 400.989 76.032C401.363 76.192 401.784 76.272 402.253 76.272C402.691 76.272 403.096 76.2187 403.469 76.112C403.853 76.0053 404.248 75.8187 404.653 75.552V77.456C404.301 77.712 403.885 77.8987 403.405 78.016C402.925 78.1333 402.408 78.192 401.853 78.192C401 78.192 400.253 78.016 399.613 77.664C398.984 77.3013 398.488 76.7947 398.125 76.144C397.773 75.4827 397.597 74.7147 397.597 73.84C397.597 72.9973 397.763 72.2453 398.093 71.584C398.435 70.9227 398.899 70.4053 399.485 70.032C400.083 69.648 400.765 69.456 401.533 69.456C402.141 69.456 402.675 69.5573 403.133 69.76C403.592 69.9627 403.976 70.2453 404.285 70.608C404.605 70.9707 404.84 71.408 404.989 71.92C405.149 72.4213 405.229 72.9813 405.229 73.6V74.336H399.181L399.213 72.848H403.053C403.043 72.6347 403 72.4373 402.925 72.256C402.861 72.064 402.765 71.8987 402.637 71.76C402.52 71.6213 402.371 71.5147 402.189 71.44C402.019 71.3547 401.816 71.312 401.581 71.312C401.283 71.312 400.995 71.4027 400.717 71.584C400.451 71.7547 400.232 72.0213 400.061 72.384C399.901 72.736 399.821 73.2 399.821 73.776ZM412.205 77.312C412.077 77.4613 411.906 77.6053 411.693 77.744C411.479 77.872 411.234 77.9787 410.957 78.064C410.679 78.1493 410.391 78.192 410.093 78.192C409.495 78.192 408.962 78.08 408.493 77.856C408.023 77.6213 407.623 77.3067 407.293 76.912C406.962 76.5067 406.711 76.0427 406.541 75.52C406.37 74.9867 406.285 74.4213 406.285 73.824C406.285 73.2267 406.37 72.6667 406.541 72.144C406.711 71.6107 406.962 71.1467 407.293 70.752C407.623 70.3573 408.023 70.048 408.493 69.824C408.962 69.5893 409.495 69.472 410.093 69.472C410.402 69.472 410.69 69.5147 410.957 69.6C411.234 69.6747 411.479 69.7813 411.693 69.92C411.906 70.0587 412.077 70.2027 412.205 70.352V65.84H414.525V78H412.205V77.312ZM412.205 75.2V72.464C412.066 72.176 411.853 71.9413 411.565 71.76C411.277 71.5787 410.962 71.488 410.621 71.488C410.301 71.488 410.018 71.5467 409.773 71.664C409.527 71.7813 409.319 71.9467 409.149 72.16C408.978 72.3627 408.845 72.608 408.749 72.896C408.653 73.184 408.605 73.4933 408.605 73.824C408.605 74.1653 408.653 74.48 408.749 74.768C408.845 75.0453 408.978 75.2907 409.149 75.504C409.319 75.7173 409.527 75.8827 409.773 76C410.018 76.1173 410.301 76.176 410.621 76.176C410.962 76.176 411.277 76.0853 411.565 75.904C411.853 75.7227 412.066 75.488 412.205 75.2ZM418.883 69.664V78H416.547V69.664H418.883ZM416.339 67.232C416.339 66.8373 416.472 66.5173 416.739 66.272C417.006 66.016 417.326 65.888 417.699 65.888C418.083 65.888 418.408 66.016 418.675 66.272C418.942 66.5173 419.075 66.8373 419.075 67.232C419.075 67.6053 418.942 67.92 418.675 68.176C418.408 68.432 418.083 68.56 417.699 68.56C417.326 68.56 417.006 68.432 416.739 68.176C416.472 67.92 416.339 67.6053 416.339 67.232ZM423.994 76.496C424.346 76.496 424.661 76.4267 424.938 76.288C425.226 76.1387 425.424 75.952 425.53 75.728V75.104C425.424 74.8907 425.226 74.72 424.938 74.592C424.661 74.464 424.346 74.4 423.994 74.4C423.738 74.4 423.498 74.4373 423.274 74.512C423.05 74.5867 422.869 74.704 422.73 74.864C422.602 75.0133 422.538 75.2053 422.538 75.44C422.538 75.6747 422.602 75.872 422.73 76.032C422.869 76.1813 423.05 76.2987 423.274 76.384C423.498 76.4587 423.738 76.496 423.994 76.496ZM425.53 72.736C425.53 72.3733 425.376 72.0693 425.066 71.824C424.757 71.5787 424.282 71.456 423.642 71.456C423.216 71.456 422.81 71.52 422.426 71.648C422.042 71.7653 421.685 71.9307 421.354 72.144V70.144C421.642 69.952 422.037 69.792 422.538 69.664C423.05 69.536 423.584 69.472 424.138 69.472C424.917 69.472 425.573 69.6 426.106 69.856C426.64 70.1013 427.045 70.464 427.322 70.944C427.61 71.4133 427.754 71.9893 427.754 72.672V78H425.53V77.568C425.37 77.7067 425.109 77.8453 424.746 77.984C424.384 78.112 423.973 78.176 423.514 78.176C422.949 78.176 422.426 78.064 421.946 77.84C421.466 77.616 421.088 77.3013 420.81 76.896C420.533 76.4907 420.394 76.0107 420.394 75.456C420.394 74.9013 420.533 74.4213 420.81 74.016C421.088 73.6107 421.466 73.3013 421.946 73.088C422.426 72.864 422.949 72.752 423.514 72.752C423.973 72.752 424.384 72.8107 424.746 72.928C425.12 73.0453 425.381 73.1733 425.53 73.312V72.736ZM432.175 73.824C432.175 72.9707 432.346 72.2187 432.687 71.568C433.039 70.9067 433.519 70.3947 434.127 70.032C434.746 69.6587 435.461 69.472 436.271 69.472C437.082 69.472 437.797 69.6587 438.415 70.032C439.034 70.3947 439.514 70.9067 439.855 71.568C440.207 72.2187 440.383 72.9707 440.383 73.824C440.383 74.6773 440.207 75.4347 439.855 76.096C439.514 76.7573 439.034 77.2747 438.415 77.648C437.797 78.0107 437.082 78.192 436.271 78.192C435.461 78.192 434.746 78.0107 434.127 77.648C433.519 77.2747 433.039 76.7573 432.687 76.096C432.346 75.4347 432.175 74.6773 432.175 73.824ZM434.479 73.824C434.479 74.2933 434.549 74.7147 434.687 75.088C434.826 75.4507 435.029 75.7333 435.295 75.936C435.562 76.1387 435.887 76.24 436.271 76.24C436.666 76.24 436.991 76.1387 437.247 75.936C437.514 75.7333 437.717 75.4507 437.855 75.088C437.994 74.7147 438.063 74.2933 438.063 73.824C438.063 73.3653 437.994 72.9547 437.855 72.592C437.717 72.2293 437.514 71.9467 437.247 71.744C436.991 71.5307 436.666 71.424 436.271 71.424C435.887 71.424 435.562 71.5307 435.295 71.744C435.029 71.9467 434.826 72.2293 434.687 72.592C434.549 72.9547 434.479 73.3653 434.479 73.824ZM444.82 69.664H446.532V71.536H444.82V78H442.484V71.536H441.14V69.664H442.484V68.64C442.484 68.0107 442.607 67.4773 442.852 67.04C443.108 66.592 443.46 66.2507 443.908 66.016C444.367 65.7813 444.889 65.664 445.476 65.664C445.732 65.664 445.967 65.6853 446.18 65.728C446.393 65.76 446.585 65.8133 446.756 65.888V67.856C446.639 67.7707 446.505 67.712 446.356 67.68C446.217 67.6373 446.079 67.616 445.94 67.616C445.588 67.616 445.311 67.7173 445.108 67.92C444.916 68.112 444.82 68.4 444.82 68.784V69.664ZM452.745 73.824C452.745 74.304 452.836 74.7253 453.017 75.088C453.209 75.44 453.47 75.7173 453.801 75.92C454.142 76.112 454.526 76.208 454.953 76.208C455.316 76.208 455.662 76.144 455.993 76.016C456.334 75.8773 456.654 75.68 456.953 75.424V77.536C456.654 77.7707 456.308 77.936 455.913 78.032C455.518 78.1387 455.108 78.192 454.681 78.192C453.86 78.192 453.129 78.0107 452.489 77.648C451.849 77.2853 451.348 76.7787 450.985 76.128C450.622 75.4667 450.441 74.6987 450.441 73.824C450.441 72.9493 450.622 72.1867 450.985 71.536C451.348 70.8747 451.849 70.368 452.489 70.016C453.129 69.6533 453.86 69.472 454.681 69.472C455.108 69.472 455.518 69.5253 455.913 69.632C456.308 69.728 456.654 69.8933 456.953 70.128V72.224C456.654 71.968 456.334 71.776 455.993 71.648C455.662 71.52 455.316 71.456 454.953 71.456C454.526 71.456 454.142 71.5573 453.801 71.76C453.47 71.952 453.209 72.2293 453.017 72.592C452.836 72.944 452.745 73.3547 452.745 73.824ZM458.531 78V65.84H460.867V70.416C461.091 70.1493 461.395 69.9253 461.779 69.744C462.174 69.5627 462.617 69.472 463.107 69.472C463.737 69.472 464.27 69.6 464.707 69.856C465.145 70.112 465.481 70.4693 465.715 70.928C465.95 71.3867 466.067 71.9307 466.067 72.56V78H463.747V73.056C463.747 72.5973 463.63 72.2347 463.395 71.968C463.171 71.6907 462.83 71.552 462.371 71.552C462.137 71.552 461.913 71.6 461.699 71.696C461.497 71.7813 461.321 71.9147 461.171 72.096C461.022 72.2667 460.921 72.4693 460.867 72.704V78H458.531ZM467.457 73.824C467.457 72.9707 467.627 72.2187 467.969 71.568C468.321 70.9067 468.801 70.3947 469.409 70.032C470.027 69.6587 470.742 69.472 471.553 69.472C472.363 69.472 473.078 69.6587 473.697 70.032C474.315 70.3947 474.795 70.9067 475.137 71.568C475.489 72.2187 475.665 72.9707 475.665 73.824C475.665 74.6773 475.489 75.4347 475.137 76.096C474.795 76.7573 474.315 77.2747 473.697 77.648C473.078 78.0107 472.363 78.192 471.553 78.192C470.742 78.192 470.027 78.0107 469.409 77.648C468.801 77.2747 468.321 76.7573 467.969 76.096C467.627 75.4347 467.457 74.6773 467.457 73.824ZM469.761 73.824C469.761 74.2933 469.83 74.7147 469.969 75.088C470.107 75.4507 470.31 75.7333 470.577 75.936C470.843 76.1387 471.169 76.24 471.553 76.24C471.947 76.24 472.273 76.1387 472.529 75.936C472.795 75.7333 472.998 75.4507 473.137 75.088C473.275 74.7147 473.345 74.2933 473.345 73.824C473.345 73.3653 473.275 72.9547 473.137 72.592C472.998 72.2293 472.795 71.9467 472.529 71.744C472.273 71.5307 471.947 71.424 471.553 71.424C471.169 71.424 470.843 71.5307 470.577 71.744C470.31 71.9467 470.107 72.2293 469.969 72.592C469.83 72.9547 469.761 73.3653 469.761 73.824ZM479.477 69.664V78H477.141V69.664H479.477ZM476.933 67.232C476.933 66.8373 477.066 66.5173 477.333 66.272C477.599 66.016 477.919 65.888 478.293 65.888C478.677 65.888 479.002 66.016 479.269 66.272C479.535 66.5173 479.669 66.8373 479.669 67.232C479.669 67.6053 479.535 67.92 479.269 68.176C479.002 68.432 478.677 68.56 478.293 68.56C477.919 68.56 477.599 68.432 477.333 68.176C477.066 67.92 476.933 67.6053 476.933 67.232ZM483.276 73.824C483.276 74.304 483.367 74.7253 483.548 75.088C483.74 75.44 484.002 75.7173 484.332 75.92C484.674 76.112 485.058 76.208 485.484 76.208C485.847 76.208 486.194 76.144 486.524 76.016C486.866 75.8773 487.186 75.68 487.484 75.424V77.536C487.186 77.7707 486.839 77.936 486.444 78.032C486.05 78.1387 485.639 78.192 485.212 78.192C484.391 78.192 483.66 78.0107 483.02 77.648C482.38 77.2853 481.879 76.7787 481.516 76.128C481.154 75.4667 480.972 74.6987 480.972 73.824C480.972 72.9493 481.154 72.1867 481.516 71.536C481.879 70.8747 482.38 70.368 483.02 70.016C483.66 69.6533 484.391 69.472 485.212 69.472C485.639 69.472 486.05 69.5253 486.444 69.632C486.839 69.728 487.186 69.8933 487.484 70.128V72.224C487.186 71.968 486.866 71.776 486.524 71.648C486.194 71.52 485.847 71.456 485.484 71.456C485.058 71.456 484.674 71.5573 484.332 71.76C484.002 71.952 483.74 72.2293 483.548 72.592C483.367 72.944 483.276 73.3547 483.276 73.824ZM490.774 73.776C490.774 74.3733 490.876 74.8587 491.078 75.232C491.292 75.5947 491.58 75.8613 491.942 76.032C492.316 76.192 492.737 76.272 493.206 76.272C493.644 76.272 494.049 76.2187 494.422 76.112C494.806 76.0053 495.201 75.8187 495.606 75.552V77.456C495.254 77.712 494.838 77.8987 494.358 78.016C493.878 78.1333 493.361 78.192 492.806 78.192C491.953 78.192 491.206 78.016 490.566 77.664C489.937 77.3013 489.441 76.7947 489.078 76.144C488.726 75.4827 488.55 74.7147 488.55 73.84C488.55 72.9973 488.716 72.2453 489.046 71.584C489.388 70.9227 489.852 70.4053 490.438 70.032C491.036 69.648 491.718 69.456 492.486 69.456C493.094 69.456 493.628 69.5573 494.086 69.76C494.545 69.9627 494.929 70.2453 495.238 70.608C495.558 70.9707 495.793 71.408 495.942 71.92C496.102 72.4213 496.182 72.9813 496.182 73.6V74.336H490.134L490.166 72.848H494.006C493.996 72.6347 493.953 72.4373 493.878 72.256C493.814 72.064 493.718 71.8987 493.59 71.76C493.473 71.6213 493.324 71.5147 493.142 71.44C492.972 71.3547 492.769 71.312 492.534 71.312C492.236 71.312 491.948 71.4027 491.67 71.584C491.404 71.7547 491.185 72.0213 491.014 72.384C490.854 72.736 490.774 73.2 490.774 73.776Z" fill="white"/>
</svg>
