<svg width="711" height="144" viewBox="0 0 711 144" fill="none" xmlns="http://www.w3.org/2000/svg">
<rect x="246.5" y="50" width="238" height="44" rx="2" fill="#593380"/>
<path d="M263.294 72.256C263.294 71.3813 263.438 70.5813 263.726 69.856C264.014 69.1307 264.414 68.5067 264.926 67.984C265.438 67.4507 266.041 67.04 266.734 66.752C267.427 66.464 268.185 66.32 269.006 66.32C269.635 66.32 270.195 66.4 270.686 66.56C271.187 66.72 271.625 66.944 271.998 67.232V69.616C271.561 69.232 271.107 68.9547 270.638 68.784C270.179 68.6027 269.678 68.512 269.134 68.512C268.462 68.512 267.87 68.6667 267.358 68.976C266.846 69.2747 266.446 69.7067 266.158 70.272C265.87 70.8373 265.726 71.4987 265.726 72.256C265.726 73.0027 265.87 73.664 266.158 74.24C266.446 74.8053 266.846 75.2427 267.358 75.552C267.87 75.8507 268.462 76 269.134 76C269.678 76 270.179 75.9093 270.638 75.728C271.107 75.5467 271.561 75.2693 271.998 74.896V77.28C271.625 77.568 271.187 77.792 270.686 77.952C270.195 78.112 269.635 78.192 269.006 78.192C268.185 78.192 267.427 78.048 266.734 77.76C266.041 77.472 265.438 77.0667 264.926 76.544C264.414 76.0107 264.014 75.3813 263.726 74.656C263.438 73.9307 263.294 73.1307 263.294 72.256ZM273.246 73.824C273.246 72.9707 273.416 72.2187 273.758 71.568C274.11 70.9067 274.59 70.3947 275.198 70.032C275.816 69.6587 276.531 69.472 277.342 69.472C278.152 69.472 278.867 69.6587 279.486 70.032C280.104 70.3947 280.584 70.9067 280.926 71.568C281.278 72.2187 281.454 72.9707 281.454 73.824C281.454 74.6773 281.278 75.4347 280.926 76.096C280.584 76.7573 280.104 77.2747 279.486 77.648C278.867 78.0107 278.152 78.192 277.342 78.192C276.531 78.192 275.816 78.0107 275.198 77.648C274.59 77.2747 274.11 76.7573 273.758 76.096C273.416 75.4347 273.246 74.6773 273.246 73.824ZM275.55 73.824C275.55 74.2933 275.619 74.7147 275.758 75.088C275.896 75.4507 276.099 75.7333 276.366 75.936C276.632 76.1387 276.958 76.24 277.342 76.24C277.736 76.24 278.062 76.1387 278.318 75.936C278.584 75.7333 278.787 75.4507 278.926 75.088C279.064 74.7147 279.134 74.2933 279.134 73.824C279.134 73.3653 279.064 72.9547 278.926 72.592C278.787 72.2293 278.584 71.9467 278.318 71.744C278.062 71.5307 277.736 71.424 277.342 71.424C276.958 71.424 276.632 71.5307 276.366 71.744C276.099 71.9467 275.896 72.2293 275.758 72.592C275.619 72.9547 275.55 73.3653 275.55 73.824ZM282.93 78V69.664H285.266V70.416C285.49 70.1493 285.794 69.9253 286.178 69.744C286.573 69.5627 287.015 69.472 287.506 69.472C288.135 69.472 288.669 69.6 289.106 69.856C289.543 70.112 289.879 70.4693 290.114 70.928C290.349 71.3867 290.466 71.9307 290.466 72.56V78H288.146V73.056C288.146 72.5973 288.029 72.2347 287.794 71.968C287.57 71.6907 287.229 71.552 286.77 71.552C286.535 71.552 286.311 71.6 286.098 71.696C285.895 71.7813 285.719 71.9147 285.57 72.096C285.421 72.2667 285.319 72.4693 285.266 72.704V78H282.93ZM295.663 71.536V78H293.343V71.536H291.743V69.664H293.343V67.408H295.663V69.664H297.439V71.536H295.663ZM301.188 69.664V78H298.852V69.664H301.188ZM298.644 67.232C298.644 66.8373 298.777 66.5173 299.044 66.272C299.31 66.016 299.63 65.888 300.004 65.888C300.388 65.888 300.713 66.016 300.98 66.272C301.246 66.5173 301.38 66.8373 301.38 67.232C301.38 67.6053 301.246 67.92 300.98 68.176C300.713 68.432 300.388 68.56 300.004 68.56C299.63 68.56 299.31 68.432 299.044 68.176C298.777 67.92 298.644 67.6053 298.644 67.232ZM303.211 78V69.664H305.547V70.416C305.771 70.1493 306.075 69.9253 306.459 69.744C306.854 69.5627 307.296 69.472 307.787 69.472C308.416 69.472 308.95 69.6 309.387 69.856C309.824 70.112 310.16 70.4693 310.395 70.928C310.63 71.3867 310.747 71.9307 310.747 72.56V78H308.427V73.056C308.427 72.5973 308.31 72.2347 308.075 71.968C307.851 71.6907 307.51 71.552 307.051 71.552C306.816 71.552 306.592 71.6 306.379 71.696C306.176 71.7813 306 71.9147 305.851 72.096C305.702 72.2667 305.6 72.4693 305.547 72.704V78H303.211ZM320.072 69.664V78H317.736V77.248C317.512 77.5147 317.208 77.7387 316.824 77.92C316.44 78.1013 316.003 78.192 315.512 78.192C314.883 78.192 314.35 78.064 313.912 77.808C313.475 77.552 313.139 77.1947 312.904 76.736C312.68 76.2667 312.568 75.7227 312.568 75.104V69.664H314.904V74.624C314.904 75.0613 315.011 75.4187 315.224 75.696C315.448 75.9733 315.79 76.112 316.248 76.112C316.6 76.112 316.915 76.0107 317.192 75.808C317.47 75.5947 317.651 75.3067 317.736 74.944V69.664H320.072ZM323.782 73.776C323.782 74.3733 323.883 74.8587 324.086 75.232C324.299 75.5947 324.587 75.8613 324.95 76.032C325.323 76.192 325.745 76.272 326.214 76.272C326.651 76.272 327.057 76.2187 327.43 76.112C327.814 76.0053 328.209 75.8187 328.614 75.552V77.456C328.262 77.712 327.846 77.8987 327.366 78.016C326.886 78.1333 326.369 78.192 325.814 78.192C324.961 78.192 324.214 78.016 323.574 77.664C322.945 77.3013 322.449 76.7947 322.086 76.144C321.734 75.4827 321.558 74.7147 321.558 73.84C321.558 72.9973 321.723 72.2453 322.054 71.584C322.395 70.9227 322.859 70.4053 323.446 70.032C324.043 69.648 324.726 69.456 325.494 69.456C326.102 69.456 326.635 69.5573 327.094 69.76C327.553 69.9627 327.937 70.2453 328.246 70.608C328.566 70.9707 328.801 71.408 328.95 71.92C329.11 72.4213 329.19 72.9813 329.19 73.6V74.336H323.142L323.174 72.848H327.014C327.003 72.6347 326.961 72.4373 326.886 72.256C326.822 72.064 326.726 71.8987 326.598 71.76C326.481 71.6213 326.331 71.5147 326.15 71.44C325.979 71.3547 325.777 71.312 325.542 71.312C325.243 71.312 324.955 71.4027 324.678 71.584C324.411 71.7547 324.193 72.0213 324.022 72.384C323.862 72.736 323.782 73.2 323.782 73.776ZM337.023 71.536V78H334.703V71.536H333.103V69.664H334.703V67.408H337.023V69.664H338.799V71.536H337.023ZM339.496 73.824C339.496 72.9707 339.666 72.2187 340.008 71.568C340.36 70.9067 340.84 70.3947 341.448 70.032C342.066 69.6587 342.781 69.472 343.592 69.472C344.402 69.472 345.117 69.6587 345.736 70.032C346.354 70.3947 346.834 70.9067 347.176 71.568C347.528 72.2187 347.704 72.9707 347.704 73.824C347.704 74.6773 347.528 75.4347 347.176 76.096C346.834 76.7573 346.354 77.2747 345.736 77.648C345.117 78.0107 344.402 78.192 343.592 78.192C342.781 78.192 342.066 78.0107 341.448 77.648C340.84 77.2747 340.36 76.7573 340.008 76.096C339.666 75.4347 339.496 74.6773 339.496 73.824ZM341.8 73.824C341.8 74.2933 341.869 74.7147 342.008 75.088C342.146 75.4507 342.349 75.7333 342.616 75.936C342.882 76.1387 343.208 76.24 343.592 76.24C343.986 76.24 344.312 76.1387 344.568 75.936C344.834 75.7333 345.037 75.4507 345.176 75.088C345.314 74.7147 345.384 74.2933 345.384 73.824C345.384 73.3653 345.314 72.9547 345.176 72.592C345.037 72.2293 344.834 71.9467 344.568 71.744C344.312 71.5307 343.986 71.424 343.592 71.424C343.208 71.424 342.882 71.5307 342.616 71.744C342.349 71.9467 342.146 72.2293 342.008 72.592C341.869 72.9547 341.8 73.3653 341.8 73.824ZM355.507 71.536V78H353.187V71.536H351.587V69.664H353.187V67.408H355.507V69.664H357.283V71.536H355.507ZM358.696 78V65.84H361.032V70.416C361.256 70.1493 361.56 69.9253 361.944 69.744C362.338 69.5627 362.781 69.472 363.272 69.472C363.901 69.472 364.434 69.6 364.872 69.856C365.309 70.112 365.645 70.4693 365.88 70.928C366.114 71.3867 366.232 71.9307 366.232 72.56V78H363.912V73.056C363.912 72.5973 363.794 72.2347 363.56 71.968C363.336 71.6907 362.994 71.552 362.536 71.552C362.301 71.552 362.077 71.6 361.864 71.696C361.661 71.7813 361.485 71.9147 361.336 72.096C361.186 72.2667 361.085 72.4693 361.032 72.704V78H358.696ZM369.845 73.776C369.845 74.3733 369.946 74.8587 370.149 75.232C370.362 75.5947 370.65 75.8613 371.013 76.032C371.386 76.192 371.807 76.272 372.277 76.272C372.714 76.272 373.119 76.2187 373.493 76.112C373.877 76.0053 374.271 75.8187 374.677 75.552V77.456C374.325 77.712 373.909 77.8987 373.429 78.016C372.949 78.1333 372.431 78.192 371.877 78.192C371.023 78.192 370.277 78.016 369.637 77.664C369.007 77.3013 368.511 76.7947 368.149 76.144C367.797 75.4827 367.621 74.7147 367.621 73.84C367.621 72.9973 367.786 72.2453 368.117 71.584C368.458 70.9227 368.922 70.4053 369.509 70.032C370.106 69.648 370.789 69.456 371.557 69.456C372.165 69.456 372.698 69.5573 373.157 69.76C373.615 69.9627 373.999 70.2453 374.309 70.608C374.629 70.9707 374.863 71.408 375.013 71.92C375.173 72.4213 375.253 72.9813 375.253 73.6V74.336H369.205L369.237 72.848H373.077C373.066 72.6347 373.023 72.4373 372.949 72.256C372.885 72.064 372.789 71.8987 372.661 71.76C372.543 71.6213 372.394 71.5147 372.213 71.44C372.042 71.3547 371.839 71.312 371.605 71.312C371.306 71.312 371.018 71.4027 370.741 71.584C370.474 71.7547 370.255 72.0213 370.085 72.384C369.925 72.736 369.845 73.2 369.845 73.776ZM379.789 78V69.664H382.125V70.416C382.349 70.1493 382.653 69.9253 383.037 69.744C383.432 69.5627 383.875 69.472 384.365 69.472C384.995 69.472 385.528 69.6 385.965 69.856C386.403 70.112 386.739 70.4693 386.973 70.928C387.208 71.3867 387.325 71.9307 387.325 72.56V78H385.005V73.056C385.005 72.5973 384.888 72.2347 384.653 71.968C384.429 71.6907 384.088 71.552 383.629 71.552C383.395 71.552 383.171 71.6 382.957 71.696C382.755 71.7813 382.579 71.9147 382.429 72.096C382.28 72.2667 382.179 72.4693 382.125 72.704V78H379.789ZM390.938 73.776C390.938 74.3733 391.04 74.8587 391.242 75.232C391.456 75.5947 391.744 75.8613 392.106 76.032C392.48 76.192 392.901 76.272 393.37 76.272C393.808 76.272 394.213 76.2187 394.586 76.112C394.97 76.0053 395.365 75.8187 395.77 75.552V77.456C395.418 77.712 395.002 77.8987 394.522 78.016C394.042 78.1333 393.525 78.192 392.97 78.192C392.117 78.192 391.37 78.016 390.73 77.664C390.101 77.3013 389.605 76.7947 389.242 76.144C388.89 75.4827 388.714 74.7147 388.714 73.84C388.714 72.9973 388.88 72.2453 389.21 71.584C389.552 70.9227 390.016 70.4053 390.602 70.032C391.2 69.648 391.882 69.456 392.65 69.456C393.258 69.456 393.792 69.5573 394.25 69.76C394.709 69.9627 395.093 70.2453 395.402 70.608C395.722 70.9707 395.957 71.408 396.106 71.92C396.266 72.4213 396.346 72.9813 396.346 73.6V74.336H390.298L390.33 72.848H394.17C394.16 72.6347 394.117 72.4373 394.042 72.256C393.978 72.064 393.882 71.8987 393.754 71.76C393.637 71.6213 393.488 71.5147 393.306 71.44C393.136 71.3547 392.933 71.312 392.698 71.312C392.4 71.312 392.112 71.4027 391.834 71.584C391.568 71.7547 391.349 72.0213 391.178 72.384C391.018 72.736 390.938 73.2 390.938 73.776ZM402.787 78L400.963 75.376L399.155 78H396.707L399.747 73.696L396.915 69.664H399.459L401.091 72L402.707 69.664H405.139L402.291 73.68L405.331 78H402.787ZM409.679 71.536V78H407.359V71.536H405.759V69.664H407.359V67.408H409.679V69.664H411.455V71.536H409.679ZM415.531 77.344V75.2C415.797 75.4453 416.096 75.6533 416.427 75.824C416.757 75.9947 417.093 76.128 417.435 76.224C417.787 76.3093 418.117 76.352 418.427 76.352C418.661 76.352 418.869 76.3307 419.051 76.288C419.243 76.2347 419.392 76.1547 419.499 76.048C419.616 75.9413 419.675 75.8027 419.675 75.632C419.675 75.3973 419.573 75.2213 419.371 75.104C419.168 74.976 418.907 74.8693 418.587 74.784C418.277 74.6987 417.947 74.6027 417.595 74.496C417.243 74.3893 416.907 74.2453 416.587 74.064C416.277 73.8827 416.021 73.6373 415.819 73.328C415.627 73.0187 415.531 72.608 415.531 72.096C415.531 71.552 415.675 71.0827 415.963 70.688C416.251 70.2933 416.645 69.9947 417.147 69.792C417.648 69.5787 418.208 69.472 418.827 69.472C419.349 69.472 419.829 69.5307 420.267 69.648C420.704 69.7653 421.104 69.9467 421.467 70.192V72.32C421.093 72.0213 420.693 71.776 420.267 71.584C419.84 71.392 419.392 71.296 418.923 71.296C418.603 71.296 418.331 71.36 418.107 71.488C417.893 71.616 417.787 71.792 417.787 72.016C417.787 72.24 417.888 72.4107 418.091 72.528C418.293 72.6453 418.549 72.7467 418.859 72.832C419.168 72.9173 419.499 73.0133 419.851 73.12C420.213 73.2267 420.549 73.3707 420.859 73.552C421.179 73.7333 421.435 73.984 421.627 74.304C421.829 74.624 421.931 75.0453 421.931 75.568C421.931 76.1333 421.776 76.6133 421.467 77.008C421.168 77.4027 420.757 77.7013 420.235 77.904C419.723 78.096 419.136 78.192 418.475 78.192C417.92 78.192 417.376 78.1173 416.843 77.968C416.32 77.8187 415.883 77.6107 415.531 77.344ZM425.188 73.776C425.188 74.3733 425.29 74.8587 425.492 75.232C425.706 75.5947 425.994 75.8613 426.356 76.032C426.73 76.192 427.151 76.272 427.62 76.272C428.058 76.272 428.463 76.2187 428.836 76.112C429.22 76.0053 429.615 75.8187 430.02 75.552V77.456C429.668 77.712 429.252 77.8987 428.772 78.016C428.292 78.1333 427.775 78.192 427.22 78.192C426.367 78.192 425.62 78.016 424.98 77.664C424.351 77.3013 423.855 76.7947 423.492 76.144C423.14 75.4827 422.964 74.7147 422.964 73.84C422.964 72.9973 423.13 72.2453 423.46 71.584C423.802 70.9227 424.266 70.4053 424.852 70.032C425.45 69.648 426.132 69.456 426.9 69.456C427.508 69.456 428.042 69.5573 428.5 69.76C428.959 69.9627 429.343 70.2453 429.652 70.608C429.972 70.9707 430.207 71.408 430.356 71.92C430.516 72.4213 430.596 72.9813 430.596 73.6V74.336H424.548L424.58 72.848H428.42C428.41 72.6347 428.367 72.4373 428.292 72.256C428.228 72.064 428.132 71.8987 428.004 71.76C427.887 71.6213 427.738 71.5147 427.556 71.44C427.386 71.3547 427.183 71.312 426.948 71.312C426.65 71.312 426.362 71.4027 426.084 71.584C425.818 71.7547 425.599 72.0213 425.428 72.384C425.268 72.736 425.188 73.2 425.188 73.776ZM433.956 73.824C433.956 74.304 434.047 74.7253 434.228 75.088C434.42 75.44 434.681 75.7173 435.012 75.92C435.353 76.112 435.737 76.208 436.164 76.208C436.527 76.208 436.873 76.144 437.204 76.016C437.545 75.8773 437.865 75.68 438.164 75.424V77.536C437.865 77.7707 437.519 77.936 437.124 78.032C436.729 78.1387 436.319 78.192 435.892 78.192C435.071 78.192 434.34 78.0107 433.7 77.648C433.06 77.2853 432.559 76.7787 432.196 76.128C431.833 75.4667 431.652 74.6987 431.652 73.824C431.652 72.9493 431.833 72.1867 432.196 71.536C432.559 70.8747 433.06 70.368 433.7 70.016C434.34 69.6533 435.071 69.472 435.892 69.472C436.319 69.472 436.729 69.5253 437.124 69.632C437.519 69.728 437.865 69.8933 438.164 70.128V72.224C437.865 71.968 437.545 71.776 437.204 71.648C436.873 71.52 436.527 71.456 436.164 71.456C435.737 71.456 435.353 71.5573 435.012 71.76C434.681 71.952 434.42 72.2293 434.228 72.592C434.047 72.944 433.956 73.3547 433.956 73.824ZM443.101 71.536V78H440.781V71.536H439.181V69.664H440.781V67.408H443.101V69.664H444.877V71.536H443.101ZM448.625 69.664V78H446.289V69.664H448.625ZM446.081 67.232C446.081 66.8373 446.215 66.5173 446.481 66.272C446.748 66.016 447.068 65.888 447.441 65.888C447.825 65.888 448.151 66.016 448.417 66.272C448.684 66.5173 448.817 66.8373 448.817 67.232C448.817 67.6053 448.684 67.92 448.417 68.176C448.151 68.432 447.825 68.56 447.441 68.56C447.068 68.56 446.748 68.432 446.481 68.176C446.215 67.92 446.081 67.6053 446.081 67.232ZM450.121 73.824C450.121 72.9707 450.291 72.2187 450.633 71.568C450.985 70.9067 451.465 70.3947 452.073 70.032C452.691 69.6587 453.406 69.472 454.217 69.472C455.027 69.472 455.742 69.6587 456.361 70.032C456.979 70.3947 457.459 70.9067 457.801 71.568C458.153 72.2187 458.329 72.9707 458.329 73.824C458.329 74.6773 458.153 75.4347 457.801 76.096C457.459 76.7573 456.979 77.2747 456.361 77.648C455.742 78.0107 455.027 78.192 454.217 78.192C453.406 78.192 452.691 78.0107 452.073 77.648C451.465 77.2747 450.985 76.7573 450.633 76.096C450.291 75.4347 450.121 74.6773 450.121 73.824ZM452.425 73.824C452.425 74.2933 452.494 74.7147 452.633 75.088C452.771 75.4507 452.974 75.7333 453.241 75.936C453.507 76.1387 453.833 76.24 454.217 76.24C454.611 76.24 454.937 76.1387 455.193 75.936C455.459 75.7333 455.662 75.4507 455.801 75.088C455.939 74.7147 456.009 74.2933 456.009 73.824C456.009 73.3653 455.939 72.9547 455.801 72.592C455.662 72.2293 455.459 71.9467 455.193 71.744C454.937 71.5307 454.611 71.424 454.217 71.424C453.833 71.424 453.507 71.5307 453.241 71.744C452.974 71.9467 452.771 72.2293 452.633 72.592C452.494 72.9547 452.425 73.3653 452.425 73.824ZM459.805 78V69.664H462.141V70.416C462.365 70.1493 462.669 69.9253 463.053 69.744C463.448 69.5627 463.89 69.472 464.381 69.472C465.01 69.472 465.544 69.6 465.981 69.856C466.418 70.112 466.754 70.4693 466.989 70.928C467.224 71.3867 467.341 71.9307 467.341 72.56V78H465.021V73.056C465.021 72.5973 464.904 72.2347 464.669 71.968C464.445 71.6907 464.104 71.552 463.645 71.552C463.41 71.552 463.186 71.6 462.973 71.696C462.77 71.7813 462.594 71.9147 462.445 72.096C462.296 72.2667 462.194 72.4693 462.141 72.704V78H459.805Z" fill="white"/>
</svg>
