<svg width="728" height="750" viewBox="0 0 728 750" fill="none" xmlns="http://www.w3.org/2000/svg">
<rect width="728" height="750" rx="4" fill="black" fill-opacity="0.05"/>
<rect x="222" y="79.5" width="381" height="591" fill="white"/>
<rect x="268" y="117.5" width="52" height="4" fill="#E6E6E6"/>
<rect x="268" y="216.5" width="88" height="4" fill="#E6E6E6"/>
<rect x="268" y="276.5" width="88" height="4" fill="#E6E6E6"/>
<rect x="268" y="336.5" width="88" height="4" fill="#E6E6E6"/>
<rect x="268" y="129.5" width="245" height="12" rx="2" fill="#999999"/>
<rect x="268" y="149.5" width="208" height="12" rx="2" fill="#999999"/>
<rect x="268" y="228.5" width="245" height="24" rx="2" fill="#E6E6E6"/>
<rect x="268" y="288.5" width="245" height="24" rx="2" fill="#E6E6E6"/>
<rect x="268" y="348.5" width="245" height="24" rx="2" fill="#E6E6E6"/>
<rect x="340" y="562.5" width="64" height="24" rx="2" fill="#F2F2F2"/>
<rect x="268" y="562.5" width="64" height="24" rx="2" fill="#4BBF73"/>
<rect x="292" y="419.5" width="224" height="16" rx="2" fill="#E6E6E6"/>
<rect width="16" height="16" rx="1" transform="matrix(-1 0 0 1 284 419.5)" fill="#B3B3B3"/>
<rect width="16" height="16" rx="1" transform="matrix(-1 0 0 1 284 455.5)" fill="#B3B3B3"/>
<rect width="16" height="16" rx="1" transform="matrix(-1 0 0 1 284 491.5)" fill="#B3B3B3"/>
<rect x="288" y="455.5" width="224" height="16" rx="2" fill="#E6E6E6"/>
<rect x="292" y="491.5" width="224" height="16" rx="2" fill="#E6E6E6"/>
<rect x="337" y="624.812" width="74" height="31" rx="15.5" fill="#494949"/>
<path d="M357.037 638.267V639.119H353.645V638.267H357.037ZM354.633 636.699H355.639V642.938C355.639 643.222 355.68 643.435 355.762 643.577C355.848 643.716 355.956 643.81 356.086 643.858C356.22 643.903 356.36 643.926 356.508 643.926C356.619 643.926 356.71 643.92 356.781 643.909C356.852 643.895 356.909 643.884 356.951 643.875L357.156 644.778C357.088 644.804 356.993 644.83 356.87 644.855C356.748 644.884 356.593 644.898 356.406 644.898C356.122 644.898 355.843 644.837 355.571 644.714C355.301 644.592 355.076 644.406 354.897 644.156C354.721 643.906 354.633 643.591 354.633 643.21V636.699ZM361.223 644.949C360.593 644.949 360.049 644.81 359.591 644.531C359.137 644.25 358.786 643.858 358.539 643.355C358.294 642.849 358.172 642.261 358.172 641.591C358.172 640.92 358.294 640.33 358.539 639.818C358.786 639.304 359.13 638.903 359.57 638.616C360.013 638.327 360.53 638.182 361.121 638.182C361.462 638.182 361.799 638.239 362.131 638.352C362.463 638.466 362.766 638.651 363.039 638.906C363.311 639.159 363.529 639.494 363.691 639.912C363.853 640.33 363.934 640.844 363.934 641.455V641.881H358.888V641.011H362.911C362.911 640.642 362.837 640.312 362.689 640.023C362.544 639.733 362.337 639.504 362.067 639.337C361.8 639.169 361.485 639.085 361.121 639.085C360.721 639.085 360.374 639.185 360.081 639.384C359.792 639.58 359.569 639.835 359.412 640.151C359.256 640.466 359.178 640.804 359.178 641.165V641.744C359.178 642.239 359.263 642.658 359.434 643.001C359.607 643.342 359.847 643.602 360.154 643.781C360.461 643.957 360.817 644.045 361.223 644.045C361.488 644.045 361.726 644.009 361.939 643.935C362.155 643.858 362.341 643.744 362.498 643.594C362.654 643.44 362.775 643.25 362.86 643.023L363.831 643.295C363.729 643.625 363.557 643.915 363.316 644.165C363.074 644.412 362.776 644.605 362.421 644.744C362.066 644.881 361.667 644.949 361.223 644.949ZM365.463 644.812V638.267H366.435V639.256H366.503C366.623 638.932 366.838 638.669 367.151 638.467C367.463 638.266 367.816 638.165 368.208 638.165C368.282 638.165 368.374 638.166 368.485 638.169C368.596 638.172 368.679 638.176 368.736 638.182V639.205C368.702 639.196 368.624 639.183 368.502 639.166C368.382 639.146 368.256 639.136 368.123 639.136C367.804 639.136 367.52 639.203 367.27 639.337C367.023 639.467 366.827 639.649 366.682 639.882C366.54 640.112 366.469 640.375 366.469 640.67V644.812H365.463ZM373.185 638.267V639.119H369.793V638.267H373.185ZM370.782 636.699H371.787V642.938C371.787 643.222 371.828 643.435 371.911 643.577C371.996 643.716 372.104 643.81 372.235 643.858C372.368 643.903 372.509 643.926 372.657 643.926C372.767 643.926 372.858 643.92 372.929 643.909C373 643.895 373.057 643.884 373.1 643.875L373.304 644.778C373.236 644.804 373.141 644.83 373.019 644.855C372.897 644.884 372.742 644.898 372.554 644.898C372.27 644.898 371.992 644.837 371.719 644.714C371.449 644.592 371.225 644.406 371.046 644.156C370.87 643.906 370.782 643.591 370.782 643.21V636.699ZM374.698 644.812V638.267H375.703V644.812H374.698ZM375.209 637.176C375.013 637.176 374.844 637.109 374.702 636.976C374.563 636.842 374.493 636.682 374.493 636.494C374.493 636.307 374.563 636.146 374.702 636.013C374.844 635.879 375.013 635.812 375.209 635.812C375.405 635.812 375.573 635.879 375.712 636.013C375.854 636.146 375.925 636.307 375.925 636.494C375.925 636.682 375.854 636.842 375.712 636.976C375.573 637.109 375.405 637.176 375.209 637.176ZM379.472 644.966C379.057 644.966 378.68 644.888 378.342 644.732C378.004 644.572 377.736 644.344 377.537 644.045C377.338 643.744 377.239 643.381 377.239 642.955C377.239 642.58 377.313 642.276 377.46 642.043C377.608 641.807 377.805 641.622 378.053 641.489C378.3 641.355 378.572 641.256 378.871 641.19C379.172 641.122 379.474 641.068 379.778 641.028C380.176 640.977 380.499 640.939 380.746 640.913C380.996 640.885 381.178 640.838 381.291 640.773C381.408 640.707 381.466 640.594 381.466 640.432V640.398C381.466 639.977 381.351 639.651 381.121 639.418C380.893 639.185 380.548 639.068 380.085 639.068C379.605 639.068 379.229 639.173 378.956 639.384C378.683 639.594 378.491 639.818 378.381 640.057L377.426 639.716C377.597 639.318 377.824 639.009 378.108 638.787C378.395 638.562 378.707 638.406 379.045 638.318C379.386 638.227 379.722 638.182 380.051 638.182C380.261 638.182 380.503 638.207 380.776 638.259C381.051 638.307 381.317 638.408 381.572 638.561C381.831 638.714 382.045 638.946 382.216 639.256C382.386 639.565 382.472 639.98 382.472 640.5V644.812H381.466V643.926H381.415C381.347 644.068 381.233 644.22 381.074 644.382C380.915 644.544 380.703 644.682 380.439 644.795C380.175 644.909 379.852 644.966 379.472 644.966ZM379.625 644.062C380.023 644.062 380.358 643.984 380.631 643.828C380.906 643.672 381.114 643.47 381.253 643.223C381.395 642.976 381.466 642.716 381.466 642.443V641.523C381.423 641.574 381.33 641.621 381.185 641.663C381.043 641.703 380.878 641.739 380.69 641.77C380.506 641.798 380.325 641.824 380.149 641.847C379.976 641.866 379.835 641.884 379.727 641.898C379.466 641.932 379.222 641.987 378.994 642.064C378.77 642.138 378.588 642.25 378.449 642.401C378.313 642.548 378.244 642.75 378.244 643.006C378.244 643.355 378.374 643.619 378.632 643.798C378.893 643.974 379.224 644.062 379.625 644.062ZM384.307 644.812V638.267H385.279V639.256H385.347C385.466 638.932 385.682 638.669 385.995 638.467C386.307 638.266 386.659 638.165 387.051 638.165C387.125 638.165 387.218 638.166 387.328 638.169C387.439 638.172 387.523 638.176 387.58 638.182V639.205C387.546 639.196 387.468 639.183 387.346 639.166C387.226 639.146 387.1 639.136 386.966 639.136C386.648 639.136 386.364 639.203 386.114 639.337C385.867 639.467 385.671 639.649 385.526 639.882C385.384 640.112 385.313 640.375 385.313 640.67V644.812H384.307ZM389.619 647.267C389.449 647.267 389.297 647.253 389.163 647.224C389.029 647.199 388.937 647.173 388.886 647.148L389.142 646.261C389.386 646.324 389.602 646.347 389.789 646.33C389.977 646.312 390.143 646.229 390.288 646.078C390.436 645.93 390.571 645.69 390.693 645.358L390.88 644.847L388.46 638.267H389.551L391.358 643.483H391.426L393.233 638.267H394.324L391.545 645.767C391.42 646.105 391.265 646.385 391.081 646.607C390.896 646.831 390.681 646.997 390.437 647.105C390.196 647.213 389.923 647.267 389.619 647.267Z" fill="white"/>
<path d="M372 624.812L372 600.812H374L374 624.812H372Z" fill="#2A2A2A"/>
<path d="M373 595.812C374.105 595.813 379 600.708 379 601.812C379 602.917 374.105 607.812 373 607.812C371.895 607.812 367 602.917 367 601.812C367 600.708 371.895 595.812 373 595.812Z" fill="#2A2A2A"/>
<rect x="145" y="558.812" width="84" height="31" rx="15.5" fill="#494949"/>
<path d="M166.592 578.812V570.085H169.541C170.225 570.085 170.785 570.209 171.22 570.456C171.657 570.7 171.981 571.031 172.191 571.449C172.402 571.866 172.507 572.332 172.507 572.847C172.507 573.361 172.402 573.828 172.191 574.249C171.984 574.669 171.663 575.004 171.228 575.254C170.794 575.501 170.237 575.625 169.558 575.625H167.444V574.688H169.524C169.993 574.688 170.369 574.607 170.653 574.445C170.937 574.283 171.143 574.064 171.271 573.788C171.402 573.51 171.467 573.196 171.467 572.847C171.467 572.497 171.402 572.185 171.271 571.909C171.143 571.634 170.936 571.418 170.649 571.261C170.362 571.102 169.981 571.023 169.507 571.023H167.649V578.812H166.592ZM174.073 578.812V572.267H175.044V573.256H175.113C175.232 572.932 175.448 572.669 175.76 572.467C176.073 572.266 176.425 572.165 176.817 572.165C176.891 572.165 176.983 572.166 177.094 572.169C177.205 572.172 177.289 572.176 177.346 572.182V573.205C177.311 573.196 177.233 573.183 177.111 573.166C176.992 573.146 176.865 573.136 176.732 573.136C176.414 573.136 176.13 573.203 175.88 573.337C175.632 573.467 175.436 573.649 175.292 573.882C175.15 574.112 175.078 574.375 175.078 574.67V578.812H174.073ZM178.538 578.812V572.267H179.543V578.812H178.538ZM179.049 571.176C178.853 571.176 178.684 571.109 178.542 570.976C178.403 570.842 178.333 570.682 178.333 570.494C178.333 570.307 178.403 570.146 178.542 570.013C178.684 569.879 178.853 569.812 179.049 569.812C179.245 569.812 179.413 569.879 179.552 570.013C179.694 570.146 179.765 570.307 179.765 570.494C179.765 570.682 179.694 570.842 179.552 570.976C179.413 571.109 179.245 571.176 179.049 571.176ZM181.385 578.812V572.267H182.357V573.29H182.442C182.578 572.94 182.799 572.669 183.103 572.476C183.407 572.28 183.772 572.182 184.198 572.182C184.63 572.182 184.989 572.28 185.276 572.476C185.566 572.669 185.792 572.94 185.953 573.29H186.022C186.189 572.952 186.441 572.683 186.776 572.484C187.111 572.283 187.513 572.182 187.982 572.182C188.567 572.182 189.046 572.365 189.418 572.732C189.79 573.095 189.976 573.662 189.976 574.432V578.812H188.971V574.432C188.971 573.949 188.838 573.604 188.574 573.396C188.31 573.189 187.999 573.085 187.641 573.085C187.181 573.085 186.824 573.224 186.571 573.503C186.319 573.778 186.192 574.128 186.192 574.551V578.812H185.169V574.33C185.169 573.957 185.049 573.658 184.807 573.43C184.566 573.2 184.255 573.085 183.874 573.085C183.613 573.085 183.368 573.155 183.141 573.294C182.917 573.433 182.735 573.626 182.596 573.874C182.459 574.118 182.391 574.401 182.391 574.722V578.812H181.385ZM193.741 578.966C193.326 578.966 192.95 578.888 192.612 578.732C192.274 578.572 192.005 578.344 191.806 578.045C191.608 577.744 191.508 577.381 191.508 576.955C191.508 576.58 191.582 576.276 191.73 576.043C191.877 575.807 192.075 575.622 192.322 575.489C192.569 575.355 192.842 575.256 193.14 575.19C193.441 575.122 193.744 575.068 194.048 575.028C194.446 574.977 194.768 574.939 195.015 574.913C195.265 574.885 195.447 574.838 195.561 574.773C195.677 574.707 195.735 574.594 195.735 574.432V574.398C195.735 573.977 195.62 573.651 195.39 573.418C195.163 573.185 194.818 573.068 194.355 573.068C193.875 573.068 193.498 573.173 193.225 573.384C192.953 573.594 192.761 573.818 192.65 574.057L191.696 573.716C191.866 573.318 192.093 573.009 192.377 572.787C192.664 572.562 192.977 572.406 193.315 572.318C193.656 572.227 193.991 572.182 194.321 572.182C194.531 572.182 194.772 572.207 195.045 572.259C195.321 572.307 195.586 572.408 195.842 572.561C196.1 572.714 196.315 572.946 196.485 573.256C196.656 573.565 196.741 573.98 196.741 574.5V578.812H195.735V577.926H195.684C195.616 578.068 195.502 578.22 195.343 578.382C195.184 578.544 194.973 578.682 194.708 578.795C194.444 578.909 194.122 578.966 193.741 578.966ZM193.895 578.062C194.292 578.062 194.627 577.984 194.9 577.828C195.176 577.672 195.383 577.47 195.522 577.223C195.664 576.976 195.735 576.716 195.735 576.443V575.523C195.693 575.574 195.599 575.621 195.454 575.663C195.312 575.703 195.147 575.739 194.96 575.77C194.775 575.798 194.595 575.824 194.419 575.847C194.245 575.866 194.105 575.884 193.997 575.898C193.735 575.932 193.491 575.987 193.264 576.064C193.039 576.138 192.858 576.25 192.718 576.401C192.582 576.548 192.514 576.75 192.514 577.006C192.514 577.355 192.643 577.619 192.902 577.798C193.163 577.974 193.494 578.062 193.895 578.062ZM198.577 578.812V572.267H199.548V573.256H199.616C199.736 572.932 199.952 572.669 200.264 572.467C200.577 572.266 200.929 572.165 201.321 572.165C201.395 572.165 201.487 572.166 201.598 572.169C201.709 572.172 201.793 572.176 201.849 572.182V573.205C201.815 573.196 201.737 573.183 201.615 573.166C201.496 573.146 201.369 573.136 201.236 573.136C200.918 573.136 200.634 573.203 200.384 573.337C200.136 573.467 199.94 573.649 199.795 573.882C199.653 574.112 199.582 574.375 199.582 574.67V578.812H198.577ZM203.888 581.267C203.718 581.267 203.566 581.253 203.433 581.224C203.299 581.199 203.207 581.173 203.156 581.148L203.411 580.261C203.656 580.324 203.871 580.347 204.059 580.33C204.246 580.312 204.413 580.229 204.558 580.078C204.705 579.93 204.84 579.69 204.962 579.358L205.15 578.847L202.729 572.267H203.82L205.627 577.483H205.695L207.502 572.267H208.593L205.815 579.767C205.69 580.105 205.535 580.385 205.35 580.607C205.165 580.831 204.951 580.997 204.707 581.105C204.465 581.213 204.192 581.267 203.888 581.267Z" fill="white"/>
<path d="M229 573.812H253V575.812H229V573.812Z" fill="#2A2A2A"/>
<path d="M258 574.812C258 575.917 253.105 580.812 252 580.812C250.895 580.812 246 575.917 246 574.812C246 573.708 250.895 568.812 252 568.812C253.105 568.812 258 573.708 258 574.812Z" fill="#2A2A2A"/>
</svg>
