<svg width="728" height="400" viewBox="0 0 728 400" fill="none" xmlns="http://www.w3.org/2000/svg">
<rect width="728" height="400" rx="4" fill="black" fill-opacity="0.05"/>
<rect x="327.5" y="285" width="74" height="31" rx="15.5" fill="#494949"/>
<path d="M347.537 298.455V299.307H344.145V298.455H347.537ZM345.133 296.886H346.139V303.125C346.139 303.409 346.18 303.622 346.262 303.764C346.348 303.903 346.456 303.997 346.586 304.045C346.72 304.091 346.86 304.114 347.008 304.114C347.119 304.114 347.21 304.108 347.281 304.097C347.352 304.082 347.409 304.071 347.451 304.062L347.656 304.966C347.588 304.991 347.493 305.017 347.37 305.043C347.248 305.071 347.093 305.085 346.906 305.085C346.622 305.085 346.343 305.024 346.071 304.902C345.801 304.78 345.576 304.594 345.397 304.344C345.221 304.094 345.133 303.778 345.133 303.398V296.886ZM351.723 305.136C351.093 305.136 350.549 304.997 350.091 304.719C349.637 304.438 349.286 304.045 349.039 303.543C348.794 303.037 348.672 302.449 348.672 301.778C348.672 301.108 348.794 300.517 349.039 300.006C349.286 299.491 349.63 299.091 350.07 298.804C350.513 298.514 351.03 298.369 351.621 298.369C351.962 298.369 352.299 298.426 352.631 298.54C352.963 298.653 353.266 298.838 353.539 299.094C353.811 299.347 354.029 299.682 354.191 300.099C354.353 300.517 354.434 301.031 354.434 301.642V302.068H349.388V301.199H353.411C353.411 300.83 353.337 300.5 353.189 300.21C353.044 299.92 352.837 299.692 352.567 299.524C352.3 299.357 351.985 299.273 351.621 299.273C351.221 299.273 350.874 299.372 350.581 299.571C350.292 299.767 350.069 300.023 349.912 300.338C349.756 300.653 349.678 300.991 349.678 301.352V301.932C349.678 302.426 349.763 302.845 349.934 303.189C350.107 303.53 350.347 303.79 350.654 303.969C350.961 304.145 351.317 304.233 351.723 304.233C351.988 304.233 352.226 304.196 352.439 304.122C352.655 304.045 352.841 303.932 352.998 303.781C353.154 303.628 353.275 303.437 353.36 303.21L354.331 303.483C354.229 303.812 354.057 304.102 353.816 304.352C353.574 304.599 353.276 304.793 352.921 304.932C352.566 305.068 352.167 305.136 351.723 305.136ZM355.963 305V298.455H356.935V299.443H357.003C357.123 299.119 357.338 298.857 357.651 298.655C357.963 298.453 358.316 298.352 358.708 298.352C358.782 298.352 358.874 298.354 358.985 298.357C359.096 298.359 359.179 298.364 359.236 298.369V299.392C359.202 299.384 359.124 299.371 359.002 299.354C358.882 299.334 358.756 299.324 358.623 299.324C358.304 299.324 358.02 299.391 357.77 299.524C357.523 299.655 357.327 299.837 357.182 300.07C357.04 300.3 356.969 300.562 356.969 300.858V305H355.963ZM363.685 298.455V299.307H360.293V298.455H363.685ZM361.282 296.886H362.287V303.125C362.287 303.409 362.328 303.622 362.411 303.764C362.496 303.903 362.604 303.997 362.735 304.045C362.868 304.091 363.009 304.114 363.157 304.114C363.267 304.114 363.358 304.108 363.429 304.097C363.5 304.082 363.557 304.071 363.6 304.062L363.804 304.966C363.736 304.991 363.641 305.017 363.519 305.043C363.397 305.071 363.242 305.085 363.054 305.085C362.77 305.085 362.492 305.024 362.219 304.902C361.949 304.78 361.725 304.594 361.546 304.344C361.37 304.094 361.282 303.778 361.282 303.398V296.886ZM365.198 305V298.455H366.203V305H365.198ZM365.709 297.364C365.513 297.364 365.344 297.297 365.202 297.163C365.063 297.03 364.993 296.869 364.993 296.682C364.993 296.494 365.063 296.334 365.202 296.2C365.344 296.067 365.513 296 365.709 296C365.905 296 366.073 296.067 366.212 296.2C366.354 296.334 366.425 296.494 366.425 296.682C366.425 296.869 366.354 297.03 366.212 297.163C366.073 297.297 365.905 297.364 365.709 297.364ZM369.972 305.153C369.557 305.153 369.18 305.075 368.842 304.919C368.504 304.76 368.236 304.531 368.037 304.233C367.838 303.932 367.739 303.568 367.739 303.142C367.739 302.767 367.813 302.463 367.96 302.23C368.108 301.994 368.305 301.81 368.553 301.676C368.8 301.543 369.072 301.443 369.371 301.378C369.672 301.31 369.974 301.256 370.278 301.216C370.676 301.165 370.999 301.126 371.246 301.101C371.496 301.072 371.678 301.026 371.791 300.96C371.908 300.895 371.966 300.781 371.966 300.619V300.585C371.966 300.165 371.851 299.838 371.621 299.605C371.393 299.372 371.048 299.256 370.585 299.256C370.105 299.256 369.729 299.361 369.456 299.571C369.183 299.781 368.991 300.006 368.881 300.244L367.926 299.903C368.097 299.506 368.324 299.196 368.608 298.974C368.895 298.75 369.207 298.594 369.545 298.506C369.886 298.415 370.222 298.369 370.551 298.369C370.761 298.369 371.003 298.395 371.276 298.446C371.551 298.494 371.817 298.595 372.072 298.749C372.331 298.902 372.545 299.134 372.716 299.443C372.886 299.753 372.972 300.168 372.972 300.688V305H371.966V304.114H371.915C371.847 304.256 371.733 304.408 371.574 304.57C371.415 304.732 371.203 304.869 370.939 304.983C370.675 305.097 370.352 305.153 369.972 305.153ZM370.125 304.25C370.523 304.25 370.858 304.172 371.131 304.016C371.406 303.859 371.614 303.658 371.753 303.411C371.895 303.163 371.966 302.903 371.966 302.631V301.71C371.923 301.761 371.83 301.808 371.685 301.851C371.543 301.891 371.378 301.926 371.19 301.957C371.006 301.986 370.825 302.011 370.649 302.034C370.476 302.054 370.335 302.071 370.227 302.085C369.966 302.119 369.722 302.175 369.494 302.251C369.27 302.325 369.088 302.437 368.949 302.588C368.813 302.736 368.744 302.937 368.744 303.193C368.744 303.543 368.874 303.807 369.132 303.986C369.393 304.162 369.724 304.25 370.125 304.25ZM374.807 305V298.455H375.779V299.443H375.847C375.966 299.119 376.182 298.857 376.495 298.655C376.807 298.453 377.159 298.352 377.551 298.352C377.625 298.352 377.718 298.354 377.828 298.357C377.939 298.359 378.023 298.364 378.08 298.369V299.392C378.046 299.384 377.968 299.371 377.846 299.354C377.726 299.334 377.6 299.324 377.466 299.324C377.148 299.324 376.864 299.391 376.614 299.524C376.367 299.655 376.171 299.837 376.026 300.07C375.884 300.3 375.813 300.562 375.813 300.858V305H374.807ZM380.119 307.455C379.949 307.455 379.797 307.44 379.663 307.412C379.529 307.386 379.437 307.361 379.386 307.335L379.642 306.449C379.886 306.511 380.102 306.534 380.289 306.517C380.477 306.5 380.643 306.416 380.788 306.266C380.936 306.118 381.071 305.878 381.193 305.545L381.38 305.034L378.96 298.455H380.051L381.858 303.67H381.926L383.733 298.455H384.824L382.045 305.955C381.92 306.293 381.765 306.572 381.581 306.794C381.396 307.018 381.181 307.185 380.937 307.293C380.696 307.401 380.423 307.455 380.119 307.455Z" fill="white"/>
<path d="M362.5 285L362.5 261H364.5L364.5 285H362.5Z" fill="#2A2A2A"/>
<path d="M363.5 256C364.605 256 369.5 260.895 369.5 262C369.5 263.105 364.605 268 363.5 268C362.395 268 357.5 263.105 357.5 262C357.5 260.895 362.395 256 363.5 256Z" fill="#2A2A2A"/>
<rect x="484.5" y="210" width="84" height="31" rx="15.5" fill="#494949"/>
<path d="M505.557 230V221.273H508.506C509.19 221.273 509.75 221.396 510.185 221.643C510.622 221.888 510.946 222.219 511.156 222.636C511.366 223.054 511.472 223.52 511.472 224.034C511.472 224.548 511.366 225.016 511.156 225.436C510.949 225.857 510.628 226.192 510.193 226.442C509.759 226.689 509.202 226.812 508.523 226.812H506.409V225.875H508.489C508.957 225.875 509.334 225.794 509.618 225.632C509.902 225.47 510.108 225.251 510.236 224.976C510.366 224.697 510.432 224.384 510.432 224.034C510.432 223.685 510.366 223.372 510.236 223.097C510.108 222.821 509.901 222.605 509.614 222.449C509.327 222.29 508.946 222.21 508.472 222.21H506.614V230H505.557ZM513.038 230V223.455H514.009V224.443H514.077C514.197 224.119 514.413 223.857 514.725 223.655C515.038 223.453 515.39 223.352 515.782 223.352C515.856 223.352 515.948 223.354 516.059 223.357C516.17 223.359 516.254 223.364 516.31 223.369V224.392C516.276 224.384 516.198 224.371 516.076 224.354C515.957 224.334 515.83 224.324 515.697 224.324C515.379 224.324 515.094 224.391 514.844 224.524C514.597 224.655 514.401 224.837 514.256 225.07C514.114 225.3 514.043 225.562 514.043 225.858V230H513.038ZM517.502 230V223.455H518.508V230H517.502ZM518.014 222.364C517.818 222.364 517.649 222.297 517.507 222.163C517.368 222.03 517.298 221.869 517.298 221.682C517.298 221.494 517.368 221.334 517.507 221.2C517.649 221.067 517.818 221 518.014 221C518.21 221 518.377 221.067 518.517 221.2C518.659 221.334 518.73 221.494 518.73 221.682C518.73 221.869 518.659 222.03 518.517 222.163C518.377 222.297 518.21 222.364 518.014 222.364ZM520.35 230V223.455H521.322V224.477H521.407C521.543 224.128 521.763 223.857 522.067 223.663C522.371 223.467 522.737 223.369 523.163 223.369C523.594 223.369 523.954 223.467 524.241 223.663C524.531 223.857 524.756 224.128 524.918 224.477H524.987C525.154 224.139 525.406 223.871 525.741 223.672C526.076 223.47 526.478 223.369 526.947 223.369C527.532 223.369 528.011 223.553 528.383 223.919C528.755 224.283 528.941 224.849 528.941 225.619V230H527.935V225.619C527.935 225.136 527.803 224.791 527.539 224.584C527.275 224.376 526.964 224.273 526.606 224.273C526.146 224.273 525.789 224.412 525.536 224.69C525.283 224.966 525.157 225.315 525.157 225.739V230H524.134V225.517C524.134 225.145 524.013 224.845 523.772 224.618C523.531 224.388 523.219 224.273 522.839 224.273C522.577 224.273 522.333 224.342 522.106 224.482C521.881 224.621 521.7 224.814 521.56 225.061C521.424 225.305 521.356 225.588 521.356 225.909V230H520.35ZM532.706 230.153C532.291 230.153 531.915 230.075 531.577 229.919C531.239 229.76 530.97 229.531 530.771 229.233C530.572 228.932 530.473 228.568 530.473 228.142C530.473 227.767 530.547 227.463 530.695 227.23C530.842 226.994 531.04 226.81 531.287 226.676C531.534 226.543 531.807 226.443 532.105 226.378C532.406 226.31 532.709 226.256 533.013 226.216C533.411 226.165 533.733 226.126 533.98 226.101C534.23 226.072 534.412 226.026 534.526 225.96C534.642 225.895 534.7 225.781 534.7 225.619V225.585C534.7 225.165 534.585 224.838 534.355 224.605C534.128 224.372 533.783 224.256 533.32 224.256C532.839 224.256 532.463 224.361 532.19 224.571C531.918 224.781 531.726 225.006 531.615 225.244L530.661 224.903C530.831 224.506 531.058 224.196 531.342 223.974C531.629 223.75 531.942 223.594 532.28 223.506C532.621 223.415 532.956 223.369 533.286 223.369C533.496 223.369 533.737 223.395 534.01 223.446C534.286 223.494 534.551 223.595 534.807 223.749C535.065 223.902 535.28 224.134 535.45 224.443C535.621 224.753 535.706 225.168 535.706 225.688V230H534.7V229.114H534.649C534.581 229.256 534.467 229.408 534.308 229.57C534.149 229.732 533.938 229.869 533.673 229.983C533.409 230.097 533.087 230.153 532.706 230.153ZM532.859 229.25C533.257 229.25 533.592 229.172 533.865 229.016C534.141 228.859 534.348 228.658 534.487 228.411C534.629 228.163 534.7 227.903 534.7 227.631V226.71C534.658 226.761 534.564 226.808 534.419 226.851C534.277 226.891 534.112 226.926 533.925 226.957C533.74 226.986 533.56 227.011 533.384 227.034C533.21 227.054 533.07 227.071 532.962 227.085C532.7 227.119 532.456 227.175 532.229 227.251C532.004 227.325 531.822 227.437 531.683 227.588C531.547 227.736 531.479 227.937 531.479 228.193C531.479 228.543 531.608 228.807 531.866 228.986C532.128 229.162 532.459 229.25 532.859 229.25ZM537.542 230V223.455H538.513V224.443H538.581C538.701 224.119 538.917 223.857 539.229 223.655C539.542 223.453 539.894 223.352 540.286 223.352C540.36 223.352 540.452 223.354 540.563 223.357C540.674 223.359 540.757 223.364 540.814 223.369V224.392C540.78 224.384 540.702 224.371 540.58 224.354C540.461 224.334 540.334 224.324 540.201 224.324C539.882 224.324 539.598 224.391 539.348 224.524C539.101 224.655 538.905 224.837 538.76 225.07C538.618 225.3 538.547 225.562 538.547 225.858V230H537.542ZM542.853 232.455C542.683 232.455 542.531 232.44 542.397 232.412C542.264 232.386 542.172 232.361 542.12 232.335L542.376 231.449C542.62 231.511 542.836 231.534 543.024 231.517C543.211 231.5 543.377 231.416 543.522 231.266C543.67 231.118 543.805 230.878 543.927 230.545L544.115 230.034L541.694 223.455H542.785L544.592 228.67H544.66L546.467 223.455H547.558L544.779 230.955C544.654 231.293 544.5 231.572 544.315 231.794C544.13 232.018 543.916 232.185 543.672 232.293C543.43 232.401 543.157 232.455 542.853 232.455Z" fill="white"/>
<path d="M484.5 225H460.5V227H484.5V225Z" fill="#2A2A2A"/>
<path d="M455.5 226C455.5 227.105 460.395 232 461.5 232C462.605 232 467.5 227.105 467.5 226C467.5 224.895 462.605 220 461.5 220C460.395 220 455.5 224.895 455.5 226Z" fill="#2A2A2A"/>
<rect x="179.5" y="84" width="264" height="164" fill="white"/>
<rect x="199.5" y="108" width="52" height="2" fill="#E6E6E6"/>
<rect x="199.5" y="120" width="149" height="16" rx="2" fill="#CCCCCC"/>
<rect x="343.5" y="217" width="36" height="16" rx="2" fill="#F2F2F2"/>
<rect x="387.5" y="217" width="36" height="16" rx="2" fill="#4BBF73"/>
<rect x="199.5" y="152" width="224" height="8" rx="4" fill="#E6E6E6"/>
<rect x="199.5" y="170" width="224" height="8" rx="4" fill="#E6E6E6"/>
<rect x="199.5" y="188" width="224" height="8" rx="4" fill="#E6E6E6"/>
</svg>
