<svg width="711" height="144" viewBox="0 0 711 144" fill="none" xmlns="http://www.w3.org/2000/svg">
<rect x="298" y="50" width="135" height="44" rx="2" fill="#0D7680"/>
<path fill-rule="evenodd" clip-rule="evenodd" d="M318.107 73.8249C318.044 73.8878 317.999 73.9664 317.976 74.0525L316.215 80.8027C316.119 81.1723 316.456 81.5091 316.825 81.4127L323.575 79.652C323.661 79.6295 323.74 79.5846 323.802 79.5217L335.268 68.0557C335.463 67.8608 335.464 67.5451 335.269 67.3496L330.305 62.3555C330.11 62.1594 329.792 62.1588 329.597 62.3542L318.107 73.8249ZM322.772 77.7235C322.709 77.7864 322.631 77.8314 322.545 77.8538L318.797 78.8316L319.774 75.0836C319.797 74.9975 319.842 74.9189 319.905 74.856L327.162 67.6111L330.023 70.4725L322.772 77.7235ZM331.437 69.0583L332.797 67.699L329.946 64.8316L328.577 66.1981L331.437 69.0583Z" fill="white"/>
<path d="M347.596 66.512H355.404V68.592H349.964V71.104H354.908V73.168H349.964V75.92H355.404V78H347.596V66.512ZM362.33 77.312C362.202 77.4613 362.031 77.6053 361.818 77.744C361.604 77.872 361.359 77.9787 361.082 78.064C360.804 78.1493 360.516 78.192 360.218 78.192C359.62 78.192 359.087 78.08 358.618 77.856C358.148 77.6213 357.748 77.3067 357.418 76.912C357.087 76.5067 356.836 76.0427 356.666 75.52C356.495 74.9867 356.41 74.4213 356.41 73.824C356.41 73.2267 356.495 72.6667 356.666 72.144C356.836 71.6107 357.087 71.1467 357.418 70.752C357.748 70.3573 358.148 70.048 358.618 69.824C359.087 69.5893 359.62 69.472 360.218 69.472C360.527 69.472 360.815 69.5147 361.082 69.6C361.359 69.6747 361.604 69.7813 361.818 69.92C362.031 70.0587 362.202 70.2027 362.33 70.352V65.84H364.65V78H362.33V77.312ZM362.33 75.2V72.464C362.191 72.176 361.978 71.9413 361.69 71.76C361.402 71.5787 361.087 71.488 360.746 71.488C360.426 71.488 360.143 71.5467 359.898 71.664C359.652 71.7813 359.444 71.9467 359.274 72.16C359.103 72.3627 358.97 72.608 358.874 72.896C358.778 73.184 358.73 73.4933 358.73 73.824C358.73 74.1653 358.778 74.48 358.874 74.768C358.97 75.0453 359.103 75.2907 359.274 75.504C359.444 75.7173 359.652 75.8827 359.898 76C360.143 76.1173 360.426 76.176 360.746 76.176C361.087 76.176 361.402 76.0853 361.69 75.904C361.978 75.7227 362.191 75.488 362.33 75.2ZM369.008 69.664V78H366.672V69.664H369.008ZM366.464 67.232C366.464 66.8373 366.597 66.5173 366.864 66.272C367.131 66.016 367.451 65.888 367.824 65.888C368.208 65.888 368.533 66.016 368.8 66.272C369.067 66.5173 369.2 66.8373 369.2 67.232C369.2 67.6053 369.067 67.92 368.8 68.176C368.533 68.432 368.208 68.56 367.824 68.56C367.451 68.56 367.131 68.432 366.864 68.176C366.597 67.92 366.464 67.6053 366.464 67.232ZM374.327 71.536V78H372.007V71.536H370.407V69.664H372.007V67.408H374.327V69.664H376.103V71.536H374.327Z" fill="white"/>
<path d="M396 73V80.5C396 80.7761 396.224 81 396.5 81H397.5C397.776 81 398 80.7761 398 80.5V73H405.5C405.776 73 406 72.7761 406 72.5V71.5C406 71.2239 405.776 71 405.5 71H398V63.5C398 63.2239 397.776 63 397.5 63H396.5C396.224 63 396 63.2239 396 63.5V71H388.5C388.224 71 388 71.2239 388 71.5V72.5C388 72.7761 388.224 73 388.5 73H396Z" fill="white"/>
</svg>
