<svg width="711" height="144" viewBox="0 0 711 144" fill="none" xmlns="http://www.w3.org/2000/svg">
<rect x="281.5" y="50" width="80" height="44" rx="2" fill="#262A33"/>
<path d="M302.081 78V66.512H304.481V75.92H309.841V78H302.081ZM314.557 76.496C314.909 76.496 315.224 76.4267 315.501 76.288C315.789 76.1387 315.986 75.952 316.093 75.728V75.104C315.986 74.8907 315.789 74.72 315.501 74.592C315.224 74.464 314.909 74.4 314.557 74.4C314.301 74.4 314.061 74.4373 313.837 74.512C313.613 74.5867 313.432 74.704 313.293 74.864C313.165 75.0133 313.101 75.2053 313.101 75.44C313.101 75.6747 313.165 75.872 313.293 76.032C313.432 76.1813 313.613 76.2987 313.837 76.384C314.061 76.4587 314.301 76.496 314.557 76.496ZM316.093 72.736C316.093 72.3733 315.938 72.0693 315.629 71.824C315.32 71.5787 314.845 71.456 314.205 71.456C313.778 71.456 313.373 71.52 312.989 71.648C312.605 71.7653 312.248 71.9307 311.917 72.144V70.144C312.205 69.952 312.6 69.792 313.101 69.664C313.613 69.536 314.146 69.472 314.701 69.472C315.48 69.472 316.136 69.6 316.669 69.856C317.202 70.1013 317.608 70.464 317.885 70.944C318.173 71.4133 318.317 71.9893 318.317 72.672V78H316.093V77.568C315.933 77.7067 315.672 77.8453 315.309 77.984C314.946 78.112 314.536 78.176 314.077 78.176C313.512 78.176 312.989 78.064 312.509 77.84C312.029 77.616 311.65 77.3013 311.373 76.896C311.096 76.4907 310.957 76.0107 310.957 75.456C310.957 74.9013 311.096 74.4213 311.373 74.016C311.65 73.6107 312.029 73.3013 312.509 73.088C312.989 72.864 313.512 72.752 314.077 72.752C314.536 72.752 314.946 72.8107 315.309 72.928C315.682 73.0453 315.944 73.1733 316.093 73.312V72.736ZM322.571 77.312V78H320.235V65.84H322.571V70.352C322.688 70.2027 322.853 70.064 323.067 69.936C323.291 69.7973 323.536 69.6853 323.803 69.6C324.08 69.5147 324.373 69.472 324.683 69.472C325.269 69.472 325.797 69.5893 326.267 69.824C326.736 70.048 327.136 70.3573 327.467 70.752C327.808 71.1467 328.064 71.6107 328.235 72.144C328.405 72.6667 328.491 73.2267 328.491 73.824C328.491 74.4213 328.405 74.9867 328.235 75.52C328.064 76.0427 327.808 76.5067 327.467 76.912C327.136 77.3067 326.736 77.6213 326.267 77.856C325.797 78.08 325.269 78.192 324.683 78.192C324.373 78.192 324.08 78.1493 323.803 78.064C323.536 77.9787 323.296 77.872 323.083 77.744C322.869 77.6053 322.699 77.4613 322.571 77.312ZM322.571 75.2C322.699 75.488 322.907 75.7227 323.195 75.904C323.493 76.0853 323.813 76.176 324.155 76.176C324.464 76.176 324.741 76.1173 324.987 76C325.243 75.8827 325.456 75.7173 325.627 75.504C325.797 75.2907 325.925 75.0453 326.011 74.768C326.107 74.48 326.155 74.1653 326.155 73.824C326.155 73.4933 326.107 73.184 326.011 72.896C325.925 72.608 325.797 72.3627 325.627 72.16C325.456 71.9467 325.243 71.7813 324.987 71.664C324.741 71.5467 324.464 71.488 324.155 71.488C323.813 71.488 323.493 71.5787 323.195 71.76C322.907 71.9413 322.699 72.176 322.571 72.464V75.2ZM331.759 73.776C331.759 74.3733 331.86 74.8587 332.063 75.232C332.276 75.5947 332.564 75.8613 332.927 76.032C333.3 76.192 333.721 76.272 334.191 76.272C334.628 76.272 335.033 76.2187 335.407 76.112C335.791 76.0053 336.185 75.8187 336.591 75.552V77.456C336.239 77.712 335.823 77.8987 335.343 78.016C334.863 78.1333 334.345 78.192 333.791 78.192C332.937 78.192 332.191 78.016 331.551 77.664C330.921 77.3013 330.425 76.7947 330.063 76.144C329.711 75.4827 329.535 74.7147 329.535 73.84C329.535 72.9973 329.7 72.2453 330.031 71.584C330.372 70.9227 330.836 70.4053 331.423 70.032C332.02 69.648 332.703 69.456 333.471 69.456C334.079 69.456 334.612 69.5573 335.071 69.76C335.529 69.9627 335.913 70.2453 336.223 70.608C336.543 70.9707 336.777 71.408 336.927 71.92C337.087 72.4213 337.167 72.9813 337.167 73.6V74.336H331.119L331.151 72.848H334.991C334.98 72.6347 334.937 72.4373 334.863 72.256C334.799 72.064 334.703 71.8987 334.575 71.76C334.457 71.6213 334.308 71.5147 334.127 71.44C333.956 71.3547 333.753 71.312 333.519 71.312C333.22 71.312 332.932 71.4027 332.655 71.584C332.388 71.7547 332.169 72.0213 331.999 72.384C331.839 72.736 331.759 73.2 331.759 73.776ZM341.008 65.84V78H338.672V65.84H341.008Z" fill="white"/>
<rect x="370" y="50.5" width="79" height="43" rx="1.5" stroke="#262A33"/>
<path d="M390.081 78V66.512H392.481V75.92H397.841V78H390.081ZM402.557 76.496C402.909 76.496 403.224 76.4267 403.501 76.288C403.789 76.1387 403.986 75.952 404.093 75.728V75.104C403.986 74.8907 403.789 74.72 403.501 74.592C403.224 74.464 402.909 74.4 402.557 74.4C402.301 74.4 402.061 74.4373 401.837 74.512C401.613 74.5867 401.432 74.704 401.293 74.864C401.165 75.0133 401.101 75.2053 401.101 75.44C401.101 75.6747 401.165 75.872 401.293 76.032C401.432 76.1813 401.613 76.2987 401.837 76.384C402.061 76.4587 402.301 76.496 402.557 76.496ZM404.093 72.736C404.093 72.3733 403.938 72.0693 403.629 71.824C403.32 71.5787 402.845 71.456 402.205 71.456C401.778 71.456 401.373 71.52 400.989 71.648C400.605 71.7653 400.248 71.9307 399.917 72.144V70.144C400.205 69.952 400.6 69.792 401.101 69.664C401.613 69.536 402.146 69.472 402.701 69.472C403.48 69.472 404.136 69.6 404.669 69.856C405.202 70.1013 405.608 70.464 405.885 70.944C406.173 71.4133 406.317 71.9893 406.317 72.672V78H404.093V77.568C403.933 77.7067 403.672 77.8453 403.309 77.984C402.946 78.112 402.536 78.176 402.077 78.176C401.512 78.176 400.989 78.064 400.509 77.84C400.029 77.616 399.65 77.3013 399.373 76.896C399.096 76.4907 398.957 76.0107 398.957 75.456C398.957 74.9013 399.096 74.4213 399.373 74.016C399.65 73.6107 400.029 73.3013 400.509 73.088C400.989 72.864 401.512 72.752 402.077 72.752C402.536 72.752 402.946 72.8107 403.309 72.928C403.682 73.0453 403.944 73.1733 404.093 73.312V72.736ZM410.571 77.312V78H408.235V65.84H410.571V70.352C410.688 70.2027 410.853 70.064 411.067 69.936C411.291 69.7973 411.536 69.6853 411.803 69.6C412.08 69.5147 412.373 69.472 412.683 69.472C413.269 69.472 413.797 69.5893 414.267 69.824C414.736 70.048 415.136 70.3573 415.467 70.752C415.808 71.1467 416.064 71.6107 416.235 72.144C416.405 72.6667 416.491 73.2267 416.491 73.824C416.491 74.4213 416.405 74.9867 416.235 75.52C416.064 76.0427 415.808 76.5067 415.467 76.912C415.136 77.3067 414.736 77.6213 414.267 77.856C413.797 78.08 413.269 78.192 412.683 78.192C412.373 78.192 412.08 78.1493 411.803 78.064C411.536 77.9787 411.296 77.872 411.083 77.744C410.869 77.6053 410.699 77.4613 410.571 77.312ZM410.571 75.2C410.699 75.488 410.907 75.7227 411.195 75.904C411.493 76.0853 411.813 76.176 412.155 76.176C412.464 76.176 412.741 76.1173 412.987 76C413.243 75.8827 413.456 75.7173 413.627 75.504C413.797 75.2907 413.925 75.0453 414.011 74.768C414.107 74.48 414.155 74.1653 414.155 73.824C414.155 73.4933 414.107 73.184 414.011 72.896C413.925 72.608 413.797 72.3627 413.627 72.16C413.456 71.9467 413.243 71.7813 412.987 71.664C412.741 71.5467 412.464 71.488 412.155 71.488C411.813 71.488 411.493 71.5787 411.195 71.76C410.907 71.9413 410.699 72.176 410.571 72.464V75.2ZM419.759 73.776C419.759 74.3733 419.86 74.8587 420.063 75.232C420.276 75.5947 420.564 75.8613 420.927 76.032C421.3 76.192 421.721 76.272 422.191 76.272C422.628 76.272 423.033 76.2187 423.407 76.112C423.791 76.0053 424.185 75.8187 424.591 75.552V77.456C424.239 77.712 423.823 77.8987 423.343 78.016C422.863 78.1333 422.345 78.192 421.791 78.192C420.937 78.192 420.191 78.016 419.551 77.664C418.921 77.3013 418.425 76.7947 418.063 76.144C417.711 75.4827 417.535 74.7147 417.535 73.84C417.535 72.9973 417.7 72.2453 418.031 71.584C418.372 70.9227 418.836 70.4053 419.423 70.032C420.02 69.648 420.703 69.456 421.471 69.456C422.079 69.456 422.612 69.5573 423.071 69.76C423.529 69.9627 423.913 70.2453 424.223 70.608C424.543 70.9707 424.777 71.408 424.927 71.92C425.087 72.4213 425.167 72.9813 425.167 73.6V74.336H419.119L419.151 72.848H422.991C422.98 72.6347 422.937 72.4373 422.863 72.256C422.799 72.064 422.703 71.8987 422.575 71.76C422.457 71.6213 422.308 71.5147 422.127 71.44C421.956 71.3547 421.753 71.312 421.519 71.312C421.22 71.312 420.932 71.4027 420.655 71.584C420.388 71.7547 420.169 72.0213 419.999 72.384C419.839 72.736 419.759 73.2 419.759 73.776ZM429.008 65.84V78H426.672V65.84H429.008Z" fill="#262A33"/>
</svg>
