<svg width="711" height="424" viewBox="0 0 711 424" fill="none" xmlns="http://www.w3.org/2000/svg">
<path d="M229.052 106.365H227.442L223.634 96.3132H225.412L228.268 104.153L231.124 96.3132H232.86L229.052 106.365ZM235.706 99.1132V106.365H234.068V99.1132H235.706ZM233.872 96.9012C233.872 96.6212 233.97 96.3832 234.166 96.1872C234.362 95.9912 234.6 95.8932 234.88 95.8932C235.16 95.8932 235.398 95.9912 235.594 96.1872C235.79 96.3832 235.888 96.6212 235.888 96.9012C235.888 97.1812 235.79 97.4192 235.594 97.6152C235.398 97.8112 235.16 97.9092 234.88 97.9092C234.6 97.9092 234.362 97.8112 234.166 97.6152C233.97 97.4192 233.872 97.1812 233.872 96.9012ZM238.824 102.739C238.824 103.299 238.922 103.757 239.118 104.111C239.323 104.457 239.594 104.713 239.93 104.881C240.275 105.04 240.653 105.119 241.064 105.119C241.474 105.119 241.838 105.068 242.156 104.965C242.473 104.853 242.804 104.681 243.15 104.447V105.889C242.832 106.123 242.473 106.286 242.072 106.379C241.67 106.482 241.241 106.533 240.784 106.533C240.074 106.533 239.454 106.375 238.922 106.057C238.39 105.74 237.974 105.297 237.676 104.727C237.377 104.149 237.228 103.486 237.228 102.739C237.228 102.011 237.368 101.363 237.648 100.793C237.937 100.224 238.334 99.7759 238.838 99.4492C239.342 99.1132 239.92 98.9452 240.574 98.9452C241.078 98.9452 241.521 99.0339 241.904 99.2112C242.286 99.3792 242.608 99.6219 242.87 99.9392C243.131 100.247 243.327 100.621 243.458 101.059C243.588 101.498 243.654 101.983 243.654 102.515V103.089H238.418L238.46 101.871H242.058C242.048 101.657 242.011 101.456 241.946 101.269C241.88 101.083 241.782 100.919 241.652 100.779C241.53 100.63 241.381 100.518 241.204 100.443C241.026 100.359 240.816 100.317 240.574 100.317C240.275 100.317 239.99 100.406 239.72 100.583C239.449 100.751 239.23 101.013 239.062 101.367C238.903 101.722 238.824 102.179 238.824 102.739ZM248.644 99.1132H250.128L251.43 104.307L252.858 99.1132H254.412L252.298 106.365H250.688L249.358 101.255L248.028 106.365H246.418L244.304 99.1132H245.914L247.328 104.307L248.644 99.1132Z" fill="black"/>
<path d="M271 80.3652C271 79.2607 271.895 78.3652 273 78.3652H383V122.365H273C271.895 122.365 271 121.47 271 120.365V80.3652Z" fill="#0D7680"/>
<path d="M298 93.3652H292V99.3652H298V93.3652Z" fill="white"/>
<path d="M306 93.3652H300V99.3652H306V93.3652Z" fill="white"/>
<path d="M292 101.365H298V107.365H292V101.365Z" fill="white"/>
<path d="M306 101.365H300V107.365H306V101.365Z" fill="white"/>
<path d="M319.691 96.9572V94.8772H329.499V96.9572H325.787V106.365H323.403V96.9572H319.691ZM328.457 102.189C328.457 101.336 328.627 100.584 328.969 99.9332C329.321 99.2719 329.801 98.7599 330.409 98.3972C331.027 98.0239 331.742 97.8372 332.553 97.8372C333.363 97.8372 334.078 98.0239 334.697 98.3972C335.315 98.7599 335.795 99.2719 336.137 99.9332C336.489 100.584 336.665 101.336 336.665 102.189C336.665 103.043 336.489 103.8 336.137 104.461C335.795 105.123 335.315 105.64 334.697 106.013C334.078 106.376 333.363 106.557 332.553 106.557C331.742 106.557 331.027 106.376 330.409 106.013C329.801 105.64 329.321 105.123 328.969 104.461C328.627 103.8 328.457 103.043 328.457 102.189ZM330.761 102.189C330.761 102.659 330.83 103.08 330.969 103.453C331.107 103.816 331.31 104.099 331.577 104.301C331.843 104.504 332.169 104.605 332.553 104.605C332.947 104.605 333.273 104.504 333.529 104.301C333.795 104.099 333.998 103.816 334.137 103.453C334.275 103.08 334.345 102.659 334.345 102.189C334.345 101.731 334.275 101.32 334.137 100.957C333.998 100.595 333.795 100.312 333.529 100.109C333.273 99.8959 332.947 99.7892 332.553 99.7892C332.169 99.7892 331.843 99.8959 331.577 100.109C331.31 100.312 331.107 100.595 330.969 100.957C330.83 101.32 330.761 101.731 330.761 102.189ZM340.477 100.829V103.565C340.605 103.853 340.813 104.088 341.101 104.269C341.399 104.451 341.719 104.541 342.061 104.541C342.37 104.541 342.647 104.483 342.893 104.365C343.149 104.248 343.362 104.083 343.533 103.869C343.703 103.656 343.831 103.411 343.917 103.133C344.013 102.845 344.061 102.531 344.061 102.189C344.061 101.859 344.013 101.549 343.917 101.261C343.831 100.973 343.703 100.728 343.533 100.525C343.362 100.312 343.149 100.147 342.893 100.029C342.647 99.9119 342.37 99.8532 342.061 99.8532C341.719 99.8532 341.399 99.9439 341.101 100.125C340.813 100.307 340.605 100.541 340.477 100.829ZM340.477 105.677V109.485H338.141V98.0292H340.477V98.7172C340.594 98.5679 340.759 98.4292 340.973 98.3012C341.197 98.1626 341.442 98.0506 341.709 97.9652C341.986 97.8799 342.279 97.8372 342.589 97.8372C343.175 97.8372 343.703 97.9546 344.173 98.1892C344.642 98.4132 345.042 98.7226 345.373 99.1172C345.714 99.5119 345.97 99.9759 346.141 100.509C346.311 101.032 346.397 101.592 346.397 102.189C346.397 102.787 346.311 103.352 346.141 103.885C345.97 104.408 345.714 104.872 345.373 105.277C345.042 105.672 344.642 105.987 344.173 106.221C343.703 106.445 343.175 106.557 342.589 106.557C342.279 106.557 341.986 106.515 341.709 106.429C341.442 106.344 341.202 106.237 340.989 106.109C340.775 105.971 340.605 105.827 340.477 105.677ZM350.211 98.0292V106.365H347.875V98.0292H350.211ZM347.667 95.5972C347.667 95.2026 347.801 94.8826 348.067 94.6372C348.334 94.3812 348.654 94.2532 349.027 94.2532C349.411 94.2532 349.737 94.3812 350.003 94.6372C350.27 94.8826 350.403 95.2026 350.403 95.5972C350.403 95.9706 350.27 96.2852 350.003 96.5412C349.737 96.7972 349.411 96.9252 349.027 96.9252C348.654 96.9252 348.334 96.7972 348.067 96.5412C347.801 96.2852 347.667 95.9706 347.667 95.5972ZM354.011 102.189C354.011 102.669 354.101 103.091 354.283 103.453C354.475 103.805 354.736 104.083 355.067 104.285C355.408 104.477 355.792 104.573 356.219 104.573C356.581 104.573 356.928 104.509 357.259 104.381C357.6 104.243 357.92 104.045 358.219 103.789V105.901C357.92 106.136 357.573 106.301 357.179 106.397C356.784 106.504 356.373 106.557 355.947 106.557C355.125 106.557 354.395 106.376 353.755 106.013C353.115 105.651 352.613 105.144 352.251 104.493C351.888 103.832 351.707 103.064 351.707 102.189C351.707 101.315 351.888 100.552 352.251 99.9012C352.613 99.2399 353.115 98.7332 353.755 98.3812C354.395 98.0186 355.125 97.8372 355.947 97.8372C356.373 97.8372 356.784 97.8906 357.179 97.9972C357.573 98.0932 357.92 98.2586 358.219 98.4932V100.589C357.92 100.333 357.6 100.141 357.259 100.013C356.928 99.8852 356.581 99.8212 356.219 99.8212C355.792 99.8212 355.408 99.9226 355.067 100.125C354.736 100.317 354.475 100.595 354.283 100.957C354.101 101.309 354.011 101.72 354.011 102.189Z" fill="white"/>
<rect x="383.5" y="78.8652" width="136" height="43" rx="1.5" stroke="#0D7680"/>
<path d="M403 95.3652H405V97.3652H403V95.3652Z" fill="#0D7680"/>
<path d="M419 95.3652H407V97.3652H419V95.3652Z" fill="#0D7680"/>
<path d="M405 99.3652H403V101.365H405V99.3652Z" fill="#0D7680"/>
<path d="M403 103.365H405V105.365H403V103.365Z" fill="#0D7680"/>
<path d="M407 99.3652H419V101.365H407V99.3652Z" fill="#0D7680"/>
<path d="M419 103.365H407V105.365H419V103.365Z" fill="#0D7680"/>
<path d="M431.863 96.9572V94.8772H441.671V96.9572H437.959V106.365H435.575V96.9572H431.863ZM445.321 98.0292V106.365H442.985V98.0292H445.321ZM442.777 95.5972C442.777 95.2026 442.91 94.8826 443.177 94.6372C443.443 94.3812 443.763 94.2532 444.137 94.2532C444.521 94.2532 444.846 94.3812 445.113 94.6372C445.379 94.8826 445.513 95.2026 445.513 95.5972C445.513 95.9706 445.379 96.2852 445.113 96.5412C444.846 96.7972 444.521 96.9252 444.137 96.9252C443.763 96.9252 443.443 96.7972 443.177 96.5412C442.91 96.2852 442.777 95.9706 442.777 95.5972ZM454.032 98.8932C454.309 98.5946 454.656 98.3439 455.072 98.1412C455.488 97.9386 455.984 97.8372 456.56 97.8372C457.136 97.8372 457.627 97.9652 458.032 98.2212C458.448 98.4666 458.763 98.8239 458.976 99.2932C459.2 99.7519 459.312 100.296 459.312 100.925V106.365H456.976V101.405C456.976 100.957 456.88 100.6 456.688 100.333C456.496 100.056 456.197 99.9172 455.792 99.9172C455.493 99.9172 455.221 100.008 454.976 100.189C454.731 100.371 454.571 100.637 454.496 100.989V106.365H452.16V101.405C452.16 100.957 452.064 100.6 451.872 100.333C451.68 100.056 451.381 99.9172 450.976 99.9172C450.677 99.9172 450.405 100.008 450.16 100.189C449.915 100.371 449.755 100.637 449.68 100.989V106.365H447.344V98.0292H449.68V98.7172C449.872 98.4506 450.155 98.2372 450.528 98.0772C450.901 97.9172 451.317 97.8372 451.776 97.8372C452.277 97.8372 452.72 97.9386 453.104 98.1412C453.488 98.3332 453.797 98.5839 454.032 98.8932ZM462.931 102.141C462.931 102.739 463.032 103.224 463.235 103.597C463.448 103.96 463.736 104.227 464.099 104.397C464.472 104.557 464.893 104.637 465.363 104.637C465.8 104.637 466.205 104.584 466.579 104.477C466.963 104.371 467.357 104.184 467.763 103.917V105.821C467.411 106.077 466.995 106.264 466.515 106.381C466.035 106.499 465.517 106.557 464.963 106.557C464.109 106.557 463.363 106.381 462.723 106.029C462.093 105.667 461.597 105.16 461.235 104.509C460.883 103.848 460.707 103.08 460.707 102.205C460.707 101.363 460.872 100.611 461.203 99.9492C461.544 99.2879 462.008 98.7706 462.595 98.3972C463.192 98.0132 463.875 97.8212 464.643 97.8212C465.251 97.8212 465.784 97.9226 466.243 98.1252C466.701 98.3279 467.085 98.6106 467.395 98.9732C467.715 99.3359 467.949 99.7732 468.099 100.285C468.259 100.787 468.339 101.347 468.339 101.965V102.701H462.291L462.323 101.213H466.163C466.152 101 466.109 100.803 466.035 100.621C465.971 100.429 465.875 100.264 465.747 100.125C465.629 99.9866 465.48 99.8799 465.299 99.8052C465.128 99.7199 464.925 99.6772 464.691 99.6772C464.392 99.6772 464.104 99.7679 463.827 99.9492C463.56 100.12 463.341 100.387 463.171 100.749C463.011 101.101 462.931 101.565 462.931 102.141ZM472.18 94.2052V106.365H469.844V94.2052H472.18ZM476.539 98.0292V106.365H474.203V98.0292H476.539ZM473.995 95.5972C473.995 95.2026 474.129 94.8826 474.395 94.6372C474.662 94.3812 474.982 94.2532 475.355 94.2532C475.739 94.2532 476.065 94.3812 476.331 94.6372C476.598 94.8826 476.731 95.2026 476.731 95.5972C476.731 95.9706 476.598 96.2852 476.331 96.5412C476.065 96.7972 475.739 96.9252 475.355 96.9252C474.982 96.9252 474.662 96.7972 474.395 96.5412C474.129 96.2852 473.995 95.9706 473.995 95.5972ZM478.563 106.365V98.0292H480.899V98.7812C481.123 98.5146 481.427 98.2906 481.811 98.1092C482.205 97.9279 482.648 97.8372 483.139 97.8372C483.768 97.8372 484.301 97.9652 484.739 98.2212C485.176 98.4772 485.512 98.8346 485.747 99.2932C485.981 99.7519 486.099 100.296 486.099 100.925V106.365H483.779V101.421C483.779 100.963 483.661 100.6 483.427 100.333C483.203 100.056 482.861 99.9172 482.403 99.9172C482.168 99.9172 481.944 99.9652 481.731 100.061C481.528 100.147 481.352 100.28 481.203 100.461C481.053 100.632 480.952 100.835 480.899 101.069V106.365H478.563ZM489.712 102.141C489.712 102.739 489.813 103.224 490.016 103.597C490.229 103.96 490.517 104.227 490.88 104.397C491.253 104.557 491.674 104.637 492.144 104.637C492.581 104.637 492.986 104.584 493.36 104.477C493.744 104.371 494.138 104.184 494.544 103.917V105.821C494.192 106.077 493.776 106.264 493.296 106.381C492.816 106.499 492.298 106.557 491.744 106.557C490.89 106.557 490.144 106.381 489.504 106.029C488.874 105.667 488.378 105.16 488.016 104.509C487.664 103.848 487.488 103.08 487.488 102.205C487.488 101.363 487.653 100.611 487.984 99.9492C488.325 99.2879 488.789 98.7706 489.376 98.3972C489.973 98.0132 490.656 97.8212 491.424 97.8212C492.032 97.8212 492.565 97.9226 493.024 98.1252C493.482 98.3279 493.866 98.6106 494.176 98.9732C494.496 99.3359 494.73 99.7732 494.88 100.285C495.04 100.787 495.12 101.347 495.12 101.965V102.701H489.072L489.104 101.213H492.944C492.933 101 492.89 100.803 492.816 100.621C492.752 100.429 492.656 100.264 492.528 100.125C492.41 99.9866 492.261 99.8799 492.08 99.8052C491.909 99.7199 491.706 99.6772 491.472 99.6772C491.173 99.6772 490.885 99.7679 490.608 99.9492C490.341 100.12 490.122 100.387 489.952 100.749C489.792 101.101 489.712 101.565 489.712 102.141Z" fill="#0D7680"/>
<rect x="211.5" y="70.8652" width="56" height="55" stroke="#990F3D" stroke-dasharray="2 2"/>
<path d="M239.5 126.865C239.5 126.589 239.724 126.365 240 126.365C240.276 126.365 240.5 126.589 240.5 126.865V158.365H239.5V126.865Z" fill="#990F3D"/>
<path d="M236 162.365C236 160.156 237.791 158.365 240 158.365C242.209 158.365 244 160.156 244 162.365C244 164.574 242.209 166.365 240 166.365C237.791 166.365 236 164.574 236 162.365Z" fill="#990F3D"/>
<path d="M219.014 185.365H217.722L223.151 175.183H224.423L226.472 185.365H225.179L223.568 176.794H223.489L219.014 185.365ZM220.148 181.388H225.358L225.179 182.482H219.969L220.148 181.388ZM230.981 185.524C230.262 185.524 229.672 185.355 229.211 185.017C228.754 184.679 228.435 184.213 228.256 183.62C228.077 183.027 228.051 182.349 228.177 181.587C228.303 180.811 228.558 180.127 228.942 179.534C229.327 178.937 229.806 178.471 230.379 178.137C230.953 177.798 231.584 177.629 232.273 177.629C232.81 177.629 233.278 177.729 233.675 177.928C234.073 178.127 234.38 178.405 234.595 178.763C234.811 179.121 234.912 179.539 234.898 180.016H233.725C233.692 179.668 233.543 179.36 233.278 179.091C233.016 178.819 232.628 178.683 232.114 178.683C231.657 178.683 231.236 178.803 230.852 179.041C230.467 179.277 230.144 179.61 229.882 180.041C229.62 180.468 229.443 180.97 229.35 181.547C229.251 182.137 229.259 182.651 229.375 183.088C229.491 183.526 229.701 183.865 230.006 184.107C230.311 184.349 230.696 184.47 231.16 184.47C231.465 184.47 231.75 184.417 232.015 184.311C232.28 184.205 232.515 184.053 232.721 183.854C232.926 183.655 233.089 183.416 233.208 183.138H234.381C234.236 183.589 234.002 183.995 233.68 184.356C233.359 184.714 232.969 184.999 232.512 185.211C232.055 185.42 231.544 185.524 230.981 185.524ZM240.312 177.729L240.153 178.723H236.196L236.355 177.729H240.312ZM237.807 175.899H238.98L237.767 183.178C237.714 183.509 237.722 183.758 237.792 183.923C237.865 184.086 237.974 184.195 238.12 184.252C238.269 184.305 238.43 184.331 238.602 184.331C238.732 184.331 238.838 184.325 238.92 184.311C239.003 184.295 239.07 184.281 239.119 184.271L239.199 185.325C239.109 185.355 238.988 185.385 238.836 185.415C238.687 185.448 238.503 185.465 238.284 185.465C237.953 185.465 237.641 185.393 237.349 185.251C237.058 185.108 236.834 184.891 236.678 184.6C236.522 184.308 236.481 183.94 236.554 183.496L237.807 175.899ZM240.805 185.365L242.077 177.729H243.251L241.978 185.365H240.805ZM243.022 176.436C242.793 176.436 242.596 176.358 242.43 176.203C242.268 176.047 242.187 175.86 242.187 175.641C242.187 175.422 242.268 175.235 242.43 175.079C242.596 174.923 242.793 174.845 243.022 174.845C243.251 174.845 243.446 174.923 243.609 175.079C243.774 175.235 243.857 175.422 243.857 175.641C243.857 175.86 243.774 176.047 243.609 176.203C243.446 176.358 243.251 176.436 243.022 176.436ZM247.279 185.524C246.576 185.524 245.988 185.357 245.514 185.022C245.04 184.687 244.705 184.218 244.51 183.615C244.318 183.012 244.286 182.309 244.415 181.507C244.541 180.725 244.791 180.044 245.166 179.464C245.544 178.881 246.013 178.43 246.573 178.112C247.136 177.79 247.756 177.629 248.432 177.629C249.135 177.629 249.722 177.798 250.192 178.137C250.666 178.471 251.001 178.942 251.197 179.548C251.392 180.152 251.425 180.858 251.296 181.666C251.17 182.442 250.916 183.12 250.535 183.7C250.157 184.276 249.689 184.726 249.128 185.047C248.572 185.365 247.955 185.524 247.279 185.524ZM247.299 184.47C247.836 184.47 248.301 184.333 248.696 184.058C249.094 183.783 249.415 183.42 249.66 182.969C249.909 182.518 250.076 182.031 250.162 181.507C250.242 181.01 250.239 180.548 250.153 180.12C250.066 179.689 249.882 179.343 249.601 179.081C249.319 178.816 248.923 178.683 248.412 178.683C247.876 178.683 247.407 178.823 247.006 179.101C246.608 179.379 246.286 179.746 246.041 180.2C245.796 180.654 245.632 181.143 245.549 181.666C245.469 182.164 245.471 182.626 245.554 183.053C245.64 183.478 245.824 183.821 246.106 184.083C246.391 184.341 246.788 184.47 247.299 184.47ZM254.409 180.771L253.654 185.365H252.48L253.753 177.729H254.887L254.688 178.922H254.787C255.026 178.534 255.349 178.223 255.757 177.987C256.164 177.749 256.657 177.629 257.233 177.629C257.744 177.629 258.175 177.735 258.526 177.948C258.881 178.156 259.131 178.475 259.277 178.902C259.426 179.326 259.447 179.863 259.341 180.513L258.526 185.365H257.353L258.148 180.593C258.248 179.996 258.17 179.529 257.914 179.191C257.663 178.852 257.263 178.683 256.716 178.683C256.338 178.683 255.989 178.765 255.667 178.927C255.349 179.089 255.079 179.326 254.857 179.638C254.638 179.95 254.489 180.327 254.409 180.771Z" fill="#333333"/>
<path d="M218.052 266.893H216.442L212.634 256.841H214.412L217.268 264.681L220.124 256.841H221.86L218.052 266.893ZM224.706 259.641V266.893H223.068V259.641H224.706ZM222.872 257.429C222.872 257.149 222.97 256.911 223.166 256.715C223.362 256.519 223.6 256.421 223.88 256.421C224.16 256.421 224.398 256.519 224.594 256.715C224.79 256.911 224.888 257.149 224.888 257.429C224.888 257.709 224.79 257.947 224.594 258.143C224.398 258.339 224.16 258.437 223.88 258.437C223.6 258.437 223.362 258.339 223.166 258.143C222.97 257.947 222.872 257.709 222.872 257.429ZM227.824 263.267C227.824 263.827 227.922 264.284 228.118 264.639C228.323 264.984 228.594 265.241 228.93 265.409C229.275 265.567 229.653 265.647 230.064 265.647C230.474 265.647 230.838 265.595 231.156 265.493C231.473 265.381 231.804 265.208 232.15 264.975V266.417C231.832 266.65 231.473 266.813 231.072 266.907C230.67 267.009 230.241 267.061 229.784 267.061C229.074 267.061 228.454 266.902 227.922 266.585C227.39 266.267 226.974 265.824 226.676 265.255C226.377 264.676 226.228 264.013 226.228 263.267C226.228 262.539 226.368 261.89 226.648 261.321C226.937 260.751 227.334 260.303 227.838 259.977C228.342 259.641 228.92 259.473 229.574 259.473C230.078 259.473 230.521 259.561 230.904 259.739C231.286 259.907 231.608 260.149 231.87 260.467C232.131 260.775 232.327 261.148 232.458 261.587C232.588 262.025 232.654 262.511 232.654 263.043V263.617H227.418L227.46 262.399H231.058C231.048 262.184 231.011 261.983 230.946 261.797C230.88 261.61 230.782 261.447 230.652 261.307C230.53 261.157 230.381 261.045 230.204 260.971C230.026 260.887 229.816 260.845 229.574 260.845C229.275 260.845 228.99 260.933 228.72 261.111C228.449 261.279 228.23 261.54 228.062 261.895C227.903 262.249 227.824 262.707 227.824 263.267ZM237.644 259.641H239.128L240.43 264.835L241.858 259.641H243.412L241.298 266.893H239.688L238.358 261.783L237.028 266.893H235.418L233.304 259.641H234.914L236.328 264.835L237.644 259.641Z" fill="black"/>
<path d="M260 240.893C260 239.788 260.895 238.893 262 238.893H372V282.893H262C260.895 282.893 260 281.997 260 280.893V240.893Z" fill="#0D7680"/>
<path d="M287 253.893H281V259.893H287V253.893Z" fill="white"/>
<path d="M295 253.893H289V259.893H295V253.893Z" fill="white"/>
<path d="M281 261.893H287V267.893H281V261.893Z" fill="white"/>
<path d="M295 261.893H289V267.893H295V261.893Z" fill="white"/>
<path d="M308.691 257.485V255.405H318.499V257.485H314.787V266.893H312.403V257.485H308.691ZM317.457 262.717C317.457 261.863 317.627 261.111 317.969 260.461C318.321 259.799 318.801 259.287 319.409 258.925C320.027 258.551 320.742 258.365 321.553 258.365C322.363 258.365 323.078 258.551 323.697 258.925C324.315 259.287 324.795 259.799 325.137 260.461C325.489 261.111 325.665 261.863 325.665 262.717C325.665 263.57 325.489 264.327 325.137 264.989C324.795 265.65 324.315 266.167 323.697 266.541C323.078 266.903 322.363 267.085 321.553 267.085C320.742 267.085 320.027 266.903 319.409 266.541C318.801 266.167 318.321 265.65 317.969 264.989C317.627 264.327 317.457 263.57 317.457 262.717ZM319.761 262.717C319.761 263.186 319.83 263.607 319.969 263.981C320.107 264.343 320.31 264.626 320.577 264.829C320.843 265.031 321.169 265.133 321.553 265.133C321.947 265.133 322.273 265.031 322.529 264.829C322.795 264.626 322.998 264.343 323.137 263.981C323.275 263.607 323.345 263.186 323.345 262.717C323.345 262.258 323.275 261.847 323.137 261.485C322.998 261.122 322.795 260.839 322.529 260.637C322.273 260.423 321.947 260.317 321.553 260.317C321.169 260.317 320.843 260.423 320.577 260.637C320.31 260.839 320.107 261.122 319.969 261.485C319.83 261.847 319.761 262.258 319.761 262.717ZM329.477 261.357V264.093C329.605 264.381 329.813 264.615 330.101 264.797C330.399 264.978 330.719 265.069 331.061 265.069C331.37 265.069 331.647 265.01 331.893 264.893C332.149 264.775 332.362 264.61 332.533 264.397C332.703 264.183 332.831 263.938 332.917 263.661C333.013 263.373 333.061 263.058 333.061 262.717C333.061 262.386 333.013 262.077 332.917 261.789C332.831 261.501 332.703 261.255 332.533 261.053C332.362 260.839 332.149 260.674 331.893 260.557C331.647 260.439 331.37 260.381 331.061 260.381C330.719 260.381 330.399 260.471 330.101 260.653C329.813 260.834 329.605 261.069 329.477 261.357ZM329.477 266.205V270.013H327.141V258.557H329.477V259.245C329.594 259.095 329.759 258.957 329.973 258.829C330.197 258.69 330.442 258.578 330.709 258.493C330.986 258.407 331.279 258.365 331.589 258.365C332.175 258.365 332.703 258.482 333.173 258.717C333.642 258.941 334.042 259.25 334.373 259.645C334.714 260.039 334.97 260.503 335.141 261.037C335.311 261.559 335.397 262.119 335.397 262.717C335.397 263.314 335.311 263.879 335.141 264.413C334.97 264.935 334.714 265.399 334.373 265.805C334.042 266.199 333.642 266.514 333.173 266.749C332.703 266.973 332.175 267.085 331.589 267.085C331.279 267.085 330.986 267.042 330.709 266.957C330.442 266.871 330.202 266.765 329.989 266.637C329.775 266.498 329.605 266.354 329.477 266.205ZM339.211 258.557V266.893H336.875V258.557H339.211ZM336.667 256.125C336.667 255.73 336.801 255.41 337.067 255.165C337.334 254.909 337.654 254.781 338.027 254.781C338.411 254.781 338.737 254.909 339.003 255.165C339.27 255.41 339.403 255.73 339.403 256.125C339.403 256.498 339.27 256.813 339.003 257.069C338.737 257.325 338.411 257.453 338.027 257.453C337.654 257.453 337.334 257.325 337.067 257.069C336.801 256.813 336.667 256.498 336.667 256.125ZM343.011 262.717C343.011 263.197 343.101 263.618 343.283 263.981C343.475 264.333 343.736 264.61 344.067 264.813C344.408 265.005 344.792 265.101 345.219 265.101C345.581 265.101 345.928 265.037 346.259 264.909C346.6 264.77 346.92 264.573 347.219 264.317V266.429C346.92 266.663 346.573 266.829 346.179 266.925C345.784 267.031 345.373 267.085 344.947 267.085C344.125 267.085 343.395 266.903 342.755 266.541C342.115 266.178 341.613 265.671 341.251 265.021C340.888 264.359 340.707 263.591 340.707 262.717C340.707 261.842 340.888 261.079 341.251 260.429C341.613 259.767 342.115 259.261 342.755 258.909C343.395 258.546 344.125 258.365 344.947 258.365C345.373 258.365 345.784 258.418 346.179 258.525C346.573 258.621 346.92 258.786 347.219 259.021V261.117C346.92 260.861 346.6 260.669 346.259 260.541C345.928 260.413 345.581 260.349 345.219 260.349C344.792 260.349 344.408 260.45 344.067 260.653C343.736 260.845 343.475 261.122 343.283 261.485C343.101 261.837 343.011 262.247 343.011 262.717Z" fill="white"/>
<path d="M507 239.393C507.828 239.393 508.5 240.064 508.5 240.893V280.893C508.5 281.721 507.828 282.393 507 282.393H372.5V239.393H507Z" stroke="#0D7680"/>
<path d="M392 255.893H394V257.893H392V255.893Z" fill="#0D7680"/>
<path d="M408 255.893H396V257.893H408V255.893Z" fill="#0D7680"/>
<path d="M394 259.893H392V261.893H394V259.893Z" fill="#0D7680"/>
<path d="M392 263.893H394V265.893H392V263.893Z" fill="#0D7680"/>
<path d="M396 259.893H408V261.893H396V259.893Z" fill="#0D7680"/>
<path d="M408 263.893H396V265.893H408V263.893Z" fill="#0D7680"/>
<path d="M420.863 257.485V255.405H430.671V257.485H426.959V266.893H424.575V257.485H420.863ZM434.321 258.557V266.893H431.985V258.557H434.321ZM431.777 256.125C431.777 255.73 431.91 255.41 432.177 255.165C432.443 254.909 432.763 254.781 433.137 254.781C433.521 254.781 433.846 254.909 434.113 255.165C434.379 255.41 434.513 255.73 434.513 256.125C434.513 256.498 434.379 256.813 434.113 257.069C433.846 257.325 433.521 257.453 433.137 257.453C432.763 257.453 432.443 257.325 432.177 257.069C431.91 256.813 431.777 256.498 431.777 256.125ZM443.032 259.421C443.309 259.122 443.656 258.871 444.072 258.669C444.488 258.466 444.984 258.365 445.56 258.365C446.136 258.365 446.627 258.493 447.032 258.749C447.448 258.994 447.763 259.351 447.976 259.821C448.2 260.279 448.312 260.823 448.312 261.453V266.893H445.976V261.933C445.976 261.485 445.88 261.127 445.688 260.861C445.496 260.583 445.197 260.445 444.792 260.445C444.493 260.445 444.221 260.535 443.976 260.717C443.731 260.898 443.571 261.165 443.496 261.517V266.893H441.16V261.933C441.16 261.485 441.064 261.127 440.872 260.861C440.68 260.583 440.381 260.445 439.976 260.445C439.677 260.445 439.405 260.535 439.16 260.717C438.915 260.898 438.755 261.165 438.68 261.517V266.893H436.344V258.557H438.68V259.245C438.872 258.978 439.155 258.765 439.528 258.605C439.901 258.445 440.317 258.365 440.776 258.365C441.277 258.365 441.72 258.466 442.104 258.669C442.488 258.861 442.797 259.111 443.032 259.421ZM451.931 262.669C451.931 263.266 452.032 263.751 452.235 264.125C452.448 264.487 452.736 264.754 453.099 264.925C453.472 265.085 453.893 265.165 454.363 265.165C454.8 265.165 455.205 265.111 455.579 265.005C455.963 264.898 456.357 264.711 456.763 264.445V266.349C456.411 266.605 455.995 266.791 455.515 266.909C455.035 267.026 454.517 267.085 453.963 267.085C453.109 267.085 452.363 266.909 451.723 266.557C451.093 266.194 450.597 265.687 450.235 265.037C449.883 264.375 449.707 263.607 449.707 262.733C449.707 261.89 449.872 261.138 450.203 260.477C450.544 259.815 451.008 259.298 451.595 258.925C452.192 258.541 452.875 258.349 453.643 258.349C454.251 258.349 454.784 258.45 455.243 258.653C455.701 258.855 456.085 259.138 456.395 259.501C456.715 259.863 456.949 260.301 457.099 260.813C457.259 261.314 457.339 261.874 457.339 262.493V263.229H451.291L451.323 261.741H455.163C455.152 261.527 455.109 261.33 455.035 261.149C454.971 260.957 454.875 260.791 454.747 260.653C454.629 260.514 454.48 260.407 454.299 260.333C454.128 260.247 453.925 260.205 453.691 260.205C453.392 260.205 453.104 260.295 452.827 260.477C452.56 260.647 452.341 260.914 452.171 261.277C452.011 261.629 451.931 262.093 451.931 262.669ZM461.18 254.733V266.893H458.844V254.733H461.18ZM465.539 258.557V266.893H463.203V258.557H465.539ZM462.995 256.125C462.995 255.73 463.129 255.41 463.395 255.165C463.662 254.909 463.982 254.781 464.355 254.781C464.739 254.781 465.065 254.909 465.331 255.165C465.598 255.41 465.731 255.73 465.731 256.125C465.731 256.498 465.598 256.813 465.331 257.069C465.065 257.325 464.739 257.453 464.355 257.453C463.982 257.453 463.662 257.325 463.395 257.069C463.129 256.813 462.995 256.498 462.995 256.125ZM467.563 266.893V258.557H469.899V259.309C470.123 259.042 470.427 258.818 470.811 258.637C471.205 258.455 471.648 258.365 472.139 258.365C472.768 258.365 473.301 258.493 473.739 258.749C474.176 259.005 474.512 259.362 474.747 259.821C474.981 260.279 475.099 260.823 475.099 261.453V266.893H472.779V261.949C472.779 261.49 472.661 261.127 472.427 260.861C472.203 260.583 471.861 260.445 471.403 260.445C471.168 260.445 470.944 260.493 470.731 260.589C470.528 260.674 470.352 260.807 470.203 260.989C470.053 261.159 469.952 261.362 469.899 261.597V266.893H467.563ZM478.712 262.669C478.712 263.266 478.813 263.751 479.016 264.125C479.229 264.487 479.517 264.754 479.88 264.925C480.253 265.085 480.674 265.165 481.144 265.165C481.581 265.165 481.986 265.111 482.36 265.005C482.744 264.898 483.138 264.711 483.544 264.445V266.349C483.192 266.605 482.776 266.791 482.296 266.909C481.816 267.026 481.298 267.085 480.744 267.085C479.89 267.085 479.144 266.909 478.504 266.557C477.874 266.194 477.378 265.687 477.016 265.037C476.664 264.375 476.488 263.607 476.488 262.733C476.488 261.89 476.653 261.138 476.984 260.477C477.325 259.815 477.789 259.298 478.376 258.925C478.973 258.541 479.656 258.349 480.424 258.349C481.032 258.349 481.565 258.45 482.024 258.653C482.482 258.855 482.866 259.138 483.176 259.501C483.496 259.863 483.73 260.301 483.88 260.813C484.04 261.314 484.12 261.874 484.12 262.493V263.229H478.072L478.104 261.741H481.944C481.933 261.527 481.89 261.33 481.816 261.149C481.752 260.957 481.656 260.791 481.528 260.653C481.41 260.514 481.261 260.407 481.08 260.333C480.909 260.247 480.706 260.205 480.472 260.205C480.173 260.205 479.885 260.295 479.608 260.477C479.341 260.647 479.122 260.914 478.952 261.277C478.792 261.629 478.712 262.093 478.712 262.669Z" fill="#0D7680"/>
<rect x="252.5" y="226.865" width="266" height="63" stroke="#990F3D" stroke-dasharray="2 2"/>
<path d="M283.5 290.135C283.5 289.859 283.724 289.635 284 289.635C284.276 289.635 284.5 289.859 284.5 290.135V321.635H283.5V290.135Z" fill="#990F3D"/>
<path d="M280 325.635C280 323.426 281.791 321.635 284 321.635C286.209 321.635 288 323.426 288 325.635C288 327.844 286.209 329.635 284 329.635C281.791 329.635 280 327.844 280 325.635Z" fill="#990F3D"/>
<path d="M267.287 338.453H268.759L270.827 346.905H270.946L275.798 338.453H277.27L275.58 348.635H274.426L275.719 340.899H275.619L271.145 348.635H270.031L268.142 340.899H268.043L266.75 348.635H265.597L267.287 338.453ZM281.045 348.794C280.342 348.794 279.754 348.626 279.28 348.292C278.806 347.957 278.471 347.488 278.275 346.885C278.083 346.282 278.052 345.579 278.181 344.777C278.307 343.995 278.557 343.314 278.932 342.733C279.309 342.15 279.778 341.699 280.339 341.381C280.902 341.06 281.522 340.899 282.198 340.899C282.901 340.899 283.487 341.068 283.958 341.406C284.432 341.741 284.767 342.211 284.962 342.818C285.158 343.421 285.191 344.127 285.062 344.936C284.936 345.711 284.682 346.389 284.301 346.969C283.923 347.546 283.454 347.995 282.894 348.317C282.337 348.635 281.721 348.794 281.045 348.794ZM281.064 347.74C281.601 347.74 282.067 347.602 282.461 347.327C282.859 347.052 283.181 346.689 283.426 346.238C283.675 345.788 283.842 345.3 283.928 344.777C284.008 344.28 284.004 343.817 283.918 343.39C283.832 342.959 283.648 342.613 283.366 342.351C283.085 342.086 282.689 341.953 282.178 341.953C281.641 341.953 281.172 342.092 280.771 342.371C280.373 342.649 280.052 343.015 279.807 343.469C279.561 343.923 279.397 344.412 279.314 344.936C279.235 345.433 279.237 345.895 279.319 346.323C279.406 346.747 279.59 347.09 279.871 347.352C280.156 347.611 280.554 347.74 281.064 347.74ZM289.12 348.794C288.48 348.794 287.943 348.633 287.509 348.312C287.075 347.987 286.768 347.529 286.589 346.939C286.413 346.346 286.392 345.645 286.525 344.836C286.66 344.034 286.914 343.338 287.285 342.748C287.66 342.158 288.119 341.703 288.662 341.381C289.206 341.06 289.799 340.899 290.442 340.899C290.939 340.899 291.319 340.982 291.581 341.148C291.846 341.31 292.038 341.496 292.157 341.704C292.277 341.91 292.368 342.079 292.431 342.211H292.53L293.157 338.453H294.33L292.64 348.635H291.506L291.705 347.461H291.566C291.456 347.601 291.304 347.776 291.108 347.988C290.913 348.197 290.654 348.385 290.333 348.55C290.015 348.713 289.61 348.794 289.12 348.794ZM289.408 347.74C289.879 347.74 290.3 347.617 290.671 347.372C291.045 347.123 291.357 346.78 291.605 346.343C291.854 345.902 292.026 345.393 292.123 344.817C292.219 344.247 292.215 343.748 292.113 343.32C292.01 342.889 291.813 342.555 291.521 342.316C291.229 342.074 290.843 341.953 290.363 341.953C289.869 341.953 289.44 342.081 289.075 342.336C288.71 342.588 288.414 342.931 288.185 343.365C287.956 343.796 287.797 344.28 287.708 344.817C287.618 345.36 287.617 345.854 287.703 346.298C287.789 346.739 287.971 347.09 288.25 347.352C288.531 347.611 288.917 347.74 289.408 347.74ZM298.123 348.794C297.391 348.794 296.786 348.631 296.309 348.307C295.831 347.979 295.498 347.521 295.309 346.934C295.12 346.345 295.091 345.658 295.22 344.876C295.349 344.094 295.606 343.405 295.99 342.808C296.375 342.208 296.854 341.741 297.427 341.406C298.001 341.068 298.63 340.899 299.316 340.899C299.714 340.899 300.097 340.965 300.465 341.098C300.833 341.23 301.151 341.446 301.419 341.744C301.688 342.039 301.875 342.43 301.981 342.917C302.087 343.405 302.081 344.005 301.961 344.717L301.882 345.214H295.995L296.154 344.2H300.848C300.924 343.769 300.904 343.385 300.788 343.047C300.675 342.709 300.478 342.442 300.196 342.246C299.918 342.051 299.565 341.953 299.137 341.953C298.697 341.953 298.286 342.072 297.904 342.311C297.523 342.546 297.205 342.845 296.95 343.206C296.695 343.564 296.536 343.928 296.473 344.3L296.333 345.175C296.234 345.808 296.249 346.311 296.378 346.686C296.511 347.06 296.741 347.331 297.069 347.496C297.397 347.659 297.808 347.74 298.302 347.74C298.617 347.74 298.907 347.697 299.172 347.611C299.437 347.521 299.674 347.389 299.883 347.213C300.092 347.034 300.268 346.812 300.41 346.547L301.484 346.865C301.302 347.249 301.045 347.587 300.713 347.879C300.385 348.167 300.001 348.393 299.56 348.555C299.123 348.714 298.644 348.794 298.123 348.794Z" fill="#333333"/>
</svg>
