<svg width="711" height="144" viewBox="0 0 711 144" fill="none" xmlns="http://www.w3.org/2000/svg">
<rect x="215.5" y="50" width="103" height="44" rx="2" fill="#0D7680"/>
<path fill-rule="evenodd" clip-rule="evenodd" d="M235.607 73.8249C235.544 73.8878 235.499 73.9664 235.476 74.0525L233.715 80.8027C233.619 81.1723 233.956 81.5091 234.325 81.4127L241.075 79.652C241.161 79.6295 241.24 79.5846 241.302 79.5217L252.768 68.0557C252.963 67.8608 252.964 67.5451 252.769 67.3496L247.805 62.3555C247.61 62.1594 247.292 62.1588 247.097 62.3542L235.607 73.8249ZM240.272 77.7235C240.209 77.7864 240.131 77.8314 240.045 77.8538L236.297 78.8316L237.274 75.0836C237.297 74.9975 237.342 74.9189 237.405 74.856L244.662 67.6111L247.523 70.4725L240.272 77.7235ZM248.937 69.0583L250.297 67.699L247.446 64.8316L246.077 66.1981L248.937 69.0583Z" fill="white"/>
<path d="M265.088 66.512H272.896V68.592H267.456V71.104H272.4V73.168H267.456V75.92H272.896V78H265.088V66.512ZM279.838 77.312C279.71 77.4613 279.539 77.6053 279.326 77.744C279.112 77.872 278.867 77.9787 278.59 78.064C278.312 78.1493 278.024 78.192 277.726 78.192C277.128 78.192 276.595 78.08 276.126 77.856C275.656 77.6213 275.256 77.3067 274.926 76.912C274.595 76.5067 274.344 76.0427 274.174 75.52C274.003 74.9867 273.918 74.4213 273.918 73.824C273.918 73.2267 274.003 72.6667 274.174 72.144C274.344 71.6107 274.595 71.1467 274.926 70.752C275.256 70.3573 275.656 70.048 276.126 69.824C276.595 69.5893 277.128 69.472 277.726 69.472C278.035 69.472 278.323 69.5147 278.59 69.6C278.867 69.6747 279.112 69.7813 279.326 69.92C279.539 70.0587 279.71 70.2027 279.838 70.352V65.84H282.158V78H279.838V77.312ZM279.838 75.2V72.464C279.699 72.176 279.486 71.9413 279.198 71.76C278.91 71.5787 278.595 71.488 278.254 71.488C277.934 71.488 277.651 71.5467 277.406 71.664C277.16 71.7813 276.952 71.9467 276.782 72.16C276.611 72.3627 276.478 72.608 276.382 72.896C276.286 73.184 276.238 73.4933 276.238 73.824C276.238 74.1653 276.286 74.48 276.382 74.768C276.478 75.0453 276.611 75.2907 276.782 75.504C276.952 75.7173 277.16 75.8827 277.406 76C277.651 76.1173 277.934 76.176 278.254 76.176C278.595 76.176 278.91 76.0853 279.198 75.904C279.486 75.7227 279.699 75.488 279.838 75.2ZM286.516 69.664V78H284.18V69.664H286.516ZM283.972 67.232C283.972 66.8373 284.105 66.5173 284.372 66.272C284.639 66.016 284.959 65.888 285.332 65.888C285.716 65.888 286.041 66.016 286.308 66.272C286.575 66.5173 286.708 66.8373 286.708 67.232C286.708 67.6053 286.575 67.92 286.308 68.176C286.041 68.432 285.716 68.56 285.332 68.56C284.959 68.56 284.639 68.432 284.372 68.176C284.105 67.92 283.972 67.6053 283.972 67.232ZM291.835 71.536V78H289.515V71.536H287.915V69.664H289.515V67.408H291.835V69.664H293.611V71.536H291.835Z" fill="white"/>
<rect x="326.5" y="50" width="189" height="44" rx="2" fill="#0D7680"/>
<path d="M357.223 66.512H359.095L361.095 74.288L362.999 66.512H365.351L362.359 78H360.167L358.135 70.4L356.103 78H353.927L350.951 66.512H353.335L355.223 74.272L357.223 66.512ZM366.469 78V65.84H368.805V70.416C369.029 70.1493 369.333 69.9253 369.717 69.744C370.112 69.5627 370.554 69.472 371.045 69.472C371.674 69.472 372.208 69.6 372.645 69.856C373.082 70.112 373.418 70.4693 373.653 70.928C373.888 71.3867 374.005 71.9307 374.005 72.56V78H371.685V73.056C371.685 72.5973 371.568 72.2347 371.333 71.968C371.109 71.6907 370.768 71.552 370.309 71.552C370.074 71.552 369.85 71.6 369.637 71.696C369.434 71.7813 369.258 71.9147 369.109 72.096C368.96 72.2667 368.858 72.4693 368.805 72.704V78H366.469ZM379.01 76.496C379.362 76.496 379.677 76.4267 379.954 76.288C380.242 76.1387 380.439 75.952 380.546 75.728V75.104C380.439 74.8907 380.242 74.72 379.954 74.592C379.677 74.464 379.362 74.4 379.01 74.4C378.754 74.4 378.514 74.4373 378.29 74.512C378.066 74.5867 377.885 74.704 377.746 74.864C377.618 75.0133 377.554 75.2053 377.554 75.44C377.554 75.6747 377.618 75.872 377.746 76.032C377.885 76.1813 378.066 76.2987 378.29 76.384C378.514 76.4587 378.754 76.496 379.01 76.496ZM380.546 72.736C380.546 72.3733 380.391 72.0693 380.082 71.824C379.773 71.5787 379.298 71.456 378.658 71.456C378.231 71.456 377.826 71.52 377.442 71.648C377.058 71.7653 376.701 71.9307 376.37 72.144V70.144C376.658 69.952 377.053 69.792 377.554 69.664C378.066 69.536 378.599 69.472 379.154 69.472C379.933 69.472 380.589 69.6 381.122 69.856C381.655 70.1013 382.061 70.464 382.338 70.944C382.626 71.4133 382.77 71.9893 382.77 72.672V78H380.546V77.568C380.386 77.7067 380.125 77.8453 379.762 77.984C379.399 78.112 378.989 78.176 378.53 78.176C377.965 78.176 377.442 78.064 376.962 77.84C376.482 77.616 376.103 77.3013 375.826 76.896C375.549 76.4907 375.41 76.0107 375.41 75.456C375.41 74.9013 375.549 74.4213 375.826 74.016C376.103 73.6107 376.482 73.3013 376.962 73.088C377.442 72.864 377.965 72.752 378.53 72.752C378.989 72.752 379.399 72.8107 379.762 72.928C380.135 73.0453 380.397 73.1733 380.546 73.312V72.736ZM387.906 71.536V78H385.586V71.536H383.986V69.664H385.586V67.408H387.906V69.664H389.682V71.536H387.906ZM390.672 71.152L392 69.088C391.69 69.0347 391.424 68.896 391.2 68.672C390.976 68.448 390.864 68.144 390.864 67.76C390.864 67.4933 390.928 67.2533 391.056 67.04C391.184 66.816 391.36 66.64 391.584 66.512C391.818 66.384 392.069 66.32 392.336 66.32C392.592 66.32 392.832 66.384 393.056 66.512C393.28 66.6293 393.461 66.8053 393.6 67.04C393.738 67.2747 393.808 67.5627 393.808 67.904C393.808 68.2027 393.744 68.496 393.616 68.784C393.498 69.072 393.354 69.3387 393.184 69.584L392.16 71.152H390.672ZM393.992 77.344V75.2C394.258 75.4453 394.557 75.6533 394.888 75.824C395.218 75.9947 395.554 76.128 395.896 76.224C396.248 76.3093 396.578 76.352 396.888 76.352C397.122 76.352 397.33 76.3307 397.512 76.288C397.704 76.2347 397.853 76.1547 397.96 76.048C398.077 75.9413 398.136 75.8027 398.136 75.632C398.136 75.3973 398.034 75.2213 397.832 75.104C397.629 74.976 397.368 74.8693 397.048 74.784C396.738 74.6987 396.408 74.6027 396.056 74.496C395.704 74.3893 395.368 74.2453 395.048 74.064C394.738 73.8827 394.482 73.6373 394.28 73.328C394.088 73.0187 393.992 72.608 393.992 72.096C393.992 71.552 394.136 71.0827 394.424 70.688C394.712 70.2933 395.106 69.9947 395.608 69.792C396.109 69.5787 396.669 69.472 397.288 69.472C397.81 69.472 398.29 69.5307 398.728 69.648C399.165 69.7653 399.565 69.9467 399.928 70.192V72.32C399.554 72.0213 399.154 71.776 398.728 71.584C398.301 71.392 397.853 71.296 397.384 71.296C397.064 71.296 396.792 71.36 396.568 71.488C396.354 71.616 396.248 71.792 396.248 72.016C396.248 72.24 396.349 72.4107 396.552 72.528C396.754 72.6453 397.01 72.7467 397.32 72.832C397.629 72.9173 397.96 73.0133 398.312 73.12C398.674 73.2267 399.01 73.3707 399.32 73.552C399.64 73.7333 399.896 73.984 400.088 74.304C400.29 74.624 400.392 75.0453 400.392 75.568C400.392 76.1333 400.237 76.6133 399.928 77.008C399.629 77.4027 399.218 77.7013 398.696 77.904C398.184 78.096 397.597 78.192 396.936 78.192C396.381 78.192 395.837 78.1173 395.304 77.968C394.781 77.8187 394.344 77.6107 393.992 77.344ZM407.321 69.664V78H404.985V69.664H407.321ZM404.777 67.232C404.777 66.8373 404.91 66.5173 405.177 66.272C405.443 66.016 405.763 65.888 406.137 65.888C406.521 65.888 406.846 66.016 407.113 66.272C407.379 66.5173 407.513 66.8373 407.513 67.232C407.513 67.6053 407.379 67.92 407.113 68.176C406.846 68.432 406.521 68.56 406.137 68.56C405.763 68.56 405.443 68.432 405.177 68.176C404.91 67.92 404.777 67.6053 404.777 67.232ZM409.344 78V69.664H411.68V70.416C411.904 70.1493 412.208 69.9253 412.592 69.744C412.987 69.5627 413.429 69.472 413.92 69.472C414.549 69.472 415.083 69.6 415.52 69.856C415.957 70.112 416.293 70.4693 416.528 70.928C416.763 71.3867 416.88 71.9307 416.88 72.56V78H414.56V73.056C414.56 72.5973 414.443 72.2347 414.208 71.968C413.984 71.6907 413.643 71.552 413.184 71.552C412.949 71.552 412.725 71.6 412.512 71.696C412.309 71.7813 412.133 71.9147 411.984 72.096C411.835 72.2667 411.733 72.4693 411.68 72.704V78H409.344ZM420.573 73.824C420.573 74.304 420.664 74.7253 420.845 75.088C421.037 75.44 421.298 75.7173 421.629 75.92C421.97 76.112 422.354 76.208 422.781 76.208C423.144 76.208 423.49 76.144 423.821 76.016C424.162 75.8773 424.482 75.68 424.781 75.424V77.536C424.482 77.7707 424.136 77.936 423.741 78.032C423.346 78.1387 422.936 78.192 422.509 78.192C421.688 78.192 420.957 78.0107 420.317 77.648C419.677 77.2853 419.176 76.7787 418.813 76.128C418.45 75.4667 418.269 74.6987 418.269 73.824C418.269 72.9493 418.45 72.1867 418.813 71.536C419.176 70.8747 419.677 70.368 420.317 70.016C420.957 69.6533 421.688 69.472 422.509 69.472C422.936 69.472 423.346 69.5253 423.741 69.632C424.136 69.728 424.482 69.8933 424.781 70.128V72.224C424.482 71.968 424.162 71.776 423.821 71.648C423.49 71.52 423.144 71.456 422.781 71.456C422.354 71.456 421.97 71.5573 421.629 71.76C421.298 71.952 421.037 72.2293 420.845 72.592C420.664 72.944 420.573 73.3547 420.573 73.824ZM428.696 65.84V78H426.36V65.84H428.696ZM438.127 69.664V78H435.791V77.248C435.567 77.5147 435.263 77.7387 434.879 77.92C434.495 78.1013 434.058 78.192 433.567 78.192C432.938 78.192 432.404 78.064 431.967 77.808C431.53 77.552 431.194 77.1947 430.959 76.736C430.735 76.2667 430.623 75.7227 430.623 75.104V69.664H432.959V74.624C432.959 75.0613 433.066 75.4187 433.279 75.696C433.503 75.9733 433.844 76.112 434.303 76.112C434.655 76.112 434.97 76.0107 435.247 75.808C435.524 75.5947 435.706 75.3067 435.791 74.944V69.664H438.127ZM445.533 77.312C445.405 77.4613 445.234 77.6053 445.021 77.744C444.807 77.872 444.562 77.9787 444.285 78.064C444.007 78.1493 443.719 78.192 443.421 78.192C442.823 78.192 442.29 78.08 441.821 77.856C441.351 77.6213 440.951 77.3067 440.621 76.912C440.29 76.5067 440.039 76.0427 439.869 75.52C439.698 74.9867 439.613 74.4213 439.613 73.824C439.613 73.2267 439.698 72.6667 439.869 72.144C440.039 71.6107 440.29 71.1467 440.621 70.752C440.951 70.3573 441.351 70.048 441.821 69.824C442.29 69.5893 442.823 69.472 443.421 69.472C443.73 69.472 444.018 69.5147 444.285 69.6C444.562 69.6747 444.807 69.7813 445.021 69.92C445.234 70.0587 445.405 70.2027 445.533 70.352V65.84H447.853V78H445.533V77.312ZM445.533 75.2V72.464C445.394 72.176 445.181 71.9413 444.893 71.76C444.605 71.5787 444.29 71.488 443.949 71.488C443.629 71.488 443.346 71.5467 443.101 71.664C442.855 71.7813 442.647 71.9467 442.477 72.16C442.306 72.3627 442.173 72.608 442.077 72.896C441.981 73.184 441.933 73.4933 441.933 73.824C441.933 74.1653 441.981 74.48 442.077 74.768C442.173 75.0453 442.306 75.2907 442.477 75.504C442.647 75.7173 442.855 75.8827 443.101 76C443.346 76.1173 443.629 76.176 443.949 76.176C444.29 76.176 444.605 76.0853 444.893 75.904C445.181 75.7227 445.394 75.488 445.533 75.2ZM451.571 73.776C451.571 74.3733 451.673 74.8587 451.875 75.232C452.089 75.5947 452.377 75.8613 452.739 76.032C453.113 76.192 453.534 76.272 454.003 76.272C454.441 76.272 454.846 76.2187 455.219 76.112C455.603 76.0053 455.998 75.8187 456.403 75.552V77.456C456.051 77.712 455.635 77.8987 455.155 78.016C454.675 78.1333 454.158 78.192 453.603 78.192C452.75 78.192 452.003 78.016 451.363 77.664C450.734 77.3013 450.238 76.7947 449.875 76.144C449.523 75.4827 449.347 74.7147 449.347 73.84C449.347 72.9973 449.513 72.2453 449.843 71.584C450.185 70.9227 450.649 70.4053 451.235 70.032C451.833 69.648 452.515 69.456 453.283 69.456C453.891 69.456 454.425 69.5573 454.883 69.76C455.342 69.9627 455.726 70.2453 456.035 70.608C456.355 70.9707 456.59 71.408 456.739 71.92C456.899 72.4213 456.979 72.9813 456.979 73.6V74.336H450.931L450.963 72.848H454.803C454.793 72.6347 454.75 72.4373 454.675 72.256C454.611 72.064 454.515 71.8987 454.387 71.76C454.27 71.6213 454.121 71.5147 453.939 71.44C453.769 71.3547 453.566 71.312 453.331 71.312C453.033 71.312 452.745 71.4027 452.467 71.584C452.201 71.7547 451.982 72.0213 451.811 72.384C451.651 72.736 451.571 73.2 451.571 73.776ZM463.955 77.312C463.827 77.4613 463.656 77.6053 463.443 77.744C463.229 77.872 462.984 77.9787 462.707 78.064C462.429 78.1493 462.141 78.192 461.843 78.192C461.245 78.192 460.712 78.08 460.243 77.856C459.773 77.6213 459.373 77.3067 459.043 76.912C458.712 76.5067 458.461 76.0427 458.291 75.52C458.12 74.9867 458.035 74.4213 458.035 73.824C458.035 73.2267 458.12 72.6667 458.291 72.144C458.461 71.6107 458.712 71.1467 459.043 70.752C459.373 70.3573 459.773 70.048 460.243 69.824C460.712 69.5893 461.245 69.472 461.843 69.472C462.152 69.472 462.44 69.5147 462.707 69.6C462.984 69.6747 463.229 69.7813 463.443 69.92C463.656 70.0587 463.827 70.2027 463.955 70.352V65.84H466.275V78H463.955V77.312ZM463.955 75.2V72.464C463.816 72.176 463.603 71.9413 463.315 71.76C463.027 71.5787 462.712 71.488 462.371 71.488C462.051 71.488 461.768 71.5467 461.523 71.664C461.277 71.7813 461.069 71.9467 460.899 72.16C460.728 72.3627 460.595 72.608 460.499 72.896C460.403 73.184 460.355 73.4933 460.355 73.824C460.355 74.1653 460.403 74.48 460.499 74.768C460.595 75.0453 460.728 75.2907 460.899 75.504C461.069 75.7173 461.277 75.8827 461.523 76C461.768 76.1173 462.051 76.176 462.371 76.176C462.712 76.176 463.027 76.0853 463.315 75.904C463.603 75.7227 463.816 75.488 463.955 75.2Z" fill="white"/>
<path fill-rule="evenodd" clip-rule="evenodd" d="M487.5 74.2928L494.439 67.3535C494.635 67.1582 494.951 67.1582 495.146 67.3535L495.854 68.0606C496.049 68.2558 496.049 68.5724 495.854 68.7677L487.854 76.7677C487.658 76.963 487.342 76.963 487.146 76.7677L479.146 68.7677C478.951 68.5724 478.951 68.2558 479.146 68.0606L479.854 67.3535C480.049 67.1582 480.365 67.1582 480.561 67.3535L487.5 74.2928Z" fill="white"/>
</svg>
