<svg width="711" height="144" viewBox="0 0 711 144" fill="none" xmlns="http://www.w3.org/2000/svg">
<rect x="278" y="50" width="86" height="44" rx="2" fill="#0D7680"/>
<path d="M295.062 77.216V74.848C295.403 75.104 295.777 75.3333 296.182 75.536C296.587 75.728 297.009 75.8773 297.446 75.984C297.883 76.08 298.321 76.128 298.758 76.128C299.131 76.128 299.473 76.0853 299.782 76C300.102 75.9147 300.358 75.776 300.55 75.584C300.742 75.392 300.838 75.152 300.838 74.864C300.838 74.5547 300.731 74.304 300.518 74.112C300.315 73.92 300.038 73.7547 299.686 73.616C299.345 73.4667 298.966 73.328 298.55 73.2C298.134 73.072 297.718 72.9227 297.302 72.752C296.886 72.5813 296.502 72.368 296.15 72.112C295.809 71.856 295.531 71.536 295.318 71.152C295.105 70.7573 294.998 70.2773 294.998 69.712C294.998 69.0187 295.185 68.4213 295.558 67.92C295.931 67.408 296.427 67.0133 297.046 66.736C297.675 66.4587 298.363 66.32 299.11 66.32C299.803 66.32 300.438 66.4 301.014 66.56C301.59 66.7093 302.107 66.928 302.566 67.216V69.568C302.075 69.1947 301.553 68.9013 300.998 68.688C300.443 68.464 299.835 68.352 299.174 68.352C298.651 68.352 298.219 68.4533 297.878 68.656C297.537 68.848 297.366 69.1467 297.366 69.552C297.366 69.84 297.467 70.08 297.67 70.272C297.883 70.4533 298.166 70.6133 298.518 70.752C298.87 70.8907 299.254 71.0293 299.67 71.168C300.086 71.3067 300.497 71.4613 300.902 71.632C301.318 71.8027 301.702 72.0213 302.054 72.288C302.406 72.544 302.683 72.864 302.886 73.248C303.099 73.632 303.206 74.1067 303.206 74.672C303.206 75.408 303.003 76.0427 302.598 76.576C302.193 77.0987 301.654 77.4987 300.982 77.776C300.31 78.0533 299.579 78.192 298.79 78.192C298.022 78.192 297.313 78.096 296.662 77.904C296.011 77.712 295.478 77.4827 295.062 77.216ZM312.104 69.664V78H309.768V77.248C309.544 77.5147 309.24 77.7387 308.856 77.92C308.472 78.1013 308.034 78.192 307.544 78.192C306.914 78.192 306.381 78.064 305.944 77.808C305.506 77.552 305.17 77.1947 304.936 76.736C304.712 76.2667 304.6 75.7227 304.6 75.104V69.664H306.936V74.624C306.936 75.0613 307.042 75.4187 307.256 75.696C307.48 75.9733 307.821 76.112 308.28 76.112C308.632 76.112 308.946 76.0107 309.224 75.808C309.501 75.5947 309.682 75.3067 309.768 74.944V69.664H312.104ZM316.453 77.312V78H314.117V65.84H316.453V70.352C316.571 70.2027 316.736 70.064 316.949 69.936C317.173 69.7973 317.419 69.6853 317.685 69.6C317.963 69.5147 318.256 69.472 318.565 69.472C319.152 69.472 319.68 69.5893 320.149 69.824C320.619 70.048 321.019 70.3573 321.349 70.752C321.691 71.1467 321.947 71.6107 322.117 72.144C322.288 72.6667 322.373 73.2267 322.373 73.824C322.373 74.4213 322.288 74.9867 322.117 75.52C321.947 76.0427 321.691 76.5067 321.349 76.912C321.019 77.3067 320.619 77.6213 320.149 77.856C319.68 78.08 319.152 78.192 318.565 78.192C318.256 78.192 317.963 78.1493 317.685 78.064C317.419 77.9787 317.179 77.872 316.965 77.744C316.752 77.6053 316.581 77.4613 316.453 77.312ZM316.453 75.2C316.581 75.488 316.789 75.7227 317.077 75.904C317.376 76.0853 317.696 76.176 318.037 76.176C318.347 76.176 318.624 76.1173 318.869 76C319.125 75.8827 319.339 75.7173 319.509 75.504C319.68 75.2907 319.808 75.0453 319.893 74.768C319.989 74.48 320.037 74.1653 320.037 73.824C320.037 73.4933 319.989 73.184 319.893 72.896C319.808 72.608 319.68 72.3627 319.509 72.16C319.339 71.9467 319.125 71.7813 318.869 71.664C318.624 71.5467 318.347 71.488 318.037 71.488C317.696 71.488 317.376 71.5787 317.077 71.76C316.789 71.9413 316.581 72.176 316.453 72.464V75.2ZM330.54 70.528C330.817 70.2293 331.164 69.9787 331.58 69.776C331.996 69.5733 332.492 69.472 333.068 69.472C333.644 69.472 334.134 69.6 334.54 69.856C334.956 70.1013 335.27 70.4587 335.484 70.928C335.708 71.3867 335.82 71.9307 335.82 72.56V78H333.484V73.04C333.484 72.592 333.388 72.2347 333.196 71.968C333.004 71.6907 332.705 71.552 332.3 71.552C332.001 71.552 331.729 71.6427 331.484 71.824C331.238 72.0053 331.078 72.272 331.004 72.624V78H328.668V73.04C328.668 72.592 328.572 72.2347 328.38 71.968C328.188 71.6907 327.889 71.552 327.484 71.552C327.185 71.552 326.913 71.6427 326.668 71.824C326.422 72.0053 326.262 72.272 326.188 72.624V78H323.852V69.664H326.188V70.352C326.38 70.0853 326.662 69.872 327.036 69.712C327.409 69.552 327.825 69.472 328.284 69.472C328.785 69.472 329.228 69.5733 329.612 69.776C329.996 69.968 330.305 70.2187 330.54 70.528ZM340.078 69.664V78H337.742V69.664H340.078ZM337.534 67.232C337.534 66.8373 337.668 66.5173 337.934 66.272C338.201 66.016 338.521 65.888 338.894 65.888C339.278 65.888 339.604 66.016 339.87 66.272C340.137 66.5173 340.27 66.8373 340.27 67.232C340.27 67.6053 340.137 67.92 339.87 68.176C339.604 68.432 339.278 68.56 338.894 68.56C338.521 68.56 338.201 68.432 337.934 68.176C337.668 67.92 337.534 67.6053 337.534 67.232ZM345.398 71.536V78H343.078V71.536H341.478V69.664H343.078V67.408H345.398V69.664H347.174V71.536H345.398Z" fill="white"/>
<rect x="372.5" y="50.5" width="80" height="43" rx="1.5" stroke="#0D7680"/>
<path d="M388.622 72.256C388.622 71.3813 388.766 70.5813 389.054 69.856C389.342 69.1307 389.742 68.5067 390.254 67.984C390.766 67.4507 391.369 67.04 392.062 66.752C392.755 66.464 393.513 66.32 394.334 66.32C394.963 66.32 395.523 66.4 396.014 66.56C396.515 66.72 396.953 66.944 397.326 67.232V69.616C396.889 69.232 396.435 68.9547 395.966 68.784C395.507 68.6027 395.006 68.512 394.462 68.512C393.79 68.512 393.198 68.6667 392.686 68.976C392.174 69.2747 391.774 69.7067 391.486 70.272C391.198 70.8373 391.054 71.4987 391.054 72.256C391.054 73.0027 391.198 73.664 391.486 74.24C391.774 74.8053 392.174 75.2427 392.686 75.552C393.198 75.8507 393.79 76 394.462 76C395.006 76 395.507 75.9093 395.966 75.728C396.435 75.5467 396.889 75.2693 397.326 74.896V77.28C396.953 77.568 396.515 77.792 396.014 77.952C395.523 78.112 394.963 78.192 394.334 78.192C393.513 78.192 392.755 78.048 392.062 77.76C391.369 77.472 390.766 77.0667 390.254 76.544C389.742 76.0107 389.342 75.3813 389.054 74.656C388.766 73.9307 388.622 73.1307 388.622 72.256ZM402.252 76.496C402.604 76.496 402.919 76.4267 403.196 76.288C403.484 76.1387 403.682 75.952 403.788 75.728V75.104C403.682 74.8907 403.484 74.72 403.196 74.592C402.919 74.464 402.604 74.4 402.252 74.4C401.996 74.4 401.756 74.4373 401.532 74.512C401.308 74.5867 401.127 74.704 400.988 74.864C400.86 75.0133 400.796 75.2053 400.796 75.44C400.796 75.6747 400.86 75.872 400.988 76.032C401.127 76.1813 401.308 76.2987 401.532 76.384C401.756 76.4587 401.996 76.496 402.252 76.496ZM403.788 72.736C403.788 72.3733 403.634 72.0693 403.324 71.824C403.015 71.5787 402.54 71.456 401.9 71.456C401.474 71.456 401.068 71.52 400.684 71.648C400.3 71.7653 399.943 71.9307 399.612 72.144V70.144C399.9 69.952 400.295 69.792 400.796 69.664C401.308 69.536 401.842 69.472 402.396 69.472C403.175 69.472 403.831 69.6 404.364 69.856C404.898 70.1013 405.303 70.464 405.58 70.944C405.868 71.4133 406.012 71.9893 406.012 72.672V78H403.788V77.568C403.628 77.7067 403.367 77.8453 403.004 77.984C402.642 78.112 402.231 78.176 401.772 78.176C401.207 78.176 400.684 78.064 400.204 77.84C399.724 77.616 399.346 77.3013 399.068 76.896C398.791 76.4907 398.652 76.0107 398.652 75.456C398.652 74.9013 398.791 74.4213 399.068 74.016C399.346 73.6107 399.724 73.3013 400.204 73.088C400.684 72.864 401.207 72.752 401.772 72.752C402.231 72.752 402.642 72.8107 403.004 72.928C403.378 73.0453 403.639 73.1733 403.788 73.312V72.736ZM407.93 78V69.664H410.266V70.416C410.49 70.1493 410.794 69.9253 411.178 69.744C411.573 69.5627 412.015 69.472 412.506 69.472C413.135 69.472 413.669 69.6 414.106 69.856C414.543 70.112 414.879 70.4693 415.114 70.928C415.349 71.3867 415.466 71.9307 415.466 72.56V78H413.146V73.056C413.146 72.5973 413.029 72.2347 412.794 71.968C412.57 71.6907 412.229 71.552 411.77 71.552C411.535 71.552 411.311 71.6 411.098 71.696C410.895 71.7813 410.719 71.9147 410.57 72.096C410.421 72.2667 410.319 72.4693 410.266 72.704V78H407.93ZM419.159 73.824C419.159 74.304 419.25 74.7253 419.431 75.088C419.623 75.44 419.884 75.7173 420.215 75.92C420.556 76.112 420.94 76.208 421.367 76.208C421.73 76.208 422.076 76.144 422.407 76.016C422.748 75.8773 423.068 75.68 423.367 75.424V77.536C423.068 77.7707 422.722 77.936 422.327 78.032C421.932 78.1387 421.522 78.192 421.095 78.192C420.274 78.192 419.543 78.0107 418.903 77.648C418.263 77.2853 417.762 76.7787 417.399 76.128C417.036 75.4667 416.855 74.6987 416.855 73.824C416.855 72.9493 417.036 72.1867 417.399 71.536C417.762 70.8747 418.263 70.368 418.903 70.016C419.543 69.6533 420.274 69.472 421.095 69.472C421.522 69.472 421.932 69.5253 422.327 69.632C422.722 69.728 423.068 69.8933 423.367 70.128V72.224C423.068 71.968 422.748 71.776 422.407 71.648C422.076 71.52 421.73 71.456 421.367 71.456C420.94 71.456 420.556 71.5573 420.215 71.76C419.884 71.952 419.623 72.2293 419.431 72.592C419.25 72.944 419.159 73.3547 419.159 73.824ZM426.657 73.776C426.657 74.3733 426.758 74.8587 426.961 75.232C427.174 75.5947 427.462 75.8613 427.825 76.032C428.198 76.192 428.62 76.272 429.089 76.272C429.526 76.272 429.932 76.2187 430.305 76.112C430.689 76.0053 431.084 75.8187 431.489 75.552V77.456C431.137 77.712 430.721 77.8987 430.241 78.016C429.761 78.1333 429.244 78.192 428.689 78.192C427.836 78.192 427.089 78.016 426.449 77.664C425.82 77.3013 425.324 76.7947 424.961 76.144C424.609 75.4827 424.433 74.7147 424.433 73.84C424.433 72.9973 424.598 72.2453 424.929 71.584C425.27 70.9227 425.734 70.4053 426.321 70.032C426.918 69.648 427.601 69.456 428.369 69.456C428.977 69.456 429.51 69.5573 429.969 69.76C430.428 69.9627 430.812 70.2453 431.121 70.608C431.441 70.9707 431.676 71.408 431.825 71.92C431.985 72.4213 432.065 72.9813 432.065 73.6V74.336H426.017L426.049 72.848H429.889C429.878 72.6347 429.836 72.4373 429.761 72.256C429.697 72.064 429.601 71.8987 429.473 71.76C429.356 71.6213 429.206 71.5147 429.025 71.44C428.854 71.3547 428.652 71.312 428.417 71.312C428.118 71.312 427.83 71.4027 427.553 71.584C427.286 71.7547 427.068 72.0213 426.897 72.384C426.737 72.736 426.657 73.2 426.657 73.776ZM435.907 65.84V78H433.571V65.84H435.907Z" fill="#0D7680"/>
</svg>
