<svg width="711" height="184" viewBox="0 0 711 184" fill="none" xmlns="http://www.w3.org/2000/svg">
<path d="M68.5 72C68.5 70.8954 69.3954 70 70.5 70H162.5V114H70.5C69.3954 114 68.5 113.105 68.5 112V72Z" fill="#0D7680"/>
<path d="M85.3275 97.216V94.848C85.6688 95.104 86.0422 95.3333 86.4475 95.536C86.8528 95.728 87.2742 95.8773 87.7115 95.984C88.1488 96.08 88.5862 96.128 89.0235 96.128C89.3968 96.128 89.7382 96.0853 90.0475 96C90.3675 95.9147 90.6235 95.776 90.8155 95.584C91.0075 95.392 91.1035 95.152 91.1035 94.864C91.1035 94.5547 90.9968 94.304 90.7835 94.112C90.5808 93.92 90.3035 93.7547 89.9515 93.616C89.6102 93.4667 89.2315 93.328 88.8155 93.2C88.3995 93.072 87.9835 92.9227 87.5675 92.752C87.1515 92.5813 86.7675 92.368 86.4155 92.112C86.0742 91.856 85.7968 91.536 85.5835 91.152C85.3702 90.7573 85.2635 90.2773 85.2635 89.712C85.2635 89.0187 85.4502 88.4213 85.8235 87.92C86.1968 87.408 86.6928 87.0133 87.3115 86.736C87.9408 86.4587 88.6288 86.32 89.3755 86.32C90.0688 86.32 90.7035 86.4 91.2795 86.56C91.8555 86.7093 92.3728 86.928 92.8315 87.216V89.568C92.3408 89.1947 91.8182 88.9013 91.2635 88.688C90.7088 88.464 90.1008 88.352 89.4395 88.352C88.9168 88.352 88.4848 88.4533 88.1435 88.656C87.8022 88.848 87.6315 89.1467 87.6315 89.552C87.6315 89.84 87.7328 90.08 87.9355 90.272C88.1488 90.4533 88.4315 90.6133 88.7835 90.752C89.1355 90.8907 89.5195 91.0293 89.9355 91.168C90.3515 91.3067 90.7622 91.4613 91.1675 91.632C91.5835 91.8027 91.9675 92.0213 92.3195 92.288C92.6715 92.544 92.9488 92.864 93.1515 93.248C93.3648 93.632 93.4715 94.1067 93.4715 94.672C93.4715 95.408 93.2688 96.0427 92.8635 96.576C92.4582 97.0987 91.9195 97.4987 91.2475 97.776C90.5755 98.0533 89.8448 98.192 89.0555 98.192C88.2875 98.192 87.5782 98.096 86.9275 97.904C86.2768 97.712 85.7435 97.4827 85.3275 97.216ZM96.8134 93.776C96.8134 94.3733 96.9147 94.8587 97.1174 95.232C97.3307 95.5947 97.6187 95.8613 97.9814 96.032C98.3547 96.192 98.776 96.272 99.2454 96.272C99.6827 96.272 100.088 96.2187 100.461 96.112C100.845 96.0053 101.24 95.8187 101.645 95.552V97.456C101.293 97.712 100.877 97.8987 100.397 98.016C99.9174 98.1333 99.4 98.192 98.8454 98.192C97.992 98.192 97.2454 98.016 96.6054 97.664C95.976 97.3013 95.48 96.7947 95.1174 96.144C94.7654 95.4827 94.5894 94.7147 94.5894 93.84C94.5894 92.9973 94.7547 92.2453 95.0854 91.584C95.4267 90.9227 95.8907 90.4053 96.4774 90.032C97.0747 89.648 97.7574 89.456 98.5254 89.456C99.1334 89.456 99.6667 89.5573 100.125 89.76C100.584 89.9627 100.968 90.2453 101.277 90.608C101.597 90.9707 101.832 91.408 101.981 91.92C102.141 92.4213 102.221 92.9813 102.221 93.6V94.336H96.1734L96.2054 92.848H100.045C100.035 92.6347 99.992 92.4373 99.9174 92.256C99.8534 92.064 99.7574 91.8987 99.6294 91.76C99.512 91.6213 99.3627 91.5147 99.1814 91.44C99.0107 91.3547 98.808 91.312 98.5734 91.312C98.2747 91.312 97.9867 91.4027 97.7094 91.584C97.4427 91.7547 97.224 92.0213 97.0534 92.384C96.8934 92.736 96.8134 93.2 96.8134 93.776ZM105.581 93.824C105.581 94.304 105.672 94.7253 105.853 95.088C106.045 95.44 106.306 95.7173 106.637 95.92C106.978 96.112 107.362 96.208 107.789 96.208C108.152 96.208 108.498 96.144 108.829 96.016C109.17 95.8773 109.49 95.68 109.789 95.424V97.536C109.49 97.7707 109.144 97.936 108.749 98.032C108.354 98.1387 107.944 98.192 107.517 98.192C106.696 98.192 105.965 98.0107 105.325 97.648C104.685 97.2853 104.184 96.7787 103.821 96.128C103.458 95.4667 103.277 94.6987 103.277 93.824C103.277 92.9493 103.458 92.1867 103.821 91.536C104.184 90.8747 104.685 90.368 105.325 90.016C105.965 89.6533 106.696 89.472 107.517 89.472C107.944 89.472 108.354 89.5253 108.749 89.632C109.144 89.728 109.49 89.8933 109.789 90.128V92.224C109.49 91.968 109.17 91.776 108.829 91.648C108.498 91.52 108.152 91.456 107.789 91.456C107.362 91.456 106.978 91.5573 106.637 91.76C106.306 91.952 106.045 92.2293 105.853 92.592C105.672 92.944 105.581 93.3547 105.581 93.824ZM110.855 93.824C110.855 92.9707 111.026 92.2187 111.367 91.568C111.719 90.9067 112.199 90.3947 112.807 90.032C113.426 89.6587 114.14 89.472 114.951 89.472C115.762 89.472 116.476 89.6587 117.095 90.032C117.714 90.3947 118.194 90.9067 118.535 91.568C118.887 92.2187 119.063 92.9707 119.063 93.824C119.063 94.6773 118.887 95.4347 118.535 96.096C118.194 96.7573 117.714 97.2747 117.095 97.648C116.476 98.0107 115.762 98.192 114.951 98.192C114.14 98.192 113.426 98.0107 112.807 97.648C112.199 97.2747 111.719 96.7573 111.367 96.096C111.026 95.4347 110.855 94.6773 110.855 93.824ZM113.159 93.824C113.159 94.2933 113.228 94.7147 113.367 95.088C113.506 95.4507 113.708 95.7333 113.975 95.936C114.242 96.1387 114.567 96.24 114.951 96.24C115.346 96.24 115.671 96.1387 115.927 95.936C116.194 95.7333 116.396 95.4507 116.535 95.088C116.674 94.7147 116.743 94.2933 116.743 93.824C116.743 93.3653 116.674 92.9547 116.535 92.592C116.396 92.2293 116.194 91.9467 115.927 91.744C115.671 91.5307 115.346 91.424 114.951 91.424C114.567 91.424 114.242 91.5307 113.975 91.744C113.708 91.9467 113.506 92.2293 113.367 92.592C113.228 92.9547 113.159 93.3653 113.159 93.824ZM120.539 98V89.664H122.875V90.416C123.099 90.1493 123.403 89.9253 123.787 89.744C124.182 89.5627 124.625 89.472 125.115 89.472C125.745 89.472 126.278 89.6 126.715 89.856C127.153 90.112 127.489 90.4693 127.723 90.928C127.958 91.3867 128.075 91.9307 128.075 92.56V98H125.755V93.056C125.755 92.5973 125.638 92.2347 125.403 91.968C125.179 91.6907 124.838 91.552 124.379 91.552C124.145 91.552 123.921 91.6 123.707 91.696C123.505 91.7813 123.329 91.9147 123.179 92.096C123.03 92.2667 122.929 92.4693 122.875 92.704V98H120.539ZM135.384 97.312C135.256 97.4613 135.086 97.6053 134.872 97.744C134.659 97.872 134.414 97.9787 134.136 98.064C133.859 98.1493 133.571 98.192 133.272 98.192C132.675 98.192 132.142 98.08 131.672 97.856C131.203 97.6213 130.803 97.3067 130.472 96.912C130.142 96.5067 129.891 96.0427 129.72 95.52C129.55 94.9867 129.464 94.4213 129.464 93.824C129.464 93.2267 129.55 92.6667 129.72 92.144C129.891 91.6107 130.142 91.1467 130.472 90.752C130.803 90.3573 131.203 90.048 131.672 89.824C132.142 89.5893 132.675 89.472 133.272 89.472C133.582 89.472 133.87 89.5147 134.136 89.6C134.414 89.6747 134.659 89.7813 134.872 89.92C135.086 90.0587 135.256 90.2027 135.384 90.352V85.84H137.704V98H135.384V97.312ZM135.384 95.2V92.464C135.246 92.176 135.032 91.9413 134.744 91.76C134.456 91.5787 134.142 91.488 133.8 91.488C133.48 91.488 133.198 91.5467 132.952 91.664C132.707 91.7813 132.499 91.9467 132.328 92.16C132.158 92.3627 132.024 92.608 131.928 92.896C131.832 93.184 131.784 93.4933 131.784 93.824C131.784 94.1653 131.832 94.48 131.928 94.768C132.024 95.0453 132.158 95.2907 132.328 95.504C132.499 95.7173 132.707 95.8827 132.952 96C133.198 96.1173 133.48 96.176 133.8 96.176C134.142 96.176 134.456 96.0853 134.744 95.904C135.032 95.7227 135.246 95.488 135.384 95.2ZM139.359 97.344V95.2C139.625 95.4453 139.924 95.6533 140.255 95.824C140.585 95.9947 140.921 96.128 141.263 96.224C141.615 96.3093 141.945 96.352 142.255 96.352C142.489 96.352 142.697 96.3307 142.879 96.288C143.071 96.2347 143.22 96.1547 143.327 96.048C143.444 95.9413 143.503 95.8027 143.503 95.632C143.503 95.3973 143.401 95.2213 143.199 95.104C142.996 94.976 142.735 94.8693 142.415 94.784C142.105 94.6987 141.775 94.6027 141.423 94.496C141.071 94.3893 140.735 94.2453 140.415 94.064C140.105 93.8827 139.849 93.6373 139.647 93.328C139.455 93.0187 139.359 92.608 139.359 92.096C139.359 91.552 139.503 91.0827 139.791 90.688C140.079 90.2933 140.473 89.9947 140.975 89.792C141.476 89.5787 142.036 89.472 142.655 89.472C143.177 89.472 143.657 89.5307 144.095 89.648C144.532 89.7653 144.932 89.9467 145.295 90.192V92.32C144.921 92.0213 144.521 91.776 144.095 91.584C143.668 91.392 143.22 91.296 142.751 91.296C142.431 91.296 142.159 91.36 141.935 91.488C141.721 91.616 141.615 91.792 141.615 92.016C141.615 92.24 141.716 92.4107 141.919 92.528C142.121 92.6453 142.377 92.7467 142.687 92.832C142.996 92.9173 143.327 93.0133 143.679 93.12C144.041 93.2267 144.377 93.3707 144.687 93.552C145.007 93.7333 145.263 93.984 145.455 94.304C145.657 94.624 145.759 95.0453 145.759 95.568C145.759 96.1333 145.604 96.6133 145.295 97.008C144.996 97.4027 144.585 97.7013 144.063 97.904C143.551 98.096 142.964 98.192 142.303 98.192C141.748 98.192 141.204 98.1173 140.671 97.968C140.148 97.8187 139.711 97.6107 139.359 97.344Z" fill="white"/>
<rect x="163" y="70.5" width="91" height="43" stroke="#0D7680"/>
<path d="M188.948 90.528L185.636 95.536L182.308 90.528V98H179.956V86.512H182.164L185.652 91.936L189.14 86.512H191.3V98H188.948V90.528ZM195.742 89.664V98H193.406V89.664H195.742ZM193.198 87.232C193.198 86.8373 193.332 86.5173 193.598 86.272C193.865 86.016 194.185 85.888 194.558 85.888C194.942 85.888 195.268 86.016 195.534 86.272C195.801 86.5173 195.934 86.8373 195.934 87.232C195.934 87.6053 195.801 87.92 195.534 88.176C195.268 88.432 194.942 88.56 194.558 88.56C194.185 88.56 193.865 88.432 193.598 88.176C193.332 87.92 193.198 87.6053 193.198 87.232ZM197.766 98V89.664H200.102V90.416C200.326 90.1493 200.63 89.9253 201.014 89.744C201.408 89.5627 201.851 89.472 202.342 89.472C202.971 89.472 203.504 89.6 203.942 89.856C204.379 90.112 204.715 90.4693 204.95 90.928C205.184 91.3867 205.302 91.9307 205.302 92.56V98H202.982V93.056C202.982 92.5973 202.864 92.2347 202.63 91.968C202.406 91.6907 202.064 91.552 201.606 91.552C201.371 91.552 201.147 91.6 200.934 91.696C200.731 91.7813 200.555 91.9147 200.406 92.096C200.256 92.2667 200.155 92.4693 200.102 92.704V98H197.766ZM214.627 89.664V98H212.291V97.248C212.067 97.5147 211.763 97.7387 211.379 97.92C210.995 98.1013 210.558 98.192 210.067 98.192C209.438 98.192 208.904 98.064 208.467 97.808C208.03 97.552 207.694 97.1947 207.459 96.736C207.235 96.2667 207.123 95.7227 207.123 95.104V89.664H209.459V94.624C209.459 95.0613 209.566 95.4187 209.779 95.696C210.003 95.9733 210.344 96.112 210.803 96.112C211.155 96.112 211.47 96.0107 211.747 95.808C212.024 95.5947 212.206 95.3067 212.291 94.944V89.664H214.627ZM219.937 91.536V98H217.617V91.536H216.017V89.664H217.617V87.408H219.937V89.664H221.713V91.536H219.937ZM224.634 93.776C224.634 94.3733 224.735 94.8587 224.938 95.232C225.151 95.5947 225.439 95.8613 225.802 96.032C226.175 96.192 226.596 96.272 227.066 96.272C227.503 96.272 227.908 96.2187 228.282 96.112C228.666 96.0053 229.06 95.8187 229.466 95.552V97.456C229.114 97.712 228.698 97.8987 228.218 98.016C227.738 98.1333 227.22 98.192 226.666 98.192C225.812 98.192 225.066 98.016 224.426 97.664C223.796 97.3013 223.3 96.7947 222.938 96.144C222.586 95.4827 222.41 94.7147 222.41 93.84C222.41 92.9973 222.575 92.2453 222.906 91.584C223.247 90.9227 223.711 90.4053 224.298 90.032C224.895 89.648 225.578 89.456 226.346 89.456C226.954 89.456 227.487 89.5573 227.946 89.76C228.404 89.9627 228.788 90.2453 229.098 90.608C229.418 90.9707 229.652 91.408 229.802 91.92C229.962 92.4213 230.042 92.9813 230.042 93.6V94.336H223.994L224.026 92.848H227.866C227.855 92.6347 227.812 92.4373 227.738 92.256C227.674 92.064 227.578 91.8987 227.45 91.76C227.332 91.6213 227.183 91.5147 227.002 91.44C226.831 91.3547 226.628 91.312 226.394 91.312C226.095 91.312 225.807 91.4027 225.53 91.584C225.263 91.7547 225.044 92.0213 224.874 92.384C224.714 92.736 224.634 93.2 224.634 93.776ZM231.195 97.344V95.2C231.461 95.4453 231.76 95.6533 232.091 95.824C232.421 95.9947 232.757 96.128 233.099 96.224C233.451 96.3093 233.781 96.352 234.091 96.352C234.325 96.352 234.533 96.3307 234.715 96.288C234.907 96.2347 235.056 96.1547 235.163 96.048C235.28 95.9413 235.339 95.8027 235.339 95.632C235.339 95.3973 235.237 95.2213 235.035 95.104C234.832 94.976 234.571 94.8693 234.251 94.784C233.941 94.6987 233.611 94.6027 233.259 94.496C232.907 94.3893 232.571 94.2453 232.251 94.064C231.941 93.8827 231.685 93.6373 231.483 93.328C231.291 93.0187 231.195 92.608 231.195 92.096C231.195 91.552 231.339 91.0827 231.627 90.688C231.915 90.2933 232.309 89.9947 232.811 89.792C233.312 89.5787 233.872 89.472 234.491 89.472C235.013 89.472 235.493 89.5307 235.931 89.648C236.368 89.7653 236.768 89.9467 237.131 90.192V92.32C236.757 92.0213 236.357 91.776 235.931 91.584C235.504 91.392 235.056 91.296 234.587 91.296C234.267 91.296 233.995 91.36 233.771 91.488C233.557 91.616 233.451 91.792 233.451 92.016C233.451 92.24 233.552 92.4107 233.755 92.528C233.957 92.6453 234.213 92.7467 234.523 92.832C234.832 92.9173 235.163 93.0133 235.515 93.12C235.877 93.2267 236.213 93.3707 236.523 93.552C236.843 93.7333 237.099 93.984 237.291 94.304C237.493 94.624 237.595 95.0453 237.595 95.568C237.595 96.1333 237.44 96.6133 237.131 97.008C236.832 97.4027 236.421 97.7013 235.899 97.904C235.387 98.096 234.8 98.192 234.139 98.192C233.584 98.192 233.04 98.1173 232.507 97.968C231.984 97.8187 231.547 97.6107 231.195 97.344Z" fill="#0D7680"/>
<rect x="255" y="70.5" width="79" height="43" stroke="#0D7680"/>
<path d="M280.782 86.512H283.182V98H280.782V93.168H275.582V98H273.182V86.512H275.582V91.088H280.782V86.512ZM284.761 93.824C284.761 92.9707 284.932 92.2187 285.273 91.568C285.625 90.9067 286.105 90.3947 286.713 90.032C287.332 89.6587 288.047 89.472 288.857 89.472C289.668 89.472 290.383 89.6587 291.001 90.032C291.62 90.3947 292.1 90.9067 292.441 91.568C292.793 92.2187 292.969 92.9707 292.969 93.824C292.969 94.6773 292.793 95.4347 292.441 96.096C292.1 96.7573 291.62 97.2747 291.001 97.648C290.383 98.0107 289.668 98.192 288.857 98.192C288.047 98.192 287.332 98.0107 286.713 97.648C286.105 97.2747 285.625 96.7573 285.273 96.096C284.932 95.4347 284.761 94.6773 284.761 93.824ZM287.065 93.824C287.065 94.2933 287.135 94.7147 287.273 95.088C287.412 95.4507 287.615 95.7333 287.881 95.936C288.148 96.1387 288.473 96.24 288.857 96.24C289.252 96.24 289.577 96.1387 289.833 95.936C290.1 95.7333 290.303 95.4507 290.441 95.088C290.58 94.7147 290.649 94.2933 290.649 93.824C290.649 93.3653 290.58 92.9547 290.441 92.592C290.303 92.2293 290.1 91.9467 289.833 91.744C289.577 91.5307 289.252 91.424 288.857 91.424C288.473 91.424 288.148 91.5307 287.881 91.744C287.615 91.9467 287.412 92.2293 287.273 92.592C287.135 92.9547 287.065 93.3653 287.065 93.824ZM301.854 89.664V98H299.518V97.248C299.294 97.5147 298.99 97.7387 298.606 97.92C298.222 98.1013 297.784 98.192 297.294 98.192C296.664 98.192 296.131 98.064 295.694 97.808C295.256 97.552 294.92 97.1947 294.686 96.736C294.462 96.2667 294.35 95.7227 294.35 95.104V89.664H296.686V94.624C296.686 95.0613 296.792 95.4187 297.006 95.696C297.23 95.9733 297.571 96.112 298.03 96.112C298.382 96.112 298.696 96.0107 298.974 95.808C299.251 95.5947 299.432 95.3067 299.518 94.944V89.664H301.854ZM308.939 89.616V91.936C308.779 91.84 308.598 91.7707 308.395 91.728C308.203 91.6853 308.001 91.664 307.787 91.664C307.531 91.664 307.291 91.7067 307.067 91.792C306.843 91.8773 306.657 92.0053 306.507 92.176C306.358 92.3467 306.257 92.56 306.203 92.816V98H303.867V89.664H306.203V90.448C306.321 90.256 306.47 90.0853 306.651 89.936C306.843 89.7867 307.057 89.6747 307.291 89.6C307.537 89.5147 307.793 89.472 308.059 89.472C308.262 89.472 308.443 89.488 308.603 89.52C308.763 89.5413 308.875 89.5733 308.939 89.616ZM309.968 97.344V95.2C310.235 95.4453 310.533 95.6533 310.864 95.824C311.195 95.9947 311.531 96.128 311.872 96.224C312.224 96.3093 312.555 96.352 312.864 96.352C313.099 96.352 313.307 96.3307 313.488 96.288C313.68 96.2347 313.829 96.1547 313.936 96.048C314.053 95.9413 314.112 95.8027 314.112 95.632C314.112 95.3973 314.011 95.2213 313.808 95.104C313.605 94.976 313.344 94.8693 313.024 94.784C312.715 94.6987 312.384 94.6027 312.032 94.496C311.68 94.3893 311.344 94.2453 311.024 94.064C310.715 93.8827 310.459 93.6373 310.256 93.328C310.064 93.0187 309.968 92.608 309.968 92.096C309.968 91.552 310.112 91.0827 310.4 90.688C310.688 90.2933 311.083 89.9947 311.584 89.792C312.085 89.5787 312.645 89.472 313.264 89.472C313.787 89.472 314.267 89.5307 314.704 89.648C315.141 89.7653 315.541 89.9467 315.904 90.192V92.32C315.531 92.0213 315.131 91.776 314.704 91.584C314.277 91.392 313.829 91.296 313.36 91.296C313.04 91.296 312.768 91.36 312.544 91.488C312.331 91.616 312.224 91.792 312.224 92.016C312.224 92.24 312.325 92.4107 312.528 92.528C312.731 92.6453 312.987 92.7467 313.296 92.832C313.605 92.9173 313.936 93.0133 314.288 93.12C314.651 93.2267 314.987 93.3707 315.296 93.552C315.616 93.7333 315.872 93.984 316.064 94.304C316.267 94.624 316.368 95.0453 316.368 95.568C316.368 96.1333 316.213 96.6133 315.904 97.008C315.605 97.4027 315.195 97.7013 314.672 97.904C314.16 98.096 313.573 98.192 312.912 98.192C312.357 98.192 311.813 98.1173 311.28 97.968C310.757 97.8187 310.32 97.6107 309.968 97.344Z" fill="#0D7680"/>
<rect x="335" y="70.5" width="79" height="43" stroke="#0D7680"/>
<path d="M359.824 95.92H361.424C362.16 95.92 362.773 95.7707 363.264 95.472C363.765 95.1733 364.144 94.752 364.4 94.208C364.656 93.6533 364.784 93.0027 364.784 92.256C364.784 91.4987 364.656 90.848 364.4 90.304C364.144 89.76 363.765 89.3387 363.264 89.04C362.773 88.7413 362.16 88.592 361.424 88.592H359.824V95.92ZM357.456 98V86.512H361.536C362.688 86.512 363.685 86.7467 364.528 87.216C365.381 87.6853 366.037 88.352 366.496 89.216C366.954 90.0693 367.184 91.0827 367.184 92.256C367.184 93.4187 366.954 94.432 366.496 95.296C366.037 96.16 365.381 96.8267 364.528 97.296C363.685 97.7653 362.688 98 361.536 98H357.456ZM371.744 96.496C372.096 96.496 372.411 96.4267 372.688 96.288C372.976 96.1387 373.174 95.952 373.28 95.728V95.104C373.174 94.8907 372.976 94.72 372.688 94.592C372.411 94.464 372.096 94.4 371.744 94.4C371.488 94.4 371.248 94.4373 371.024 94.512C370.8 94.5867 370.619 94.704 370.48 94.864C370.352 95.0133 370.288 95.2053 370.288 95.44C370.288 95.6747 370.352 95.872 370.48 96.032C370.619 96.1813 370.8 96.2987 371.024 96.384C371.248 96.4587 371.488 96.496 371.744 96.496ZM373.28 92.736C373.28 92.3733 373.126 92.0693 372.816 91.824C372.507 91.5787 372.032 91.456 371.392 91.456C370.966 91.456 370.56 91.52 370.176 91.648C369.792 91.7653 369.435 91.9307 369.104 92.144V90.144C369.392 89.952 369.787 89.792 370.288 89.664C370.8 89.536 371.334 89.472 371.888 89.472C372.667 89.472 373.323 89.6 373.856 89.856C374.39 90.1013 374.795 90.464 375.072 90.944C375.36 91.4133 375.504 91.9893 375.504 92.672V98H373.28V97.568C373.12 97.7067 372.859 97.8453 372.496 97.984C372.134 98.112 371.723 98.176 371.264 98.176C370.699 98.176 370.176 98.064 369.696 97.84C369.216 97.616 368.838 97.3013 368.56 96.896C368.283 96.4907 368.144 96.0107 368.144 95.456C368.144 94.9013 368.283 94.4213 368.56 94.016C368.838 93.6107 369.216 93.3013 369.696 93.088C370.176 92.864 370.699 92.752 371.264 92.752C371.723 92.752 372.134 92.8107 372.496 92.928C372.87 93.0453 373.131 93.1733 373.28 93.312V92.736ZM379.604 98.032L376.404 89.664H378.852L380.756 95.184L382.66 89.664H385.012L380.66 101.12H378.388L379.604 98.032ZM385.695 97.344V95.2C385.961 95.4453 386.26 95.6533 386.591 95.824C386.921 95.9947 387.257 96.128 387.599 96.224C387.951 96.3093 388.281 96.352 388.591 96.352C388.825 96.352 389.033 96.3307 389.215 96.288C389.407 96.2347 389.556 96.1547 389.663 96.048C389.78 95.9413 389.839 95.8027 389.839 95.632C389.839 95.3973 389.737 95.2213 389.535 95.104C389.332 94.976 389.071 94.8693 388.751 94.784C388.441 94.6987 388.111 94.6027 387.759 94.496C387.407 94.3893 387.071 94.2453 386.751 94.064C386.441 93.8827 386.185 93.6373 385.983 93.328C385.791 93.0187 385.695 92.608 385.695 92.096C385.695 91.552 385.839 91.0827 386.127 90.688C386.415 90.2933 386.809 89.9947 387.311 89.792C387.812 89.5787 388.372 89.472 388.991 89.472C389.513 89.472 389.993 89.5307 390.431 89.648C390.868 89.7653 391.268 89.9467 391.631 90.192V92.32C391.257 92.0213 390.857 91.776 390.431 91.584C390.004 91.392 389.556 91.296 389.087 91.296C388.767 91.296 388.495 91.36 388.271 91.488C388.057 91.616 387.951 91.792 387.951 92.016C387.951 92.24 388.052 92.4107 388.255 92.528C388.457 92.6453 388.713 92.7467 389.023 92.832C389.332 92.9173 389.663 93.0133 390.015 93.12C390.377 93.2267 390.713 93.3707 391.023 93.552C391.343 93.7333 391.599 93.984 391.791 94.304C391.993 94.624 392.095 95.0453 392.095 95.568C392.095 96.1333 391.94 96.6133 391.631 97.008C391.332 97.4027 390.921 97.7013 390.399 97.904C389.887 98.096 389.3 98.192 388.639 98.192C388.084 98.192 387.54 98.1173 387.007 97.968C386.484 97.8187 386.047 97.6107 385.695 97.344Z" fill="#0D7680"/>
<rect x="415" y="70.5" width="79" height="43" stroke="#0D7680"/>
<path d="M437.075 86.512H438.947L440.947 94.288L442.851 86.512H445.203L442.211 98H440.019L437.987 90.4L435.955 98H433.779L430.803 86.512H433.187L435.075 94.272L437.075 86.512ZM447.36 93.776C447.36 94.3733 447.462 94.8587 447.664 95.232C447.878 95.5947 448.166 95.8613 448.528 96.032C448.902 96.192 449.323 96.272 449.792 96.272C450.23 96.272 450.635 96.2187 451.008 96.112C451.392 96.0053 451.787 95.8187 452.192 95.552V97.456C451.84 97.712 451.424 97.8987 450.944 98.016C450.464 98.1333 449.947 98.192 449.392 98.192C448.539 98.192 447.792 98.016 447.152 97.664C446.523 97.3013 446.027 96.7947 445.664 96.144C445.312 95.4827 445.136 94.7147 445.136 93.84C445.136 92.9973 445.302 92.2453 445.632 91.584C445.974 90.9227 446.438 90.4053 447.024 90.032C447.622 89.648 448.304 89.456 449.072 89.456C449.68 89.456 450.214 89.5573 450.672 89.76C451.131 89.9627 451.515 90.2453 451.824 90.608C452.144 90.9707 452.379 91.408 452.528 91.92C452.688 92.4213 452.768 92.9813 452.768 93.6V94.336H446.72L446.752 92.848H450.592C450.582 92.6347 450.539 92.4373 450.464 92.256C450.4 92.064 450.304 91.8987 450.176 91.76C450.059 91.6213 449.91 91.5147 449.728 91.44C449.558 91.3547 449.355 91.312 449.12 91.312C448.822 91.312 448.534 91.4027 448.256 91.584C447.99 91.7547 447.771 92.0213 447.6 92.384C447.44 92.736 447.36 93.2 447.36 93.776ZM456.048 93.776C456.048 94.3733 456.149 94.8587 456.352 95.232C456.565 95.5947 456.853 95.8613 457.216 96.032C457.589 96.192 458.01 96.272 458.48 96.272C458.917 96.272 459.322 96.2187 459.696 96.112C460.08 96.0053 460.474 95.8187 460.88 95.552V97.456C460.528 97.712 460.112 97.8987 459.632 98.016C459.152 98.1333 458.634 98.192 458.08 98.192C457.226 98.192 456.48 98.016 455.84 97.664C455.21 97.3013 454.714 96.7947 454.352 96.144C454 95.4827 453.824 94.7147 453.824 93.84C453.824 92.9973 453.989 92.2453 454.32 91.584C454.661 90.9227 455.125 90.4053 455.712 90.032C456.309 89.648 456.992 89.456 457.76 89.456C458.368 89.456 458.901 89.5573 459.36 89.76C459.818 89.9627 460.202 90.2453 460.512 90.608C460.832 90.9707 461.066 91.408 461.216 91.92C461.376 92.4213 461.456 92.9813 461.456 93.6V94.336H455.408L455.44 92.848H459.28C459.269 92.6347 459.226 92.4373 459.152 92.256C459.088 92.064 458.992 91.8987 458.864 91.76C458.746 91.6213 458.597 91.5147 458.416 91.44C458.245 91.3547 458.042 91.312 457.808 91.312C457.509 91.312 457.221 91.4027 456.944 91.584C456.677 91.7547 456.458 92.0213 456.288 92.384C456.128 92.736 456.048 93.2 456.048 93.776ZM467.441 93.456L471.009 98H468.289L465.297 94.16V98H462.961V85.84H465.297V92.896L468.193 89.664H470.897L467.441 93.456ZM471.484 97.344V95.2C471.75 95.4453 472.049 95.6533 472.38 95.824C472.71 95.9947 473.046 96.128 473.388 96.224C473.74 96.3093 474.07 96.352 474.38 96.352C474.614 96.352 474.822 96.3307 475.004 96.288C475.196 96.2347 475.345 96.1547 475.452 96.048C475.569 95.9413 475.628 95.8027 475.628 95.632C475.628 95.3973 475.526 95.2213 475.324 95.104C475.121 94.976 474.86 94.8693 474.54 94.784C474.23 94.6987 473.9 94.6027 473.548 94.496C473.196 94.3893 472.86 94.2453 472.54 94.064C472.23 93.8827 471.974 93.6373 471.772 93.328C471.58 93.0187 471.484 92.608 471.484 92.096C471.484 91.552 471.628 91.0827 471.916 90.688C472.204 90.2933 472.598 89.9947 473.1 89.792C473.601 89.5787 474.161 89.472 474.78 89.472C475.302 89.472 475.782 89.5307 476.22 89.648C476.657 89.7653 477.057 89.9467 477.42 90.192V92.32C477.046 92.0213 476.646 91.776 476.22 91.584C475.793 91.392 475.345 91.296 474.876 91.296C474.556 91.296 474.284 91.36 474.06 91.488C473.846 91.616 473.74 91.792 473.74 92.016C473.74 92.24 473.841 92.4107 474.044 92.528C474.246 92.6453 474.502 92.7467 474.812 92.832C475.121 92.9173 475.452 93.0133 475.804 93.12C476.166 93.2267 476.502 93.3707 476.812 93.552C477.132 93.7333 477.388 93.984 477.58 94.304C477.782 94.624 477.884 95.0453 477.884 95.568C477.884 96.1333 477.729 96.6133 477.42 97.008C477.121 97.4027 476.71 97.7013 476.188 97.904C475.676 98.096 475.089 98.192 474.428 98.192C473.873 98.192 473.329 98.1173 472.796 97.968C472.273 97.8187 471.836 97.6107 471.484 97.344Z" fill="#0D7680"/>
<rect x="495" y="70.5" width="87" height="43" stroke="#0D7680"/>
<path d="M520.76 90.528L517.448 95.536L514.12 90.528V98H511.768V86.512H513.976L517.464 91.936L520.952 86.512H523.112V98H520.76V90.528ZM524.691 93.824C524.691 92.9707 524.862 92.2187 525.203 91.568C525.555 90.9067 526.035 90.3947 526.643 90.032C527.262 89.6587 527.976 89.472 528.787 89.472C529.598 89.472 530.312 89.6587 530.931 90.032C531.55 90.3947 532.03 90.9067 532.371 91.568C532.723 92.2187 532.899 92.9707 532.899 93.824C532.899 94.6773 532.723 95.4347 532.371 96.096C532.03 96.7573 531.55 97.2747 530.931 97.648C530.312 98.0107 529.598 98.192 528.787 98.192C527.976 98.192 527.262 98.0107 526.643 97.648C526.035 97.2747 525.555 96.7573 525.203 96.096C524.862 95.4347 524.691 94.6773 524.691 93.824ZM526.995 93.824C526.995 94.2933 527.064 94.7147 527.203 95.088C527.342 95.4507 527.544 95.7333 527.811 95.936C528.078 96.1387 528.403 96.24 528.787 96.24C529.182 96.24 529.507 96.1387 529.763 95.936C530.03 95.7333 530.232 95.4507 530.371 95.088C530.51 94.7147 530.579 94.2933 530.579 93.824C530.579 93.3653 530.51 92.9547 530.371 92.592C530.232 92.2293 530.03 91.9467 529.763 91.744C529.507 91.5307 529.182 91.424 528.787 91.424C528.403 91.424 528.078 91.5307 527.811 91.744C527.544 91.9467 527.342 92.2293 527.203 92.592C527.064 92.9547 526.995 93.3653 526.995 93.824ZM534.375 98V89.664H536.711V90.416C536.935 90.1493 537.239 89.9253 537.623 89.744C538.018 89.5627 538.461 89.472 538.951 89.472C539.581 89.472 540.114 89.6 540.551 89.856C540.989 90.112 541.325 90.4693 541.559 90.928C541.794 91.3867 541.911 91.9307 541.911 92.56V98H539.591V93.056C539.591 92.5973 539.474 92.2347 539.239 91.968C539.015 91.6907 538.674 91.552 538.215 91.552C537.981 91.552 537.757 91.6 537.543 91.696C537.341 91.7813 537.165 91.9147 537.015 92.096C536.866 92.2667 536.765 92.4693 536.711 92.704V98H534.375ZM547.109 91.536V98H544.789V91.536H543.189V89.664H544.789V87.408H547.109V89.664H548.885V91.536H547.109ZM550.297 98V85.84H552.633V90.416C552.857 90.1493 553.161 89.9253 553.545 89.744C553.94 89.5627 554.382 89.472 554.873 89.472C555.502 89.472 556.036 89.6 556.473 89.856C556.91 90.112 557.246 90.4693 557.481 90.928C557.716 91.3867 557.833 91.9307 557.833 92.56V98H555.513V93.056C555.513 92.5973 555.396 92.2347 555.161 91.968C554.937 91.6907 554.596 91.552 554.137 91.552C553.902 91.552 553.678 91.6 553.465 91.696C553.262 91.7813 553.086 91.9147 552.937 92.096C552.788 92.2667 552.686 92.4693 552.633 92.704V98H550.297ZM559.382 97.344V95.2C559.649 95.4453 559.948 95.6533 560.278 95.824C560.609 95.9947 560.945 96.128 561.286 96.224C561.638 96.3093 561.969 96.352 562.278 96.352C562.513 96.352 562.721 96.3307 562.902 96.288C563.094 96.2347 563.244 96.1547 563.35 96.048C563.468 95.9413 563.526 95.8027 563.526 95.632C563.526 95.3973 563.425 95.2213 563.222 95.104C563.02 94.976 562.758 94.8693 562.438 94.784C562.129 94.6987 561.798 94.6027 561.446 94.496C561.094 94.3893 560.758 94.2453 560.438 94.064C560.129 93.8827 559.873 93.6373 559.67 93.328C559.478 93.0187 559.382 92.608 559.382 92.096C559.382 91.552 559.526 91.0827 559.814 90.688C560.102 90.2933 560.497 89.9947 560.998 89.792C561.5 89.5787 562.06 89.472 562.678 89.472C563.201 89.472 563.681 89.5307 564.118 89.648C564.556 89.7653 564.956 89.9467 565.318 90.192V92.32C564.945 92.0213 564.545 91.776 564.118 91.584C563.692 91.392 563.244 91.296 562.774 91.296C562.454 91.296 562.182 91.36 561.958 91.488C561.745 91.616 561.638 91.792 561.638 92.016C561.638 92.24 561.74 92.4107 561.942 92.528C562.145 92.6453 562.401 92.7467 562.71 92.832C563.02 92.9173 563.35 93.0133 563.702 93.12C564.065 93.2267 564.401 93.3707 564.71 93.552C565.03 93.7333 565.286 93.984 565.478 94.304C565.681 94.624 565.782 95.0453 565.782 95.568C565.782 96.1333 565.628 96.6133 565.318 97.008C565.02 97.4027 564.609 97.7013 564.086 97.904C563.574 98.096 562.988 98.192 562.326 98.192C561.772 98.192 561.228 98.1173 560.694 97.968C560.172 97.8187 559.734 97.6107 559.382 97.344Z" fill="#0D7680"/>
<path d="M660.5 70.5C661.328 70.5 662 71.1716 662 72V112C662 112.828 661.328 113.5 660.5 113.5H583V70.5H660.5Z" stroke="#0D7680"/>
<path d="M611.443 91.36L614.211 86.512H616.707L612.579 93.632V98H610.195V93.632L606.067 86.512H608.659L611.443 91.36ZM617.876 93.776C617.876 94.3733 617.977 94.8587 618.18 95.232C618.393 95.5947 618.681 95.8613 619.044 96.032C619.417 96.192 619.839 96.272 620.308 96.272C620.745 96.272 621.151 96.2187 621.524 96.112C621.908 96.0053 622.303 95.8187 622.708 95.552V97.456C622.356 97.712 621.94 97.8987 621.46 98.016C620.98 98.1333 620.463 98.192 619.908 98.192C619.055 98.192 618.308 98.016 617.668 97.664C617.039 97.3013 616.543 96.7947 616.18 96.144C615.828 95.4827 615.652 94.7147 615.652 93.84C615.652 92.9973 615.817 92.2453 616.148 91.584C616.489 90.9227 616.953 90.4053 617.54 90.032C618.137 89.648 618.82 89.456 619.588 89.456C620.196 89.456 620.729 89.5573 621.188 89.76C621.647 89.9627 622.031 90.2453 622.34 90.608C622.66 90.9707 622.895 91.408 623.044 91.92C623.204 92.4213 623.284 92.9813 623.284 93.6V94.336H617.236L617.268 92.848H621.108C621.097 92.6347 621.055 92.4373 620.98 92.256C620.916 92.064 620.82 91.8987 620.692 91.76C620.575 91.6213 620.425 91.5147 620.244 91.44C620.073 91.3547 619.871 91.312 619.636 91.312C619.337 91.312 619.049 91.4027 618.772 91.584C618.505 91.7547 618.287 92.0213 618.116 92.384C617.956 92.736 617.876 93.2 617.876 93.776ZM627.893 96.496C628.245 96.496 628.56 96.4267 628.837 96.288C629.125 96.1387 629.322 95.952 629.429 95.728V95.104C629.322 94.8907 629.125 94.72 628.837 94.592C628.56 94.464 628.245 94.4 627.893 94.4C627.637 94.4 627.397 94.4373 627.173 94.512C626.949 94.5867 626.768 94.704 626.629 94.864C626.501 95.0133 626.437 95.2053 626.437 95.44C626.437 95.6747 626.501 95.872 626.629 96.032C626.768 96.1813 626.949 96.2987 627.173 96.384C627.397 96.4587 627.637 96.496 627.893 96.496ZM629.429 92.736C629.429 92.3733 629.274 92.0693 628.965 91.824C628.656 91.5787 628.181 91.456 627.541 91.456C627.114 91.456 626.709 91.52 626.325 91.648C625.941 91.7653 625.584 91.9307 625.253 92.144V90.144C625.541 89.952 625.936 89.792 626.437 89.664C626.949 89.536 627.482 89.472 628.037 89.472C628.816 89.472 629.472 89.6 630.005 89.856C630.538 90.1013 630.944 90.464 631.221 90.944C631.509 91.4133 631.653 91.9893 631.653 92.672V98H629.429V97.568C629.269 97.7067 629.008 97.8453 628.645 97.984C628.282 98.112 627.872 98.176 627.413 98.176C626.848 98.176 626.325 98.064 625.845 97.84C625.365 97.616 624.986 97.3013 624.709 96.896C624.432 96.4907 624.293 96.0107 624.293 95.456C624.293 94.9013 624.432 94.4213 624.709 94.016C624.986 93.6107 625.365 93.3013 625.845 93.088C626.325 92.864 626.848 92.752 627.413 92.752C627.872 92.752 628.282 92.8107 628.645 92.928C629.018 93.0453 629.28 93.1733 629.429 93.312V92.736ZM638.643 89.616V91.936C638.483 91.84 638.301 91.7707 638.099 91.728C637.907 91.6853 637.704 91.664 637.491 91.664C637.235 91.664 636.995 91.7067 636.771 91.792C636.547 91.8773 636.36 92.0053 636.211 92.176C636.061 92.3467 635.96 92.56 635.907 92.816V98H633.571V89.664H635.907V90.448C636.024 90.256 636.173 90.0853 636.355 89.936C636.547 89.7867 636.76 89.6747 636.995 89.6C637.24 89.5147 637.496 89.472 637.763 89.472C637.965 89.472 638.147 89.488 638.307 89.52C638.467 89.5413 638.579 89.5733 638.643 89.616Z" fill="#0D7680"/>
</svg>
