<svg width="711" height="184" viewBox="0 0 711 184" fill="none" xmlns="http://www.w3.org/2000/svg">
<path d="M235 70.5H326.5V113.5H235C234.172 113.5 233.5 112.828 233.5 112V72C233.5 71.2233 234.09 70.5846 234.847 70.5078L235 70.5Z" stroke="#593380"/>
<path d="M249.828 97.216V94.848C250.169 95.104 250.542 95.3333 250.948 95.536C251.353 95.728 251.774 95.8773 252.212 95.984C252.649 96.08 253.086 96.128 253.524 96.128C253.897 96.128 254.238 96.0853 254.548 96C254.868 95.9147 255.124 95.776 255.316 95.584C255.508 95.392 255.604 95.152 255.604 94.864C255.604 94.5547 255.497 94.304 255.284 94.112C255.081 93.92 254.804 93.7547 254.452 93.616C254.11 93.4667 253.732 93.328 253.316 93.2C252.9 93.072 252.484 92.9227 252.068 92.752C251.652 92.5813 251.268 92.368 250.916 92.112C250.574 91.856 250.297 91.536 250.084 91.152C249.87 90.7573 249.764 90.2773 249.764 89.712C249.764 89.0187 249.95 88.4213 250.324 87.92C250.697 87.408 251.193 87.0133 251.812 86.736C252.441 86.4587 253.129 86.32 253.876 86.32C254.569 86.32 255.204 86.4 255.78 86.56C256.356 86.7093 256.873 86.928 257.332 87.216V89.568C256.841 89.1947 256.318 88.9013 255.764 88.688C255.209 88.464 254.601 88.352 253.94 88.352C253.417 88.352 252.985 88.4533 252.644 88.656C252.302 88.848 252.132 89.1467 252.132 89.552C252.132 89.84 252.233 90.08 252.436 90.272C252.649 90.4533 252.932 90.6133 253.284 90.752C253.636 90.8907 254.02 91.0293 254.436 91.168C254.852 91.3067 255.262 91.4613 255.668 91.632C256.084 91.8027 256.468 92.0213 256.82 92.288C257.172 92.544 257.449 92.864 257.652 93.248C257.865 93.632 257.972 94.1067 257.972 94.672C257.972 95.408 257.769 96.0427 257.364 96.576C256.958 97.0987 256.42 97.4987 255.748 97.776C255.076 98.0533 254.345 98.192 253.556 98.192C252.788 98.192 252.078 98.096 251.428 97.904C250.777 97.712 250.244 97.4827 249.828 97.216ZM261.313 93.776C261.313 94.3733 261.415 94.8587 261.617 95.232C261.831 95.5947 262.119 95.8613 262.481 96.032C262.855 96.192 263.276 96.272 263.745 96.272C264.183 96.272 264.588 96.2187 264.961 96.112C265.345 96.0053 265.74 95.8187 266.145 95.552V97.456C265.793 97.712 265.377 97.8987 264.897 98.016C264.417 98.1333 263.9 98.192 263.345 98.192C262.492 98.192 261.745 98.016 261.105 97.664C260.476 97.3013 259.98 96.7947 259.617 96.144C259.265 95.4827 259.089 94.7147 259.089 93.84C259.089 92.9973 259.255 92.2453 259.585 91.584C259.927 90.9227 260.391 90.4053 260.977 90.032C261.575 89.648 262.257 89.456 263.025 89.456C263.633 89.456 264.167 89.5573 264.625 89.76C265.084 89.9627 265.468 90.2453 265.777 90.608C266.097 90.9707 266.332 91.408 266.481 91.92C266.641 92.4213 266.721 92.9813 266.721 93.6V94.336H260.673L260.705 92.848H264.545C264.535 92.6347 264.492 92.4373 264.417 92.256C264.353 92.064 264.257 91.8987 264.129 91.76C264.012 91.6213 263.863 91.5147 263.681 91.44C263.511 91.3547 263.308 91.312 263.073 91.312C262.775 91.312 262.487 91.4027 262.209 91.584C261.943 91.7547 261.724 92.0213 261.553 92.384C261.393 92.736 261.313 93.2 261.313 93.776ZM270.081 93.824C270.081 94.304 270.172 94.7253 270.353 95.088C270.545 95.44 270.806 95.7173 271.137 95.92C271.478 96.112 271.862 96.208 272.289 96.208C272.652 96.208 272.998 96.144 273.329 96.016C273.67 95.8773 273.99 95.68 274.289 95.424V97.536C273.99 97.7707 273.644 97.936 273.249 98.032C272.854 98.1387 272.444 98.192 272.017 98.192C271.196 98.192 270.465 98.0107 269.825 97.648C269.185 97.2853 268.684 96.7787 268.321 96.128C267.958 95.4667 267.777 94.6987 267.777 93.824C267.777 92.9493 267.958 92.1867 268.321 91.536C268.684 90.8747 269.185 90.368 269.825 90.016C270.465 89.6533 271.196 89.472 272.017 89.472C272.444 89.472 272.854 89.5253 273.249 89.632C273.644 89.728 273.99 89.8933 274.289 90.128V92.224C273.99 91.968 273.67 91.776 273.329 91.648C272.998 91.52 272.652 91.456 272.289 91.456C271.862 91.456 271.478 91.5573 271.137 91.76C270.806 91.952 270.545 92.2293 270.353 92.592C270.172 92.944 270.081 93.3547 270.081 93.824ZM275.355 93.824C275.355 92.9707 275.526 92.2187 275.867 91.568C276.219 90.9067 276.699 90.3947 277.307 90.032C277.926 89.6587 278.64 89.472 279.451 89.472C280.262 89.472 280.976 89.6587 281.595 90.032C282.214 90.3947 282.694 90.9067 283.035 91.568C283.387 92.2187 283.563 92.9707 283.563 93.824C283.563 94.6773 283.387 95.4347 283.035 96.096C282.694 96.7573 282.214 97.2747 281.595 97.648C280.976 98.0107 280.262 98.192 279.451 98.192C278.64 98.192 277.926 98.0107 277.307 97.648C276.699 97.2747 276.219 96.7573 275.867 96.096C275.526 95.4347 275.355 94.6773 275.355 93.824ZM277.659 93.824C277.659 94.2933 277.728 94.7147 277.867 95.088C278.006 95.4507 278.208 95.7333 278.475 95.936C278.742 96.1387 279.067 96.24 279.451 96.24C279.846 96.24 280.171 96.1387 280.427 95.936C280.694 95.7333 280.896 95.4507 281.035 95.088C281.174 94.7147 281.243 94.2933 281.243 93.824C281.243 93.3653 281.174 92.9547 281.035 92.592C280.896 92.2293 280.694 91.9467 280.427 91.744C280.171 91.5307 279.846 91.424 279.451 91.424C279.067 91.424 278.742 91.5307 278.475 91.744C278.208 91.9467 278.006 92.2293 277.867 92.592C277.728 92.9547 277.659 93.3653 277.659 93.824ZM285.039 98V89.664H287.375V90.416C287.599 90.1493 287.903 89.9253 288.287 89.744C288.682 89.5627 289.125 89.472 289.615 89.472C290.245 89.472 290.778 89.6 291.215 89.856C291.653 90.112 291.989 90.4693 292.223 90.928C292.458 91.3867 292.575 91.9307 292.575 92.56V98H290.255V93.056C290.255 92.5973 290.138 92.2347 289.903 91.968C289.679 91.6907 289.338 91.552 288.879 91.552C288.645 91.552 288.421 91.6 288.207 91.696C288.005 91.7813 287.829 91.9147 287.679 92.096C287.53 92.2667 287.429 92.4693 287.375 92.704V98H285.039ZM299.884 97.312C299.756 97.4613 299.586 97.6053 299.372 97.744C299.159 97.872 298.914 97.9787 298.636 98.064C298.359 98.1493 298.071 98.192 297.772 98.192C297.175 98.192 296.642 98.08 296.172 97.856C295.703 97.6213 295.303 97.3067 294.972 96.912C294.642 96.5067 294.391 96.0427 294.22 95.52C294.05 94.9867 293.964 94.4213 293.964 93.824C293.964 93.2267 294.05 92.6667 294.22 92.144C294.391 91.6107 294.642 91.1467 294.972 90.752C295.303 90.3573 295.703 90.048 296.172 89.824C296.642 89.5893 297.175 89.472 297.772 89.472C298.082 89.472 298.37 89.5147 298.636 89.6C298.914 89.6747 299.159 89.7813 299.372 89.92C299.586 90.0587 299.756 90.2027 299.884 90.352V85.84H302.204V98H299.884V97.312ZM299.884 95.2V92.464C299.746 92.176 299.532 91.9413 299.244 91.76C298.956 91.5787 298.642 91.488 298.3 91.488C297.98 91.488 297.698 91.5467 297.452 91.664C297.207 91.7813 296.999 91.9467 296.828 92.16C296.658 92.3627 296.524 92.608 296.428 92.896C296.332 93.184 296.284 93.4933 296.284 93.824C296.284 94.1653 296.332 94.48 296.428 94.768C296.524 95.0453 296.658 95.2907 296.828 95.504C296.999 95.7173 297.207 95.8827 297.452 96C297.698 96.1173 297.98 96.176 298.3 96.176C298.642 96.176 298.956 96.0853 299.244 95.904C299.532 95.7227 299.746 95.488 299.884 95.2ZM303.859 97.344V95.2C304.125 95.4453 304.424 95.6533 304.755 95.824C305.085 95.9947 305.421 96.128 305.763 96.224C306.115 96.3093 306.445 96.352 306.755 96.352C306.989 96.352 307.197 96.3307 307.379 96.288C307.571 96.2347 307.72 96.1547 307.827 96.048C307.944 95.9413 308.003 95.8027 308.003 95.632C308.003 95.3973 307.901 95.2213 307.699 95.104C307.496 94.976 307.235 94.8693 306.915 94.784C306.605 94.6987 306.275 94.6027 305.923 94.496C305.571 94.3893 305.235 94.2453 304.915 94.064C304.605 93.8827 304.349 93.6373 304.147 93.328C303.955 93.0187 303.859 92.608 303.859 92.096C303.859 91.552 304.003 91.0827 304.291 90.688C304.579 90.2933 304.973 89.9947 305.475 89.792C305.976 89.5787 306.536 89.472 307.155 89.472C307.677 89.472 308.157 89.5307 308.595 89.648C309.032 89.7653 309.432 89.9467 309.795 90.192V92.32C309.421 92.0213 309.021 91.776 308.595 91.584C308.168 91.392 307.72 91.296 307.251 91.296C306.931 91.296 306.659 91.36 306.435 91.488C306.221 91.616 306.115 91.792 306.115 92.016C306.115 92.24 306.216 92.4107 306.419 92.528C306.621 92.6453 306.877 92.7467 307.187 92.832C307.496 92.9173 307.827 93.0133 308.179 93.12C308.541 93.2267 308.877 93.3707 309.187 93.552C309.507 93.7333 309.763 93.984 309.955 94.304C310.157 94.624 310.259 95.0453 310.259 95.568C310.259 96.1333 310.104 96.6133 309.795 97.008C309.496 97.4027 309.085 97.7013 308.563 97.904C308.051 98.096 307.464 98.192 306.803 98.192C306.248 98.192 305.704 98.1173 305.171 97.968C304.648 97.8187 304.211 97.6107 303.859 97.344Z" fill="#593380"/>
<rect width="92" height="44" transform="translate(327 70)" fill="#593380"/>
<path d="M353.448 90.528L350.136 95.536L346.808 90.528V98H344.456V86.512H346.664L350.152 91.936L353.64 86.512H355.8V98H353.448V90.528ZM360.242 89.664V98H357.906V89.664H360.242ZM357.698 87.232C357.698 86.8373 357.832 86.5173 358.098 86.272C358.365 86.016 358.685 85.888 359.058 85.888C359.442 85.888 359.768 86.016 360.034 86.272C360.301 86.5173 360.434 86.8373 360.434 87.232C360.434 87.6053 360.301 87.92 360.034 88.176C359.768 88.432 359.442 88.56 359.058 88.56C358.685 88.56 358.365 88.432 358.098 88.176C357.832 87.92 357.698 87.6053 357.698 87.232ZM362.266 98V89.664H364.602V90.416C364.826 90.1493 365.13 89.9253 365.514 89.744C365.908 89.5627 366.351 89.472 366.842 89.472C367.471 89.472 368.004 89.6 368.442 89.856C368.879 90.112 369.215 90.4693 369.45 90.928C369.684 91.3867 369.802 91.9307 369.802 92.56V98H367.482V93.056C367.482 92.5973 367.364 92.2347 367.13 91.968C366.906 91.6907 366.564 91.552 366.106 91.552C365.871 91.552 365.647 91.6 365.434 91.696C365.231 91.7813 365.055 91.9147 364.906 92.096C364.756 92.2667 364.655 92.4693 364.602 92.704V98H362.266ZM379.127 89.664V98H376.791V97.248C376.567 97.5147 376.263 97.7387 375.879 97.92C375.495 98.1013 375.058 98.192 374.567 98.192C373.938 98.192 373.404 98.064 372.967 97.808C372.53 97.552 372.194 97.1947 371.959 96.736C371.735 96.2667 371.623 95.7227 371.623 95.104V89.664H373.959V94.624C373.959 95.0613 374.066 95.4187 374.279 95.696C374.503 95.9733 374.844 96.112 375.303 96.112C375.655 96.112 375.97 96.0107 376.247 95.808C376.524 95.5947 376.706 95.3067 376.791 94.944V89.664H379.127ZM384.437 91.536V98H382.117V91.536H380.517V89.664H382.117V87.408H384.437V89.664H386.213V91.536H384.437ZM389.134 93.776C389.134 94.3733 389.235 94.8587 389.438 95.232C389.651 95.5947 389.939 95.8613 390.302 96.032C390.675 96.192 391.096 96.272 391.566 96.272C392.003 96.272 392.408 96.2187 392.782 96.112C393.166 96.0053 393.56 95.8187 393.966 95.552V97.456C393.614 97.712 393.198 97.8987 392.718 98.016C392.238 98.1333 391.72 98.192 391.166 98.192C390.312 98.192 389.566 98.016 388.926 97.664C388.296 97.3013 387.8 96.7947 387.438 96.144C387.086 95.4827 386.91 94.7147 386.91 93.84C386.91 92.9973 387.075 92.2453 387.406 91.584C387.747 90.9227 388.211 90.4053 388.798 90.032C389.395 89.648 390.078 89.456 390.846 89.456C391.454 89.456 391.987 89.5573 392.446 89.76C392.904 89.9627 393.288 90.2453 393.598 90.608C393.918 90.9707 394.152 91.408 394.302 91.92C394.462 92.4213 394.542 92.9813 394.542 93.6V94.336H388.494L388.526 92.848H392.366C392.355 92.6347 392.312 92.4373 392.238 92.256C392.174 92.064 392.078 91.8987 391.95 91.76C391.832 91.6213 391.683 91.5147 391.502 91.44C391.331 91.3547 391.128 91.312 390.894 91.312C390.595 91.312 390.307 91.4027 390.03 91.584C389.763 91.7547 389.544 92.0213 389.374 92.384C389.214 92.736 389.134 93.2 389.134 93.776ZM395.695 97.344V95.2C395.961 95.4453 396.26 95.6533 396.591 95.824C396.921 95.9947 397.257 96.128 397.599 96.224C397.951 96.3093 398.281 96.352 398.591 96.352C398.825 96.352 399.033 96.3307 399.215 96.288C399.407 96.2347 399.556 96.1547 399.663 96.048C399.78 95.9413 399.839 95.8027 399.839 95.632C399.839 95.3973 399.737 95.2213 399.535 95.104C399.332 94.976 399.071 94.8693 398.751 94.784C398.441 94.6987 398.111 94.6027 397.759 94.496C397.407 94.3893 397.071 94.2453 396.751 94.064C396.441 93.8827 396.185 93.6373 395.983 93.328C395.791 93.0187 395.695 92.608 395.695 92.096C395.695 91.552 395.839 91.0827 396.127 90.688C396.415 90.2933 396.809 89.9947 397.311 89.792C397.812 89.5787 398.372 89.472 398.991 89.472C399.513 89.472 399.993 89.5307 400.431 89.648C400.868 89.7653 401.268 89.9467 401.631 90.192V92.32C401.257 92.0213 400.857 91.776 400.431 91.584C400.004 91.392 399.556 91.296 399.087 91.296C398.767 91.296 398.495 91.36 398.271 91.488C398.057 91.616 397.951 91.792 397.951 92.016C397.951 92.24 398.052 92.4107 398.255 92.528C398.457 92.6453 398.713 92.7467 399.023 92.832C399.332 92.9173 399.663 93.0133 400.015 93.12C400.377 93.2267 400.713 93.3707 401.023 93.552C401.343 93.7333 401.599 93.984 401.791 94.304C401.993 94.624 402.095 95.0453 402.095 95.568C402.095 96.1333 401.94 96.6133 401.631 97.008C401.332 97.4027 400.921 97.7013 400.399 97.904C399.887 98.096 399.3 98.192 398.639 98.192C398.084 98.192 397.54 98.1173 397.007 97.968C396.484 97.8187 396.047 97.6107 395.695 97.344Z" fill="white"/>
<rect x="419.5" y="70.5" width="79" height="43" stroke="#593380"/>
<path d="M445.282 86.512H447.682V98H445.282V93.168H440.082V98H437.682V86.512H440.082V91.088H445.282V86.512ZM449.261 93.824C449.261 92.9707 449.432 92.2187 449.773 91.568C450.125 90.9067 450.605 90.3947 451.213 90.032C451.832 89.6587 452.547 89.472 453.357 89.472C454.168 89.472 454.883 89.6587 455.501 90.032C456.12 90.3947 456.6 90.9067 456.941 91.568C457.293 92.2187 457.469 92.9707 457.469 93.824C457.469 94.6773 457.293 95.4347 456.941 96.096C456.6 96.7573 456.12 97.2747 455.501 97.648C454.883 98.0107 454.168 98.192 453.357 98.192C452.547 98.192 451.832 98.0107 451.213 97.648C450.605 97.2747 450.125 96.7573 449.773 96.096C449.432 95.4347 449.261 94.6773 449.261 93.824ZM451.565 93.824C451.565 94.2933 451.635 94.7147 451.773 95.088C451.912 95.4507 452.115 95.7333 452.381 95.936C452.648 96.1387 452.973 96.24 453.357 96.24C453.752 96.24 454.077 96.1387 454.333 95.936C454.6 95.7333 454.803 95.4507 454.941 95.088C455.08 94.7147 455.149 94.2933 455.149 93.824C455.149 93.3653 455.08 92.9547 454.941 92.592C454.803 92.2293 454.6 91.9467 454.333 91.744C454.077 91.5307 453.752 91.424 453.357 91.424C452.973 91.424 452.648 91.5307 452.381 91.744C452.115 91.9467 451.912 92.2293 451.773 92.592C451.635 92.9547 451.565 93.3653 451.565 93.824ZM466.354 89.664V98H464.018V97.248C463.794 97.5147 463.49 97.7387 463.106 97.92C462.722 98.1013 462.284 98.192 461.794 98.192C461.164 98.192 460.631 98.064 460.194 97.808C459.756 97.552 459.42 97.1947 459.186 96.736C458.962 96.2667 458.85 95.7227 458.85 95.104V89.664H461.186V94.624C461.186 95.0613 461.292 95.4187 461.506 95.696C461.73 95.9733 462.071 96.112 462.53 96.112C462.882 96.112 463.196 96.0107 463.474 95.808C463.751 95.5947 463.932 95.3067 464.018 94.944V89.664H466.354ZM473.439 89.616V91.936C473.279 91.84 473.098 91.7707 472.895 91.728C472.703 91.6853 472.501 91.664 472.287 91.664C472.031 91.664 471.791 91.7067 471.567 91.792C471.343 91.8773 471.157 92.0053 471.007 92.176C470.858 92.3467 470.757 92.56 470.703 92.816V98H468.367V89.664H470.703V90.448C470.821 90.256 470.97 90.0853 471.151 89.936C471.343 89.7867 471.557 89.6747 471.791 89.6C472.037 89.5147 472.293 89.472 472.559 89.472C472.762 89.472 472.943 89.488 473.103 89.52C473.263 89.5413 473.375 89.5733 473.439 89.616ZM474.468 97.344V95.2C474.735 95.4453 475.033 95.6533 475.364 95.824C475.695 95.9947 476.031 96.128 476.372 96.224C476.724 96.3093 477.055 96.352 477.364 96.352C477.599 96.352 477.807 96.3307 477.988 96.288C478.18 96.2347 478.329 96.1547 478.436 96.048C478.553 95.9413 478.612 95.8027 478.612 95.632C478.612 95.3973 478.511 95.2213 478.308 95.104C478.105 94.976 477.844 94.8693 477.524 94.784C477.215 94.6987 476.884 94.6027 476.532 94.496C476.18 94.3893 475.844 94.2453 475.524 94.064C475.215 93.8827 474.959 93.6373 474.756 93.328C474.564 93.0187 474.468 92.608 474.468 92.096C474.468 91.552 474.612 91.0827 474.9 90.688C475.188 90.2933 475.583 89.9947 476.084 89.792C476.585 89.5787 477.145 89.472 477.764 89.472C478.287 89.472 478.767 89.5307 479.204 89.648C479.641 89.7653 480.041 89.9467 480.404 90.192V92.32C480.031 92.0213 479.631 91.776 479.204 91.584C478.777 91.392 478.329 91.296 477.86 91.296C477.54 91.296 477.268 91.36 477.044 91.488C476.831 91.616 476.724 91.792 476.724 92.016C476.724 92.24 476.825 92.4107 477.028 92.528C477.231 92.6453 477.487 92.7467 477.796 92.832C478.105 92.9173 478.436 93.0133 478.788 93.12C479.151 93.2267 479.487 93.3707 479.796 93.552C480.116 93.7333 480.372 93.984 480.564 94.304C480.767 94.624 480.868 95.0453 480.868 95.568C480.868 96.1333 480.713 96.6133 480.404 97.008C480.105 97.4027 479.695 97.7013 479.172 97.904C478.66 98.096 478.073 98.192 477.412 98.192C476.857 98.192 476.313 98.1173 475.78 97.968C475.257 97.8187 474.82 97.6107 474.468 97.344Z" fill="#593380"/>
</svg>
