<svg xmlns="http://www.w3.org/2000/svg" width="275.242" height="14.046" viewBox="0 0 275.242 14.046"><g fill="#FFF"><path d="M6.593.945l5.039 12.892h-1.68L8.461 9.952H3.149l-1.47 3.884H0L5.039.945h1.554zM3.695 8.503h4.199l-2.1-5.501-2.099 5.501zM17.409 11.422c.861.798 1.932 1.26 3.065 1.26 1.029 0 1.932-.378 1.932-1.302 0-.693-.525-1.071-1.344-1.344l-1.281-.441c-1.406-.462-2.351-1.134-2.351-2.645 0-1.638 1.449-2.625 3.296-2.625 1.05 0 2.016.294 2.771.819v1.638c-.777-.651-1.638-1.113-2.771-1.113-.966 0-1.764.42-1.764 1.218 0 .756.504 1.008 1.386 1.323l1.428.483c1.407.483 2.184 1.302 2.184 2.625 0 1.722-1.533 2.708-3.485 2.708-1.218 0-2.373-.378-3.065-.924v-1.68zM27.005 9.448c.063 2.163 1.428 3.191 3.128 3.191 1.05 0 1.806-.252 2.646-.882v1.449c-.756.588-1.722.819-2.834.819-2.688 0-4.493-1.827-4.493-4.766 0-2.897 1.68-4.934 4.157-4.934 2.52 0 3.821 1.827 3.821 4.556v.567h-6.425zm.084-1.239h4.808c-.063-1.365-.756-2.541-2.268-2.541-1.238.001-2.246.82-2.54 2.541zM40.276 6.089c-.252-.168-.651-.252-1.05-.252-.987 0-1.848.651-2.163 1.743v6.257h-1.575V4.514h1.575v1.218a2.603 2.603 0 0 1 2.31-1.407c.399 0 .735.063.903.147v1.617zM44.729 13.836l-3.611-9.322h1.701l2.729 7.328 2.708-7.328h1.659l-3.632 9.322h-1.554zM52.394 2.708A1.022 1.022 0 0 1 51.386 1.7c0-.567.462-1.008 1.008-1.008.567 0 1.029.441 1.029 1.008 0 .547-.462 1.008-1.029 1.008zm.798 11.128h-1.575V4.514h1.575v9.322zM59.743 4.325c.903 0 1.848.21 2.499.777v1.596c-.672-.672-1.491-.966-2.394-.966-1.659 0-3.002 1.302-3.002 3.443s1.344 3.443 3.002 3.443c.903 0 1.722-.294 2.394-.966v1.596c-.651.567-1.596.777-2.499.777-2.52 0-4.493-1.869-4.493-4.85s1.974-4.85 4.493-4.85zM65.225 9.448c.063 2.163 1.428 3.191 3.128 3.191 1.05 0 1.806-.252 2.646-.882v1.449c-.756.588-1.722.819-2.834.819-2.688 0-4.493-1.827-4.493-4.766 0-2.897 1.68-4.934 4.157-4.934 2.52 0 3.821 1.827 3.821 4.556v.567h-6.425zm.084-1.239h4.808c-.063-1.365-.756-2.541-2.268-2.541-1.239.001-2.246.82-2.54 2.541zM82.927 1.638c-.294-.189-.651-.252-.987-.252-.924 0-1.533.588-1.533 1.701v1.428h2.1v1.344h-2.1v7.979h-1.554v-7.98h-1.575V4.514h1.575V2.96c0-1.869 1.218-2.96 2.855-2.96.504 0 .861.063 1.218.21v1.428zM89.038 6.089c-.252-.168-.651-.252-1.05-.252-.987 0-1.848.651-2.163 1.743v6.257H84.25V4.514h1.575v1.218a2.603 2.603 0 0 1 2.31-1.407c.399 0 .735.063.903.147v1.617zM94.246 14.025c-2.562 0-4.283-1.995-4.283-4.85s1.722-4.85 4.283-4.85c2.541 0 4.283 1.995 4.283 4.85s-1.742 4.85-4.283 4.85zm0-8.314c-1.68 0-2.688 1.428-2.688 3.464s1.008 3.464 2.688 3.464 2.688-1.428 2.688-3.464-1.008-3.464-2.688-3.464zM110.037 4.325c1.89 0 2.939 1.323 2.939 3.338v6.173h-1.596v-5.92c0-1.302-.567-2.163-1.764-2.163-.945 0-1.764.651-2.058 1.659v6.425h-1.575V7.916c0-1.302-.567-2.163-1.764-2.163-.945 0-1.764.651-2.058 1.659v6.425h-1.575V4.514h1.575v1.092c.462-.735 1.365-1.281 2.52-1.281 1.176 0 2.079.609 2.52 1.491.59-.84 1.534-1.491 2.836-1.491zM122.721 13.836h-1.574V5.858h-1.953V4.514h1.953V2.058h1.574v2.457h2.163v1.344h-2.163v7.977zM126.711.189h1.575V5.69a3.483 3.483 0 0 1 2.751-1.365c2.12 0 3.275 1.365 3.275 3.401v6.11h-1.596V7.979c0-1.302-.651-2.205-2.059-2.205-1.092 0-2.036.735-2.372 1.743v6.32h-1.575V.189zM137.78 9.448c.062 2.163 1.428 3.191 3.128 3.191 1.05 0 1.806-.252 2.646-.882v1.449c-.756.588-1.722.819-2.834.819-2.688 0-4.494-1.827-4.494-4.766 0-2.897 1.68-4.934 4.158-4.934 2.52 0 3.82 1.827 3.82 4.556v.567h-6.424zm.084-1.239h4.808c-.063-1.365-.756-2.541-2.268-2.541-1.239.001-2.247.82-2.54 2.541zM150.841 13.836V.945h8.23v1.932h-6.047v3.821h5.647v1.911h-5.647v5.228h-2.183zM162.076 2.981c-.692 0-1.302-.567-1.302-1.281s.609-1.281 1.302-1.281 1.302.567 1.302 1.281-.61 1.281-1.302 1.281zm1.049 10.855h-2.1V4.514h2.1v9.322zM165.646 4.514h2.1v.882c.504-.588 1.428-1.092 2.52-1.092 2.12 0 3.296 1.407 3.296 3.464v6.068h-2.1V8.125c0-1.155-.566-1.911-1.764-1.911-.902 0-1.721.567-1.952 1.491v6.131h-2.1V4.514zM181.122 7.874c0-1.05-.84-1.659-2.142-1.659-1.008 0-1.827.315-2.583.819V5.102c.609-.441 1.785-.798 2.961-.798 2.414 0 3.779 1.302 3.779 3.422v6.11h-2.016v-.525c-.314.315-1.238.693-2.289.693-1.91 0-3.484-1.134-3.484-3.044 0-1.764 1.574-3.002 3.632-3.002.84 0 1.764.294 2.142.567v-.651zm0 2.708c-.23-.588-1.05-.945-1.89-.945-.944 0-1.932.399-1.932 1.323 0 .945.987 1.344 1.932 1.344.84 0 1.659-.357 1.89-.945v-.777zM185.533 4.514h2.1v.882c.504-.588 1.428-1.092 2.52-1.092 2.12 0 3.296 1.407 3.296 3.464v6.068h-2.1V8.125c0-1.155-.566-1.911-1.764-1.911-.902 0-1.721.567-1.952 1.491v6.131h-2.1V4.514zM199.833 4.304c.902 0 1.848.21 2.541.777v2.058c-.651-.651-1.491-.966-2.395-.966-1.49 0-2.688 1.155-2.688 3.002s1.197 3.002 2.688 3.002c.903 0 1.743-.315 2.395-.966v2.058c-.693.567-1.639.777-2.541.777-2.541 0-4.641-1.869-4.641-4.871s2.1-4.871 4.641-4.871zM205.377 2.981c-.693 0-1.302-.567-1.302-1.281s.608-1.281 1.302-1.281 1.302.567 1.302 1.281-.608 1.281-1.302 1.281zm1.05 10.855h-2.1V4.514h2.1v9.322zM214.113 7.874c0-1.05-.84-1.659-2.142-1.659-1.008 0-1.826.315-2.582.819V5.102c.608-.441 1.784-.798 2.96-.798 2.415 0 3.779 1.302 3.779 3.422v6.11h-2.016v-.525c-.315.315-1.239.693-2.288.693-1.911 0-3.486-1.134-3.486-3.044 0-1.764 1.575-3.002 3.633-3.002.84 0 1.764.294 2.142.567v-.651zm0 2.708c-.231-.588-1.05-.945-1.89-.945-.945 0-1.932.399-1.932 1.323 0 .945.986 1.344 1.932 1.344.84 0 1.658-.357 1.89-.945v-.777zM220.623 13.836h-2.1V.189h2.1v13.647zM227.028.945h10.75v1.932h-4.283v10.96h-2.184V2.876h-4.283V.945zM240.677 2.981c-.692 0-1.302-.567-1.302-1.281s.609-1.281 1.302-1.281 1.302.567 1.302 1.281-.609 1.281-1.302 1.281zm1.05 10.855h-2.1V4.514h2.1v9.322zM253.906 4.304c1.911 0 3.023 1.344 3.023 3.464v6.068h-2.1V8.104c0-1.155-.504-1.911-1.532-1.911-.756 0-1.471.462-1.659 1.386v6.257h-2.1V8.104c0-1.155-.504-1.911-1.532-1.911-.756 0-1.471.462-1.659 1.386v6.257h-2.1V4.514h2.1v.777c.44-.588 1.28-.987 2.331-.987 1.049 0 1.973.525 2.456 1.239.652-.756 1.512-1.239 2.772-1.239zM260.711 9.637c.146 1.827 1.386 2.604 2.877 2.604 1.049 0 1.784-.252 2.666-.861v1.848c-.798.588-1.785.819-2.961.819-2.729 0-4.619-1.848-4.619-4.787 0-2.918 1.785-4.955 4.283-4.955 2.583 0 3.927 1.848 3.927 4.577v.756h-6.173zm.126-1.595h4.052c-.062-1.134-.713-1.974-1.91-1.974-.924 0-1.826.546-2.142 1.974zM268.439 10.939c.882.861 2.058 1.365 3.149 1.365.882 0 1.617-.294 1.617-.987 0-.609-.504-.861-1.239-1.092l-1.008-.315c-1.554-.483-2.52-1.218-2.52-2.813 0-1.701 1.512-2.792 3.507-2.792 1.092 0 2.016.294 2.792.819v2.121c-.798-.693-1.7-1.197-2.792-1.197-.84 0-1.491.336-1.491.966 0 .609.399.819 1.196 1.071l1.219.378c1.553.483 2.372 1.323 2.372 2.75 0 1.806-1.596 2.834-3.675 2.834-1.176 0-2.393-.357-3.128-.966v-2.142z"/></g></svg>
