<svg width="625" height="298" viewBox="0 0 625 298" fill="none" xmlns="http://www.w3.org/2000/svg">
<rect y="0.346924" width="625" height="297" fill="#FFFCFA"/>
<rect width="169" height="40" transform="translate(234 118.347)" fill="#0D7680"/>
<path fill-rule="evenodd" clip-rule="evenodd" d="M268 130.347C264.686 130.347 262 133.033 262 136.347C262 139.661 264.686 142.347 268 142.347C269.296 142.347 270.496 141.936 271.477 141.238L276.293 146.054L277.707 144.64L272.891 139.823C273.589 138.843 274 137.643 274 136.347C274 133.033 271.314 130.347 268 130.347ZM264 136.347C264 134.138 265.791 132.347 268 132.347C270.209 132.347 272 134.138 272 136.347C272 138.556 270.209 140.347 268 140.347C265.791 140.347 264 138.556 264 136.347Z" fill="white"/>
<path d="M292.597 140.721C292.597 141.178 292.686 141.584 292.863 141.939C293.04 142.294 293.288 142.574 293.605 142.779C293.922 142.984 294.286 143.087 294.697 143.087C295.033 143.087 295.36 143.022 295.677 142.891C296.004 142.76 296.298 142.564 296.559 142.303V143.899C296.298 144.123 295.99 144.282 295.635 144.375C295.29 144.468 294.94 144.515 294.585 144.515C293.885 144.515 293.26 144.356 292.709 144.039C292.168 143.722 291.738 143.278 291.421 142.709C291.113 142.13 290.959 141.468 290.959 140.721C290.959 139.965 291.113 139.302 291.421 138.733C291.738 138.164 292.168 137.72 292.709 137.403C293.26 137.086 293.885 136.927 294.585 136.927C294.94 136.927 295.29 136.974 295.635 137.067C295.99 137.16 296.298 137.319 296.559 137.543V139.139C296.298 138.878 296.004 138.682 295.677 138.551C295.36 138.42 295.033 138.355 294.697 138.355C294.286 138.355 293.922 138.458 293.605 138.663C293.288 138.868 293.04 139.148 292.863 139.503C292.686 139.858 292.597 140.264 292.597 140.721ZM300.669 143.199C301.024 143.199 301.341 143.129 301.621 142.989C301.91 142.84 302.102 142.648 302.195 142.415V141.799C302.102 141.584 301.91 141.412 301.621 141.281C301.341 141.141 301.024 141.071 300.669 141.071C300.417 141.071 300.174 141.113 299.941 141.197C299.717 141.272 299.535 141.388 299.395 141.547C299.255 141.706 299.185 141.902 299.185 142.135C299.185 142.368 299.255 142.564 299.395 142.723C299.535 142.882 299.717 143.003 299.941 143.087C300.174 143.162 300.417 143.199 300.669 143.199ZM302.195 139.629C302.195 139.284 302.055 138.994 301.775 138.761C301.495 138.518 301.07 138.397 300.501 138.397C300.109 138.397 299.75 138.458 299.423 138.579C299.096 138.691 298.784 138.845 298.485 139.041V137.529C298.718 137.361 299.045 137.221 299.465 137.109C299.894 136.988 300.338 136.927 300.795 136.927C301.43 136.927 301.966 137.034 302.405 137.249C302.844 137.464 303.175 137.772 303.399 138.173C303.632 138.565 303.749 139.041 303.749 139.601V144.347H302.195V143.955C302.074 144.076 301.85 144.202 301.523 144.333C301.196 144.454 300.828 144.515 300.417 144.515C299.922 144.515 299.465 144.417 299.045 144.221C298.625 144.025 298.289 143.75 298.037 143.395C297.794 143.04 297.673 142.62 297.673 142.135C297.673 141.65 297.794 141.23 298.037 140.875C298.289 140.52 298.625 140.245 299.045 140.049C299.465 139.853 299.922 139.755 300.417 139.755C300.828 139.755 301.196 139.811 301.523 139.923C301.859 140.035 302.083 140.147 302.195 140.259V139.629ZM307.334 133.707V144.347H305.696V133.707H307.334ZM311.012 133.707V144.347H309.374V133.707H311.012ZM318.36 138.453V144.347H316.722V138.453H315.238V137.095H316.722V135.121H318.36V137.095H319.998V138.453H318.36ZM320.723 140.721C320.723 139.974 320.867 139.316 321.157 138.747C321.455 138.178 321.861 137.734 322.375 137.417C322.897 137.09 323.499 136.927 324.181 136.927C324.862 136.927 325.459 137.09 325.973 137.417C326.495 137.734 326.901 138.178 327.191 138.747C327.489 139.316 327.639 139.974 327.639 140.721C327.639 141.458 327.489 142.116 327.191 142.695C326.901 143.264 326.495 143.712 325.973 144.039C325.459 144.356 324.862 144.515 324.181 144.515C323.499 144.515 322.897 144.356 322.375 144.039C321.861 143.712 321.455 143.264 321.157 142.695C320.867 142.116 320.723 141.458 320.723 140.721ZM322.361 140.721C322.361 141.178 322.431 141.589 322.571 141.953C322.711 142.317 322.916 142.602 323.187 142.807C323.457 143.012 323.789 143.115 324.181 143.115C324.573 143.115 324.904 143.012 325.175 142.807C325.445 142.602 325.651 142.317 325.791 141.953C325.931 141.589 326.001 141.178 326.001 140.721C326.001 140.264 325.931 139.858 325.791 139.503C325.651 139.139 325.445 138.854 325.175 138.649C324.904 138.434 324.573 138.327 324.181 138.327C323.789 138.327 323.457 138.434 323.187 138.649C322.916 138.854 322.711 139.139 322.571 139.503C322.431 139.858 322.361 140.264 322.361 140.721ZM334.493 143.199C334.848 143.199 335.165 143.129 335.445 142.989C335.735 142.84 335.926 142.648 336.019 142.415V141.799C335.926 141.584 335.735 141.412 335.445 141.281C335.165 141.141 334.848 141.071 334.493 141.071C334.241 141.071 333.999 141.113 333.765 141.197C333.541 141.272 333.359 141.388 333.219 141.547C333.079 141.706 333.009 141.902 333.009 142.135C333.009 142.368 333.079 142.564 333.219 142.723C333.359 142.882 333.541 143.003 333.765 143.087C333.999 143.162 334.241 143.199 334.493 143.199ZM336.019 139.629C336.019 139.284 335.879 138.994 335.599 138.761C335.319 138.518 334.895 138.397 334.325 138.397C333.933 138.397 333.574 138.458 333.247 138.579C332.921 138.691 332.608 138.845 332.309 139.041V137.529C332.543 137.361 332.869 137.221 333.289 137.109C333.719 136.988 334.162 136.927 334.619 136.927C335.254 136.927 335.791 137.034 336.229 137.249C336.668 137.464 336.999 137.772 337.223 138.173C337.457 138.565 337.573 139.041 337.573 139.601V144.347H336.019V143.955C335.898 144.076 335.674 144.202 335.347 144.333C335.021 144.454 334.652 144.515 334.241 144.515C333.747 144.515 333.289 144.417 332.869 144.221C332.449 144.025 332.113 143.75 331.861 143.395C331.619 143.04 331.497 142.62 331.497 142.135C331.497 141.65 331.619 141.23 331.861 140.875C332.113 140.52 332.449 140.245 332.869 140.049C333.289 139.853 333.747 139.755 334.241 139.755C334.652 139.755 335.021 139.811 335.347 139.923C335.683 140.035 335.907 140.147 336.019 140.259V139.629ZM340.64 140.721C340.64 141.178 340.729 141.584 340.906 141.939C341.083 142.294 341.331 142.574 341.648 142.779C341.965 142.984 342.329 143.087 342.74 143.087C343.076 143.087 343.403 143.022 343.72 142.891C344.047 142.76 344.341 142.564 344.602 142.303V143.899C344.341 144.123 344.033 144.282 343.678 144.375C343.333 144.468 342.983 144.515 342.628 144.515C341.928 144.515 341.303 144.356 340.752 144.039C340.211 143.722 339.781 143.278 339.464 142.709C339.156 142.13 339.002 141.468 339.002 140.721C339.002 139.965 339.156 139.302 339.464 138.733C339.781 138.164 340.211 137.72 340.752 137.403C341.303 137.086 341.928 136.927 342.628 136.927C342.983 136.927 343.333 136.974 343.678 137.067C344.033 137.16 344.341 137.319 344.602 137.543V139.139C344.341 138.878 344.047 138.682 343.72 138.551C343.403 138.42 343.076 138.355 342.74 138.355C342.329 138.355 341.965 138.458 341.648 138.663C341.331 138.868 341.083 139.148 340.906 139.503C340.729 139.858 340.64 140.264 340.64 140.721ZM348.766 138.453V144.347H347.128V138.453H345.644V137.095H347.128V135.121H348.766V137.095H350.404V138.453H348.766ZM353.49 137.095V144.347H351.852V137.095H353.49ZM351.656 134.883C351.656 134.603 351.754 134.365 351.95 134.169C352.146 133.973 352.384 133.875 352.664 133.875C352.944 133.875 353.182 133.973 353.378 134.169C353.574 134.365 353.672 134.603 353.672 134.883C353.672 135.163 353.574 135.401 353.378 135.597C353.182 135.793 352.944 135.891 352.664 135.891C352.384 135.891 352.146 135.793 351.95 135.597C351.754 135.401 351.656 135.163 351.656 134.883ZM355.012 140.721C355.012 139.974 355.156 139.316 355.446 138.747C355.744 138.178 356.15 137.734 356.664 137.417C357.186 137.09 357.788 136.927 358.47 136.927C359.151 136.927 359.748 137.09 360.262 137.417C360.784 137.734 361.19 138.178 361.48 138.747C361.778 139.316 361.928 139.974 361.928 140.721C361.928 141.458 361.778 142.116 361.48 142.695C361.19 143.264 360.784 143.712 360.262 144.039C359.748 144.356 359.151 144.515 358.47 144.515C357.788 144.515 357.186 144.356 356.664 144.039C356.15 143.712 355.744 143.264 355.446 142.695C355.156 142.116 355.012 141.458 355.012 140.721ZM356.65 140.721C356.65 141.178 356.72 141.589 356.86 141.953C357 142.317 357.205 142.602 357.476 142.807C357.746 143.012 358.078 143.115 358.47 143.115C358.862 143.115 359.193 143.012 359.464 142.807C359.734 142.602 359.94 142.317 360.08 141.953C360.22 141.589 360.29 141.178 360.29 140.721C360.29 140.264 360.22 139.858 360.08 139.503C359.94 139.139 359.734 138.854 359.464 138.649C359.193 138.434 358.862 138.327 358.47 138.327C358.078 138.327 357.746 138.434 357.476 138.649C357.205 138.854 357 139.139 356.86 139.503C356.72 139.858 356.65 140.264 356.65 140.721ZM363.46 144.347V137.095H365.098V137.781C365.294 137.548 365.56 137.347 365.896 137.179C366.241 137.011 366.628 136.927 367.058 136.927C367.608 136.927 368.075 137.044 368.458 137.277C368.84 137.501 369.13 137.814 369.326 138.215C369.531 138.616 369.633 139.088 369.633 139.629V144.347H367.996V139.909C367.996 139.452 367.879 139.088 367.646 138.817C367.422 138.546 367.076 138.411 366.61 138.411C366.376 138.411 366.152 138.458 365.938 138.551C365.732 138.644 365.555 138.78 365.406 138.957C365.256 139.125 365.154 139.33 365.098 139.573V144.347H363.46Z" fill="white"/>
<line x1="372" y1="138.847" x2="420" y2="138.847" stroke="#990F3D"/>
<path d="M415 137.847C415 131.496 420.149 126.347 426.5 126.347C432.851 126.347 438 131.496 438 137.847V138.847C438 145.198 432.851 150.347 426.5 150.347C420.149 150.347 415 145.198 415 138.847V137.847Z" fill="#990F3D"/>
<path d="M423.91 136.003V134.731H429.046L427.15 138.223C427.542 138.311 427.882 138.467 428.17 138.691C428.466 138.915 428.694 139.195 428.854 139.531C429.014 139.867 429.094 140.251 429.094 140.683C429.094 141.259 428.958 141.759 428.686 142.183C428.422 142.599 428.07 142.923 427.63 143.155C427.19 143.379 426.71 143.491 426.19 143.491C425.63 143.491 425.162 143.423 424.786 143.287C424.418 143.143 424.098 142.967 423.826 142.759V141.271C424.13 141.567 424.478 141.799 424.87 141.967C425.27 142.135 425.678 142.219 426.094 142.219C426.438 142.219 426.734 142.167 426.982 142.063C427.23 141.951 427.422 141.783 427.558 141.559C427.702 141.335 427.774 141.047 427.774 140.695C427.774 140.319 427.666 140.011 427.45 139.771C427.234 139.523 426.938 139.343 426.562 139.231C426.194 139.111 425.778 139.051 425.314 139.051L426.958 136.003H423.91Z" fill="white"/>
<line x1="205" y1="138.847" x2="253" y2="138.847" stroke="#990F3D"/>
<path d="M187 137.847C187 132.048 191.701 127.347 197.5 127.347C203.299 127.347 208 132.048 208 137.847V138.847C208 144.646 203.299 149.347 197.5 149.347C191.701 149.347 187 144.646 187 138.847V137.847Z" fill="#990F3D"/>
<path d="M198.838 134.731V143.347H197.41V136.483L195.514 137.443V135.967L197.986 134.731H198.838Z" fill="white"/>
<line x1="306.5" y1="195.347" x2="306.5" y2="147.347" stroke="#990F3D"/>
<path d="M296 193.847C296 188.048 300.701 183.347 306.5 183.347C312.299 183.347 317 188.048 317 193.847V194.847C317 200.646 312.299 205.347 306.5 205.347C300.701 205.347 296 200.646 296 194.847V193.847Z" fill="#990F3D"/>
<path d="M306.18 198.075H309.228V199.347H303.624L306.132 196.071C306.404 195.711 306.656 195.375 306.888 195.063C307.12 194.743 307.304 194.431 307.44 194.127C307.584 193.815 307.656 193.495 307.656 193.167C307.656 192.791 307.54 192.487 307.308 192.255C307.084 192.015 306.744 191.895 306.288 191.895C305.96 191.895 305.644 191.955 305.34 192.075C305.044 192.187 304.768 192.335 304.512 192.519C304.256 192.695 304.028 192.883 303.828 193.083V191.643C304.124 191.331 304.5 191.079 304.956 190.887C305.42 190.687 305.908 190.587 306.42 190.587C306.956 190.587 307.42 190.691 307.812 190.899C308.212 191.099 308.52 191.391 308.736 191.775C308.96 192.151 309.072 192.599 309.072 193.119C309.072 193.503 308.992 193.883 308.832 194.259C308.68 194.635 308.476 195.011 308.22 195.387C307.964 195.763 307.684 196.147 307.38 196.539L306.18 198.075Z" fill="white"/>
</svg>
