<svg width="500" height="251" viewBox="0 0 500 251" fill="none" xmlns="http://www.w3.org/2000/svg">
    <path d="M0 8.52442C0 4.10614 3.58172 0.524414 8 0.524414H492C496.418 0.524414 500 4.10614 500 8.52441V250.524H0V8.52442Z" fill="#F9F9F9"/>
    <rect x="48" y="48.5244" width="53" height="22" rx="2" fill="#666666"/>
    <path d="M75.58 62.6724V63.5244H70.876V56.1564H71.824V62.6724H75.58ZM76.9229 63.5244V56.1564H77.8709V63.5244H76.9229ZM84.6102 56.1564H85.5702L82.7262 63.5244H81.8382L78.9942 56.1564H79.9902L82.2942 62.2764L84.6102 56.1564ZM91.3883 63.5244H86.6963V56.1564H91.3883V56.9964H87.6323V59.3244H91.0403V60.1644H87.6323V62.6724H91.3883V63.5244Z" fill="white"/>
    <rect x="56" y="54.5244" width="10" height="10" rx="5" fill="white"/>
    <g clip-path="url(#clip0_912_1787)">
        <path d="M71.184 125.524H48.48V124.42C49.664 124.42 50.432 124.244 50.784 123.892C51.168 123.54 51.36 122.772 51.36 121.588V100.372C51.36 99.1884 51.168 98.4204 50.784 98.0684C50.432 97.7164 49.664 97.5404 48.48 97.5404V96.4364H62.208V97.5404C61.024 97.5404 60.24 97.7164 59.856 98.0684C59.504 98.4204 59.328 99.1884 59.328 100.372V121.828C59.328 122.756 59.536 123.38 59.952 123.7C60.4 123.988 61.056 124.132 61.92 124.132H62.928C64.176 124.132 65.232 124.036 66.096 123.844C66.96 123.652 67.696 123.284 68.304 122.74C68.912 122.164 69.424 121.38 69.84 120.388C70.288 119.364 70.704 118.052 71.088 116.452H72.096L71.184 125.524ZM75.5351 108.196C75.5351 107.012 75.4231 106.244 75.1991 105.892C74.9751 105.54 74.3831 105.364 73.4231 105.364V104.356H83.1191V121.684C83.1191 122.868 83.2311 123.636 83.4551 123.988C83.6791 124.34 84.2711 124.516 85.2311 124.516V125.524H73.4231V124.516C74.3831 124.516 74.9751 124.34 75.1991 123.988C75.4231 123.636 75.5351 122.868 75.5351 121.684V108.196ZM75.1991 98.2124C75.1991 97.0604 75.5991 96.1164 76.3991 95.3804C77.1991 94.6124 78.1591 94.2284 79.2791 94.2284C80.3991 94.2284 81.3591 94.6124 82.1591 95.3804C82.9911 96.1164 83.4071 97.0604 83.4071 98.2124C83.4071 99.3324 82.9911 100.276 82.1591 101.044C81.3591 101.78 80.3991 102.148 79.2791 102.148C78.1591 102.148 77.1991 101.78 76.3991 101.044C75.5991 100.276 75.1991 99.3324 75.1991 98.2124ZM96.9855 126.004H96.7935L87.9135 107.86C87.5935 107.156 87.3055 106.628 87.0495 106.276C86.7935 105.924 86.5215 105.684 86.2335 105.556C85.9455 105.428 85.5295 105.364 84.9855 105.364V104.356H97.3215V105.364C96.6175 105.364 96.1055 105.412 95.7855 105.508C95.4975 105.604 95.3535 105.812 95.3535 106.132C95.3535 106.324 95.4015 106.564 95.4975 106.852C95.5935 107.14 95.7375 107.492 95.9295 107.908L99.8175 116.74L103.322 108.436C103.738 107.508 103.946 106.852 103.946 106.468C103.946 105.924 103.69 105.604 103.178 105.508C102.666 105.412 101.898 105.364 100.874 105.364V104.356H108.458V105.364C107.882 105.364 107.418 105.428 107.066 105.556C106.714 105.684 106.394 105.972 106.106 106.42C105.818 106.836 105.45 107.524 105.002 108.484L96.9855 126.004ZM117.545 105.316C116.489 105.316 115.657 105.876 115.049 106.996C114.441 108.084 114.137 109.796 114.137 112.132C114.137 114.212 114.457 116.036 115.097 117.604C115.769 119.14 116.649 120.34 117.737 121.204C118.857 122.036 120.089 122.452 121.433 122.452C123.321 122.452 124.889 121.572 126.137 119.812L126.857 120.388C125.833 122.244 124.521 123.652 122.921 124.612C121.321 125.54 119.609 126.004 117.785 126.004C115.801 126.004 113.977 125.572 112.312 124.708C110.681 123.812 109.369 122.564 108.377 120.964C107.385 119.364 106.889 117.508 106.889 115.396C106.889 113.22 107.401 111.268 108.425 109.54C109.449 107.78 110.793 106.404 112.457 105.412C114.121 104.388 115.897 103.876 117.785 103.876C119.673 103.876 121.257 104.324 122.537 105.22C123.849 106.084 124.857 107.172 125.561 108.484C126.265 109.796 126.617 111.14 126.617 112.516H112.553V111.172H120.857C120.825 109.412 120.521 108.004 119.945 106.948C119.369 105.86 118.569 105.316 117.545 105.316ZM138.395 108.196C138.395 107.012 138.283 106.244 138.059 105.892C137.835 105.54 137.243 105.364 136.283 105.364V104.356H145.979V121.684C145.979 122.868 146.091 123.636 146.315 123.988C146.539 124.34 147.131 124.516 148.091 124.516V125.524H136.283V124.516C137.243 124.516 137.835 124.34 138.059 123.988C138.283 123.636 138.395 122.868 138.395 121.684V108.196ZM151.691 121.684V111.748C151.691 110.116 151.387 108.964 150.779 108.292C150.203 107.62 149.467 107.284 148.571 107.284C147.995 107.284 147.451 107.476 146.939 107.86C146.459 108.244 146.075 108.852 145.787 109.684V108.484C146.075 107.716 146.523 106.98 147.131 106.276C147.771 105.572 148.539 104.996 149.435 104.548C150.363 104.1 151.371 103.876 152.459 103.876C153.931 103.876 155.163 104.196 156.155 104.836C157.179 105.444 157.947 106.276 158.459 107.332C159.003 108.388 159.275 109.556 159.275 110.836V121.684C159.275 122.868 159.387 123.636 159.611 123.988C159.835 124.34 160.427 124.516 161.387 124.516V125.524H149.579V124.516C150.539 124.516 151.131 124.34 151.355 123.988C151.579 123.636 151.691 122.868 151.691 121.684ZM172.951 105.316C171.895 105.316 171.063 105.876 170.455 106.996C169.847 108.084 169.543 109.796 169.543 112.132C169.543 114.212 169.863 116.036 170.503 117.604C171.175 119.14 172.055 120.34 173.143 121.204C174.263 122.036 175.495 122.452 176.839 122.452C178.727 122.452 180.295 121.572 181.543 119.812L182.263 120.388C181.239 122.244 179.927 123.652 178.327 124.612C176.727 125.54 175.015 126.004 173.191 126.004C171.207 126.004 169.383 125.572 167.719 124.708C166.087 123.812 164.775 122.564 163.783 120.964C162.791 119.364 162.295 117.508 162.295 115.396C162.295 113.22 162.807 111.268 163.831 109.54C164.855 107.78 166.199 106.404 167.863 105.412C169.527 104.388 171.303 103.876 173.191 103.876C175.079 103.876 176.663 104.324 177.943 105.22C179.255 106.084 180.263 107.172 180.967 108.484C181.671 109.796 182.023 111.14 182.023 112.516H167.959V111.172H176.263C176.231 109.412 175.927 108.004 175.351 106.948C174.775 105.86 173.975 105.316 172.951 105.316ZM204.161 126.004H203.969L196.673 107.86C196.385 107.124 196.113 106.58 195.857 106.228C195.601 105.876 195.329 105.652 195.041 105.556C194.753 105.428 194.369 105.364 193.889 105.364V104.356H205.312V105.364C204.641 105.364 204.145 105.412 203.825 105.508C203.537 105.604 203.393 105.828 203.393 106.18C203.393 106.372 203.441 106.612 203.537 106.9C203.633 107.156 203.729 107.492 203.825 107.908L206.849 116.26L209.729 108.484C209.889 108.036 210.017 107.652 210.113 107.332C210.241 106.98 210.305 106.708 210.305 106.516C210.305 105.972 210.065 105.652 209.585 105.556C209.105 105.428 208.369 105.364 207.377 105.364V104.356H214.913V105.364C214.337 105.364 213.857 105.428 213.473 105.556C213.121 105.684 212.801 105.972 212.513 106.42C212.225 106.836 211.873 107.524 211.457 108.484L204.161 126.004ZM192.737 126.004H192.497L184.145 107.86C183.825 107.124 183.537 106.58 183.281 106.228C183.057 105.876 182.801 105.652 182.513 105.556C182.225 105.428 181.841 105.364 181.361 105.364V104.356H192.785V105.364C192.305 105.364 191.937 105.396 191.681 105.46C191.425 105.524 191.297 105.716 191.297 106.036C191.297 106.228 191.361 106.468 191.489 106.756C191.617 107.044 191.777 107.428 191.969 107.908L195.569 116.068L198.497 109.012L199.361 110.212L192.737 126.004ZM223.252 103.876C224.5 103.876 225.716 104.036 226.9 104.356C228.084 104.644 229.028 104.996 229.732 105.412L229.54 110.692H228.484C228.42 109.668 228.212 108.756 227.86 107.956C227.508 107.124 226.98 106.468 226.276 105.988C225.572 105.508 224.644 105.268 223.492 105.268C222.628 105.268 221.94 105.492 221.428 105.94C220.948 106.388 220.708 106.964 220.708 107.668C220.708 108.34 220.932 108.868 221.38 109.252C221.828 109.636 222.388 110.004 223.06 110.356L226.468 112.228C227.844 112.964 228.932 113.828 229.732 114.82C230.532 115.78 230.932 117.012 230.932 118.516C230.932 120.02 230.532 121.332 229.732 122.452C228.932 123.572 227.86 124.452 226.516 125.092C225.204 125.7 223.748 126.004 222.148 126.004C220.708 126.004 219.316 125.812 217.972 125.428C216.628 125.044 215.556 124.596 214.756 124.084L214.708 118.18H215.764C215.924 120.196 216.58 121.764 217.732 122.884C218.916 124.004 220.404 124.564 222.196 124.564C223.188 124.564 223.988 124.34 224.596 123.892C225.204 123.412 225.508 122.724 225.508 121.828C225.508 120.996 225.22 120.356 224.644 119.908C224.068 119.428 223.316 118.932 222.388 118.42L218.692 116.5C217.508 115.892 216.58 115.124 215.908 114.196C215.268 113.236 214.948 112.068 214.948 110.692C214.948 109.284 215.332 108.084 216.1 107.092C216.868 106.068 217.876 105.284 219.124 104.74C220.404 104.164 221.78 103.876 223.252 103.876ZM232.996 121.78C232.996 120.596 233.412 119.604 234.244 118.804C235.076 117.972 236.068 117.556 237.22 117.556C238.372 117.556 239.348 117.972 240.148 118.804C240.98 119.604 241.396 120.596 241.396 121.78C241.396 122.932 240.98 123.924 240.148 124.756C239.348 125.588 238.372 126.004 237.22 126.004C236.068 126.004 235.076 125.588 234.244 124.756C233.412 123.924 232.996 122.932 232.996 121.78ZM232.996 109.012C232.996 107.828 233.412 106.836 234.244 106.036C235.076 105.204 236.068 104.788 237.22 104.788C238.372 104.788 239.348 105.204 240.148 106.036C240.98 106.836 241.396 107.828 241.396 109.012C241.396 110.164 240.98 111.156 240.148 111.988C239.348 112.82 238.372 113.236 237.22 113.236C236.068 113.236 235.076 112.82 234.244 111.988C233.412 111.156 232.996 110.164 232.996 109.012ZM278.624 124.276C277.536 124.82 276.08 125.236 274.256 125.524C272.432 125.844 270.512 126.004 268.496 126.004C266.288 126.004 264.176 125.636 262.16 124.9C260.176 124.164 258.4 123.124 256.832 121.78C255.296 120.436 254.08 118.836 253.184 116.98C252.288 115.092 251.84 113.012 251.84 110.74C251.84 108.532 252.288 106.532 253.184 104.74C254.08 102.916 255.28 101.348 256.784 100.036C258.32 98.7244 260.048 97.7164 261.968 97.0124C263.92 96.3084 265.904 95.9564 267.92 95.9564C269.424 95.9564 270.672 96.1164 271.664 96.4364C272.656 96.7244 273.456 97.0284 274.064 97.3484C274.704 97.6684 275.2 97.8284 275.552 97.8284C275.968 97.8284 276.272 97.7164 276.464 97.4924C276.688 97.2364 276.864 96.8684 276.992 96.3884H277.712L278.144 105.364H277.135C276.944 103.892 276.48 102.564 275.744 101.38C275.04 100.196 274.128 99.2684 273.008 98.5964C271.888 97.9244 270.592 97.5884 269.12 97.5884C267.456 97.5884 265.968 98.0524 264.656 98.9804C263.376 99.8764 262.384 101.252 261.68 103.108C260.976 104.964 260.624 107.348 260.624 110.26C260.624 112.5 260.864 114.5 261.344 116.26C261.856 118.02 262.512 119.524 263.312 120.772C264.112 122.02 264.976 122.98 265.904 123.652C266.864 124.292 267.808 124.612 268.736 124.612C269.504 124.612 270.048 124.468 270.368 124.18C270.688 123.892 270.848 123.412 270.848 122.74V116.164C270.848 115.012 270.592 114.26 270.08 113.908C269.568 113.556 268.72 113.38 267.536 113.38V112.276H280.832V113.38C279.84 113.38 279.184 113.556 278.864 113.908C278.576 114.26 278.432 115.012 278.432 116.164V120.532C278.432 121.556 278.448 122.356 278.48 122.932C278.512 123.476 278.56 123.924 278.624 124.276ZM283.848 108.196C283.848 107.012 283.736 106.244 283.512 105.892C283.288 105.54 282.696 105.364 281.736 105.364V104.356H291.432V121.684C291.432 122.452 291.496 123.044 291.624 123.46C291.752 123.844 292.04 124.116 292.488 124.276C292.936 124.404 293.608 124.484 294.504 124.516V125.524H281.736V124.516C282.696 124.516 283.288 124.34 283.512 123.988C283.736 123.636 283.848 122.868 283.848 121.684V108.196ZM291.192 111.124V110.068C292.088 108.532 292.84 107.316 293.448 106.42C294.088 105.524 294.696 104.884 295.272 104.5C295.848 104.084 296.504 103.876 297.24 103.876C297.816 103.876 298.376 104.02 298.92 104.308C299.496 104.596 299.976 104.932 300.36 105.316L298.92 112.084L298.728 112.132C298.12 111.172 297.368 110.404 296.472 109.828C295.576 109.252 294.76 108.964 294.024 108.964C293.544 108.964 293.064 109.156 292.584 109.54C292.104 109.924 291.64 110.452 291.192 111.124ZM311.279 105.316C310.223 105.316 309.391 105.876 308.783 106.996C308.175 108.084 307.871 109.796 307.871 112.132C307.871 114.212 308.191 116.036 308.831 117.604C309.503 119.14 310.383 120.34 311.471 121.204C312.591 122.036 313.823 122.452 315.167 122.452C317.055 122.452 318.623 121.572 319.871 119.812L320.591 120.388C319.567 122.244 318.255 123.652 316.655 124.612C315.055 125.54 313.343 126.004 311.519 126.004C309.535 126.004 307.711 125.572 306.047 124.708C304.415 123.812 303.103 122.564 302.111 120.964C301.119 119.364 300.623 117.508 300.623 115.396C300.623 113.22 301.135 111.268 302.159 109.54C303.183 107.78 304.527 106.404 306.191 105.412C307.855 104.388 309.631 103.876 311.519 103.876C313.407 103.876 314.991 104.324 316.271 105.22C317.583 106.084 318.591 107.172 319.295 108.484C319.999 109.796 320.351 111.14 320.351 112.516H306.287V111.172H314.591C314.559 109.412 314.255 108.004 313.679 106.948C313.103 105.86 312.303 105.316 311.279 105.316ZM332.037 103.876C334.853 103.876 336.997 104.612 338.469 106.084C339.941 107.524 340.677 109.476 340.677 111.94V121.54C340.677 122.052 340.789 122.468 341.013 122.788C341.237 123.076 341.525 123.22 341.877 123.22C342.165 123.22 342.405 123.156 342.597 123.028C342.789 122.9 343.013 122.66 343.269 122.308L343.941 123.028C343.493 123.796 342.789 124.484 341.829 125.092C340.901 125.7 339.781 126.004 338.469 126.004C337.349 126.004 336.293 125.748 335.301 125.236C334.309 124.692 333.589 123.796 333.141 122.548C332.629 123.508 331.829 124.324 330.741 124.996C329.685 125.668 328.517 126.004 327.237 126.004C325.733 126.004 324.469 125.572 323.445 124.708C322.421 123.812 321.909 122.612 321.909 121.108C321.909 119.924 322.213 118.948 322.821 118.18C323.429 117.412 324.261 116.756 325.317 116.212C326.405 115.636 327.637 115.06 329.013 114.484L333.093 112.852V110.356C333.093 109.396 332.981 108.564 332.757 107.86C332.565 107.156 332.197 106.612 331.653 106.228C331.141 105.812 330.421 105.604 329.493 105.604C328.437 105.604 327.541 105.876 326.805 106.42C326.069 106.964 325.477 107.7 325.029 108.628C324.613 109.524 324.341 110.516 324.213 111.604H323.157V106.036C323.957 105.556 325.125 105.076 326.661 104.596C328.197 104.116 329.989 103.876 332.037 103.876ZM333.093 114.244L331.509 114.868C330.581 115.284 329.861 115.796 329.349 116.404C328.837 117.012 328.581 117.924 328.581 119.14C328.581 120.1 328.821 120.916 329.301 121.588C329.813 122.26 330.453 122.596 331.221 122.596C331.509 122.596 331.813 122.532 332.133 122.404C332.453 122.276 332.773 122.052 333.093 121.732V114.244ZM343.7 105.076C344.468 104.692 345.284 104.212 346.148 103.636C347.012 103.06 347.86 102.42 348.692 101.716C349.556 101.012 350.34 100.324 351.044 99.6524C351.78 98.9484 352.356 98.2924 352.772 97.6844H353.204V104.452C353.716 104.452 354.356 104.452 355.124 104.452C355.892 104.42 356.66 104.388 357.428 104.356C358.196 104.324 358.804 104.292 359.252 104.26L358.964 105.94H353.204V118.948C353.204 120.1 353.444 121.028 353.924 121.732C354.404 122.436 355.108 122.788 356.036 122.788C356.772 122.788 357.364 122.612 357.812 122.26C358.26 121.876 358.74 121.364 359.252 120.724L359.972 121.3C359.172 122.708 358.116 123.844 356.804 124.708C355.492 125.572 354.004 126.004 352.34 126.004C350.356 126.004 348.724 125.396 347.444 124.18C346.196 122.932 345.572 121.316 345.572 119.332L345.716 105.892H343.7V105.076ZM370.66 108.196C370.66 107.012 370.548 106.244 370.324 105.892C370.1 105.54 369.508 105.364 368.548 105.364V104.356H378.244V121.684C378.244 122.452 378.308 123.044 378.436 123.46C378.564 123.844 378.852 124.116 379.3 124.276C379.748 124.404 380.42 124.484 381.316 124.516V125.524H368.548V124.516C369.508 124.516 370.1 124.34 370.324 123.988C370.548 123.636 370.66 122.868 370.66 121.684V108.196ZM378.004 111.124V110.068C378.9 108.532 379.652 107.316 380.26 106.42C380.9 105.524 381.508 104.884 382.084 104.5C382.66 104.084 383.316 103.876 384.052 103.876C384.628 103.876 385.188 104.02 385.732 104.308C386.308 104.596 386.788 104.932 387.172 105.316L385.732 112.084L385.54 112.132C384.932 111.172 384.18 110.404 383.284 109.828C382.388 109.252 381.572 108.964 380.836 108.964C380.356 108.964 379.876 109.156 379.396 109.54C378.916 109.924 378.452 110.452 378.004 111.124ZM398.091 105.316C397.035 105.316 396.203 105.876 395.595 106.996C394.987 108.084 394.683 109.796 394.683 112.132C394.683 114.212 395.003 116.036 395.643 117.604C396.315 119.14 397.195 120.34 398.283 121.204C399.403 122.036 400.635 122.452 401.979 122.452C403.867 122.452 405.435 121.572 406.683 119.812L407.403 120.388C406.379 122.244 405.067 123.652 403.467 124.612C401.867 125.54 400.155 126.004 398.331 126.004C396.347 126.004 394.523 125.572 392.859 124.708C391.227 123.812 389.915 122.564 388.923 120.964C387.931 119.364 387.435 117.508 387.435 115.396C387.435 113.22 387.947 111.268 388.971 109.54C389.995 107.78 391.339 106.404 393.003 105.412C394.667 104.388 396.443 103.876 398.331 103.876C400.219 103.876 401.803 104.324 403.083 105.22C404.395 106.084 405.403 107.172 406.107 108.484C406.811 109.796 407.163 111.14 407.163 112.516H393.099V111.172H401.403C401.371 109.412 401.067 108.004 400.491 106.948C399.915 105.86 399.115 105.316 398.091 105.316ZM410.498 108.196C410.498 107.012 410.386 106.244 410.162 105.892C409.938 105.54 409.346 105.364 408.386 105.364V104.356H418.082V130.804C418.082 131.572 418.146 132.148 418.274 132.532C418.402 132.948 418.674 133.22 419.09 133.348C419.538 133.508 420.21 133.604 421.106 133.636V134.644H408.386V133.636C409.346 133.636 409.938 133.46 410.162 133.108C410.386 132.756 410.498 131.988 410.498 130.804V108.196ZM417.698 109.012V108.052C417.922 107.572 418.322 107.012 418.898 106.372C419.506 105.7 420.258 105.124 421.154 104.644C422.05 104.132 423.09 103.876 424.274 103.876C425.97 103.876 427.458 104.324 428.738 105.22C430.018 106.084 431.01 107.284 431.714 108.82C432.45 110.324 432.818 112.052 432.818 114.004C432.818 116.468 432.322 118.612 431.33 120.436C430.37 122.228 429.122 123.604 427.586 124.564C426.05 125.524 424.418 126.004 422.69 126.004C421.474 126.004 420.402 125.812 419.474 125.428C418.578 125.012 417.858 124.5 417.314 123.892V122.692C417.666 123.204 418.098 123.588 418.61 123.844C419.154 124.068 419.65 124.18 420.098 124.18C420.866 124.18 421.618 123.908 422.354 123.364C423.122 122.788 423.762 121.844 424.274 120.532C424.818 119.188 425.09 117.38 425.09 115.108C425.09 113.444 424.914 112.004 424.562 110.788C424.21 109.54 423.682 108.596 422.978 107.956C422.306 107.284 421.506 106.948 420.578 106.948C420.034 106.948 419.49 107.124 418.946 107.476C418.434 107.828 418.018 108.34 417.698 109.012ZM433.527 121.78C433.527 120.596 433.943 119.604 434.775 118.804C435.607 117.972 436.599 117.556 437.751 117.556C438.903 117.556 439.879 117.972 440.679 118.804C441.511 119.604 441.927 120.596 441.927 121.78C441.927 122.932 441.511 123.924 440.679 124.756C439.879 125.588 438.903 126.004 437.751 126.004C436.599 126.004 435.607 125.588 434.775 124.756C433.943 123.924 433.527 122.932 433.527 121.78ZM444.215 121.78C444.215 120.596 444.631 119.604 445.463 118.804C446.295 117.972 447.287 117.556 448.439 117.556C449.591 117.556 450.567 117.972 451.367 118.804C452.199 119.604 452.615 120.596 452.615 121.78C452.615 122.932 452.199 123.924 451.367 124.756C450.567 125.588 449.591 126.004 448.439 126.004C447.287 126.004 446.295 125.588 445.463 124.756C444.631 123.924 444.215 122.932 444.215 121.78ZM454.902 121.78C454.902 120.596 455.318 119.604 456.15 118.804C456.982 117.972 457.974 117.556 459.126 117.556C460.278 117.556 461.254 117.972 462.054 118.804C462.886 119.604 463.302 120.596 463.302 121.78C463.302 122.932 462.886 123.924 462.054 124.756C461.254 125.588 460.278 126.004 459.126 126.004C457.974 126.004 456.982 125.588 456.15 124.756C455.318 123.924 454.902 122.932 454.902 121.78Z" fill="#1A1817"/>
        <rect x="48" y="154.524" width="117.52" height="8" fill="black"/>
    </g>
    <path d="M48.512 184.348V183.036H57.984V184.348H53.984V194.524H52.512V184.348H48.512ZM57.1248 190.38C57.1248 189.527 57.2848 188.775 57.6048 188.124C57.9248 187.474 58.3674 186.967 58.9328 186.604C59.5088 186.231 60.1808 186.044 60.9488 186.044C61.7061 186.044 62.3674 186.231 62.9328 186.604C63.5088 186.967 63.9568 187.474 64.2768 188.124C64.6074 188.775 64.7728 189.527 64.7728 190.38C64.7728 191.234 64.6074 191.986 64.2768 192.636C63.9568 193.287 63.5088 193.799 62.9328 194.172C62.3674 194.535 61.7061 194.716 60.9488 194.716C60.1808 194.716 59.5088 194.535 58.9328 194.172C58.3674 193.799 57.9248 193.287 57.6048 192.636C57.2848 191.986 57.1248 191.234 57.1248 190.38ZM58.5328 190.38C58.5328 190.988 58.6288 191.527 58.8207 191.996C59.0128 192.466 59.2901 192.834 59.6528 193.1C60.0154 193.356 60.4474 193.484 60.9488 193.484C61.4394 193.484 61.8661 193.356 62.2288 193.1C62.5914 192.834 62.8688 192.466 63.0608 191.996C63.2528 191.527 63.3488 190.988 63.3488 190.38C63.3488 189.772 63.2528 189.239 63.0608 188.78C62.8688 188.311 62.5914 187.943 62.2288 187.676C61.8661 187.41 61.4394 187.276 60.9488 187.276C60.4474 187.276 60.0154 187.41 59.6528 187.676C59.2901 187.943 59.0128 188.311 58.8207 188.78C58.6288 189.239 58.5328 189.772 58.5328 190.38ZM72.2204 193.548C72.0817 193.751 71.895 193.943 71.6604 194.124C71.4257 194.295 71.1537 194.434 70.8444 194.54C70.535 194.658 70.2044 194.716 69.8524 194.716C69.2657 194.716 68.7377 194.604 68.2684 194.38C67.8097 194.146 67.4204 193.831 67.1004 193.436C66.791 193.031 66.551 192.567 66.3804 192.044C66.2204 191.522 66.1404 190.967 66.1404 190.38C66.1404 189.794 66.2204 189.239 66.3804 188.716C66.551 188.194 66.791 187.735 67.1004 187.34C67.4204 186.935 67.8097 186.62 68.2684 186.396C68.7377 186.162 69.2657 186.044 69.8524 186.044C70.2044 186.044 70.535 186.103 70.8444 186.22C71.1537 186.327 71.4257 186.471 71.6604 186.652C71.895 186.823 72.0817 187.01 72.2204 187.212V182.364H73.6444V194.524H72.2204V193.548ZM72.2204 192.06V188.7C72.007 188.263 71.7084 187.922 71.3244 187.676C70.9404 187.431 70.5297 187.308 70.0924 187.308C69.6977 187.308 69.3404 187.388 69.0204 187.548C68.711 187.698 68.4444 187.911 68.2204 188.188C68.007 188.455 67.8417 188.775 67.7244 189.148C67.607 189.522 67.5484 189.932 67.5484 190.38C67.5484 190.828 67.607 191.239 67.7244 191.612C67.8417 191.986 68.007 192.311 68.2204 192.588C68.4444 192.855 68.711 193.068 69.0204 193.228C69.3404 193.378 69.6977 193.452 70.0924 193.452C70.5297 193.452 70.9404 193.33 71.3244 193.084C71.7084 192.839 72.007 192.498 72.2204 192.06ZM78.8266 193.548C79.296 193.548 79.712 193.452 80.0746 193.26C80.448 193.058 80.6986 192.802 80.8266 192.492V191.596C80.6986 191.298 80.448 191.052 80.0746 190.86C79.712 190.668 79.296 190.572 78.8266 190.572C78.496 190.572 78.1813 190.631 77.8826 190.748C77.584 190.855 77.344 191.02 77.1626 191.244C76.9813 191.468 76.8906 191.74 76.8906 192.06C76.8906 192.38 76.9813 192.652 77.1626 192.876C77.344 193.1 77.584 193.271 77.8826 193.388C78.1813 193.495 78.496 193.548 78.8266 193.548ZM80.8266 188.988C80.8266 188.498 80.6506 188.098 80.2986 187.788C79.9466 187.479 79.4346 187.324 78.7626 187.324C78.3146 187.324 77.8933 187.394 77.4986 187.532C77.104 187.66 76.736 187.842 76.3946 188.076V186.732C76.672 186.54 77.0453 186.38 77.5146 186.252C77.984 186.114 78.4746 186.044 78.9866 186.044C79.6586 186.044 80.2293 186.162 80.6986 186.396C81.1786 186.62 81.5413 186.951 81.7866 187.388C82.0426 187.826 82.1706 188.343 82.1706 188.94V194.524H80.8266V193.916C80.6666 194.098 80.3893 194.279 79.9946 194.46C79.6 194.631 79.1466 194.716 78.6346 194.716C78.08 194.716 77.568 194.61 77.0986 194.396C76.6293 194.172 76.256 193.863 75.9786 193.468C75.7013 193.074 75.5626 192.604 75.5626 192.06C75.5626 191.527 75.7013 191.063 75.9786 190.668C76.256 190.263 76.6293 189.954 77.0986 189.74C77.568 189.516 78.08 189.404 78.6346 189.404C79.1466 189.404 79.6 189.49 79.9946 189.66C80.4 189.831 80.6773 190.002 80.8266 190.172V188.988ZM86.7399 194.572L83.4919 186.236H85.0119L87.4279 192.764L89.8599 186.236H91.3319L86.8519 197.724H85.4599L86.7399 194.572ZM91.9301 186.716L93.0821 184.796C92.8475 184.764 92.6501 184.668 92.4901 184.508C92.3301 184.348 92.2501 184.135 92.2501 183.868C92.2501 183.676 92.2928 183.506 92.3781 183.356C92.4741 183.207 92.5968 183.09 92.7461 183.004C92.9061 182.908 93.0768 182.86 93.2581 182.86C93.4288 182.86 93.5888 182.903 93.7381 182.988C93.8981 183.074 94.0208 183.196 94.1061 183.356C94.2021 183.516 94.2501 183.714 94.2501 183.948C94.2501 184.151 94.2128 184.354 94.1381 184.556C94.0635 184.759 93.9675 184.946 93.8501 185.116L92.8901 186.716H91.9301ZM94.5794 193.884V192.396C94.8354 192.631 95.1127 192.834 95.4114 193.004C95.71 193.164 96.0194 193.292 96.3394 193.388C96.67 193.474 97.0007 193.516 97.3314 193.516C97.6407 193.516 97.9234 193.474 98.1794 193.388C98.446 193.303 98.6594 193.175 98.8194 193.004C98.99 192.823 99.0754 192.594 99.0754 192.316C99.0754 192.018 98.9687 191.778 98.7554 191.596C98.542 191.415 98.2647 191.266 97.9234 191.148C97.5927 191.031 97.2354 190.914 96.8514 190.796C96.478 190.668 96.1207 190.519 95.7794 190.348C95.438 190.167 95.1607 189.927 94.9474 189.628C94.734 189.319 94.6274 188.919 94.6274 188.428C94.6274 187.948 94.7554 187.527 95.0114 187.164C95.278 186.802 95.6354 186.524 96.0834 186.332C96.5314 186.14 97.0327 186.044 97.5874 186.044C98.046 186.044 98.4834 186.108 98.8994 186.236C99.326 186.364 99.7047 186.546 100.035 186.78V188.252C99.694 187.954 99.3207 187.714 98.9154 187.532C98.51 187.34 98.0674 187.244 97.5874 187.244C97.15 187.244 96.7767 187.34 96.4674 187.532C96.158 187.724 96.0034 188.002 96.0034 188.364C96.0034 188.663 96.11 188.898 96.3234 189.068C96.5367 189.239 96.8087 189.383 97.1394 189.5C97.4807 189.607 97.838 189.719 98.2114 189.836C98.5954 189.954 98.958 190.103 99.2994 190.284C99.6407 190.466 99.918 190.711 100.131 191.02C100.345 191.33 100.451 191.74 100.451 192.252C100.451 192.764 100.313 193.207 100.035 193.58C99.758 193.943 99.3794 194.226 98.8994 194.428C98.43 194.62 97.902 194.716 97.3154 194.716C96.782 194.716 96.27 194.642 95.7794 194.492C95.2887 194.332 94.8887 194.13 94.5794 193.884ZM108.053 187.42V194.524H106.645V187.42H104.901V186.236H106.645V184.028H108.053V186.236H109.973V187.42H108.053ZM110.89 190.38C110.89 189.527 111.05 188.775 111.37 188.124C111.69 187.474 112.133 186.967 112.698 186.604C113.274 186.231 113.946 186.044 114.714 186.044C115.472 186.044 116.133 186.231 116.698 186.604C117.274 186.967 117.722 187.474 118.042 188.124C118.373 188.775 118.538 189.527 118.538 190.38C118.538 191.234 118.373 191.986 118.042 192.636C117.722 193.287 117.274 193.799 116.698 194.172C116.133 194.535 115.472 194.716 114.714 194.716C113.946 194.716 113.274 194.535 112.698 194.172C112.133 193.799 111.69 193.287 111.37 192.636C111.05 191.986 110.89 191.234 110.89 190.38ZM112.298 190.38C112.298 190.988 112.394 191.527 112.586 191.996C112.778 192.466 113.056 192.834 113.418 193.1C113.781 193.356 114.213 193.484 114.714 193.484C115.205 193.484 115.632 193.356 115.994 193.1C116.357 192.834 116.634 192.466 116.826 191.996C117.018 191.527 117.114 190.988 117.114 190.38C117.114 189.772 117.018 189.239 116.826 188.78C116.634 188.311 116.357 187.943 115.994 187.676C115.632 187.41 115.205 187.276 114.714 187.276C114.213 187.276 113.781 187.41 113.418 187.676C113.056 187.943 112.778 188.311 112.586 188.78C112.394 189.239 112.298 189.772 112.298 190.38ZM121.844 188.7V192.06C122.057 192.498 122.356 192.839 122.74 193.084C123.135 193.33 123.545 193.452 123.972 193.452C124.367 193.452 124.719 193.378 125.028 193.228C125.348 193.068 125.615 192.855 125.828 192.588C126.052 192.311 126.223 191.986 126.34 191.612C126.457 191.239 126.516 190.828 126.516 190.38C126.516 189.932 126.457 189.522 126.34 189.148C126.223 188.775 126.052 188.455 125.828 188.188C125.615 187.911 125.348 187.698 125.028 187.548C124.719 187.388 124.367 187.308 123.972 187.308C123.545 187.308 123.135 187.431 122.74 187.676C122.356 187.922 122.057 188.263 121.844 188.7ZM121.844 193.548V197.724H120.42V186.236H121.844V187.212C121.983 187.01 122.169 186.823 122.404 186.652C122.649 186.471 122.921 186.327 123.22 186.22C123.529 186.103 123.86 186.044 124.212 186.044C124.799 186.044 125.321 186.162 125.78 186.396C126.249 186.62 126.644 186.935 126.964 187.34C127.284 187.735 127.524 188.194 127.684 188.716C127.855 189.239 127.94 189.794 127.94 190.38C127.94 190.967 127.855 191.522 127.684 192.044C127.524 192.567 127.284 193.031 126.964 193.436C126.644 193.831 126.249 194.146 125.78 194.38C125.321 194.604 124.799 194.716 124.212 194.716C123.86 194.716 123.529 194.658 123.22 194.54C122.921 194.434 122.649 194.295 122.404 194.124C122.169 193.943 121.983 193.751 121.844 193.548ZM133.139 194.524V182.364H134.563V187.276C134.797 186.946 135.128 186.658 135.555 186.412C135.981 186.167 136.467 186.044 137.011 186.044C137.64 186.044 138.168 186.172 138.595 186.428C139.032 186.684 139.363 187.042 139.587 187.5C139.811 187.948 139.923 188.476 139.923 189.084V194.524H138.499V189.308C138.499 188.732 138.349 188.263 138.051 187.9C137.752 187.527 137.288 187.34 136.659 187.34C136.339 187.34 136.035 187.41 135.747 187.548C135.469 187.676 135.224 187.858 135.011 188.092C134.808 188.327 134.659 188.594 134.563 188.892V194.524H133.139ZM143.095 190.396C143.095 191.1 143.217 191.682 143.463 192.14C143.708 192.588 144.039 192.924 144.455 193.148C144.881 193.372 145.356 193.484 145.879 193.484C146.348 193.484 146.764 193.426 147.127 193.308C147.5 193.18 147.879 192.978 148.263 192.7V193.98C147.921 194.247 147.527 194.434 147.079 194.54C146.631 194.658 146.161 194.716 145.671 194.716C144.881 194.716 144.188 194.54 143.591 194.188C142.993 193.826 142.529 193.324 142.199 192.684C141.879 192.034 141.719 191.271 141.719 190.396C141.719 189.564 141.873 188.823 142.183 188.172C142.492 187.511 142.924 186.994 143.479 186.62C144.033 186.236 144.684 186.044 145.431 186.044C145.985 186.044 146.476 186.146 146.903 186.348C147.329 186.54 147.687 186.818 147.975 187.18C148.263 187.532 148.476 187.959 148.615 188.46C148.764 188.962 148.839 189.516 148.839 190.124V190.62H142.695L142.711 189.532H147.447C147.447 189.234 147.404 188.946 147.319 188.668C147.233 188.391 147.105 188.146 146.935 187.932C146.775 187.719 146.567 187.554 146.311 187.436C146.065 187.308 145.772 187.244 145.431 187.244C145.015 187.244 144.631 187.362 144.279 187.596C143.927 187.82 143.639 188.167 143.414 188.636C143.201 189.106 143.095 189.692 143.095 190.396ZM153.405 193.548C153.874 193.548 154.29 193.452 154.653 193.26C155.026 193.058 155.277 192.802 155.405 192.492V191.596C155.277 191.298 155.026 191.052 154.653 190.86C154.29 190.668 153.874 190.572 153.405 190.572C153.074 190.572 152.759 190.631 152.461 190.748C152.162 190.855 151.922 191.02 151.741 191.244C151.559 191.468 151.469 191.74 151.469 192.06C151.469 192.38 151.559 192.652 151.741 192.876C151.922 193.1 152.162 193.271 152.461 193.388C152.759 193.495 153.074 193.548 153.405 193.548ZM155.405 188.988C155.405 188.498 155.229 188.098 154.877 187.788C154.525 187.479 154.013 187.324 153.341 187.324C152.893 187.324 152.471 187.394 152.077 187.532C151.682 187.66 151.314 187.842 150.973 188.076V186.732C151.25 186.54 151.623 186.38 152.093 186.252C152.562 186.114 153.053 186.044 153.565 186.044C154.237 186.044 154.807 186.162 155.277 186.396C155.757 186.62 156.119 186.951 156.365 187.388C156.621 187.826 156.749 188.343 156.749 188.94V194.524H155.405V193.916C155.245 194.098 154.967 194.279 154.573 194.46C154.178 194.631 153.725 194.716 153.213 194.716C152.658 194.716 152.146 194.61 151.677 194.396C151.207 194.172 150.834 193.863 150.557 193.468C150.279 193.074 150.141 192.604 150.141 192.06C150.141 191.527 150.279 191.063 150.557 190.668C150.834 190.263 151.207 189.954 151.677 189.74C152.146 189.516 152.658 189.404 153.213 189.404C153.725 189.404 154.178 189.49 154.573 189.66C154.978 189.831 155.255 190.002 155.405 190.172V188.988ZM164.642 193.548C164.504 193.751 164.317 193.943 164.082 194.124C163.848 194.295 163.576 194.434 163.266 194.54C162.957 194.658 162.626 194.716 162.274 194.716C161.688 194.716 161.16 194.604 160.69 194.38C160.232 194.146 159.842 193.831 159.522 193.436C159.213 193.031 158.973 192.567 158.802 192.044C158.642 191.522 158.562 190.967 158.562 190.38C158.562 189.794 158.642 189.239 158.802 188.716C158.973 188.194 159.213 187.735 159.522 187.34C159.842 186.935 160.232 186.62 160.69 186.396C161.16 186.162 161.688 186.044 162.274 186.044C162.626 186.044 162.957 186.103 163.266 186.22C163.576 186.327 163.848 186.471 164.082 186.652C164.317 186.823 164.504 187.01 164.642 187.212V182.364H166.066V194.524H164.642V193.548ZM164.642 192.06V188.7C164.429 188.263 164.13 187.922 163.746 187.676C163.362 187.431 162.952 187.308 162.514 187.308C162.12 187.308 161.762 187.388 161.442 187.548C161.133 187.698 160.866 187.911 160.642 188.188C160.429 188.455 160.264 188.775 160.146 189.148C160.029 189.522 159.97 189.932 159.97 190.38C159.97 190.828 160.029 191.239 160.146 191.612C160.264 191.986 160.429 192.311 160.642 192.588C160.866 192.855 161.133 193.068 161.442 193.228C161.762 193.378 162.12 193.452 162.514 193.452C162.952 193.452 163.362 193.33 163.746 193.084C164.13 192.839 164.429 192.498 164.642 192.06ZM169.985 182.364V194.524H168.561V182.364H169.985ZM173.906 186.236V194.524H172.482V186.236H173.906ZM172.29 183.708C172.29 183.452 172.376 183.239 172.546 183.068C172.717 182.887 172.93 182.796 173.186 182.796C173.442 182.796 173.656 182.887 173.826 183.068C173.997 183.239 174.082 183.452 174.082 183.708C174.082 183.954 173.997 184.167 173.826 184.348C173.656 184.519 173.442 184.604 173.186 184.604C172.93 184.604 172.717 184.519 172.546 184.348C172.376 184.167 172.29 183.954 172.29 183.708ZM176.404 194.524V186.236H177.828V187.276C178.063 186.946 178.394 186.658 178.82 186.412C179.247 186.167 179.732 186.044 180.276 186.044C180.906 186.044 181.434 186.172 181.86 186.428C182.298 186.684 182.628 187.042 182.852 187.5C183.076 187.948 183.188 188.476 183.188 189.084V194.524H181.764V189.308C181.764 188.732 181.615 188.263 181.316 187.9C181.018 187.527 180.554 187.34 179.924 187.34C179.604 187.34 179.3 187.41 179.012 187.548C178.735 187.676 178.49 187.858 178.276 188.092C178.074 188.327 177.924 188.594 177.828 188.892V194.524H176.404ZM186.36 190.396C186.36 191.1 186.483 191.682 186.728 192.14C186.973 192.588 187.304 192.924 187.72 193.148C188.147 193.372 188.621 193.484 189.144 193.484C189.613 193.484 190.029 193.426 190.392 193.308C190.765 193.18 191.144 192.978 191.528 192.7V193.98C191.187 194.247 190.792 194.434 190.344 194.54C189.896 194.658 189.427 194.716 188.936 194.716C188.147 194.716 187.453 194.54 186.856 194.188C186.259 193.826 185.795 193.324 185.464 192.684C185.144 192.034 184.984 191.271 184.984 190.396C184.984 189.564 185.139 188.823 185.448 188.172C185.757 187.511 186.189 186.994 186.744 186.62C187.299 186.236 187.949 186.044 188.696 186.044C189.251 186.044 189.741 186.146 190.168 186.348C190.595 186.54 190.952 186.818 191.24 187.18C191.528 187.532 191.741 187.959 191.88 188.46C192.029 188.962 192.104 189.516 192.104 190.124V190.62H185.96L185.976 189.532H190.712C190.712 189.234 190.669 188.946 190.584 188.668C190.499 188.391 190.371 188.146 190.2 187.932C190.04 187.719 189.832 187.554 189.576 187.436C189.331 187.308 189.037 187.244 188.696 187.244C188.28 187.244 187.896 187.362 187.544 187.596C187.192 187.82 186.904 188.167 186.68 188.636C186.467 189.106 186.36 189.692 186.36 190.396Z" fill="#B3B3B3"/>
    <defs>
        <clipPath id="clip0_912_1787">
            <rect width="390.011" height="76" fill="white" transform="translate(48 86.5244)"/>
        </clipPath>
    </defs>
</svg>
