<svg width="500" height="251" viewBox="0 0 500 251" fill="none" xmlns="http://www.w3.org/2000/svg">
    <path d="M0 8.52442C0 4.10614 3.58172 0.524414 8 0.524414H492C496.418 0.524414 500 4.10614 500 8.52441V250.524H0V8.52442Z" fill="#F9F9F9"/>
    <rect x="48.5" y="49.0244" width="113" height="27" rx="13.5" stroke="#666666"/>
    <path d="M75.21 66.5244L78.5 57.9284H80.278L83.568 66.5244H81.748L80.978 64.4524H77.758L77.002 66.5244H75.21ZM80.418 62.9404L79.368 60.0844L78.318 62.9404H80.418ZM88.3599 66.0064C88.2106 66.1931 87.9866 66.3517 87.6879 66.4824C87.3986 66.6037 87.0999 66.6644 86.7919 66.6644C85.9426 66.6644 85.2426 66.3424 84.6919 65.6984C84.4493 65.4184 84.2626 65.0824 84.1319 64.6904C84.0106 64.2891 83.9499 63.8597 83.9499 63.4024C83.9499 62.9544 84.0106 62.5344 84.1319 62.1424C84.2626 61.7411 84.4493 61.3911 84.6919 61.0924C85.2146 60.4484 85.9146 60.1264 86.7919 60.1264C87.0999 60.1264 87.3986 60.1917 87.6879 60.3224C87.9866 60.4437 88.2106 60.5977 88.3599 60.7844V57.4244H90.1099V66.5244H88.3599V66.0064ZM88.3599 62.3664C88.2573 62.1517 88.0986 61.9791 87.8839 61.8484C87.6693 61.7084 87.4359 61.6384 87.1839 61.6384C86.7266 61.6384 86.3626 61.8017 86.0919 62.1284C85.8213 62.4551 85.6859 62.8797 85.6859 63.4024C85.6859 63.9251 85.8213 64.3497 86.0919 64.6764C86.3626 64.9937 86.7266 65.1524 87.1839 65.1524C87.4359 65.1524 87.6693 65.0871 87.8839 64.9564C88.0986 64.8257 88.2573 64.6484 88.3599 64.4244V62.3664ZM95.6197 66.0064C95.4704 66.1931 95.2464 66.3517 94.9477 66.4824C94.6584 66.6037 94.3597 66.6644 94.0517 66.6644C93.2024 66.6644 92.5024 66.3424 91.9517 65.6984C91.709 65.4184 91.5224 65.0824 91.3917 64.6904C91.2704 64.2891 91.2097 63.8597 91.2097 63.4024C91.2097 62.9544 91.2704 62.5344 91.3917 62.1424C91.5224 61.7411 91.709 61.3911 91.9517 61.0924C92.4744 60.4484 93.1744 60.1264 94.0517 60.1264C94.3597 60.1264 94.6584 60.1917 94.9477 60.3224C95.2464 60.4437 95.4704 60.5977 95.6197 60.7844V57.4244H97.3697V66.5244H95.6197V66.0064ZM95.6197 62.3664C95.517 62.1517 95.3584 61.9791 95.1437 61.8484C94.929 61.7084 94.6957 61.6384 94.4437 61.6384C93.9864 61.6384 93.6224 61.8017 93.3517 62.1284C93.081 62.4551 92.9457 62.8797 92.9457 63.4024C92.9457 63.9251 93.081 64.3497 93.3517 64.6764C93.6224 64.9937 93.9864 65.1524 94.4437 65.1524C94.6957 65.1524 94.929 65.0871 95.1437 64.9564C95.3584 64.8257 95.517 64.6484 95.6197 64.4244V62.3664ZM105.622 61.6664H104.292V66.5244H102.556V61.6664H101.366V60.2664H102.556V58.5724H104.292V60.2664H105.622V61.6664ZM112.312 63.4024C112.312 63.8784 112.238 64.3171 112.088 64.7184C111.939 65.1197 111.729 65.4651 111.458 65.7544C110.88 66.3611 110.142 66.6644 109.246 66.6644C108.35 66.6644 107.613 66.3611 107.034 65.7544C106.764 65.4651 106.554 65.1197 106.404 64.7184C106.255 64.3171 106.18 63.8784 106.18 63.4024C106.18 62.9264 106.255 62.4877 106.404 62.0864C106.554 61.6757 106.764 61.3257 107.034 61.0364C107.613 60.4297 108.35 60.1264 109.246 60.1264C110.142 60.1264 110.88 60.4297 111.458 61.0364C111.729 61.3257 111.939 61.6757 112.088 62.0864C112.238 62.4877 112.312 62.9264 112.312 63.4024ZM110.59 63.4024C110.59 62.8424 110.469 62.4037 110.226 62.0864C109.993 61.7597 109.666 61.5964 109.246 61.5964C108.826 61.5964 108.495 61.7597 108.252 62.0864C108.019 62.4037 107.902 62.8424 107.902 63.4024C107.902 63.9531 108.019 64.3917 108.252 64.7184C108.495 65.0357 108.826 65.1944 109.246 65.1944C109.666 65.1944 109.993 65.0357 110.226 64.7184C110.469 64.3917 110.59 63.9531 110.59 63.4024ZM121.387 60.9244C121.881 60.3924 122.511 60.1264 123.277 60.1264C123.921 60.1264 124.425 60.3364 124.789 60.7564C125.153 61.1671 125.335 61.7271 125.335 62.4364V66.5244H123.599V62.8004C123.599 62.4551 123.519 62.1844 123.361 61.9884C123.202 61.7831 122.983 61.6804 122.703 61.6804C122.469 61.6804 122.264 61.7551 122.087 61.9044C121.909 62.0444 121.793 62.2404 121.737 62.4924V66.5244H119.987V62.8004C119.987 62.4551 119.907 62.1844 119.749 61.9884C119.599 61.7831 119.385 61.6804 119.105 61.6804C118.871 61.6804 118.661 61.7551 118.475 61.9044C118.297 62.0444 118.181 62.2404 118.125 62.4924V66.5244H116.389V60.2664H118.125V60.7844C118.293 60.5791 118.512 60.4204 118.783 60.3084C119.063 60.1871 119.371 60.1264 119.707 60.1264C120.052 60.1264 120.369 60.1964 120.659 60.3364C120.948 60.4764 121.191 60.6724 121.387 60.9244ZM132.577 60.2664L129.315 68.8344H127.607L128.517 66.5524L126.123 60.2664H127.957L129.399 64.4244L130.827 60.2664H132.577ZM135.368 63.2344V66.5244H133.59V57.9284H139.316V59.4964H135.368V61.6804H139.022V63.2344H135.368ZM142.886 59.4964H140.128V57.9284H147.464V59.4964H144.692V66.5244H142.886V59.4964Z" fill="#666666"/>
    <path d="M62.386 66.7749H63.6047V63.189H67.1907V61.9702H63.6047V58.3843H62.386V61.9702H58.8V63.189H62.386V66.7749Z" fill="#666666"/>
    <g clip-path="url(#clip0_912_1801)">
        <path d="M58.6 125.601V126.521H48.64V125.601C50.88 125.601 51.76 125.441 51.76 123.561V105.241C51.76 103.361 50.88 103.201 48.64 103.201V102.281H58.6V103.201C56.32 103.201 55.44 103.361 55.44 105.241V123.561C55.44 125.441 56.32 125.601 58.6 125.601ZM68.33 125.681V126.521H60.05V125.681C61.93 125.681 62.41 125.521 62.41 123.561V112.401C62.41 110.441 61.93 110.321 60.05 110.321V109.481H65.93V112.801C66.69 111.241 68.69 109.081 71.41 109.081C74.97 109.081 76.61 111.721 76.61 114.921V123.561C76.61 125.521 77.09 125.681 78.97 125.681V126.521H70.73V125.681C72.61 125.681 73.09 125.521 73.09 123.561V115.601C73.09 112.681 71.85 111.121 69.53 111.121C67.89 111.121 66.53 112.281 65.93 113.601V123.561C65.93 125.521 66.45 125.681 68.33 125.681ZM79.7319 110.201C81.8519 108.761 83.8119 106.841 85.0919 105.001H85.4119V109.561C86.6919 109.561 89.8519 109.521 91.0119 109.401L90.7719 110.721H85.4119V121.681C85.4119 123.641 86.2519 125.081 88.1319 125.081C89.3719 125.081 90.2119 124.521 91.0519 123.361L91.6119 123.801C90.3719 125.801 88.6919 126.921 86.4119 126.921C83.8919 126.921 81.8919 125.081 81.8919 122.401L82.0119 110.721H79.7319V110.201ZM106.762 123.361C105.242 125.721 102.882 126.921 100.482 126.921C95.8822 126.921 92.0422 123.321 92.0422 118.161C92.0422 112.921 95.9222 109.081 99.8422 109.081C104.442 109.081 106.482 112.641 106.482 115.961H95.3622V116.681C95.3622 121.361 98.0822 124.921 102.122 124.921C103.882 124.921 105.242 124.281 106.322 122.921L106.762 123.361ZM99.8022 110.121C97.6022 110.121 95.9222 111.841 95.4822 115.001H103.202C103.082 112.161 102.042 110.121 99.8022 110.121ZM117.215 125.681V126.521H108.175V125.681C110.055 125.681 110.535 125.521 110.535 123.561V112.401C110.535 110.441 110.055 110.321 108.175 110.321V109.481H114.055V113.041C115.695 110.681 116.975 109.081 118.495 109.081C119.695 109.081 120.975 110.121 121.495 111.001L119.855 113.961H119.775C119.095 112.721 117.975 111.681 116.855 111.681C115.935 111.681 115.175 112.401 114.055 113.841V123.561C114.055 125.521 114.695 125.681 117.215 125.681ZM136.723 123.361C135.203 125.721 132.843 126.921 130.443 126.921C125.843 126.921 122.003 123.321 122.003 118.161C122.003 112.921 125.883 109.081 129.803 109.081C134.403 109.081 136.443 112.641 136.443 115.961H125.323V116.681C125.323 121.361 128.043 124.921 132.083 124.921C133.843 124.921 135.203 124.281 136.283 122.921L136.723 123.361ZM129.763 110.121C127.563 110.121 125.883 111.841 125.443 115.001H133.163C133.043 112.161 132.003 110.121 129.763 110.121ZM144.816 109.081C146.456 109.081 148.336 109.641 149.496 110.281L149.296 114.401H148.496C148.416 111.441 146.976 110.081 144.616 110.081C142.776 110.081 141.696 111.201 141.696 112.761C141.696 114.201 142.616 114.841 144.056 115.561L146.696 116.921C148.656 117.921 150.296 119.161 150.296 121.681C150.296 124.641 147.576 126.921 144.176 126.921C141.976 126.921 139.816 126.241 138.616 125.321L138.496 120.801H139.376C139.656 124.281 141.456 125.841 144.256 125.841C146.216 125.841 147.576 124.881 147.576 123.001C147.576 121.601 146.656 120.801 145.136 120.041L142.176 118.561C140.336 117.641 138.936 116.361 138.936 114.081C138.936 111.121 141.456 109.081 144.816 109.081ZM151.763 110.201C153.883 108.761 155.843 106.841 157.123 105.001H157.443V109.561C158.723 109.561 161.883 109.521 163.043 109.401L162.803 110.721H157.443V121.681C157.443 123.641 158.283 125.081 160.163 125.081C161.403 125.081 162.243 124.521 163.083 123.361L163.643 123.801C162.403 125.801 160.723 126.921 158.443 126.921C155.923 126.921 153.923 125.081 153.923 122.401L154.043 110.721H151.763V110.201ZM179.988 125.681V126.521H170.948V125.681C172.828 125.681 173.308 125.521 173.308 123.561V112.401C173.308 110.441 172.828 110.321 170.948 110.321V109.481H176.828V113.041C178.468 110.681 179.748 109.081 181.268 109.081C182.468 109.081 183.748 110.121 184.268 111.001L182.628 113.961H182.548C181.868 112.721 180.748 111.681 179.628 111.681C178.708 111.681 177.948 112.401 176.828 113.841V123.561C176.828 125.521 177.468 125.681 179.988 125.681ZM192.288 109.081C196.208 109.081 198.128 111.281 198.128 115.001V123.441C198.128 124.681 198.768 125.281 199.448 125.281C200.088 125.281 200.448 125.001 201.008 124.361L201.488 124.881C200.768 126.001 199.608 126.921 198.128 126.921C196.448 126.921 195.088 125.881 194.648 124.161C193.608 125.521 191.808 126.921 189.608 126.921C187.408 126.921 185.408 125.521 185.408 123.081C185.408 120.601 187.488 119.281 190.488 118.161L194.608 116.641V114.681C194.608 112.321 194.248 110.201 191.488 110.201C188.888 110.201 187.408 111.961 187.088 114.761H186.328V110.721C187.648 109.881 190.088 109.081 192.288 109.081ZM194.608 117.721L191.408 118.881C189.888 119.481 188.688 120.441 188.688 122.281C188.688 124.001 189.808 125.121 191.488 125.121C192.608 125.121 193.728 124.481 194.608 123.481V117.721ZM201.412 110.201C203.532 108.761 205.492 106.841 206.772 105.001H207.092V109.561C208.372 109.561 211.532 109.521 212.692 109.401L212.452 110.721H207.092V121.681C207.092 123.641 207.932 125.081 209.812 125.081C211.052 125.081 211.892 124.521 212.732 123.361L213.292 123.801C212.052 125.801 210.372 126.921 208.092 126.921C205.572 126.921 203.572 125.081 203.572 122.401L203.692 110.721H201.412V110.201ZM228.442 123.361C226.922 125.721 224.562 126.921 222.162 126.921C217.562 126.921 213.722 123.321 213.722 118.161C213.722 112.921 217.602 109.081 221.522 109.081C226.122 109.081 228.162 112.641 228.162 115.961H217.042V116.681C217.042 121.361 219.762 124.921 223.802 124.921C225.562 124.921 226.922 124.281 228.002 122.921L228.442 123.361ZM221.482 110.121C219.282 110.121 217.602 111.841 217.162 115.001H224.882C224.762 112.161 223.722 110.121 221.482 110.121ZM236.535 109.081C238.175 109.081 240.055 109.641 241.215 110.281L241.015 114.401H240.215C240.135 111.441 238.695 110.081 236.335 110.081C234.495 110.081 233.415 111.201 233.415 112.761C233.415 114.201 234.335 114.841 235.775 115.561L238.415 116.921C240.375 117.921 242.015 119.161 242.015 121.681C242.015 124.641 239.295 126.921 235.895 126.921C233.695 126.921 231.535 126.241 230.335 125.321L230.215 120.801H231.095C231.375 124.281 233.175 125.841 235.975 125.841C237.935 125.841 239.295 124.881 239.295 123.001C239.295 121.601 238.375 120.801 236.855 120.041L233.895 118.561C232.055 117.641 230.655 116.361 230.655 114.081C230.655 111.121 233.175 109.081 236.535 109.081ZM258.715 125.681V126.521H250.475V125.681C252.355 125.681 252.835 125.521 252.835 123.561V103.481C252.835 101.521 252.355 101.361 250.075 101.361V100.521H256.355V112.801C257.115 111.241 259.155 109.081 261.835 109.081C265.435 109.081 267.035 111.721 267.035 114.921V123.561C267.035 125.521 267.515 125.681 269.435 125.681V126.521H261.195V125.681C263.075 125.681 263.515 125.521 263.515 123.561V115.601C263.515 112.681 262.275 111.121 259.995 111.121C258.355 111.121 256.995 112.281 256.355 113.601V123.561C256.355 125.521 256.835 125.681 258.715 125.681ZM277.601 109.081C281.521 109.081 283.441 111.281 283.441 115.001V123.441C283.441 124.681 284.081 125.281 284.761 125.281C285.401 125.281 285.761 125.001 286.321 124.361L286.801 124.881C286.081 126.001 284.921 126.921 283.441 126.921C281.761 126.921 280.401 125.881 279.961 124.161C278.921 125.521 277.121 126.921 274.921 126.921C272.721 126.921 270.721 125.521 270.721 123.081C270.721 120.601 272.801 119.281 275.801 118.161L279.921 116.641V114.681C279.921 112.321 279.561 110.201 276.801 110.201C274.201 110.201 272.721 111.961 272.401 114.761H271.641V110.721C272.961 109.881 275.401 109.081 277.601 109.081ZM279.921 117.721L276.721 118.881C275.201 119.481 274.001 120.441 274.001 122.281C274.001 124.001 275.121 125.121 276.801 125.121C277.921 125.121 279.041 124.481 279.921 123.481V117.721ZM293.683 109.081C295.323 109.081 297.203 109.641 298.363 110.281L298.163 114.401H297.363C297.283 111.441 295.843 110.081 293.483 110.081C291.643 110.081 290.563 111.201 290.563 112.761C290.563 114.201 291.483 114.841 292.923 115.561L295.563 116.921C297.523 117.921 299.163 119.161 299.163 121.681C299.163 124.641 296.443 126.921 293.043 126.921C290.843 126.921 288.683 126.241 287.483 125.321L287.363 120.801H288.243C288.523 124.281 290.323 125.841 293.123 125.841C295.083 125.841 296.443 124.881 296.443 123.001C296.443 121.601 295.523 120.801 294.003 120.041L291.043 118.561C289.203 117.641 287.803 116.361 287.803 114.081C287.803 111.121 290.323 109.081 293.683 109.081ZM315.583 126.921C313.703 126.921 311.503 126.641 309.663 126.001V103.481C309.663 101.521 309.183 101.361 306.903 101.361V100.521H313.183V112.001C314.103 110.561 316.023 109.081 318.383 109.081C322.343 109.081 325.423 112.241 325.423 117.161C325.423 123.121 320.743 126.921 315.583 126.921ZM315.743 125.881C318.943 125.881 321.823 123.441 321.823 118.161C321.823 114.121 320.263 110.761 316.863 110.761C315.263 110.761 313.943 111.681 313.183 112.761V123.161C313.183 125.241 314.183 125.881 315.743 125.881ZM342.153 123.361C340.633 125.721 338.273 126.921 335.873 126.921C331.273 126.921 327.433 123.321 327.433 118.161C327.433 112.921 331.313 109.081 335.233 109.081C339.833 109.081 341.873 112.641 341.873 115.961H330.753V116.681C330.753 121.361 333.473 124.921 337.513 124.921C339.273 124.921 340.633 124.281 341.713 122.921L342.153 123.361ZM335.193 110.121C332.993 110.121 331.313 111.841 330.873 115.001H338.593C338.473 112.161 337.433 110.121 335.193 110.121ZM358.481 123.361C356.961 125.721 354.601 126.921 352.201 126.921C347.601 126.921 343.761 123.321 343.761 118.161C343.761 112.921 347.641 109.081 351.561 109.081C356.161 109.081 358.201 112.641 358.201 115.961H347.081V116.681C347.081 121.361 349.801 124.921 353.841 124.921C355.601 124.921 356.961 124.281 358.041 122.921L358.481 123.361ZM351.521 110.121C349.321 110.121 347.641 111.841 347.201 115.001H354.921C354.801 112.161 353.761 110.121 351.521 110.121ZM368.174 125.681V126.521H359.894V125.681C361.774 125.681 362.254 125.521 362.254 123.561V112.401C362.254 110.441 361.774 110.321 359.894 110.321V109.481H365.774V112.801C366.534 111.241 368.534 109.081 371.254 109.081C374.814 109.081 376.454 111.721 376.454 114.921V123.561C376.454 125.521 376.934 125.681 378.814 125.681V126.521H370.574V125.681C372.454 125.681 372.934 125.521 372.934 123.561V115.601C372.934 112.681 371.694 111.121 369.374 111.121C367.734 111.121 366.374 112.281 365.774 113.601V123.561C365.774 125.521 366.294 125.681 368.174 125.681ZM395.333 109.081C397.253 109.081 398.973 109.561 400.213 110.521L400.133 114.601H399.373C399.173 111.841 397.853 110.201 395.293 110.201C392.293 110.201 389.853 112.721 389.853 117.001C389.853 121.561 392.573 124.961 396.213 124.961C397.933 124.961 399.053 124.401 400.373 122.841L400.893 123.321C399.333 125.761 396.853 126.921 394.533 126.921C390.253 126.921 386.613 123.561 386.613 118.361C386.613 113.001 390.853 109.081 395.333 109.081ZM414.123 126.521V123.521C413.363 125.081 411.443 126.921 408.843 126.921C405.523 126.921 403.763 124.401 403.763 121.201V112.401C403.763 110.441 403.283 110.321 401.403 110.321V109.481H407.283V120.641C407.283 123.401 408.403 125.041 410.683 125.041C412.203 125.041 413.403 124.081 414.123 122.681V112.401C414.123 110.441 413.603 110.321 411.723 110.321V109.481H417.643V123.561C417.643 125.521 418.123 125.681 420.003 125.681V126.521H414.123ZM420.904 110.201C423.024 108.761 424.984 106.841 426.264 105.001H426.584V109.561C427.864 109.561 431.024 109.521 432.184 109.401L431.944 110.721H426.584V121.681C426.584 123.641 427.424 125.081 429.304 125.081C430.544 125.081 431.384 124.521 432.224 123.361L432.784 123.801C431.544 125.801 429.864 126.921 427.584 126.921C425.064 126.921 423.064 125.081 423.064 122.401L423.184 110.721H420.904V110.201Z" fill="#1A1817"/>
    </g>
    <path d="M48.688 160.78C48.688 159.884 48.8213 159.074 49.088 158.348C49.3653 157.612 49.7493 156.983 50.24 156.46C50.7307 155.938 51.3013 155.538 51.952 155.26C52.6133 154.983 53.328 154.844 54.096 154.844C54.7573 154.844 55.3387 154.935 55.84 155.116C56.352 155.298 56.7947 155.538 57.168 155.836V157.388C56.7093 156.972 56.2293 156.668 55.728 156.476C55.2373 156.274 54.6987 156.172 54.112 156.172C53.3333 156.172 52.6507 156.364 52.064 156.748C51.4773 157.132 51.0133 157.671 50.672 158.364C50.3413 159.047 50.176 159.852 50.176 160.78C50.176 161.708 50.3413 162.519 50.672 163.212C51.0133 163.895 51.4773 164.428 52.064 164.812C52.6507 165.196 53.3333 165.388 54.112 165.388C54.6987 165.388 55.2373 165.292 55.728 165.1C56.2293 164.898 56.7093 164.588 57.168 164.172V165.724C56.7947 166.023 56.352 166.263 55.84 166.444C55.3387 166.626 54.7573 166.716 54.096 166.716C53.328 166.716 52.6133 166.578 51.952 166.3C51.3013 166.023 50.7307 165.623 50.24 165.1C49.7493 164.578 49.3653 163.954 49.088 163.228C48.8213 162.492 48.688 161.676 48.688 160.78ZM60.0164 162.396C60.0164 163.1 60.139 163.682 60.3844 164.14C60.6297 164.588 60.9604 164.924 61.3764 165.148C61.803 165.372 62.2777 165.484 62.8004 165.484C63.2697 165.484 63.6857 165.426 64.0484 165.308C64.4217 165.18 64.8004 164.978 65.1844 164.7V165.98C64.843 166.247 64.4484 166.434 64.0004 166.54C63.5524 166.658 63.083 166.716 62.5924 166.716C61.803 166.716 61.1097 166.54 60.5124 166.188C59.915 165.826 59.451 165.324 59.1204 164.684C58.8004 164.034 58.6404 163.271 58.6404 162.396C58.6404 161.564 58.795 160.823 59.1044 160.172C59.4137 159.511 59.8457 158.994 60.4004 158.62C60.955 158.236 61.6057 158.044 62.3524 158.044C62.907 158.044 63.3977 158.146 63.8244 158.348C64.251 158.54 64.6084 158.818 64.8964 159.18C65.1844 159.532 65.3977 159.959 65.5364 160.46C65.6857 160.962 65.7604 161.516 65.7604 162.124V162.62H59.6164L59.6324 161.532H64.3684C64.3684 161.234 64.3257 160.946 64.2404 160.668C64.155 160.391 64.027 160.146 63.8564 159.932C63.6964 159.719 63.4884 159.554 63.2324 159.436C62.987 159.308 62.6937 159.244 62.3524 159.244C61.9364 159.244 61.5524 159.362 61.2004 159.596C60.8484 159.82 60.5604 160.167 60.3364 160.636C60.123 161.106 60.0164 161.692 60.0164 162.396ZM67.6386 166.524V158.236H69.0626V159.276C69.2973 158.946 69.628 158.658 70.0546 158.412C70.4813 158.167 70.9666 158.044 71.5106 158.044C72.14 158.044 72.668 158.172 73.0946 158.428C73.532 158.684 73.8626 159.042 74.0866 159.5C74.3106 159.948 74.4226 160.476 74.4226 161.084V166.524H72.9986V161.308C72.9986 160.732 72.8493 160.263 72.5506 159.9C72.252 159.527 71.788 159.34 71.1586 159.34C70.8386 159.34 70.5346 159.41 70.2466 159.548C69.9693 159.676 69.724 159.858 69.5106 160.092C69.308 160.327 69.1586 160.594 69.0626 160.892V166.524H67.6386ZM79.1465 159.42V166.524H77.7385V159.42H75.9945V158.236H77.7385V156.028H79.1465V158.236H81.0665V159.42H79.1465ZM87.0516 158.172V159.612C86.9343 159.538 86.7903 159.484 86.6196 159.452C86.449 159.42 86.2783 159.404 86.1076 159.404C85.809 159.404 85.5316 159.463 85.2756 159.58C85.0196 159.698 84.7956 159.874 84.6036 160.108C84.4116 160.343 84.273 160.62 84.1876 160.94V166.524H82.7636V158.236H84.1876V159.292C84.305 159.058 84.465 158.85 84.6676 158.668C84.8703 158.476 85.105 158.327 85.3716 158.22C85.6383 158.103 85.921 158.044 86.2196 158.044C86.401 158.044 86.5663 158.055 86.7156 158.076C86.865 158.098 86.977 158.13 87.0516 158.172ZM91.2016 165.548C91.671 165.548 92.087 165.452 92.4496 165.26C92.823 165.058 93.0736 164.802 93.2016 164.492V163.596C93.0736 163.298 92.823 163.052 92.4496 162.86C92.087 162.668 91.671 162.572 91.2016 162.572C90.871 162.572 90.5563 162.631 90.2576 162.748C89.959 162.855 89.719 163.02 89.5376 163.244C89.3563 163.468 89.2656 163.74 89.2656 164.06C89.2656 164.38 89.3563 164.652 89.5376 164.876C89.719 165.1 89.959 165.271 90.2576 165.388C90.5563 165.495 90.871 165.548 91.2016 165.548ZM93.2016 160.988C93.2016 160.498 93.0256 160.098 92.6736 159.788C92.3216 159.479 91.8096 159.324 91.1376 159.324C90.6896 159.324 90.2683 159.394 89.8736 159.532C89.479 159.66 89.111 159.842 88.7696 160.076V158.732C89.047 158.54 89.4203 158.38 89.8896 158.252C90.359 158.114 90.8496 158.044 91.3616 158.044C92.0336 158.044 92.6043 158.162 93.0736 158.396C93.5536 158.62 93.9163 158.951 94.1616 159.388C94.4176 159.826 94.5456 160.343 94.5456 160.94V166.524H93.2016V165.916C93.0416 166.098 92.7643 166.279 92.3696 166.46C91.975 166.631 91.5216 166.716 91.0096 166.716C90.455 166.716 89.943 166.61 89.4736 166.396C89.0043 166.172 88.631 165.863 88.3536 165.468C88.0763 165.074 87.9376 164.604 87.9376 164.06C87.9376 163.527 88.0763 163.063 88.3536 162.668C88.631 162.263 89.0043 161.954 89.4736 161.74C89.943 161.516 90.455 161.404 91.0096 161.404C91.5216 161.404 91.975 161.49 92.3696 161.66C92.775 161.831 93.0523 162.002 93.2016 162.172V160.988ZM98.3751 154.364V166.524H96.9511V154.364H98.3751ZM105.61 165.548V166.524H104.186V154.364H105.61V159.212C105.748 159.01 105.935 158.823 106.17 158.652C106.415 158.471 106.687 158.327 106.986 158.22C107.295 158.103 107.626 158.044 107.978 158.044C108.564 158.044 109.087 158.162 109.546 158.396C110.015 158.62 110.41 158.935 110.73 159.34C111.05 159.735 111.29 160.194 111.45 160.716C111.62 161.239 111.706 161.794 111.706 162.38C111.706 162.967 111.62 163.522 111.45 164.044C111.29 164.567 111.05 165.031 110.73 165.436C110.41 165.831 110.015 166.146 109.546 166.38C109.087 166.604 108.564 166.716 107.978 166.716C107.626 166.716 107.295 166.658 106.986 166.54C106.687 166.434 106.415 166.295 106.17 166.124C105.935 165.943 105.748 165.751 105.61 165.548ZM105.61 164.06C105.823 164.498 106.122 164.839 106.506 165.084C106.9 165.33 107.311 165.452 107.738 165.452C108.132 165.452 108.484 165.378 108.794 165.228C109.114 165.068 109.38 164.855 109.594 164.588C109.818 164.311 109.988 163.986 110.106 163.612C110.223 163.239 110.282 162.828 110.282 162.38C110.282 161.932 110.223 161.522 110.106 161.148C109.988 160.775 109.818 160.455 109.594 160.188C109.38 159.911 109.114 159.698 108.794 159.548C108.484 159.388 108.132 159.308 107.738 159.308C107.311 159.308 106.9 159.431 106.506 159.676C106.122 159.922 105.823 160.263 105.61 160.7V164.06ZM116.28 165.548C116.749 165.548 117.165 165.452 117.528 165.26C117.901 165.058 118.152 164.802 118.28 164.492V163.596C118.152 163.298 117.901 163.052 117.528 162.86C117.165 162.668 116.749 162.572 116.28 162.572C115.949 162.572 115.634 162.631 115.336 162.748C115.037 162.855 114.797 163.02 114.616 163.244C114.434 163.468 114.344 163.74 114.344 164.06C114.344 164.38 114.434 164.652 114.616 164.876C114.797 165.1 115.037 165.271 115.336 165.388C115.634 165.495 115.949 165.548 116.28 165.548ZM118.28 160.988C118.28 160.498 118.104 160.098 117.752 159.788C117.4 159.479 116.888 159.324 116.216 159.324C115.768 159.324 115.346 159.394 114.952 159.532C114.557 159.66 114.189 159.842 113.848 160.076V158.732C114.125 158.54 114.498 158.38 114.968 158.252C115.437 158.114 115.928 158.044 116.44 158.044C117.112 158.044 117.682 158.162 118.152 158.396C118.632 158.62 118.994 158.951 119.24 159.388C119.496 159.826 119.624 160.343 119.624 160.94V166.524H118.28V165.916C118.12 166.098 117.842 166.279 117.448 166.46C117.053 166.631 116.6 166.716 116.088 166.716C115.533 166.716 115.021 166.61 114.552 166.396C114.082 166.172 113.709 165.863 113.432 165.468C113.154 165.074 113.016 164.604 113.016 164.06C113.016 163.527 113.154 163.063 113.432 162.668C113.709 162.263 114.082 161.954 114.552 161.74C115.021 161.516 115.533 161.404 116.088 161.404C116.6 161.404 117.053 161.49 117.448 161.66C117.853 161.831 118.13 162.002 118.28 162.172V160.988ZM122.029 166.524V158.236H123.453V159.276C123.688 158.946 124.019 158.658 124.445 158.412C124.872 158.167 125.357 158.044 125.901 158.044C126.531 158.044 127.059 158.172 127.485 158.428C127.923 158.684 128.253 159.042 128.477 159.5C128.701 159.948 128.813 160.476 128.813 161.084V166.524H127.389V161.308C127.389 160.732 127.24 160.263 126.941 159.9C126.643 159.527 126.179 159.34 125.549 159.34C125.229 159.34 124.925 159.41 124.637 159.548C124.36 159.676 124.115 159.858 123.901 160.092C123.699 160.327 123.549 160.594 123.453 160.892V166.524H122.029ZM134.001 161.996L138.193 166.524H136.433L132.625 162.412V166.524H131.201V154.364H132.625V161.692L136.353 158.236H138.081L134.001 161.996ZM144.281 154.364V166.524H142.857V154.364H144.281ZM147.563 162.396C147.563 163.1 147.686 163.682 147.931 164.14C148.177 164.588 148.507 164.924 148.923 165.148C149.35 165.372 149.825 165.484 150.347 165.484C150.817 165.484 151.233 165.426 151.595 165.308C151.969 165.18 152.347 164.978 152.731 164.7V165.98C152.39 166.247 151.995 166.434 151.547 166.54C151.099 166.658 150.63 166.716 150.139 166.716C149.35 166.716 148.657 166.54 148.059 166.188C147.462 165.826 146.998 165.324 146.667 164.684C146.347 164.034 146.187 163.271 146.187 162.396C146.187 161.564 146.342 160.823 146.651 160.172C146.961 159.511 147.393 158.994 147.947 158.62C148.502 158.236 149.153 158.044 149.899 158.044C150.454 158.044 150.945 158.146 151.371 158.348C151.798 158.54 152.155 158.818 152.443 159.18C152.731 159.532 152.945 159.959 153.083 160.46C153.233 160.962 153.307 161.516 153.307 162.124V162.62H147.163L147.179 161.532H151.915C151.915 161.234 151.873 160.946 151.787 160.668C151.702 160.391 151.574 160.146 151.403 159.932C151.243 159.719 151.035 159.554 150.779 159.436C150.534 159.308 150.241 159.244 149.899 159.244C149.483 159.244 149.099 159.362 148.747 159.596C148.395 159.82 148.107 160.167 147.883 160.636C147.67 161.106 147.563 161.692 147.563 162.396ZM157.874 165.548C158.343 165.548 158.759 165.452 159.122 165.26C159.495 165.058 159.746 164.802 159.874 164.492V163.596C159.746 163.298 159.495 163.052 159.122 162.86C158.759 162.668 158.343 162.572 157.874 162.572C157.543 162.572 157.228 162.631 156.93 162.748C156.631 162.855 156.391 163.02 156.21 163.244C156.028 163.468 155.938 163.74 155.938 164.06C155.938 164.38 156.028 164.652 156.21 164.876C156.391 165.1 156.631 165.271 156.93 165.388C157.228 165.495 157.543 165.548 157.874 165.548ZM159.874 160.988C159.874 160.498 159.698 160.098 159.346 159.788C158.994 159.479 158.482 159.324 157.81 159.324C157.362 159.324 156.94 159.394 156.546 159.532C156.151 159.66 155.783 159.842 155.442 160.076V158.732C155.719 158.54 156.092 158.38 156.562 158.252C157.031 158.114 157.522 158.044 158.034 158.044C158.706 158.044 159.276 158.162 159.746 158.396C160.226 158.62 160.588 158.951 160.834 159.388C161.09 159.826 161.218 160.343 161.218 160.94V166.524H159.874V165.916C159.714 166.098 159.436 166.279 159.042 166.46C158.647 166.631 158.194 166.716 157.682 166.716C157.127 166.716 156.615 166.61 156.146 166.396C155.676 166.172 155.303 165.863 155.026 165.468C154.748 165.074 154.61 164.604 154.61 164.06C154.61 163.527 154.748 163.063 155.026 162.668C155.303 162.263 155.676 161.954 156.146 161.74C156.615 161.516 157.127 161.404 157.682 161.404C158.194 161.404 158.647 161.49 159.042 161.66C159.447 161.831 159.724 162.002 159.874 162.172V160.988ZM169.111 165.548C168.972 165.751 168.786 165.943 168.551 166.124C168.316 166.295 168.044 166.434 167.735 166.54C167.426 166.658 167.095 166.716 166.743 166.716C166.156 166.716 165.628 166.604 165.159 166.38C164.7 166.146 164.311 165.831 163.991 165.436C163.682 165.031 163.442 164.567 163.271 164.044C163.111 163.522 163.031 162.967 163.031 162.38C163.031 161.794 163.111 161.239 163.271 160.716C163.442 160.194 163.682 159.735 163.991 159.34C164.311 158.935 164.7 158.62 165.159 158.396C165.628 158.162 166.156 158.044 166.743 158.044C167.095 158.044 167.426 158.103 167.735 158.22C168.044 158.327 168.316 158.471 168.551 158.652C168.786 158.823 168.972 159.01 169.111 159.212V154.364H170.535V166.524H169.111V165.548ZM169.111 164.06V160.7C168.898 160.263 168.599 159.922 168.215 159.676C167.831 159.431 167.42 159.308 166.983 159.308C166.588 159.308 166.231 159.388 165.911 159.548C165.602 159.698 165.335 159.911 165.111 160.188C164.898 160.455 164.732 160.775 164.615 161.148C164.498 161.522 164.439 161.932 164.439 162.38C164.439 162.828 164.498 163.239 164.615 163.612C164.732 163.986 164.898 164.311 165.111 164.588C165.335 164.855 165.602 165.068 165.911 165.228C166.231 165.378 166.588 165.452 166.983 165.452C167.42 165.452 167.831 165.33 168.215 165.084C168.599 164.839 168.898 164.498 169.111 164.06ZM172.501 165.884V164.396C172.757 164.631 173.035 164.834 173.333 165.004C173.632 165.164 173.941 165.292 174.261 165.388C174.592 165.474 174.923 165.516 175.253 165.516C175.563 165.516 175.845 165.474 176.101 165.388C176.368 165.303 176.581 165.175 176.741 165.004C176.912 164.823 176.997 164.594 176.997 164.316C176.997 164.018 176.891 163.778 176.677 163.596C176.464 163.415 176.187 163.266 175.845 163.148C175.515 163.031 175.157 162.914 174.773 162.796C174.4 162.668 174.043 162.519 173.701 162.348C173.36 162.167 173.083 161.927 172.869 161.628C172.656 161.319 172.549 160.919 172.549 160.428C172.549 159.948 172.677 159.527 172.933 159.164C173.2 158.802 173.557 158.524 174.005 158.332C174.453 158.14 174.955 158.044 175.509 158.044C175.968 158.044 176.405 158.108 176.821 158.236C177.248 158.364 177.627 158.546 177.957 158.78V160.252C177.616 159.954 177.243 159.714 176.837 159.532C176.432 159.34 175.989 159.244 175.509 159.244C175.072 159.244 174.699 159.34 174.389 159.532C174.08 159.724 173.925 160.002 173.925 160.364C173.925 160.663 174.032 160.898 174.245 161.068C174.459 161.239 174.731 161.383 175.061 161.5C175.403 161.607 175.76 161.719 176.133 161.836C176.517 161.954 176.88 162.103 177.221 162.284C177.563 162.466 177.84 162.711 178.053 163.02C178.267 163.33 178.373 163.74 178.373 164.252C178.373 164.764 178.235 165.207 177.957 165.58C177.68 165.943 177.301 166.226 176.821 166.428C176.352 166.62 175.824 166.716 175.237 166.716C174.704 166.716 174.192 166.642 173.701 166.492C173.211 166.332 172.811 166.13 172.501 165.884ZM185.975 159.42V166.524H184.567V159.42H182.823V158.236H184.567V156.028H185.975V158.236H187.895V159.42H185.975ZM189.592 166.524V154.364H191.016V159.276C191.25 158.946 191.581 158.658 192.008 158.412C192.434 158.167 192.92 158.044 193.464 158.044C194.093 158.044 194.621 158.172 195.048 158.428C195.485 158.684 195.816 159.042 196.04 159.5C196.264 159.948 196.376 160.476 196.376 161.084V166.524H194.952V161.308C194.952 160.732 194.802 160.263 194.504 159.9C194.205 159.527 193.741 159.34 193.112 159.34C192.792 159.34 192.488 159.41 192.2 159.548C191.922 159.676 191.677 159.858 191.464 160.092C191.261 160.327 191.112 160.594 191.016 160.892V166.524H189.592ZM199.548 162.396C199.548 163.1 199.67 163.682 199.916 164.14C200.161 164.588 200.492 164.924 200.908 165.148C201.334 165.372 201.809 165.484 202.332 165.484C202.801 165.484 203.217 165.426 203.58 165.308C203.953 165.18 204.332 164.978 204.716 164.7V165.98C204.374 166.247 203.98 166.434 203.532 166.54C203.084 166.658 202.614 166.716 202.124 166.716C201.334 166.716 200.641 166.54 200.044 166.188C199.446 165.826 198.982 165.324 198.652 164.684C198.332 164.034 198.172 163.271 198.172 162.396C198.172 161.564 198.326 160.823 198.636 160.172C198.945 159.511 199.377 158.994 199.932 158.62C200.486 158.236 201.137 158.044 201.884 158.044C202.438 158.044 202.929 158.146 203.356 158.348C203.782 158.54 204.14 158.818 204.428 159.18C204.716 159.532 204.929 159.959 205.068 160.46C205.217 160.962 205.292 161.516 205.292 162.124V162.62H199.148L199.164 161.532H203.9C203.9 161.234 203.857 160.946 203.772 160.668C203.686 160.391 203.558 160.146 203.388 159.932C203.228 159.719 203.02 159.554 202.764 159.436C202.518 159.308 202.225 159.244 201.884 159.244C201.468 159.244 201.084 159.362 200.732 159.596C200.38 159.82 200.092 160.167 199.868 160.636C199.654 161.106 199.548 161.692 199.548 162.396ZM214.514 158.236H215.762L217.49 164.62L219.33 158.236H220.69L218.21 166.524H216.866L215.122 160.172L213.362 166.524H212.018L209.554 158.236H210.946L212.77 164.62L214.514 158.236ZM224.764 165.548C225.233 165.548 225.649 165.452 226.012 165.26C226.385 165.058 226.636 164.802 226.764 164.492V163.596C226.636 163.298 226.385 163.052 226.012 162.86C225.649 162.668 225.233 162.572 224.764 162.572C224.433 162.572 224.119 162.631 223.82 162.748C223.521 162.855 223.281 163.02 223.1 163.244C222.919 163.468 222.828 163.74 222.828 164.06C222.828 164.38 222.919 164.652 223.1 164.876C223.281 165.1 223.521 165.271 223.82 165.388C224.119 165.495 224.433 165.548 224.764 165.548ZM226.764 160.988C226.764 160.498 226.588 160.098 226.236 159.788C225.884 159.479 225.372 159.324 224.7 159.324C224.252 159.324 223.831 159.394 223.436 159.532C223.041 159.66 222.673 159.842 222.332 160.076V158.732C222.609 158.54 222.983 158.38 223.452 158.252C223.921 158.114 224.412 158.044 224.924 158.044C225.596 158.044 226.167 158.162 226.636 158.396C227.116 158.62 227.479 158.951 227.724 159.388C227.98 159.826 228.108 160.343 228.108 160.94V166.524H226.764V165.916C226.604 166.098 226.327 166.279 225.932 166.46C225.537 166.631 225.084 166.716 224.572 166.716C224.017 166.716 223.505 166.61 223.036 166.396C222.567 166.172 222.193 165.863 221.916 165.468C221.639 165.074 221.5 164.604 221.5 164.06C221.5 163.527 221.639 163.063 221.916 162.668C222.193 162.263 222.567 161.954 223.036 161.74C223.505 161.516 224.017 161.404 224.572 161.404C225.084 161.404 225.537 161.49 225.932 161.66C226.337 161.831 226.615 162.002 226.764 162.172V160.988ZM232.677 166.572L229.429 158.236H230.949L233.365 164.764L235.797 158.236H237.269L232.789 169.724H231.397L232.677 166.572ZM244.074 158.236H245.946V159.42H244.074V166.524H242.666V159.42H241.274V158.236H242.666V156.828C242.666 156.274 242.778 155.799 243.002 155.404C243.226 155.01 243.53 154.711 243.914 154.508C244.298 154.295 244.736 154.188 245.226 154.188C245.429 154.188 245.621 154.204 245.802 154.236C245.984 154.268 246.154 154.316 246.314 154.38V155.644C246.186 155.57 246.042 155.511 245.882 155.468C245.733 155.426 245.584 155.404 245.434 155.404C245.018 155.404 244.688 155.538 244.442 155.804C244.197 156.06 244.074 156.439 244.074 156.94V158.236ZM246.75 162.38C246.75 161.527 246.91 160.775 247.23 160.124C247.55 159.474 247.992 158.967 248.558 158.604C249.134 158.231 249.806 158.044 250.574 158.044C251.331 158.044 251.992 158.231 252.558 158.604C253.134 158.967 253.582 159.474 253.902 160.124C254.232 160.775 254.398 161.527 254.398 162.38C254.398 163.234 254.232 163.986 253.902 164.636C253.582 165.287 253.134 165.799 252.558 166.172C251.992 166.535 251.331 166.716 250.574 166.716C249.806 166.716 249.134 166.535 248.558 166.172C247.992 165.799 247.55 165.287 247.23 164.636C246.91 163.986 246.75 163.234 246.75 162.38ZM248.158 162.38C248.158 162.988 248.254 163.527 248.446 163.996C248.638 164.466 248.915 164.834 249.278 165.1C249.64 165.356 250.072 165.484 250.574 165.484C251.064 165.484 251.491 165.356 251.854 165.1C252.216 164.834 252.494 164.466 252.686 163.996C252.878 163.527 252.974 162.988 252.974 162.38C252.974 161.772 252.878 161.239 252.686 160.78C252.494 160.311 252.216 159.943 251.854 159.676C251.491 159.41 251.064 159.276 250.574 159.276C250.072 159.276 249.64 159.41 249.278 159.676C248.915 159.943 248.638 160.311 248.446 160.78C248.254 161.239 248.158 161.772 248.158 162.38ZM260.567 158.172V159.612C260.45 159.538 260.306 159.484 260.135 159.452C259.965 159.42 259.794 159.404 259.623 159.404C259.325 159.404 259.047 159.463 258.791 159.58C258.535 159.698 258.311 159.874 258.119 160.108C257.927 160.343 257.789 160.62 257.703 160.94V166.524H256.279V158.236H257.703V159.292C257.821 159.058 257.981 158.85 258.183 158.668C258.386 158.476 258.621 158.327 258.887 158.22C259.154 158.103 259.437 158.044 259.735 158.044C259.917 158.044 260.082 158.055 260.231 158.076C260.381 158.098 260.493 158.13 260.567 158.172ZM267.031 165.548V166.524H265.607V154.364H267.031V159.212C267.17 159.01 267.357 158.823 267.591 158.652C267.837 158.471 268.109 158.327 268.407 158.22C268.717 158.103 269.047 158.044 269.399 158.044C269.986 158.044 270.509 158.162 270.967 158.396C271.437 158.62 271.831 158.935 272.151 159.34C272.471 159.735 272.711 160.194 272.871 160.716C273.042 161.239 273.127 161.794 273.127 162.38C273.127 162.967 273.042 163.522 272.871 164.044C272.711 164.567 272.471 165.031 272.151 165.436C271.831 165.831 271.437 166.146 270.967 166.38C270.509 166.604 269.986 166.716 269.399 166.716C269.047 166.716 268.717 166.658 268.407 166.54C268.109 166.434 267.837 166.295 267.591 166.124C267.357 165.943 267.17 165.751 267.031 165.548ZM267.031 164.06C267.245 164.498 267.543 164.839 267.927 165.084C268.322 165.33 268.733 165.452 269.159 165.452C269.554 165.452 269.906 165.378 270.215 165.228C270.535 165.068 270.802 164.855 271.015 164.588C271.239 164.311 271.41 163.986 271.527 163.612C271.645 163.239 271.703 162.828 271.703 162.38C271.703 161.932 271.645 161.522 271.527 161.148C271.41 160.775 271.239 160.455 271.015 160.188C270.802 159.911 270.535 159.698 270.215 159.548C269.906 159.388 269.554 159.308 269.159 159.308C268.733 159.308 268.322 159.431 267.927 159.676C267.543 159.922 267.245 160.263 267.031 160.7V164.06ZM276.438 158.236V166.524H275.014V158.236H276.438ZM274.822 155.708C274.822 155.452 274.907 155.239 275.078 155.068C275.248 154.887 275.462 154.796 275.718 154.796C275.974 154.796 276.187 154.887 276.358 155.068C276.528 155.239 276.614 155.452 276.614 155.708C276.614 155.954 276.528 156.167 276.358 156.348C276.187 156.519 275.974 156.604 275.718 156.604C275.462 156.604 275.248 156.519 275.078 156.348C274.907 156.167 274.822 155.954 274.822 155.708ZM284.424 163.948V160.588C284.2 160.194 283.896 159.879 283.512 159.644C283.128 159.41 282.717 159.292 282.28 159.292C281.874 159.292 281.517 159.367 281.208 159.516C280.898 159.655 280.632 159.863 280.408 160.14C280.194 160.407 280.029 160.722 279.912 161.084C279.805 161.447 279.752 161.847 279.752 162.284C279.752 162.722 279.805 163.122 279.912 163.484C280.029 163.847 280.194 164.167 280.408 164.444C280.632 164.711 280.898 164.919 281.208 165.068C281.517 165.207 281.874 165.276 282.28 165.276C282.717 165.276 283.128 165.159 283.512 164.924C283.896 164.679 284.2 164.354 284.424 163.948ZM285.832 165.884C285.832 166.599 285.72 167.207 285.496 167.708C285.272 168.22 284.962 168.636 284.568 168.956C284.184 169.276 283.746 169.511 283.256 169.66C282.776 169.82 282.28 169.9 281.768 169.9C281.224 169.9 280.717 169.831 280.248 169.692C279.789 169.554 279.4 169.372 279.08 169.148V167.628C279.485 167.98 279.917 168.236 280.376 168.396C280.845 168.556 281.309 168.636 281.768 168.636C282.29 168.636 282.749 168.535 283.144 168.332C283.549 168.13 283.864 167.831 284.088 167.436C284.312 167.042 284.424 166.551 284.424 165.964V165.356C284.274 165.559 284.082 165.751 283.848 165.932C283.613 166.103 283.341 166.247 283.032 166.364C282.722 166.471 282.392 166.524 282.04 166.524C281.442 166.524 280.914 166.412 280.456 166.188C279.997 165.954 279.608 165.639 279.288 165.244C278.978 164.85 278.744 164.402 278.584 163.9C278.424 163.388 278.344 162.85 278.344 162.284C278.344 161.719 278.424 161.186 278.584 160.684C278.744 160.172 278.978 159.719 279.288 159.324C279.608 158.93 279.997 158.62 280.456 158.396C280.914 158.162 281.442 158.044 282.04 158.044C282.392 158.044 282.722 158.098 283.032 158.204C283.341 158.311 283.613 158.455 283.848 158.636C284.093 158.807 284.285 158.988 284.424 159.18V158.236H285.832V165.884ZM295.655 158.236H296.903L298.631 164.62L300.471 158.236H301.831L299.351 166.524H298.007L296.263 160.172L294.503 166.524H293.159L290.695 158.236H292.087L293.911 164.62L295.655 158.236ZM304.079 162.396C304.079 163.1 304.202 163.682 304.447 164.14C304.692 164.588 305.023 164.924 305.439 165.148C305.866 165.372 306.34 165.484 306.863 165.484C307.332 165.484 307.748 165.426 308.111 165.308C308.484 165.18 308.863 164.978 309.247 164.7V165.98C308.906 166.247 308.511 166.434 308.063 166.54C307.615 166.658 307.146 166.716 306.655 166.716C305.866 166.716 305.172 166.54 304.575 166.188C303.978 165.826 303.514 165.324 303.183 164.684C302.863 164.034 302.703 163.271 302.703 162.396C302.703 161.564 302.858 160.823 303.167 160.172C303.476 159.511 303.908 158.994 304.463 158.62C305.018 158.236 305.668 158.044 306.415 158.044C306.97 158.044 307.46 158.146 307.887 158.348C308.314 158.54 308.671 158.818 308.959 159.18C309.247 159.532 309.46 159.959 309.599 160.46C309.748 160.962 309.823 161.516 309.823 162.124V162.62H303.679L303.695 161.532H308.431C308.431 161.234 308.388 160.946 308.303 160.668C308.218 160.391 308.09 160.146 307.919 159.932C307.759 159.719 307.551 159.554 307.295 159.436C307.05 159.308 306.756 159.244 306.415 159.244C305.999 159.244 305.615 159.362 305.263 159.596C304.911 159.82 304.623 160.167 304.399 160.636C304.186 161.106 304.079 161.692 304.079 162.396ZM311.204 165.884V164.396C311.46 164.631 311.738 164.834 312.036 165.004C312.335 165.164 312.644 165.292 312.964 165.388C313.295 165.474 313.626 165.516 313.956 165.516C314.266 165.516 314.548 165.474 314.804 165.388C315.071 165.303 315.284 165.175 315.444 165.004C315.615 164.823 315.7 164.594 315.7 164.316C315.7 164.018 315.594 163.778 315.38 163.596C315.167 163.415 314.89 163.266 314.548 163.148C314.218 163.031 313.86 162.914 313.476 162.796C313.103 162.668 312.746 162.519 312.404 162.348C312.063 162.167 311.786 161.927 311.572 161.628C311.359 161.319 311.252 160.919 311.252 160.428C311.252 159.948 311.38 159.527 311.636 159.164C311.903 158.802 312.26 158.524 312.708 158.332C313.156 158.14 313.658 158.044 314.212 158.044C314.671 158.044 315.108 158.108 315.524 158.236C315.951 158.364 316.33 158.546 316.66 158.78V160.252C316.319 159.954 315.946 159.714 315.54 159.532C315.135 159.34 314.692 159.244 314.212 159.244C313.775 159.244 313.402 159.34 313.092 159.532C312.783 159.724 312.628 160.002 312.628 160.364C312.628 160.663 312.735 160.898 312.948 161.068C313.162 161.239 313.434 161.383 313.764 161.5C314.106 161.607 314.463 161.719 314.836 161.836C315.22 161.954 315.583 162.103 315.924 162.284C316.266 162.466 316.543 162.711 316.756 163.02C316.97 163.33 317.076 163.74 317.076 164.252C317.076 164.764 316.938 165.207 316.66 165.58C316.383 165.943 316.004 166.226 315.524 166.428C315.055 166.62 314.527 166.716 313.94 166.716C313.407 166.716 312.895 166.642 312.404 166.492C311.914 166.332 311.514 166.13 311.204 165.884ZM321.256 159.42V166.524H319.848V159.42H318.104V158.236H319.848V156.028H321.256V158.236H323.176V159.42H321.256ZM325.47 162.396C325.47 163.1 325.592 163.682 325.838 164.14C326.083 164.588 326.414 164.924 326.83 165.148C327.256 165.372 327.731 165.484 328.254 165.484C328.723 165.484 329.139 165.426 329.502 165.308C329.875 165.18 330.254 164.978 330.638 164.7V165.98C330.296 166.247 329.902 166.434 329.454 166.54C329.006 166.658 328.536 166.716 328.046 166.716C327.256 166.716 326.563 166.54 325.966 166.188C325.368 165.826 324.904 165.324 324.574 164.684C324.254 164.034 324.094 163.271 324.094 162.396C324.094 161.564 324.248 160.823 324.558 160.172C324.867 159.511 325.299 158.994 325.854 158.62C326.408 158.236 327.059 158.044 327.806 158.044C328.36 158.044 328.851 158.146 329.278 158.348C329.704 158.54 330.062 158.818 330.35 159.18C330.638 159.532 330.851 159.959 330.99 160.46C331.139 160.962 331.214 161.516 331.214 162.124V162.62H325.07L325.086 161.532H329.822C329.822 161.234 329.779 160.946 329.694 160.668C329.608 160.391 329.48 160.146 329.31 159.932C329.15 159.719 328.942 159.554 328.686 159.436C328.44 159.308 328.147 159.244 327.806 159.244C327.39 159.244 327.006 159.362 326.654 159.596C326.302 159.82 326.014 160.167 325.789 160.636C325.576 161.106 325.47 161.692 325.47 162.396ZM337.38 158.172V159.612C337.262 159.538 337.118 159.484 336.948 159.452C336.777 159.42 336.606 159.404 336.436 159.404C336.137 159.404 335.86 159.463 335.604 159.58C335.348 159.698 335.124 159.874 334.932 160.108C334.74 160.343 334.601 160.62 334.516 160.94V166.524H333.092V158.236H334.516V159.292C334.633 159.058 334.793 158.85 334.996 158.668C335.198 158.476 335.433 158.327 335.7 158.22C335.966 158.103 336.249 158.044 336.548 158.044C336.729 158.044 336.894 158.055 337.044 158.076C337.193 158.098 337.305 158.13 337.38 158.172ZM339.107 166.524V158.236H340.531V159.276C340.766 158.946 341.097 158.658 341.523 158.412C341.95 158.167 342.435 158.044 342.979 158.044C343.609 158.044 344.137 158.172 344.563 158.428C345.001 158.684 345.331 159.042 345.555 159.5C345.779 159.948 345.891 160.476 345.891 161.084V166.524H344.467V161.308C344.467 160.732 344.318 160.263 344.019 159.9C343.721 159.527 343.257 159.34 342.627 159.34C342.307 159.34 342.003 159.41 341.715 159.548C341.438 159.676 341.193 159.858 340.979 160.092C340.777 160.327 340.627 160.594 340.531 160.892V166.524H339.107Z" fill="#B3B3B3"/>
    <defs>
        <clipPath id="clip0_912_1801">
            <rect width="418" height="42" fill="white" transform="translate(48 92.5244)"/>
        </clipPath>
    </defs>
</svg>
