<svg width="500" height="250" viewBox="0 0 500 250" fill="none" xmlns="http://www.w3.org/2000/svg">
<path d="M0 8C0 3.58172 3.58172 0 8 0H492C496.418 0 500 3.58172 500 8V250H0V8Z" fill="#F2F2F2"/>
<rect x="49.5" y="73.5" width="401" height="103" stroke="#0D7680" stroke-width="2"/>
<circle cx="90.5" cy="114.5" r="12" stroke="#0D7680" stroke-width="2"/>
<path d="M126.616 97.416L125.426 100.622H127.876L126.616 97.416ZM125.44 104.178V104.5H122.5V104.178C123.312 104.178 123.634 104.08 123.886 103.394L126.714 95.932H127.316L130.326 103.464C130.592 104.108 130.718 104.178 131.516 104.178V104.5H128.086V104.178C128.814 104.178 129.108 104.15 129.108 103.856C129.108 103.772 129.052 103.646 128.996 103.464L128.03 101.014H125.286L124.404 103.38C124.362 103.506 124.348 103.604 124.348 103.688C124.348 104.094 124.796 104.178 125.44 104.178ZM134.688 104.206V104.5H131.79V104.206C132.448 104.206 132.616 104.15 132.616 103.464V99.558C132.616 98.872 132.448 98.83 131.79 98.83V98.536H133.848V99.698C134.114 99.152 134.814 98.396 135.766 98.396C137.012 98.396 137.586 99.32 137.586 100.44V103.464C137.586 104.15 137.754 104.206 138.412 104.206V104.5H135.528V104.206C136.186 104.206 136.354 104.15 136.354 103.464V100.678C136.354 99.656 135.92 99.11 135.108 99.11C134.534 99.11 134.058 99.516 133.848 99.978V103.464C133.848 104.15 134.03 104.206 134.688 104.206ZM141.66 104.206V104.5H138.762V104.206C139.42 104.206 139.588 104.15 139.588 103.464V99.558C139.588 98.872 139.42 98.83 138.762 98.83V98.536H140.82V99.698C141.086 99.152 141.786 98.396 142.738 98.396C143.984 98.396 144.558 99.32 144.558 100.44V103.464C144.558 104.15 144.726 104.206 145.384 104.206V104.5H142.5V104.206C143.158 104.206 143.326 104.15 143.326 103.464V100.678C143.326 99.656 142.892 99.11 142.08 99.11C141.506 99.11 141.03 99.516 140.82 99.978V103.464C140.82 104.15 141.002 104.206 141.66 104.206ZM149.963 104.5V103.45C149.697 103.996 149.025 104.64 148.115 104.64C146.953 104.64 146.337 103.758 146.337 102.638V99.558C146.337 98.872 146.169 98.83 145.511 98.83V98.536H147.569V102.442C147.569 103.408 147.961 103.982 148.759 103.982C149.291 103.982 149.711 103.646 149.963 103.156V99.558C149.963 98.872 149.781 98.83 149.123 98.83V98.536H151.195V103.464C151.195 104.15 151.363 104.206 152.021 104.206V104.5H149.963ZM154.927 98.396C156.299 98.396 156.971 99.166 156.971 100.468V103.422C156.971 103.856 157.195 104.066 157.433 104.066C157.657 104.066 157.783 103.968 157.979 103.744L158.147 103.926C157.895 104.318 157.489 104.64 156.971 104.64C156.383 104.64 155.907 104.276 155.753 103.674C155.389 104.15 154.759 104.64 153.989 104.64C153.219 104.64 152.519 104.15 152.519 103.296C152.519 102.428 153.247 101.966 154.297 101.574L155.739 101.042V100.356C155.739 99.53 155.613 98.788 154.647 98.788C153.737 98.788 153.219 99.404 153.107 100.384H152.841V98.97C153.303 98.676 154.157 98.396 154.927 98.396ZM155.739 101.42L154.619 101.826C154.087 102.036 153.667 102.372 153.667 103.016C153.667 103.618 154.059 104.01 154.647 104.01C155.039 104.01 155.431 103.786 155.739 103.436V101.42ZM158.96 96.436C158.96 95.75 158.792 95.694 157.994 95.694V95.4H160.192V103.464C160.192 104.15 160.36 104.206 161.018 104.206V104.5H158.134V104.206C158.792 104.206 158.96 104.15 158.96 103.464V96.436ZM169.703 104.64L168.261 100.762L166.721 104.64H166.623L164.565 99.558C164.313 98.928 164.229 98.83 163.613 98.83V98.536H166.469V98.83C166.021 98.83 165.713 98.844 165.713 99.152C165.713 99.25 165.755 99.376 165.839 99.572L167.085 102.834L168.065 100.244L167.813 99.558C167.561 98.914 167.477 98.83 166.861 98.83V98.536H169.633V98.83C169.143 98.83 168.891 98.872 168.891 99.166C168.891 99.264 168.919 99.39 168.975 99.572L170.109 102.834L171.215 99.558C171.257 99.418 171.299 99.292 171.299 99.194C171.299 98.886 170.991 98.83 170.473 98.83V98.536H172.643V98.83C171.985 98.83 171.929 98.9 171.677 99.558L169.801 104.64H169.703ZM173.627 96.478C173.627 96.058 173.977 95.722 174.383 95.722C174.817 95.722 175.153 96.058 175.153 96.478C175.153 96.898 174.817 97.22 174.383 97.22C173.977 97.22 173.627 96.898 173.627 96.478ZM173.809 99.558C173.809 98.872 173.641 98.83 172.983 98.83V98.536H175.041V103.464C175.041 104.15 175.223 104.206 175.881 104.206V104.5H172.983V104.206C173.641 104.206 173.809 104.15 173.809 103.464V99.558ZM176.208 98.788C176.95 98.284 177.636 97.612 178.084 96.968H178.196V98.564C178.644 98.564 179.75 98.55 180.156 98.508L180.072 98.97H178.196V102.806C178.196 103.492 178.49 103.996 179.148 103.996C179.582 103.996 179.876 103.8 180.17 103.394L180.366 103.548C179.932 104.248 179.344 104.64 178.546 104.64C177.664 104.64 176.964 103.996 176.964 103.058L177.006 98.97H176.208V98.788ZM183.344 104.206V104.5H180.46V104.206C181.118 104.206 181.286 104.15 181.286 103.464V96.436C181.286 95.75 181.118 95.694 180.32 95.694V95.4H182.518V99.698C182.784 99.152 183.498 98.396 184.436 98.396C185.696 98.396 186.256 99.32 186.256 100.44V103.464C186.256 104.15 186.424 104.206 187.096 104.206V104.5H184.212V104.206C184.87 104.206 185.024 104.15 185.024 103.464V100.678C185.024 99.656 184.59 99.11 183.792 99.11C183.218 99.11 182.742 99.516 182.518 99.978V103.464C182.518 104.15 182.686 104.206 183.344 104.206ZM192.333 98.396C193.705 98.396 194.377 99.166 194.377 100.468V103.422C194.377 103.856 194.601 104.066 194.839 104.066C195.063 104.066 195.189 103.968 195.385 103.744L195.553 103.926C195.301 104.318 194.895 104.64 194.377 104.64C193.789 104.64 193.313 104.276 193.159 103.674C192.795 104.15 192.165 104.64 191.395 104.64C190.625 104.64 189.925 104.15 189.925 103.296C189.925 102.428 190.653 101.966 191.703 101.574L193.145 101.042V100.356C193.145 99.53 193.019 98.788 192.053 98.788C191.143 98.788 190.625 99.404 190.513 100.384H190.247V98.97C190.709 98.676 191.563 98.396 192.333 98.396ZM193.145 101.42L192.025 101.826C191.493 102.036 191.073 102.372 191.073 103.016C191.073 103.618 191.465 104.01 192.053 104.01C192.445 104.01 192.837 103.786 193.145 103.436V101.42ZM199.797 104.5V103.45C199.531 103.996 198.859 104.64 197.949 104.64C196.787 104.64 196.171 103.758 196.171 102.638V99.558C196.171 98.872 196.003 98.83 195.345 98.83V98.536H197.403V102.442C197.403 103.408 197.795 103.982 198.593 103.982C199.125 103.982 199.545 103.646 199.797 103.156V99.558C199.797 98.872 199.615 98.83 198.957 98.83V98.536H201.029V103.464C201.029 104.15 201.197 104.206 201.855 104.206V104.5H199.797ZM202.171 98.788C202.913 98.284 203.599 97.612 204.047 96.968H204.159V98.564C204.607 98.564 205.713 98.55 206.119 98.508L206.035 98.97H204.159V102.806C204.159 103.492 204.453 103.996 205.111 103.996C205.545 103.996 205.839 103.8 206.133 103.394L206.329 103.548C205.895 104.248 205.307 104.64 204.509 104.64C203.627 104.64 202.927 103.996 202.927 103.058L202.969 98.97H202.171V98.788ZM212.275 101.518C212.275 103.352 210.861 104.64 209.377 104.64C207.893 104.64 206.479 103.352 206.479 101.518C206.479 99.67 207.893 98.396 209.377 98.396C210.861 98.396 212.275 99.67 212.275 101.518ZM210.987 101.518C210.987 99.684 210.329 98.746 209.377 98.746C208.425 98.746 207.767 99.684 207.767 101.518C207.767 103.338 208.425 104.276 209.377 104.276C210.329 104.276 210.987 103.338 210.987 101.518ZM216.001 104.206V104.5H212.837V104.206C213.495 104.206 213.663 104.15 213.663 103.464V99.558C213.663 98.872 213.495 98.83 212.837 98.83V98.536H214.895V99.782C215.469 98.956 215.917 98.396 216.449 98.396C216.869 98.396 217.317 98.76 217.499 99.068L216.925 100.104H216.897C216.659 99.67 216.267 99.306 215.875 99.306C215.553 99.306 215.287 99.558 214.895 100.062V103.464C214.895 104.15 215.119 104.206 216.001 104.206ZM222.828 103.394C222.296 104.22 221.47 104.64 220.63 104.64C219.02 104.64 217.676 103.38 217.676 101.574C217.676 99.74 219.034 98.396 220.406 98.396C222.016 98.396 222.73 99.642 222.73 100.804H218.838V101.056C218.838 102.694 219.79 103.94 221.204 103.94C221.82 103.94 222.296 103.716 222.674 103.24L222.828 103.394ZM220.392 98.76C219.622 98.76 219.034 99.362 218.88 100.468H221.582C221.54 99.474 221.176 98.76 220.392 98.76ZM226.221 104.206V104.5H223.323V104.206C223.981 104.206 224.149 104.15 224.149 103.464V99.558C224.149 98.872 223.981 98.83 223.323 98.83V98.536H225.381V99.698C225.647 99.152 226.347 98.396 227.299 98.396C228.545 98.396 229.119 99.32 229.119 100.44V103.464C229.119 104.15 229.287 104.206 229.945 104.206V104.5H227.061V104.206C227.719 104.206 227.887 104.15 227.887 103.464V100.678C227.887 99.656 227.453 99.11 226.641 99.11C226.067 99.11 225.591 99.516 225.381 99.978V103.464C225.381 104.15 225.563 104.206 226.221 104.206ZM235.448 103.394C234.916 104.22 234.09 104.64 233.25 104.64C231.64 104.64 230.296 103.38 230.296 101.574C230.296 99.74 231.654 98.396 233.026 98.396C234.636 98.396 235.35 99.642 235.35 100.804H231.458V101.056C231.458 102.694 232.41 103.94 233.824 103.94C234.44 103.94 234.916 103.716 235.294 103.24L235.448 103.394ZM233.012 98.76C232.242 98.76 231.654 99.362 231.5 100.468H234.202C234.16 99.474 233.796 98.76 233.012 98.76ZM241.535 104.64L240.093 100.762L238.553 104.64H238.455L236.397 99.558C236.145 98.928 236.061 98.83 235.445 98.83V98.536H238.301V98.83C237.853 98.83 237.545 98.844 237.545 99.152C237.545 99.25 237.587 99.376 237.671 99.572L238.917 102.834L239.897 100.244L239.645 99.558C239.393 98.914 239.309 98.83 238.693 98.83V98.536H241.465V98.83C240.975 98.83 240.723 98.872 240.723 99.166C240.723 99.264 240.751 99.39 240.807 99.572L241.941 102.834L243.047 99.558C243.089 99.418 243.131 99.292 243.131 99.194C243.131 98.886 242.823 98.83 242.305 98.83V98.536H244.475V98.83C243.817 98.83 243.761 98.9 243.509 99.558L241.633 104.64H241.535ZM247.048 98.396C248.42 98.396 249.092 99.166 249.092 100.468V103.422C249.092 103.856 249.316 104.066 249.554 104.066C249.778 104.066 249.904 103.968 250.1 103.744L250.268 103.926C250.016 104.318 249.61 104.64 249.092 104.64C248.504 104.64 248.028 104.276 247.874 103.674C247.51 104.15 246.88 104.64 246.11 104.64C245.34 104.64 244.64 104.15 244.64 103.296C244.64 102.428 245.368 101.966 246.418 101.574L247.86 101.042V100.356C247.86 99.53 247.734 98.788 246.768 98.788C245.858 98.788 245.34 99.404 245.228 100.384H244.962V98.97C245.424 98.676 246.278 98.396 247.048 98.396ZM247.86 101.42L246.74 101.826C246.208 102.036 245.788 102.372 245.788 103.016C245.788 103.618 246.18 104.01 246.768 104.01C247.16 104.01 247.552 103.786 247.86 103.436V101.42ZM251.081 96.436C251.081 95.75 250.913 95.694 250.115 95.694V95.4H252.313V103.464C252.313 104.15 252.481 104.206 253.139 104.206V104.5H250.255V104.206C250.913 104.206 251.081 104.15 251.081 103.464V96.436Z" fill="black"/>
<path d="M124.676 126.372L124.996 125.188H131.652C132.399 125.188 133.007 125.177 133.476 125.156C133.945 125.135 134.351 125.103 134.692 125.06C135.033 124.996 135.375 124.9 135.716 124.772H135.844L135.172 126.372H124.676ZM126.468 129.572C127.236 129.572 127.983 129.625 128.708 129.732C129.433 129.839 130.159 129.956 130.884 130.084C131.609 130.212 132.356 130.329 133.124 130.436C133.892 130.543 134.692 130.596 135.524 130.596C136.719 130.596 137.604 130.436 138.18 130.116C138.777 129.775 139.193 129.135 139.428 128.196L139.908 128.228C139.887 128.996 139.791 129.775 139.62 130.564C139.449 131.332 139.161 132.036 138.756 132.676C138.372 133.316 137.86 133.839 137.22 134.244C136.601 134.628 135.823 134.82 134.884 134.82C134.095 134.82 133.38 134.681 132.74 134.404C132.121 134.105 131.535 133.753 130.98 133.348C130.425 132.943 129.871 132.537 129.316 132.132C128.783 131.705 128.239 131.353 127.684 131.076C127.129 130.777 126.521 130.628 125.86 130.628C125.284 130.628 124.804 130.777 124.42 131.076C124.036 131.375 123.844 131.769 123.844 132.26C123.844 132.687 123.993 133.017 124.292 133.252C124.591 133.487 124.943 133.604 125.348 133.604C125.924 133.604 126.447 133.412 126.916 133.028C127.385 132.644 127.759 132.089 128.036 131.364C128.335 130.617 128.484 129.743 128.484 128.74C128.484 127.993 128.356 127.289 128.1 126.628C127.844 125.945 127.556 125.284 127.236 124.644C126.916 124.004 126.628 123.375 126.372 122.756C126.116 122.116 125.988 121.444 125.988 120.74C125.988 119.545 126.276 118.5 126.852 117.604C127.428 116.708 128.207 116.015 129.188 115.524C130.191 115.033 131.3 114.788 132.516 114.788C133.817 114.788 134.884 115.076 135.716 115.652C136.569 116.228 137.209 116.953 137.636 117.828C138.063 118.681 138.297 119.556 138.34 120.452L137.7 120.644C137.529 119.94 137.177 119.289 136.644 118.692C136.111 118.073 135.364 117.764 134.404 117.764C133.487 117.764 132.719 118.095 132.1 118.756C131.503 119.417 131.204 120.313 131.204 121.444C131.204 121.892 131.247 122.361 131.332 122.852C131.417 123.343 131.503 123.833 131.588 124.324C131.673 124.815 131.716 125.316 131.716 125.828C131.716 127.108 131.524 128.281 131.14 129.348C130.777 130.393 130.287 131.3 129.668 132.068C129.071 132.836 128.399 133.433 127.652 133.86C126.927 134.287 126.191 134.5 125.444 134.5C124.719 134.5 124.1 134.297 123.588 133.892C123.097 133.465 122.852 132.921 122.852 132.26C122.852 131.641 123.033 131.14 123.396 130.756C123.759 130.351 124.207 130.052 124.74 129.86C125.295 129.668 125.871 129.572 126.468 129.572ZM152.965 134.5H139.62V134.34C141.156 132.847 142.437 131.556 143.461 130.468C144.506 129.359 145.349 128.399 145.989 127.588C146.629 126.777 147.109 126.073 147.429 125.476C147.749 124.879 147.962 124.324 148.069 123.812C148.197 123.279 148.26 122.745 148.26 122.212C148.26 121.231 147.962 120.388 147.365 119.684C146.767 118.98 145.914 118.628 144.805 118.628C143.823 118.628 143.013 118.905 142.373 119.46C141.754 119.993 141.263 120.697 140.901 121.572L140.293 121.38C140.463 120.591 140.741 119.812 141.125 119.044C141.53 118.255 142.031 117.54 142.629 116.9C143.226 116.26 143.919 115.748 144.709 115.364C145.498 114.98 146.373 114.788 147.333 114.788C148.442 114.788 149.423 115.023 150.277 115.492C151.151 115.961 151.834 116.612 152.325 117.444C152.837 118.255 153.093 119.204 153.093 120.292C153.093 121.188 152.879 122.041 152.453 122.852C152.047 123.663 151.45 124.463 150.661 125.252C149.893 126.02 148.975 126.831 147.909 127.684C146.863 128.516 145.722 129.444 144.485 130.468H149.605C150.607 130.468 151.354 130.425 151.845 130.34C152.357 130.233 152.73 130.063 152.965 129.828C153.199 129.572 153.391 129.22 153.541 128.772H154.149L152.965 134.5ZM166.15 119.812H158.214C157.424 119.812 156.806 119.929 156.358 120.164C155.91 120.399 155.558 120.932 155.302 121.764H154.758L155.75 115.108H169.03V115.236L160.902 134.5H157.062V134.372C158.022 133.433 158.971 132.303 159.91 130.98C160.848 129.657 161.83 128.079 162.854 126.244C163.878 124.409 164.976 122.265 166.15 119.812ZM180.187 124.804C180.187 123.055 180.091 121.497 179.899 120.132C179.707 118.767 179.408 117.689 179.003 116.9C178.597 116.111 178.043 115.716 177.339 115.716C176.656 115.716 176.101 116.111 175.675 116.9C175.269 117.689 174.981 118.767 174.811 120.132C174.64 121.497 174.555 123.055 174.555 124.804C174.555 126.532 174.64 128.089 174.811 129.476C174.981 130.841 175.269 131.919 175.675 132.708C176.101 133.497 176.656 133.892 177.339 133.892C178.043 133.892 178.597 133.497 179.003 132.708C179.408 131.919 179.707 130.841 179.899 129.476C180.091 128.089 180.187 126.532 180.187 124.804ZM168.955 124.804C168.955 123.46 169.179 122.191 169.627 120.996C170.075 119.78 170.693 118.713 171.483 117.796C172.272 116.857 173.168 116.121 174.171 115.588C175.173 115.055 176.229 114.788 177.339 114.788C178.448 114.788 179.504 115.055 180.507 115.588C181.509 116.121 182.405 116.857 183.195 117.796C184.005 118.713 184.635 119.78 185.083 120.996C185.552 122.191 185.787 123.46 185.787 124.804C185.787 126.148 185.552 127.428 185.083 128.644C184.635 129.839 184.005 130.905 183.195 131.844C182.405 132.761 181.509 133.487 180.507 134.02C179.504 134.553 178.448 134.82 177.339 134.82C176.229 134.82 175.173 134.553 174.171 134.02C173.168 133.487 172.272 132.761 171.483 131.844C170.693 130.905 170.075 129.839 169.627 128.644C169.179 127.428 168.955 126.148 168.955 124.804ZM185.987 132.004C185.987 131.215 186.264 130.553 186.819 130.02C187.373 129.465 188.035 129.188 188.803 129.188C189.571 129.188 190.221 129.465 190.755 130.02C191.309 130.553 191.587 131.215 191.587 132.004C191.587 132.772 191.309 133.433 190.755 133.988C190.221 134.543 189.571 134.82 188.803 134.82C188.035 134.82 187.373 134.543 186.819 133.988C186.264 133.433 185.987 132.772 185.987 132.004ZM203.031 124.804C203.031 123.055 202.935 121.497 202.743 120.132C202.551 118.767 202.252 117.689 201.847 116.9C201.441 116.111 200.887 115.716 200.183 115.716C199.5 115.716 198.945 116.111 198.519 116.9C198.113 117.689 197.825 118.767 197.655 120.132C197.484 121.497 197.399 123.055 197.399 124.804C197.399 126.532 197.484 128.089 197.655 129.476C197.825 130.841 198.113 131.919 198.519 132.708C198.945 133.497 199.5 133.892 200.183 133.892C200.887 133.892 201.441 133.497 201.847 132.708C202.252 131.919 202.551 130.841 202.743 129.476C202.935 128.089 203.031 126.532 203.031 124.804ZM191.799 124.804C191.799 123.46 192.023 122.191 192.471 120.996C192.919 119.78 193.537 118.713 194.327 117.796C195.116 116.857 196.012 116.121 197.015 115.588C198.017 115.055 199.073 114.788 200.183 114.788C201.292 114.788 202.348 115.055 203.351 115.588C204.353 116.121 205.249 116.857 206.039 117.796C206.849 118.713 207.479 119.78 207.927 120.996C208.396 122.191 208.631 123.46 208.631 124.804C208.631 126.148 208.396 127.428 207.927 128.644C207.479 129.839 206.849 130.905 206.039 131.844C205.249 132.761 204.353 133.487 203.351 134.02C202.348 134.553 201.292 134.82 200.183 134.82C199.073 134.82 198.017 134.553 197.015 134.02C196.012 133.487 195.116 132.761 194.327 131.844C193.537 130.905 192.919 129.839 192.471 128.644C192.023 127.428 191.799 126.148 191.799 124.804ZM221.312 124.804C221.312 123.055 221.216 121.497 221.024 120.132C220.832 118.767 220.533 117.689 220.128 116.9C219.722 116.111 219.168 115.716 218.464 115.716C217.781 115.716 217.226 116.111 216.8 116.9C216.394 117.689 216.106 118.767 215.936 120.132C215.765 121.497 215.68 123.055 215.68 124.804C215.68 126.532 215.765 128.089 215.936 129.476C216.106 130.841 216.394 131.919 216.8 132.708C217.226 133.497 217.781 133.892 218.464 133.892C219.168 133.892 219.722 133.497 220.128 132.708C220.533 131.919 220.832 130.841 221.024 129.476C221.216 128.089 221.312 126.532 221.312 124.804ZM210.08 124.804C210.08 123.46 210.304 122.191 210.752 120.996C211.2 119.78 211.818 118.713 212.608 117.796C213.397 116.857 214.293 116.121 215.296 115.588C216.298 115.055 217.354 114.788 218.464 114.788C219.573 114.788 220.629 115.055 221.632 115.588C222.634 116.121 223.53 116.857 224.32 117.796C225.13 118.713 225.76 119.78 226.208 120.996C226.677 122.191 226.912 123.46 226.912 124.804C226.912 126.148 226.677 127.428 226.208 128.644C225.76 129.839 225.13 130.905 224.32 131.844C223.53 132.761 222.634 133.487 221.632 134.02C220.629 134.553 219.573 134.82 218.464 134.82C217.354 134.82 216.298 134.553 215.296 134.02C214.293 133.487 213.397 132.761 212.608 131.844C211.818 130.905 211.2 129.839 210.752 128.644C210.304 127.428 210.08 126.148 210.08 124.804Z" fill="black"/>
<path d="M128.702 154.5H124.656V154.178C125.748 154.178 126.042 154.094 126.042 153.45V150.272L123.746 147.052C123.312 146.45 123.214 146.338 122.5 146.338V146.016H125.972V146.338C125.3 146.338 125.006 146.394 125.006 146.59C125.006 146.688 125.048 146.828 125.188 146.996L127.148 149.782L128.828 147.094C128.912 146.94 128.954 146.828 128.954 146.73C128.954 146.408 128.506 146.338 127.904 146.338V146.016H130.83V146.338C130.032 146.338 129.724 146.464 129.332 147.08L127.316 150.286V153.45C127.316 154.094 127.61 154.178 128.702 154.178V154.5ZM135.658 151.518C135.658 153.352 134.244 154.64 132.76 154.64C131.276 154.64 129.862 153.352 129.862 151.518C129.862 149.67 131.276 148.396 132.76 148.396C134.244 148.396 135.658 149.67 135.658 151.518ZM134.37 151.518C134.37 149.684 133.712 148.746 132.76 148.746C131.808 148.746 131.15 149.684 131.15 151.518C131.15 153.338 131.808 154.276 132.76 154.276C133.712 154.276 134.37 153.338 134.37 151.518ZM140.461 154.5V153.45C140.195 153.996 139.523 154.64 138.613 154.64C137.451 154.64 136.835 153.758 136.835 152.638V149.558C136.835 148.872 136.667 148.83 136.009 148.83V148.536H138.067V152.442C138.067 153.408 138.459 153.982 139.257 153.982C139.789 153.982 140.209 153.646 140.461 153.156V149.558C140.461 148.872 140.279 148.83 139.621 148.83V148.536H141.693V153.464C141.693 154.15 141.861 154.206 142.519 154.206V154.5H140.461ZM151.164 154.64L149.722 150.762L148.182 154.64H148.084L146.026 149.558C145.774 148.928 145.69 148.83 145.074 148.83V148.536H147.93V148.83C147.482 148.83 147.174 148.844 147.174 149.152C147.174 149.25 147.216 149.376 147.3 149.572L148.546 152.834L149.526 150.244L149.274 149.558C149.022 148.914 148.938 148.83 148.322 148.83V148.536H151.094V148.83C150.604 148.83 150.352 148.872 150.352 149.166C150.352 149.264 150.38 149.39 150.436 149.572L151.57 152.834L152.676 149.558C152.718 149.418 152.76 149.292 152.76 149.194C152.76 148.886 152.452 148.83 151.934 148.83V148.536H154.104V148.83C153.446 148.83 153.39 148.9 153.138 149.558L151.262 154.64H151.164ZM155.088 146.478C155.088 146.058 155.438 145.722 155.844 145.722C156.278 145.722 156.614 146.058 156.614 146.478C156.614 146.898 156.278 147.22 155.844 147.22C155.438 147.22 155.088 146.898 155.088 146.478ZM155.27 149.558C155.27 148.872 155.102 148.83 154.444 148.83V148.536H156.502V153.464C156.502 154.15 156.684 154.206 157.342 154.206V154.5H154.444V154.206C155.102 154.206 155.27 154.15 155.27 153.464V149.558ZM158.509 146.436C158.509 145.75 158.341 145.694 157.543 145.694V145.4H159.741V153.464C159.741 154.15 159.909 154.206 160.567 154.206V154.5H157.683V154.206C158.341 154.206 158.509 154.15 158.509 153.464V146.436ZM161.763 146.436C161.763 145.75 161.595 145.694 160.797 145.694V145.4H162.995V153.464C162.995 154.15 163.163 154.206 163.821 154.206V154.5H160.937V154.206C161.595 154.206 161.763 154.15 161.763 153.464V146.436ZM169.355 154.64C168.697 154.64 167.927 154.542 167.283 154.318V146.436C167.283 145.75 167.115 145.694 166.317 145.694V145.4H168.515V149.418C168.837 148.914 169.509 148.396 170.335 148.396C171.721 148.396 172.799 149.502 172.799 151.224C172.799 153.31 171.161 154.64 169.355 154.64ZM169.411 154.276C170.531 154.276 171.539 153.422 171.539 151.574C171.539 150.16 170.993 148.984 169.803 148.984C169.243 148.984 168.781 149.306 168.515 149.684V153.324C168.515 154.052 168.865 154.276 169.411 154.276ZM178.655 153.394C178.123 154.22 177.297 154.64 176.457 154.64C174.847 154.64 173.503 153.38 173.503 151.574C173.503 149.74 174.861 148.396 176.233 148.396C177.843 148.396 178.557 149.642 178.557 150.804H174.665V151.056C174.665 152.694 175.617 153.94 177.031 153.94C177.647 153.94 178.123 153.716 178.501 153.24L178.655 153.394ZM176.219 148.76C175.449 148.76 174.861 149.362 174.707 150.468H177.409C177.367 149.474 177.003 148.76 176.219 148.76ZM184.58 148.396C185.252 148.396 185.854 148.564 186.288 148.9L186.26 150.328H185.994C185.924 149.362 185.462 148.788 184.566 148.788C183.516 148.788 182.662 149.67 182.662 151.168C182.662 152.764 183.614 153.954 184.888 153.954C185.49 153.954 185.882 153.758 186.344 153.212L186.526 153.38C185.98 154.234 185.112 154.64 184.3 154.64C182.802 154.64 181.528 153.464 181.528 151.644C181.528 149.768 183.012 148.396 184.58 148.396ZM189.701 154.206V154.5H186.817V154.206C187.475 154.206 187.643 154.15 187.643 153.464V146.436C187.643 145.75 187.475 145.694 186.677 145.694V145.4H188.875V149.698C189.141 149.152 189.855 148.396 190.793 148.396C192.053 148.396 192.613 149.32 192.613 150.44V153.464C192.613 154.15 192.781 154.206 193.453 154.206V154.5H190.569V154.206C191.227 154.206 191.381 154.15 191.381 153.464V150.678C191.381 149.656 190.947 149.11 190.149 149.11C189.575 149.11 189.099 149.516 188.875 149.978V153.464C188.875 154.15 189.043 154.206 189.701 154.206ZM196.311 148.396C197.683 148.396 198.355 149.166 198.355 150.468V153.422C198.355 153.856 198.579 154.066 198.817 154.066C199.041 154.066 199.167 153.968 199.363 153.744L199.531 153.926C199.279 154.318 198.873 154.64 198.355 154.64C197.767 154.64 197.291 154.276 197.137 153.674C196.773 154.15 196.143 154.64 195.373 154.64C194.603 154.64 193.903 154.15 193.903 153.296C193.903 152.428 194.631 151.966 195.681 151.574L197.123 151.042V150.356C197.123 149.53 196.997 148.788 196.031 148.788C195.121 148.788 194.603 149.404 194.491 150.384H194.225V148.97C194.687 148.676 195.541 148.396 196.311 148.396ZM197.123 151.42L196.003 151.826C195.471 152.036 195.051 152.372 195.051 153.016C195.051 153.618 195.443 154.01 196.031 154.01C196.423 154.01 196.815 153.786 197.123 153.436V151.42ZM202.753 154.206V154.5H199.589V154.206C200.247 154.206 200.415 154.15 200.415 153.464V149.558C200.415 148.872 200.247 148.83 199.589 148.83V148.536H201.647V149.782C202.221 148.956 202.669 148.396 203.201 148.396C203.621 148.396 204.069 148.76 204.251 149.068L203.677 150.104H203.649C203.411 149.67 203.019 149.306 202.627 149.306C202.305 149.306 202.039 149.558 201.647 150.062V153.464C201.647 154.15 201.871 154.206 202.753 154.206ZM208.151 150.412C208.151 149.404 207.675 148.704 206.975 148.704C206.261 148.704 205.785 149.404 205.785 150.412C205.785 151.434 206.261 152.134 206.975 152.134C207.675 152.134 208.151 151.434 208.151 150.412ZM210.041 155.228C210.041 156.558 208.431 157.3 207.101 157.3C205.435 157.3 204.133 156.698 204.133 155.676C204.133 154.934 204.973 154.43 205.883 154.304C205.617 154.178 205.351 153.912 205.351 153.492C205.351 152.918 205.771 152.568 206.345 152.386C205.351 152.162 204.609 151.406 204.609 150.412C204.609 149.236 205.687 148.396 206.975 148.396C207.283 148.396 207.577 148.438 207.857 148.536C208.781 148.536 209.509 148.508 210.097 148.438L209.887 149.012L208.655 148.984C209.061 149.334 209.327 149.838 209.327 150.412C209.327 151.602 208.249 152.456 206.975 152.456C206.905 152.456 206.835 152.456 206.779 152.442C206.401 152.512 206.177 152.666 206.177 152.918C206.177 153.114 206.317 153.226 206.569 153.296L208.487 153.744C209.439 153.968 210.041 154.402 210.041 155.228ZM208.179 154.906L206.177 154.402C205.519 154.528 205.099 154.976 205.099 155.592C205.099 156.46 205.911 156.95 207.101 156.95C208.123 156.95 209.117 156.572 209.117 155.802C209.117 155.382 208.879 155.074 208.179 154.906ZM215.377 153.394C214.845 154.22 214.019 154.64 213.179 154.64C211.569 154.64 210.225 153.38 210.225 151.574C210.225 149.74 211.583 148.396 212.955 148.396C214.565 148.396 215.279 149.642 215.279 150.804H211.387V151.056C211.387 152.694 212.339 153.94 213.753 153.94C214.369 153.94 214.845 153.716 215.223 153.24L215.377 153.394ZM212.941 148.76C212.171 148.76 211.583 149.362 211.429 150.468H214.131C214.089 149.474 213.725 148.76 212.941 148.76ZM218.98 154.052C219.414 154.052 219.876 153.856 220.156 153.506V149.18C219.89 148.928 219.498 148.802 219.064 148.802C218.028 148.802 217.132 149.684 217.132 151.462C217.132 152.904 217.804 154.052 218.98 154.052ZM220.156 154.5V153.786C219.806 154.234 219.162 154.64 218.406 154.64C217.02 154.64 215.886 153.478 215.886 151.756C215.886 149.67 217.356 148.396 218.826 148.396C219.386 148.396 219.82 148.578 220.156 148.844V146.436C220.156 145.75 219.988 145.694 219.19 145.694V145.4H221.388V153.464C221.388 154.15 221.556 154.206 222.214 154.206V154.5H220.156ZM230.814 151.518C230.814 153.352 229.4 154.64 227.916 154.64C226.432 154.64 225.018 153.352 225.018 151.518C225.018 149.67 226.432 148.396 227.916 148.396C229.4 148.396 230.814 149.67 230.814 151.518ZM229.526 151.518C229.526 149.684 228.868 148.746 227.916 148.746C226.964 148.746 226.306 149.684 226.306 151.518C226.306 153.338 226.964 154.276 227.916 154.276C228.868 154.276 229.526 153.338 229.526 151.518ZM234.274 154.206V154.5H231.376V154.206C232.034 154.206 232.202 154.15 232.202 153.464V149.558C232.202 148.872 232.034 148.83 231.376 148.83V148.536H233.434V149.698C233.7 149.152 234.4 148.396 235.352 148.396C236.598 148.396 237.172 149.32 237.172 150.44V153.464C237.172 154.15 237.34 154.206 237.998 154.206V154.5H235.114V154.206C235.772 154.206 235.94 154.15 235.94 153.464V150.678C235.94 149.656 235.506 149.11 234.694 149.11C234.12 149.11 233.644 149.516 233.434 149.978V153.464C233.434 154.15 233.616 154.206 234.274 154.206ZM248.385 146.016H250.877V146.338C250.177 146.338 249.869 146.366 249.869 146.87V147.024L250.485 153.492C250.541 154.122 250.849 154.178 251.619 154.178V154.5H248.175V154.178C248.875 154.178 249.211 154.136 249.211 153.646C249.211 153.604 249.211 153.548 249.197 153.492L248.567 146.758L245.767 154.64H245.669L242.911 146.758L242.295 153.464V153.576C242.295 154.15 242.743 154.178 243.471 154.178V154.5H240.559V154.178C241.329 154.178 241.735 154.136 241.805 153.464L242.421 147.024V146.884C242.421 146.366 242.099 146.338 241.399 146.338V146.016H243.961L246.131 152.372L248.385 146.016ZM254.513 148.396C255.885 148.396 256.557 149.166 256.557 150.468V153.422C256.557 153.856 256.781 154.066 257.019 154.066C257.243 154.066 257.369 153.968 257.565 153.744L257.733 153.926C257.481 154.318 257.075 154.64 256.557 154.64C255.969 154.64 255.493 154.276 255.339 153.674C254.975 154.15 254.345 154.64 253.575 154.64C252.805 154.64 252.105 154.15 252.105 153.296C252.105 152.428 252.833 151.966 253.883 151.574L255.325 151.042V150.356C255.325 149.53 255.199 148.788 254.233 148.788C253.323 148.788 252.805 149.404 252.693 150.384H252.427V148.97C252.889 148.676 253.743 148.396 254.513 148.396ZM255.325 151.42L254.205 151.826C253.673 152.036 253.253 152.372 253.253 153.016C253.253 153.618 253.645 154.01 254.233 154.01C254.625 154.01 255.017 153.786 255.325 153.436V151.42ZM258.988 157.3L257.476 157.104V156.936C258.498 156.838 259.408 155.97 260.262 154.276L258.176 149.558C257.91 148.942 257.84 148.83 257.224 148.83V148.536H260.192V148.83C259.688 148.83 259.38 148.858 259.38 149.166C259.38 149.264 259.408 149.39 259.478 149.572L260.864 152.932L262.194 149.558C262.264 149.404 262.292 149.278 262.292 149.194C262.292 148.886 261.984 148.83 261.48 148.83V148.536H263.664V148.83C263.006 148.83 262.936 148.9 262.656 149.558L260.794 153.982C260.066 155.69 259.366 156.936 258.988 157.3ZM269.022 148.144V153.436C269.022 154.136 269.33 154.178 270.38 154.178V154.5H266.362V154.178C267.398 154.178 267.734 154.136 267.734 153.436V147.318C267.734 146.926 267.678 146.814 267.398 146.814C267.328 146.814 267.09 146.856 266.306 146.982V146.702L269.092 145.876C269.036 146.366 269.022 146.94 269.022 148.144ZM271.967 154.556C271.911 154.57 271.855 154.57 271.799 154.57C271.393 154.57 271.043 154.29 271.043 153.8C271.043 153.394 271.393 153.058 271.771 153.058C272.261 153.058 272.611 153.394 272.611 154.052C272.611 154.92 271.925 155.774 270.917 155.914L270.861 155.676C271.701 155.466 271.967 154.906 271.967 154.556ZM280.991 154.5H275.517V154.444C279.297 150.818 279.675 149.908 279.675 148.62C279.675 147.598 279.031 146.828 277.953 146.828C276.959 146.828 276.357 147.542 276.105 148.564L275.839 148.522C276.021 147.136 277.043 145.876 278.555 145.876C280.025 145.876 280.977 146.828 280.977 148.2C280.977 150.076 278.877 151.742 276.917 153.478H279.563C280.543 153.478 280.935 153.198 281.201 152.316H281.467L280.991 154.5ZM282.143 150.258C282.143 147.892 283.753 145.876 285.475 145.876C287.197 145.876 288.807 147.892 288.807 150.258C288.807 152.624 287.197 154.64 285.475 154.64C283.753 154.64 282.143 152.624 282.143 150.258ZM287.379 150.258C287.379 148.032 286.791 146.268 285.475 146.268C284.159 146.268 283.585 148.032 283.585 150.258C283.585 152.484 284.159 154.248 285.475 154.248C286.791 154.248 287.379 152.484 287.379 150.258ZM294.567 154.5H289.093V154.444C292.873 150.818 293.251 149.908 293.251 148.62C293.251 147.598 292.607 146.828 291.529 146.828C290.535 146.828 289.933 147.542 289.681 148.564L289.415 148.522C289.597 147.136 290.619 145.876 292.131 145.876C293.601 145.876 294.553 146.828 294.553 148.2C294.553 150.076 292.453 151.742 290.493 153.478H293.139C294.119 153.478 294.511 153.198 294.777 152.316H295.043L294.567 154.5ZM298.239 148.144V153.436C298.239 154.136 298.547 154.178 299.597 154.178V154.5H295.579V154.178C296.615 154.178 296.951 154.136 296.951 153.436V147.318C296.951 146.926 296.895 146.814 296.615 146.814C296.545 146.814 296.307 146.856 295.523 146.982V146.702L298.309 145.876C298.253 146.366 298.239 146.94 298.239 148.144ZM304.403 153.464C304.403 154.15 304.557 154.206 305.439 154.206V154.5H302.345V154.206C303.003 154.206 303.171 154.15 303.171 153.464V148.97H302.485V148.732L303.171 148.536V148.368C303.171 146.618 304.151 145.26 305.775 145.26C306.335 145.26 306.783 145.372 307.189 145.596L307.147 146.94H306.881C306.853 146.156 306.531 145.624 305.733 145.624C304.907 145.624 304.403 146.324 304.403 147.85V148.564C304.851 148.564 305.551 148.55 305.957 148.508L305.873 148.97H304.403V153.464ZM311.984 151.518C311.984 153.352 310.57 154.64 309.086 154.64C307.602 154.64 306.188 153.352 306.188 151.518C306.188 149.67 307.602 148.396 309.086 148.396C310.57 148.396 311.984 149.67 311.984 151.518ZM310.696 151.518C310.696 149.684 310.038 148.746 309.086 148.746C308.134 148.746 307.476 149.684 307.476 151.518C307.476 153.338 308.134 154.276 309.086 154.276C310.038 154.276 310.696 153.338 310.696 151.518ZM315.71 154.206V154.5H312.546V154.206C313.204 154.206 313.372 154.15 313.372 153.464V149.558C313.372 148.872 313.204 148.83 312.546 148.83V148.536H314.604V149.782C315.178 148.956 315.626 148.396 316.158 148.396C316.578 148.396 317.026 148.76 317.208 149.068L316.634 150.104H316.606C316.368 149.67 315.976 149.306 315.584 149.306C315.262 149.306 314.996 149.558 314.604 150.062V153.464C314.604 154.15 314.828 154.206 315.71 154.206ZM322.602 148.144V153.436C322.602 154.136 322.91 154.178 323.96 154.178V154.5H319.942V154.178C320.978 154.178 321.314 154.136 321.314 153.436V147.318C321.314 146.926 321.258 146.814 320.978 146.814C320.908 146.814 320.67 146.856 319.886 146.982V146.702L322.672 145.876C322.616 146.366 322.602 146.94 322.602 148.144ZM328.318 157.3L326.806 157.104V156.936C327.828 156.838 328.738 155.97 329.592 154.276L327.506 149.558C327.24 148.942 327.17 148.83 326.554 148.83V148.536H329.522V148.83C329.018 148.83 328.71 148.858 328.71 149.166C328.71 149.264 328.738 149.39 328.808 149.572L330.194 152.932L331.524 149.558C331.594 149.404 331.622 149.278 331.622 149.194C331.622 148.886 331.314 148.83 330.81 148.83V148.536H332.994V148.83C332.336 148.83 332.266 148.9 331.986 149.558L330.124 153.982C329.396 155.69 328.696 156.936 328.318 157.3ZM337.973 153.394C337.441 154.22 336.615 154.64 335.775 154.64C334.165 154.64 332.821 153.38 332.821 151.574C332.821 149.74 334.179 148.396 335.551 148.396C337.161 148.396 337.875 149.642 337.875 150.804H333.983V151.056C333.983 152.694 334.935 153.94 336.349 153.94C336.965 153.94 337.441 153.716 337.819 153.24L337.973 153.394ZM335.537 148.76C334.767 148.76 334.179 149.362 334.025 150.468H336.727C336.685 149.474 336.321 148.76 335.537 148.76ZM340.974 148.396C342.346 148.396 343.018 149.166 343.018 150.468V153.422C343.018 153.856 343.242 154.066 343.48 154.066C343.704 154.066 343.83 153.968 344.026 153.744L344.194 153.926C343.942 154.318 343.536 154.64 343.018 154.64C342.43 154.64 341.954 154.276 341.8 153.674C341.436 154.15 340.806 154.64 340.035 154.64C339.266 154.64 338.566 154.15 338.566 153.296C338.566 152.428 339.294 151.966 340.344 151.574L341.785 151.042V150.356C341.785 149.53 341.66 148.788 340.694 148.788C339.784 148.788 339.266 149.404 339.154 150.384H338.888V148.97C339.35 148.676 340.204 148.396 340.974 148.396ZM341.785 151.42L340.666 151.826C340.134 152.036 339.714 152.372 339.714 153.016C339.714 153.618 340.106 154.01 340.694 154.01C341.086 154.01 341.478 153.786 341.785 153.436V151.42ZM347.415 154.206V154.5H344.251V154.206C344.909 154.206 345.077 154.15 345.077 153.464V149.558C345.077 148.872 344.909 148.83 344.251 148.83V148.536H346.309V149.782C346.883 148.956 347.331 148.396 347.863 148.396C348.283 148.396 348.731 148.76 348.913 149.068L348.339 150.104H348.311C348.073 149.67 347.681 149.306 347.289 149.306C346.967 149.306 346.701 149.558 346.309 150.062V153.464C346.309 154.15 346.533 154.206 347.415 154.206ZM353.985 148.396C354.559 148.396 355.217 148.592 355.623 148.816L355.553 150.258H355.273C355.245 149.222 354.741 148.746 353.915 148.746C353.271 148.746 352.893 149.138 352.893 149.684C352.893 150.188 353.215 150.412 353.719 150.664L354.643 151.14C355.329 151.49 355.903 151.924 355.903 152.806C355.903 153.842 354.951 154.64 353.761 154.64C352.991 154.64 352.235 154.402 351.815 154.08L351.773 152.498H352.081C352.179 153.716 352.809 154.262 353.789 154.262C354.475 154.262 354.951 153.926 354.951 153.268C354.951 152.778 354.629 152.498 354.097 152.232L353.061 151.714C352.417 151.392 351.927 150.944 351.927 150.146C351.927 149.11 352.809 148.396 353.985 148.396ZM360.784 154.5V153.45C360.518 153.996 359.846 154.64 358.936 154.64C357.774 154.64 357.158 153.758 357.158 152.638V149.558C357.158 148.872 356.99 148.83 356.332 148.83V148.536H358.39V152.442C358.39 153.408 358.782 153.982 359.58 153.982C360.112 153.982 360.532 153.646 360.784 153.156V149.558C360.784 148.872 360.602 148.83 359.944 148.83V148.536H362.016V153.464C362.016 154.15 362.184 154.206 362.842 154.206V154.5H360.784ZM365.902 154.64C365.244 154.64 364.474 154.542 363.83 154.318V146.436C363.83 145.75 363.662 145.694 362.864 145.694V145.4H365.062V149.418C365.384 148.914 366.056 148.396 366.882 148.396C368.268 148.396 369.346 149.502 369.346 151.224C369.346 153.31 367.708 154.64 365.902 154.64ZM365.958 154.276C367.078 154.276 368.086 153.422 368.086 151.574C368.086 150.16 367.54 148.984 366.35 148.984C365.79 148.984 365.328 149.306 365.062 149.684V153.324C365.062 154.052 365.412 154.276 365.958 154.276ZM372.251 148.396C372.825 148.396 373.483 148.592 373.889 148.816L373.819 150.258H373.539C373.511 149.222 373.007 148.746 372.181 148.746C371.537 148.746 371.159 149.138 371.159 149.684C371.159 150.188 371.481 150.412 371.985 150.664L372.909 151.14C373.595 151.49 374.169 151.924 374.169 152.806C374.169 153.842 373.217 154.64 372.027 154.64C371.257 154.64 370.501 154.402 370.081 154.08L370.039 152.498H370.347C370.445 153.716 371.075 154.262 372.055 154.262C372.741 154.262 373.217 153.926 373.217 153.268C373.217 152.778 372.895 152.498 372.363 152.232L371.327 151.714C370.683 151.392 370.193 150.944 370.193 150.146C370.193 149.11 371.075 148.396 372.251 148.396ZM377.873 148.396C378.545 148.396 379.147 148.564 379.581 148.9L379.553 150.328H379.287C379.217 149.362 378.755 148.788 377.859 148.788C376.809 148.788 375.955 149.67 375.955 151.168C375.955 152.764 376.907 153.954 378.181 153.954C378.783 153.954 379.175 153.758 379.637 153.212L379.819 153.38C379.273 154.234 378.405 154.64 377.593 154.64C376.095 154.64 374.821 153.464 374.821 151.644C374.821 149.768 376.305 148.396 377.873 148.396ZM383.372 154.206V154.5H380.208V154.206C380.866 154.206 381.034 154.15 381.034 153.464V149.558C381.034 148.872 380.866 148.83 380.208 148.83V148.536H382.266V149.782C382.84 148.956 383.288 148.396 383.82 148.396C384.24 148.396 384.688 148.76 384.87 149.068L384.296 150.104H384.268C384.03 149.67 383.638 149.306 383.246 149.306C382.924 149.306 382.658 149.558 382.266 150.062V153.464C382.266 154.15 382.49 154.206 383.372 154.206ZM385.869 146.478C385.869 146.058 386.219 145.722 386.625 145.722C387.059 145.722 387.395 146.058 387.395 146.478C387.395 146.898 387.059 147.22 386.625 147.22C386.219 147.22 385.869 146.898 385.869 146.478ZM386.051 149.558C386.051 148.872 385.883 148.83 385.225 148.83V148.536H387.283V153.464C387.283 154.15 387.465 154.206 388.123 154.206V154.5H385.225V154.206C385.883 154.206 386.051 154.15 386.051 153.464V149.558ZM391.656 154.248C392.566 154.248 393.532 153.492 393.532 151.574C393.532 150.16 392.986 148.984 391.782 148.984C391.25 148.984 390.788 149.292 390.508 149.684V153.828C390.788 154.108 391.236 154.248 391.656 154.248ZM391.6 156.866V157.16H388.45V156.866C389.108 156.866 389.276 156.81 389.276 156.124V149.6C389.276 148.914 389.108 148.83 388.45 148.83V148.536H390.508V149.418C390.844 148.914 391.544 148.396 392.328 148.396C393.742 148.396 394.792 149.572 394.792 151.294C394.792 153.38 393.322 154.64 391.894 154.64C391.348 154.64 390.858 154.472 390.508 154.178V156.124C390.508 156.81 390.732 156.866 391.6 156.866ZM395.272 148.788C396.014 148.284 396.7 147.612 397.148 146.968H397.26V148.564C397.708 148.564 398.814 148.55 399.22 148.508L399.136 148.97H397.26V152.806C397.26 153.492 397.554 153.996 398.212 153.996C398.646 153.996 398.94 153.8 399.234 153.394L399.43 153.548C398.996 154.248 398.408 154.64 397.61 154.64C396.728 154.64 396.028 153.996 396.028 153.058L396.07 148.97H395.272V148.788ZM400.252 146.478C400.252 146.058 400.602 145.722 401.008 145.722C401.442 145.722 401.778 146.058 401.778 146.478C401.778 146.898 401.442 147.22 401.008 147.22C400.602 147.22 400.252 146.898 400.252 146.478ZM400.434 149.558C400.434 148.872 400.266 148.83 399.608 148.83V148.536H401.666V153.464C401.666 154.15 401.848 154.206 402.506 154.206V154.5H399.608V154.206C400.266 154.206 400.434 154.15 400.434 153.464V149.558ZM408.713 151.518C408.713 153.352 407.299 154.64 405.815 154.64C404.331 154.64 402.917 153.352 402.917 151.518C402.917 149.67 404.331 148.396 405.815 148.396C407.299 148.396 408.713 149.67 408.713 151.518ZM407.425 151.518C407.425 149.684 406.767 148.746 405.815 148.746C404.863 148.746 404.205 149.684 404.205 151.518C404.205 153.338 404.863 154.276 405.815 154.276C406.767 154.276 407.425 153.338 407.425 151.518ZM412.172 154.206V154.5H409.274V154.206C409.932 154.206 410.1 154.15 410.1 153.464V149.558C410.1 148.872 409.932 148.83 409.274 148.83V148.536H411.332V149.698C411.598 149.152 412.298 148.396 413.25 148.396C414.496 148.396 415.07 149.32 415.07 150.44V153.464C415.07 154.15 415.238 154.206 415.896 154.206V154.5H413.012V154.206C413.67 154.206 413.838 154.15 413.838 153.464V150.678C413.838 149.656 413.404 149.11 412.592 149.11C412.018 149.11 411.542 149.516 411.332 149.978V153.464C411.332 154.15 411.514 154.206 412.172 154.206ZM416.566 153.842C416.566 153.408 416.916 153.058 417.364 153.058C417.798 153.058 418.148 153.408 418.148 153.842C418.148 154.29 417.798 154.64 417.364 154.64C416.916 154.64 416.566 154.29 416.566 153.842Z" fill="black"/>
</svg>
