<svg width="500" height="250" viewBox="0 0 500 250" fill="none" xmlns="http://www.w3.org/2000/svg">
<mask id="path-1-inside-1_1342_1682" fill="white">
<path d="M0 8C0 3.58172 3.58172 0 8 0H492C496.418 0 500 3.58172 500 8V250H0V8Z"/>
</mask>
<path d="M0 8C0 3.58172 3.58172 0 8 0H492C496.418 0 500 3.58172 500 8V250H0V8Z" fill="#F2F2F2"/>
<path d="M0 0H500H0ZM500 251H0V249H500V251ZM0 250V0V250ZM500 0V250V0Z" fill="#00994D" mask="url(#path-1-inside-1_1342_1682)"/>
<path d="M76 33C76 28.5817 79.5817 25 84 25H416C420.418 25 424 28.5817 424 33V217C424 221.418 420.418 225 416 225H84C79.5817 225 76 221.418 76 217V33Z" fill="#FF0000" fill-opacity="0.2"/>
<path d="M76 29C76 26.7909 77.7909 25 80 25H108V225H80C77.7909 225 76 223.209 76 221V29Z" fill="white"/>
<rect opacity="0.1" x="76" y="25" width="32" height="200" fill="white"/>
<rect width="4" height="200" transform="translate(128 25)" fill="white"/>
<rect opacity="0.1" x="128" y="25" width="4" height="200" fill="white"/>
<rect width="4" height="200" transform="translate(152 25)" fill="white"/>
<rect opacity="0.1" x="152" y="25" width="4" height="200" fill="white"/>
<rect width="4" height="200" transform="translate(176 25)" fill="white"/>
<rect opacity="0.1" x="176" y="25" width="4" height="200" fill="white"/>
<rect width="4" height="200" transform="translate(200 25)" fill="white"/>
<rect opacity="0.1" x="200" y="25" width="4" height="200" fill="white"/>
<rect width="4" height="200" transform="translate(224 25)" fill="white"/>
<rect opacity="0.1" x="224" y="25" width="4" height="200" fill="white"/>
<rect width="4" height="200" transform="translate(248 25)" fill="white"/>
<rect opacity="0.1" x="248" y="25" width="4" height="200" fill="white"/>
<rect width="4" height="200" transform="translate(272 25)" fill="white"/>
<rect opacity="0.1" x="272" y="25" width="4" height="200" fill="white"/>
<rect width="4" height="200" transform="translate(296 25)" fill="white"/>
<rect opacity="0.1" x="296" y="25" width="4" height="200" fill="white"/>
<rect width="4" height="200" transform="translate(320 25)" fill="white"/>
<rect opacity="0.1" x="320" y="25" width="4" height="200" fill="white"/>
<rect width="4" height="200" transform="translate(344 25)" fill="white"/>
<rect opacity="0.1" x="344" y="25" width="4" height="200" fill="white"/>
<rect width="4" height="200" transform="translate(368 25)" fill="white"/>
<rect opacity="0.1" x="368" y="25" width="4" height="200" fill="white"/>
<path d="M392 25H420C422.209 25 424 26.7909 424 29V221C424 223.209 422.209 225 420 225H392V25Z" fill="white"/>
<rect opacity="0.1" x="392" y="25" width="32" height="200" fill="white"/>
<rect opacity="0.3" x="108" y="66" width="284" height="48" fill="#159BFF"/>
<rect x="76" y="41" width="348" height="1" fill="black" fill-opacity="0.2"/>
<rect x="108" y="50" width="116" height="8" fill="black" fill-opacity="0.2"/>
<rect opacity="0.3" x="108" y="122" width="92" height="52" rx="1" fill="#159BFF"/>
<rect opacity="0.3" x="108" y="202" width="92" height="23" rx="1" fill="#159BFF"/>
<rect opacity="0.3" x="204" y="122" width="92" height="52" rx="1" fill="#159BFF"/>
<rect opacity="0.3" x="300" y="122" width="92" height="72" rx="1" fill="#159BFF"/>
<rect opacity="0.3" x="300" y="202" width="92" height="23" rx="1" fill="#159BFF"/>
<rect opacity="0.3" x="204" y="202" width="92" height="23" rx="1" fill="#159BFF"/>
<rect x="108" y="178" width="52" height="4" fill="black" fill-opacity="0.2"/>
<rect x="204" y="178" width="52" height="4" fill="black" fill-opacity="0.2"/>
<rect x="108" y="186" width="80" height="8" fill="black" fill-opacity="0.2"/>
<rect x="204" y="186" width="82" height="8" fill="black" fill-opacity="0.2"/>
</svg>
