<svg xmlns="http://www.w3.org/2000/svg" viewBox="0 0 1024 1024"><path d="M512 358.4c-56.5 0-102.4 45.9-102.4 102.4 0 47.6 32.8 87.3 76.8 98.8V768h51.2V559.6c44-11.4 76.8-51.2 76.8-98.8 0-56.5-45.9-102.4-102.4-102.4zm0 153.6c-28.2 0-51.2-23-51.2-51.2 0-28.2 23-51.2 51.2-51.2s51.2 23 51.2 51.2c0 28.2-23 51.2-51.2 51.2zm204.8-51.2c0 85.8-53 159.3-128 189.7v-56.9c45.8-26.6 76.8-76.1 76.8-132.8 0-84.7-68.9-153.6-153.6-153.6s-153.6 68.9-153.6 153.6c0 56.7 31 106.2 76.8 132.8v56.9c-75-30.5-128-104-128-189.7C307.2 347.9 399.1 256 512 256s204.8 91.9 204.8 204.8z"/></svg>