<svg xmlns="http://www.w3.org/2000/svg" viewBox="0 0 1024 1024"><path d="M473.39 547.46q-4.22 3.6-12 3.59a33.17 33.17 0 0 1-12.93-2.62 40.15 40.15 0 0 1-11.73-7.59v18.64a35.88 35.88 0 0 0 11.43 5.85 50.18 50.18 0 0 0 14.87 2 36.62 36.62 0 0 0 12.4-2.1 29 29 0 0 0 10.3-6.17q9.63-8.57 9.62-22.39 0-9.76-5.18-16.53a28 28 0 0 0-14.36-9.61L494.87 474v-.44h-57.4v16.83h31.41l-15.94 30.31v.46q11.15-.31 17.89 3.75a13.05 13.05 0 0 1 6.77 11.88q0 7.07-4.21 10.67zm68.15 16.45a33.44 33.44 0 0 0 29.3 0 33.83 33.83 0 0 0 11.65-9.85 46.82 46.82 0 0 0 7.44-15.17 71.65 71.65 0 0 0 0-38.47 46.93 46.93 0 0 0-7.44-15.19 33.77 33.77 0 0 0-11.65-9.83 33.35 33.35 0 0 0-29.3 0 33.77 33.77 0 0 0-11.65 9.83 46.53 46.53 0 0 0-7.44 15.19 71.65 71.65 0 0 0 0 38.47 46.43 46.43 0 0 0 7.44 15.17 33.83 33.83 0 0 0 11.65 9.85zm1.57-66.65q4.51-8.11 13.08-8.11c5.61 0 9.94 2.74 13 8.26s4.58 12.92 4.58 22.24-1.48 16.86-4.43 22.32-7.34 8.19-13.15 8.19-10.38-2.95-13.37-8.87q-4.23-7.37-4.21-21.64t4.5-22.39z"/><path d="M688 490.9c-18.66-95.93-111-159-207-142.24l-5.84-16.29L428.74 381l66.74 8-5.64-15.72c80.7-11.91 157.31 41.78 173 122.56a153.67 153.67 0 1 1-301.6-.78l-25.1-5a179.47 179.47 0 0 0 175.47 214.39 182.93 182.93 0 0 0 34.6-3.35A179.29 179.29 0 0 0 688 490.9z"/></svg>