<svg xmlns="http://www.w3.org/2000/svg" viewBox="0 0 1024 1024"><path d="M545.8 294.7 363.7 431.5c-1.2.9-2 2.1-2.7 3.3H256v154.5h105c.7 1.2 1.6 2.4 2.7 3.3l182.1 136.7c7.2 5.4 17.5.3 17.5-8.7V303.5c0-9-10.3-14.2-17.5-8.8zm122.2 397c-8.8 0-17.4-4.5-22.2-12.7-7.1-12.2-3-27.9 9.2-35 2.4-1.4 61.7-38.4 61.7-132 0-95-61.1-131.6-61.7-132-12.2-7.1-16.3-22.8-9.2-35 7.1-12.2 22.8-16.3 35-9.2 3.7 2 87.2 52.2 87.2 176.2s-83.5 174.2-87.1 176.2c-4.1 2.4-8.5 3.5-12.9 3.5z"/><path d="M613.2 621.2c-8.8 0-17.4-4.5-22.1-12.7-7.1-12.2-3-27.9 9.2-35 .7-.4 24.6-16 24.6-55.1s-23.9-54.7-25-55.4c-11.8-7.4-15.7-23.1-8.4-35 7.2-12 22.5-16 34.6-9 2 1.2 50 29.9 50 99.4s-48 98.2-50 99.4c-4.1 2.3-8.5 3.4-12.9 3.4z" class="st6"/></svg>