<svg xmlns="http://www.w3.org/2000/svg" viewBox="0 0 1024 1024"><circle cx="435.2" cy="409.5" r="102.4"/><path d="M588.8 409.5c0 17.6-3.1 34.5-8.6 50.3 2.9.2 5.7.9 8.6.9 56.6 0 102.4-45.8 102.4-102.4 0-56.6-45.8-102.4-102.4-102.4-26.1 0-49.7 10.1-67.8 26.2 40.9 27.7 67.8 74.4 67.8 127.4zM435.2 563.1c-128 0-179.2 25.6-179.2 102.4v102.6h358.4V665.5c0-77.3-51.2-102.4-179.2-102.4z"/><path d="M588.8 511.9c-14.5 0-27.9.4-40.5 1.1-2.3 2.5-4.6 4.9-7 7.2 63.7 13.5 124.2 49.5 124.2 145.3v51.4H768V614.3c0-77.3-51.2-102.4-179.2-102.4z"/></svg>