<?xml version="1.0" encoding="iso-8859-1"?>
<!-- Generator: Adobe Illustrator 16.0.4, SVG Export Plug-In . SVG Version: 6.00 Build 0)  -->
<!DOCTYPE svg PUBLIC "-//W3C//DTD SVG 1.1//EN" "http://www.w3.org/Graphics/SVG/1.1/DTD/svg11.dtd">
<svg version="1.1" id="Layer_1" xmlns="http://www.w3.org/2000/svg" xmlns:xlink="http://www.w3.org/1999/xlink" x="0px" y="0px"
	 width="50px" height="50px" viewBox="0 0 50 50" style="enable-background:new 0 0 50 50;" xml:space="preserve">
<path style="fill:#333333;" d="M41.945,32.209l-2.533-3.584c-0.412-0.579-1.209-0.72-1.789-0.316l-12.601,8.753l-12.6-8.753
	c-0.579-0.403-1.382-0.263-1.791,0.316l-2.527,3.584c-0.412,0.58-0.272,1.373,0.312,1.777l15.864,10.912
	C24.444,45.008,24.62,45,24.795,45c0.008,0,0.008,0,0.017,0c0.031,0,0.061,0,0.096,0c0.018,0,0.027,0,0.044,0
	c0.017,0,0.043,0,0.069,0c0.027,0,0.049,0,0.075,0c0.013,0,0.023,0,0.039,0c0.036,0,0.067,0,0.103,0c0.004,0,0.004,0,0.007,0
	c0.18,0,0.356,0.008,0.518-0.102l15.861-10.967C42.213,33.527,42.353,32.789,41.945,32.209z"/>
<path style="fill:#333333;" d="M10.632,20.379c0.413,0.58,1.212,0.72,1.791,0.316l12.6-8.752l12.601,8.752
	c0.58,0.404,1.377,0.264,1.789-0.316l2.527-3.584c0.413-0.58,0.273-1.369-0.314-1.773L25.764,4.106C25.603,3.992,25.426,4,25.246,4
	c-0.003,0-0.007,0-0.014,0c-0.029,0-0.06,0-0.096,0c-0.016,0-0.026,0-0.043,0c-0.018,0-0.048,0-0.071,0c-0.026,0-0.047,0-0.079,0
	c-0.008,0-0.018,0-0.035,0c-0.036,0-0.065,0-0.1,0c-0.005,0-0.005,0-0.009,0c-0.179,0-0.355-0.008-0.517,0.106L8.422,15.075
	c-0.589,0.404-0.729,1.169-0.326,1.748L10.632,20.379z"/>
</svg>
