<svg xmlns="http://www.w3.org/2000/svg" width="60" height="60" viewBox="0 0 256 256"><linearGradient id="a" gradientUnits="userSpaceOnUse" x1="127.999" x2="127.999" y2="256"><stop offset="0" stop-color="#FFE8CF"/><stop offset="1" stop-color="#FFDDB9"/></linearGradient><path fill="url(#a)" d="M0 0h256v256h-256z"/><path fill="#333" d="M65.471 133.603c0 12.081 3.225 13.439 17.001 13.952v4.421h-54.754v-4.421c11.393-.513 14.621-1.871 14.621-13.952v-78.888c0-12.092-3.229-13.449-14.281-13.954v-4.422h96.58l.688 25.505h-4.762c-4.083-12.924-8.507-17-31.123-17h-17.519c-5.262 0-6.451 1.183-6.451 5.95v36.565h8.628c18.029 0 21.942-3.24 24.15-15.315h4.42v40.814h-4.42c-2.378-13.604-9.184-17.002-24.15-17.002h-8.628v37.747zM234.007 36.339h-101.348l-2.354 25.514h5.81c3.713-12.497 9.17-17.008 21.369-17.008h14.284v88.758c0 12.081-3.23 13.439-16.323 13.952v4.421h55.779v-4.421c-13.096-.513-16.327-1.871-16.327-13.952v-88.759h14.278c12.206 0 17.669 4.512 21.373 17.008h5.81l-2.351-25.513z"/></svg>