<?xml version="1.0" encoding="utf-8"?>
<!-- Generator: Adobe Illustrator 13.0.0, SVG Export Plug-In . SVG Version: 6.00 Build 14948)  -->
<!DOCTYPE svg PUBLIC "-//W3C//DTD SVG 1.1//EN" "http://www.w3.org/Graphics/SVG/1.1/DTD/svg11.dtd">
<svg version="1.1" id="Layer_x5F_1_x5F_1" xmlns="http://www.w3.org/2000/svg" xmlns:xlink="http://www.w3.org/1999/xlink" x="0px"
	 y="0px" width="186.061px" height="102.68px" viewBox="253.02 38.27 186.061 102.68"
	 enable-background="new 253.02 38.27 186.061 102.68" xml:space="preserve">
<g>
	<path fill="#040203" d="M253.02,137.641c2.701-0.301,9.76-1.051,11.711-1.801c3.609-1.359,4.66-4.06,4.66-7.37V51.8
		c0-3.31-0.9-5.86-4.66-7.37c-2.851-1.2-9.01-2.55-11.711-2.85v-3.31H339.4v25.7h-3.9c-1.95-6.76-9.77-19.84-16.98-20.74
		c-3.6-0.45-7.51-0.6-12.319-0.6h-16.83v43.45h11.42c7.81,0,11.27-2.56,13.229-4.52c2.7-2.55,4.65-9.17,5.25-14.13h4.061v42.7
		h-4.061c-0.449-4.51-2.85-12.78-5.25-15.19c-1.96-2.1-5.869-4.35-13.229-4.35h-11.42v37.28c0,3.31,1.21,5.86,4.51,7.37
		c1.81,0.75,8.561,2.1,11.271,2.4v3.31H253.02V137.641L253.02,137.641z"/>
</g>
<g>
	<path d="M365.31,137.641c2.71-0.15,10.221-1.201,12.171-1.951c3.609-1.359,4.659-4.209,4.659-7.52V42.63h-5.26
		c-3.46,0-8.11,0.15-11.57,0.6c-6.46,0.9-14.149,14.12-15.949,20.74h-4.181v-25.7h93.9v25.7h-4.15
		c-1.8-6.62-9.52-19.84-15.979-20.74c-3.46-0.45-7.66-0.6-11.57-0.6h-5.26v84.79c0,3.3,1.2,6.01,4.66,7.51
		c1.8,0.76,9.47,2.41,12.17,2.711v3.31H365.31V137.641z"/>
</g>
</svg>