<svg xmlns="http://www.w3.org/2000/svg" width="218" height="17" viewBox="0 0 839.597 69.459" enable-background="new 0 0 839.597 69.459"><g fill="#fff"><path d="M58.146 65.795l.109.049c7.254-1.692 9.314-2.073 9.314-8.789v-44.687c0-6.61-2.109-7.315-9.268-8.688l-.156-.029v-1.971h29.861v1.97l-.17.027c-6.672 1.444-9.255 1.992-9.255 8.69v44.687c0 6.336 2.022 7.506 9.208 8.76l.217-.02v1.971h-29.86v-1.97zM351.667 53.484l-.102.301c-3.594 9.309-13.123 15.457-25.814 15.457-19.65 0-32.287-13.993-32.287-34.056 0-18.417 12.363-34.91 33.326-34.91 4.641 0 7.453.612 10.582 1.312 2.574.577 4.129 1.462 5.877 1.466 1.045.002 2.363-.727 3.066-1.377h2.051l.98 20.064h-3.377c-2.631-10.5-7.953-16.941-18.553-16.941-13.273 0-22.205 12.08-22.205 29.922 0 18.27 10.502 28.908 22.908 28.908 9.834 0 16.824-5.149 20.217-13.22l.066-.212 3.265 3.286zM794.173 48.143h3.301l.064.307c2.014 9.598 9.32 16.114 18.277 16.114 8.008 0 13.428-4.077 13.428-10.419 0-7.749-5.635-10.521-11.197-13.545-4.02-2.186-6.99-3.666-11.277-5.85-8.342-4.264-12.059-10.811-12.059-17.202 0-10.678 9.769-17.548 21.477-17.548 4.537 0 8.875.934 12.27 2.192 2.346.869 4.85.12 5.143-1.971h2.07l2.127 19.648h-3.445l-.037-.289c-3.107-10.238-9.357-15.048-18.467-15.025-6.891.017-11.256 4.181-11.256 9.675 0 4.525 2.469 8.061 9.299 11.865 5.588 3.123 7.395 3.818 11.674 5.956 8.467 4.229 14.033 10.834 14.033 18.396 0 11.103-9.541 19.011-23.5 19.011-5.086 0-9.021-1.078-12.082-2.346-2.066-.857-3.275-1.544-5.309-1.544-1.676 0-2.863.735-3.852 2.224h-2.162l1.48-19.649zM145.056 12.347c0-6.646-2.004-7.019-9.248-8.713l-.154-.005v-1.946l24.229.001v1.972l-.188.03c-7.152 1.672-9.238 2.074-9.238 8.688l.008 55.395h-3.244l-40.355-51.834-.021 41.143c0 6.99 2.967 7.121 9.883 8.725l.166.042v1.946l-24.875-.002v-1.969l.178-.013c7.223-1.685 9.222-2.051 9.222-8.755l-.012-46.742c-2.64-4.016-5.173-5.807-9.185-6.632l-.127-.025v-1.97h17.886l35.043 45.346.032-34.682zM20.417 57.063c0 6.675 2.929 7.397 9.875 8.733l.174.033-.017 1.943-30.449.007v-1.97l.173.009c7.203-1.682 9.228-2.029 9.228-8.727v-44.685c0-6.621-2.046-7.343-9.229-8.72l-.172.002v-1.99h53.981l1.017 15.994h-3.255l-.054-.217c-1.494-8.647-4.52-11.112-13.467-11.112h-12.826c-3.608 0-5.015 1.031-5.015 4.687l.001 19.816 13.421-.012c8.287 0 10.449-2.023 10.449-9.018h3.503v24.917h-3.449c-.015-7.944-2.059-10.458-10.503-10.458l-13.391.008.005 20.76zM578.089 57.127c0 6.508 2.131 7.438 9.209 8.679l.215.038v1.971h-29.861v-1.971l.127-.029c7.24-1.69 9.297-1.976 9.297-8.688l.018-50.979s-5.059.011-5.609.011c-11.369 0-13.881 3.167-15.094 13.851l-.025.235h-3.453l1.203-18.546h57.539l.648 18.546h-3.484l-.004-.296c-1.188-11.52-3.961-13.812-15.43-13.789l-5.299-.004.003 50.971zM639.776 67.811v-1.969c7.35-1.717 9.055-2.077 9.055-8.828l1.43-44.809c0-6.619-2.004-7.137-9.188-8.51l-.129-.025v-1.969h21.262l19.59 47.246 19.189-47.246h21.557v1.98c-6.852 1.486-9.748 1.872-9.748 8.719l1.463 44.768c0 6.422 2.082 7.001 9.424 8.718v1.896l-29.553.02v-1.969c7.346-1.717 9.803-2.295 9.803-8.719l-1.42-45.045-22.57 55.717h-2.27l-22.004-53.736-1.438 43.055c0 6.885 1.842 7.002 9.186 8.719v1.971l-23.639.016zM727.96 67.787v-1.922l.295-.01c7.447-1.688 9.104-2.463 9.104-9.102v-44.414c0-6.658-2.107-7.275-9.398-8.669v-1.971h56.246l.879 15.018h-3.453c-1.334-8.789-4.58-10.416-13.264-10.416l-19.994.002.004 23.898 12.953.023c8.6 0 11.857-1.006 12.279-8.852l.014-.241h3.445v24.939h-3.445l-.018-.247c-.584-8.227-2.943-10.098-12.275-10.098l-12.963.031.012 21.412c0 4.407.6 5.744 4.48 5.744h13.07c13.135 0 15.584-2.375 18.65-14.787l3.461.023-1.865 19.635-58.217.004zM176.464 41.267l10.74-24.993 10.457 24.993h-21.197zm58.973 14.727c0 7.064-1.4 8.623-6.506 9.157-.867.091-1.143.089-1.844.05-7.174-.398-8.357-1.824-13.219-13.006-8.24-18.953-21.463-51.697-21.463-51.697h-3.709s-20.84 47.727-23.088 52.609c-4.473 9.725-5.812 11.424-11.318 12.689l-.184.019v1.97h21.947v-1.97h-.287c-6.82-1.337-9.174-1.158-5.887-9.192l4.309-10.184h25.689l3.654 9.18c2.842 7.068 2.307 8.58-5.168 10.185l-.225.012v1.97l52.787.02v-1.97l-.162-.017c-6.918-1.605-9.859-1.71-9.859-8.702l-.004-41.14 40.352 51.832h3.248l-.006-55.395c0-6.613 2.08-7.021 9.236-8.688l.188-.03v-1.971l-24.227-.002v1.947l.152.004c7.24 1.695 9.248 2.067 9.248 8.713l-.008 34.682-35.07-45.348h-17.883v1.972l.125.025c4.014.825 6.533 2.616 9.18 6.628v45.648zM407.86 41.377l10.742-24.992 10.518 24.992h-21.26zm49.764 23.842c-5.273-.065-7.693-1.344-12.381-12.971l-21.437-51.639h-3.707l-23.116 52.551c-4.307 9.368-6.762 11.407-11.936 12.018-.441.052-1.078.037-1.514.02-6.008-.229-7.467-1.373-7.467-8.143v-44.69c0-6.697 2.582-7.246 9.254-8.689l.172-.027v-1.971h-29.862v1.971l.158.029c7.16 1.373 9.268 2.078 9.268 8.688v44.687c0 6.717-1.959 7.047-9.217 8.739l-.209.002.037 2.012 51.791-.006v-1.971h-.287c-6.82-1.337-9.178-1.061-5.887-9.094l4.307-10.185h25.689l3.65 9.18c2.846 7.068 2.309 8.481-5.164 10.086l-.227.013v1.971l80.898-.014 2.963-19.166h-3.42c-2.551 10.574-5.664 14.092-15.348 14.092h-10.336c-5.818 0-6.371-1.312-6.371-6.562l-.014-43.698c0-6.704 2.23-7.356 9.293-8.714l.273-.004v-2.037h-30.082v1.954l.242.046c7.086 1.362 9.158 1.957 9.158 8.672v41.946c0 8.362-1.576 10.366-7.438 10.876-.633.057-1.186.035-1.733.028zM605.661 65.812l.111.023c7.254-1.693 9.318-2.047 9.318-8.766v-44.684c0-6.609-2.113-7.314-9.273-8.688l-.156-.029v-1.972h29.867v1.972l-.174.027c-6.799 1.472-9.254 1.965-9.254 8.689v44.686c0 6.35 1.963 7.495 9.205 8.762l.223-.02v1.971h-29.867v-1.971z"/></g></svg>