<svg width="163" height="19" viewBox="0 0 163 19" xmlns="http://www.w3.org/2000/svg"><title>A Nikkei Company</title><path d="M8.521.878L.517 15h2.967l1.886-3.404h5.29L11.304 15h2.944L11.442.878H8.521zm.828 3.542l.851 4.692H6.75L9.349 4.42zM34.109.878h-2.852l-1.61 9.2-4.646-9.2h-2.714L19.803 15h2.852l1.679-9.683L29.348 15h2.277L34.109.878zm4.238 3.841h-2.852L33.678 15h2.852l1.817-10.281zm.782-2.99c0-.92-.759-1.61-1.656-1.61-.92 0-1.725.69-1.725 1.679 0 .92.759 1.587 1.679 1.587.897 0 1.702-.667 1.702-1.656zm5.825 7.935l5.244-4.945H46.61l-4.163 4.048L43.988.05h-2.852L38.514 15h2.852l.828-4.784L45.276 15h3.151l-3.473-5.336zm10.678 0l5.244-4.945h-3.588l-4.163 4.048L54.666.05h-2.852L49.192 15h2.852l.828-4.784L55.954 15h3.151l-3.473-5.336zm13.438.851c.138-.69.23-1.334.23-1.932 0-2.507-1.357-4.094-3.864-4.094-3.519 0-5.681 2.944-5.681 6.164 0 2.76 1.771 4.577 4.761 4.577 1.219 0 2.415-.207 3.358-.805l.483-2.484c-1.058.69-2.07.966-3.197.966-1.541 0-2.668-.736-2.668-2.369v-.023h6.578zm-3.772-3.749c.943 0 1.449.667 1.449 1.541 0 .069-.023.23-.046.345h-3.864c.437-1.081 1.265-1.886 2.461-1.886zm8.999-2.047h-2.852L69.628 15h2.852l1.817-10.281zm.782-2.99c0-.92-.759-1.61-1.656-1.61-.92 0-1.725.69-1.725 1.679 0 .92.759 1.587 1.679 1.587.897 0 1.702-.667 1.702-1.656zm14.502 9.614c-1.104.782-2.231 1.173-3.611 1.173-2.093 0-3.519-1.472-3.519-3.68 0-3.266 2.07-5.497 4.899-5.497 1.265 0 2.392.437 3.381 1.38l.506-2.944C90.432 1.108 88.96.648 87.35.648c-4.301 0-7.889 3.404-7.889 8.303 0 3.818 2.53 6.279 6.256 6.279 1.288 0 2.369-.322 3.312-.851l.552-3.036zm5.894 1.472c-1.15 0-1.794-.897-1.794-2.162 0-2.139 1.081-3.749 2.622-3.749 1.15 0 1.794.897 1.794 2.162 0 2.139-1.081 3.749-2.622 3.749zm-.046 2.415c3.036 0 5.497-2.576 5.497-6.141 0-2.76-1.725-4.6-4.577-4.6-3.036 0-5.497 2.576-5.497 6.141 0 2.76 1.725 4.6 4.577 4.6zm15.761-9.407c-.414-.736-1.38-1.334-2.507-1.334-1.265 0-2.185.552-2.806 1.196l.184-.966h-2.852L101.392 15h2.852l1.15-6.509c.368-.828 1.081-1.426 1.863-1.426.828 0 1.173.483 1.173 1.265 0 .161-.023.345-.069.667L107.326 15h2.852l1.127-6.509c.391-.828 1.104-1.426 1.886-1.426.828 0 1.173.483 1.173 1.265 0 .161-.023.345-.069.667L113.237 15h2.875l1.15-6.716c.046-.253.069-.529.069-.782 0-1.679-1.012-3.013-3.059-3.013-1.265 0-2.346.575-3.082 1.334zm9.781 8.303c.368.575 1.311 1.104 2.553 1.104 3.197 0 5.497-2.783 5.497-6.279 0-2.507-1.311-4.462-3.864-4.462-1.104 0-2.139.552-2.714 1.196l.184-.966h-2.852l-2.484 14.076h2.852l.828-4.669zm1.012-5.819c.483-.713 1.219-1.334 2.254-1.334 1.219 0 1.886.92 1.886 2.139 0 2.093-1.104 3.634-2.875 3.634-.943 0-1.61-.483-1.817-1.196l.552-3.243zm14.266.851c-.414-.322-1.311-.598-2.323-.598-2.346 0-4.485 1.38-4.485 3.657 0 1.886 1.587 2.967 3.473 2.967 1.081 0 2.001-.391 2.392-.736l-.092.552h2.783l1.127-6.486c.046-.322.092-.644.092-.92 0-1.978-1.38-3.105-3.818-3.105-1.311 0-2.76.345-3.588.828l-.414 2.461c.897-.506 1.909-.828 3.082-.828 1.242 0 1.909.414 1.909 1.265 0 .115-.023.299-.046.46l-.092.483zm-.552 3.059c-.345.552-1.15.874-1.955.874-.805 0-1.61-.322-1.61-1.081 0-1.012 1.104-1.449 2.047-1.449.805 0 1.518.345 1.656.897l-.138.759zM139.866 15h2.852l1.15-6.509c.391-.851 1.242-1.426 2.116-1.426.966 0 1.403.506 1.403 1.311 0 .138-.023.299-.069.506L146.26 15h2.875l1.15-6.67c.046-.276.069-.552.069-.805 0-1.771-1.104-3.036-3.059-3.036-1.311 0-2.323.552-2.944 1.196l.184-.966h-2.852L139.866 15zm14.128 3.795l8.395-14.076h-2.967l-3.818 6.831-1.035-6.831h-2.737l1.633 10.12-2.323 3.956h2.852z" fill="#fff" fill-rule="evenodd"/></svg>
