<svg xmlns="http://www.w3.org/2000/svg" fill="#ffffff" x="0px" y="0px" width="280px" height="16px" viewBox="0 0 280 16" ><path d="M256.302,0.292c-4.079,0-7.526,3.49-7.526,7.622c0,4.7,3.192,8.108,7.59,8.108 c4.147,0,7.521-3.637,7.521-8.108C263.886,3.712,260.483,0.292,256.302,0.292 M256.365,14.105c-3.511,0-4.783-3.66-4.783-6.116 c0-2.234,1.281-5.774,4.72-5.774c3.298,0,4.782,3.333,4.782,5.699C261.084,10.993,259.464,14.105,256.365,14.105 M184.828,0.293 c2.664,0,5.514,1.185,5.514,4.503c0,3.207-3.129,5.126-6.385,5.131c-0.011-0.532-0.02-1.082-0.026-1.634 c2.463-0.188,3.785-1.384,3.785-3.357c0-1.697-1.376-2.886-3.35-2.886h-1.591c-0.003,4.942,0.096,12.046,0.294,13.809 c-1.058-0.212-1.933-0.219-3.023,0c0.25-2.15,0.413-13.538-0.015-15.57c0,0,2.001,0.069,2.441,0.069 C182.995,0.297,184.289,0.293,184.828,0.293 M210.353,0.406c-0.772,3.023-3.999,11.749-5.553,15.457 c1.016-0.144,2.091-0.109,2.588-0.028c0.517-1.663,1.076-3.642,1.322-4.383c1.612-0.117,3.517-0.117,5.433,0 c0.581,1.553,0.922,2.654,1.449,4.375c0.989-0.092,2.005-0.081,3.08,0.013c-1.541-3.702-5.125-13.248-5.698-15.436 C212.195,0.498,211.2,0.498,210.353,0.406 M209.328,9.372c0,0,1.479-4.397,1.979-5.913c0,0,1.534,4.346,2.076,5.913 C211.74,9.54,210.91,9.54,209.328,9.372 M196.461,13.896c1.624,0.071,5.505-0.158,5.505-0.158c0.013,1.669-0.099,2.166-0.099,2.166 c-1.447-0.193-5.805-0.286-8.166,0c0.349-3.767,0.231-11.538,0.017-15.567c2.179,0.184,6.35,0.147,8.116,0v2.176 c-1.512-0.143-3.921-0.287-5.296-0.244c0,0-0.055,3.606-0.012,4.527c2.455,0.175,4.26-0.115,5.033-0.171v2.171 c0,0-2.85-0.281-5.025-0.113C196.461,10.135,196.461,12.286,196.461,13.896 M279.942,15.523c0.008,0.039,0.061,0.315,0.058,0.319 c-0.675-0.104-1.697-0.12-2.341-0.019c-1.226-1.808-6.069-8.43-7.982-10.901c-0.069,3.616-0.113,9.085,0.11,10.888 c-0.29,0.009-0.721-0.016-0.94-0.016c-0.653,0-0.941-0.033-1.527,0.048c0.32-1.869,0.396-13.387,0-15.416 c0.931,0.019,1.696,0.032,1.942,0.013c0.219-0.013,0.366-0.035,0.366-0.035s5.209,6.986,7.928,10.634 c0.029-1.379,0.153-8.315-0.108-10.667c0.366,0.052,0.818,0.182,1.271,0.176c0.413-0.008,0.859-0.107,1.268-0.18 C279.618,3.307,279.482,13.323,279.942,15.523 M231.658,4.458c0,2.494-1.685,3.931-3.306,4.251c1.182,1.513,5.438,7.158,5.438,7.158 c-1.075-0.16-2.654-0.134-3.443-0.041c-1.355-2.123-3.652-5.407-4.53-6.467c-0.015-0.608-0.022-1.076-0.033-1.675 c2.639,0.055,3.197-1.701,3.197-2.945c0-1.658-1.504-2.524-2.991-2.524h-1.292c-0.113,2.96,0.099,10.236,0.229,13.619 c-1.026-0.105-2.169-0.089-2.986,0c0.348-2.479,0.285-13.769,0-15.492c0,0,1.629,0.125,2.335,0.085 c0.637-0.036,1.232-0.067,1.985-0.067C227.883,0.36,231.658,0.758,231.658,4.458 M242.623,7.034 c1.699,1.083,2.994,2.093,2.994,4.398c0,3.329-2.606,4.511-4.838,4.511c-1.84,0-3.787-0.971-4.689-1.668 c0.337-0.667,0.689-1.355,0.95-2.301c1.003,1.12,2.544,1.912,3.604,1.912c1.399,0,2.235-0.763,2.235-2.042 c0.057-0.957-0.631-1.637-1.496-2.36c-0.628-0.522-2.222-1.553-2.603-1.862c-1.259-1.025-2.029-1.881-2.029-3.514 c0-2.176,1.932-3.816,4.499-3.816c1.312,0,2.541,0.392,4.044,1.394c-0.368,0.559-0.882,1.417-1.149,2.208 c-0.604-0.818-1.533-1.679-2.816-1.679c-1.215,0-1.971,0.705-1.971,1.834c0,0.371,0.268,0.791,0.818,1.285 C240.722,5.807,241.478,6.333,242.623,7.034"/><path d="M4.382,2.736h1.023l4.571,10.258H8.484L7.123,9.971H2.776L1.5,12.994H0L4.382,2.736z M6.528,8.68 L4.883,4.978L3.354,8.68H6.528z M13.486,2.795h1.46v8.867h4.595v1.332h-6.055V2.795z M35.294,2.795h1.46l-4.122,10.24h-0.321 l-3.334-8.291l-3.367,8.293h-0.317L21.186,2.795h1.467l2.811,7.031l2.835-7.031h1.377l2.844,7.031L35.294,2.795z M42.935,2.736 h1.026l4.571,10.258h-1.494l-1.356-3.023h-4.352l-1.275,3.023h-1.5L42.935,2.736z M45.082,8.68l-1.648-3.702L41.906,8.68H45.082z M57.132,2.795h1.77L55.133,7.6v5.395h-1.494V7.602l-3.767-4.807h1.764l2.726,3.516L57.132,2.795z M65.248,8.725l-1.114-0.674 c-0.695-0.426-1.188-0.844-1.482-1.251c-0.297-0.415-0.444-0.886-0.444-1.421c0-0.814,0.278-1.453,0.833-1.961 c0.556-0.5,1.285-0.752,2.176-0.752c0.85,0,1.63,0.246,2.345,0.717v1.659c-0.738-0.703-1.53-1.06-2.374-1.06 c-0.481,0-0.871,0.106-1.179,0.326c-0.306,0.221-0.458,0.508-0.458,0.843c0,0.311,0.109,0.6,0.335,0.864 c0.23,0.264,0.59,0.551,1.092,0.842l1.114,0.657c1.244,0.745,1.864,1.688,1.864,2.833c0,0.814-0.27,1.486-0.815,1.992 c-0.548,0.518-1.263,0.773-2.14,0.773c-1.005,0-1.925-0.309-2.751-0.926V10.33c0.79,0.996,1.699,1.496,2.74,1.496 c0.455,0,0.839-0.127,1.141-0.381c0.306-0.252,0.456-0.572,0.456-0.955C66.586,9.867,66.136,9.277,65.248,8.725 M79.696,2.795h1.459 v8.867h4.594v1.332h-6.054L79.696,2.795L79.696,2.795z M90.016,2.795h5.781v1.299h-4.321v3.113h4.174V8.51h-4.174v3.172h4.463v1.297 h-5.923V2.795z M104.037,2.736h1.028l4.571,10.258h-1.488l-1.366-3.023h-4.353l-1.273,3.023h-1.499L104.037,2.736z M106.182,8.68 l-1.647-3.702l-1.524,3.702H106.182z M113.786,12.994V2.795h2.557c1.028,0,1.85,0.257,2.456,0.77 c0.604,0.512,0.906,1.203,0.906,2.07c0,0.602-0.146,1.105-0.445,1.536c-0.296,0.444-0.722,0.761-1.275,0.978 c0.323,0.207,0.642,0.508,0.956,0.879c0.314,0.367,0.751,1.014,1.312,1.926c0.354,0.582,0.644,1.02,0.855,1.314l0.542,0.727h-1.738 l-0.441-0.672c-0.014-0.023-0.046-0.066-0.091-0.123l-0.285-0.402l-0.451-0.748l-0.484-0.793c-0.304-0.414-0.585-0.75-0.837-1.002 c-0.244-0.25-0.475-0.424-0.672-0.529c-0.208-0.114-0.544-0.17-1.023-0.17h-0.378v4.439H113.786L113.786,12.994z M115.688,4.035 h-0.438V7.26h0.553c0.739,0,1.245-0.06,1.52-0.188c0.277-0.134,0.488-0.319,0.643-0.582c0.155-0.25,0.234-0.541,0.234-0.865 c0-0.328-0.088-0.612-0.257-0.867c-0.175-0.27-0.412-0.449-0.721-0.559C116.908,4.094,116.4,4.035,115.688,4.035 M133.862,2.795 h1.384v10.199h-1.248l-6.819-7.854v7.854h-1.372V2.795h1.182l6.872,7.924V2.795z M140.44,2.795h1.458v10.199h-1.458V2.795z M155.255,2.795h1.389v10.199h-1.258l-6.818-7.854v7.854h-1.375V2.795h1.183l6.88,7.924V2.795L155.255,2.795z M166.438,7.967h3.419 v4.326c-1.255,0.545-2.5,0.82-3.733,0.82c-1.688,0-3.041-0.49-4.053-1.482c-1.007-0.979-1.518-2.195-1.518-3.645 c0-1.52,0.526-2.793,1.574-3.799c1.05-1.012,2.354-1.521,3.938-1.521c0.566,0,1.114,0.066,1.635,0.182 c0.514,0.135,1.164,0.35,1.955,0.693v1.484c-1.219-0.709-2.423-1.06-3.624-1.06c-1.112,0-2.048,0.378-2.815,1.142 c-0.77,0.754-1.145,1.692-1.145,2.792c0,1.157,0.375,2.104,1.145,2.833c0.768,0.738,1.746,1.111,2.948,1.111 c0.583,0,1.283-0.135,2.096-0.4l0.139-0.041V9.268h-1.96V7.967z"/></svg>
